<svg width="608" height="70" viewBox="0 0 608 70" fill="none" xmlns="http://www.w3.org/2000/svg">
<g filter="url(#filter0_d_69_595)">
<mask id="path-1-outside-1_69_595" maskUnits="userSpaceOnUse" x="-1" y="-1" width="609" height="70" fill="black">
<rect fill="white" x="-1" y="-1" width="609" height="70"/>
<path d="M19.925 53L0.5 4.4H9.8L26.3 47.15H23.6L39.35 4.4H49.025L64.775 47.15H62.075L78.575 4.4H87.725L68.525 53H58.475L42.95 10.325H45.5L29.9 53H19.925ZM124.648 53V31.4C124.648 29.4 124.298 27.75 123.598 26.45C122.948 25.1 121.923 24.075 120.523 23.375C119.123 22.675 117.273 22.325 114.973 22.325C112.673 22.325 110.573 22.825 108.673 23.825C106.773 24.775 105.223 26.05 104.023 27.65C102.823 29.25 102.123 31.025 101.923 32.975L101.848 28.775C102.098 26.975 102.648 25.25 103.498 23.6C104.348 21.9 105.473 20.4 106.873 19.1C108.273 17.8 109.923 16.775 111.823 16.025C113.723 15.225 115.823 14.825 118.123 14.825C120.273 14.825 122.248 15.125 124.048 15.725C125.898 16.325 127.473 17.225 128.773 18.425C130.123 19.575 131.148 21.025 131.848 22.775C132.598 24.475 132.973 26.45 132.973 28.7V53H124.648ZM94.0484 53V0.649999H102.373V53H94.0484ZM138.117 15.65H147.042L162.117 51.5L154.917 53L138.117 15.65ZM179.742 15.65L155.742 68H146.967L157.242 47.525L170.817 15.65H179.742ZM255.44 35.975C254.94 39.725 253.615 42.95 251.465 45.65C249.315 48.3 246.44 50.35 242.84 51.8C239.29 53.2 235.14 53.9 230.39 53.9C226.29 53.9 222.515 53.35 219.065 52.25C215.665 51.15 212.69 49.55 210.14 47.45C207.64 45.3 205.69 42.675 204.29 39.575C202.94 36.425 202.265 32.825 202.265 28.775C202.265 24.675 202.94 21.075 204.29 17.975C205.69 14.875 207.64 12.25 210.14 10.1C212.69 7.9 215.665 6.25 219.065 5.15C222.515 4.05 226.29 3.5 230.39 3.5C235.19 3.5 239.365 4.225 242.915 5.675C246.515 7.125 249.39 9.2 251.54 11.9C253.69 14.6 254.99 17.85 255.44 21.65H247.19C246.49 19.4 245.39 17.5 243.89 15.95C242.39 14.35 240.49 13.125 238.19 12.275C235.94 11.425 233.34 11 230.39 11C226.69 11 223.365 11.7 220.415 13.1C217.465 14.45 215.14 16.45 213.44 19.1C211.79 21.7 210.965 24.925 210.965 28.775C210.965 32.575 211.79 35.8 213.44 38.45C215.14 41.05 217.465 43.025 220.415 44.375C223.365 45.725 226.69 46.4 230.39 46.4C233.34 46.4 235.94 46 238.19 45.2C240.44 44.35 242.315 43.15 243.815 41.6C245.315 40 246.415 38.125 247.115 35.975H255.44ZM295.376 53V31.4C295.376 29.4 295.026 27.75 294.326 26.45C293.676 25.1 292.651 24.075 291.251 23.375C289.851 22.675 288.001 22.325 285.701 22.325C283.401 22.325 281.301 22.825 279.401 23.825C277.501 24.775 275.951 26.05 274.751 27.65C273.551 29.25 272.851 31.025 272.651 32.975L272.576 28.775C272.826 26.975 273.376 25.25 274.226 23.6C275.076 21.9 276.201 20.4 277.601 19.1C279.001 17.8 280.651 16.775 282.551 16.025C284.451 15.225 286.551 14.825 288.851 14.825C291.001 14.825 292.976 15.125 294.776 15.725C296.626 16.325 298.201 17.225 299.501 18.425C300.851 19.575 301.876 21.025 302.576 22.775C303.326 24.475 303.701 26.45 303.701 28.7V53H295.376ZM264.776 53V0.649999H273.101V53H264.776ZM332.827 53.825C328.677 53.825 324.952 53.075 321.652 51.575C318.352 50.075 315.752 47.875 313.852 44.975C311.952 42.075 311.002 38.55 311.002 34.4C311.002 30.3 311.952 26.8 313.852 23.9C315.752 20.95 318.352 18.7 321.652 17.15C324.952 15.6 328.677 14.825 332.827 14.825C336.977 14.825 340.677 15.6 343.927 17.15C347.177 18.7 349.727 20.95 351.577 23.9C353.477 26.8 354.427 30.3 354.427 34.4C354.427 38.55 353.477 42.075 351.577 44.975C349.727 47.875 347.177 50.075 343.927 51.575C340.677 53.075 336.977 53.825 332.827 53.825ZM332.827 47C335.227 47 337.427 46.525 339.427 45.575C341.427 44.625 343.002 43.2 344.152 41.3C345.352 39.4 345.952 37.1 345.952 34.4C345.952 31.7 345.352 29.4 344.152 27.5C343.002 25.6 341.427 24.15 339.427 23.15C337.477 22.1 335.277 21.575 332.827 21.575C330.377 21.575 328.152 22.075 326.152 23.075C324.152 24.075 322.527 25.525 321.277 27.425C320.077 29.325 319.477 31.65 319.477 34.4C319.477 37.1 320.077 39.4 321.277 41.3C322.477 43.2 324.077 44.625 326.077 45.575C328.127 46.525 330.377 47 332.827 47ZM381.753 53.825C377.603 53.825 373.878 53.075 370.578 51.575C367.278 50.075 364.678 47.875 362.778 44.975C360.878 42.075 359.928 38.55 359.928 34.4C359.928 30.3 360.878 26.8 362.778 23.9C364.678 20.95 367.278 18.7 370.578 17.15C373.878 15.6 377.603 14.825 381.753 14.825C385.903 14.825 389.603 15.6 392.853 17.15C396.103 18.7 398.653 20.95 400.503 23.9C402.403 26.8 403.353 30.3 403.353 34.4C403.353 38.55 402.403 42.075 400.503 44.975C398.653 47.875 396.103 50.075 392.853 51.575C389.603 53.075 385.903 53.825 381.753 53.825ZM381.753 47C384.153 47 386.353 46.525 388.353 45.575C390.353 44.625 391.928 43.2 393.078 41.3C394.278 39.4 394.878 37.1 394.878 34.4C394.878 31.7 394.278 29.4 393.078 27.5C391.928 25.6 390.353 24.15 388.353 23.15C386.403 22.1 384.203 21.575 381.753 21.575C379.303 21.575 377.078 22.075 375.078 23.075C373.078 24.075 371.453 25.525 370.203 27.425C369.003 29.325 368.403 31.65 368.403 34.4C368.403 37.1 369.003 39.4 370.203 41.3C371.403 43.2 373.003 44.625 375.003 45.575C377.053 46.525 379.303 47 381.753 47ZM409.153 40.7H416.878C417.278 42.6 418.303 44.15 419.953 45.35C421.603 46.5 423.828 47.075 426.628 47.075C428.428 47.075 429.828 46.875 430.828 46.475C431.878 46.075 432.603 45.525 433.003 44.825C433.453 44.125 433.678 43.325 433.678 42.425C433.678 41.325 433.353 40.475 432.703 39.875C432.103 39.275 431.203 38.775 430.003 38.375C428.803 37.975 427.303 37.625 425.503 37.325C423.653 36.875 421.828 36.375 420.028 35.825C418.228 35.275 416.603 34.6 415.153 33.8C413.703 32.95 412.553 31.9 411.703 30.65C410.903 29.35 410.503 27.775 410.503 25.925C410.503 24.225 410.878 22.7 411.628 21.35C412.428 19.95 413.528 18.775 414.928 17.825C416.328 16.875 417.978 16.15 419.878 15.65C421.778 15.1 423.853 14.825 426.103 14.825C429.353 14.825 432.053 15.35 434.203 16.4C436.403 17.45 438.053 18.925 439.153 20.825C440.303 22.725 440.878 24.9 440.878 27.35H433.528C433.128 25.35 432.353 23.9 431.203 23C430.053 22.1 428.328 21.65 426.028 21.65C423.728 21.65 421.978 22.05 420.778 22.85C419.578 23.65 418.978 24.75 418.978 26.15C418.978 27.2 419.353 28.05 420.103 28.7C420.903 29.3 422.028 29.825 423.478 30.275C424.928 30.725 426.628 31.175 428.578 31.625C430.378 32.125 432.078 32.65 433.678 33.2C435.278 33.7 436.703 34.35 437.953 35.15C439.253 35.9 440.278 36.9 441.028 38.15C441.778 39.4 442.153 40.95 442.153 42.8C442.153 45.1 441.528 47.075 440.278 48.725C439.078 50.375 437.328 51.65 435.028 52.55C432.728 53.4 429.953 53.825 426.703 53.825C423.853 53.825 421.378 53.5 419.278 52.85C417.228 52.2 415.503 51.35 414.103 50.3C412.753 49.25 411.703 48.125 410.953 46.925C410.203 45.725 409.678 44.575 409.378 43.475C409.128 42.375 409.053 41.45 409.153 40.7ZM480.895 40.7H488.92C488.52 43.25 487.52 45.525 485.92 47.525C484.37 49.475 482.245 51.025 479.545 52.175C476.845 53.275 473.62 53.825 469.87 53.825C465.62 53.825 461.82 53.05 458.47 51.5C455.12 49.9 452.495 47.65 450.595 44.75C448.695 41.85 447.745 38.4 447.745 34.4C447.745 30.45 448.67 27 450.52 24.05C452.37 21.1 454.92 18.825 458.17 17.225C461.47 15.625 465.27 14.825 469.57 14.825C474.02 14.825 477.72 15.625 480.67 17.225C483.67 18.775 485.895 21.125 487.345 24.275C488.795 27.375 489.395 31.3 489.145 36.05H456.22C456.47 38.15 457.145 40.05 458.245 41.75C459.395 43.4 460.945 44.7 462.895 45.65C464.845 46.55 467.12 47 469.72 47C472.62 47 475.045 46.425 476.995 45.275C478.995 44.125 480.295 42.6 480.895 40.7ZM469.345 21.575C465.945 21.575 463.145 22.425 460.945 24.125C458.745 25.775 457.32 27.9 456.67 30.5H480.745C480.545 27.7 479.42 25.525 477.37 23.975C475.32 22.375 472.645 21.575 469.345 21.575ZM555.78 32.525V4.4H564.255V33.2C564.255 36.25 563.83 38.925 562.98 41.225C562.18 43.525 561.03 45.475 559.53 47.075C558.03 48.675 556.255 50 554.205 51.05C552.155 52.05 549.905 52.775 547.455 53.225C545.055 53.675 542.505 53.9 539.805 53.9C537.005 53.9 534.355 53.675 531.855 53.225C529.355 52.775 527.08 52.05 525.03 51.05C522.98 50 521.205 48.675 519.705 47.075C518.255 45.475 517.105 43.525 516.255 41.225C515.455 38.925 515.055 36.25 515.055 33.2V4.4H523.605V32.525C523.605 36.325 524.305 39.225 525.705 41.225C527.155 43.175 529.105 44.525 531.555 45.275C534.005 46.025 536.755 46.4 539.805 46.4C542.755 46.4 545.43 46.025 547.83 45.275C550.23 44.525 552.155 43.175 553.605 41.225C555.055 39.225 555.78 36.325 555.78 32.525ZM573.069 40.7H580.794C581.194 42.6 582.219 44.15 583.869 45.35C585.519 46.5 587.744 47.075 590.544 47.075C592.344 47.075 593.744 46.875 594.744 46.475C595.794 46.075 596.519 45.525 596.919 44.825C597.369 44.125 597.594 43.325 597.594 42.425C597.594 41.325 597.269 40.475 596.619 39.875C596.019 39.275 595.119 38.775 593.919 38.375C592.719 37.975 591.219 37.625 589.419 37.325C587.569 36.875 585.744 36.375 583.944 35.825C582.144 35.275 580.519 34.6 579.069 33.8C577.619 32.95 576.469 31.9 575.619 30.65C574.819 29.35 574.419 27.775 574.419 25.925C574.419 24.225 574.794 22.7 575.544 21.35C576.344 19.95 577.444 18.775 578.844 17.825C580.244 16.875 581.894 16.15 583.794 15.65C585.694 15.1 587.769 14.825 590.019 14.825C593.269 14.825 595.969 15.35 598.119 16.4C600.319 17.45 601.969 18.925 603.069 20.825C604.219 22.725 604.794 24.9 604.794 27.35H597.444C597.044 25.35 596.269 23.9 595.119 23C593.969 22.1 592.244 21.65 589.944 21.65C587.644 21.65 585.894 22.05 584.694 22.85C583.494 23.65 582.894 24.75 582.894 26.15C582.894 27.2 583.269 28.05 584.019 28.7C584.819 29.3 585.944 29.825 587.394 30.275C588.844 30.725 590.544 31.175 592.494 31.625C594.294 32.125 595.994 32.65 597.594 33.2C599.194 33.7 600.619 34.35 601.869 35.15C603.169 35.9 604.194 36.9 604.944 38.15C605.694 39.4 606.069 40.95 606.069 42.8C606.069 45.1 605.444 47.075 604.194 48.725C602.994 50.375 601.244 51.65 598.944 52.55C596.644 53.4 593.869 53.825 590.619 53.825C587.769 53.825 585.294 53.5 583.194 52.85C581.144 52.2 579.419 51.35 578.019 50.3C576.669 49.25 575.619 48.125 574.869 46.925C574.119 45.725 573.594 44.575 573.294 43.475C573.044 42.375 572.969 41.45 573.069 40.7Z"/>
</mask>
<path d="M19.925 53L0.5 4.4H9.8L26.3 47.15H23.6L39.35 4.4H49.025L64.775 47.15H62.075L78.575 4.4H87.725L68.525 53H58.475L42.95 10.325H45.5L29.9 53H19.925ZM124.648 53V31.4C124.648 29.4 124.298 27.75 123.598 26.45C122.948 25.1 121.923 24.075 120.523 23.375C119.123 22.675 117.273 22.325 114.973 22.325C112.673 22.325 110.573 22.825 108.673 23.825C106.773 24.775 105.223 26.05 104.023 27.65C102.823 29.25 102.123 31.025 101.923 32.975L101.848 28.775C102.098 26.975 102.648 25.25 103.498 23.6C104.348 21.9 105.473 20.4 106.873 19.1C108.273 17.8 109.923 16.775 111.823 16.025C113.723 15.225 115.823 14.825 118.123 14.825C120.273 14.825 122.248 15.125 124.048 15.725C125.898 16.325 127.473 17.225 128.773 18.425C130.123 19.575 131.148 21.025 131.848 22.775C132.598 24.475 132.973 26.45 132.973 28.7V53H124.648ZM94.0484 53V0.649999H102.373V53H94.0484ZM138.117 15.65H147.042L162.117 51.5L154.917 53L138.117 15.65ZM179.742 15.65L155.742 68H146.967L157.242 47.525L170.817 15.65H179.742ZM255.44 35.975C254.94 39.725 253.615 42.95 251.465 45.65C249.315 48.3 246.44 50.35 242.84 51.8C239.29 53.2 235.14 53.9 230.39 53.9C226.29 53.9 222.515 53.35 219.065 52.25C215.665 51.15 212.69 49.55 210.14 47.45C207.64 45.3 205.69 42.675 204.29 39.575C202.94 36.425 202.265 32.825 202.265 28.775C202.265 24.675 202.94 21.075 204.29 17.975C205.69 14.875 207.64 12.25 210.14 10.1C212.69 7.9 215.665 6.25 219.065 5.15C222.515 4.05 226.29 3.5 230.39 3.5C235.19 3.5 239.365 4.225 242.915 5.675C246.515 7.125 249.39 9.2 251.54 11.9C253.69 14.6 254.99 17.85 255.44 21.65H247.19C246.49 19.4 245.39 17.5 243.89 15.95C242.39 14.35 240.49 13.125 238.19 12.275C235.94 11.425 233.34 11 230.39 11C226.69 11 223.365 11.7 220.415 13.1C217.465 14.45 215.14 16.45 213.44 19.1C211.79 21.7 210.965 24.925 210.965 28.775C210.965 32.575 211.79 35.8 213.44 38.45C215.14 41.05 217.465 43.025 220.415 44.375C223.365 45.725 226.69 46.4 230.39 46.4C233.34 46.4 235.94 46 238.19 45.2C240.44 44.35 242.315 43.15 243.815 41.6C245.315 40 246.415 38.125 247.115 35.975H255.44ZM295.376 53V31.4C295.376 29.4 295.026 27.75 294.326 26.45C293.676 25.1 292.651 24.075 291.251 23.375C289.851 22.675 288.001 22.325 285.701 22.325C283.401 22.325 281.301 22.825 279.401 23.825C277.501 24.775 275.951 26.05 274.751 27.65C273.551 29.25 272.851 31.025 272.651 32.975L272.576 28.775C272.826 26.975 273.376 25.25 274.226 23.6C275.076 21.9 276.201 20.4 277.601 19.1C279.001 17.8 280.651 16.775 282.551 16.025C284.451 15.225 286.551 14.825 288.851 14.825C291.001 14.825 292.976 15.125 294.776 15.725C296.626 16.325 298.201 17.225 299.501 18.425C300.851 19.575 301.876 21.025 302.576 22.775C303.326 24.475 303.701 26.45 303.701 28.7V53H295.376ZM264.776 53V0.649999H273.101V53H264.776ZM332.827 53.825C328.677 53.825 324.952 53.075 321.652 51.575C318.352 50.075 315.752 47.875 313.852 44.975C311.952 42.075 311.002 38.55 311.002 34.4C311.002 30.3 311.952 26.8 313.852 23.9C315.752 20.95 318.352 18.7 321.652 17.15C324.952 15.6 328.677 14.825 332.827 14.825C336.977 14.825 340.677 15.6 343.927 17.15C347.177 18.7 349.727 20.95 351.577 23.9C353.477 26.8 354.427 30.3 354.427 34.4C354.427 38.55 353.477 42.075 351.577 44.975C349.727 47.875 347.177 50.075 343.927 51.575C340.677 53.075 336.977 53.825 332.827 53.825ZM332.827 47C335.227 47 337.427 46.525 339.427 45.575C341.427 44.625 343.002 43.2 344.152 41.3C345.352 39.4 345.952 37.1 345.952 34.4C345.952 31.7 345.352 29.4 344.152 27.5C343.002 25.6 341.427 24.15 339.427 23.15C337.477 22.1 335.277 21.575 332.827 21.575C330.377 21.575 328.152 22.075 326.152 23.075C324.152 24.075 322.527 25.525 321.277 27.425C320.077 29.325 319.477 31.65 319.477 34.4C319.477 37.1 320.077 39.4 321.277 41.3C322.477 43.2 324.077 44.625 326.077 45.575C328.127 46.525 330.377 47 332.827 47ZM381.753 53.825C377.603 53.825 373.878 53.075 370.578 51.575C367.278 50.075 364.678 47.875 362.778 44.975C360.878 42.075 359.928 38.55 359.928 34.4C359.928 30.3 360.878 26.8 362.778 23.9C364.678 20.95 367.278 18.7 370.578 17.15C373.878 15.6 377.603 14.825 381.753 14.825C385.903 14.825 389.603 15.6 392.853 17.15C396.103 18.7 398.653 20.95 400.503 23.9C402.403 26.8 403.353 30.3 403.353 34.4C403.353 38.55 402.403 42.075 400.503 44.975C398.653 47.875 396.103 50.075 392.853 51.575C389.603 53.075 385.903 53.825 381.753 53.825ZM381.753 47C384.153 47 386.353 46.525 388.353 45.575C390.353 44.625 391.928 43.2 393.078 41.3C394.278 39.4 394.878 37.1 394.878 34.4C394.878 31.7 394.278 29.4 393.078 27.5C391.928 25.6 390.353 24.15 388.353 23.15C386.403 22.1 384.203 21.575 381.753 21.575C379.303 21.575 377.078 22.075 375.078 23.075C373.078 24.075 371.453 25.525 370.203 27.425C369.003 29.325 368.403 31.65 368.403 34.4C368.403 37.1 369.003 39.4 370.203 41.3C371.403 43.2 373.003 44.625 375.003 45.575C377.053 46.525 379.303 47 381.753 47ZM409.153 40.7H416.878C417.278 42.6 418.303 44.15 419.953 45.35C421.603 46.5 423.828 47.075 426.628 47.075C428.428 47.075 429.828 46.875 430.828 46.475C431.878 46.075 432.603 45.525 433.003 44.825C433.453 44.125 433.678 43.325 433.678 42.425C433.678 41.325 433.353 40.475 432.703 39.875C432.103 39.275 431.203 38.775 430.003 38.375C428.803 37.975 427.303 37.625 425.503 37.325C423.653 36.875 421.828 36.375 420.028 35.825C418.228 35.275 416.603 34.6 415.153 33.8C413.703 32.95 412.553 31.9 411.703 30.65C410.903 29.35 410.503 27.775 410.503 25.925C410.503 24.225 410.878 22.7 411.628 21.35C412.428 19.95 413.528 18.775 414.928 17.825C416.328 16.875 417.978 16.15 419.878 15.65C421.778 15.1 423.853 14.825 426.103 14.825C429.353 14.825 432.053 15.35 434.203 16.4C436.403 17.45 438.053 18.925 439.153 20.825C440.303 22.725 440.878 24.9 440.878 27.35H433.528C433.128 25.35 432.353 23.9 431.203 23C430.053 22.1 428.328 21.65 426.028 21.65C423.728 21.65 421.978 22.05 420.778 22.85C419.578 23.65 418.978 24.75 418.978 26.15C418.978 27.2 419.353 28.05 420.103 28.7C420.903 29.3 422.028 29.825 423.478 30.275C424.928 30.725 426.628 31.175 428.578 31.625C430.378 32.125 432.078 32.65 433.678 33.2C435.278 33.7 436.703 34.35 437.953 35.15C439.253 35.9 440.278 36.9 441.028 38.15C441.778 39.4 442.153 40.95 442.153 42.8C442.153 45.1 441.528 47.075 440.278 48.725C439.078 50.375 437.328 51.65 435.028 52.55C432.728 53.4 429.953 53.825 426.703 53.825C423.853 53.825 421.378 53.5 419.278 52.85C417.228 52.2 415.503 51.35 414.103 50.3C412.753 49.25 411.703 48.125 410.953 46.925C410.203 45.725 409.678 44.575 409.378 43.475C409.128 42.375 409.053 41.45 409.153 40.7ZM480.895 40.7H488.92C488.52 43.25 487.52 45.525 485.92 47.525C484.37 49.475 482.245 51.025 479.545 52.175C476.845 53.275 473.62 53.825 469.87 53.825C465.62 53.825 461.82 53.05 458.47 51.5C455.12 49.9 452.495 47.65 450.595 44.75C448.695 41.85 447.745 38.4 447.745 34.4C447.745 30.45 448.67 27 450.52 24.05C452.37 21.1 454.92 18.825 458.17 17.225C461.47 15.625 465.27 14.825 469.57 14.825C474.02 14.825 477.72 15.625 480.67 17.225C483.67 18.775 485.895 21.125 487.345 24.275C488.795 27.375 489.395 31.3 489.145 36.05H456.22C456.47 38.15 457.145 40.05 458.245 41.75C459.395 43.4 460.945 44.7 462.895 45.65C464.845 46.55 467.12 47 469.72 47C472.62 47 475.045 46.425 476.995 45.275C478.995 44.125 480.295 42.6 480.895 40.7ZM469.345 21.575C465.945 21.575 463.145 22.425 460.945 24.125C458.745 25.775 457.32 27.9 456.67 30.5H480.745C480.545 27.7 479.42 25.525 477.37 23.975C475.32 22.375 472.645 21.575 469.345 21.575ZM555.78 32.525V4.4H564.255V33.2C564.255 36.25 563.83 38.925 562.98 41.225C562.18 43.525 561.03 45.475 559.53 47.075C558.03 48.675 556.255 50 554.205 51.05C552.155 52.05 549.905 52.775 547.455 53.225C545.055 53.675 542.505 53.9 539.805 53.9C537.005 53.9 534.355 53.675 531.855 53.225C529.355 52.775 527.08 52.05 525.03 51.05C522.98 50 521.205 48.675 519.705 47.075C518.255 45.475 517.105 43.525 516.255 41.225C515.455 38.925 515.055 36.25 515.055 33.2V4.4H523.605V32.525C523.605 36.325 524.305 39.225 525.705 41.225C527.155 43.175 529.105 44.525 531.555 45.275C534.005 46.025 536.755 46.4 539.805 46.4C542.755 46.4 545.43 46.025 547.83 45.275C550.23 44.525 552.155 43.175 553.605 41.225C555.055 39.225 555.78 36.325 555.78 32.525ZM573.069 40.7H580.794C581.194 42.6 582.219 44.15 583.869 45.35C585.519 46.5 587.744 47.075 590.544 47.075C592.344 47.075 593.744 46.875 594.744 46.475C595.794 46.075 596.519 45.525 596.919 44.825C597.369 44.125 597.594 43.325 597.594 42.425C597.594 41.325 597.269 40.475 596.619 39.875C596.019 39.275 595.119 38.775 593.919 38.375C592.719 37.975 591.219 37.625 589.419 37.325C587.569 36.875 585.744 36.375 583.944 35.825C582.144 35.275 580.519 34.6 579.069 33.8C577.619 32.95 576.469 31.9 575.619 30.65C574.819 29.35 574.419 27.775 574.419 25.925C574.419 24.225 574.794 22.7 575.544 21.35C576.344 19.95 577.444 18.775 578.844 17.825C580.244 16.875 581.894 16.15 583.794 15.65C585.694 15.1 587.769 14.825 590.019 14.825C593.269 14.825 595.969 15.35 598.119 16.4C600.319 17.45 601.969 18.925 603.069 20.825C604.219 22.725 604.794 24.9 604.794 27.35H597.444C597.044 25.35 596.269 23.9 595.119 23C593.969 22.1 592.244 21.65 589.944 21.65C587.644 21.65 585.894 22.05 584.694 22.85C583.494 23.65 582.894 24.75 582.894 26.15C582.894 27.2 583.269 28.05 584.019 28.7C584.819 29.3 585.944 29.825 587.394 30.275C588.844 30.725 590.544 31.175 592.494 31.625C594.294 32.125 595.994 32.65 597.594 33.2C599.194 33.7 600.619 34.35 601.869 35.15C603.169 35.9 604.194 36.9 604.944 38.15C605.694 39.4 606.069 40.95 606.069 42.8C606.069 45.1 605.444 47.075 604.194 48.725C602.994 50.375 601.244 51.65 598.944 52.55C596.644 53.4 593.869 53.825 590.619 53.825C587.769 53.825 585.294 53.5 583.194 52.85C581.144 52.2 579.419 51.35 578.019 50.3C576.669 49.25 575.619 48.125 574.869 46.925C574.119 45.725 573.594 44.575 573.294 43.475C573.044 42.375 572.969 41.45 573.069 40.7Z" fill="white"/>
<path d="M19.925 53L18.9964 53.3711L19.2478 54H19.925V53ZM0.5 4.4V3.4H-0.97661L-0.428575 4.77114L0.5 4.4ZM9.8 4.4L10.7329 4.03992L10.4859 3.4H9.8V4.4ZM26.3 47.15V48.15H27.7579L27.2329 46.7899L26.3 47.15ZM23.6 47.15L22.6617 46.8043L22.1659 48.15H23.6V47.15ZM39.35 4.4V3.4H38.6527L38.4117 4.05429L39.35 4.4ZM49.025 4.4L49.9633 4.05429L49.7223 3.4H49.025V4.4ZM64.775 47.15V48.15H66.2091L65.7133 46.8043L64.775 47.15ZM62.075 47.15L61.1421 46.7899L60.6171 48.15H62.075V47.15ZM78.575 4.4V3.4H77.8891L77.6421 4.03992L78.575 4.4ZM87.725 4.4L88.6551 4.76743L89.1953 3.4H87.725V4.4ZM68.525 53V54H69.2051L69.4551 53.3674L68.525 53ZM58.475 53L57.5353 53.3419L57.7747 54H58.475V53ZM42.95 10.325V9.325H41.5221L42.0103 10.6669L42.95 10.325ZM45.5 10.325L46.4392 10.6683L46.9303 9.325H45.5V10.325ZM29.9 53V54H30.5992L30.8392 53.3433L29.9 53ZM20.8536 52.6289L1.42858 4.02886L-0.428575 4.77114L18.9964 53.3711L20.8536 52.6289ZM0.5 5.4H9.8V3.4H0.5V5.4ZM8.86708 4.76007L25.3671 47.5101L27.2329 46.7899L10.7329 4.03992L8.86708 4.76007ZM26.3 46.15H23.6V48.15H26.3V46.15ZM24.5383 47.4957L40.2883 4.7457L38.4117 4.05429L22.6617 46.8043L24.5383 47.4957ZM39.35 5.4H49.025V3.4H39.35V5.4ZM48.0867 4.7457L63.8367 47.4957L65.7133 46.8043L49.9633 4.05429L48.0867 4.7457ZM64.775 46.15H62.075V48.15H64.775V46.15ZM63.0079 47.5101L79.5079 4.76008L77.6421 4.03992L61.1421 46.7899L63.0079 47.5101ZM78.575 5.4H87.725V3.4H78.575V5.4ZM86.795 4.03257L67.5949 52.6326L69.4551 53.3674L88.6551 4.76743L86.795 4.03257ZM68.525 52H58.475V54H68.525V52ZM59.4147 52.6581L43.8897 9.98312L42.0103 10.6669L57.5353 53.3419L59.4147 52.6581ZM42.95 11.325H45.5V9.325H42.95V11.325ZM44.5608 9.98167L28.9608 52.6567L30.8392 53.3433L46.4392 10.6683L44.5608 9.98167ZM29.9 52H19.925V54H29.9V52ZM124.648 53H123.648V54H124.648V53ZM123.598 26.45L122.697 26.8838L122.707 26.9042L122.718 26.9241L123.598 26.45ZM108.673 23.825L109.121 24.7194L109.13 24.7148L109.139 24.7099L108.673 23.825ZM104.023 27.65L103.223 27.05L104.023 27.65ZM101.923 32.975L100.924 32.9929L102.918 33.077L101.923 32.975ZM101.848 28.775L100.858 28.6374L100.847 28.7148L100.849 28.7929L101.848 28.775ZM103.498 23.6L104.387 24.058L104.393 24.0472L103.498 23.6ZM111.823 16.025L112.191 16.9552L112.201 16.951L112.211 16.9466L111.823 16.025ZM124.048 15.725L123.732 16.6737L123.74 16.6762L124.048 15.725ZM128.773 18.425L128.095 19.1598L128.11 19.1733L128.125 19.1862L128.773 18.425ZM131.848 22.775L130.92 23.1464L130.926 23.1626L130.934 23.1786L131.848 22.775ZM132.973 53V54H133.973V53H132.973ZM94.0484 53H93.0484V54H94.0484V53ZM94.0484 0.649999V-0.350001H93.0484V0.649999H94.0484ZM102.373 0.649999H103.373V-0.350001H102.373V0.649999ZM102.373 53V54H103.373V53H102.373ZM125.648 53V31.4H123.648V53H125.648ZM125.648 31.4C125.648 29.2906 125.28 27.4641 124.479 25.9759L122.718 26.9241C123.317 28.0359 123.648 29.5094 123.648 31.4H125.648ZM124.499 26.0162C123.749 24.4573 122.559 23.2749 120.971 22.4806L120.076 24.2694C121.288 24.8751 122.148 25.7427 122.697 26.8838L124.499 26.0162ZM120.971 22.4806C119.382 21.6863 117.361 21.325 114.973 21.325V23.325C117.185 23.325 118.865 23.6637 120.076 24.2694L120.971 22.4806ZM114.973 21.325C112.523 21.325 110.261 21.8592 108.208 22.9401L109.139 24.7099C110.885 23.7908 112.824 23.325 114.973 23.325V21.325ZM108.226 22.9306C106.196 23.9456 104.522 25.3181 103.223 27.05L104.823 28.25C105.925 26.7819 107.351 25.6044 109.121 24.7194L108.226 22.9306ZM103.223 27.05C101.917 28.7921 101.148 30.7386 100.929 32.873L102.918 33.077C103.099 31.3114 103.73 29.7079 104.823 28.25L103.223 27.05ZM102.923 32.9571L102.848 28.7571L100.849 28.7929L100.924 32.9929L102.923 32.9571ZM102.839 28.9126C103.073 27.2267 103.588 25.6098 104.387 24.058L102.609 23.142C101.709 24.8902 101.124 26.7233 100.858 28.6374L102.839 28.9126ZM104.393 24.0472C105.189 22.455 106.241 21.0516 107.554 19.8328L106.193 18.3672C104.706 19.7484 103.508 21.345 102.604 23.1528L104.393 24.0472ZM107.554 19.8328C108.856 18.6232 110.398 17.6626 112.191 16.9552L111.456 15.0948C109.449 15.8874 107.69 16.9768 106.193 18.3672L107.554 19.8328ZM112.211 16.9466C113.975 16.204 115.941 15.825 118.123 15.825V13.825C115.706 13.825 113.472 14.246 111.435 15.1034L112.211 16.9466ZM118.123 15.825C120.18 15.825 122.047 16.1119 123.732 16.6737L124.365 14.7763C122.45 14.1381 120.367 13.825 118.123 13.825V15.825ZM123.74 16.6762C125.466 17.2361 126.911 18.0672 128.095 19.1598L129.452 17.6902C128.035 16.3828 126.331 15.4139 124.357 14.7738L123.74 16.6762ZM128.125 19.1862C129.344 20.2243 130.276 21.5374 130.92 23.1464L132.777 22.4036C132.021 20.5126 130.903 18.9256 129.422 17.6638L128.125 19.1862ZM130.934 23.1786C131.617 24.7276 131.973 26.5603 131.973 28.7H133.973C133.973 26.3397 133.58 24.2224 132.763 22.3714L130.934 23.1786ZM131.973 28.7V53H133.973V28.7H131.973ZM132.973 52H124.648V54H132.973V52ZM95.0484 53V0.649999H93.0484V53H95.0484ZM94.0484 1.65H102.373V-0.350001H94.0484V1.65ZM101.373 0.649999V53H103.373V0.649999H101.373ZM102.373 52H94.0484V54H102.373V52ZM138.117 15.65V14.65H136.57L137.205 16.0602L138.117 15.65ZM147.042 15.65L147.964 15.2624L147.706 14.65H147.042V15.65ZM162.117 51.5L162.321 52.479L163.509 52.2314L163.039 51.1124L162.117 51.5ZM154.917 53L154.005 53.4102L154.334 54.1428L155.121 53.979L154.917 53ZM179.742 15.65L180.651 16.0667L181.3 14.65H179.742V15.65ZM155.742 68V69H156.383L156.651 68.4167L155.742 68ZM146.967 68L146.073 67.5515L145.346 69H146.967V68ZM157.242 47.525L158.136 47.9735L158.15 47.9456L158.162 47.9168L157.242 47.525ZM170.817 15.65V14.65H170.156L169.897 15.2582L170.817 15.65ZM138.117 16.65H147.042V14.65H138.117V16.65ZM146.12 16.0376L161.195 51.8876L163.039 51.1124L147.964 15.2624L146.12 16.0376ZM161.913 50.521L154.713 52.021L155.121 53.979L162.321 52.479L161.913 50.521ZM155.829 52.5898L139.029 15.2398L137.205 16.0602L154.005 53.4102L155.829 52.5898ZM178.833 15.2333L154.833 67.5833L156.651 68.4167L180.651 16.0667L178.833 15.2333ZM155.742 67H146.967V69H155.742V67ZM147.861 68.4485L158.136 47.9735L156.348 47.0765L146.073 67.5515L147.861 68.4485ZM158.162 47.9168L171.737 16.0418L169.897 15.2582L156.322 47.1332L158.162 47.9168ZM170.817 16.65H179.742V14.65H170.817V16.65ZM255.44 35.975L256.431 36.1072L256.582 34.975H255.44V35.975ZM251.465 45.65L252.242 46.2801L252.248 46.2729L251.465 45.65ZM242.84 51.8L243.207 52.7303L243.214 52.7276L242.84 51.8ZM219.065 52.25L218.757 53.2015L218.761 53.2027L219.065 52.25ZM210.14 47.45L209.488 48.2082L209.496 48.2151L209.505 48.2219L210.14 47.45ZM204.29 39.575L203.371 39.9689L203.375 39.9778L203.379 39.9866L204.29 39.575ZM204.29 17.975L203.379 17.5634L203.373 17.5757L204.29 17.975ZM210.14 10.1L210.792 10.8582L210.793 10.8572L210.14 10.1ZM219.065 5.15L218.761 4.19725L218.757 4.19855L219.065 5.15ZM242.915 5.675L242.537 6.60076L242.542 6.60258L242.915 5.675ZM251.54 11.9L252.323 11.2771L251.54 11.9ZM255.44 21.65V22.65H256.566L256.433 21.5324L255.44 21.65ZM247.19 21.65L246.235 21.9471L246.454 22.65H247.19V21.65ZM243.89 15.95L243.161 16.6339L243.166 16.6397L243.172 16.6454L243.89 15.95ZM238.19 12.275L237.837 13.2105L237.844 13.213L238.19 12.275ZM220.415 13.1L220.831 14.0094L220.844 14.0034L220.415 13.1ZM213.44 19.1L212.599 18.56L212.596 18.5642L213.44 19.1ZM213.44 38.45L212.591 38.9786L212.597 38.988L212.603 38.9972L213.44 38.45ZM220.415 44.375L219.999 45.2843L220.415 44.375ZM238.19 45.2L238.525 46.1422L238.534 46.1389L238.544 46.1355L238.19 45.2ZM243.815 41.6L244.534 42.2954L244.539 42.2897L244.545 42.2839L243.815 41.6ZM247.115 35.975V34.975H246.389L246.164 35.6654L247.115 35.975ZM254.449 35.8428C253.971 39.4311 252.709 42.4821 250.683 45.0271L252.248 46.2729C254.521 43.4179 255.91 40.0189 256.431 36.1072L254.449 35.8428ZM250.689 45.02C248.66 47.521 245.931 49.477 242.467 50.8724L243.214 52.7276C246.949 51.223 249.971 49.079 252.242 46.28L250.689 45.02ZM242.473 50.8697C239.065 52.2139 235.044 52.9 230.39 52.9V54.9C235.236 54.9 239.516 54.1861 243.207 52.7303L242.473 50.8697ZM230.39 52.9C226.38 52.9 222.709 52.3621 219.369 51.2973L218.761 53.2027C222.322 54.3379 226.201 54.9 230.39 54.9V52.9ZM219.373 51.2986C216.083 50.2341 213.221 48.6918 210.776 46.6781L209.505 48.2219C212.159 50.4082 215.248 52.0659 218.757 53.2014L219.373 51.2986ZM210.792 46.6918C208.407 44.6401 206.543 42.1347 205.202 39.1634L203.379 39.9866C204.837 43.2153 206.874 45.9599 209.488 48.2082L210.792 46.6918ZM205.209 39.1811C203.922 36.1761 203.265 32.7138 203.265 28.775H201.265C201.265 32.9362 201.959 36.6739 203.371 39.9689L205.209 39.1811ZM203.265 28.775C203.265 24.7838 203.922 21.3245 205.207 18.3743L203.373 17.5757C201.958 20.8255 201.265 24.5662 201.265 28.775H203.265ZM205.202 18.3866C206.543 15.4153 208.407 12.9099 210.792 10.8582L209.488 9.34181C206.874 11.5901 204.837 14.3347 203.379 17.5634L205.202 18.3866ZM210.793 10.8572C213.236 8.74955 216.092 7.16292 219.373 6.10144L218.757 4.19855C215.238 5.33708 212.144 7.05044 209.487 9.34284L210.793 10.8572ZM219.369 6.10274C222.709 5.03789 226.38 4.5 230.39 4.5V2.5C226.201 2.5 222.322 3.06211 218.761 4.19725L219.369 6.10274ZM230.39 4.5C235.092 4.5 239.133 5.21043 242.537 6.60075L243.293 4.74924C239.597 3.23957 235.288 2.5 230.39 2.5V4.5ZM242.542 6.60258C246.002 7.99622 248.728 9.97424 250.758 12.5229L252.323 11.2771C250.052 8.42575 247.029 6.25377 243.289 4.74741L242.542 6.60258ZM250.758 12.5229C252.78 15.0619 254.017 18.1317 254.447 21.7676L256.433 21.5324C255.964 17.5683 254.601 14.1381 252.323 11.2771L250.758 12.5229ZM255.44 20.65H247.19V22.65H255.44V20.65ZM248.145 21.3529C247.403 18.9676 246.227 16.9272 244.609 15.2546L243.172 16.6454C244.553 18.0728 245.577 19.8324 246.235 21.9471L248.145 21.3529ZM244.62 15.2661C243.002 13.54 240.965 12.2344 238.537 11.337L237.844 13.213C240.015 14.0156 241.779 15.16 243.161 16.6339L244.62 15.2661ZM238.544 11.3395C236.158 10.4384 233.435 10 230.39 10V12C233.246 12 235.722 12.4116 237.837 13.2105L238.544 11.3395ZM230.39 10C226.562 10 223.087 10.725 219.986 12.1966L220.844 14.0034C223.643 12.675 226.819 12 230.39 12V10ZM219.999 12.1907C216.88 13.6179 214.405 15.7436 212.599 18.56L214.282 19.64C215.875 17.1564 218.05 15.2821 220.831 14.0093L219.999 12.1907ZM212.596 18.5642C210.822 21.3601 209.965 24.7826 209.965 28.775H211.965C211.965 25.0674 212.759 22.0398 214.285 19.6358L212.596 18.5642ZM209.965 28.775C209.965 32.7211 210.823 36.1386 212.591 38.9786L214.289 37.9214C212.757 35.4614 211.965 32.4289 211.965 28.775H209.965ZM212.603 38.9972C214.411 41.7624 216.885 43.8594 219.999 45.2843L220.831 43.4657C218.045 42.1906 215.869 40.3376 214.277 37.9028L212.603 38.9972ZM219.999 45.2843C223.097 46.7019 226.567 47.4 230.39 47.4V45.4C226.814 45.4 223.634 44.7481 220.831 43.4657L219.999 45.2843ZM230.39 47.4C233.429 47.4 236.146 46.9883 238.525 46.1422L237.855 44.2578C235.735 45.0117 233.252 45.4 230.39 45.4V47.4ZM238.544 46.1355C240.916 45.2394 242.92 43.963 244.534 42.2954L243.097 40.9046C241.71 42.337 239.965 43.4606 237.837 44.2645L238.544 46.1355ZM244.545 42.2839C246.148 40.5735 247.322 38.5697 248.066 36.2846L246.164 35.6654C245.508 37.6803 244.482 39.4265 243.086 40.9161L244.545 42.2839ZM247.115 36.975H255.44V34.975H247.115V36.975ZM295.376 53H294.376V54H295.376V53ZM294.326 26.45L293.425 26.8838L293.435 26.9042L293.445 26.9241L294.326 26.45ZM279.401 23.825L279.848 24.7194L279.858 24.7148L279.867 24.7099L279.401 23.825ZM274.751 27.65L273.951 27.05L274.751 27.65ZM272.651 32.975L271.651 32.9929L273.646 33.077L272.651 32.975ZM272.576 28.775L271.585 28.6374L271.575 28.7148L271.576 28.7929L272.576 28.775ZM274.226 23.6L275.115 24.058L275.12 24.0472L274.226 23.6ZM282.551 16.025L282.918 16.9552L282.929 16.951L282.939 16.9466L282.551 16.025ZM294.776 15.725L294.46 16.6737L294.467 16.6762L294.776 15.725ZM299.501 18.425L298.823 19.1598L298.837 19.1733L298.853 19.1862L299.501 18.425ZM302.576 22.775L301.647 23.1464L301.654 23.1626L301.661 23.1786L302.576 22.775ZM303.701 53V54H304.701V53H303.701ZM264.776 53H263.776V54H264.776V53ZM264.776 0.649999V-0.350001H263.776V0.649999H264.776ZM273.101 0.649999H274.101V-0.350001H273.101V0.649999ZM273.101 53V54H274.101V53H273.101ZM296.376 53V31.4H294.376V53H296.376ZM296.376 31.4C296.376 29.2906 296.008 27.4641 295.206 25.9759L293.445 26.9241C294.044 28.0359 294.376 29.5094 294.376 31.4H296.376ZM295.227 26.0162C294.476 24.4573 293.287 23.2749 291.698 22.4806L290.804 24.2694C292.015 24.8751 292.876 25.7427 293.425 26.8838L295.227 26.0162ZM291.698 22.4806C290.11 21.6863 288.089 21.325 285.701 21.325V23.325C287.913 23.325 289.592 23.6637 290.804 24.2694L291.698 22.4806ZM285.701 21.325C283.251 21.325 280.989 21.8592 278.935 22.9401L279.867 24.7099C281.613 23.7908 283.551 23.325 285.701 23.325V21.325ZM278.954 22.9306C276.924 23.9456 275.25 25.3181 273.951 27.05L275.551 28.25C276.652 26.7819 278.078 25.6044 279.848 24.7194L278.954 22.9306ZM273.951 27.05C272.644 28.7921 271.875 30.7386 271.656 32.873L273.646 33.077C273.827 31.3114 274.458 29.7079 275.551 28.25L273.951 27.05ZM273.651 32.9571L273.576 28.7571L271.576 28.7929L271.651 32.9929L273.651 32.9571ZM273.566 28.9126C273.801 27.2267 274.315 25.6098 275.115 24.058L273.337 23.142C272.436 24.8902 271.851 26.7233 271.585 28.6374L273.566 28.9126ZM275.12 24.0472C275.917 22.455 276.969 21.0516 278.281 19.8328L276.921 18.3672C275.433 19.7484 274.235 21.345 273.332 23.1528L275.12 24.0472ZM278.281 19.8328C279.584 18.6232 281.126 17.6626 282.918 16.9552L282.184 15.0948C280.176 15.8874 278.418 16.9768 276.921 18.3672L278.281 19.8328ZM282.939 16.9466C284.703 16.204 286.669 15.825 288.851 15.825V13.825C286.433 13.825 284.199 14.246 282.163 15.1034L282.939 16.9466ZM288.851 15.825C290.908 15.825 292.774 16.1119 294.46 16.6737L295.092 14.7763C293.178 14.1381 291.094 13.825 288.851 13.825V15.825ZM294.467 16.6762C296.194 17.2361 297.639 18.0672 298.823 19.1598L300.179 17.6902C298.763 16.3828 297.058 15.4139 295.084 14.7738L294.467 16.6762ZM298.853 19.1862C300.071 20.2243 301.004 21.5374 301.647 23.1464L303.504 22.4036C302.748 20.5126 301.631 18.9256 300.149 17.6638L298.853 19.1862ZM301.661 23.1786C302.344 24.7276 302.701 26.5603 302.701 28.7H304.701C304.701 26.3397 304.308 24.2224 303.491 22.3714L301.661 23.1786ZM302.701 28.7V53H304.701V28.7H302.701ZM303.701 52H295.376V54H303.701V52ZM265.776 53V0.649999H263.776V53H265.776ZM264.776 1.65H273.101V-0.350001H264.776V1.65ZM272.101 0.649999V53H274.101V0.649999H272.101ZM273.101 52H264.776V54H273.101V52ZM321.652 51.575L321.238 52.4854L321.652 51.575ZM313.852 44.975L314.688 44.427L313.852 44.975ZM313.852 23.9L314.688 24.448L314.692 24.4415L313.852 23.9ZM321.652 17.15L321.227 16.2449L321.652 17.15ZM351.577 23.9L350.73 24.4313L350.735 24.4397L350.74 24.448L351.577 23.9ZM351.577 44.975L350.74 44.4269L350.734 44.4372L351.577 44.975ZM343.927 51.575L343.508 50.667L343.927 51.575ZM344.152 41.3L343.306 40.766L343.301 40.7741L343.296 40.7822L344.152 41.3ZM344.152 27.5L343.296 28.0178L343.301 28.0259L343.306 28.034L344.152 27.5ZM339.427 23.15L338.953 24.0305L338.966 24.0377L338.98 24.0444L339.427 23.15ZM326.152 23.075L325.705 22.1806L326.152 23.075ZM321.277 27.425L320.441 26.8754L320.436 26.8831L320.431 26.891L321.277 27.425ZM321.277 41.3L320.431 41.834L321.277 41.3ZM326.077 45.575L325.648 46.4783L325.656 46.4823L326.077 45.575ZM332.827 52.825C328.799 52.825 325.218 52.0976 322.066 50.6646L321.238 52.4854C324.685 54.0524 328.555 54.825 332.827 54.825V52.825ZM322.066 50.6646C318.93 49.2392 316.48 47.1612 314.688 44.427L313.015 45.523C315.024 48.5888 317.774 50.9108 321.238 52.4854L322.066 50.6646ZM314.688 44.427C312.914 41.7196 312.002 38.3942 312.002 34.4H310.002C310.002 38.7058 310.989 42.4304 313.015 45.523L314.688 44.427ZM312.002 34.4C312.002 30.4585 312.913 27.1573 314.688 24.448L313.015 23.352C310.99 26.4427 310.002 30.1415 310.002 34.4H312.002ZM314.692 24.4415C316.487 21.6557 318.94 19.5286 322.077 18.0551L321.227 16.2449C317.764 17.8714 315.017 20.2443 313.011 23.3585L314.692 24.4415ZM322.077 18.0551C325.227 16.5757 328.803 15.825 332.827 15.825V13.825C328.55 13.825 324.677 14.6243 321.227 16.2449L322.077 18.0551ZM332.827 15.825C336.85 15.825 340.4 16.5758 343.496 18.0526L344.357 16.2474C340.954 14.6242 337.103 13.825 332.827 13.825V15.825ZM343.496 18.0526C346.581 19.5238 348.984 21.6478 350.73 24.4313L352.424 23.3687C350.47 20.2522 347.772 17.8762 344.357 16.2474L343.496 18.0526ZM350.74 24.448C352.515 27.1573 353.427 30.4585 353.427 34.4H355.427C355.427 30.1415 354.438 26.4427 352.413 23.352L350.74 24.448ZM353.427 34.4C353.427 38.3942 352.514 41.7196 350.74 44.427L352.413 45.523C354.439 42.4304 355.427 38.7058 355.427 34.4H353.427ZM350.734 44.4372C348.991 47.169 346.591 49.2439 343.508 50.667L344.346 52.483C347.762 50.9062 350.463 48.581 352.42 45.5128L350.734 44.4372ZM343.508 50.667C340.408 52.0975 336.855 52.825 332.827 52.825V54.825C337.099 54.825 340.945 54.0525 344.346 52.483L343.508 50.667ZM332.827 48C335.363 48 337.711 47.4972 339.856 46.4783L338.998 44.6717C337.143 45.5528 335.091 46 332.827 46V48ZM339.856 46.4783C342.033 45.444 343.756 43.8847 345.007 41.8178L343.296 40.7822C342.247 42.5153 340.82 43.806 338.998 44.6717L339.856 46.4783ZM344.997 41.834C346.317 39.7445 346.952 37.2506 346.952 34.4H344.952C344.952 36.9494 344.387 39.0555 343.306 40.766L344.997 41.834ZM346.952 34.4C346.952 31.5494 346.317 29.0555 344.997 26.966L343.306 28.034C344.387 29.7445 344.952 31.8506 344.952 34.4H346.952ZM345.007 26.9822C343.759 24.9195 342.042 23.3394 339.874 22.2556L338.98 24.0444C340.812 24.9606 342.245 26.2805 343.296 28.0178L345.007 26.9822ZM339.901 22.2695C337.79 21.133 335.424 20.575 332.827 20.575V22.575C335.129 22.575 337.163 23.067 338.953 24.0305L339.901 22.2695ZM332.827 20.575C330.237 20.575 327.856 21.1047 325.705 22.1806L326.599 23.9694C328.447 23.0453 330.517 22.575 332.827 22.575V20.575ZM325.705 22.1806C323.544 23.2607 321.786 24.8309 320.441 26.8754L322.112 27.9746C323.267 26.2191 324.759 24.8893 326.599 23.9694L325.705 22.1806ZM320.431 26.891C319.11 28.9833 318.477 31.5034 318.477 34.4H320.477C320.477 31.7966 321.044 29.6667 322.122 27.959L320.431 26.891ZM318.477 34.4C318.477 37.2506 319.112 39.7445 320.431 41.834L322.122 40.766C321.042 39.0555 320.477 36.9494 320.477 34.4H318.477ZM320.431 41.834C321.731 43.8915 323.474 45.4458 325.648 46.4783L326.506 44.6717C324.679 43.8042 323.223 42.5085 322.122 40.766L320.431 41.834ZM325.656 46.4823C327.849 47.4984 330.244 48 332.827 48V46C330.51 46 328.405 45.5516 326.497 44.6677L325.656 46.4823ZM370.578 51.575L370.164 52.4854L370.578 51.575ZM362.778 44.975L363.614 44.427L362.778 44.975ZM362.778 23.9L363.614 24.448L363.618 24.4415L362.778 23.9ZM370.578 17.15L370.152 16.2449L370.578 17.15ZM400.503 23.9L399.655 24.4313L399.661 24.4397L399.666 24.448L400.503 23.9ZM400.503 44.975L399.666 44.4269L399.659 44.4372L400.503 44.975ZM392.853 51.575L392.433 50.667L392.853 51.575ZM393.078 41.3L392.232 40.766L392.227 40.7741L392.222 40.7822L393.078 41.3ZM393.078 27.5L392.222 28.0178L392.227 28.0259L392.232 28.034L393.078 27.5ZM388.353 23.15L387.878 24.0305L387.892 24.0377L387.905 24.0444L388.353 23.15ZM375.078 23.075L374.63 22.1806L375.078 23.075ZM370.203 27.425L369.367 26.8754L369.362 26.8831L369.357 26.891L370.203 27.425ZM370.203 41.3L369.357 41.834L370.203 41.3ZM375.003 45.575L374.573 46.4783L374.582 46.4823L375.003 45.575ZM381.753 52.825C377.725 52.825 374.144 52.0976 370.991 50.6646L370.164 52.4854C373.611 54.0524 377.48 54.825 381.753 54.825V52.825ZM370.991 50.6646C367.855 49.2392 365.405 47.1612 363.614 44.427L361.941 45.523C363.95 48.5888 366.7 50.9108 370.164 52.4854L370.991 50.6646ZM363.614 44.427C361.84 41.7196 360.928 38.3942 360.928 34.4H358.928C358.928 38.7058 359.915 42.4304 361.941 45.523L363.614 44.427ZM360.928 34.4C360.928 30.4585 361.839 27.1573 363.614 24.448L361.941 23.352C359.916 26.4427 358.928 30.1415 358.928 34.4H360.928ZM363.618 24.4415C365.413 21.6557 367.866 19.5286 371.003 18.0551L370.152 16.2449C366.689 17.8714 363.943 20.2443 361.937 23.3585L363.618 24.4415ZM371.003 18.0551C374.152 16.5757 377.729 15.825 381.753 15.825V13.825C377.476 13.825 373.603 14.6243 370.152 16.2449L371.003 18.0551ZM381.753 15.825C385.776 15.825 389.326 16.5758 392.422 18.0526L393.283 16.2474C389.879 14.6242 386.029 13.825 381.753 13.825V15.825ZM392.422 18.0526C395.507 19.5238 397.91 21.6478 399.655 24.4313L401.35 23.3687C399.395 20.2522 396.698 17.8762 393.283 16.2474L392.422 18.0526ZM399.666 24.448C401.441 27.1573 402.353 30.4585 402.353 34.4H404.353C404.353 30.1415 403.364 26.4427 401.339 23.352L399.666 24.448ZM402.353 34.4C402.353 38.3942 401.44 41.7196 399.666 44.427L401.339 45.523C403.365 42.4304 404.353 38.7058 404.353 34.4H402.353ZM399.659 44.4372C397.917 47.169 395.517 49.2439 392.433 50.667L393.272 52.483C396.688 50.9062 399.388 48.581 401.346 45.5128L399.659 44.4372ZM392.433 50.667C389.334 52.0975 385.781 52.825 381.753 52.825V54.825C386.024 54.825 389.871 54.0525 393.272 52.483L392.433 50.667ZM381.753 48C384.288 48 386.637 47.4972 388.782 46.4783L387.923 44.6717C386.069 45.5528 384.017 46 381.753 46V48ZM388.782 46.4783C390.959 45.444 392.682 43.8847 393.933 41.8178L392.222 40.7822C391.173 42.5153 389.746 43.806 387.923 44.6717L388.782 46.4783ZM393.923 41.834C395.243 39.7445 395.878 37.2506 395.878 34.4H393.878C393.878 36.9494 393.312 39.0555 392.232 40.766L393.923 41.834ZM395.878 34.4C395.878 31.5494 395.243 29.0555 393.923 26.966L392.232 28.034C393.312 29.7445 393.878 31.8506 393.878 34.4H395.878ZM393.933 26.9822C392.685 24.9195 390.967 23.3394 388.8 22.2556L387.905 24.0444C389.738 24.9606 391.171 26.2805 392.222 28.0178L393.933 26.9822ZM388.827 22.2695C386.716 21.133 384.35 20.575 381.753 20.575V22.575C384.055 22.575 386.089 23.067 387.878 24.0305L388.827 22.2695ZM381.753 20.575C379.162 20.575 376.782 21.1047 374.63 22.1806L375.525 23.9694C377.373 23.0453 379.443 22.575 381.753 22.575V20.575ZM374.63 22.1806C372.47 23.2607 370.712 24.8309 369.367 26.8754L371.038 27.9746C372.193 26.2191 373.685 24.8893 375.525 23.9694L374.63 22.1806ZM369.357 26.891C368.036 28.9833 367.403 31.5034 367.403 34.4H369.403C369.403 31.7966 369.969 29.6667 371.048 27.959L369.357 26.891ZM367.403 34.4C367.403 37.2506 368.037 39.7445 369.357 41.834L371.048 40.766C369.968 39.0555 369.403 36.9494 369.403 34.4H367.403ZM369.357 41.834C370.657 43.8915 372.4 45.4458 374.573 46.4783L375.432 44.6717C373.605 43.8042 372.149 42.5085 371.048 40.766L369.357 41.834ZM374.582 46.4823C376.775 47.4984 379.17 48 381.753 48V46C379.435 46 377.33 45.5516 375.423 44.6677L374.582 46.4823ZM409.153 40.7V39.7H408.278L408.162 40.5678L409.153 40.7ZM416.878 40.7L417.857 40.494L417.69 39.7H416.878V40.7ZM419.953 45.35L419.365 46.1587L419.373 46.1646L419.382 46.1704L419.953 45.35ZM430.828 46.475L430.472 45.5405L430.465 45.5435L430.457 45.5465L430.828 46.475ZM433.003 44.825L432.162 44.2842L432.148 44.3062L432.135 44.3289L433.003 44.825ZM432.703 39.875L431.996 40.5821L432.01 40.5962L432.025 40.6098L432.703 39.875ZM430.003 38.375L430.32 37.4263L430.003 38.375ZM425.503 37.325L425.267 38.2967L425.303 38.3054L425.339 38.3114L425.503 37.325ZM420.028 35.825L420.321 34.8686L420.028 35.825ZM415.153 33.8L414.648 34.6627L414.659 34.6693L414.67 34.6756L415.153 33.8ZM411.703 30.65L410.852 31.1741L410.864 31.1935L410.876 31.2123L411.703 30.65ZM411.628 21.35L410.76 20.8538L410.754 20.8644L411.628 21.35ZM414.928 17.825L415.49 18.6525H415.49L414.928 17.825ZM419.878 15.65L420.133 16.6171L420.145 16.614L420.156 16.6106L419.878 15.65ZM434.203 16.4L433.764 17.2986L433.773 17.3025L434.203 16.4ZM439.153 20.825L438.288 21.326L438.293 21.3345L438.298 21.3428L439.153 20.825ZM440.878 27.35V28.35H441.878V27.35H440.878ZM433.528 27.35L432.548 27.5461L432.709 28.35H433.528V27.35ZM431.203 23L430.587 23.7875L431.203 23ZM420.103 28.7L419.448 29.4557L419.475 29.4788L419.503 29.5L420.103 28.7ZM423.478 30.275L423.182 31.2301L423.478 30.275ZM428.578 31.625L428.846 30.6615L428.825 30.6556L428.803 30.6506L428.578 31.625ZM433.678 33.2L433.353 34.1457L433.367 34.1503L433.38 34.1545L433.678 33.2ZM437.953 35.15L437.414 35.9923L437.434 36.0047L437.454 36.0162L437.953 35.15ZM441.028 38.15L441.886 37.6355L441.028 38.15ZM440.278 48.725L439.481 48.1211L439.475 48.1289L439.47 48.1368L440.278 48.725ZM435.028 52.55L435.375 53.488L435.384 53.4847L435.393 53.4812L435.028 52.55ZM419.278 52.85L418.976 53.8033L418.983 53.8053L419.278 52.85ZM414.103 50.3L413.489 51.0894L413.496 51.0947L413.503 51.1L414.103 50.3ZM410.953 46.925L410.105 47.455L410.953 46.925ZM409.378 43.475L408.403 43.6966L408.408 43.7175L408.414 43.7381L409.378 43.475ZM409.153 41.7H416.878V39.7H409.153V41.7ZM415.9 40.906C416.354 43.0615 417.526 44.8212 419.365 46.1587L420.542 44.5413C419.081 43.4788 418.203 42.1385 417.857 40.494L415.9 40.906ZM419.382 46.1704C421.253 47.475 423.702 48.075 426.628 48.075V46.075C423.955 46.075 421.953 45.525 420.525 44.5296L419.382 46.1704ZM426.628 48.075C428.482 48.075 430.028 47.872 431.2 47.4035L430.457 45.5465C429.628 45.878 428.375 46.075 426.628 46.075V48.075ZM431.184 47.4095C432.366 46.9591 433.319 46.2885 433.872 45.3211L432.135 44.3289C431.888 44.7615 431.39 45.1909 430.472 45.5405L431.184 47.4095ZM433.845 45.3658C434.407 44.4913 434.678 43.5005 434.678 42.425H432.678C432.678 43.1495 432.5 43.7587 432.162 44.2842L433.845 45.3658ZM434.678 42.425C434.678 41.1187 434.285 39.9738 433.382 39.1402L432.025 40.6098C432.422 40.9762 432.678 41.5313 432.678 42.425H434.678ZM433.41 39.1679C432.66 38.4175 431.6 37.8533 430.32 37.4263L429.687 39.3237C430.806 39.6967 431.547 40.1325 431.996 40.5821L433.41 39.1679ZM430.32 37.4263C429.054 37.0043 427.499 36.6438 425.668 36.3386L425.339 38.3114C427.108 38.6062 428.553 38.9457 429.687 39.3237L430.32 37.4263ZM425.74 36.3533C423.908 35.9078 422.102 35.4129 420.321 34.8686L419.736 36.7813C421.555 37.3371 423.398 37.8422 425.267 38.2967L425.74 36.3533ZM420.321 34.8686C418.578 34.3362 417.018 33.6868 415.636 32.9244L414.67 34.6756C416.188 35.5132 417.879 36.2138 419.736 36.7813L420.321 34.8686ZM415.659 32.9373C414.323 32.1539 413.288 31.2018 412.53 30.0877L410.876 31.2123C411.819 32.5982 413.084 33.7461 414.648 34.6627L415.659 32.9373ZM412.555 30.1259C411.871 29.014 411.503 27.6293 411.503 25.925H409.503C409.503 27.9207 409.936 29.686 410.852 31.1741L412.555 30.1259ZM411.503 25.925C411.503 24.3774 411.843 23.0225 412.502 21.8356L410.754 20.8644C409.914 22.3775 409.503 24.0726 409.503 25.925H411.503ZM412.497 21.8461C413.217 20.5851 414.21 19.5212 415.49 18.6525L414.367 16.9975C412.847 18.0288 411.639 19.3149 410.76 20.8539L412.497 21.8461ZM415.49 18.6525C416.782 17.7754 418.325 17.0928 420.133 16.6171L419.624 14.6829C417.632 15.2072 415.874 15.9746 414.367 16.9975L415.49 18.6525ZM420.156 16.6106C421.955 16.09 423.935 15.825 426.103 15.825V13.825C423.772 13.825 421.602 14.11 419.6 14.6894L420.156 16.6106ZM426.103 15.825C429.253 15.825 431.791 16.3348 433.764 17.2986L434.642 15.5014C432.316 14.3652 429.454 13.825 426.103 13.825V15.825ZM433.773 17.3025C435.811 18.2756 437.3 19.6197 438.288 21.326L440.019 20.324C438.807 18.2303 436.995 16.6244 434.634 15.4975L433.773 17.3025ZM438.298 21.3428C439.344 23.0708 439.878 25.0631 439.878 27.35H441.878C441.878 24.7369 441.263 22.3792 440.009 20.3072L438.298 21.3428ZM440.878 26.35H433.528V28.35H440.878V26.35ZM434.509 27.1539C434.081 25.0119 433.221 23.3089 431.82 22.2125L430.587 23.7875C431.486 24.491 432.176 25.6881 432.548 27.5461L434.509 27.1539ZM431.82 22.2125C430.418 21.1155 428.431 20.65 426.028 20.65V22.65C428.225 22.65 429.689 23.0845 430.587 23.7875L431.82 22.2125ZM426.028 20.65C423.638 20.65 421.659 21.0611 420.224 22.0179L421.333 23.682C422.298 23.0389 423.818 22.65 426.028 22.65V20.65ZM420.224 22.0179C418.755 22.9967 417.978 24.4037 417.978 26.15H419.978C419.978 25.0963 420.401 24.3033 421.333 23.682L420.224 22.0179ZM417.978 26.15C417.978 27.4709 418.465 28.6036 419.448 29.4557L420.758 27.9443C420.241 27.4964 419.978 26.9291 419.978 26.15H417.978ZM419.503 29.5C420.429 30.1946 421.673 30.7619 423.182 31.2301L423.775 29.3199C422.383 28.8881 421.377 28.4054 420.703 27.9L419.503 29.5ZM423.182 31.2301C424.662 31.6893 426.386 32.1455 428.353 32.5994L428.803 30.6506C426.87 30.2045 425.195 29.7607 423.775 29.3199L423.182 31.2301ZM428.311 32.5885C430.093 33.0837 431.774 33.6028 433.353 34.1457L434.003 32.2543C432.383 31.6972 430.663 31.1663 428.846 30.6615L428.311 32.5885ZM433.38 34.1545C434.906 34.6313 436.248 35.2459 437.414 35.9923L438.492 34.3077C437.159 33.4541 435.651 32.7687 433.977 32.2455L433.38 34.1545ZM437.454 36.0162C438.611 36.6839 439.511 37.5646 440.171 38.6645L441.886 37.6355C441.046 36.2354 439.896 35.1161 438.453 34.2838L437.454 36.0162ZM440.171 38.6645C440.806 39.7224 441.153 41.0831 441.153 42.8H443.153C443.153 40.8169 442.751 39.0776 441.886 37.6355L440.171 38.6645ZM441.153 42.8C441.153 44.9075 440.585 46.6642 439.481 48.1211L441.075 49.3289C442.472 47.4858 443.153 45.2925 443.153 42.8H441.153ZM439.47 48.1368C438.404 49.6026 436.824 50.7736 434.664 51.6188L435.393 53.4812C437.833 52.5264 439.753 51.1474 441.087 49.3132L439.47 48.1368ZM434.682 51.612C432.522 52.4101 429.871 52.825 426.703 52.825V54.825C430.035 54.825 432.934 54.3899 435.375 53.488L434.682 51.612ZM426.703 52.825C423.926 52.825 421.555 52.5078 419.574 51.8947L418.983 53.8053C421.202 54.4922 423.781 54.825 426.703 54.825V52.825ZM419.581 51.8968C417.614 51.2733 415.995 50.4691 414.703 49.5L413.503 51.1C415.011 52.2309 416.843 53.1267 418.976 53.8032L419.581 51.8968ZM414.717 49.5107C413.441 48.5181 412.478 47.4772 411.801 46.395L410.105 47.455C410.929 48.7728 412.065 49.9819 413.489 51.0894L414.717 49.5107ZM411.801 46.395C411.091 45.2587 410.612 44.1982 410.343 43.2119L408.414 43.7381C408.745 44.9518 409.315 46.1913 410.105 47.455L411.801 46.395ZM410.353 43.2534C410.118 42.218 410.066 41.4213 410.145 40.8322L408.162 40.5678C408.041 41.4787 408.138 42.532 408.403 43.6966L410.353 43.2534ZM480.895 40.7V39.7H480.162L479.941 40.3989L480.895 40.7ZM488.92 40.7L489.908 40.855L490.089 39.7H488.92V40.7ZM485.92 47.525L485.139 46.9003L485.137 46.9028L485.92 47.525ZM479.545 52.175L479.922 53.1011L479.93 53.0981L479.937 53.095L479.545 52.175ZM458.47 51.5L458.039 52.4024L458.05 52.4076L458.47 51.5ZM450.595 44.75L449.758 45.298L450.595 44.75ZM450.52 24.05L451.367 24.5813L450.52 24.05ZM458.17 17.225L457.734 16.3252L457.728 16.3278L458.17 17.225ZM480.67 17.225L480.193 18.104L480.202 18.1088L480.211 18.1134L480.67 17.225ZM487.345 24.275L486.437 24.6931L486.439 24.6987L487.345 24.275ZM489.145 36.05V37.05H490.094L490.144 36.1026L489.145 36.05ZM456.22 36.05V35.05H455.094L455.227 36.1682L456.22 36.05ZM458.245 41.75L457.405 42.2933L457.415 42.3077L457.425 42.3218L458.245 41.75ZM462.895 45.65L462.457 46.549L462.466 46.5536L462.476 46.558L462.895 45.65ZM476.995 45.275L476.496 44.408L476.487 44.4136L476.995 45.275ZM460.945 24.125L461.545 24.925L461.551 24.9207L461.556 24.9163L460.945 24.125ZM456.67 30.5L455.7 30.2575L455.389 31.5H456.67V30.5ZM480.745 30.5V31.5H481.819L481.742 30.4288L480.745 30.5ZM477.37 23.975L476.755 24.7633L476.761 24.768L476.767 24.7727L477.37 23.975ZM480.895 41.7H488.92V39.7H480.895V41.7ZM487.932 40.545C487.559 42.9245 486.629 45.0373 485.139 46.9003L486.701 48.1497C488.41 46.0127 489.481 43.5755 489.908 40.855L487.932 40.545ZM485.137 46.9028C483.708 48.7011 481.727 50.1585 479.153 51.255L479.937 53.095C482.763 51.8915 485.032 50.2489 486.703 48.1472L485.137 46.9028ZM479.168 51.2489C476.616 52.2883 473.526 52.825 469.87 52.825V54.825C473.714 54.825 477.073 54.2617 479.922 53.1011L479.168 51.2489ZM469.87 52.825C465.743 52.825 462.09 52.073 458.89 50.5924L458.05 52.4076C461.55 54.027 465.497 54.825 469.87 54.825V52.825ZM458.901 50.5976C455.704 49.0706 453.224 46.9381 451.431 44.202L449.758 45.298C451.766 48.3619 454.536 50.7293 458.039 52.4024L458.901 50.5976ZM451.431 44.202C449.654 41.4887 448.745 38.236 448.745 34.4H446.745C446.745 38.564 447.736 42.2113 449.758 45.298L451.431 44.202ZM448.745 34.4C448.745 30.612 449.63 27.3515 451.367 24.5813L449.673 23.5187C447.71 26.6485 446.745 30.288 446.745 34.4H448.745ZM451.367 24.5813C453.114 21.795 455.521 19.6437 458.612 18.1222L457.728 16.3278C454.319 18.0063 451.625 20.405 449.673 23.5187L451.367 24.5813ZM458.606 18.1248C461.749 16.6012 465.395 15.825 469.57 15.825V13.825C465.145 13.825 461.191 14.6488 457.734 16.3252L458.606 18.1248ZM469.57 15.825C473.906 15.825 477.43 16.6051 480.193 18.104L481.147 16.346C478.01 14.6449 474.134 13.825 469.57 13.825V15.825ZM480.211 18.1134C483.007 19.5582 485.077 21.7397 486.437 24.6931L488.253 23.8569C486.713 20.5103 484.333 17.9918 481.129 16.3366L480.211 18.1134ZM486.439 24.6987C487.798 27.6034 488.391 31.3509 488.146 35.9974L490.144 36.1026C490.399 31.2491 489.792 27.1466 488.251 23.8513L486.439 24.6987ZM489.145 35.05H456.22V37.05H489.145V35.05ZM455.227 36.1682C455.494 38.4128 456.219 40.4594 457.405 42.2933L459.085 41.2067C458.071 39.6406 457.446 37.8872 457.213 35.9318L455.227 36.1682ZM457.425 42.3218C458.68 44.1226 460.366 45.5303 462.457 46.549L463.333 44.751C461.524 43.8697 460.11 42.6774 459.065 41.1782L457.425 42.3218ZM462.476 46.558C464.582 47.53 467.005 48 469.72 48V46C467.235 46 465.108 45.57 463.314 44.742L462.476 46.558ZM469.72 48C472.749 48 475.361 47.3993 477.503 46.1364L476.487 44.4136C474.728 45.4507 472.491 46 469.72 46V48ZM477.493 46.1419C479.674 44.8881 481.161 43.1775 481.849 41.0011L479.941 40.3989C479.429 42.0225 478.316 43.3619 476.496 44.4081L477.493 46.1419ZM469.345 20.575C465.774 20.575 462.745 21.4704 460.333 23.3337L461.556 24.9163C463.545 23.3796 466.116 22.575 469.345 22.575V20.575ZM460.345 23.325C457.966 25.1089 456.407 27.4284 455.7 30.2575L457.64 30.7425C458.233 28.3716 459.523 26.4411 461.545 24.925L460.345 23.325ZM456.67 31.5H480.745V29.5H456.67V31.5ZM481.742 30.4288C481.524 27.3709 480.276 24.9186 477.973 23.1773L476.767 24.7727C478.564 26.1314 479.566 28.0291 479.747 30.5712L481.742 30.4288ZM477.985 23.1867C475.717 21.4162 472.807 20.575 469.345 20.575V22.575C472.483 22.575 474.923 23.3338 476.755 24.7633L477.985 23.1867ZM555.78 4.4V3.4H554.78V4.4H555.78ZM564.255 4.4H565.255V3.4H564.255V4.4ZM562.98 41.225L562.042 40.8783L562.039 40.8874L562.036 40.8965L562.98 41.225ZM559.53 47.075L558.801 46.3911L559.53 47.075ZM554.205 51.05L554.643 51.9488L554.652 51.9445L554.661 51.94L554.205 51.05ZM547.455 53.225L547.274 52.2414L547.271 52.2421L547.455 53.225ZM525.03 51.05L524.574 51.94L524.583 51.9445L524.592 51.9488L525.03 51.05ZM519.705 47.075L518.964 47.7465L518.97 47.7528L518.976 47.7589L519.705 47.075ZM516.255 41.225L515.311 41.5535L515.314 41.5626L515.317 41.5717L516.255 41.225ZM515.055 4.4V3.4H514.055V4.4H515.055ZM523.605 4.4H524.605V3.4H523.605V4.4ZM525.705 41.225L524.886 41.7985L524.894 41.8102L524.903 41.8217L525.705 41.225ZM547.83 45.275L548.128 46.2295L547.83 45.275ZM553.605 41.225L554.408 41.8217L554.415 41.812L553.605 41.225ZM556.78 32.525V4.4H554.78V32.525H556.78ZM555.78 5.4H564.255V3.4H555.78V5.4ZM563.255 4.4V33.2H565.255V4.4H563.255ZM563.255 33.2C563.255 36.1594 562.842 38.7127 562.042 40.8783L563.918 41.5717C564.818 39.1373 565.255 36.3406 565.255 33.2H563.255ZM562.036 40.8965C561.276 43.0789 560.195 44.9039 558.801 46.3911L560.26 47.7589C561.865 46.0461 563.084 43.9711 563.925 41.5535L562.036 40.8965ZM558.801 46.3911C557.383 47.903 555.702 49.1597 553.749 50.16L554.661 51.94C556.808 50.8403 558.677 49.447 560.26 47.7589L558.801 46.3911ZM553.767 50.1512C551.805 51.1079 549.643 51.8064 547.274 52.2415L547.636 54.2085C550.167 53.7436 552.505 52.9921 554.643 51.9488L553.767 50.1512ZM547.271 52.2421C544.938 52.6796 542.45 52.9 539.805 52.9V54.9C542.56 54.9 545.173 54.6704 547.639 54.2079L547.271 52.2421ZM539.805 52.9C537.059 52.9 534.468 52.6793 532.032 52.2408L531.678 54.2092C534.242 54.6707 536.952 54.9 539.805 54.9V52.9ZM532.032 52.2408C529.613 51.8053 527.427 51.1066 525.469 50.1512L524.592 51.9488C526.733 52.9934 529.097 53.7447 531.678 54.2092L532.032 52.2408ZM525.486 50.16C523.533 49.1597 521.852 47.903 520.435 46.3911L518.976 47.7589C520.558 49.447 522.427 50.8403 524.574 51.94L525.486 50.16ZM520.446 46.4035C519.093 44.9102 518.005 43.0746 517.193 40.8783L515.317 41.5717C516.205 43.9754 517.417 46.0398 518.964 47.7465L520.446 46.4035ZM517.2 40.8965C516.444 38.7249 516.055 36.1652 516.055 33.2H514.055C514.055 36.3348 514.466 39.1251 515.311 41.5535L517.2 40.8965ZM516.055 33.2V4.4H514.055V33.2H516.055ZM515.055 5.4H523.605V3.4H515.055V5.4ZM522.605 4.4V32.525H524.605V4.4H522.605ZM522.605 32.525C522.605 36.4241 523.319 39.5605 524.886 41.7985L526.524 40.6515C525.291 38.8895 524.605 36.2259 524.605 32.525H522.605ZM524.903 41.8217C526.487 43.9525 528.62 45.4224 531.262 46.2312L531.848 44.3188C529.59 43.6276 527.823 42.3975 526.508 40.6283L524.903 41.8217ZM531.262 46.2312C533.823 47.0151 536.674 47.4 539.805 47.4V45.4C536.836 45.4 534.187 45.0349 531.848 44.3188L531.262 46.2312ZM539.805 47.4C542.839 47.4 545.617 47.0144 548.128 46.2295L547.532 44.3205C545.243 45.0356 542.671 45.4 539.805 45.4V47.4ZM548.128 46.2295C550.722 45.4188 552.827 43.9474 554.408 41.8217L552.803 40.6283C551.483 42.4026 549.738 43.6312 547.532 44.3205L548.128 46.2295ZM554.415 41.812C556.039 39.5716 556.78 36.4295 556.78 32.525H554.78C554.78 36.2205 554.071 38.8784 552.795 40.638L554.415 41.812ZM573.069 40.7V39.7H572.194L572.078 40.5678L573.069 40.7ZM580.794 40.7L581.773 40.494L581.606 39.7H580.794V40.7ZM583.869 45.35L583.281 46.1587L583.289 46.1646L583.298 46.1704L583.869 45.35ZM594.744 46.475L594.388 45.5405L594.381 45.5435L594.373 45.5465L594.744 46.475ZM596.919 44.825L596.078 44.2842L596.064 44.3062L596.051 44.3289L596.919 44.825ZM596.619 39.875L595.912 40.5821L595.926 40.5962L595.941 40.6098L596.619 39.875ZM593.919 38.375L594.236 37.4263H594.236L593.919 38.375ZM589.419 37.325L589.183 38.2967L589.219 38.3054L589.255 38.3114L589.419 37.325ZM583.944 35.825L584.237 34.8686L583.944 35.825ZM579.069 33.8L578.564 34.6627L578.575 34.6693L578.586 34.6756L579.069 33.8ZM575.619 30.65L574.768 31.1741L574.78 31.1935L574.792 31.2123L575.619 30.65ZM575.544 21.35L574.676 20.8538L574.67 20.8644L575.544 21.35ZM578.844 17.825L579.406 18.6525L578.844 17.825ZM583.794 15.65L584.049 16.6171L584.061 16.614L584.072 16.6106L583.794 15.65ZM598.119 16.4L597.68 17.2986L597.689 17.3025L598.119 16.4ZM603.069 20.825L602.204 21.326L602.209 21.3345L602.214 21.3428L603.069 20.825ZM604.794 27.35V28.35H605.794V27.35H604.794ZM597.444 27.35L596.464 27.5461L596.625 28.35H597.444V27.35ZM595.119 23L594.503 23.7875L595.119 23ZM584.019 28.7L583.364 29.4557L583.391 29.4788L583.419 29.5L584.019 28.7ZM587.394 30.275L587.098 31.2301L587.394 30.275ZM592.494 31.625L592.762 30.6615L592.741 30.6556L592.719 30.6506L592.494 31.625ZM597.594 33.2L597.269 34.1457L597.283 34.1503L597.296 34.1545L597.594 33.2ZM601.869 35.15L601.33 35.9923L601.35 36.0047L601.37 36.0162L601.869 35.15ZM604.944 38.15L605.802 37.6355L604.944 38.15ZM604.194 48.725L603.397 48.1211L603.391 48.1289L603.386 48.1368L604.194 48.725ZM598.944 52.55L599.291 53.488L599.3 53.4847L599.309 53.4812L598.944 52.55ZM583.194 52.85L582.892 53.8033L582.899 53.8053L583.194 52.85ZM578.019 50.3L577.405 51.0894L577.412 51.0947L577.419 51.1L578.019 50.3ZM574.869 46.925L574.021 47.455L574.869 46.925ZM573.294 43.475L572.319 43.6966L572.324 43.7175L572.33 43.7381L573.294 43.475ZM573.069 41.7H580.794V39.7H573.069V41.7ZM579.816 40.906C580.27 43.0615 581.442 44.8212 583.281 46.1587L584.458 44.5413C582.997 43.4788 582.119 42.1385 581.773 40.494L579.816 40.906ZM583.298 46.1704C585.169 47.475 587.618 48.075 590.544 48.075V46.075C587.871 46.075 585.869 45.525 584.441 44.5296L583.298 46.1704ZM590.544 48.075C592.398 48.075 593.944 47.872 595.116 47.4035L594.373 45.5465C593.544 45.878 592.291 46.075 590.544 46.075V48.075ZM595.1 47.4095C596.282 46.9591 597.235 46.2885 597.788 45.3211L596.051 44.3289C595.804 44.7615 595.306 45.1909 594.388 45.5405L595.1 47.4095ZM597.76 45.3658C598.323 44.4913 598.594 43.5005 598.594 42.425H596.594C596.594 43.1495 596.416 43.7587 596.078 44.2842L597.76 45.3658ZM598.594 42.425C598.594 41.1187 598.201 39.9738 597.298 39.1402L595.941 40.6098C596.338 40.9762 596.594 41.5313 596.594 42.425H598.594ZM597.326 39.1679C596.576 38.4175 595.517 37.8533 594.236 37.4263L593.603 39.3237C594.722 39.6967 595.463 40.1325 595.912 40.5821L597.326 39.1679ZM594.236 37.4263C592.97 37.0043 591.415 36.6438 589.584 36.3386L589.255 38.3114C591.024 38.6062 592.469 38.9457 593.603 39.3237L594.236 37.4263ZM589.656 36.3533C587.824 35.9078 586.018 35.4129 584.237 34.8686L583.652 36.7813C585.471 37.3371 587.314 37.8422 589.183 38.2967L589.656 36.3533ZM584.237 34.8686C582.494 34.3362 580.934 33.6868 579.552 32.9244L578.586 34.6756C580.104 35.5132 581.795 36.2138 583.652 36.7813L584.237 34.8686ZM579.575 32.9373C578.239 32.1539 577.204 31.2018 576.446 30.0877L574.792 31.2123C575.735 32.5982 577 33.7461 578.564 34.6627L579.575 32.9373ZM576.471 30.1259C575.787 29.014 575.419 27.6293 575.419 25.925H573.419C573.419 27.9207 573.852 29.686 574.768 31.1741L576.471 30.1259ZM575.419 25.925C575.419 24.3774 575.759 23.0225 576.419 21.8356L574.67 20.8644C573.83 22.3775 573.419 24.0726 573.419 25.925H575.419ZM576.413 21.8461C577.133 20.5851 578.126 19.5212 579.406 18.6525L578.283 16.9975C576.763 18.0288 575.555 19.3149 574.676 20.8539L576.413 21.8461ZM579.406 18.6525C580.698 17.7754 582.241 17.0928 584.049 16.6171L583.54 14.6829C581.548 15.2072 579.79 15.9746 578.283 16.9975L579.406 18.6525ZM584.072 16.6106C585.871 16.09 587.851 15.825 590.019 15.825V13.825C587.688 13.825 585.518 14.11 583.516 14.6894L584.072 16.6106ZM590.019 15.825C593.169 15.825 595.707 16.3348 597.68 17.2986L598.558 15.5014C596.232 14.3652 593.37 13.825 590.019 13.825V15.825ZM597.689 17.3025C599.727 18.2756 601.216 19.6197 602.204 21.326L603.935 20.324C602.723 18.2303 600.911 16.6244 598.55 15.4975L597.689 17.3025ZM602.214 21.3428C603.26 23.0708 603.794 25.0631 603.794 27.35H605.794C605.794 24.7369 605.179 22.3792 603.925 20.3072L602.214 21.3428ZM604.794 26.35H597.444V28.35H604.794V26.35ZM598.425 27.1539C597.997 25.0119 597.137 23.3089 595.736 22.2125L594.503 23.7875C595.402 24.491 596.092 25.6881 596.464 27.5461L598.425 27.1539ZM595.736 22.2125C594.334 21.1155 592.347 20.65 589.944 20.65V22.65C592.141 22.65 593.605 23.0845 594.503 23.7875L595.736 22.2125ZM589.944 20.65C587.554 20.65 585.575 21.0611 584.14 22.0179L585.249 23.682C586.214 23.0389 587.734 22.65 589.944 22.65V20.65ZM584.14 22.0179C582.672 22.9967 581.894 24.4037 581.894 26.15H583.894C583.894 25.0963 584.317 24.3033 585.249 23.682L584.14 22.0179ZM581.894 26.15C581.894 27.4709 582.381 28.6036 583.364 29.4557L584.674 27.9443C584.157 27.4964 583.894 26.9291 583.894 26.15H581.894ZM583.419 29.5C584.345 30.1946 585.589 30.7619 587.098 31.2301L587.691 29.3199C586.299 28.8881 585.293 28.4054 584.619 27.9L583.419 29.5ZM587.098 31.2301C588.578 31.6893 590.302 32.1455 592.269 32.5994L592.719 30.6506C590.786 30.2045 589.111 29.7607 587.691 29.3199L587.098 31.2301ZM592.227 32.5885C594.009 33.0837 595.69 33.6028 597.269 34.1457L597.919 32.2543C596.299 31.6972 594.579 31.1663 592.762 30.6615L592.227 32.5885ZM597.296 34.1545C598.822 34.6313 600.164 35.2459 601.33 35.9923L602.408 34.3077C601.075 33.4541 599.567 32.7687 597.893 32.2455L597.296 34.1545ZM601.37 36.0162C602.527 36.6839 603.427 37.5646 604.087 38.6645L605.802 37.6355C604.962 36.2354 603.812 35.1161 602.369 34.2838L601.37 36.0162ZM604.087 38.6645C604.722 39.7224 605.069 41.0831 605.069 42.8H607.069C607.069 40.8169 606.667 39.0776 605.802 37.6355L604.087 38.6645ZM605.069 42.8C605.069 44.9075 604.501 46.6642 603.397 48.1211L604.991 49.3289C606.388 47.4858 607.069 45.2925 607.069 42.8H605.069ZM603.386 48.1368C602.32 49.6026 600.74 50.7736 598.58 51.6188L599.309 53.4812C601.749 52.5264 603.669 51.1474 605.003 49.3132L603.386 48.1368ZM598.598 51.612C596.438 52.4101 593.787 52.825 590.619 52.825V54.825C593.951 54.825 596.85 54.3899 599.291 53.488L598.598 51.612ZM590.619 52.825C587.842 52.825 585.471 52.5078 583.49 51.8947L582.899 53.8053C585.118 54.4922 587.697 54.825 590.619 54.825V52.825ZM583.497 51.8968C581.53 51.2733 579.911 50.4691 578.619 49.5L577.419 51.1C578.927 52.2309 580.759 53.1267 582.892 53.8032L583.497 51.8968ZM578.633 49.5107C577.357 48.5181 576.394 47.4772 575.717 46.395L574.021 47.455C574.845 48.7728 575.982 49.9819 577.405 51.0894L578.633 49.5107ZM575.717 46.395C575.007 45.2587 574.528 44.1982 574.259 43.2119L572.33 43.7381C572.661 44.9518 573.232 46.1913 574.021 47.455L575.717 46.395ZM574.269 43.2534C574.034 42.218 573.982 41.4213 574.061 40.8322L572.078 40.5678C571.957 41.4787 572.055 42.532 572.319 43.6966L574.269 43.2534Z" fill="black" mask="url(#path-1-outside-1_69_595)"/>
</g>
<defs>
<filter id="filter0_d_69_595" x="0.5" y="0.650024" width="607.069" height="68.85" filterUnits="userSpaceOnUse" color-interpolation-filters="sRGB">
<feFlood flood-opacity="0" result="BackgroundImageFix"/>
<feColorMatrix in="SourceAlpha" type="matrix" values="0 0 0 0 0 0 0 0 0 0 0 0 0 0 0 0 0 0 127 0" result="hardAlpha"/>
<feOffset dx="1" dy="1"/>
<feGaussianBlur stdDeviation="0.25"/>
<feComposite in2="hardAlpha" operator="out"/>
<feColorMatrix type="matrix" values="0 0 0 0 1 0 0 0 0 1 0 0 0 0 1 0 0 0 1 0"/>
<feBlend mode="normal" in2="BackgroundImageFix" result="effect1_dropShadow_69_595"/>
<feBlend mode="normal" in="SourceGraphic" in2="effect1_dropShadow_69_595" result="shape"/>
</filter>
</defs>
</svg>
