<svg width="1012" height="67" viewBox="0 0 1012 67" fill="none" xmlns="http://www.w3.org/2000/svg">
<g filter="url(#filter0_d_302_2537)">
<mask id="path-1-outside-1_302_2537" maskUnits="userSpaceOnUse" x="-1" y="-1" width="1013" height="68" fill="black">
<rect fill="white" x="-1" y="-1" width="1013" height="68"/>
<path d="M0.411477 64V5.032H30.4415C37.6608 5.032 43.1815 6.397 47.0035 9.127C50.8861 11.7963 52.8275 15.679 52.8275 20.775C52.8275 24.051 52.0691 26.6597 50.5525 28.601C49.0965 30.4817 47.0035 31.9073 44.2735 32.878C41.5435 33.788 38.3281 34.3643 34.6275 34.607L34.9915 34.061C37.6608 34.1217 40.1785 34.3643 42.5445 34.789C44.9711 35.153 47.0945 35.8203 48.9145 36.791C50.7951 37.7617 52.2511 39.1267 53.2825 40.886C54.3745 42.5847 54.9205 44.799 54.9205 47.529C54.9205 51.169 54.0105 54.172 52.1905 56.538C50.3705 58.904 47.8528 60.724 44.6375 61.998C41.4221 63.2113 37.7215 63.8787 33.5355 64H0.411477ZM10.7855 55.173H31.9885C35.9318 55.173 38.9955 54.5057 41.1795 53.171C43.3635 51.7757 44.4555 49.622 44.4555 46.71C44.4555 44.4047 43.7881 42.7363 42.4535 41.705C41.1188 40.613 39.3898 39.9153 37.2665 39.612C35.2038 39.3087 32.9895 39.157 30.6235 39.157H10.7855V55.173ZM10.7855 30.512H29.8045C33.7478 30.512 36.7811 29.8447 38.9045 28.51C41.0885 27.1147 42.1805 24.9307 42.1805 21.958C42.1805 19.046 41.0885 16.9833 38.9045 15.77C36.7811 14.496 33.9905 13.859 30.5325 13.859H10.7855V30.512ZM88.4767 65.001C83.4414 65.001 78.9217 64.091 74.9177 62.271C70.9137 60.451 67.7591 57.7817 65.4537 54.263C63.1484 50.7443 61.9957 46.4673 61.9957 41.432C61.9957 36.4573 63.1484 32.2107 65.4537 28.692C67.7591 25.1127 70.9137 22.3827 74.9177 20.502C78.9217 18.6213 83.4414 17.681 88.4767 17.681C93.5121 17.681 98.0014 18.6213 101.945 20.502C105.888 22.3827 108.982 25.1127 111.227 28.692C113.532 32.2107 114.685 36.4573 114.685 41.432C114.685 46.4673 113.532 50.7443 111.227 54.263C108.982 57.7817 105.888 60.451 101.945 62.271C98.0014 64.091 93.5121 65.001 88.4767 65.001ZM88.4767 56.72C91.3887 56.72 94.0581 56.1437 96.4847 54.991C98.9114 53.8383 100.822 52.1093 102.218 49.804C103.674 47.4987 104.402 44.708 104.402 41.432C104.402 38.156 103.674 35.3653 102.218 33.06C100.822 30.7547 98.9114 28.9953 96.4847 27.782C94.1187 26.508 91.4494 25.871 88.4767 25.871C85.5041 25.871 82.8044 26.4777 80.3777 27.691C77.9511 28.9043 75.9794 30.6637 74.4627 32.969C73.0067 35.2743 72.2787 38.0953 72.2787 41.432C72.2787 44.708 73.0067 47.4987 74.4627 49.804C75.9187 52.1093 77.8601 53.8383 80.2867 54.991C82.7741 56.1437 85.5041 56.72 88.4767 56.72ZM147.84 65.001C142.805 65.001 138.285 64.091 134.281 62.271C130.277 60.451 127.122 57.7817 124.817 54.263C122.512 50.7443 121.359 46.4673 121.359 41.432C121.359 36.4573 122.512 32.2107 124.817 28.692C127.122 25.1127 130.277 22.3827 134.281 20.502C138.285 18.6213 142.805 17.681 147.84 17.681C152.875 17.681 157.365 18.6213 161.308 20.502C165.251 22.3827 168.345 25.1127 170.59 28.692C172.895 32.2107 174.048 36.4573 174.048 41.432C174.048 46.4673 172.895 50.7443 170.59 54.263C168.345 57.7817 165.251 60.451 161.308 62.271C157.365 64.091 152.875 65.001 147.84 65.001ZM147.84 56.72C150.752 56.72 153.421 56.1437 155.848 54.991C158.275 53.8383 160.186 52.1093 161.581 49.804C163.037 47.4987 163.765 44.708 163.765 41.432C163.765 38.156 163.037 35.3653 161.581 33.06C160.186 30.7547 158.275 28.9953 155.848 27.782C153.482 26.508 150.813 25.871 147.84 25.871C144.867 25.871 142.168 26.4777 139.741 27.691C137.314 28.9043 135.343 30.6637 133.826 32.969C132.37 35.2743 131.642 38.0953 131.642 41.432C131.642 44.708 132.37 47.4987 133.826 49.804C135.282 52.1093 137.223 53.8383 139.65 54.991C142.137 56.1437 144.867 56.72 147.84 56.72ZM183.998 0.481999H194.099V64H183.998V0.481999ZM229.407 18.682L204.018 41.978L204.291 35.608L231.318 64H218.396L194.372 38.611L215.393 18.682H229.407ZM313.405 5.032L289.381 44.799V64H279.007V44.799L254.983 5.032H266.904L287.197 39.794H281.555L301.575 5.032H313.405ZM336.416 65.001C331.381 65.001 326.861 64.091 322.857 62.271C318.853 60.451 315.699 57.7817 313.393 54.263C311.088 50.7443 309.935 46.4673 309.935 41.432C309.935 36.4573 311.088 32.2107 313.393 28.692C315.699 25.1127 318.853 22.3827 322.857 20.502C326.861 18.6213 331.381 17.681 336.416 17.681C341.452 17.681 345.941 18.6213 349.884 20.502C353.828 22.3827 356.922 25.1127 359.166 28.692C361.472 32.2107 362.624 36.4573 362.624 41.432C362.624 46.4673 361.472 50.7443 359.166 54.263C356.922 57.7817 353.828 60.451 349.884 62.271C345.941 64.091 341.452 65.001 336.416 65.001ZM336.416 56.72C339.328 56.72 341.998 56.1437 344.424 54.991C346.851 53.8383 348.762 52.1093 350.157 49.804C351.613 47.4987 352.341 44.708 352.341 41.432C352.341 38.156 351.613 35.3653 350.157 33.06C348.762 30.7547 346.851 28.9953 344.424 27.782C342.058 26.508 339.389 25.871 336.416 25.871C333.444 25.871 330.744 26.4777 328.317 27.691C325.891 28.9043 323.919 30.6637 322.402 32.969C320.946 35.2743 320.218 38.0953 320.218 41.432C320.218 44.708 320.946 47.4987 322.402 49.804C323.858 52.1093 325.8 53.8383 328.226 54.991C330.714 56.1437 333.444 56.72 336.416 56.72ZM418.893 64H408.792V18.682H418.893V64ZM409.338 42.433L409.429 45.345C409.308 46.1337 409.035 47.3167 408.61 48.894C408.246 50.4713 407.609 52.2003 406.699 54.081C405.85 55.901 404.697 57.6603 403.241 59.359C401.846 60.997 400.087 62.362 397.963 63.454C395.84 64.4853 393.262 65.001 390.228 65.001C388.044 65.001 385.83 64.6977 383.585 64.091C381.401 63.545 379.399 62.6047 377.579 61.27C375.82 59.9353 374.394 58.1153 373.302 55.81C372.21 53.5047 371.664 50.5927 371.664 47.074V18.682H381.765V45.163C381.765 48.0143 382.22 50.259 383.13 51.897C384.101 53.4743 385.436 54.5967 387.134 55.264C388.833 55.9313 390.805 56.265 393.049 56.265C396.265 56.265 398.995 55.537 401.239 54.081C403.484 52.625 405.274 50.8353 406.608 48.712C408.004 46.528 408.914 44.435 409.338 42.433ZM430.05 18.682H440.151V64H430.05V18.682ZM456.531 27.327C453.255 27.327 450.434 28.0247 448.068 29.42C445.763 30.8153 443.913 32.514 442.517 34.516C441.122 36.518 440.151 38.4593 439.605 40.34L439.514 35.244C439.575 34.5767 439.787 33.5757 440.151 32.241C440.515 30.8457 441.061 29.329 441.789 27.691C442.578 26.053 443.609 24.4757 444.883 22.959C446.218 21.3817 447.826 20.1077 449.706 19.137C451.648 18.1663 453.923 17.681 456.531 17.681V27.327ZM462.173 49.076H471.546C472.032 51.3813 473.275 53.262 475.277 54.718C477.279 56.1133 479.979 56.811 483.376 56.811C485.56 56.811 487.259 56.5683 488.472 56.083C489.746 55.5977 490.626 54.9303 491.111 54.081C491.657 53.2317 491.93 52.261 491.93 51.169C491.93 49.8343 491.536 48.803 490.747 48.075C490.019 47.347 488.927 46.7403 487.471 46.255C486.015 45.7697 484.195 45.345 482.011 44.981C479.767 44.435 477.552 43.8283 475.368 43.161C473.184 42.4937 471.213 41.6747 469.453 40.704C467.694 39.6727 466.299 38.3987 465.267 36.882C464.297 35.3047 463.811 33.3937 463.811 31.149C463.811 29.0863 464.266 27.236 465.176 25.598C466.147 23.8993 467.482 22.4737 469.18 21.321C470.879 20.1683 472.881 19.2887 475.186 18.682C477.492 18.0147 480.009 17.681 482.739 17.681C486.683 17.681 489.959 18.318 492.567 19.592C495.237 20.866 497.239 22.6557 498.573 24.961C499.969 27.2663 500.666 29.9053 500.666 32.878H491.748C491.263 30.4513 490.323 28.692 488.927 27.6C487.532 26.508 485.439 25.962 482.648 25.962C479.858 25.962 477.734 26.4473 476.278 27.418C474.822 28.3887 474.094 29.7233 474.094 31.422C474.094 32.696 474.549 33.7273 475.459 34.516C476.43 35.244 477.795 35.881 479.554 36.427C481.314 36.973 483.376 37.519 485.742 38.065C487.926 38.6717 489.989 39.3087 491.93 39.976C493.872 40.5827 495.601 41.3713 497.117 42.342C498.695 43.252 499.938 44.4653 500.848 45.982C501.758 47.4987 502.213 49.3793 502.213 51.624C502.213 54.4147 501.455 56.811 499.938 58.813C498.482 60.815 496.359 62.362 493.568 63.454C490.778 64.4853 487.411 65.001 483.467 65.001C480.009 65.001 477.006 64.6067 474.458 63.818C471.971 63.0293 469.878 61.998 468.179 60.724C466.541 59.45 465.267 58.085 464.357 56.629C463.447 55.173 462.81 53.7777 462.446 52.443C462.143 51.1083 462.052 49.986 462.173 49.076ZM549.22 49.076H558.957C558.471 52.17 557.258 54.9303 555.317 57.357C553.436 59.723 550.858 61.6037 547.582 62.999C544.306 64.3337 540.393 65.001 535.843 65.001C530.686 65.001 526.075 64.0607 522.011 62.18C517.946 60.2387 514.761 57.5087 512.456 53.99C510.15 50.4713 508.998 46.2853 508.998 41.432C508.998 36.6393 510.12 32.4533 512.365 28.874C514.609 25.2947 517.703 22.5343 521.647 20.593C525.651 18.6517 530.261 17.681 535.479 17.681C540.878 17.681 545.367 18.6517 548.947 20.593C552.587 22.4737 555.286 25.325 557.046 29.147C558.805 32.9083 559.533 37.6707 559.23 43.434H519.281C519.584 45.982 520.403 48.2873 521.738 50.35C523.133 52.352 525.014 53.9293 527.38 55.082C529.746 56.174 532.506 56.72 535.661 56.72C539.179 56.72 542.122 56.0223 544.488 54.627C546.914 53.2317 548.492 51.3813 549.22 49.076ZM535.206 25.871C531.08 25.871 527.683 26.9023 525.014 28.965C522.344 30.967 520.615 33.5453 519.827 36.7H549.038C548.795 33.3027 547.43 30.6637 544.943 28.783C542.455 26.8417 539.21 25.871 535.206 25.871ZM569.149 0.481999H579.25V64H569.149V0.481999ZM586.56 19.228H619.411V27.418H586.56V19.228ZM612.677 0.481999H620.139V9.21799H614.497C612.798 9.15733 611.312 9.33933 610.038 9.764C608.824 10.1887 607.854 10.9773 607.126 12.13C606.458 13.2827 606.125 14.9207 606.125 17.044V64H595.933V16.134C595.933 12.494 596.6 9.52133 597.935 7.216C599.269 4.91066 601.18 3.212 603.668 2.12C606.216 1.028 609.219 0.481999 612.677 0.481999ZM657.599 50.168V41.341H692.725V50.168H657.599ZM643.949 64L669.702 5.032H680.804L706.739 64H695.546L672.978 10.765H677.528L655.051 64H643.949ZM764.799 5.032C771.169 5.032 776.508 5.82067 780.815 7.398C785.123 8.97533 788.55 11.129 791.098 13.859C793.646 16.5283 795.466 19.6223 796.558 23.141C797.711 26.6597 798.287 30.3603 798.287 34.243C798.287 38.1863 797.681 41.9477 796.467 45.527C795.254 49.1063 793.313 52.2913 790.643 55.082C788.035 57.812 784.607 59.996 780.36 61.634C776.114 63.2113 770.927 64 764.799 64H736.498V5.032H764.799ZM746.872 54.9H764.708C769.198 54.9 772.929 54.3237 775.901 53.171C778.874 52.0183 781.24 50.4713 782.999 48.53C784.759 46.528 786.002 44.3137 786.73 41.887C787.458 39.3997 787.822 36.8517 787.822 34.243C787.822 31.6343 787.458 29.147 786.73 26.781C786.002 24.3543 784.759 22.2007 782.999 20.32C781.24 18.3787 778.874 16.862 775.901 15.77C772.929 14.6173 769.198 14.041 764.708 14.041H746.872V54.9ZM846.392 49.076H856.129C855.643 52.17 854.43 54.9303 852.489 57.357C850.608 59.723 848.03 61.6037 844.754 62.999C841.478 64.3337 837.565 65.001 833.015 65.001C827.858 65.001 823.247 64.0607 819.183 62.18C815.118 60.2387 811.933 57.5087 809.628 53.99C807.322 50.4713 806.17 46.2853 806.17 41.432C806.17 36.6393 807.292 32.4533 809.537 28.874C811.781 25.2947 814.875 22.5343 818.819 20.593C822.823 18.6517 827.433 17.681 832.651 17.681C838.05 17.681 842.539 18.6517 846.119 20.593C849.759 22.4737 852.458 25.325 854.218 29.147C855.977 32.9083 856.705 37.6707 856.402 43.434H816.453C816.756 45.982 817.575 48.2873 818.91 50.35C820.305 52.352 822.186 53.9293 824.552 55.082C826.918 56.174 829.678 56.72 832.833 56.72C836.351 56.72 839.294 56.0223 841.66 54.627C844.086 53.2317 845.664 51.3813 846.392 49.076ZM832.378 25.871C828.252 25.871 824.855 26.9023 822.186 28.965C819.516 30.967 817.787 33.5453 816.999 36.7H846.21C845.967 33.3027 844.602 30.6637 842.115 28.783C839.627 26.8417 836.382 25.871 832.378 25.871ZM865.411 18.682H875.512V64H865.411V18.682ZM894.622 17.681C897.23 17.681 899.627 18.045 901.811 18.773C904.055 19.501 905.966 20.6233 907.544 22.14C909.182 23.596 910.425 25.416 911.275 27.6C912.185 29.784 912.64 32.3623 912.64 35.335V64H902.539V37.337C902.539 33.6363 901.629 30.9063 899.809 29.147C898.049 27.327 895.259 26.417 891.437 26.417C888.525 26.417 885.855 27.054 883.429 28.328C881.063 29.5413 879.121 31.149 877.605 33.151C876.088 35.0923 875.208 37.246 874.966 39.612L874.875 34.698C875.178 32.4533 875.845 30.33 876.877 28.328C877.908 26.2653 879.273 24.4453 880.972 22.868C882.67 21.23 884.672 19.956 886.978 19.046C889.283 18.136 891.831 17.681 894.622 17.681ZM930.749 17.681C933.418 17.681 935.845 18.045 938.029 18.773C940.213 19.501 942.093 20.6233 943.671 22.14C945.309 23.596 946.583 25.416 947.493 27.6C948.403 29.784 948.858 32.3623 948.858 35.335V64H938.666V37.337C938.666 33.6363 937.756 30.9063 935.936 29.147C934.176 27.327 931.386 26.417 927.564 26.417C924.652 26.417 921.982 27.054 919.556 28.328C917.19 29.5413 915.248 31.149 913.732 33.151C912.276 35.0923 911.426 37.246 911.184 39.612L911.002 34.516C911.305 32.332 912.003 30.239 913.095 28.237C914.187 26.1743 915.582 24.3543 917.281 22.777C918.979 21.1997 920.951 19.956 923.196 19.046C925.501 18.136 928.019 17.681 930.749 17.681ZM984.08 65.001C979.045 65.001 974.525 64.091 970.521 62.271C966.517 60.451 963.363 57.7817 961.057 54.263C958.752 50.7443 957.599 46.4673 957.599 41.432C957.599 36.4573 958.752 32.2107 961.057 28.692C963.363 25.1127 966.517 22.3827 970.521 20.502C974.525 18.6213 979.045 17.681 984.08 17.681C989.116 17.681 993.605 18.6213 997.548 20.502C1001.49 22.3827 1004.59 25.1127 1006.83 28.692C1009.14 32.2107 1010.29 36.4573 1010.29 41.432C1010.29 46.4673 1009.14 50.7443 1006.83 54.263C1004.59 57.7817 1001.49 60.451 997.548 62.271C993.605 64.091 989.116 65.001 984.08 65.001ZM984.08 56.72C986.992 56.72 989.662 56.1437 992.088 54.991C994.515 53.8383 996.426 52.1093 997.821 49.804C999.277 47.4987 1000.01 44.708 1000.01 41.432C1000.01 38.156 999.277 35.3653 997.821 33.06C996.426 30.7547 994.515 28.9953 992.088 27.782C989.722 26.508 987.053 25.871 984.08 25.871C981.108 25.871 978.408 26.4777 975.981 27.691C973.555 28.9043 971.583 30.6637 970.066 32.969C968.61 35.2743 967.882 38.0953 967.882 41.432C967.882 44.708 968.61 47.4987 970.066 49.804C971.522 52.1093 973.464 53.8383 975.89 54.991C978.378 56.1437 981.108 56.72 984.08 56.72Z"/>
</mask>
<path d="M0.411477 64V5.032H30.4415C37.6608 5.032 43.1815 6.397 47.0035 9.127C50.8861 11.7963 52.8275 15.679 52.8275 20.775C52.8275 24.051 52.0691 26.6597 50.5525 28.601C49.0965 30.4817 47.0035 31.9073 44.2735 32.878C41.5435 33.788 38.3281 34.3643 34.6275 34.607L34.9915 34.061C37.6608 34.1217 40.1785 34.3643 42.5445 34.789C44.9711 35.153 47.0945 35.8203 48.9145 36.791C50.7951 37.7617 52.2511 39.1267 53.2825 40.886C54.3745 42.5847 54.9205 44.799 54.9205 47.529C54.9205 51.169 54.0105 54.172 52.1905 56.538C50.3705 58.904 47.8528 60.724 44.6375 61.998C41.4221 63.2113 37.7215 63.8787 33.5355 64H0.411477ZM10.7855 55.173H31.9885C35.9318 55.173 38.9955 54.5057 41.1795 53.171C43.3635 51.7757 44.4555 49.622 44.4555 46.71C44.4555 44.4047 43.7881 42.7363 42.4535 41.705C41.1188 40.613 39.3898 39.9153 37.2665 39.612C35.2038 39.3087 32.9895 39.157 30.6235 39.157H10.7855V55.173ZM10.7855 30.512H29.8045C33.7478 30.512 36.7811 29.8447 38.9045 28.51C41.0885 27.1147 42.1805 24.9307 42.1805 21.958C42.1805 19.046 41.0885 16.9833 38.9045 15.77C36.7811 14.496 33.9905 13.859 30.5325 13.859H10.7855V30.512ZM88.4767 65.001C83.4414 65.001 78.9217 64.091 74.9177 62.271C70.9137 60.451 67.7591 57.7817 65.4537 54.263C63.1484 50.7443 61.9957 46.4673 61.9957 41.432C61.9957 36.4573 63.1484 32.2107 65.4537 28.692C67.7591 25.1127 70.9137 22.3827 74.9177 20.502C78.9217 18.6213 83.4414 17.681 88.4767 17.681C93.5121 17.681 98.0014 18.6213 101.945 20.502C105.888 22.3827 108.982 25.1127 111.227 28.692C113.532 32.2107 114.685 36.4573 114.685 41.432C114.685 46.4673 113.532 50.7443 111.227 54.263C108.982 57.7817 105.888 60.451 101.945 62.271C98.0014 64.091 93.5121 65.001 88.4767 65.001ZM88.4767 56.72C91.3887 56.72 94.0581 56.1437 96.4847 54.991C98.9114 53.8383 100.822 52.1093 102.218 49.804C103.674 47.4987 104.402 44.708 104.402 41.432C104.402 38.156 103.674 35.3653 102.218 33.06C100.822 30.7547 98.9114 28.9953 96.4847 27.782C94.1187 26.508 91.4494 25.871 88.4767 25.871C85.5041 25.871 82.8044 26.4777 80.3777 27.691C77.9511 28.9043 75.9794 30.6637 74.4627 32.969C73.0067 35.2743 72.2787 38.0953 72.2787 41.432C72.2787 44.708 73.0067 47.4987 74.4627 49.804C75.9187 52.1093 77.8601 53.8383 80.2867 54.991C82.7741 56.1437 85.5041 56.72 88.4767 56.72ZM147.84 65.001C142.805 65.001 138.285 64.091 134.281 62.271C130.277 60.451 127.122 57.7817 124.817 54.263C122.512 50.7443 121.359 46.4673 121.359 41.432C121.359 36.4573 122.512 32.2107 124.817 28.692C127.122 25.1127 130.277 22.3827 134.281 20.502C138.285 18.6213 142.805 17.681 147.84 17.681C152.875 17.681 157.365 18.6213 161.308 20.502C165.251 22.3827 168.345 25.1127 170.59 28.692C172.895 32.2107 174.048 36.4573 174.048 41.432C174.048 46.4673 172.895 50.7443 170.59 54.263C168.345 57.7817 165.251 60.451 161.308 62.271C157.365 64.091 152.875 65.001 147.84 65.001ZM147.84 56.72C150.752 56.72 153.421 56.1437 155.848 54.991C158.275 53.8383 160.186 52.1093 161.581 49.804C163.037 47.4987 163.765 44.708 163.765 41.432C163.765 38.156 163.037 35.3653 161.581 33.06C160.186 30.7547 158.275 28.9953 155.848 27.782C153.482 26.508 150.813 25.871 147.84 25.871C144.867 25.871 142.168 26.4777 139.741 27.691C137.314 28.9043 135.343 30.6637 133.826 32.969C132.37 35.2743 131.642 38.0953 131.642 41.432C131.642 44.708 132.37 47.4987 133.826 49.804C135.282 52.1093 137.223 53.8383 139.65 54.991C142.137 56.1437 144.867 56.72 147.84 56.72ZM183.998 0.481999H194.099V64H183.998V0.481999ZM229.407 18.682L204.018 41.978L204.291 35.608L231.318 64H218.396L194.372 38.611L215.393 18.682H229.407ZM313.405 5.032L289.381 44.799V64H279.007V44.799L254.983 5.032H266.904L287.197 39.794H281.555L301.575 5.032H313.405ZM336.416 65.001C331.381 65.001 326.861 64.091 322.857 62.271C318.853 60.451 315.699 57.7817 313.393 54.263C311.088 50.7443 309.935 46.4673 309.935 41.432C309.935 36.4573 311.088 32.2107 313.393 28.692C315.699 25.1127 318.853 22.3827 322.857 20.502C326.861 18.6213 331.381 17.681 336.416 17.681C341.452 17.681 345.941 18.6213 349.884 20.502C353.828 22.3827 356.922 25.1127 359.166 28.692C361.472 32.2107 362.624 36.4573 362.624 41.432C362.624 46.4673 361.472 50.7443 359.166 54.263C356.922 57.7817 353.828 60.451 349.884 62.271C345.941 64.091 341.452 65.001 336.416 65.001ZM336.416 56.72C339.328 56.72 341.998 56.1437 344.424 54.991C346.851 53.8383 348.762 52.1093 350.157 49.804C351.613 47.4987 352.341 44.708 352.341 41.432C352.341 38.156 351.613 35.3653 350.157 33.06C348.762 30.7547 346.851 28.9953 344.424 27.782C342.058 26.508 339.389 25.871 336.416 25.871C333.444 25.871 330.744 26.4777 328.317 27.691C325.891 28.9043 323.919 30.6637 322.402 32.969C320.946 35.2743 320.218 38.0953 320.218 41.432C320.218 44.708 320.946 47.4987 322.402 49.804C323.858 52.1093 325.8 53.8383 328.226 54.991C330.714 56.1437 333.444 56.72 336.416 56.72ZM418.893 64H408.792V18.682H418.893V64ZM409.338 42.433L409.429 45.345C409.308 46.1337 409.035 47.3167 408.61 48.894C408.246 50.4713 407.609 52.2003 406.699 54.081C405.85 55.901 404.697 57.6603 403.241 59.359C401.846 60.997 400.087 62.362 397.963 63.454C395.84 64.4853 393.262 65.001 390.228 65.001C388.044 65.001 385.83 64.6977 383.585 64.091C381.401 63.545 379.399 62.6047 377.579 61.27C375.82 59.9353 374.394 58.1153 373.302 55.81C372.21 53.5047 371.664 50.5927 371.664 47.074V18.682H381.765V45.163C381.765 48.0143 382.22 50.259 383.13 51.897C384.101 53.4743 385.436 54.5967 387.134 55.264C388.833 55.9313 390.805 56.265 393.049 56.265C396.265 56.265 398.995 55.537 401.239 54.081C403.484 52.625 405.274 50.8353 406.608 48.712C408.004 46.528 408.914 44.435 409.338 42.433ZM430.05 18.682H440.151V64H430.05V18.682ZM456.531 27.327C453.255 27.327 450.434 28.0247 448.068 29.42C445.763 30.8153 443.913 32.514 442.517 34.516C441.122 36.518 440.151 38.4593 439.605 40.34L439.514 35.244C439.575 34.5767 439.787 33.5757 440.151 32.241C440.515 30.8457 441.061 29.329 441.789 27.691C442.578 26.053 443.609 24.4757 444.883 22.959C446.218 21.3817 447.826 20.1077 449.706 19.137C451.648 18.1663 453.923 17.681 456.531 17.681V27.327ZM462.173 49.076H471.546C472.032 51.3813 473.275 53.262 475.277 54.718C477.279 56.1133 479.979 56.811 483.376 56.811C485.56 56.811 487.259 56.5683 488.472 56.083C489.746 55.5977 490.626 54.9303 491.111 54.081C491.657 53.2317 491.93 52.261 491.93 51.169C491.93 49.8343 491.536 48.803 490.747 48.075C490.019 47.347 488.927 46.7403 487.471 46.255C486.015 45.7697 484.195 45.345 482.011 44.981C479.767 44.435 477.552 43.8283 475.368 43.161C473.184 42.4937 471.213 41.6747 469.453 40.704C467.694 39.6727 466.299 38.3987 465.267 36.882C464.297 35.3047 463.811 33.3937 463.811 31.149C463.811 29.0863 464.266 27.236 465.176 25.598C466.147 23.8993 467.482 22.4737 469.18 21.321C470.879 20.1683 472.881 19.2887 475.186 18.682C477.492 18.0147 480.009 17.681 482.739 17.681C486.683 17.681 489.959 18.318 492.567 19.592C495.237 20.866 497.239 22.6557 498.573 24.961C499.969 27.2663 500.666 29.9053 500.666 32.878H491.748C491.263 30.4513 490.323 28.692 488.927 27.6C487.532 26.508 485.439 25.962 482.648 25.962C479.858 25.962 477.734 26.4473 476.278 27.418C474.822 28.3887 474.094 29.7233 474.094 31.422C474.094 32.696 474.549 33.7273 475.459 34.516C476.43 35.244 477.795 35.881 479.554 36.427C481.314 36.973 483.376 37.519 485.742 38.065C487.926 38.6717 489.989 39.3087 491.93 39.976C493.872 40.5827 495.601 41.3713 497.117 42.342C498.695 43.252 499.938 44.4653 500.848 45.982C501.758 47.4987 502.213 49.3793 502.213 51.624C502.213 54.4147 501.455 56.811 499.938 58.813C498.482 60.815 496.359 62.362 493.568 63.454C490.778 64.4853 487.411 65.001 483.467 65.001C480.009 65.001 477.006 64.6067 474.458 63.818C471.971 63.0293 469.878 61.998 468.179 60.724C466.541 59.45 465.267 58.085 464.357 56.629C463.447 55.173 462.81 53.7777 462.446 52.443C462.143 51.1083 462.052 49.986 462.173 49.076ZM549.22 49.076H558.957C558.471 52.17 557.258 54.9303 555.317 57.357C553.436 59.723 550.858 61.6037 547.582 62.999C544.306 64.3337 540.393 65.001 535.843 65.001C530.686 65.001 526.075 64.0607 522.011 62.18C517.946 60.2387 514.761 57.5087 512.456 53.99C510.15 50.4713 508.998 46.2853 508.998 41.432C508.998 36.6393 510.12 32.4533 512.365 28.874C514.609 25.2947 517.703 22.5343 521.647 20.593C525.651 18.6517 530.261 17.681 535.479 17.681C540.878 17.681 545.367 18.6517 548.947 20.593C552.587 22.4737 555.286 25.325 557.046 29.147C558.805 32.9083 559.533 37.6707 559.23 43.434H519.281C519.584 45.982 520.403 48.2873 521.738 50.35C523.133 52.352 525.014 53.9293 527.38 55.082C529.746 56.174 532.506 56.72 535.661 56.72C539.179 56.72 542.122 56.0223 544.488 54.627C546.914 53.2317 548.492 51.3813 549.22 49.076ZM535.206 25.871C531.08 25.871 527.683 26.9023 525.014 28.965C522.344 30.967 520.615 33.5453 519.827 36.7H549.038C548.795 33.3027 547.43 30.6637 544.943 28.783C542.455 26.8417 539.21 25.871 535.206 25.871ZM569.149 0.481999H579.25V64H569.149V0.481999ZM586.56 19.228H619.411V27.418H586.56V19.228ZM612.677 0.481999H620.139V9.21799H614.497C612.798 9.15733 611.312 9.33933 610.038 9.764C608.824 10.1887 607.854 10.9773 607.126 12.13C606.458 13.2827 606.125 14.9207 606.125 17.044V64H595.933V16.134C595.933 12.494 596.6 9.52133 597.935 7.216C599.269 4.91066 601.18 3.212 603.668 2.12C606.216 1.028 609.219 0.481999 612.677 0.481999ZM657.599 50.168V41.341H692.725V50.168H657.599ZM643.949 64L669.702 5.032H680.804L706.739 64H695.546L672.978 10.765H677.528L655.051 64H643.949ZM764.799 5.032C771.169 5.032 776.508 5.82067 780.815 7.398C785.123 8.97533 788.55 11.129 791.098 13.859C793.646 16.5283 795.466 19.6223 796.558 23.141C797.711 26.6597 798.287 30.3603 798.287 34.243C798.287 38.1863 797.681 41.9477 796.467 45.527C795.254 49.1063 793.313 52.2913 790.643 55.082C788.035 57.812 784.607 59.996 780.36 61.634C776.114 63.2113 770.927 64 764.799 64H736.498V5.032H764.799ZM746.872 54.9H764.708C769.198 54.9 772.929 54.3237 775.901 53.171C778.874 52.0183 781.24 50.4713 782.999 48.53C784.759 46.528 786.002 44.3137 786.73 41.887C787.458 39.3997 787.822 36.8517 787.822 34.243C787.822 31.6343 787.458 29.147 786.73 26.781C786.002 24.3543 784.759 22.2007 782.999 20.32C781.24 18.3787 778.874 16.862 775.901 15.77C772.929 14.6173 769.198 14.041 764.708 14.041H746.872V54.9ZM846.392 49.076H856.129C855.643 52.17 854.43 54.9303 852.489 57.357C850.608 59.723 848.03 61.6037 844.754 62.999C841.478 64.3337 837.565 65.001 833.015 65.001C827.858 65.001 823.247 64.0607 819.183 62.18C815.118 60.2387 811.933 57.5087 809.628 53.99C807.322 50.4713 806.17 46.2853 806.17 41.432C806.17 36.6393 807.292 32.4533 809.537 28.874C811.781 25.2947 814.875 22.5343 818.819 20.593C822.823 18.6517 827.433 17.681 832.651 17.681C838.05 17.681 842.539 18.6517 846.119 20.593C849.759 22.4737 852.458 25.325 854.218 29.147C855.977 32.9083 856.705 37.6707 856.402 43.434H816.453C816.756 45.982 817.575 48.2873 818.91 50.35C820.305 52.352 822.186 53.9293 824.552 55.082C826.918 56.174 829.678 56.72 832.833 56.72C836.351 56.72 839.294 56.0223 841.66 54.627C844.086 53.2317 845.664 51.3813 846.392 49.076ZM832.378 25.871C828.252 25.871 824.855 26.9023 822.186 28.965C819.516 30.967 817.787 33.5453 816.999 36.7H846.21C845.967 33.3027 844.602 30.6637 842.115 28.783C839.627 26.8417 836.382 25.871 832.378 25.871ZM865.411 18.682H875.512V64H865.411V18.682ZM894.622 17.681C897.23 17.681 899.627 18.045 901.811 18.773C904.055 19.501 905.966 20.6233 907.544 22.14C909.182 23.596 910.425 25.416 911.275 27.6C912.185 29.784 912.64 32.3623 912.64 35.335V64H902.539V37.337C902.539 33.6363 901.629 30.9063 899.809 29.147C898.049 27.327 895.259 26.417 891.437 26.417C888.525 26.417 885.855 27.054 883.429 28.328C881.063 29.5413 879.121 31.149 877.605 33.151C876.088 35.0923 875.208 37.246 874.966 39.612L874.875 34.698C875.178 32.4533 875.845 30.33 876.877 28.328C877.908 26.2653 879.273 24.4453 880.972 22.868C882.67 21.23 884.672 19.956 886.978 19.046C889.283 18.136 891.831 17.681 894.622 17.681ZM930.749 17.681C933.418 17.681 935.845 18.045 938.029 18.773C940.213 19.501 942.093 20.6233 943.671 22.14C945.309 23.596 946.583 25.416 947.493 27.6C948.403 29.784 948.858 32.3623 948.858 35.335V64H938.666V37.337C938.666 33.6363 937.756 30.9063 935.936 29.147C934.176 27.327 931.386 26.417 927.564 26.417C924.652 26.417 921.982 27.054 919.556 28.328C917.19 29.5413 915.248 31.149 913.732 33.151C912.276 35.0923 911.426 37.246 911.184 39.612L911.002 34.516C911.305 32.332 912.003 30.239 913.095 28.237C914.187 26.1743 915.582 24.3543 917.281 22.777C918.979 21.1997 920.951 19.956 923.196 19.046C925.501 18.136 928.019 17.681 930.749 17.681ZM984.08 65.001C979.045 65.001 974.525 64.091 970.521 62.271C966.517 60.451 963.363 57.7817 961.057 54.263C958.752 50.7443 957.599 46.4673 957.599 41.432C957.599 36.4573 958.752 32.2107 961.057 28.692C963.363 25.1127 966.517 22.3827 970.521 20.502C974.525 18.6213 979.045 17.681 984.08 17.681C989.116 17.681 993.605 18.6213 997.548 20.502C1001.49 22.3827 1004.59 25.1127 1006.83 28.692C1009.14 32.2107 1010.29 36.4573 1010.29 41.432C1010.29 46.4673 1009.14 50.7443 1006.83 54.263C1004.59 57.7817 1001.49 60.451 997.548 62.271C993.605 64.091 989.116 65.001 984.08 65.001ZM984.08 56.72C986.992 56.72 989.662 56.1437 992.088 54.991C994.515 53.8383 996.426 52.1093 997.821 49.804C999.277 47.4987 1000.01 44.708 1000.01 41.432C1000.01 38.156 999.277 35.3653 997.821 33.06C996.426 30.7547 994.515 28.9953 992.088 27.782C989.722 26.508 987.053 25.871 984.08 25.871C981.108 25.871 978.408 26.4777 975.981 27.691C973.555 28.9043 971.583 30.6637 970.066 32.969C968.61 35.2743 967.882 38.0953 967.882 41.432C967.882 44.708 968.61 47.4987 970.066 49.804C971.522 52.1093 973.464 53.8383 975.89 54.991C978.378 56.1437 981.108 56.72 984.08 56.72Z" fill="white"/>
<path d="M0.411477 64H-0.588523V65H0.411477V64ZM0.411477 5.032V4.032H-0.588523V5.032H0.411477ZM47.0035 9.127L46.4222 9.94073L46.4296 9.94595L46.437 9.95104L47.0035 9.127ZM50.5525 28.601L49.7644 27.9853L49.7618 27.9888L50.5525 28.601ZM44.2735 32.878L44.5897 33.8267L44.5991 33.8235L44.6085 33.8202L44.2735 32.878ZM34.6275 34.607L33.7954 34.0523L32.672 35.7374L34.6929 35.6049L34.6275 34.607ZM34.9915 34.061L35.0142 33.0613L34.4645 33.0488L34.1594 33.5063L34.9915 34.061ZM42.5445 34.789L42.3678 35.7733L42.3819 35.7758L42.3961 35.7779L42.5445 34.789ZM48.9145 36.791L48.4438 37.6734L48.4558 37.6796L48.9145 36.791ZM53.2825 40.886L52.4198 41.3917L52.4302 41.4095L52.4413 41.4268L53.2825 40.886ZM52.1905 56.538L51.3979 55.9283L52.1905 56.538ZM44.6375 61.998L44.9905 62.9336L44.9982 62.9307L45.0058 62.9277L44.6375 61.998ZM33.5355 64V65H33.55L33.5645 64.9996L33.5355 64ZM10.7855 55.173H9.78548V56.173H10.7855V55.173ZM41.1795 53.171L41.7009 54.0243L41.7094 54.0191L41.7179 54.0137L41.1795 53.171ZM42.4535 41.705L41.8202 42.479L41.831 42.4878L41.842 42.4963L42.4535 41.705ZM37.2665 39.612L37.121 40.6014L37.1251 40.6019L37.2665 39.612ZM10.7855 39.157V38.157H9.78548V39.157H10.7855ZM10.7855 30.512H9.78548V31.512H10.7855V30.512ZM38.9045 28.51L39.4367 29.3567L39.4429 29.3527L38.9045 28.51ZM38.9045 15.77L38.39 16.6275L38.4043 16.6361L38.4188 16.6442L38.9045 15.77ZM10.7855 13.859V12.859H9.78548V13.859H10.7855ZM1.41148 64V5.032H-0.588523V64H1.41148ZM0.411477 6.032H30.4415V4.032H0.411477V6.032ZM30.4415 6.032C37.5572 6.032 42.8388 7.38113 46.4222 9.94073L47.5847 8.31326C43.5242 5.41286 37.7645 4.032 30.4415 4.032V6.032ZM46.437 9.95104C50.0232 12.4166 51.8275 15.9766 51.8275 20.775H53.8275C53.8275 15.3814 51.7491 11.1761 47.57 8.30295L46.437 9.95104ZM51.8275 20.775C51.8275 23.9014 51.1045 26.2701 49.7645 27.9854L51.3405 29.2166C53.0338 27.0492 53.8275 24.2006 53.8275 20.775H51.8275ZM49.7618 27.9888C48.4463 29.688 46.5277 31.0152 43.9385 31.9358L44.6085 33.8202C47.4793 32.7995 49.7467 31.2753 51.3432 29.2132L49.7618 27.9888ZM43.9572 31.9293C41.3278 32.8058 38.2005 33.3706 34.562 33.6091L34.6929 35.6049C38.4558 35.3581 41.7591 34.7702 44.5897 33.8267L43.9572 31.9293ZM35.4595 35.1617L35.8235 34.6157L34.1594 33.5063L33.7954 34.0523L35.4595 35.1617ZM34.9688 35.0607C37.592 35.1204 40.0579 35.3587 42.3678 35.7733L42.7211 33.8047C40.2991 33.37 37.7296 33.123 35.0142 33.0613L34.9688 35.0607ZM42.3961 35.7779C44.7309 36.1282 46.7415 36.7654 48.4439 37.6734L49.3851 35.9086C47.4475 34.8753 45.2114 34.1778 42.6928 33.8001L42.3961 35.7779ZM48.4558 37.6796C50.175 38.5669 51.4879 39.8021 52.4198 41.3917L54.1452 40.3803C53.0144 38.4513 51.4153 36.9564 49.3731 35.9024L48.4558 37.6796ZM52.4413 41.4268C53.3991 42.9166 53.9205 44.9252 53.9205 47.529H55.9205C55.9205 44.6728 55.3499 42.2527 54.1237 40.3452L52.4413 41.4268ZM53.9205 47.529C53.9205 50.9981 53.056 53.7728 51.3979 55.9283L52.9831 57.1477C54.965 54.5712 55.9205 51.3399 55.9205 47.529H53.9205ZM51.3979 55.9283C49.7043 58.1299 47.3438 59.8501 44.2691 61.0683L45.0058 62.9277C48.3619 61.5979 51.0367 59.6781 52.9831 57.1477L51.3979 55.9283ZM44.2844 61.0624C41.1927 62.2291 37.6051 62.8816 33.5065 63.0004L33.5645 64.9996C37.8379 64.8757 41.6516 64.1936 44.9905 62.9336L44.2844 61.0624ZM33.5355 63H0.411477V65H33.5355V63ZM10.7855 56.173H31.9885V54.173H10.7855V56.173ZM31.9885 56.173C36.0242 56.173 39.2968 55.4935 41.7009 54.0243L40.658 52.3177C38.6942 53.5179 35.8394 54.173 31.9885 54.173V56.173ZM41.7179 54.0137C44.2291 52.4093 45.4555 49.9134 45.4555 46.71H43.4555C43.4555 49.3306 42.4979 51.142 40.6411 52.3283L41.7179 54.0137ZM45.4555 46.71C45.4555 44.2164 44.7269 42.198 43.0649 40.9137L41.842 42.4963C42.8494 43.2747 43.4555 44.5929 43.4555 46.71H45.4555ZM43.0867 40.931C41.5802 39.6984 39.6681 38.9449 37.4079 38.6221L37.1251 40.6019C39.1116 40.8857 40.6574 41.5276 41.8202 42.479L43.0867 40.931ZM37.412 38.6226C35.2952 38.3114 33.0318 38.157 30.6235 38.157V40.157C32.9472 40.157 35.1124 40.306 37.121 40.6014L37.412 38.6226ZM30.6235 38.157H10.7855V40.157H30.6235V38.157ZM9.78548 39.157V55.173H11.7855V39.157H9.78548ZM10.7855 31.512H29.8045V29.512H10.7855V31.512ZM29.8045 31.512C33.8374 31.512 37.0871 30.8335 39.4367 29.3566L38.3723 27.6634C36.4752 28.8558 33.6582 29.512 29.8045 29.512V31.512ZM39.4429 29.3527C41.9608 27.744 43.1805 25.213 43.1805 21.958H41.1805C41.1805 24.6483 40.2161 26.4853 38.3661 27.6673L39.4429 29.3527ZM43.1805 21.958C43.1805 18.755 41.95 16.318 39.3901 14.8958L38.4188 16.6442C40.2269 17.6486 41.1805 19.337 41.1805 21.958H43.1805ZM39.419 14.9125C37.0904 13.5154 34.1031 12.859 30.5325 12.859V14.859C33.8778 14.859 36.4719 15.4766 38.39 16.6275L39.419 14.9125ZM30.5325 12.859H10.7855V14.859H30.5325V12.859ZM9.78548 13.859V30.512H11.7855V13.859H9.78548ZM74.9177 62.271L74.5039 63.1814L74.9177 62.271ZM65.4537 54.263L66.2902 53.715L65.4537 54.263ZM65.4537 28.692L66.2902 29.24L66.2944 29.2335L65.4537 28.692ZM74.9177 20.502L74.4926 19.5969L74.9177 20.502ZM101.945 20.502L102.375 19.5994L101.945 20.502ZM111.227 28.692L110.38 29.2233L110.385 29.2317L110.39 29.24L111.227 28.692ZM111.227 54.263L110.39 53.7149L110.384 53.7252L111.227 54.263ZM101.945 62.271L101.526 61.363L101.945 62.271ZM102.218 49.804L101.372 49.27L101.367 49.2781L101.362 49.2862L102.218 49.804ZM102.218 33.06L101.362 33.5778L101.367 33.5859L101.372 33.594L102.218 33.06ZM96.4847 27.782L96.0106 28.6625L96.024 28.6697L96.0375 28.6764L96.4847 27.782ZM80.3777 27.691L79.9305 26.7966L80.3777 27.691ZM74.4627 32.969L73.6273 32.4194L73.6222 32.4271L73.6172 32.435L74.4627 32.969ZM74.4627 49.804L73.6172 50.338L74.4627 49.804ZM80.2867 54.991L79.8577 55.8943L79.8663 55.8983L80.2867 54.991ZM88.4767 64.001C83.5635 64.001 79.188 63.1136 75.3315 61.3606L74.5039 63.1814C78.6554 65.0684 83.3193 66.001 88.4767 66.001V64.001ZM75.3315 61.3606C71.4916 59.6152 68.4869 57.0679 66.2902 53.715L64.6173 54.811C67.0312 58.4955 70.3358 61.2868 74.5039 63.1814L75.3315 61.3606ZM66.2902 53.715C64.111 50.3889 62.9957 46.3115 62.9957 41.432H60.9957C60.9957 46.6231 62.1857 51.0998 64.6173 54.811L66.2902 53.715ZM62.9957 41.432C62.9957 36.6159 64.1098 32.568 66.2902 29.24L64.6173 28.144C62.187 31.8533 60.9957 36.2988 60.9957 41.432H62.9957ZM66.2944 29.2335C68.494 25.8183 71.5018 23.2113 75.3429 21.4071L74.4926 19.5969C70.3256 21.5541 67.0241 24.407 64.613 28.1505L66.2944 29.2335ZM75.3429 21.4071C79.1966 19.597 83.568 18.681 88.4767 18.681V16.681C83.3148 16.681 78.6469 17.6456 74.4926 19.5969L75.3429 21.4071ZM88.4767 18.681C93.3858 18.681 97.7244 19.5972 101.514 21.4046L102.375 19.5994C98.2783 17.6455 93.6383 16.681 88.4767 16.681V18.681ZM101.514 21.4046C105.292 23.2065 108.239 25.8104 110.38 29.2233L112.074 28.1607C109.725 24.4149 106.484 21.5588 102.375 19.5994L101.514 21.4046ZM110.39 29.24C112.571 32.568 113.685 36.6159 113.685 41.432H115.685C115.685 36.2988 114.493 31.8533 112.063 28.144L110.39 29.24ZM113.685 41.432C113.685 46.3115 112.569 50.3889 110.39 53.715L112.063 54.811C114.495 51.0998 115.685 46.6231 115.685 41.432H113.685ZM110.384 53.7252C108.246 57.0757 105.303 59.6199 101.526 61.363L102.364 63.179C106.474 61.2822 109.718 58.4877 112.07 54.8008L110.384 53.7252ZM101.526 61.363C97.7331 63.1135 93.3903 64.001 88.4767 64.001V66.001C93.6338 66.001 98.2697 65.0685 102.364 63.179L101.526 61.363ZM88.4767 57.72C91.5245 57.72 94.3421 57.1158 96.9138 55.8943L96.0557 54.0877C93.7741 55.1715 91.253 55.72 88.4767 55.72V57.72ZM96.9138 55.8943C99.5178 54.6573 101.577 52.7941 103.073 50.3218L101.362 49.2862C100.068 51.4246 98.305 53.0193 96.0557 54.0877L96.9138 55.8943ZM103.063 50.338C104.639 47.8432 105.402 44.8586 105.402 41.432H103.402C103.402 44.5574 102.709 47.1541 101.372 49.27L103.063 50.338ZM105.402 41.432C105.402 38.0054 104.639 35.0208 103.063 32.526L101.372 33.594C102.709 35.7099 103.402 38.3066 103.402 41.432H105.402ZM103.073 32.5422C101.579 30.0741 99.5263 28.1848 96.9319 26.8876L96.0375 28.6764C98.2965 29.8059 100.065 31.4352 101.362 33.5778L103.073 32.5422ZM96.9588 26.9015C94.4321 25.541 91.597 24.871 88.4767 24.871V26.871C91.3018 26.871 93.8053 27.475 96.0106 28.6625L96.9588 26.9015ZM88.4767 24.871C85.3639 24.871 82.5089 25.5074 79.9305 26.7966L80.8249 28.5854C83.0998 27.448 85.6442 26.871 88.4767 26.871V24.871ZM79.9305 26.7966C77.3435 28.0901 75.239 29.9696 73.6273 32.4194L75.2981 33.5186C76.7198 31.3578 78.5586 29.7186 80.8249 28.5854L79.9305 26.7966ZM73.6172 32.435C72.0398 34.9326 71.2787 37.9487 71.2787 41.432H73.2787C73.2787 38.2419 73.9736 35.6161 75.3082 33.503L73.6172 32.435ZM71.2787 41.432C71.2787 44.8586 72.0416 47.8432 73.6172 50.338L75.3082 49.27C73.9719 47.1541 73.2787 44.5574 73.2787 41.432H71.2787ZM73.6172 50.338C75.1727 52.8008 77.2574 54.6591 79.8577 55.8943L80.7158 54.0877C78.4628 53.0175 76.6647 51.4178 75.3082 49.27L73.6172 50.338ZM79.8663 55.8983C82.4962 57.1171 85.3713 57.72 88.4767 57.72V55.72C85.6369 55.72 83.0519 55.1703 80.7072 54.0837L79.8663 55.8983ZM134.281 62.271L133.867 63.1814L134.281 62.271ZM124.817 54.263L125.653 53.715L124.817 54.263ZM124.817 28.692L125.653 29.24L125.658 29.2335L124.817 28.692ZM134.281 20.502L133.856 19.5969L134.281 20.502ZM161.308 20.502L161.738 19.5994L161.308 20.502ZM170.59 28.692L169.743 29.2233L169.748 29.2317L169.754 29.24L170.59 28.692ZM170.59 54.263L169.753 53.7149L169.747 53.7252L170.59 54.263ZM161.308 62.271L160.889 61.363L161.308 62.271ZM161.581 49.804L160.736 49.27L160.73 49.2781L160.726 49.2862L161.581 49.804ZM161.581 33.06L160.726 33.5778L160.73 33.5859L160.736 33.594L161.581 33.06ZM155.848 27.782L155.374 28.6625L155.387 28.6697L155.401 28.6764L155.848 27.782ZM139.741 27.691L139.294 26.7966L139.741 27.691ZM133.826 32.969L132.991 32.4194L132.985 32.4271L132.981 32.435L133.826 32.969ZM133.826 49.804L132.981 50.338L133.826 49.804ZM139.65 54.991L139.221 55.8943L139.23 55.8983L139.65 54.991ZM147.84 64.001C142.927 64.001 138.551 63.1136 134.695 61.3606L133.867 63.1814C138.019 65.0684 142.683 66.001 147.84 66.001V64.001ZM134.695 61.3606C130.855 59.6152 127.85 57.0679 125.653 53.715L123.981 54.811C126.394 58.4955 129.699 61.2868 133.867 63.1814L134.695 61.3606ZM125.653 53.715C123.474 50.3889 122.359 46.3115 122.359 41.432H120.359C120.359 46.6231 121.549 51.0998 123.981 54.811L125.653 53.715ZM122.359 41.432C122.359 36.6159 123.473 32.568 125.653 29.24L123.981 28.144C121.55 31.8533 120.359 36.2988 120.359 41.432H122.359ZM125.658 29.2335C127.857 25.8183 130.865 23.2113 134.706 21.4071L133.856 19.5969C129.689 21.5541 126.387 24.407 123.976 28.1505L125.658 29.2335ZM134.706 21.4071C138.56 19.597 142.931 18.681 147.84 18.681V16.681C142.678 16.681 138.01 17.6456 133.856 19.5969L134.706 21.4071ZM147.84 18.681C152.749 18.681 157.088 19.5972 160.878 21.4046L161.738 19.5994C157.642 17.6455 153.002 16.681 147.84 16.681V18.681ZM160.878 21.4046C164.656 23.2065 167.603 25.8104 169.743 29.2233L171.437 28.1607C169.088 24.4149 165.847 21.5588 161.738 19.5994L160.878 21.4046ZM169.754 29.24C171.934 32.568 173.048 36.6159 173.048 41.432H175.048C175.048 36.2988 173.857 31.8533 171.426 28.144L169.754 29.24ZM173.048 41.432C173.048 46.3115 171.933 50.3889 169.754 53.715L171.426 54.811C173.858 51.0998 175.048 46.6231 175.048 41.432H173.048ZM169.747 53.7252C167.61 57.0757 164.666 59.6199 160.889 61.363L161.727 63.179C165.837 61.2822 169.081 58.4877 171.433 54.8008L169.747 53.7252ZM160.889 61.363C157.096 63.1135 152.754 64.001 147.84 64.001V66.001C152.997 66.001 157.633 65.0685 161.727 63.179L160.889 61.363ZM147.84 57.72C150.888 57.72 153.705 57.1158 156.277 55.8943L155.419 54.0877C153.137 55.1715 150.616 55.72 147.84 55.72V57.72ZM156.277 55.8943C158.881 54.6573 160.94 52.7941 162.437 50.3218L160.726 49.2862C159.431 51.4246 157.668 53.0193 155.419 54.0877L156.277 55.8943ZM162.426 50.338C164.002 47.8432 164.765 44.8586 164.765 41.432H162.765C162.765 44.5574 162.072 47.1541 160.736 49.27L162.426 50.338ZM164.765 41.432C164.765 38.0054 164.002 35.0208 162.426 32.526L160.736 33.594C162.072 35.7099 162.765 38.3066 162.765 41.432H164.765ZM162.437 32.5422C160.943 30.0741 158.89 28.1848 156.295 26.8876L155.401 28.6764C157.66 29.8059 159.429 31.4352 160.726 33.5778L162.437 32.5422ZM156.322 26.9015C153.795 25.541 150.96 24.871 147.84 24.871V26.871C150.665 26.871 153.169 27.475 155.374 28.6625L156.322 26.9015ZM147.84 24.871C144.727 24.871 141.872 25.5074 139.294 26.7966L140.188 28.5854C142.463 27.448 145.007 26.871 147.84 26.871V24.871ZM139.294 26.7966C136.707 28.0901 134.602 29.9696 132.991 32.4194L134.661 33.5186C136.083 31.3578 137.922 29.7186 140.188 28.5854L139.294 26.7966ZM132.981 32.435C131.403 34.9326 130.642 37.9487 130.642 41.432H132.642C132.642 38.2419 133.337 35.6161 134.671 33.503L132.981 32.435ZM130.642 41.432C130.642 44.8586 131.405 47.8432 132.981 50.338L134.671 49.27C133.335 47.1541 132.642 44.5574 132.642 41.432H130.642ZM132.981 50.338C134.536 52.8008 136.621 54.6591 139.221 55.8943L140.079 54.0877C137.826 53.0175 136.028 51.4178 134.671 49.27L132.981 50.338ZM139.23 55.8983C141.859 57.1171 144.735 57.72 147.84 57.72V55.72C145 55.72 142.415 55.1703 140.07 54.0837L139.23 55.8983ZM183.998 0.481998V-0.518002H182.998V0.481998H183.998ZM194.099 0.481998H195.099V-0.518002H194.099V0.481998ZM194.099 64V65H195.099V64H194.099ZM183.998 64H182.998V65H183.998V64ZM229.407 18.682L230.083 19.4188L231.976 17.682H229.407V18.682ZM204.018 41.978L203.019 41.9352L202.916 44.3467L204.694 42.7148L204.018 41.978ZM204.291 35.608L205.016 34.9185L203.393 33.2139L203.292 35.5652L204.291 35.608ZM231.318 64V65H233.651L232.043 63.3105L231.318 64ZM218.396 64L217.67 64.6873L217.966 65H218.396V64ZM194.372 38.611L193.684 37.8853L192.959 38.5726L193.646 39.2983L194.372 38.611ZM215.393 18.682V17.682H214.995L214.705 17.9563L215.393 18.682ZM183.998 1.482H194.099V-0.518002H183.998V1.482ZM193.099 0.481998V64H195.099V0.481998H193.099ZM194.099 63H183.998V65H194.099V63ZM184.998 64V0.481998H182.998V64H184.998ZM228.731 17.9452L203.342 41.2412L204.694 42.7148L230.083 19.4188L228.731 17.9452ZM205.017 42.0208L205.29 35.6508L203.292 35.5652L203.019 41.9352L205.017 42.0208ZM203.567 36.2975L230.594 64.6895L232.043 63.3105L205.016 34.9185L203.567 36.2975ZM231.318 63H218.396V65H231.318V63ZM219.123 63.3127L195.099 37.9237L193.646 39.2983L217.67 64.6873L219.123 63.3127ZM195.06 39.3367L216.081 19.4077L214.705 17.9563L193.684 37.8853L195.06 39.3367ZM215.393 19.682H229.407V17.682H215.393V19.682ZM313.405 5.032L314.261 5.54909L315.178 4.032H313.405V5.032ZM289.381 44.799L288.525 44.2819L288.381 44.5204V44.799H289.381ZM289.381 64V65H290.381V64H289.381ZM279.007 64H278.007V65H279.007V64ZM279.007 44.799H280.007V44.5204L279.863 44.2819L279.007 44.799ZM254.983 5.032V4.032H253.211L254.127 5.54909L254.983 5.032ZM266.904 5.032L267.768 4.52785L267.478 4.032H266.904V5.032ZM287.197 39.794V40.794H288.939L288.061 39.2898L287.197 39.794ZM281.555 39.794L280.689 39.2949L279.825 40.794H281.555V39.794ZM301.575 5.032V4.032H300.997L300.709 4.53293L301.575 5.032ZM312.549 4.51491L288.525 44.2819L290.237 45.3161L314.261 5.54909L312.549 4.51491ZM288.381 44.799V64H290.381V44.799H288.381ZM289.381 63H279.007V65H289.381V63ZM280.007 64V44.799H278.007V64H280.007ZM279.863 44.2819L255.839 4.51491L254.127 5.54909L278.151 45.3161L279.863 44.2819ZM254.983 6.032H266.904V4.032H254.983V6.032ZM266.041 5.53615L286.334 40.2982L288.061 39.2898L267.768 4.52785L266.041 5.53615ZM287.197 38.794H281.555V40.794H287.197V38.794ZM282.422 40.2931L302.442 5.53107L300.709 4.53293L280.689 39.2949L282.422 40.2931ZM301.575 6.032H313.405V4.032H301.575V6.032ZM322.857 62.271L322.443 63.1814L322.857 62.271ZM313.393 54.263L314.23 53.715L313.393 54.263ZM313.393 28.692L314.23 29.24L314.234 29.2335L313.393 28.692ZM322.857 20.502L322.432 19.5969L322.857 20.502ZM349.884 20.502L350.315 19.5994L349.884 20.502ZM359.166 28.692L358.319 29.2233L358.324 29.2317L358.33 29.24L359.166 28.692ZM359.166 54.263L358.33 53.7149L358.323 53.7252L359.166 54.263ZM349.884 62.271L349.465 61.363L349.884 62.271ZM350.157 49.804L349.312 49.27L349.307 49.2781L349.302 49.2862L350.157 49.804ZM350.157 33.06L349.302 33.5778L349.307 33.5859L349.312 33.594L350.157 33.06ZM344.424 27.782L343.95 28.6625L343.963 28.6697L343.977 28.6764L344.424 27.782ZM328.317 27.691L327.87 26.7966L328.317 27.691ZM322.402 32.969L321.567 32.4194L321.562 32.4271L321.557 32.435L322.402 32.969ZM322.402 49.804L321.557 50.338L322.402 49.804ZM328.226 54.991L327.797 55.8943L327.806 55.8983L328.226 54.991ZM336.416 64.001C331.503 64.001 327.127 63.1136 323.271 61.3606L322.443 63.1814C326.595 65.0684 331.259 66.001 336.416 66.001V64.001ZM323.271 61.3606C319.431 59.6152 316.426 57.0679 314.23 53.715L312.557 54.811C314.971 58.4955 318.275 61.2868 322.443 63.1814L323.271 61.3606ZM314.23 53.715C312.051 50.3889 310.935 46.3115 310.935 41.432H308.935C308.935 46.6231 310.125 51.0998 312.557 54.811L314.23 53.715ZM310.935 41.432C310.935 36.6159 312.049 32.568 314.23 29.24L312.557 28.144C310.126 31.8533 308.935 36.2988 308.935 41.432H310.935ZM314.234 29.2335C316.434 25.8183 319.441 23.2113 323.282 21.4071L322.432 19.5969C318.265 21.5541 314.964 24.407 312.552 28.1505L314.234 29.2335ZM323.282 21.4071C327.136 19.597 331.507 18.681 336.416 18.681V16.681C331.254 16.681 326.586 17.6456 322.432 19.5969L323.282 21.4071ZM336.416 18.681C341.325 18.681 345.664 19.5972 349.454 21.4046L350.315 19.5994C346.218 17.6455 341.578 16.681 336.416 16.681V18.681ZM349.454 21.4046C353.232 23.2065 356.179 25.8104 358.319 29.2233L360.013 28.1607C357.664 24.4149 354.423 21.5588 350.315 19.5994L349.454 21.4046ZM358.33 29.24C360.51 32.568 361.624 36.6159 361.624 41.432H363.624C363.624 36.2988 362.433 31.8533 360.003 28.144L358.33 29.24ZM361.624 41.432C361.624 46.3115 360.509 50.3889 358.33 53.715L360.003 54.811C362.434 51.0998 363.624 46.6231 363.624 41.432H361.624ZM358.323 53.7252C356.186 57.0757 353.242 59.6199 349.465 61.363L350.303 63.179C354.413 61.2822 357.657 58.4877 360.009 54.8008L358.323 53.7252ZM349.465 61.363C345.673 63.1135 341.33 64.001 336.416 64.001V66.001C341.573 66.001 346.209 65.0685 350.303 63.179L349.465 61.363ZM336.416 57.72C339.464 57.72 342.282 57.1158 344.853 55.8943L343.995 54.0877C341.714 55.1715 339.192 55.72 336.416 55.72V57.72ZM344.853 55.8943C347.457 54.6573 349.516 52.7941 351.013 50.3218L349.302 49.2862C348.007 51.4246 346.244 53.0193 343.995 54.0877L344.853 55.8943ZM351.003 50.338C352.578 47.8432 353.341 44.8586 353.341 41.432H351.341C351.341 44.5574 350.648 47.1541 349.312 49.27L351.003 50.338ZM353.341 41.432C353.341 38.0054 352.578 35.0208 351.003 32.526L349.312 33.594C350.648 35.7099 351.341 38.3066 351.341 41.432H353.341ZM351.013 32.5422C349.519 30.0741 347.466 28.1848 344.871 26.8876L343.977 28.6764C346.236 29.8059 348.005 31.4352 349.302 33.5778L351.013 32.5422ZM344.898 26.9015C342.372 25.541 339.536 24.871 336.416 24.871V26.871C339.241 26.871 341.745 27.475 343.95 28.6625L344.898 26.9015ZM336.416 24.871C333.303 24.871 330.448 25.5074 327.87 26.7966L328.764 28.5854C331.039 27.448 333.584 26.871 336.416 26.871V24.871ZM327.87 26.7966C325.283 28.0901 323.178 29.9696 321.567 32.4194L323.238 33.5186C324.659 31.3578 326.498 29.7186 328.764 28.5854L327.87 26.7966ZM321.557 32.435C319.979 34.9326 319.218 37.9487 319.218 41.432H321.218C321.218 38.2419 321.913 35.6161 323.248 33.503L321.557 32.435ZM319.218 41.432C319.218 44.8586 319.981 47.8432 321.557 50.338L323.248 49.27C321.911 47.1541 321.218 44.5574 321.218 41.432H319.218ZM321.557 50.338C323.112 52.8008 325.197 54.6591 327.797 55.8943L328.655 54.0877C326.402 53.0175 324.604 51.4178 323.248 49.27L321.557 50.338ZM327.806 55.8983C330.436 57.1171 333.311 57.72 336.416 57.72V55.72C333.576 55.72 330.991 55.1703 328.647 54.0837L327.806 55.8983ZM418.893 64V65H419.893V64H418.893ZM408.792 64H407.792V65H408.792V64ZM408.792 18.682V17.682H407.792V18.682H408.792ZM418.893 18.682H419.893V17.682H418.893V18.682ZM409.338 42.433L410.338 42.4018L408.36 42.2255L409.338 42.433ZM409.429 45.345L410.418 45.4971L410.432 45.4059L410.429 45.3138L409.429 45.345ZM408.61 48.894L407.645 48.634L407.64 48.6515L407.636 48.6691L408.61 48.894ZM406.699 54.081L405.799 53.6454L405.793 53.6581L406.699 54.081ZM403.241 59.359L402.482 58.7082L402.48 58.7105L403.241 59.359ZM397.963 63.454L398.4 64.3535L398.411 64.3485L398.421 64.3433L397.963 63.454ZM383.585 64.091L383.846 63.1256L383.837 63.1232L383.828 63.1209L383.585 64.091ZM377.579 61.27L376.975 62.0667L376.982 62.0716L376.988 62.0764L377.579 61.27ZM373.302 55.81L374.206 55.3819L373.302 55.81ZM371.664 18.682V17.682H370.664V18.682H371.664ZM381.765 18.682H382.765V17.682H381.765V18.682ZM383.13 51.897L382.256 52.3826L382.267 52.4021L382.279 52.4211L383.13 51.897ZM387.134 55.264L386.769 56.1947L387.134 55.264ZM401.239 54.081L400.695 53.242L401.239 54.081ZM406.608 48.712L405.766 48.1736L405.762 48.1798L406.608 48.712ZM418.893 63H408.792V65H418.893V63ZM409.792 64V18.682H407.792V64H409.792ZM408.792 19.682H418.893V17.682H408.792V19.682ZM417.893 18.682V64H419.893V18.682H417.893ZM408.339 42.4642L408.43 45.3762L410.429 45.3138L410.338 42.4018L408.339 42.4642ZM408.441 45.1929C408.329 45.9245 408.068 47.0635 407.645 48.634L409.576 49.154C410.003 47.5698 410.288 46.3428 410.418 45.4971L408.441 45.1929ZM407.636 48.6691C407.293 50.1562 406.686 51.8137 405.799 53.6454L407.6 54.5166C408.533 52.587 409.2 50.7864 409.585 49.1189L407.636 48.6691ZM405.793 53.6581C404.986 55.3871 403.886 57.0707 402.482 58.7082L404.001 60.0098C405.509 58.2499 406.714 56.4149 407.606 54.5039L405.793 53.6581ZM402.48 58.7105C401.178 60.2389 399.526 61.5258 397.506 62.5647L398.421 64.3433C400.647 63.1982 402.514 61.7551 404.003 60.0075L402.48 58.7105ZM397.527 62.5545C395.572 63.5036 393.152 64.001 390.228 64.001V66.001C393.371 66.001 396.108 65.467 398.4 64.3535L397.527 62.5545ZM390.228 64.001C388.138 64.001 386.011 63.7108 383.846 63.1256L383.325 65.0564C385.649 65.6845 387.951 66.001 390.228 66.001V64.001ZM383.828 63.1209C381.77 62.6064 379.887 61.7218 378.171 60.4636L376.988 62.0764C378.912 63.4875 381.033 64.4836 383.343 65.0611L383.828 63.1209ZM378.184 60.4733C376.571 59.2498 375.24 57.5647 374.206 55.3819L372.399 56.2381C373.549 58.6659 375.069 60.6209 376.975 62.0667L378.184 60.4733ZM374.206 55.3819C373.197 53.2511 372.664 50.4975 372.664 47.074H370.664C370.664 50.6879 371.224 53.7582 372.399 56.2381L374.206 55.3819ZM372.664 47.074V18.682H370.664V47.074H372.664ZM371.664 19.682H381.765V17.682H371.664V19.682ZM380.765 18.682V45.163H382.765V18.682H380.765ZM380.765 45.163C380.765 48.1029 381.232 50.5383 382.256 52.3826L384.005 51.4114C383.209 49.9797 382.765 47.9257 382.765 45.163H380.765ZM382.279 52.4211C383.361 54.1801 384.865 55.4469 386.769 56.1947L387.5 54.3333C386.006 53.7465 384.841 52.7685 383.982 51.3729L382.279 52.4211ZM386.769 56.1947C388.607 56.917 390.708 57.265 393.049 57.265V55.265C390.902 55.265 389.059 54.9456 387.5 54.3333L386.769 56.1947ZM393.049 57.265C396.419 57.265 399.347 56.5006 401.784 54.92L400.695 53.242C398.643 54.5734 396.111 55.265 393.049 55.265V57.265ZM401.784 54.92C404.142 53.3903 406.038 51.4986 407.455 49.2442L405.762 48.1798C404.51 50.172 402.826 51.8597 400.695 53.242L401.784 54.92ZM407.451 49.2504C408.895 46.991 409.861 44.7867 410.317 42.6405L408.36 42.2255C407.966 44.0833 407.113 46.065 405.766 48.1736L407.451 49.2504ZM430.05 18.682V17.682H429.05V18.682H430.05ZM440.151 18.682H441.151V17.682H440.151V18.682ZM440.151 64V65H441.151V64H440.151ZM430.05 64H429.05V65H430.05V64ZM456.531 27.327V28.327H457.531V27.327H456.531ZM448.068 29.42L447.56 28.5586L447.55 28.5645L448.068 29.42ZM442.517 34.516L443.338 35.0878L442.517 34.516ZM439.605 40.34L438.605 40.3579L440.566 40.6188L439.605 40.34ZM439.514 35.244L438.518 35.1535L438.513 35.2076L438.514 35.2619L439.514 35.244ZM440.151 32.241L441.116 32.5041L441.119 32.4934L440.151 32.241ZM441.789 27.691L440.888 27.2572L440.882 27.2709L440.875 27.2849L441.789 27.691ZM444.883 22.959L444.12 22.313L444.117 22.3158L444.883 22.959ZM449.706 19.137L449.259 18.2425L449.248 18.2484L449.706 19.137ZM456.531 17.681H457.531V16.681H456.531V17.681ZM430.05 19.682H440.151V17.682H430.05V19.682ZM439.151 18.682V64H441.151V18.682H439.151ZM440.151 63H430.05V65H440.151V63ZM431.05 64V18.682H429.05V64H431.05ZM456.531 26.327C453.111 26.327 450.107 27.0564 447.56 28.5586L448.576 30.2814C450.761 28.9929 453.399 28.327 456.531 28.327V26.327ZM447.55 28.5645C445.138 30.0246 443.18 31.8161 441.697 33.9442L443.338 35.0878C444.645 33.2119 446.388 31.606 448.586 30.2755L447.55 28.5645ZM441.697 33.9442C440.254 36.0145 439.228 38.0538 438.645 40.0612L440.566 40.6188C441.075 38.8649 441.99 37.0215 443.338 35.0878L441.697 33.9442ZM440.605 40.3221L440.514 35.2261L438.514 35.2619L438.605 40.3579L440.605 40.3221ZM440.51 35.3345C440.562 34.7592 440.755 33.8286 441.116 32.5041L439.186 31.9779C438.82 33.3227 438.587 34.3941 438.518 35.1535L440.51 35.3345ZM441.119 32.4934C441.466 31.1615 441.992 29.6969 442.703 28.0971L440.875 27.2849C440.13 28.9611 439.564 30.5298 439.184 31.9886L441.119 32.4934ZM442.69 28.1248C443.44 26.5684 444.424 25.0606 445.649 23.6022L444.117 22.3158C442.795 23.8907 441.716 25.5376 440.888 27.2572L442.69 28.1248ZM445.647 23.6049C446.895 22.1301 448.398 20.9376 450.165 20.0256L449.248 18.2484C447.253 19.2777 445.541 20.6332 444.12 22.3131L445.647 23.6049ZM450.153 20.0314C451.931 19.1428 454.047 18.681 456.531 18.681V16.681C453.798 16.681 451.364 17.1898 449.259 18.2426L450.153 20.0314ZM455.531 17.681V27.327H457.531V17.681H455.531ZM462.173 49.076V48.076H461.298L461.182 48.9438L462.173 49.076ZM471.546 49.076L472.525 48.87L472.358 48.076H471.546V49.076ZM475.277 54.718L474.689 55.5267L474.697 55.5326L474.705 55.5384L475.277 54.718ZM488.472 56.083L488.116 55.1485L488.108 55.1515L488.101 55.1545L488.472 56.083ZM491.111 54.081L490.27 53.5402L490.256 53.5622L490.243 53.5849L491.111 54.081ZM490.747 48.075L490.04 48.7821L490.054 48.7962L490.069 48.8098L490.747 48.075ZM487.471 46.255L487.787 45.3063L487.471 46.255ZM482.011 44.981L481.775 45.9527L481.811 45.9613L481.847 45.9674L482.011 44.981ZM475.368 43.161L475.66 42.2046L475.368 43.161ZM469.453 40.704L468.947 41.5667L468.959 41.5733L468.97 41.5796L469.453 40.704ZM465.267 36.882L464.416 37.4061L464.427 37.4255L464.44 37.4443L465.267 36.882ZM465.176 25.598L464.308 25.1018L464.302 25.1124L465.176 25.598ZM469.18 21.321L469.742 22.1485L469.18 21.321ZM475.186 18.682L475.441 19.6491L475.453 19.646L475.464 19.6426L475.186 18.682ZM492.567 19.592L492.128 20.4906L492.136 20.4945L492.567 19.592ZM498.573 24.961L497.708 25.462L497.713 25.4705L497.718 25.4788L498.573 24.961ZM500.666 32.878V33.878H501.666V32.878H500.666ZM491.748 32.878L490.768 33.0741L490.928 33.878H491.748V32.878ZM488.927 27.6L488.311 28.3875L488.927 27.6ZM475.459 34.516L474.804 35.2717L474.831 35.2948L474.859 35.316L475.459 34.516ZM479.554 36.427L479.258 37.3821L479.554 36.427ZM485.742 38.065L486.01 37.1015L485.989 37.0956L485.967 37.0906L485.742 38.065ZM491.93 39.976L491.605 40.9217L491.618 40.9263L491.632 40.9305L491.93 39.976ZM497.117 42.342L496.578 43.1843L496.598 43.1967L496.617 43.2082L497.117 42.342ZM500.848 45.982L501.706 45.4675V45.4675L500.848 45.982ZM499.938 58.813L499.141 58.2091L499.135 58.2169L499.129 58.2248L499.938 58.813ZM493.568 63.454L493.915 64.392L493.924 64.3887L493.933 64.3852L493.568 63.454ZM474.458 63.818L474.156 64.7713L474.163 64.7733L474.458 63.818ZM468.179 60.724L467.565 61.5134L467.572 61.5187L467.579 61.524L468.179 60.724ZM464.357 56.629L463.509 57.159L464.357 56.629ZM462.446 52.443L461.471 52.6646L461.476 52.6855L461.481 52.7061L462.446 52.443ZM462.173 50.076H471.546V48.076H462.173V50.076ZM470.568 49.282C471.107 51.8428 472.498 53.9332 474.689 55.5267L475.865 53.9093C474.052 52.5908 472.956 50.9199 472.525 48.87L470.568 49.282ZM474.705 55.5384C476.929 57.0884 479.852 57.811 483.376 57.811V55.811C480.106 55.811 477.629 55.1383 475.849 53.8976L474.705 55.5384ZM483.376 57.811C485.614 57.811 487.459 57.5654 488.844 57.0115L488.101 55.1545C487.059 55.5713 485.507 55.811 483.376 55.811V57.811ZM488.828 57.0175C490.234 56.4818 491.341 55.6938 491.979 54.5771L490.243 53.5849C489.91 54.1668 489.258 54.7135 488.116 55.1485L488.828 57.0175ZM491.952 54.6218C492.611 53.5979 492.93 52.4365 492.93 51.169H490.93C490.93 52.0855 490.704 52.8654 490.27 53.5402L491.952 54.6218ZM492.93 51.169C492.93 49.6281 492.467 48.3018 491.425 47.3402L490.069 48.8098C490.604 49.3042 490.93 50.0406 490.93 51.169H492.93ZM491.454 47.3679C490.576 46.4895 489.324 45.8186 487.787 45.3063L487.155 47.2037C488.53 47.662 489.462 48.2045 490.04 48.7821L491.454 47.3679ZM487.787 45.3063C486.265 44.799 484.391 44.3638 482.176 43.9946L481.847 45.9674C484 46.3262 485.765 46.7403 487.155 47.2037L487.787 45.3063ZM482.248 44.0093C480.021 43.4678 477.826 42.8663 475.66 42.2046L475.076 44.1174C477.279 44.7904 479.512 45.4022 481.775 45.9527L482.248 44.0093ZM475.66 42.2046C473.534 41.5549 471.627 40.7615 469.936 39.8284L468.97 41.5796C470.798 42.5879 472.835 43.4325 475.076 44.1174L475.66 42.2046ZM469.959 39.8413C468.313 38.8765 467.033 37.7005 466.094 36.3197L464.44 37.4443C465.564 39.0968 467.075 40.4688 468.947 41.5667L469.959 39.8413ZM466.119 36.3579C465.264 34.9686 464.811 33.248 464.811 31.149H462.811C462.811 33.5394 463.329 35.6407 464.416 37.4061L466.119 36.3579ZM464.811 31.149C464.811 29.2387 465.231 27.5585 466.05 26.0836L464.302 25.1124C463.301 26.9135 462.811 28.9339 462.811 31.149H464.811ZM466.044 26.0941C466.936 24.5344 468.163 23.2199 469.742 22.1485L468.619 20.4935C466.8 21.7275 465.358 23.2643 464.308 25.1019L466.044 26.0941ZM469.742 22.1485C471.333 21.0687 473.228 20.2315 475.441 19.6491L474.932 17.7149C472.534 18.3458 470.425 19.2679 468.619 20.4935L469.742 22.1485ZM475.464 19.6426C477.668 19.0047 480.091 18.681 482.739 18.681V16.681C479.928 16.681 477.315 17.0246 474.908 17.7214L475.464 19.6426ZM482.739 18.681C486.582 18.681 489.696 19.3028 492.128 20.4906L493.006 18.6934C490.221 17.3332 486.783 16.681 482.739 16.681V18.681ZM492.136 20.4945C494.645 21.6916 496.485 23.3504 497.708 25.462L499.439 24.46C497.992 21.961 495.828 20.0404 492.998 18.6895L492.136 20.4945ZM497.718 25.4788C499.009 27.6121 499.666 30.0685 499.666 32.878H501.666C501.666 29.7422 500.928 26.9205 499.429 24.4432L497.718 25.4788ZM500.666 31.878H491.748V33.878H500.666V31.878ZM492.729 32.6819C492.215 30.1133 491.19 28.1009 489.544 26.8125L488.311 28.3875C489.455 29.283 490.311 30.7894 490.768 33.0741L492.729 32.6819ZM489.544 26.8125C487.896 25.5235 485.542 24.962 482.648 24.962V26.962C485.336 26.962 487.167 27.4925 488.311 28.3875L489.544 26.8125ZM482.648 24.962C479.768 24.962 477.415 25.4584 475.724 26.5859L476.833 28.25C478.054 27.4363 479.947 26.962 482.648 26.962V24.962ZM475.724 26.5859C473.999 27.7354 473.094 29.377 473.094 31.422H475.094C475.094 30.0696 475.645 29.042 476.833 28.25L475.724 26.5859ZM473.094 31.422C473.094 32.9669 473.661 34.2809 474.804 35.2717L476.114 33.7603C475.437 33.1738 475.094 32.4251 475.094 31.422H473.094ZM474.859 35.316C475.956 36.1386 477.44 36.8179 479.258 37.3821L479.851 35.4719C478.15 34.9441 476.904 34.3494 476.059 33.716L474.859 35.316ZM479.258 37.3821C481.047 37.9373 483.134 38.4895 485.517 39.0394L485.967 37.0906C483.618 36.5485 481.58 36.0087 479.851 35.4719L479.258 37.3821ZM485.475 39.0285C487.641 39.6304 489.685 40.2615 491.605 40.9217L492.255 39.0303C490.293 38.3558 488.211 37.713 486.01 37.1015L485.475 39.0285ZM491.632 40.9305C493.499 41.514 495.145 42.2673 496.578 43.1843L497.656 41.4997C496.056 40.4754 494.244 39.6513 492.228 39.0215L491.632 40.9305ZM496.617 43.2082C498.052 44.0359 499.171 45.13 499.991 46.4965L501.706 45.4675C500.706 43.8007 499.337 42.4681 497.617 41.4758L496.617 43.2082ZM499.991 46.4965C500.785 47.8211 501.213 49.5125 501.213 51.624H503.213C503.213 49.2462 502.731 47.1762 501.706 45.4675L499.991 46.4965ZM501.213 51.624C501.213 54.2222 500.512 56.4002 499.141 58.2091L500.735 59.4169C502.398 57.2218 503.213 54.6072 503.213 51.624H501.213ZM499.129 58.2248C497.807 60.0426 495.854 61.4856 493.204 62.5228L493.933 64.3852C496.863 63.2384 499.157 61.5874 500.747 59.4012L499.129 58.2248ZM493.222 62.516C490.571 63.4954 487.328 64.001 483.467 64.001V66.001C487.493 66.001 490.984 65.4753 493.915 64.392L493.222 62.516ZM483.467 64.001C480.081 64.001 477.183 63.6145 474.754 62.8627L474.163 64.7733C476.83 65.5989 479.937 66.001 483.467 66.001V64.001ZM474.76 62.8648C472.357 62.1026 470.37 61.1171 468.779 59.924L467.579 61.524C469.386 62.8789 471.585 63.9561 474.156 64.7712L474.76 62.8648ZM468.793 59.9346C467.229 58.7181 466.042 57.4372 465.205 56.099L463.509 57.159C464.493 58.7328 465.853 60.1819 467.565 61.5134L468.793 59.9346ZM465.205 56.099C464.335 54.7067 463.744 53.4009 463.411 52.1799L461.481 52.7061C461.876 54.1544 462.559 55.6393 463.509 57.159L465.205 56.099ZM463.421 52.2214C463.133 50.9513 463.065 49.9573 463.164 49.2082L461.182 48.9438C461.039 50.0147 461.153 51.2653 461.471 52.6646L463.421 52.2214ZM549.22 49.076V48.076H548.487L548.266 48.7749L549.22 49.076ZM558.957 49.076L559.945 49.231L560.126 48.076H558.957V49.076ZM555.317 57.357L554.536 56.7323L554.534 56.7348L555.317 57.357ZM547.582 62.999L547.959 63.9251L547.966 63.9221L547.974 63.919L547.582 62.999ZM522.011 62.18L521.58 63.0824L521.591 63.0876L522.011 62.18ZM512.456 53.99L511.619 54.538L512.456 53.99ZM512.365 28.874L513.212 29.4053L512.365 28.874ZM521.647 20.593L521.21 19.6932L521.205 19.6958L521.647 20.593ZM548.947 20.593L548.47 21.472L548.479 21.4768L548.488 21.4814L548.947 20.593ZM557.046 29.147L556.137 29.5652L556.14 29.5707L557.046 29.147ZM559.23 43.434V44.434H560.178L560.228 43.4866L559.23 43.434ZM519.281 43.434V42.434H518.155L518.288 43.5522L519.281 43.434ZM521.738 50.35L520.898 50.8932L520.907 50.9077L520.917 50.9218L521.738 50.35ZM527.38 55.082L526.942 55.981L526.951 55.9856L526.961 55.99L527.38 55.082ZM544.488 54.627L543.989 53.76L543.98 53.7656L544.488 54.627ZM525.014 28.965L525.614 29.765L525.619 29.7607L525.625 29.7563L525.014 28.965ZM519.827 36.7L518.857 36.4575L518.546 37.7H519.827V36.7ZM549.038 36.7V37.7H550.112L550.035 36.6288L549.038 36.7ZM544.943 28.783L544.327 29.5713L544.333 29.576L544.34 29.5807L544.943 28.783ZM549.22 50.076H558.957V48.076H549.22V50.076ZM557.969 48.921C557.51 51.8445 556.368 54.4426 554.536 56.7323L556.098 57.9817C558.148 55.418 559.432 52.4955 559.945 49.231L557.969 48.921ZM554.534 56.7348C552.774 58.9491 550.34 60.7372 547.19 62.079L547.974 63.919C551.375 62.4701 554.098 60.4969 556.099 57.9792L554.534 56.7348ZM547.204 62.0729C544.077 63.347 540.299 64.001 535.843 64.001V66.001C540.487 66.001 544.534 65.3204 547.959 63.9251L547.204 62.0729ZM535.843 64.001C530.809 64.001 526.345 63.0836 522.431 61.2724L521.591 63.0876C525.806 65.0377 530.563 66.001 535.843 66.001V64.001ZM522.442 61.2776C518.53 59.4093 515.49 56.7968 513.292 53.442L511.619 54.538C514.032 58.2205 517.362 61.068 521.58 63.0824L522.442 61.2776ZM513.292 53.442C511.109 50.1101 509.998 46.1213 509.998 41.432H507.998C507.998 46.4493 509.192 50.8326 511.619 54.538L513.292 53.442ZM509.998 41.432C509.998 36.8014 511.08 32.8048 513.212 29.4053L511.518 28.3427C509.16 32.1019 507.998 36.4773 507.998 41.432H509.998ZM513.212 29.4053C515.354 25.9897 518.305 23.353 522.088 21.4902L521.205 19.6958C517.102 21.7157 513.865 24.5996 511.518 28.3427L513.212 29.4053ZM522.083 21.4928C525.929 19.6279 530.387 18.681 535.479 18.681V16.681C530.136 16.681 525.372 17.6755 521.21 19.6932L522.083 21.4928ZM535.479 18.681C540.764 18.681 545.077 19.6318 548.47 21.472L549.423 19.714C545.658 17.6716 540.992 16.681 535.479 16.681V18.681ZM548.488 21.4814C551.924 23.2568 554.468 25.9397 556.137 29.5651L557.954 28.7289C556.104 24.7103 553.249 21.6905 549.406 19.7046L548.488 21.4814ZM556.14 29.5707C557.808 33.1367 558.529 37.7216 558.231 43.3814L560.228 43.4866C560.537 37.6198 559.802 32.68 557.951 28.7233L556.14 29.5707ZM559.23 42.434H519.281V44.434H559.23V42.434ZM518.288 43.5522C518.608 46.2448 519.477 48.6967 520.898 50.8932L522.577 49.8067C521.329 47.8779 520.56 45.7192 520.274 43.3158L518.288 43.5522ZM520.917 50.9218C522.418 53.0746 524.435 54.7597 526.942 55.981L527.818 54.183C525.593 53.099 523.848 51.6294 522.558 49.7782L520.917 50.9218ZM526.961 55.99C529.483 57.154 532.391 57.72 535.661 57.72V55.72C532.621 55.72 530.009 55.194 527.799 54.174L526.961 55.99ZM535.661 57.72C539.309 57.72 542.438 56.9966 544.996 55.4884L543.98 53.7656C541.805 55.0481 539.05 55.72 535.661 55.72V57.72ZM544.986 55.4939C547.593 53.9947 549.358 51.9589 550.173 49.3771L548.266 48.7749C547.625 50.8038 546.235 52.4686 543.989 53.7601L544.986 55.4939ZM535.206 24.871C530.91 24.871 527.283 25.9477 524.402 28.1737L525.625 29.7563C528.083 27.8569 531.251 26.871 535.206 26.871V24.871ZM524.414 28.165C521.566 30.3009 519.702 33.0737 518.857 36.4575L520.797 36.9425C521.528 34.0169 523.123 31.6331 525.614 29.765L524.414 28.165ZM519.827 37.7H549.038V35.7H519.827V37.7ZM550.035 36.6288C549.774 32.9736 548.286 30.0572 545.546 27.9853L544.34 29.5807C546.574 31.2701 547.816 33.6317 548.04 36.7712L550.035 36.6288ZM545.558 27.9947C542.852 25.8829 539.372 24.871 535.206 24.871V26.871C539.048 26.871 542.058 27.8004 544.327 29.5713L545.558 27.9947ZM569.149 0.481998V-0.518002H568.149V0.481998H569.149ZM579.25 0.481998H580.25V-0.518002H579.25V0.481998ZM579.25 64V65H580.25V64H579.25ZM569.149 64H568.149V65H569.149V64ZM569.149 1.482H579.25V-0.518002H569.149V1.482ZM578.25 0.481998V64H580.25V0.481998H578.25ZM579.25 63H569.149V65H579.25V63ZM570.149 64V0.481998H568.149V64H570.149ZM586.56 19.228V18.228H585.56V19.228H586.56ZM619.411 19.228H620.411V18.228H619.411V19.228ZM619.411 27.418V28.418H620.411V27.418H619.411ZM586.56 27.418H585.56V28.418H586.56V27.418ZM620.139 0.481998H621.139V-0.518002H620.139V0.481998ZM620.139 9.21799V10.218H621.139V9.21799H620.139ZM614.497 9.21799L614.461 10.2174L614.479 10.218H614.497V9.21799ZM610.038 9.764L609.721 8.81532L609.714 8.81767L609.707 8.82014L610.038 9.764ZM607.126 12.13L606.28 11.596L606.27 11.6123L606.26 11.629L607.126 12.13ZM606.125 64V65H607.125V64H606.125ZM595.933 64H594.933V65H595.933V64ZM597.935 7.216L598.8 7.71704L597.935 7.216ZM603.668 2.12L603.274 1.20082L603.266 1.20436L603.668 2.12ZM586.56 20.228H619.411V18.228H586.56V20.228ZM618.411 19.228V27.418H620.411V19.228H618.411ZM619.411 26.418H586.56V28.418H619.411V26.418ZM587.56 27.418V19.228H585.56V27.418H587.56ZM612.677 1.482H620.139V-0.518002H612.677V1.482ZM619.139 0.481998V9.21799H621.139V0.481998H619.139ZM620.139 8.21799H614.497V10.218H620.139V8.21799ZM614.532 8.21863C612.745 8.15479 611.134 8.34432 609.721 8.81532L610.354 10.7127C611.489 10.3343 612.851 10.1599 614.461 10.2174L614.532 8.21863ZM609.707 8.82014C608.267 9.32408 607.121 10.2649 606.28 11.596L607.971 12.664C608.586 11.6898 609.381 11.0532 610.368 10.7079L609.707 8.82014ZM606.26 11.629C605.467 12.9989 605.125 14.8392 605.125 17.044H607.125C607.125 15.0021 607.449 13.5665 607.991 12.631L606.26 11.629ZM605.125 17.044V64H607.125V17.044H605.125ZM606.125 63H595.933V65H606.125V63ZM596.933 64V16.134H594.933V64H596.933ZM596.933 16.134C596.933 12.6081 597.58 9.82429 598.8 7.71704L597.069 6.71496C595.62 9.21837 594.933 12.3799 594.933 16.134H596.933ZM598.8 7.71704C600.026 5.59951 601.773 4.04401 604.07 3.03564L603.266 1.20436C600.588 2.37998 598.513 4.22182 597.069 6.71496L598.8 7.71704ZM604.061 3.03914C606.458 2.01194 609.322 1.482 612.677 1.482V-0.518002C609.116 -0.518002 605.973 0.0440617 603.274 1.20086L604.061 3.03914ZM657.599 50.168H656.599V51.168H657.599V50.168ZM657.599 41.341V40.341H656.599V41.341H657.599ZM692.725 41.341H693.725V40.341H692.725V41.341ZM692.725 50.168V51.168H693.725V50.168H692.725ZM643.949 64L643.032 63.5998L642.421 65H643.949V64ZM669.702 5.032V4.032H669.047L668.785 4.63177L669.702 5.032ZM680.804 5.032L681.719 4.6294L681.456 4.032H680.804V5.032ZM706.739 64V65H708.271L707.654 63.5974L706.739 64ZM695.546 64L694.625 64.3903L694.883 65H695.546V64ZM672.978 10.765V9.765H671.467L672.057 11.1553L672.978 10.765ZM677.528 10.765L678.449 11.154L679.035 9.765H677.528V10.765ZM655.051 64V65H655.714L655.972 64.389L655.051 64ZM658.599 50.168V41.341H656.599V50.168H658.599ZM657.599 42.341H692.725V40.341H657.599V42.341ZM691.725 41.341V50.168H693.725V41.341H691.725ZM692.725 49.168H657.599V51.168H692.725V49.168ZM644.865 64.4002L670.618 5.43222L668.785 4.63177L643.032 63.5998L644.865 64.4002ZM669.702 6.032H680.804V4.032H669.702V6.032ZM679.888 5.4346L705.823 64.4026L707.654 63.5974L681.719 4.6294L679.888 5.4346ZM706.739 63H695.546V65H706.739V63ZM696.466 63.6097L673.898 10.3747L672.057 11.1553L694.625 64.3903L696.466 63.6097ZM672.978 11.765H677.528V9.765H672.978V11.765ZM676.606 10.376L654.129 63.611L655.972 64.389L678.449 11.154L676.606 10.376ZM655.051 63H643.949V65H655.051V63ZM780.815 7.398L781.159 6.45898V6.45898L780.815 7.398ZM791.098 13.859L790.367 14.5414L790.375 14.5495L791.098 13.859ZM796.558 23.141L795.603 23.4374L795.606 23.4449L795.608 23.4523L796.558 23.141ZM796.467 45.527L797.414 45.848L796.467 45.527ZM790.643 55.082L789.921 54.3908L789.92 54.3911L790.643 55.082ZM780.36 61.634L780.709 62.5715L780.72 62.567L780.36 61.634ZM736.498 64H735.498V65H736.498V64ZM736.498 5.032V4.032H735.498V5.032H736.498ZM746.872 54.9H745.872V55.9H746.872V54.9ZM775.901 53.171L776.263 54.1034L775.901 53.171ZM782.999 48.53L783.74 49.2015L783.746 49.1959L783.751 49.1901L782.999 48.53ZM786.73 41.887L787.688 42.1744L787.69 42.1679L786.73 41.887ZM786.73 26.781L785.773 27.0684L785.775 27.0751L786.73 26.781ZM782.999 20.32L782.258 20.9915L782.264 20.9974L782.269 21.0032L782.999 20.32ZM775.901 15.77L775.54 16.7024L775.548 16.7056L775.557 16.7087L775.901 15.77ZM746.872 14.041V13.041H745.872V14.041H746.872ZM764.799 6.032C771.094 6.032 776.308 6.81236 780.471 8.33702L781.159 6.45898C776.708 4.82897 771.244 4.032 764.799 4.032V6.032ZM780.471 8.33702C784.665 9.87249 787.948 11.9494 790.367 14.5413L791.829 13.1767C789.153 10.3086 785.581 8.07818 781.159 6.45898L780.471 8.33702ZM790.375 14.5495C792.817 17.1073 794.557 20.0665 795.603 23.4374L797.513 22.8446C796.376 19.1782 794.476 15.9494 791.822 13.1685L790.375 14.5495ZM795.608 23.4523C796.726 26.8657 797.287 30.4609 797.287 34.243H799.287C799.287 30.2598 798.696 26.4536 797.509 22.8297L795.608 23.4523ZM797.287 34.243C797.287 38.0819 796.697 41.7345 795.52 45.206L797.414 45.848C798.664 42.1609 799.287 38.2907 799.287 34.243H797.287ZM795.52 45.206C794.355 48.6439 792.491 51.7033 789.921 54.3908L791.366 55.7732C794.134 52.8794 796.153 49.5687 797.414 45.848L795.52 45.206ZM789.92 54.3911C787.432 56.9951 784.138 59.1053 780.001 60.701L780.72 62.567C785.077 60.8867 788.637 58.6289 791.366 55.7729L789.92 54.3911ZM780.012 60.6966C775.909 62.2208 770.847 63 764.799 63V65C771.006 65 776.319 64.2019 780.709 62.5714L780.012 60.6966ZM764.799 63H736.498V65H764.799V63ZM737.498 64V5.032H735.498V64H737.498ZM736.498 6.032H764.799V4.032H736.498V6.032ZM746.872 55.9H764.708V53.9H746.872V55.9ZM764.708 55.9C769.275 55.9 773.138 55.315 776.263 54.1034L775.54 52.2386C772.719 53.3324 769.121 53.9 764.708 53.9V55.9ZM776.263 54.1034C779.35 52.9065 781.856 51.2805 783.74 49.2015L782.258 47.8585C780.624 49.6622 778.398 51.1302 775.54 52.2386L776.263 54.1034ZM783.751 49.1901C785.6 47.0859 786.917 44.7458 787.688 42.1743L785.773 41.5997C785.088 43.8815 783.918 45.9701 782.248 47.8699L783.751 49.1901ZM787.69 42.1679C788.445 39.5887 788.822 36.9461 788.822 34.243H786.822C786.822 36.7572 786.472 39.2106 785.771 41.6061L787.69 42.1679ZM788.822 34.243C788.822 31.54 788.445 28.9532 787.686 26.4869L785.775 27.0751C786.472 29.3408 786.822 31.7286 786.822 34.243H788.822ZM787.688 26.4937C786.915 23.9168 785.593 21.6282 783.73 19.6368L782.269 21.0032C783.925 22.7731 785.09 24.7919 785.773 27.0683L787.688 26.4937ZM783.74 19.6485C781.852 17.5649 779.339 15.9675 776.246 14.8313L775.557 16.7087C778.409 17.7565 780.628 19.1925 782.258 20.9915L783.74 19.6485ZM776.263 14.8376C773.138 13.626 769.275 13.041 764.708 13.041V15.041C769.121 15.041 772.719 15.6086 775.54 16.7024L776.263 14.8376ZM764.708 13.041H746.872V15.041H764.708V13.041ZM745.872 14.041V54.9H747.872V14.041H745.872ZM846.392 49.076V48.076H845.659L845.438 48.7749L846.392 49.076ZM856.129 49.076L857.116 49.231L857.298 48.076H856.129V49.076ZM852.489 57.357L851.708 56.7323L851.706 56.7348L852.489 57.357ZM844.754 62.999L845.131 63.9251L845.138 63.9221L845.145 63.919L844.754 62.999ZM819.183 62.18L818.752 63.0824L818.763 63.0876L819.183 62.18ZM809.628 53.99L808.791 54.538L809.628 53.99ZM809.537 28.874L810.384 29.4053L809.537 28.874ZM818.819 20.593L818.382 19.6932L818.377 19.6958L818.819 20.593ZM846.119 20.593L845.642 21.472L845.651 21.4768L845.66 21.4814L846.119 20.593ZM854.218 29.147L853.309 29.5652L853.312 29.5707L854.218 29.147ZM856.402 43.434V44.434H857.35L857.4 43.4866L856.402 43.434ZM816.453 43.434V42.434H815.326L815.46 43.5522L816.453 43.434ZM818.91 50.35L818.07 50.8932L818.079 50.9077L818.089 50.9218L818.91 50.35ZM824.552 55.082L824.114 55.981L824.123 55.9856L824.133 55.99L824.552 55.082ZM841.66 54.627L841.161 53.76L841.152 53.7656L841.66 54.627ZM822.186 28.965L822.786 29.765L822.791 29.7607L822.797 29.7563L822.186 28.965ZM816.999 36.7L816.028 36.4575L815.718 37.7H816.999V36.7ZM846.21 36.7V37.7H847.284L847.207 36.6288L846.21 36.7ZM842.115 28.783L841.499 29.5713L841.505 29.576L841.511 29.5807L842.115 28.783ZM846.392 50.076H856.129V48.076H846.392V50.076ZM855.141 48.921C854.682 51.8445 853.539 54.4426 851.708 56.7323L853.269 57.9817C855.32 55.418 856.604 52.4955 857.116 49.231L855.141 48.921ZM851.706 56.7348C849.946 58.9491 847.512 60.7372 844.362 62.079L845.145 63.919C848.547 62.4701 851.27 60.4969 853.271 57.9792L851.706 56.7348ZM844.376 62.0729C841.249 63.347 837.471 64.001 833.015 64.001V66.001C837.659 66.001 841.706 65.3204 845.131 63.9251L844.376 62.0729ZM833.015 64.001C827.981 64.001 823.517 63.0836 819.602 61.2724L818.763 63.0876C822.977 65.0377 827.735 66.001 833.015 66.001V64.001ZM819.614 61.2776C815.702 59.4093 812.662 56.7968 810.464 53.442L808.791 54.538C811.204 58.2205 814.534 61.068 818.752 63.0824L819.614 61.2776ZM810.464 53.442C808.281 50.1101 807.17 46.1213 807.17 41.432H805.17C805.17 46.4493 806.363 50.8326 808.791 54.538L810.464 53.442ZM807.17 41.432C807.17 36.8014 808.252 32.8048 810.384 29.4053L808.689 28.3427C806.332 32.1019 805.17 36.4773 805.17 41.432H807.17ZM810.384 29.4053C812.526 25.9897 815.476 23.353 819.26 21.4902L818.377 19.6958C814.274 21.7157 811.037 24.5996 808.689 28.3427L810.384 29.4053ZM819.255 21.4928C823.101 19.6279 827.558 18.681 832.651 18.681V16.681C827.308 16.681 822.544 17.6755 818.382 19.6932L819.255 21.4928ZM832.651 18.681C837.936 18.681 842.249 19.6318 845.642 21.472L846.595 19.714C842.83 17.6716 838.164 16.681 832.651 16.681V18.681ZM845.66 21.4814C849.096 23.2568 851.64 25.9397 853.309 29.5651L855.126 28.7289C853.276 24.7103 850.421 21.6905 846.578 19.7046L845.66 21.4814ZM853.312 29.5707C854.98 33.1367 855.701 37.7216 855.403 43.3814L857.4 43.4866C857.709 37.6198 856.974 32.68 855.123 28.7233L853.312 29.5707ZM856.402 42.434H816.453V44.434H856.402V42.434ZM815.46 43.5522C815.78 46.2448 816.649 48.6967 818.07 50.8932L819.749 49.8067C818.501 47.8779 817.732 45.7192 817.446 43.3158L815.46 43.5522ZM818.089 50.9218C819.59 53.0746 821.607 54.7597 824.114 55.981L824.99 54.183C822.764 53.099 821.02 51.6294 819.73 49.7782L818.089 50.9218ZM824.133 55.99C826.655 57.154 829.563 57.72 832.833 57.72V55.72C829.793 55.72 827.181 55.194 824.971 54.174L824.133 55.99ZM832.833 57.72C836.481 57.72 839.61 56.9966 842.168 55.4884L841.152 53.7656C838.977 55.0481 836.222 55.72 832.833 55.72V57.72ZM842.158 55.4939C844.765 53.9947 846.53 51.9589 847.345 49.3771L845.438 48.7749C844.797 50.8038 843.407 52.4686 841.161 53.7601L842.158 55.4939ZM832.378 24.871C828.082 24.871 824.455 25.9477 821.574 28.1737L822.797 29.7563C825.255 27.8569 828.423 26.871 832.378 26.871V24.871ZM821.586 28.165C818.738 30.3009 816.874 33.0737 816.028 36.4575L817.969 36.9425C818.7 34.0169 820.295 31.6331 822.786 29.765L821.586 28.165ZM816.999 37.7H846.21V35.7H816.999V37.7ZM847.207 36.6288C846.946 32.9736 845.458 30.0572 842.718 27.9853L841.511 29.5807C843.746 31.2701 844.988 33.6317 845.212 36.7712L847.207 36.6288ZM842.73 27.9947C840.024 25.8829 836.544 24.871 832.378 24.871V26.871C836.219 26.871 839.23 27.8004 841.499 29.5713L842.73 27.9947ZM865.411 18.682V17.682H864.411V18.682H865.411ZM875.512 18.682H876.512V17.682H875.512V18.682ZM875.512 64V65H876.512V64H875.512ZM865.411 64H864.411V65H865.411V64ZM901.811 18.773L901.494 19.7217L901.502 19.7242L901.811 18.773ZM907.544 22.14L906.85 22.8608L906.865 22.8744L906.879 22.8874L907.544 22.14ZM911.275 27.6L910.343 27.9624L910.347 27.9736L910.352 27.9846L911.275 27.6ZM912.64 64V65H913.64V64H912.64ZM902.539 64H901.539V65H902.539V64ZM899.809 29.147L899.09 29.842L899.101 29.8542L899.114 29.866L899.809 29.147ZM883.429 28.328L883.885 29.2179L883.893 29.2134L883.429 28.328ZM877.605 33.151L878.393 33.7666L878.397 33.7608L878.402 33.7549L877.605 33.151ZM874.966 39.612L873.966 39.6305L875.96 39.714L874.966 39.612ZM874.875 34.698L873.884 34.5641L873.873 34.64L873.875 34.7165L874.875 34.698ZM876.877 28.328L877.766 28.786L877.771 28.7752L876.877 28.328ZM880.972 22.868L881.652 23.6008L881.659 23.5944L881.666 23.5878L880.972 22.868ZM886.978 19.046L887.345 19.9762L886.978 19.046ZM938.029 18.773L937.712 19.7217L938.029 18.773ZM943.671 22.14L942.977 22.8608L942.992 22.8744L943.006 22.8874L943.671 22.14ZM947.493 27.6L946.569 27.9846L947.493 27.6ZM948.858 64V65H949.858V64H948.858ZM938.666 64H937.666V65H938.666V64ZM935.936 29.147L935.217 29.842L935.228 29.8542L935.241 29.866L935.936 29.147ZM919.556 28.328L920.012 29.2179L920.02 29.2134L919.556 28.328ZM913.732 33.151L912.934 32.5471L912.932 32.551L913.732 33.151ZM911.184 39.612L910.184 39.6477L912.178 39.714L911.184 39.612ZM911.002 34.516L910.011 34.3784L909.999 34.4647L910.002 34.5517L911.002 34.516ZM913.095 28.237L913.973 28.7159L913.978 28.7049L913.095 28.237ZM917.281 22.777L917.961 23.5098L917.281 22.777ZM923.196 19.046L922.828 18.1158L922.82 18.1193L923.196 19.046ZM865.411 19.682H875.512V17.682H865.411V19.682ZM874.512 18.682V64H876.512V18.682H874.512ZM875.512 63H865.411V65H875.512V63ZM866.411 64V18.682H864.411V64H866.411ZM894.622 18.681C897.137 18.681 899.425 19.0319 901.494 19.7217L902.127 17.8243C899.828 17.0581 897.324 16.681 894.622 16.681V18.681ZM901.502 19.7242C903.614 20.4093 905.391 21.4572 906.85 22.8608L908.237 21.4192C906.542 19.7895 904.496 18.5927 902.119 17.8218L901.502 19.7242ZM906.879 22.8874C908.391 24.2309 909.547 25.9157 910.343 27.9624L912.207 27.2376C911.304 24.9163 909.973 22.9611 908.208 21.3926L906.879 22.8874ZM910.352 27.9846C911.2 30.0198 911.64 32.4617 911.64 35.335H913.64C913.64 32.263 913.17 29.5482 912.198 27.2154L910.352 27.9846ZM911.64 35.335V64H913.64V35.335H911.64ZM912.64 63H902.539V65H912.64V63ZM903.539 64V37.337H901.539V64H903.539ZM903.539 37.337C903.539 33.4909 902.593 30.4481 900.504 28.428L899.114 29.866C900.664 31.3645 901.539 33.7818 901.539 37.337H903.539ZM900.528 28.452C898.502 26.3567 895.393 25.417 891.437 25.417V27.417C895.124 27.417 897.596 28.2973 899.09 29.842L900.528 28.452ZM891.437 25.417C888.373 25.417 885.543 26.0886 882.964 27.4426L883.893 29.2134C886.168 28.0194 888.676 27.417 891.437 27.417V25.417ZM882.972 27.4382C880.481 28.7159 878.42 30.4185 876.807 32.5471L878.402 33.7549C879.822 31.8795 881.644 30.3667 883.885 29.2178L882.972 27.4382ZM876.817 32.5354C875.188 34.6194 874.233 36.9498 873.971 39.51L875.96 39.714C876.183 37.5422 876.987 35.5652 878.393 33.7666L876.817 32.5354ZM875.965 39.5935L875.874 34.6795L873.875 34.7165L873.966 39.6305L875.965 39.5935ZM875.866 34.8319C876.154 32.6996 876.787 30.686 877.766 28.786L875.988 27.87C874.904 29.974 874.202 32.207 873.884 34.5641L875.866 34.8319ZM877.771 28.7752C878.748 26.8204 880.041 25.097 881.652 23.6008L880.291 22.1352C878.505 23.7937 877.067 25.7103 875.982 27.8808L877.771 28.7752ZM881.666 23.5878C883.266 22.0452 885.155 20.8406 887.345 19.9762L886.61 18.1158C884.19 19.0714 882.075 20.4148 880.277 22.1482L881.666 23.5878ZM887.345 19.9762C889.519 19.1178 891.941 18.681 894.622 18.681V16.681C891.721 16.681 889.046 17.1542 886.61 18.1158L887.345 19.9762ZM930.749 18.681C933.327 18.681 935.645 19.0326 937.712 19.7217L938.345 17.8243C936.044 17.0574 933.509 16.681 930.749 16.681V18.681ZM937.712 19.7217C939.763 20.4052 941.513 21.4525 942.977 22.8608L944.364 21.4192C942.674 19.7941 940.662 18.5968 938.345 17.8243L937.712 19.7217ZM943.006 22.8874C944.523 24.2357 945.713 25.9282 946.569 27.9846L948.416 27.2154C947.452 24.9038 946.094 22.9563 944.335 21.3926L943.006 22.8874ZM946.569 27.9846C947.417 30.0198 947.858 32.4617 947.858 35.335H949.858C949.858 32.263 949.388 29.5482 948.416 27.2154L946.569 27.9846ZM947.858 35.335V64H949.858V35.335H947.858ZM948.858 63H938.666V65H948.858V63ZM939.666 64V37.337H937.666V64H939.666ZM939.666 37.337C939.666 33.4909 938.72 30.4481 936.631 28.428L935.241 29.866C936.791 31.3645 937.666 33.7818 937.666 37.337H939.666ZM936.655 28.452C934.629 26.3567 931.52 25.417 927.564 25.417V27.417C931.251 27.417 933.723 28.2973 935.217 29.842L936.655 28.452ZM927.564 25.417C924.5 25.417 921.67 26.0886 919.091 27.4426L920.02 29.2134C922.295 28.0194 924.803 27.417 927.564 27.417V25.417ZM919.099 27.4382C916.608 28.7159 914.547 30.4185 912.934 32.5471L914.529 33.7549C915.949 31.8795 917.771 30.3667 920.012 29.2178L919.099 27.4382ZM912.932 32.551C911.369 34.6345 910.45 36.9596 910.189 39.51L912.178 39.714C912.402 37.5324 913.182 35.5502 914.532 33.751L912.932 32.551ZM912.183 39.5763L912.001 34.4803L910.002 34.5517L910.184 39.6477L912.183 39.5763ZM911.992 34.6536C912.278 32.5933 912.936 30.6155 913.972 28.7159L912.217 27.7581C911.069 29.8625 910.332 32.0707 910.011 34.3784L911.992 34.6536ZM913.978 28.7049C915.018 26.7406 916.345 25.0103 917.961 23.5098L916.6 22.0442C914.819 23.6983 913.355 25.6081 912.211 27.7691L913.978 28.7049ZM917.961 23.5098C919.567 22.0187 921.434 20.8392 923.571 19.9727L922.82 18.1193C920.468 19.0728 918.392 20.3806 916.6 22.0442L917.961 23.5098ZM923.563 19.9762C925.74 19.1168 928.131 18.681 930.749 18.681V16.681C927.906 16.681 925.262 17.1552 922.828 18.1158L923.563 19.9762ZM970.521 62.271L970.107 63.1814L970.521 62.271ZM961.057 54.263L961.894 53.715L961.057 54.263ZM961.057 28.692L961.894 29.24L961.898 29.2335L961.057 28.692ZM970.521 20.502L970.096 19.5969L970.521 20.502ZM997.548 20.502L997.979 19.5994L997.548 20.502ZM1006.83 28.692L1005.98 29.2233L1005.99 29.2317L1005.99 29.24L1006.83 28.692ZM1006.83 54.263L1005.99 53.7149L1005.99 53.7252L1006.83 54.263ZM997.548 62.271L997.129 61.363L997.548 62.271ZM997.821 49.804L996.976 49.27L996.971 49.2781L996.966 49.2862L997.821 49.804ZM997.821 33.06L996.966 33.5778L996.971 33.5859L996.976 33.594L997.821 33.06ZM992.088 27.782L991.614 28.6625L991.628 28.6697L991.641 28.6764L992.088 27.782ZM975.981 27.691L975.534 26.7966L975.981 27.691ZM970.066 32.969L969.231 32.4194L969.226 32.4271L969.221 32.435L970.066 32.969ZM970.066 49.804L969.221 50.338L970.066 49.804ZM975.89 54.991L975.461 55.8943L975.47 55.8983L975.89 54.991ZM984.08 64.001C979.167 64.001 974.792 63.1136 970.935 61.3606L970.107 63.1814C974.259 65.0684 978.923 66.001 984.08 66.001V64.001ZM970.935 61.3606C967.095 59.6152 964.09 57.0679 961.894 53.715L960.221 54.811C962.635 58.4955 965.939 61.2868 970.107 63.1814L970.935 61.3606ZM961.894 53.715C959.715 50.3889 958.599 46.3115 958.599 41.432H956.599C956.599 46.6231 957.789 51.0998 960.221 54.811L961.894 53.715ZM958.599 41.432C958.599 36.6159 959.713 32.568 961.894 29.24L960.221 28.144C957.791 31.8533 956.599 36.2988 956.599 41.432H958.599ZM961.898 29.2335C964.098 25.8183 967.105 23.2113 970.946 21.4071L970.096 19.5969C965.929 21.5541 962.628 24.407 960.217 28.1505L961.898 29.2335ZM970.946 21.4071C974.8 19.597 979.172 18.681 984.08 18.681V16.681C978.918 16.681 974.25 17.6456 970.096 19.5969L970.946 21.4071ZM984.08 18.681C988.989 18.681 993.328 19.5972 997.118 21.4046L997.979 19.5994C993.882 17.6455 989.242 16.681 984.08 16.681V18.681ZM997.118 21.4046C1000.9 23.2065 1003.84 25.8104 1005.98 29.2233L1007.68 28.1607C1005.33 24.4149 1002.09 21.5588 997.979 19.5994L997.118 21.4046ZM1005.99 29.24C1008.17 32.568 1009.29 36.6159 1009.29 41.432H1011.29C1011.29 36.2988 1010.1 31.8533 1007.67 28.144L1005.99 29.24ZM1009.29 41.432C1009.29 46.3115 1008.17 50.3889 1005.99 53.715L1007.67 54.811C1010.1 51.0998 1011.29 46.6231 1011.29 41.432H1009.29ZM1005.99 53.7252C1003.85 57.0757 1000.91 59.6199 997.129 61.363L997.967 63.179C1002.08 61.2822 1005.32 58.4877 1007.67 54.8008L1005.99 53.7252ZM997.129 61.363C993.337 63.1135 988.994 64.001 984.08 64.001V66.001C989.237 66.001 993.873 65.0685 997.967 63.179L997.129 61.363ZM984.08 57.72C987.128 57.72 989.946 57.1158 992.517 55.8943L991.659 54.0877C989.378 55.1715 986.857 55.72 984.08 55.72V57.72ZM992.517 55.8943C995.121 54.6573 997.18 52.7941 998.677 50.3218L996.966 49.2862C995.671 51.4246 993.908 53.0193 991.659 54.0877L992.517 55.8943ZM998.667 50.338C1000.24 47.8432 1001.01 44.8586 1001.01 41.432H999.005C999.005 44.5574 998.312 47.1541 996.976 49.27L998.667 50.338ZM1001.01 41.432C1001.01 38.0054 1000.24 35.0208 998.667 32.526L996.976 33.594C998.312 35.7099 999.005 38.3066 999.005 41.432H1001.01ZM998.677 32.5422C997.183 30.0741 995.13 28.1848 992.535 26.8876L991.641 28.6764C993.9 29.8059 995.669 31.4352 996.966 33.5778L998.677 32.5422ZM992.562 26.9015C990.036 25.541 987.201 24.871 984.08 24.871V26.871C986.905 26.871 989.409 27.475 991.614 28.6625L992.562 26.9015ZM984.08 24.871C980.967 24.871 978.112 25.5074 975.534 26.7966L976.428 28.5854C978.703 27.448 981.248 26.871 984.08 26.871V24.871ZM975.534 26.7966C972.947 28.0901 970.843 29.9696 969.231 32.4194L970.902 33.5186C972.323 31.3578 974.162 29.7186 976.428 28.5854L975.534 26.7966ZM969.221 32.435C967.643 34.9326 966.882 37.9487 966.882 41.432H968.882C968.882 38.2419 969.577 35.6161 970.912 33.503L969.221 32.435ZM966.882 41.432C966.882 44.8586 967.645 47.8432 969.221 50.338L970.912 49.27C969.575 47.1541 968.882 44.5574 968.882 41.432H966.882ZM969.221 50.338C970.776 52.8008 972.861 54.6591 975.461 55.8943L976.319 54.0877C974.066 53.0175 972.268 51.4178 970.912 49.27L969.221 50.338ZM975.47 55.8983C978.1 57.1171 980.975 57.72 984.08 57.72V55.72C981.24 55.72 978.655 55.1703 976.311 54.0837L975.47 55.8983Z" fill="black" mask="url(#path-1-outside-1_302_2537)"/>
</g>
<defs>
<filter id="filter0_d_302_2537" x="0.411133" y="0.482056" width="1011.38" height="66.0189" filterUnits="userSpaceOnUse" color-interpolation-filters="sRGB">
<feFlood flood-opacity="0" result="BackgroundImageFix"/>
<feColorMatrix in="SourceAlpha" type="matrix" values="0 0 0 0 0 0 0 0 0 0 0 0 0 0 0 0 0 0 127 0" result="hardAlpha"/>
<feOffset dx="1" dy="1"/>
<feGaussianBlur stdDeviation="0.25"/>
<feComposite in2="hardAlpha" operator="out"/>
<feColorMatrix type="matrix" values="0 0 0 0 1 0 0 0 0 1 0 0 0 0 1 0 0 0 1 0"/>
<feBlend mode="normal" in2="BackgroundImageFix" result="effect1_dropShadow_302_2537"/>
<feBlend mode="normal" in="SourceGraphic" in2="effect1_dropShadow_302_2537" result="shape"/>
</filter>
</defs>
</svg>
