<svg width="573" height="67" viewBox="0 0 573 67" fill="none" xmlns="http://www.w3.org/2000/svg">
<g filter="url(#filter0_d_291_1899)">
<mask id="path-1-outside-1_291_1899" maskUnits="userSpaceOnUse" x="-1" y="-1" width="574" height="68" fill="black">
<rect fill="white" x="-1" y="-1" width="574" height="68"/>
<path d="M33.0804 65.092C28.0451 65.092 23.4951 64.4247 19.4304 63.09C15.3658 61.7553 11.8774 59.814 8.96543 57.266C6.1141 54.6573 3.89976 51.4723 2.32243 47.711C0.805763 43.9497 0.0474298 39.703 0.0474298 34.971C0.0474298 30.1783 0.86643 25.871 2.50443 22.049C4.14243 18.227 6.4781 14.9813 9.51143 12.312C12.5448 9.582 16.1544 7.51933 20.3404 6.124C24.5264 4.668 29.1371 3.94 34.1724 3.94C40.0571 3.94 45.1531 4.85 49.4604 6.67C53.7678 8.49 57.1954 11.038 59.7434 14.314C62.2914 17.5293 63.7474 21.3513 64.1114 25.78H54.5564C53.7678 23.1713 52.4634 20.9267 50.6434 19.046C48.8841 17.1653 46.6091 15.7093 43.8184 14.678C41.0884 13.586 37.8731 13.04 34.1724 13.04C29.3191 13.04 25.1028 13.9803 21.5234 15.861C18.0048 17.681 15.3051 20.2593 13.4244 23.596C11.5438 26.872 10.6034 30.6637 10.6034 34.971C10.6034 39.2783 11.4224 43.0093 13.0604 46.164C14.7591 49.258 17.3071 51.6847 20.7044 53.444C24.1018 55.1427 28.3181 55.992 33.3534 55.992C37.2361 55.992 40.6334 55.4157 43.5454 54.263C46.5181 53.0497 48.9751 51.3813 50.9164 49.258C52.8578 47.1347 54.2228 44.6777 55.0114 41.887L59.6524 40.795C58.8031 48.621 56.0124 54.627 51.2804 58.813C46.6091 62.999 40.5424 65.092 33.0804 65.092ZM57.1954 64C57.1954 62.0587 57.2864 59.8747 57.4684 57.448C57.6504 54.9607 57.8628 52.443 58.1054 49.895C58.4088 47.2863 58.6818 44.9507 58.9244 42.888H34.5364V35.426H66.3864V64H57.1954ZM115.506 49.076H125.243C124.757 52.17 123.544 54.9303 121.603 57.357C119.722 59.723 117.144 61.6037 113.868 62.999C110.592 64.3337 106.679 65.001 102.129 65.001C96.9721 65.001 92.3615 64.0607 88.2968 62.18C84.2321 60.2387 81.0471 57.5087 78.7418 53.99C76.4365 50.4713 75.2838 46.2853 75.2838 41.432C75.2838 36.6393 76.4061 32.4533 78.6508 28.874C80.8955 25.2947 83.9895 22.5343 87.9328 20.593C91.9368 18.6517 96.5475 17.681 101.765 17.681C107.164 17.681 111.653 18.6517 115.233 20.593C118.873 22.4737 121.572 25.325 123.332 29.147C125.091 32.9083 125.819 37.6707 125.516 43.434H85.5668C85.8701 45.982 86.6891 48.2873 88.0238 50.35C89.4191 52.352 91.2998 53.9293 93.6658 55.082C96.0318 56.174 98.7921 56.72 101.947 56.72C105.465 56.72 108.408 56.0223 110.774 54.627C113.2 53.2317 114.778 51.3813 115.506 49.076ZM101.492 25.871C97.3665 25.871 93.9691 26.9023 91.2998 28.965C88.6305 30.967 86.9015 33.5453 86.1128 36.7H115.324C115.081 33.3027 113.716 30.6637 111.229 28.783C108.741 26.8417 105.496 25.871 101.492 25.871ZM130.629 18.682H162.661V26.963H130.629V18.682ZM141.549 6.488H151.741V64H141.549V6.488ZM194.763 5.032H205.137V64H194.763V5.032ZM219.571 18.682H229.672V64H219.571V18.682ZM248.782 17.681C251.39 17.681 253.787 18.045 255.971 18.773C258.215 19.501 260.126 20.6233 261.704 22.14C263.342 23.596 264.585 25.416 265.435 27.6C266.345 29.784 266.8 32.3623 266.8 35.335V64H256.699V37.337C256.699 33.6363 255.789 30.9063 253.969 29.147C252.209 27.327 249.419 26.417 245.597 26.417C242.685 26.417 240.015 27.054 237.589 28.328C235.223 29.5413 233.281 31.149 231.765 33.151C230.248 35.0923 229.368 37.246 229.126 39.612L229.035 34.698C229.338 32.4533 230.005 30.33 231.037 28.328C232.068 26.2653 233.433 24.4453 235.132 22.868C236.83 21.23 238.832 19.956 241.138 19.046C243.443 18.136 245.991 17.681 248.782 17.681ZM291.282 5.032H347.884V13.95H291.282V5.032ZM314.487 12.858H324.77V64H314.487V12.858ZM371.654 65.001C366.619 65.001 362.099 64.091 358.095 62.271C354.091 60.451 350.937 57.7817 348.631 54.263C346.326 50.7443 345.173 46.4673 345.173 41.432C345.173 36.4573 346.326 32.2107 348.631 28.692C350.937 25.1127 354.091 22.3827 358.095 20.502C362.099 18.6213 366.619 17.681 371.654 17.681C376.69 17.681 381.179 18.6213 385.122 20.502C389.066 22.3827 392.16 25.1127 394.404 28.692C396.71 32.2107 397.862 36.4573 397.862 41.432C397.862 46.4673 396.71 50.7443 394.404 54.263C392.16 57.7817 389.066 60.451 385.122 62.271C381.179 64.091 376.69 65.001 371.654 65.001ZM371.654 56.72C374.566 56.72 377.236 56.1437 379.662 54.991C382.089 53.8383 384 52.1093 385.395 49.804C386.851 47.4987 387.579 44.708 387.579 41.432C387.579 38.156 386.851 35.3653 385.395 33.06C384 30.7547 382.089 28.9953 379.662 27.782C377.296 26.508 374.627 25.871 371.654 25.871C368.682 25.871 365.982 26.4777 363.555 27.691C361.129 28.9043 359.157 30.6637 357.64 32.969C356.184 35.2743 355.456 38.0953 355.456 41.432C355.456 44.708 356.184 47.4987 357.64 49.804C359.096 52.1093 361.038 53.8383 363.464 54.991C365.952 56.1437 368.682 56.72 371.654 56.72ZM454.132 64H444.031V18.682H454.132V64ZM444.577 42.433L444.668 45.345C444.546 46.1337 444.273 47.3167 443.849 48.894C443.485 50.4713 442.848 52.2003 441.938 54.081C441.088 55.901 439.936 57.6603 438.48 59.359C437.084 60.997 435.325 62.362 433.202 63.454C431.078 64.4853 428.5 65.001 425.467 65.001C423.283 65.001 421.068 64.6977 418.824 64.091C416.64 63.545 414.638 62.6047 412.818 61.27C411.058 59.9353 409.633 58.1153 408.541 55.81C407.449 53.5047 406.903 50.5927 406.903 47.074V18.682H417.004V45.163C417.004 48.0143 417.459 50.259 418.369 51.897C419.339 53.4743 420.674 54.5967 422.373 55.264C424.071 55.9313 426.043 56.265 428.288 56.265C431.503 56.265 434.233 55.537 436.478 54.081C438.722 52.625 440.512 50.8353 441.847 48.712C443.242 46.528 444.152 44.435 444.577 42.433ZM514.064 46.437C513.7 50.3197 512.457 53.6563 510.333 56.447C508.21 59.2377 505.359 61.361 501.779 62.817C498.261 64.273 494.196 65.001 489.585 65.001C484.611 65.001 480.091 64.091 476.026 62.271C472.022 60.451 468.837 57.7817 466.471 54.263C464.105 50.7443 462.922 46.4673 462.922 41.432C462.922 36.3967 464.105 32.1197 466.471 28.601C468.837 25.0823 472.022 22.3827 476.026 20.502C480.091 18.6213 484.611 17.681 489.585 17.681C494.196 17.681 498.261 18.4393 501.779 19.956C505.298 21.412 508.119 23.505 510.242 26.235C512.366 28.965 513.609 32.2713 513.973 36.154H504.691C503.66 32.9387 501.779 30.4513 499.049 28.692C496.38 26.872 493.225 25.962 489.585 25.962C486.613 25.962 483.883 26.5687 481.395 27.782C478.908 28.9347 476.906 30.6637 475.389 32.969C473.933 35.2137 473.205 38.0347 473.205 41.432C473.205 44.7687 473.933 47.5897 475.389 49.895C476.906 52.2003 478.908 53.9293 481.395 55.082C483.883 56.174 486.613 56.72 489.585 56.72C493.589 56.72 496.865 55.8403 499.413 54.081C502.022 52.261 503.812 49.713 504.782 46.437H514.064ZM561.001 64V37.792C561.001 35.3653 560.577 33.3633 559.727 31.786C558.939 30.148 557.695 28.9043 555.996 28.055C554.298 27.2057 552.053 26.781 549.262 26.781C546.472 26.781 543.924 27.3877 541.618 28.601C539.313 29.7537 537.432 31.3007 535.976 33.242C534.52 35.1833 533.671 37.337 533.428 39.703L533.337 34.607C533.641 32.423 534.308 30.33 535.339 28.328C536.371 26.2653 537.736 24.4453 539.434 22.868C541.133 21.2907 543.135 20.047 545.44 19.137C547.746 18.1663 550.294 17.681 553.084 17.681C555.693 17.681 558.089 18.045 560.273 18.773C562.518 19.501 564.429 20.593 566.006 22.049C567.644 23.4443 568.888 25.2037 569.737 27.327C570.647 29.3897 571.102 31.786 571.102 34.516V64H561.001ZM523.873 64V0.481999H533.974V64H523.873Z"/>
</mask>
<path d="M33.0804 65.092C28.0451 65.092 23.4951 64.4247 19.4304 63.09C15.3658 61.7553 11.8774 59.814 8.96543 57.266C6.1141 54.6573 3.89976 51.4723 2.32243 47.711C0.805763 43.9497 0.0474298 39.703 0.0474298 34.971C0.0474298 30.1783 0.86643 25.871 2.50443 22.049C4.14243 18.227 6.4781 14.9813 9.51143 12.312C12.5448 9.582 16.1544 7.51933 20.3404 6.124C24.5264 4.668 29.1371 3.94 34.1724 3.94C40.0571 3.94 45.1531 4.85 49.4604 6.67C53.7678 8.49 57.1954 11.038 59.7434 14.314C62.2914 17.5293 63.7474 21.3513 64.1114 25.78H54.5564C53.7678 23.1713 52.4634 20.9267 50.6434 19.046C48.8841 17.1653 46.6091 15.7093 43.8184 14.678C41.0884 13.586 37.8731 13.04 34.1724 13.04C29.3191 13.04 25.1028 13.9803 21.5234 15.861C18.0048 17.681 15.3051 20.2593 13.4244 23.596C11.5438 26.872 10.6034 30.6637 10.6034 34.971C10.6034 39.2783 11.4224 43.0093 13.0604 46.164C14.7591 49.258 17.3071 51.6847 20.7044 53.444C24.1018 55.1427 28.3181 55.992 33.3534 55.992C37.2361 55.992 40.6334 55.4157 43.5454 54.263C46.5181 53.0497 48.9751 51.3813 50.9164 49.258C52.8578 47.1347 54.2228 44.6777 55.0114 41.887L59.6524 40.795C58.8031 48.621 56.0124 54.627 51.2804 58.813C46.6091 62.999 40.5424 65.092 33.0804 65.092ZM57.1954 64C57.1954 62.0587 57.2864 59.8747 57.4684 57.448C57.6504 54.9607 57.8628 52.443 58.1054 49.895C58.4088 47.2863 58.6818 44.9507 58.9244 42.888H34.5364V35.426H66.3864V64H57.1954ZM115.506 49.076H125.243C124.757 52.17 123.544 54.9303 121.603 57.357C119.722 59.723 117.144 61.6037 113.868 62.999C110.592 64.3337 106.679 65.001 102.129 65.001C96.9721 65.001 92.3615 64.0607 88.2968 62.18C84.2321 60.2387 81.0471 57.5087 78.7418 53.99C76.4365 50.4713 75.2838 46.2853 75.2838 41.432C75.2838 36.6393 76.4061 32.4533 78.6508 28.874C80.8955 25.2947 83.9895 22.5343 87.9328 20.593C91.9368 18.6517 96.5475 17.681 101.765 17.681C107.164 17.681 111.653 18.6517 115.233 20.593C118.873 22.4737 121.572 25.325 123.332 29.147C125.091 32.9083 125.819 37.6707 125.516 43.434H85.5668C85.8701 45.982 86.6891 48.2873 88.0238 50.35C89.4191 52.352 91.2998 53.9293 93.6658 55.082C96.0318 56.174 98.7921 56.72 101.947 56.72C105.465 56.72 108.408 56.0223 110.774 54.627C113.2 53.2317 114.778 51.3813 115.506 49.076ZM101.492 25.871C97.3665 25.871 93.9691 26.9023 91.2998 28.965C88.6305 30.967 86.9015 33.5453 86.1128 36.7H115.324C115.081 33.3027 113.716 30.6637 111.229 28.783C108.741 26.8417 105.496 25.871 101.492 25.871ZM130.629 18.682H162.661V26.963H130.629V18.682ZM141.549 6.488H151.741V64H141.549V6.488ZM194.763 5.032H205.137V64H194.763V5.032ZM219.571 18.682H229.672V64H219.571V18.682ZM248.782 17.681C251.39 17.681 253.787 18.045 255.971 18.773C258.215 19.501 260.126 20.6233 261.704 22.14C263.342 23.596 264.585 25.416 265.435 27.6C266.345 29.784 266.8 32.3623 266.8 35.335V64H256.699V37.337C256.699 33.6363 255.789 30.9063 253.969 29.147C252.209 27.327 249.419 26.417 245.597 26.417C242.685 26.417 240.015 27.054 237.589 28.328C235.223 29.5413 233.281 31.149 231.765 33.151C230.248 35.0923 229.368 37.246 229.126 39.612L229.035 34.698C229.338 32.4533 230.005 30.33 231.037 28.328C232.068 26.2653 233.433 24.4453 235.132 22.868C236.83 21.23 238.832 19.956 241.138 19.046C243.443 18.136 245.991 17.681 248.782 17.681ZM291.282 5.032H347.884V13.95H291.282V5.032ZM314.487 12.858H324.77V64H314.487V12.858ZM371.654 65.001C366.619 65.001 362.099 64.091 358.095 62.271C354.091 60.451 350.937 57.7817 348.631 54.263C346.326 50.7443 345.173 46.4673 345.173 41.432C345.173 36.4573 346.326 32.2107 348.631 28.692C350.937 25.1127 354.091 22.3827 358.095 20.502C362.099 18.6213 366.619 17.681 371.654 17.681C376.69 17.681 381.179 18.6213 385.122 20.502C389.066 22.3827 392.16 25.1127 394.404 28.692C396.71 32.2107 397.862 36.4573 397.862 41.432C397.862 46.4673 396.71 50.7443 394.404 54.263C392.16 57.7817 389.066 60.451 385.122 62.271C381.179 64.091 376.69 65.001 371.654 65.001ZM371.654 56.72C374.566 56.72 377.236 56.1437 379.662 54.991C382.089 53.8383 384 52.1093 385.395 49.804C386.851 47.4987 387.579 44.708 387.579 41.432C387.579 38.156 386.851 35.3653 385.395 33.06C384 30.7547 382.089 28.9953 379.662 27.782C377.296 26.508 374.627 25.871 371.654 25.871C368.682 25.871 365.982 26.4777 363.555 27.691C361.129 28.9043 359.157 30.6637 357.64 32.969C356.184 35.2743 355.456 38.0953 355.456 41.432C355.456 44.708 356.184 47.4987 357.64 49.804C359.096 52.1093 361.038 53.8383 363.464 54.991C365.952 56.1437 368.682 56.72 371.654 56.72ZM454.132 64H444.031V18.682H454.132V64ZM444.577 42.433L444.668 45.345C444.546 46.1337 444.273 47.3167 443.849 48.894C443.485 50.4713 442.848 52.2003 441.938 54.081C441.088 55.901 439.936 57.6603 438.48 59.359C437.084 60.997 435.325 62.362 433.202 63.454C431.078 64.4853 428.5 65.001 425.467 65.001C423.283 65.001 421.068 64.6977 418.824 64.091C416.64 63.545 414.638 62.6047 412.818 61.27C411.058 59.9353 409.633 58.1153 408.541 55.81C407.449 53.5047 406.903 50.5927 406.903 47.074V18.682H417.004V45.163C417.004 48.0143 417.459 50.259 418.369 51.897C419.339 53.4743 420.674 54.5967 422.373 55.264C424.071 55.9313 426.043 56.265 428.288 56.265C431.503 56.265 434.233 55.537 436.478 54.081C438.722 52.625 440.512 50.8353 441.847 48.712C443.242 46.528 444.152 44.435 444.577 42.433ZM514.064 46.437C513.7 50.3197 512.457 53.6563 510.333 56.447C508.21 59.2377 505.359 61.361 501.779 62.817C498.261 64.273 494.196 65.001 489.585 65.001C484.611 65.001 480.091 64.091 476.026 62.271C472.022 60.451 468.837 57.7817 466.471 54.263C464.105 50.7443 462.922 46.4673 462.922 41.432C462.922 36.3967 464.105 32.1197 466.471 28.601C468.837 25.0823 472.022 22.3827 476.026 20.502C480.091 18.6213 484.611 17.681 489.585 17.681C494.196 17.681 498.261 18.4393 501.779 19.956C505.298 21.412 508.119 23.505 510.242 26.235C512.366 28.965 513.609 32.2713 513.973 36.154H504.691C503.66 32.9387 501.779 30.4513 499.049 28.692C496.38 26.872 493.225 25.962 489.585 25.962C486.613 25.962 483.883 26.5687 481.395 27.782C478.908 28.9347 476.906 30.6637 475.389 32.969C473.933 35.2137 473.205 38.0347 473.205 41.432C473.205 44.7687 473.933 47.5897 475.389 49.895C476.906 52.2003 478.908 53.9293 481.395 55.082C483.883 56.174 486.613 56.72 489.585 56.72C493.589 56.72 496.865 55.8403 499.413 54.081C502.022 52.261 503.812 49.713 504.782 46.437H514.064ZM561.001 64V37.792C561.001 35.3653 560.577 33.3633 559.727 31.786C558.939 30.148 557.695 28.9043 555.996 28.055C554.298 27.2057 552.053 26.781 549.262 26.781C546.472 26.781 543.924 27.3877 541.618 28.601C539.313 29.7537 537.432 31.3007 535.976 33.242C534.52 35.1833 533.671 37.337 533.428 39.703L533.337 34.607C533.641 32.423 534.308 30.33 535.339 28.328C536.371 26.2653 537.736 24.4453 539.434 22.868C541.133 21.2907 543.135 20.047 545.44 19.137C547.746 18.1663 550.294 17.681 553.084 17.681C555.693 17.681 558.089 18.045 560.273 18.773C562.518 19.501 564.429 20.593 566.006 22.049C567.644 23.4443 568.888 25.2037 569.737 27.327C570.647 29.3897 571.102 31.786 571.102 34.516V64H561.001ZM523.873 64V0.481999H533.974V64H523.873Z" fill="white"/>
<path d="M8.96543 57.266L8.29042 58.0038L8.29859 58.0113L8.30693 58.0186L8.96543 57.266ZM2.32243 47.711L1.3949 48.085L1.40024 48.0977L2.32243 47.711ZM2.50443 22.049L3.42358 22.4429L2.50443 22.049ZM9.51143 12.312L10.1721 13.0628L10.1804 13.0553L9.51143 12.312ZM20.3404 6.124L20.6567 7.07276L20.669 7.06849L20.3404 6.124ZM49.4604 6.66999L49.8497 5.74885L49.8496 5.74885L49.4604 6.66999ZM59.7434 14.314L58.954 14.928L58.9597 14.9351L59.7434 14.314ZM64.1114 25.78V26.78H65.197L65.1081 25.6981L64.1114 25.78ZM54.5564 25.78L53.5992 26.0694L53.8141 26.78H54.5564V25.78ZM50.6434 19.046L49.9132 19.7292L49.9189 19.7353L49.9248 19.7414L50.6434 19.046ZM43.8184 14.678L43.447 15.6065L43.4594 15.6114L43.4718 15.616L43.8184 14.678ZM21.5234 15.861L21.9829 16.7492L21.9886 16.7462L21.5234 15.861ZM13.4244 23.596L14.2917 24.0939L14.2956 24.087L13.4244 23.596ZM13.0604 46.164L12.1729 46.6248L12.1783 46.6351L12.1839 46.6453L13.0604 46.164ZM20.7044 53.444L20.2446 54.332L20.2509 54.3353L20.2572 54.3384L20.7044 53.444ZM43.5454 54.263L43.9135 55.1929L43.9233 55.1889L43.5454 54.263ZM50.9164 49.258L50.1784 48.5832L50.9164 49.258ZM55.0114 41.887L54.7824 40.9136L54.2092 41.0484L54.0491 41.615L55.0114 41.887ZM59.6524 40.795L60.6466 40.9029L60.7991 39.4979L59.4234 39.8216L59.6524 40.795ZM51.2804 58.813L50.6178 58.064L50.6131 58.0683L51.2804 58.813ZM57.1954 64H56.1954V65H57.1954V64ZM57.4684 57.448L58.4656 57.5228L58.4658 57.521L57.4684 57.448ZM58.1054 49.895L57.1121 49.7795L57.1109 49.7898L57.1099 49.8002L58.1054 49.895ZM58.9244 42.888L59.9176 43.0048L60.049 41.888H58.9244V42.888ZM34.5364 42.888H33.5364V43.888H34.5364V42.888ZM34.5364 35.426V34.426H33.5364V35.426H34.5364ZM66.3864 35.426H67.3864V34.426H66.3864V35.426ZM66.3864 64V65H67.3864V64H66.3864ZM33.0804 64.092C28.1328 64.092 23.6904 63.4363 19.7424 62.1399L19.1185 64.0401C23.2998 65.4131 27.9574 66.092 33.0804 66.092V64.092ZM19.7424 62.1399C15.7918 60.8427 12.4247 58.9641 9.62393 56.5134L8.30693 58.0186C11.3302 60.6639 14.9397 62.668 19.1185 64.0401L19.7424 62.1399ZM9.64044 56.5282C6.90184 54.0227 4.76913 50.9596 3.24463 47.3243L1.40024 48.0977C3.0304 51.985 5.32636 55.292 8.29042 58.0038L9.64044 56.5282ZM3.24987 47.337C1.78842 43.7126 1.04743 39.5959 1.04743 34.971H-0.95257C-0.95257 39.8101 -0.176897 44.1867 1.39499 48.085L3.24987 47.337ZM1.04743 34.971C1.04743 30.2933 1.84645 26.1229 3.42358 22.4429L1.58529 21.6551C-0.113586 25.6191 -0.95257 30.0634 -0.95257 34.971H1.04743ZM3.42358 22.4429C5.00476 18.7535 7.25365 15.6309 10.1721 13.0627L8.8508 11.5613C5.70254 14.3318 3.2801 17.7005 1.58529 21.6551L3.42358 22.4429ZM10.1804 13.0553C13.1034 10.4245 16.5904 8.4281 20.6567 7.07268L20.0242 5.17531C15.7185 6.61056 11.9861 8.73945 8.84247 11.5687L10.1804 13.0553ZM20.669 7.06849C24.736 5.65387 29.2339 4.94 34.1724 4.94V2.94C29.0403 2.94 24.3169 3.68213 20.0119 5.1795L20.669 7.06849ZM34.1724 4.94C39.9567 4.94 44.9144 5.83475 49.0712 7.59114L49.8496 5.74885C45.3918 3.86524 40.1575 2.94 34.1724 2.94V4.94ZM49.0712 7.59114C53.2414 9.35319 56.5238 11.8032 58.9541 14.9279L60.5328 13.7001C57.8671 10.2728 54.2941 7.6268 49.8497 5.74885L49.0712 7.59114ZM58.9597 14.9351C61.3748 17.9827 62.7656 21.6129 63.1148 25.8619L65.1081 25.6981C64.7293 21.0897 63.2081 17.0759 60.5272 13.6929L58.9597 14.9351ZM64.1114 24.78H54.5564V26.78H64.1114V24.78ZM55.5136 25.4906C54.6809 22.736 53.2974 20.3504 51.362 18.3506L49.9248 19.7414C51.6295 21.5029 52.8547 23.6066 53.5992 26.0694L55.5136 25.4906ZM51.3737 18.3628C49.4927 16.3521 47.079 14.8169 44.1651 13.74L43.4718 15.616C46.1392 16.6018 48.2755 17.9786 49.9132 19.7292L51.3737 18.3628ZM44.1898 13.7495C41.3155 12.5998 37.9687 12.04 34.1724 12.04V14.04C37.7775 14.04 40.8614 14.5722 43.447 15.6065L44.1898 13.7495ZM34.1724 12.04C29.1893 12.04 24.8071 13.006 21.0583 14.9758L21.9886 16.7462C25.3984 14.9546 29.4489 14.04 34.1724 14.04V12.04ZM21.064 14.9728C17.3786 16.879 14.533 19.5926 12.5533 23.105L14.2956 24.087C16.0772 20.9261 18.6309 18.483 21.9829 16.7492L21.064 14.9728ZM12.5572 23.0981C10.5779 26.5459 9.60343 30.5139 9.60343 34.971H11.6034C11.6034 30.8135 12.5096 27.1981 14.2917 24.0939L12.5572 23.0981ZM9.60343 34.971C9.60343 39.4051 10.4469 43.3007 12.1729 46.6248L13.9479 45.7032C12.3979 42.718 11.6034 39.1515 11.6034 34.971H9.60343ZM12.1839 46.6453C13.9861 49.9278 16.6865 52.4894 20.2446 54.332L21.1643 52.556C17.9277 50.8799 15.5321 48.5882 13.937 45.6827L12.1839 46.6453ZM20.2572 54.3384C23.8311 56.1253 28.2113 56.992 33.3534 56.992V54.992C28.4249 54.992 24.3725 54.16 21.1516 52.5496L20.2572 54.3384ZM33.3534 56.992C37.3329 56.992 40.8599 56.4015 43.9135 55.1928L43.1774 53.3332C40.4069 54.4298 37.1393 54.992 33.3534 54.992V56.992ZM43.9233 55.1889C47.0171 53.9261 49.6021 52.1775 51.6545 49.9328L50.1784 48.5832C48.3481 50.5851 46.0191 52.1733 43.1675 53.3372L43.9233 55.1889ZM51.6545 49.9328C53.7018 47.6935 55.1431 45.0983 55.9737 42.159L54.0491 41.615C53.3025 44.257 52.0138 46.5758 50.1784 48.5832L51.6545 49.9328ZM55.2405 42.8604L59.8815 41.7684L59.4234 39.8216L54.7824 40.9136L55.2405 42.8604ZM58.6583 40.6871C57.8289 48.3291 55.1205 54.0809 50.6179 58.064L51.943 59.562C56.9044 55.1731 59.7773 48.9129 60.6466 40.9029L58.6583 40.6871ZM50.6131 58.0683C46.1588 62.0597 40.3454 64.092 33.0804 64.092V66.092C40.7394 66.092 47.0594 63.9383 51.9478 59.5577L50.6131 58.0683ZM58.1954 64C58.1954 62.0889 58.2851 59.9305 58.4656 57.5228L56.4712 57.3732C56.2878 59.8188 56.1954 62.0284 56.1954 64H58.1954ZM58.4658 57.521C58.6472 55.0411 58.8589 52.5307 59.1009 49.9898L57.1099 49.8002C56.8666 52.3553 56.6536 54.8802 56.4711 57.375L58.4658 57.521ZM59.0987 50.0105C59.402 47.4022 59.675 45.067 59.9176 43.0048L57.9313 42.7712C57.6886 44.8344 57.4155 47.1705 57.1121 49.7795L59.0987 50.0105ZM58.9244 41.888H34.5364V43.888H58.9244V41.888ZM35.5364 42.888V35.426H33.5364V42.888H35.5364ZM34.5364 36.426H66.3864V34.426H34.5364V36.426ZM65.3864 35.426V64H67.3864V35.426H65.3864ZM66.3864 63H57.1954V65H66.3864V63ZM115.506 49.076V48.076H114.773L114.552 48.7749L115.506 49.076ZM125.243 49.076L126.231 49.231L126.412 48.076H125.243V49.076ZM121.603 57.357L120.822 56.7323L120.82 56.7348L121.603 57.357ZM113.868 62.999L114.245 63.9251L114.252 63.9221L114.26 63.919L113.868 62.999ZM88.2968 62.18L87.8658 63.0824L87.8769 63.0876L88.2968 62.18ZM78.7418 53.99L77.9053 54.538L78.7418 53.99ZM78.6508 28.874L79.498 29.4053L78.6508 28.874ZM87.9328 20.593L87.4965 19.6932L87.4911 19.6958L87.9328 20.593ZM115.233 20.593L114.756 21.472L114.765 21.4768L114.774 21.4814L115.233 20.593ZM123.332 29.147L122.423 29.5652L122.426 29.5707L123.332 29.147ZM125.516 43.434V44.434H126.465L126.514 43.4866L125.516 43.434ZM85.5668 43.434V42.434H84.4407L84.5738 43.5522L85.5668 43.434ZM88.0238 50.35L87.1842 50.8932L87.1936 50.9077L87.2034 50.9218L88.0238 50.35ZM93.6658 55.082L93.2278 55.981L93.2373 55.9856L93.2468 55.99L93.6658 55.082ZM110.774 54.627L110.275 53.76L110.266 53.7656L110.774 54.627ZM91.2998 28.965L91.8998 29.765L91.9056 29.7607L91.9113 29.7563L91.2998 28.965ZM86.1128 36.7L85.1427 36.4575L84.832 37.7H86.1128V36.7ZM115.324 36.7V37.7H116.398L116.321 36.6288L115.324 36.7ZM111.229 28.783L110.614 29.5713L110.62 29.576L110.626 29.5807L111.229 28.783ZM115.506 50.076H125.243V48.076H115.506V50.076ZM124.255 48.921C123.796 51.8445 122.654 54.4426 120.822 56.7323L122.384 57.9817C124.435 55.418 125.719 52.4955 126.231 49.231L124.255 48.921ZM120.82 56.7348C119.06 58.9491 116.626 60.7372 113.476 62.079L114.26 63.919C117.661 62.4701 120.384 60.4969 122.386 57.9792L120.82 56.7348ZM113.491 62.0729C110.363 63.347 106.585 64.001 102.129 64.001V66.001C106.773 66.001 110.82 65.3204 114.245 63.9251L113.491 62.0729ZM102.129 64.001C97.0953 64.001 92.6313 63.0836 88.7167 61.2724L87.8769 63.0876C92.0917 65.0377 96.849 66.001 102.129 66.001V64.001ZM88.7278 61.2776C84.816 59.4093 81.7763 56.7968 79.5783 53.442L77.9053 54.538C80.318 58.2205 83.6483 61.068 87.8658 63.0824L88.7278 61.2776ZM79.5783 53.442C77.3953 50.1101 76.2838 46.1213 76.2838 41.432H74.2838C74.2838 46.4493 75.4777 50.8326 77.9053 54.538L79.5783 53.442ZM76.2838 41.432C76.2838 36.8014 77.3661 32.8048 79.498 29.4053L77.8036 28.3427C75.4462 32.1019 74.2838 36.4773 74.2838 41.432H76.2838ZM79.498 29.4053C81.64 25.9897 84.5906 23.353 88.3745 21.4902L87.4911 19.6958C83.3883 21.7157 80.151 24.5996 77.8036 28.3427L79.498 29.4053ZM88.3691 21.4928C92.2156 19.6279 96.6727 18.681 101.765 18.681V16.681C96.4223 16.681 91.6581 17.6755 87.4965 19.6932L88.3691 21.4928ZM101.765 18.681C107.05 18.681 111.363 19.6318 114.756 21.472L115.71 19.714C111.944 17.6716 107.278 16.681 101.765 16.681V18.681ZM114.774 21.4814C118.21 23.2568 120.755 25.9397 122.423 29.5651L124.24 28.7289C122.39 24.7103 119.536 21.6905 115.692 19.7046L114.774 21.4814ZM122.426 29.5707C124.094 33.1367 124.815 37.7216 124.517 43.3814L126.514 43.4866C126.823 37.6198 126.088 32.68 124.238 28.7233L122.426 29.5707ZM125.516 42.434H85.5668V44.434H125.516V42.434ZM84.5738 43.5522C84.8944 46.2448 85.763 48.6967 87.1842 50.8932L88.8634 49.8067C87.6153 47.8779 86.8459 45.7192 86.5598 43.3158L84.5738 43.5522ZM87.2034 50.9218C88.7038 53.0746 90.7209 54.7597 93.2278 55.981L94.1038 54.183C91.8787 53.099 90.1345 51.6294 88.8442 49.7782L87.2034 50.9218ZM93.2468 55.99C95.7688 57.154 98.6774 57.72 101.947 57.72V55.72C98.9069 55.72 96.2948 55.194 94.0849 54.174L93.2468 55.99ZM101.947 57.72C105.595 57.72 108.724 56.9966 111.282 55.4884L110.266 53.7656C108.091 55.0481 105.336 55.72 101.947 55.72V57.72ZM111.272 55.4939C113.88 53.9947 115.644 51.9589 116.459 49.3771L114.552 48.7749C113.912 50.8038 112.521 52.4686 110.275 53.7601L111.272 55.4939ZM101.492 24.871C97.1958 24.871 93.569 25.9477 90.6884 28.1737L91.9113 29.7563C94.3693 27.8569 97.5372 26.871 101.492 26.871V24.871ZM90.6998 28.165C87.852 30.3009 85.9886 33.0737 85.1427 36.4575L87.083 36.9425C87.8144 34.0169 89.409 31.6331 91.8998 29.765L90.6998 28.165ZM86.1128 37.7H115.324V35.7H86.1128V37.7ZM116.321 36.6288C116.06 32.9736 114.572 30.0572 111.832 27.9853L110.626 29.5807C112.86 31.2701 114.102 33.6317 114.326 36.7712L116.321 36.6288ZM111.844 27.9947C109.138 25.8829 105.658 24.871 101.492 24.871V26.871C105.334 26.871 108.345 27.8004 110.614 29.5713L111.844 27.9947ZM130.629 18.682V17.682H129.629V18.682H130.629ZM162.661 18.682H163.661V17.682H162.661V18.682ZM162.661 26.963V27.963H163.661V26.963H162.661ZM130.629 26.963H129.629V27.963H130.629V26.963ZM141.549 6.488V5.488H140.549V6.488H141.549ZM151.741 6.488H152.741V5.488H151.741V6.488ZM151.741 64V65H152.741V64H151.741ZM141.549 64H140.549V65H141.549V64ZM130.629 19.682H162.661V17.682H130.629V19.682ZM161.661 18.682V26.963H163.661V18.682H161.661ZM162.661 25.963H130.629V27.963H162.661V25.963ZM131.629 26.963V18.682H129.629V26.963H131.629ZM141.549 7.488H151.741V5.488H141.549V7.488ZM150.741 6.488V64H152.741V6.488H150.741ZM151.741 63H141.549V65H151.741V63ZM142.549 64V6.488H140.549V64H142.549ZM194.763 5.032V4.032H193.763V5.032H194.763ZM205.137 5.032H206.137V4.032H205.137V5.032ZM205.137 64V65H206.137V64H205.137ZM194.763 64H193.763V65H194.763V64ZM194.763 6.032H205.137V4.032H194.763V6.032ZM204.137 5.032V64H206.137V5.032H204.137ZM205.137 63H194.763V65H205.137V63ZM195.763 64V5.032H193.763V64H195.763ZM219.571 18.682V17.682H218.571V18.682H219.571ZM229.672 18.682H230.672V17.682H229.672V18.682ZM229.672 64V65H230.672V64H229.672ZM219.571 64H218.571V65H219.571V64ZM255.971 18.773L255.654 19.7217L255.662 19.7242L255.971 18.773ZM261.704 22.14L261.011 22.8608L261.025 22.8744L261.039 22.8874L261.704 22.14ZM265.435 27.6L264.503 27.9624L264.507 27.9736L264.512 27.9846L265.435 27.6ZM266.8 64V65H267.8V64H266.8ZM256.699 64H255.699V65H256.699V64ZM253.969 29.147L253.25 29.842L253.262 29.8542L253.274 29.866L253.969 29.147ZM237.589 28.328L238.045 29.2179L238.054 29.2134L237.589 28.328ZM231.765 33.151L232.553 33.7666L232.557 33.7608L232.562 33.7549L231.765 33.151ZM229.126 39.612L228.126 39.6305L230.12 39.714L229.126 39.612ZM229.035 34.698L228.044 34.5641L228.033 34.64L228.035 34.7165L229.035 34.698ZM231.037 28.328L231.926 28.786L231.931 28.7752L231.037 28.328ZM235.132 22.868L235.812 23.6008L235.819 23.5944L235.826 23.5878L235.132 22.868ZM241.138 19.046L241.505 19.9762L241.138 19.046ZM219.571 19.682H229.672V17.682H219.571V19.682ZM228.672 18.682V64H230.672V18.682H228.672ZM229.672 63H219.571V65H229.672V63ZM220.571 64V18.682H218.571V64H220.571ZM248.782 18.681C251.297 18.681 253.585 19.0319 255.654 19.7217L256.287 17.8243C253.988 17.0581 251.484 16.681 248.782 16.681V18.681ZM255.662 19.7242C257.774 20.4093 259.551 21.4572 261.011 22.8608L262.397 21.4192C260.702 19.7895 258.656 18.5927 256.279 17.8218L255.662 19.7242ZM261.039 22.8874C262.551 24.2309 263.707 25.9157 264.503 27.9624L266.367 27.2376C265.464 24.9163 264.133 22.9611 262.368 21.3926L261.039 22.8874ZM264.512 27.9846C265.36 30.0198 265.8 32.4617 265.8 35.335H267.8C267.8 32.263 267.33 29.5482 266.358 27.2154L264.512 27.9846ZM265.8 35.335V64H267.8V35.335H265.8ZM266.8 63H256.699V65H266.8V63ZM257.699 64V37.337H255.699V64H257.699ZM257.699 37.337C257.699 33.4909 256.754 30.4481 254.664 28.428L253.274 29.866C254.824 31.3645 255.699 33.7818 255.699 37.337H257.699ZM254.688 28.452C252.662 26.3567 249.553 25.417 245.597 25.417V27.417C249.285 27.417 251.756 28.2973 253.25 29.842L254.688 28.452ZM245.597 25.417C242.533 25.417 239.703 26.0886 237.124 27.4426L238.054 29.2134C240.328 28.0194 242.836 27.417 245.597 27.417V25.417ZM237.132 27.4382C234.641 28.7159 232.58 30.4185 230.968 32.5471L232.562 33.7549C233.982 31.8795 235.805 30.3667 238.045 29.2178L237.132 27.4382ZM230.977 32.5354C229.348 34.6194 228.394 36.9498 228.131 39.51L230.12 39.714C230.343 37.5422 231.148 35.5652 232.553 33.7666L230.977 32.5354ZM230.126 39.5935L230.035 34.6795L228.035 34.7165L228.126 39.6305L230.126 39.5935ZM230.026 34.8319C230.314 32.6996 230.947 30.686 231.926 28.786L230.148 27.87C229.064 29.974 228.362 32.207 228.044 34.5641L230.026 34.8319ZM231.931 28.7752C232.909 26.8204 234.201 25.097 235.812 23.6008L234.451 22.1352C232.665 23.7937 231.228 25.7103 230.142 27.8808L231.931 28.7752ZM235.826 23.5878C237.426 22.0452 239.315 20.8406 241.505 19.9762L240.771 18.1158C238.35 19.0714 236.235 20.4148 234.438 22.1482L235.826 23.5878ZM241.505 19.9762C243.679 19.1178 246.101 18.681 248.782 18.681V16.681C245.881 16.681 243.207 17.1542 240.771 18.1158L241.505 19.9762ZM291.282 5.032V4.032H290.282V5.032H291.282ZM347.884 5.032H348.884V4.032H347.884V5.032ZM347.884 13.95V14.95H348.884V13.95H347.884ZM291.282 13.95H290.282V14.95H291.282V13.95ZM314.487 12.858V11.858H313.487V12.858H314.487ZM324.77 12.858H325.77V11.858H324.77V12.858ZM324.77 64V65H325.77V64H324.77ZM314.487 64H313.487V65H314.487V64ZM291.282 6.032H347.884V4.032H291.282V6.032ZM346.884 5.032V13.95H348.884V5.032H346.884ZM347.884 12.95H291.282V14.95H347.884V12.95ZM292.282 13.95V5.032H290.282V13.95H292.282ZM314.487 13.858H324.77V11.858H314.487V13.858ZM323.77 12.858V64H325.77V12.858H323.77ZM324.77 63H314.487V65H324.77V63ZM315.487 64V12.858H313.487V64H315.487ZM358.095 62.271L357.682 63.1814L358.095 62.271ZM348.631 54.263L349.468 53.715L348.631 54.263ZM348.631 28.692L349.468 29.24L349.472 29.2335L348.631 28.692ZM358.095 20.502L357.67 19.5969L358.095 20.502ZM385.122 20.502L385.553 19.5994L385.122 20.502ZM394.404 28.692L393.557 29.2233L393.563 29.2317L393.568 29.24L394.404 28.692ZM394.404 54.263L393.568 53.7149L393.561 53.7252L394.404 54.263ZM385.122 62.271L384.703 61.363L385.122 62.271ZM385.395 49.804L384.55 49.27L384.545 49.2781L384.54 49.2862L385.395 49.804ZM385.395 33.06L384.54 33.5778L384.545 33.5859L384.55 33.594L385.395 33.06ZM379.662 27.782L379.188 28.6625L379.202 28.6697L379.215 28.6764L379.662 27.782ZM363.555 27.691L363.108 26.7966L363.555 27.691ZM357.64 32.969L356.805 32.4194L356.8 32.4271L356.795 32.435L357.64 32.969ZM357.64 49.804L356.795 50.338L357.64 49.804ZM363.464 54.991L363.035 55.8943L363.044 55.8983L363.464 54.991ZM371.654 64.001C366.741 64.001 362.366 63.1136 358.509 61.3606L357.682 63.1814C361.833 65.0684 366.497 66.001 371.654 66.001V64.001ZM358.509 61.3606C354.669 59.6152 351.665 57.0679 349.468 53.715L347.795 54.811C350.209 58.4955 353.514 61.2868 357.682 63.1814L358.509 61.3606ZM349.468 53.715C347.289 50.3889 346.173 46.3115 346.173 41.432H344.173C344.173 46.6231 345.363 51.0998 347.795 54.811L349.468 53.715ZM346.173 41.432C346.173 36.6159 347.288 32.568 349.468 29.24L347.795 28.144C345.365 31.8533 344.173 36.2988 344.173 41.432H346.173ZM349.472 29.2335C351.672 25.8183 354.68 23.2113 358.521 21.4071L357.67 19.5969C353.503 21.5541 350.202 24.407 347.791 28.1505L349.472 29.2335ZM358.521 21.4071C362.374 19.597 366.746 18.681 371.654 18.681V16.681C366.493 16.681 361.825 17.6456 357.67 19.5969L358.521 21.4071ZM371.654 18.681C376.564 18.681 380.902 19.5972 384.692 21.4046L385.553 19.5994C381.456 17.6455 376.816 16.681 371.654 16.681V18.681ZM384.692 21.4046C388.47 23.2065 391.417 25.8104 393.557 29.2233L395.252 28.1607C392.903 24.4149 389.661 21.5588 385.553 19.5994L384.692 21.4046ZM393.568 29.24C395.748 32.568 396.862 36.6159 396.862 41.432H398.862C398.862 36.2988 397.671 31.8533 395.241 28.144L393.568 29.24ZM396.862 41.432C396.862 46.3115 395.747 50.3889 393.568 53.715L395.241 54.811C397.672 51.0998 398.862 46.6231 398.862 41.432H396.862ZM393.561 53.7252C391.424 57.0757 388.48 59.6199 384.703 61.363L385.542 63.179C389.651 61.2822 392.896 58.4877 395.248 54.8008L393.561 53.7252ZM384.703 61.363C380.911 63.1135 376.568 64.001 371.654 64.001V66.001C376.812 66.001 381.447 65.0685 385.542 63.179L384.703 61.363ZM371.654 57.72C374.702 57.72 377.52 57.1158 380.092 55.8943L379.233 54.0877C376.952 55.1715 374.431 55.72 371.654 55.72V57.72ZM380.092 55.8943C382.696 54.6573 384.755 52.7941 386.251 50.3218L384.54 49.2862C383.246 51.4246 381.483 53.0193 379.233 54.0877L380.092 55.8943ZM386.241 50.338C387.817 47.8432 388.579 44.8586 388.579 41.432H386.579C386.579 44.5574 385.886 47.1541 384.55 49.27L386.241 50.338ZM388.579 41.432C388.579 38.0054 387.817 35.0208 386.241 32.526L384.55 33.594C385.886 35.7099 386.579 38.3066 386.579 41.432H388.579ZM386.251 32.5422C384.757 30.0741 382.704 28.1848 380.11 26.8876L379.215 28.6764C381.474 29.8059 383.243 31.4352 384.54 33.5778L386.251 32.5422ZM380.137 26.9015C377.61 25.541 374.775 24.871 371.654 24.871V26.871C374.48 26.871 376.983 27.475 379.188 28.6625L380.137 26.9015ZM371.654 24.871C368.542 24.871 365.687 25.5074 363.108 26.7966L364.003 28.5854C366.278 27.448 368.822 26.871 371.654 26.871V24.871ZM363.108 26.7966C360.521 28.0901 358.417 29.9696 356.805 32.4194L358.476 33.5186C359.897 31.3578 361.736 29.7186 364.003 28.5854L363.108 26.7966ZM356.795 32.435C355.218 34.9326 354.456 37.9487 354.456 41.432H356.456C356.456 38.2419 357.151 35.6161 358.486 33.503L356.795 32.435ZM354.456 41.432C354.456 44.8586 355.219 47.8432 356.795 50.338L358.486 49.27C357.15 47.1541 356.456 44.5574 356.456 41.432H354.456ZM356.795 50.338C358.35 52.8008 360.435 54.6591 363.035 55.8943L363.894 54.0877C361.641 53.0175 359.842 51.4178 358.486 49.27L356.795 50.338ZM363.044 55.8983C365.674 57.1171 368.549 57.72 371.654 57.72V55.72C368.815 55.72 366.23 55.1703 363.885 54.0837L363.044 55.8983ZM454.132 64V65H455.132V64H454.132ZM444.031 64H443.031V65H444.031V64ZM444.031 18.682V17.682H443.031V18.682H444.031ZM454.132 18.682H455.132V17.682H454.132V18.682ZM444.577 42.433L445.576 42.4018L443.599 42.2255L444.577 42.433ZM444.668 45.345L445.656 45.4971L445.67 45.4059L445.667 45.3138L444.668 45.345ZM443.849 48.894L442.883 48.634L442.878 48.6515L442.874 48.6691L443.849 48.894ZM441.938 54.081L441.038 53.6454L441.032 53.6581L441.938 54.081ZM438.48 59.359L437.72 58.7082L437.719 58.7105L438.48 59.359ZM433.202 63.454L433.639 64.3535L433.649 64.3485L433.659 64.3433L433.202 63.454ZM418.824 64.091L419.085 63.1256L419.076 63.1232L419.066 63.1209L418.824 64.091ZM412.818 61.27L412.213 62.0667L412.22 62.0716L412.226 62.0764L412.818 61.27ZM408.541 55.81L409.444 55.3819L408.541 55.81ZM406.903 18.682V17.682H405.903V18.682H406.903ZM417.004 18.682H418.004V17.682H417.004V18.682ZM418.369 51.897L417.495 52.3826L417.505 52.4021L417.517 52.4211L418.369 51.897ZM422.373 55.264L422.007 56.1947L422.373 55.264ZM436.478 54.081L435.934 53.242L436.478 54.081ZM441.847 48.712L441.004 48.1736L441 48.1798L441.847 48.712ZM454.132 63H444.031V65H454.132V63ZM445.031 64V18.682H443.031V64H445.031ZM444.031 19.682H454.132V17.682H444.031V19.682ZM453.132 18.682V64H455.132V18.682H453.132ZM443.577 42.4642L443.668 45.3762L445.667 45.3138L445.576 42.4018L443.577 42.4642ZM443.679 45.1929C443.567 45.9245 443.306 47.0635 442.883 48.634L444.814 49.154C445.241 47.5698 445.526 46.3428 445.656 45.4971L443.679 45.1929ZM442.874 48.6691C442.531 50.1562 441.924 51.8137 441.038 53.6454L442.838 54.5166C443.772 52.587 444.438 50.7864 444.823 49.1189L442.874 48.6691ZM441.032 53.6581C440.225 55.3871 439.124 57.0707 437.72 58.7082L439.239 60.0098C440.747 58.2499 441.952 56.4149 442.844 54.5039L441.032 53.6581ZM437.719 58.7105C436.417 60.2389 434.764 61.5258 432.744 62.5647L433.659 64.3433C435.886 63.1982 437.752 61.7551 439.241 60.0075L437.719 58.7105ZM432.765 62.5545C430.811 63.5036 428.39 64.001 425.467 64.001V66.001C428.61 66.001 431.346 65.467 433.639 64.3535L432.765 62.5545ZM425.467 64.001C423.376 64.001 421.25 63.7108 419.085 63.1256L418.563 65.0564C420.887 65.6845 423.189 66.001 425.467 66.001V64.001ZM419.066 63.1209C417.008 62.6064 415.125 61.7218 413.409 60.4636L412.226 62.0764C414.151 63.4875 416.271 64.4836 418.581 65.0611L419.066 63.1209ZM413.422 60.4733C411.809 59.2498 410.478 57.5647 409.444 55.3819L407.637 56.2381C408.787 58.6659 410.308 60.6209 412.213 62.0667L413.422 60.4733ZM409.444 55.3819C408.435 53.2511 407.903 50.4975 407.903 47.074H405.903C405.903 50.6879 406.462 53.7582 407.637 56.2381L409.444 55.3819ZM407.903 47.074V18.682H405.903V47.074H407.903ZM406.903 19.682H417.004V17.682H406.903V19.682ZM416.004 18.682V45.163H418.004V18.682H416.004ZM416.004 45.163C416.004 48.1029 416.47 50.5383 417.495 52.3826L419.243 51.4114C418.448 49.9797 418.004 47.9257 418.004 45.163H416.004ZM417.517 52.4211C418.6 54.1801 420.103 55.4469 422.007 56.1947L422.738 54.3333C421.245 53.7465 420.079 52.7685 419.22 51.3729L417.517 52.4211ZM422.007 56.1947C423.846 56.917 425.946 57.265 428.288 57.265V55.265C426.14 55.265 424.297 54.9456 422.738 54.3333L422.007 56.1947ZM428.288 57.265C431.657 57.265 434.585 56.5006 437.022 54.92L435.934 53.242C433.881 54.5734 431.349 55.265 428.288 55.265V57.265ZM437.022 54.92C439.38 53.3903 441.276 51.4986 442.693 49.2442L441 48.1798C439.748 50.172 438.065 51.8597 435.934 53.242L437.022 54.92ZM442.689 49.2504C444.133 46.991 445.1 44.7867 445.555 42.6405L443.599 42.2255C443.204 44.0833 442.351 46.065 441.004 48.1736L442.689 49.2504ZM514.065 46.437L515.06 46.5303L515.163 45.437H514.065V46.437ZM510.333 56.447L511.129 57.0525L510.333 56.447ZM501.779 62.817L501.403 61.8907L501.397 61.893L501.779 62.817ZM476.026 62.271L475.613 63.1814L475.618 63.1837L476.026 62.271ZM466.471 54.263L467.301 53.705L466.471 54.263ZM466.471 28.601L465.642 28.043L466.471 28.601ZM476.026 20.502L475.607 19.5944L475.601 19.5969L476.026 20.502ZM501.779 19.956L501.384 20.8743L501.39 20.8772L501.397 20.88L501.779 19.956ZM510.242 26.235L511.032 25.6211V25.6211L510.242 26.235ZM513.974 36.154V37.154H515.072L514.969 36.0607L513.974 36.154ZM504.691 36.154L503.739 36.4594L503.962 37.154H504.691V36.154ZM499.049 28.692L498.486 29.5182L498.497 29.5255L498.508 29.5326L499.049 28.692ZM481.395 27.782L481.816 28.6893L481.825 28.6851L481.834 28.6808L481.395 27.782ZM475.389 32.969L474.554 32.4194L474.551 32.4248L475.389 32.969ZM475.389 49.895L474.544 50.429L474.549 50.4369L474.554 50.4446L475.389 49.895ZM481.395 55.082L480.975 55.9893L480.984 55.9936L480.993 55.9976L481.395 55.082ZM499.413 54.081L499.982 54.9039L499.986 54.9011L499.413 54.081ZM504.783 46.437V45.437H504.036L503.824 46.1529L504.783 46.437ZM513.069 46.3437C512.72 50.0618 511.535 53.2158 509.538 55.8415L511.129 57.0525C513.378 54.0968 514.681 50.5775 515.06 46.5303L513.069 46.3437ZM509.538 55.8415C507.534 58.4754 504.834 60.4951 501.403 61.8907L502.156 63.7433C505.884 62.2269 508.887 59.9999 511.129 57.0525L509.538 55.8415ZM501.397 61.893C498.022 63.2894 494.092 64.001 489.585 64.001V66.001C494.3 66.001 498.499 65.2566 502.162 63.741L501.397 61.893ZM489.585 64.001C484.735 64.001 480.357 63.1144 476.435 61.3583L475.618 63.1837C479.825 65.0676 484.487 66.001 489.585 66.001V64.001ZM476.44 61.3606C472.598 59.6143 469.56 57.064 467.301 53.705L465.642 54.821C468.115 58.4993 471.447 61.2877 475.613 63.1814L476.44 61.3606ZM467.301 53.705C465.066 50.3802 463.922 46.3065 463.922 41.432H461.922C461.922 46.6281 463.145 51.1084 465.642 54.821L467.301 53.705ZM463.922 41.432C463.922 36.5575 465.066 32.4838 467.301 29.159L465.642 28.043C463.145 31.7556 461.922 36.2359 461.922 41.432H463.922ZM467.301 29.159C469.562 25.7972 472.604 23.2143 476.452 21.4071L475.601 19.5969C471.441 21.551 468.113 24.3675 465.642 28.043L467.301 29.159ZM476.446 21.4096C480.366 19.5962 484.74 18.681 489.585 18.681V16.681C484.482 16.681 479.817 17.6464 475.607 19.5944L476.446 21.4096ZM489.585 18.681C494.087 18.681 498.013 19.4213 501.384 20.8743L502.175 19.0377C498.509 17.4573 494.305 16.681 489.585 16.681V18.681ZM501.397 20.88C504.772 22.2766 507.447 24.2694 509.453 26.8489L511.032 25.6211C508.792 22.7406 505.824 20.5474 502.162 19.032L501.397 20.88ZM509.453 26.8489C511.445 29.41 512.629 32.5294 512.978 36.2473L514.969 36.0607C514.59 32.0133 513.287 28.52 511.032 25.6211L509.453 26.8489ZM513.974 35.154H504.691V37.154H513.974V35.154ZM505.644 35.8486C504.545 32.4222 502.524 29.7415 499.591 27.8514L498.508 29.5326C501.035 31.1611 502.776 33.4551 503.739 36.4594L505.644 35.8486ZM499.613 27.8658C496.757 25.9185 493.4 24.962 489.585 24.962V26.962C493.051 26.962 496.003 27.8255 498.486 29.5182L499.613 27.8658ZM489.585 24.962C486.472 24.962 483.591 25.5984 480.957 26.8832L481.834 28.6808C484.175 27.5389 486.753 26.962 489.585 26.962V24.962ZM480.975 26.8747C478.318 28.1062 476.172 29.9596 474.554 32.4194L476.225 33.5186C477.64 31.3677 479.499 29.7632 481.816 28.6893L480.975 26.8747ZM474.551 32.4248C472.964 34.8701 472.205 37.8933 472.205 41.432H474.205C474.205 38.176 474.903 35.5572 476.228 33.5132L474.551 32.4248ZM472.205 41.432C472.205 44.9153 472.967 47.9314 474.544 50.429L476.235 49.361C474.9 47.2479 474.205 44.6221 474.205 41.432H472.205ZM474.554 50.4446C476.172 52.9044 478.318 54.7578 480.975 55.9893L481.816 54.1747C479.499 53.1008 477.64 51.4963 476.225 49.3454L474.554 50.4446ZM480.993 55.9976C483.619 57.1503 486.488 57.72 489.585 57.72V55.72C486.738 55.72 484.147 55.1977 481.797 54.1664L480.993 55.9976ZM489.585 57.72C493.733 57.72 497.224 56.8081 499.982 54.9039L498.845 53.2581C496.507 54.8725 493.446 55.72 489.585 55.72V57.72ZM499.986 54.9011C502.794 52.9415 504.711 50.1972 505.741 46.7211L503.824 46.1529C502.912 49.2288 501.25 51.5805 498.841 53.2609L499.986 54.9011ZM504.783 47.437H514.065V45.437H504.783V47.437ZM561.001 64H560.001V65H561.001V64ZM559.727 31.786L558.826 32.2198L558.836 32.2402L558.847 32.2601L559.727 31.786ZM541.618 28.601L542.065 29.4954L542.075 29.4908L542.084 29.4859L541.618 28.601ZM535.976 33.242L535.176 32.642L535.976 33.242ZM533.428 39.703L532.428 39.7209L534.423 39.805L533.428 39.703ZM533.337 34.607L532.347 34.4694L532.336 34.5468L532.337 34.6249L533.337 34.607ZM535.339 28.328L536.228 28.786L536.234 28.7752L535.339 28.328ZM539.434 22.868L540.115 23.6008L539.434 22.868ZM545.44 19.137L545.807 20.0672L545.818 20.063L545.828 20.0586L545.44 19.137ZM560.273 18.773L559.957 19.7217L559.965 19.7242L560.273 18.773ZM566.006 22.049L565.328 22.7838L565.343 22.7973L565.358 22.8102L566.006 22.049ZM569.737 27.327L568.809 27.6984L568.815 27.7146L568.822 27.7306L569.737 27.327ZM571.102 64V65H572.102V64H571.102ZM523.873 64H522.873V65H523.873V64ZM523.873 0.481998V-0.518002H522.873V0.481998H523.873ZM533.974 0.481998H534.974V-0.518002H533.974V0.481998ZM533.974 64V65H534.974V64H533.974ZM562.001 64V37.792H560.001V64H562.001ZM562.001 37.792C562.001 35.2559 561.558 33.0774 560.608 31.3119L558.847 32.2601C559.595 33.6493 560.001 35.4747 560.001 37.792H562.001ZM560.628 31.3522C559.739 29.5053 558.331 28.1042 556.443 27.1606L555.549 28.9494C557.059 29.7045 558.138 30.7907 558.826 32.2198L560.628 31.3522ZM556.443 27.1606C554.556 26.217 552.141 25.781 549.262 25.781V27.781C551.965 27.781 554.039 28.1944 555.549 28.9494L556.443 27.1606ZM549.262 25.781C546.321 25.781 543.612 26.4218 541.153 27.7161L542.084 29.4859C544.236 28.3535 546.622 27.781 549.262 27.781V25.781ZM541.171 27.7066C538.736 28.9242 536.731 30.5688 535.176 32.642L536.776 33.842C538.133 32.0325 539.89 30.5831 542.065 29.4954L541.171 27.7066ZM535.176 32.642C533.614 34.7255 532.695 37.0506 532.434 39.601L534.423 39.805C534.647 37.6234 535.427 35.6412 536.776 33.842L535.176 32.642ZM534.428 39.6851L534.337 34.5891L532.337 34.6249L532.428 39.7209L534.428 39.6851ZM534.328 34.7446C534.615 32.6747 535.247 30.6898 536.228 28.786L534.45 27.87C533.368 29.9702 532.666 32.1713 532.347 34.4694L534.328 34.7446ZM536.234 28.7752C537.211 26.8204 538.503 25.097 540.115 23.6008L538.754 22.1352C536.968 23.7937 535.53 25.7103 534.445 27.8808L536.234 28.7752ZM540.115 23.6008C541.716 22.1139 543.61 20.9346 545.807 20.0672L545.073 18.2068C542.66 19.1594 540.55 20.4674 538.754 22.1352L540.115 23.6008ZM545.828 20.0586C547.997 19.1454 550.411 18.681 553.084 18.681V16.681C550.176 16.681 547.494 17.1873 545.052 18.2154L545.828 20.0586ZM553.084 18.681C555.6 18.681 557.888 19.0319 559.957 19.7217L560.59 17.8243C558.291 17.0581 555.786 16.681 553.084 16.681V18.681ZM559.965 19.7242C562.086 20.4121 563.867 21.4352 565.328 22.7838L566.685 21.3142C564.991 19.7508 562.95 18.5899 560.582 17.8218L559.965 19.7242ZM565.358 22.8102C566.865 24.0937 568.016 25.7161 568.809 27.6984L570.666 26.9556C569.76 24.6913 568.424 22.795 566.655 21.2878L565.358 22.8102ZM568.822 27.7306C569.666 29.6423 570.102 31.8963 570.102 34.516H572.102C572.102 31.6757 571.629 29.1371 570.652 26.9234L568.822 27.7306ZM570.102 34.516V64H572.102V34.516H570.102ZM571.102 63H561.001V65H571.102V63ZM524.873 64V0.481998H522.873V64H524.873ZM523.873 1.482H533.974V-0.518002H523.873V1.482ZM532.974 0.481998V64H534.974V0.481998H532.974ZM533.974 63H523.873V65H533.974V63Z" fill="black" mask="url(#path-1-outside-1_291_1899)"/>
</g>
<defs>
<filter id="filter0_d_291_1899" x="0.0478516" y="0.481934" width="572.555" height="66.1101" filterUnits="userSpaceOnUse" color-interpolation-filters="sRGB">
<feFlood flood-opacity="0" result="BackgroundImageFix"/>
<feColorMatrix in="SourceAlpha" type="matrix" values="0 0 0 0 0 0 0 0 0 0 0 0 0 0 0 0 0 0 127 0" result="hardAlpha"/>
<feOffset dx="1" dy="1"/>
<feGaussianBlur stdDeviation="0.25"/>
<feComposite in2="hardAlpha" operator="out"/>
<feColorMatrix type="matrix" values="0 0 0 0 1 0 0 0 0 1 0 0 0 0 1 0 0 0 1 0"/>
<feBlend mode="normal" in2="BackgroundImageFix" result="effect1_dropShadow_291_1899"/>
<feBlend mode="normal" in="SourceGraphic" in2="effect1_dropShadow_291_1899" result="shape"/>
</filter>
</defs>
</svg>
