<svg width="270" height="79" viewBox="0 0 270 79" fill="none" xmlns="http://www.w3.org/2000/svg">
<g filter="url(#filter0_d_310_232)">
<mask id="path-1-outside-1_310_232" maskUnits="userSpaceOnUse" x="-1" y="-1" width="271" height="80" fill="black">
<rect fill="white" x="-1" y="-1" width="271" height="80"/>
<path d="M10.9173 0.0319998V50.082H47.6813V59H0.543313V0.0319998H10.9173ZM79.9884 60.001C74.9531 60.001 70.4334 59.091 66.4294 57.271C62.4254 55.451 59.2708 52.7817 56.9654 49.263C54.6601 45.7443 53.5074 41.4673 53.5074 36.432C53.5074 31.4573 54.6601 27.2107 56.9654 23.692C59.2708 20.1127 62.4254 17.3827 66.4294 15.502C70.4334 13.6213 74.9531 12.681 79.9884 12.681C85.0238 12.681 89.5131 13.6213 93.4564 15.502C97.3998 17.3827 100.494 20.1127 102.738 23.692C105.044 27.2107 106.196 31.4573 106.196 36.432C106.196 41.4673 105.044 45.7443 102.738 49.263C100.494 52.7817 97.3998 55.451 93.4564 57.271C89.5131 59.091 85.0238 60.001 79.9884 60.001ZM79.9884 51.72C82.9004 51.72 85.5698 51.1437 87.9964 49.991C90.4231 48.8383 92.3341 47.1093 93.7294 44.804C95.1854 42.4987 95.9134 39.708 95.9134 36.432C95.9134 33.156 95.1854 30.3653 93.7294 28.06C92.3341 25.7547 90.4231 23.9953 87.9964 22.782C85.6304 21.508 82.9611 20.871 79.9884 20.871C77.0158 20.871 74.3161 21.4777 71.8894 22.691C69.4628 23.9043 67.4911 25.6637 65.9744 27.969C64.5184 30.2743 63.7904 33.0953 63.7904 36.432C63.7904 39.708 64.5184 42.4987 65.9744 44.804C67.4304 47.1093 69.3718 48.8383 71.7984 49.991C74.2858 51.1437 77.0158 51.72 79.9884 51.72ZM135.439 51.993C131.192 51.993 127.34 51.2347 123.882 49.718C120.484 48.2013 117.785 45.987 115.783 43.075C113.841 40.163 112.871 36.6747 112.871 32.61C112.871 28.5453 113.811 25.0267 115.692 22.054C117.633 19.0813 120.302 16.776 123.7 15.138C127.158 13.5 131.071 12.681 135.439 12.681C136.713 12.681 137.926 12.772 139.079 12.954C140.292 13.136 141.445 13.3787 142.537 13.682L163.74 13.773V22.236C160.828 22.2967 157.885 21.9023 154.913 21.053C152.001 20.143 149.422 19.2027 147.178 18.232L146.905 17.686C148.967 18.7173 150.818 19.9913 152.456 21.508C154.154 22.964 155.489 24.6323 156.46 26.513C157.43 28.3937 157.916 30.517 157.916 32.883C157.916 36.887 156.945 40.3147 155.004 43.166C153.123 46.0173 150.484 48.2013 147.087 49.718C143.75 51.2347 139.867 51.993 135.439 51.993ZM149.999 77.473V75.38C149.999 72.4073 149.119 70.3143 147.36 69.101C145.6 67.8877 143.143 67.281 139.989 67.281H127.704C125.277 67.281 123.184 67.0687 121.425 66.644C119.726 66.28 118.361 65.7037 117.33 64.915C116.298 64.187 115.54 63.3073 115.055 62.276C114.569 61.3053 114.327 60.2133 114.327 59C114.327 56.5733 115.055 54.7533 116.511 53.54C118.027 52.3267 119.999 51.538 122.426 51.174C124.913 50.81 127.522 50.7493 130.252 50.992L135.439 51.993C131.859 52.1143 129.129 52.448 127.249 52.994C125.429 53.4793 124.519 54.4803 124.519 55.997C124.519 56.907 124.883 57.635 125.611 58.181C126.339 58.727 127.37 59 128.705 59H141.627C145.327 59 148.573 59.4247 151.364 60.274C154.154 61.184 156.308 62.6703 157.825 64.733C159.402 66.8563 160.191 69.738 160.191 73.378V77.473H149.999ZM135.439 44.076C137.865 44.076 140.019 43.621 141.9 42.711C143.78 41.801 145.267 40.4967 146.359 38.798C147.451 37.0993 147.997 35.0367 147.997 32.61C147.997 30.1833 147.451 28.0903 146.359 26.331C145.267 24.5717 143.78 23.237 141.9 22.327C140.019 21.417 137.865 20.962 135.439 20.962C133.073 20.962 130.919 21.417 128.978 22.327C127.097 23.237 125.611 24.5717 124.519 26.331C123.427 28.0297 122.881 30.1227 122.881 32.61C122.881 35.0367 123.427 37.0993 124.519 38.798C125.611 40.4967 127.097 41.801 128.978 42.711C130.858 43.621 133.012 44.076 135.439 44.076ZM196.003 0.0319998H206.377V59H196.003V0.0319998ZM220.811 13.682H230.912V59H220.811V13.682ZM250.022 12.681C252.631 12.681 255.027 13.045 257.211 13.773C259.456 14.501 261.367 15.6233 262.944 17.14C264.582 18.596 265.826 20.416 266.675 22.6C267.585 24.784 268.04 27.3623 268.04 30.335V59H257.939V32.337C257.939 28.6363 257.029 25.9063 255.209 24.147C253.45 22.327 250.659 21.417 246.837 21.417C243.925 21.417 241.256 22.054 238.829 23.328C236.463 24.5413 234.522 26.149 233.005 28.151C231.488 30.0923 230.609 32.246 230.366 34.612L230.275 29.698C230.578 27.4533 231.246 25.33 232.277 23.328C233.308 21.2653 234.673 19.4453 236.372 17.868C238.071 16.23 240.073 14.956 242.378 14.046C244.683 13.136 247.231 12.681 250.022 12.681Z"/>
</mask>
<path d="M10.9173 0.0319998V50.082H47.6813V59H0.543313V0.0319998H10.9173ZM79.9884 60.001C74.9531 60.001 70.4334 59.091 66.4294 57.271C62.4254 55.451 59.2708 52.7817 56.9654 49.263C54.6601 45.7443 53.5074 41.4673 53.5074 36.432C53.5074 31.4573 54.6601 27.2107 56.9654 23.692C59.2708 20.1127 62.4254 17.3827 66.4294 15.502C70.4334 13.6213 74.9531 12.681 79.9884 12.681C85.0238 12.681 89.5131 13.6213 93.4564 15.502C97.3998 17.3827 100.494 20.1127 102.738 23.692C105.044 27.2107 106.196 31.4573 106.196 36.432C106.196 41.4673 105.044 45.7443 102.738 49.263C100.494 52.7817 97.3998 55.451 93.4564 57.271C89.5131 59.091 85.0238 60.001 79.9884 60.001ZM79.9884 51.72C82.9004 51.72 85.5698 51.1437 87.9964 49.991C90.4231 48.8383 92.3341 47.1093 93.7294 44.804C95.1854 42.4987 95.9134 39.708 95.9134 36.432C95.9134 33.156 95.1854 30.3653 93.7294 28.06C92.3341 25.7547 90.4231 23.9953 87.9964 22.782C85.6304 21.508 82.9611 20.871 79.9884 20.871C77.0158 20.871 74.3161 21.4777 71.8894 22.691C69.4628 23.9043 67.4911 25.6637 65.9744 27.969C64.5184 30.2743 63.7904 33.0953 63.7904 36.432C63.7904 39.708 64.5184 42.4987 65.9744 44.804C67.4304 47.1093 69.3718 48.8383 71.7984 49.991C74.2858 51.1437 77.0158 51.72 79.9884 51.72ZM135.439 51.993C131.192 51.993 127.34 51.2347 123.882 49.718C120.484 48.2013 117.785 45.987 115.783 43.075C113.841 40.163 112.871 36.6747 112.871 32.61C112.871 28.5453 113.811 25.0267 115.692 22.054C117.633 19.0813 120.302 16.776 123.7 15.138C127.158 13.5 131.071 12.681 135.439 12.681C136.713 12.681 137.926 12.772 139.079 12.954C140.292 13.136 141.445 13.3787 142.537 13.682L163.74 13.773V22.236C160.828 22.2967 157.885 21.9023 154.913 21.053C152.001 20.143 149.422 19.2027 147.178 18.232L146.905 17.686C148.967 18.7173 150.818 19.9913 152.456 21.508C154.154 22.964 155.489 24.6323 156.46 26.513C157.43 28.3937 157.916 30.517 157.916 32.883C157.916 36.887 156.945 40.3147 155.004 43.166C153.123 46.0173 150.484 48.2013 147.087 49.718C143.75 51.2347 139.867 51.993 135.439 51.993ZM149.999 77.473V75.38C149.999 72.4073 149.119 70.3143 147.36 69.101C145.6 67.8877 143.143 67.281 139.989 67.281H127.704C125.277 67.281 123.184 67.0687 121.425 66.644C119.726 66.28 118.361 65.7037 117.33 64.915C116.298 64.187 115.54 63.3073 115.055 62.276C114.569 61.3053 114.327 60.2133 114.327 59C114.327 56.5733 115.055 54.7533 116.511 53.54C118.027 52.3267 119.999 51.538 122.426 51.174C124.913 50.81 127.522 50.7493 130.252 50.992L135.439 51.993C131.859 52.1143 129.129 52.448 127.249 52.994C125.429 53.4793 124.519 54.4803 124.519 55.997C124.519 56.907 124.883 57.635 125.611 58.181C126.339 58.727 127.37 59 128.705 59H141.627C145.327 59 148.573 59.4247 151.364 60.274C154.154 61.184 156.308 62.6703 157.825 64.733C159.402 66.8563 160.191 69.738 160.191 73.378V77.473H149.999ZM135.439 44.076C137.865 44.076 140.019 43.621 141.9 42.711C143.78 41.801 145.267 40.4967 146.359 38.798C147.451 37.0993 147.997 35.0367 147.997 32.61C147.997 30.1833 147.451 28.0903 146.359 26.331C145.267 24.5717 143.78 23.237 141.9 22.327C140.019 21.417 137.865 20.962 135.439 20.962C133.073 20.962 130.919 21.417 128.978 22.327C127.097 23.237 125.611 24.5717 124.519 26.331C123.427 28.0297 122.881 30.1227 122.881 32.61C122.881 35.0367 123.427 37.0993 124.519 38.798C125.611 40.4967 127.097 41.801 128.978 42.711C130.858 43.621 133.012 44.076 135.439 44.076ZM196.003 0.0319998H206.377V59H196.003V0.0319998ZM220.811 13.682H230.912V59H220.811V13.682ZM250.022 12.681C252.631 12.681 255.027 13.045 257.211 13.773C259.456 14.501 261.367 15.6233 262.944 17.14C264.582 18.596 265.826 20.416 266.675 22.6C267.585 24.784 268.04 27.3623 268.04 30.335V59H257.939V32.337C257.939 28.6363 257.029 25.9063 255.209 24.147C253.45 22.327 250.659 21.417 246.837 21.417C243.925 21.417 241.256 22.054 238.829 23.328C236.463 24.5413 234.522 26.149 233.005 28.151C231.488 30.0923 230.609 32.246 230.366 34.612L230.275 29.698C230.578 27.4533 231.246 25.33 232.277 23.328C233.308 21.2653 234.673 19.4453 236.372 17.868C238.071 16.23 240.073 14.956 242.378 14.046C244.683 13.136 247.231 12.681 250.022 12.681Z" fill="white"/>
<path d="M10.9173 0.0319996H11.9173V-0.968H10.9173V0.0319996ZM10.9173 50.082H9.91731V51.082H10.9173V50.082ZM47.6813 50.082H48.6813V49.082H47.6813V50.082ZM47.6813 59V60H48.6813V59H47.6813ZM0.543313 59H-0.456687V60H0.543313V59ZM0.543313 0.0319996V-0.968H-0.456687V0.0319996H0.543313ZM9.91731 0.0319996V50.082H11.9173V0.0319996H9.91731ZM10.9173 51.082H47.6813V49.082H10.9173V51.082ZM46.6813 50.082V59H48.6813V50.082H46.6813ZM47.6813 58H0.543313V60H47.6813V58ZM1.54331 59V0.0319996H-0.456687V59H1.54331ZM0.543313 1.032H10.9173V-0.968H0.543313V1.032ZM66.4294 57.271L66.0156 58.1814L66.4294 57.271ZM56.9654 49.263L57.8019 48.715L56.9654 49.263ZM56.9654 23.692L57.8019 24.24L57.8062 24.2335L56.9654 23.692ZM66.4294 15.502L66.0043 14.5969L66.4294 15.502ZM93.4564 15.502L93.8869 14.5994L93.4564 15.502ZM102.738 23.692L101.891 24.2233L101.897 24.2317L101.902 24.24L102.738 23.692ZM102.738 49.263L101.902 48.7149L101.895 48.7252L102.738 49.263ZM93.4564 57.271L93.0374 56.363L93.4564 57.271ZM93.7294 44.804L92.884 44.27L92.8789 44.2781L92.8739 44.2862L93.7294 44.804ZM93.7294 28.06L92.8739 28.5778L92.8789 28.5859L92.884 28.594L93.7294 28.06ZM87.9964 22.782L87.5223 23.6625L87.5357 23.6697L87.5492 23.6764L87.9964 22.782ZM71.8894 22.691L71.4422 21.7966L71.8894 22.691ZM65.9744 27.969L65.139 27.4194L65.1339 27.4271L65.129 27.435L65.9744 27.969ZM65.9744 44.804L65.129 45.338L65.9744 44.804ZM71.7984 49.991L71.3694 50.8943L71.378 50.8983L71.7984 49.991ZM79.9884 59.001C75.0752 59.001 70.6997 58.1136 66.8432 56.3606L66.0156 58.1814C70.1672 60.0684 74.831 61.001 79.9884 61.001V59.001ZM66.8432 56.3606C63.0033 54.6152 59.9986 52.0679 57.8019 48.715L56.129 49.811C58.5429 53.4955 61.8475 56.2868 66.0156 58.1814L66.8432 56.3606ZM57.8019 48.715C55.6228 45.3889 54.5074 41.3115 54.5074 36.432H52.5074C52.5074 41.6231 53.6975 46.0998 56.129 49.811L57.8019 48.715ZM54.5074 36.432C54.5074 31.6159 55.6215 27.568 57.8019 24.24L56.129 23.144C53.6987 26.8533 52.5074 31.2988 52.5074 36.432H54.5074ZM57.8062 24.2335C60.0058 20.8183 63.0135 18.2113 66.8546 16.4071L66.0043 14.5969C61.8374 16.5541 58.5358 19.407 56.1247 23.1505L57.8062 24.2335ZM66.8546 16.4071C70.7083 14.597 75.0797 13.681 79.9884 13.681V11.681C74.8265 11.681 70.1586 12.6456 66.0043 14.5969L66.8546 16.4071ZM79.9884 13.681C84.8975 13.681 89.2362 14.5972 93.026 16.4046L93.8869 14.5994C89.7901 12.6455 85.15 11.681 79.9884 11.681V13.681ZM93.026 16.4046C96.8041 18.2065 99.751 20.8104 101.891 24.2233L103.586 23.1607C101.237 19.4149 97.9954 16.5588 93.8869 14.5994L93.026 16.4046ZM101.902 24.24C104.082 27.568 105.196 31.6159 105.196 36.432H107.196C107.196 31.2988 106.005 26.8533 103.575 23.144L101.902 24.24ZM105.196 36.432C105.196 41.3115 104.081 45.3889 101.902 48.715L103.575 49.811C106.006 46.0998 107.196 41.6231 107.196 36.432H105.196ZM101.895 48.7252C99.758 52.0757 96.8143 54.6199 93.0374 56.363L93.8755 58.179C97.9853 56.2822 101.23 53.4877 103.582 49.8008L101.895 48.7252ZM93.0374 56.363C89.2448 58.1135 84.902 59.001 79.9884 59.001V61.001C85.1455 61.001 89.7814 60.0685 93.8755 58.179L93.0374 56.363ZM79.9884 52.72C83.0362 52.72 85.8538 52.1158 88.4255 50.8943L87.5674 49.0877C85.2858 50.1715 82.7647 50.72 79.9884 50.72V52.72ZM88.4255 50.8943C91.0296 49.6573 93.0886 47.7941 94.5849 45.3218L92.8739 44.2862C91.5796 46.4246 89.8167 48.0193 87.5674 49.0877L88.4255 50.8943ZM94.5749 45.338C96.1506 42.8432 96.9135 39.8586 96.9135 36.432H94.9135C94.9135 39.5574 94.2203 42.1541 92.884 44.27L94.5749 45.338ZM96.9135 36.432C96.9135 33.0054 96.1506 30.0208 94.5749 27.526L92.884 28.594C94.2203 30.7099 94.9135 33.3066 94.9135 36.432H96.9135ZM94.5849 27.5422C93.0911 25.0741 91.038 23.1848 88.4437 21.8876L87.5492 23.6764C89.8082 24.8059 91.5771 26.4352 92.8739 28.5778L94.5849 27.5422ZM88.4706 21.9015C85.9438 20.541 83.1087 19.871 79.9884 19.871V21.871C82.8136 21.871 85.3171 22.475 87.5223 23.6625L88.4706 21.9015ZM79.9884 19.871C76.8756 19.871 74.0207 20.5074 71.4422 21.7966L72.3367 23.5854C74.6116 22.448 77.1559 21.871 79.9884 21.871V19.871ZM71.4422 21.7966C68.8553 23.0901 66.7507 24.9696 65.139 27.4194L66.8099 28.5186C68.2315 26.3578 70.0703 24.7186 72.3367 23.5854L71.4422 21.7966ZM65.129 27.435C63.5515 29.9326 62.7904 32.9487 62.7904 36.432H64.7904C64.7904 33.2419 65.4854 30.6161 66.8199 28.503L65.129 27.435ZM62.7904 36.432C62.7904 39.8586 63.5533 42.8432 65.129 45.338L66.8199 44.27C65.4836 42.1541 64.7904 39.5574 64.7904 36.432H62.7904ZM65.129 45.338C66.6844 47.8008 68.7691 49.6591 71.3694 50.8943L72.2275 49.0877C69.9745 48.0175 68.1765 46.4178 66.8199 44.27L65.129 45.338ZM71.378 50.8983C74.0079 52.1171 76.883 52.72 79.9884 52.72V50.72C77.1486 50.72 74.5637 50.1703 72.2189 49.0837L71.378 50.8983ZM123.882 49.718L123.474 50.6312L123.48 50.6338L123.882 49.718ZM115.783 43.075L114.951 43.6297L114.955 43.6356L114.959 43.6415L115.783 43.075ZM115.692 22.054L114.854 21.5072L114.851 21.5133L114.847 21.5194L115.692 22.054ZM123.7 15.138L123.272 14.2342L123.265 14.2372L123.7 15.138ZM139.079 12.954L138.923 13.9418L138.93 13.9429L139.079 12.954ZM142.537 13.682L142.269 14.6455L142.398 14.6814L142.532 14.682L142.537 13.682ZM163.74 13.773H164.74V12.7773L163.744 12.773L163.74 13.773ZM163.74 22.236L163.761 23.2358L164.74 23.2154V22.236H163.74ZM154.913 21.053L154.614 22.0075L154.626 22.0111L154.638 22.0145L154.913 21.053ZM147.178 18.232L146.283 18.6792L146.446 19.0052L146.781 19.1499L147.178 18.232ZM146.905 17.686L147.352 16.7916L144.669 15.4499L146.01 18.1332L146.905 17.686ZM152.456 21.508L151.776 22.2418L151.79 22.2548L151.805 22.2673L152.456 21.508ZM156.46 26.513L157.348 26.0544L156.46 26.513ZM155.004 43.166L154.177 42.6032L154.173 42.6093L154.169 42.6154L155.004 43.166ZM147.087 49.718L146.679 48.8048L146.673 48.8076L147.087 49.718ZM149.999 77.473H148.999V78.473H149.999V77.473ZM121.425 66.644L121.659 65.6719L121.647 65.6689L121.634 65.6662L121.425 66.644ZM117.33 64.915L117.937 64.1206L117.922 64.109L117.906 64.098L117.33 64.915ZM115.055 62.276L115.96 61.8502L115.954 61.8394L115.949 61.8288L115.055 62.276ZM116.511 53.54L115.886 52.7591L115.878 52.7654L115.871 52.7718L116.511 53.54ZM122.426 51.174L122.281 50.1845L122.277 50.1851L122.426 51.174ZM130.252 50.992L130.441 50.0101L130.391 50.0004L130.34 49.9959L130.252 50.992ZM135.439 51.993L135.473 52.9924L135.628 51.0111L135.439 51.993ZM127.249 52.994L127.506 53.9602L127.517 53.9574L127.528 53.9543L127.249 52.994ZM125.611 58.181L126.211 57.381L125.611 58.181ZM151.364 60.274L151.674 59.3233L151.664 59.3202L151.655 59.3173L151.364 60.274ZM157.825 64.733L157.019 65.3254L157.022 65.3293L157.825 64.733ZM160.191 77.473V78.473H161.191V77.473H160.191ZM141.9 42.711L142.335 43.6112L141.9 42.711ZM146.359 38.798L145.518 38.2572L146.359 38.798ZM146.359 26.331L147.208 25.8036L146.359 26.331ZM141.9 22.327L142.335 21.4268H142.335L141.9 22.327ZM128.978 22.327L128.553 21.4215L128.542 21.4268L128.978 22.327ZM124.519 26.331L125.36 26.8718L125.364 26.8651L125.368 26.8584L124.519 26.331ZM124.519 38.798L125.36 38.2572L124.519 38.798ZM128.978 42.711L129.413 41.8108L128.978 42.711ZM135.439 50.993C131.313 50.993 127.6 50.2568 124.283 48.8022L123.48 50.6338C127.08 52.2125 131.071 52.993 135.439 52.993V50.993ZM124.289 48.8049C121.051 47.3591 118.499 45.2607 116.607 42.5085L114.959 43.6415C117.071 46.7133 119.918 49.0436 123.474 50.6311L124.289 48.8049ZM116.615 42.5203C114.8 39.7978 113.871 36.5099 113.871 32.61H111.871C111.871 36.8394 112.883 40.5282 114.951 43.6297L116.615 42.5203ZM113.871 32.61C113.871 28.7046 114.772 25.3777 116.537 22.5886L114.847 21.5194C112.85 24.6756 111.871 28.3861 111.871 32.61H113.871ZM116.529 22.6008C118.364 19.7902 120.89 17.6028 124.134 16.0388L123.265 14.2372C119.715 15.9492 116.902 18.3725 114.854 21.5072L116.529 22.6008ZM124.128 16.0417C127.434 14.4755 131.198 13.681 135.439 13.681V11.681C130.944 11.681 126.881 12.5245 123.272 14.2343L124.128 16.0417ZM135.439 13.681C136.665 13.681 137.826 13.7686 138.923 13.9418L139.235 11.9662C138.026 11.7754 136.76 11.681 135.439 11.681V13.681ZM138.93 13.9429C140.107 14.1194 141.219 14.3539 142.269 14.6455L142.804 12.7185C141.67 12.4034 140.477 12.1526 139.227 11.9651L138.93 13.9429ZM142.532 14.682L163.735 14.773L163.744 12.773L142.541 12.682L142.532 14.682ZM162.74 13.773V22.236H164.74V13.773H162.74ZM163.719 21.2362C160.913 21.2947 158.07 20.9151 155.187 20.0915L154.638 22.0145C157.701 22.8896 160.743 23.2987 163.761 23.2358L163.719 21.2362ZM155.211 20.0985C152.325 19.1965 149.78 18.268 147.575 17.3141L146.781 19.1499C149.064 20.1374 151.677 21.0894 154.614 22.0075L155.211 20.0985ZM148.072 17.7848L147.799 17.2388L146.01 18.1332L146.283 18.6792L148.072 17.7848ZM146.458 18.5804C148.438 19.5709 150.21 20.7915 151.776 22.2418L153.135 20.7742C151.425 19.1912 149.496 17.8638 147.352 16.7916L146.458 18.5804ZM151.805 22.2673C153.411 23.6442 154.663 25.212 155.571 26.9716L157.348 26.0544C156.315 24.0526 154.897 22.2838 153.107 20.7487L151.805 22.2673ZM155.571 26.9716C156.46 28.6945 156.916 30.6575 156.916 32.883H158.916C158.916 30.3765 158.4 28.0929 157.348 26.0544L155.571 26.9716ZM156.916 32.883C156.916 36.7194 155.988 39.9433 154.177 42.6032L155.83 43.7288C157.902 40.6861 158.916 37.0546 158.916 32.883H156.916ZM154.169 42.6154C152.403 45.2935 149.919 47.3587 146.679 48.8049L147.494 50.6311C151.05 49.044 153.844 46.7411 155.839 43.7166L154.169 42.6154ZM146.673 48.8076C143.49 50.2542 139.754 50.993 135.439 50.993V52.993C139.981 52.993 144.01 52.2151 147.501 50.6284L146.673 48.8076ZM150.999 77.473V75.38H148.999V77.473H150.999ZM150.999 75.38C150.999 72.2179 150.055 69.7449 147.927 68.2778L146.792 69.9242C148.183 70.8837 148.999 72.5968 148.999 75.38H150.999ZM147.927 68.2778C145.939 66.9065 143.255 66.281 139.989 66.281V68.281C143.032 68.281 145.262 68.8688 146.792 69.9242L147.927 68.2778ZM139.989 66.281H127.704V68.281H139.989V66.281ZM127.704 66.281C125.331 66.281 123.321 66.073 121.659 65.6719L121.19 67.6161C123.047 68.0644 125.223 68.281 127.704 68.281V66.281ZM121.634 65.6662C120.034 65.3232 118.818 64.7945 117.937 64.1206L116.722 65.7094C117.904 66.6128 119.418 67.2368 121.215 67.6218L121.634 65.6662ZM117.906 64.098C117.001 63.4588 116.363 62.7086 115.96 61.8502L114.15 62.7018C114.717 63.9061 115.596 64.9152 116.753 65.732L117.906 64.098ZM115.949 61.8288C115.541 61.0126 115.327 60.0766 115.327 59H113.327C113.327 60.3501 113.598 61.598 114.16 62.7232L115.949 61.8288ZM115.327 59C115.327 56.7803 115.984 55.2807 117.151 54.3082L115.871 52.7718C114.126 54.226 113.327 56.3664 113.327 59H115.327ZM117.135 54.3209C118.483 53.2431 120.277 52.5076 122.574 52.1629L122.277 50.1851C119.722 50.5684 117.572 51.4102 115.886 52.7591L117.135 54.3209ZM122.571 52.1635C124.974 51.8117 127.504 51.7517 130.163 51.9881L130.34 49.9959C127.539 49.747 124.852 49.8083 122.281 50.1845L122.571 52.1635ZM130.062 51.9739L135.249 52.9749L135.628 51.0111L130.441 50.0101L130.062 51.9739ZM135.405 50.9936C131.799 51.1158 128.971 51.4528 126.97 52.0337L127.528 53.9543C129.288 53.4432 131.92 53.1129 135.473 52.9924L135.405 50.9936ZM126.991 52.0278C125.965 52.3013 125.087 52.7479 124.461 53.4361C123.818 54.1433 123.519 55.0224 123.519 55.997H125.519C125.519 55.455 125.674 55.0752 125.941 54.7814C126.226 54.4686 126.712 54.1721 127.506 53.9602L126.991 52.0278ZM123.519 55.997C123.519 57.2218 124.031 58.2461 125.011 58.981L126.211 57.381C125.735 57.0239 125.519 56.5922 125.519 55.997H123.519ZM125.011 58.981C125.976 59.7049 127.251 60 128.705 60V58C127.49 58 126.702 57.7491 126.211 57.381L125.011 58.981ZM128.705 60H141.627V58H128.705V60ZM141.627 60C145.254 60 148.398 60.4166 151.073 61.2307L151.655 59.3173C148.748 58.4328 145.401 58 141.627 58V60ZM151.054 61.2247C153.676 62.0798 155.644 63.4549 157.019 65.3254L158.63 64.1406C156.972 61.8858 154.633 60.2882 151.674 59.3233L151.054 61.2247ZM157.022 65.3293C158.431 67.2259 159.191 69.8736 159.191 73.378H161.191C161.191 69.6024 160.373 66.4867 158.627 64.1367L157.022 65.3293ZM159.191 73.378V77.473H161.191V73.378H159.191ZM160.191 76.473H149.999V78.473H160.191V76.473ZM135.439 45.076C137.992 45.076 140.299 44.5967 142.335 43.6112L141.464 41.8108C139.74 42.6453 137.739 43.076 135.439 43.076V45.076ZM142.335 43.6112C144.376 42.6239 146.005 41.1978 147.2 39.3388L145.518 38.2572C144.529 39.7955 143.185 40.9781 141.464 41.8108L142.335 43.6112ZM147.2 39.3388C148.415 37.4488 148.997 35.1893 148.997 32.61H146.997C146.997 34.884 146.487 36.7499 145.518 38.2572L147.2 39.3388ZM148.997 32.61C148.997 30.0295 148.414 27.7468 147.208 25.8036L145.509 26.8584C146.487 28.4338 146.997 30.3372 146.997 32.61H148.997ZM147.208 25.8036C146.016 23.8818 144.385 22.4186 142.335 21.4268L141.464 23.2272C143.176 24.0554 144.518 25.2615 145.509 26.8584L147.208 25.8036ZM142.335 21.4268C140.299 20.4413 137.992 19.962 135.439 19.962V21.962C137.739 21.962 139.74 22.3927 141.464 23.2272L142.335 21.4268ZM135.439 19.962C132.941 19.962 130.641 20.4431 128.553 21.4215L129.402 23.2325C131.197 22.3909 133.204 21.962 135.439 21.962V19.962ZM128.542 21.4268C126.493 22.4186 124.862 23.8818 123.669 25.8036L125.368 26.8584C126.359 25.2615 127.702 24.0554 129.413 23.2272L128.542 21.4268ZM123.678 25.7902C122.46 27.684 121.881 29.9755 121.881 32.61H123.881C123.881 30.2699 124.393 28.3753 125.36 26.8718L123.678 25.7902ZM121.881 32.61C121.881 35.1893 122.463 37.4488 123.678 39.3388L125.36 38.2572C124.391 36.7499 123.881 34.884 123.881 32.61H121.881ZM123.678 39.3388C124.873 41.1978 126.502 42.6239 128.542 43.6112L129.413 41.8108C127.692 40.9781 126.349 39.7955 125.36 38.2572L123.678 39.3388ZM128.542 43.6112C130.579 44.5967 132.885 45.076 135.439 45.076V43.076C133.139 43.076 131.138 42.6453 129.413 41.8108L128.542 43.6112ZM196.003 0.0319996V-0.968H195.003V0.0319996H196.003ZM206.377 0.0319996H207.377V-0.968H206.377V0.0319996ZM206.377 59V60H207.377V59H206.377ZM196.003 59H195.003V60H196.003V59ZM196.003 1.032H206.377V-0.968H196.003V1.032ZM205.377 0.0319996V59H207.377V0.0319996H205.377ZM206.377 58H196.003V60H206.377V58ZM197.003 59V0.0319996H195.003V59H197.003ZM220.811 13.682V12.682H219.811V13.682H220.811ZM230.912 13.682H231.912V12.682H230.912V13.682ZM230.912 59V60H231.912V59H230.912ZM220.811 59H219.811V60H220.811V59ZM257.211 13.773L256.895 14.7217L256.902 14.7242L257.211 13.773ZM262.944 17.14L262.251 17.8608L262.265 17.8744L262.28 17.8874L262.944 17.14ZM266.675 22.6L265.743 22.9624L265.747 22.9736L265.752 22.9846L266.675 22.6ZM268.04 59V60H269.04V59H268.04ZM257.939 59H256.939V60H257.939V59ZM255.209 24.147L254.49 24.842L254.502 24.8542L254.514 24.866L255.209 24.147ZM238.829 23.328L239.285 24.2179L239.294 24.2134L238.829 23.328ZM233.005 28.151L233.793 28.7666L233.798 28.7608L233.802 28.7549L233.005 28.151ZM230.366 34.612L229.366 34.6305L231.361 34.714L230.366 34.612ZM230.275 29.698L229.284 29.5641L229.274 29.64L229.275 29.7165L230.275 29.698ZM232.277 23.328L233.166 23.786L233.171 23.7752L232.277 23.328ZM236.372 17.868L237.052 18.6008L237.059 18.5944L237.066 18.5878L236.372 17.868ZM242.378 14.046L242.745 14.9762L242.378 14.046ZM220.811 14.682H230.912V12.682H220.811V14.682ZM229.912 13.682V59H231.912V13.682H229.912ZM230.912 58H220.811V60H230.912V58ZM221.811 59V13.682H219.811V59H221.811ZM250.022 13.681C252.537 13.681 254.825 14.0319 256.895 14.7217L257.527 12.8243C255.229 12.0581 252.724 11.681 250.022 11.681V13.681ZM256.902 14.7242C259.015 15.4093 260.791 16.4572 262.251 17.8608L263.637 16.4192C261.942 14.7895 259.897 13.5927 257.519 12.8218L256.902 14.7242ZM262.28 17.8874C263.791 19.2309 264.947 20.9157 265.743 22.9624L267.607 22.2376C266.704 19.9163 265.373 17.9611 263.608 16.3926L262.28 17.8874ZM265.752 22.9846C266.6 25.0198 267.04 27.4617 267.04 30.335H269.04C269.04 27.263 268.57 24.5482 267.598 22.2154L265.752 22.9846ZM267.04 30.335V59H269.04V30.335H267.04ZM268.04 58H257.939V60H268.04V58ZM258.939 59V32.337H256.939V59H258.939ZM258.939 32.337C258.939 28.4909 257.994 25.4481 255.904 23.428L254.514 24.866C256.064 26.3645 256.939 28.7818 256.939 32.337H258.939ZM255.928 23.452C253.903 21.3567 250.793 20.417 246.837 20.417V22.417C250.525 22.417 252.997 23.2973 254.49 24.842L255.928 23.452ZM246.837 20.417C243.773 20.417 240.943 21.0886 238.364 22.4426L239.294 24.2134C241.568 23.0194 244.076 22.417 246.837 22.417V20.417ZM238.373 22.4382C235.881 23.7159 233.82 25.4185 232.208 27.5471L233.802 28.7549C235.223 26.8795 237.045 25.3667 239.285 24.2178L238.373 22.4382ZM232.217 27.5354C230.589 29.6194 229.634 31.9498 229.371 34.51L231.361 34.714C231.583 32.5422 232.388 30.5652 233.793 28.7666L232.217 27.5354ZM231.366 34.5935L231.275 29.6795L229.275 29.7165L229.366 34.6305L231.366 34.5935ZM231.266 29.8319C231.554 27.6996 232.187 25.686 233.166 23.786L231.388 22.87C230.304 24.974 229.602 27.207 229.284 29.5641L231.266 29.8319ZM233.171 23.7752C234.149 21.8204 235.441 20.097 237.052 18.6008L235.691 17.1352C233.905 18.7937 232.468 20.7103 231.383 22.8808L233.171 23.7752ZM237.066 18.5878C238.666 17.0452 240.555 15.8406 242.745 14.9762L242.011 13.1158C239.59 14.0714 237.475 15.4148 235.678 17.1482L237.066 18.5878ZM242.745 14.9762C244.92 14.1178 247.341 13.681 250.022 13.681V11.681C247.121 11.681 244.447 12.1542 242.011 13.1158L242.745 14.9762Z" fill="black" mask="url(#path-1-outside-1_310_232)"/>
</g>
<defs>
<filter id="filter0_d_310_232" x="0.542969" y="0.0319977" width="268.997" height="78.941" filterUnits="userSpaceOnUse" color-interpolation-filters="sRGB">
<feFlood flood-opacity="0" result="BackgroundImageFix"/>
<feColorMatrix in="SourceAlpha" type="matrix" values="0 0 0 0 0 0 0 0 0 0 0 0 0 0 0 0 0 0 127 0" result="hardAlpha"/>
<feOffset dx="1" dy="1"/>
<feGaussianBlur stdDeviation="0.25"/>
<feComposite in2="hardAlpha" operator="out"/>
<feColorMatrix type="matrix" values="0 0 0 0 1 0 0 0 0 1 0 0 0 0 1 0 0 0 1 0"/>
<feBlend mode="normal" in2="BackgroundImageFix" result="effect1_dropShadow_310_232"/>
<feBlend mode="normal" in="SourceGraphic" in2="effect1_dropShadow_310_232" result="shape"/>
</filter>
</defs>
</svg>
