<svg width="167" height="64" viewBox="0 0 167 64" fill="none" xmlns="http://www.w3.org/2000/svg">
<g filter="url(#filter0_d_240_3598)">
<mask id="path-1-outside-1_240_3598" maskUnits="userSpaceOnUse" x="0" y="0" width="165" height="62" fill="black">
<rect fill="white" width="165" height="62"/>
<path d="M16.088 20.112H14.456L25.464 1.264H29.08V22H25.464V6.48L26.296 6.704L17.272 22H13.304L4.28 6.768L5.144 6.512V22H1.496V1.264H5.144L16.088 20.112ZM46.8585 16.752H50.2825C50.1118 17.84 49.6852 18.8107 49.0025 19.664C48.3412 20.496 47.4345 21.1573 46.2825 21.648C45.1305 22.1173 43.7545 22.352 42.1545 22.352C40.3412 22.352 38.7198 22.0213 37.2905 21.36C35.8612 20.6773 34.7412 19.7173 33.9305 18.48C33.1198 17.2427 32.7145 15.7707 32.7145 14.064C32.7145 12.3787 33.1092 10.9067 33.8985 9.648C34.6878 8.38933 35.7758 7.41867 37.1625 6.736C38.5705 6.05333 40.1918 5.712 42.0265 5.712C43.9252 5.712 45.5038 6.05333 46.7625 6.736C48.0425 7.39733 48.9918 8.4 49.6105 9.744C50.2292 11.0667 50.4852 12.7413 50.3785 14.768H36.3305C36.4372 15.664 36.7252 16.4747 37.1945 17.2C37.6852 17.904 38.3465 18.4587 39.1785 18.864C40.0105 19.248 40.9812 19.44 42.0905 19.44C43.3278 19.44 44.3625 19.1947 45.1945 18.704C46.0478 18.2133 46.6025 17.5627 46.8585 16.752ZM41.9305 8.592C40.4798 8.592 39.2852 8.95467 38.3465 9.68C37.4078 10.384 36.7998 11.2907 36.5225 12.4H46.7945C46.7092 11.2053 46.2292 10.2773 45.3545 9.616C44.4798 8.93333 43.3385 8.592 41.9305 8.592ZM66.8585 16.752H70.2825C70.1118 17.84 69.6852 18.8107 69.0025 19.664C68.3412 20.496 67.4345 21.1573 66.2825 21.648C65.1305 22.1173 63.7545 22.352 62.1545 22.352C60.3412 22.352 58.7198 22.0213 57.2905 21.36C55.8612 20.6773 54.7412 19.7173 53.9305 18.48C53.1198 17.2427 52.7145 15.7707 52.7145 14.064C52.7145 12.3787 53.1092 10.9067 53.8985 9.648C54.6878 8.38933 55.7758 7.41867 57.1625 6.736C58.5705 6.05333 60.1918 5.712 62.0265 5.712C63.9252 5.712 65.5038 6.05333 66.7625 6.736C68.0425 7.39733 68.9918 8.4 69.6105 9.744C70.2292 11.0667 70.4852 12.7413 70.3785 14.768H56.3305C56.4372 15.664 56.7252 16.4747 57.1945 17.2C57.6852 17.904 58.3465 18.4587 59.1785 18.864C60.0105 19.248 60.9812 19.44 62.0905 19.44C63.3278 19.44 64.3625 19.1947 65.1945 18.704C66.0478 18.2133 66.6025 17.5627 66.8585 16.752ZM61.9305 8.592C60.4798 8.592 59.2852 8.95467 58.3465 9.68C57.4078 10.384 56.7998 11.2907 56.5225 12.4H66.7945C66.7092 11.2053 66.2292 10.2773 65.3545 9.616C64.4798 8.93333 63.3385 8.592 61.9305 8.592ZM72.1765 6.064H83.4405V8.976H72.1765V6.064ZM76.0165 1.776H79.6005V22H76.0165V1.776ZM112.841 1.264L104.393 15.248V22H100.745V15.248L92.297 1.264H96.489L103.625 13.488H101.641L108.681 1.264H112.841ZM120.933 22.352C119.162 22.352 117.573 22.032 116.165 21.392C114.757 20.752 113.647 19.8133 112.837 18.576C112.026 17.3387 111.621 15.8347 111.621 14.064C111.621 12.3147 112.026 10.8213 112.837 9.584C113.647 8.32533 114.757 7.36533 116.165 6.704C117.573 6.04267 119.162 5.712 120.933 5.712C122.703 5.712 124.282 6.04267 125.669 6.704C127.055 7.36533 128.143 8.32533 128.933 9.584C129.743 10.8213 130.149 12.3147 130.149 14.064C130.149 15.8347 129.743 17.3387 128.933 18.576C128.143 19.8133 127.055 20.752 125.669 21.392C124.282 22.032 122.703 22.352 120.933 22.352ZM120.933 19.44C121.957 19.44 122.895 19.2373 123.749 18.832C124.602 18.4267 125.274 17.8187 125.765 17.008C126.277 16.1973 126.533 15.216 126.533 14.064C126.533 12.912 126.277 11.9307 125.765 11.12C125.274 10.3093 124.602 9.69067 123.749 9.264C122.917 8.816 121.978 8.592 120.933 8.592C119.887 8.592 118.938 8.80533 118.085 9.232C117.231 9.65867 116.538 10.2773 116.005 11.088C115.493 11.8987 115.237 12.8907 115.237 14.064C115.237 15.216 115.493 16.1973 116.005 17.008C116.517 17.8187 117.199 18.4267 118.053 18.832C118.927 19.2373 119.887 19.44 120.933 19.44ZM149.936 22H146.384V6.064H149.936V22ZM146.576 14.416L146.608 15.44C146.565 15.7173 146.469 16.1333 146.32 16.688C146.192 17.2427 145.968 17.8507 145.648 18.512C145.349 19.152 144.944 19.7707 144.432 20.368C143.941 20.944 143.322 21.424 142.576 21.808C141.829 22.1707 140.922 22.352 139.856 22.352C139.088 22.352 138.309 22.2453 137.52 22.032C136.752 21.84 136.048 21.5093 135.408 21.04C134.789 20.5707 134.288 19.9307 133.904 19.12C133.52 18.3093 133.328 17.2853 133.328 16.048V6.064H136.88V15.376C136.88 16.3787 137.04 17.168 137.36 17.744C137.701 18.2987 138.17 18.6933 138.768 18.928C139.365 19.1627 140.058 19.28 140.848 19.28C141.978 19.28 142.938 19.024 143.728 18.512C144.517 18 145.146 17.3707 145.616 16.624C146.106 15.856 146.426 15.12 146.576 14.416ZM153.859 6.064H157.411V22H153.859V6.064ZM163.171 9.104C162.019 9.104 161.027 9.34933 160.195 9.84C159.384 10.3307 158.734 10.928 158.243 11.632C157.752 12.336 157.411 13.0187 157.219 13.68L157.187 11.888C157.208 11.6533 157.283 11.3013 157.411 10.832C157.539 10.3413 157.731 9.808 157.987 9.232C158.264 8.656 158.627 8.10133 159.075 7.568C159.544 7.01333 160.11 6.56533 160.771 6.224C161.454 5.88267 162.254 5.712 163.171 5.712V9.104ZM38.213 58.112H36.581L47.589 39.264H51.205V60H47.589V44.48L48.421 44.704L39.397 60H35.429L26.405 44.768L27.269 44.512V60H23.621V39.264H27.269L38.213 58.112ZM68.9835 54.752H72.4075C72.2368 55.84 71.8102 56.8107 71.1275 57.664C70.4662 58.496 69.5595 59.1573 68.4075 59.648C67.2555 60.1173 65.8795 60.352 64.2795 60.352C62.4662 60.352 60.8448 60.0213 59.4155 59.36C57.9862 58.6773 56.8662 57.7173 56.0555 56.48C55.2448 55.2427 54.8395 53.7707 54.8395 52.064C54.8395 50.3787 55.2342 48.9067 56.0235 47.648C56.8128 46.3893 57.9008 45.4187 59.2875 44.736C60.6955 44.0533 62.3168 43.712 64.1515 43.712C66.0502 43.712 67.6288 44.0533 68.8875 44.736C70.1675 45.3973 71.1168 46.4 71.7355 47.744C72.3542 49.0667 72.6102 50.7413 72.5035 52.768H58.4555C58.5622 53.664 58.8502 54.4747 59.3195 55.2C59.8102 55.904 60.4715 56.4587 61.3035 56.864C62.1355 57.248 63.1062 57.44 64.2155 57.44C65.4528 57.44 66.4875 57.1947 67.3195 56.704C68.1728 56.2133 68.7275 55.5627 68.9835 54.752ZM64.0555 46.592C62.6048 46.592 61.4102 46.9547 60.4715 47.68C59.5328 48.384 58.9248 49.2907 58.6475 50.4H68.9195C68.8342 49.2053 68.3542 48.2773 67.4795 47.616C66.6048 46.9333 65.4635 46.592 64.0555 46.592ZM75.6715 44.064H79.2235V60H75.6715V44.064ZM85.9435 43.712C86.8608 43.712 87.7035 43.84 88.4715 44.096C89.2608 44.352 89.9328 44.7467 90.4875 45.28C91.0635 45.792 91.5008 46.432 91.7995 47.2C92.1195 47.968 92.2795 48.8747 92.2795 49.92V60H88.7275V50.624C88.7275 49.3227 88.4075 48.3627 87.7675 47.744C87.1488 47.104 86.1675 46.784 84.8235 46.784C83.7995 46.784 82.8608 47.008 82.0075 47.456C81.1755 47.8827 80.4928 48.448 79.9595 49.152C79.4262 49.8347 79.1168 50.592 79.0315 51.424L78.9995 49.696C79.1062 48.9067 79.3408 48.16 79.7035 47.456C80.0662 46.7307 80.5462 46.0907 81.1435 45.536C81.7408 44.96 82.4448 44.512 83.2555 44.192C84.0662 43.872 84.9622 43.712 85.9435 43.712ZM95.0828 44.064H106.347V46.976H95.0828V44.064ZM98.9227 39.776H102.507V60H98.9227V39.776ZM117.37 60.352C115.6 60.352 114.01 60.032 112.602 59.392C111.194 58.752 110.085 57.8133 109.274 56.576C108.464 55.3387 108.058 53.8347 108.058 52.064C108.058 50.3147 108.464 48.8213 109.274 47.584C110.085 46.3253 111.194 45.3653 112.602 44.704C114.01 44.0427 115.6 43.712 117.37 43.712C119.141 43.712 120.72 44.0427 122.106 44.704C123.493 45.3653 124.581 46.3253 125.37 47.584C126.181 48.8213 126.586 50.3147 126.586 52.064C126.586 53.8347 126.181 55.3387 125.37 56.576C124.581 57.8133 123.493 58.752 122.106 59.392C120.72 60.032 119.141 60.352 117.37 60.352ZM117.37 57.44C118.394 57.44 119.333 57.2373 120.186 56.832C121.04 56.4267 121.712 55.8187 122.202 55.008C122.714 54.1973 122.97 53.216 122.97 52.064C122.97 50.912 122.714 49.9307 122.202 49.12C121.712 48.3093 121.04 47.6907 120.186 47.264C119.354 46.816 118.416 46.592 117.37 46.592C116.325 46.592 115.376 46.8053 114.522 47.232C113.669 47.6587 112.976 48.2773 112.442 49.088C111.93 49.8987 111.674 50.8907 111.674 52.064C111.674 53.216 111.93 54.1973 112.442 55.008C112.954 55.8187 113.637 56.4267 114.49 56.832C115.365 57.2373 116.325 57.44 117.37 57.44ZM129.765 44.064H133.317V60H129.765V44.064ZM139.077 47.104C137.925 47.104 136.933 47.3493 136.101 47.84C135.291 48.3307 134.64 48.928 134.149 49.632C133.659 50.336 133.317 51.0187 133.125 51.68L133.093 49.888C133.115 49.6533 133.189 49.3013 133.317 48.832C133.445 48.3413 133.637 47.808 133.893 47.232C134.171 46.656 134.533 46.1013 134.981 45.568C135.451 45.0133 136.016 44.5653 136.677 44.224C137.36 43.8827 138.16 43.712 139.077 43.712V47.104Z"/>
</mask>
<path d="M16.088 20.112H14.456L25.464 1.264H29.08V22H25.464V6.48L26.296 6.704L17.272 22H13.304L4.28 6.768L5.144 6.512V22H1.496V1.264H5.144L16.088 20.112ZM46.8585 16.752H50.2825C50.1118 17.84 49.6852 18.8107 49.0025 19.664C48.3412 20.496 47.4345 21.1573 46.2825 21.648C45.1305 22.1173 43.7545 22.352 42.1545 22.352C40.3412 22.352 38.7198 22.0213 37.2905 21.36C35.8612 20.6773 34.7412 19.7173 33.9305 18.48C33.1198 17.2427 32.7145 15.7707 32.7145 14.064C32.7145 12.3787 33.1092 10.9067 33.8985 9.648C34.6878 8.38933 35.7758 7.41867 37.1625 6.736C38.5705 6.05333 40.1918 5.712 42.0265 5.712C43.9252 5.712 45.5038 6.05333 46.7625 6.736C48.0425 7.39733 48.9918 8.4 49.6105 9.744C50.2292 11.0667 50.4852 12.7413 50.3785 14.768H36.3305C36.4372 15.664 36.7252 16.4747 37.1945 17.2C37.6852 17.904 38.3465 18.4587 39.1785 18.864C40.0105 19.248 40.9812 19.44 42.0905 19.44C43.3278 19.44 44.3625 19.1947 45.1945 18.704C46.0478 18.2133 46.6025 17.5627 46.8585 16.752ZM41.9305 8.592C40.4798 8.592 39.2852 8.95467 38.3465 9.68C37.4078 10.384 36.7998 11.2907 36.5225 12.4H46.7945C46.7092 11.2053 46.2292 10.2773 45.3545 9.616C44.4798 8.93333 43.3385 8.592 41.9305 8.592ZM66.8585 16.752H70.2825C70.1118 17.84 69.6852 18.8107 69.0025 19.664C68.3412 20.496 67.4345 21.1573 66.2825 21.648C65.1305 22.1173 63.7545 22.352 62.1545 22.352C60.3412 22.352 58.7198 22.0213 57.2905 21.36C55.8612 20.6773 54.7412 19.7173 53.9305 18.48C53.1198 17.2427 52.7145 15.7707 52.7145 14.064C52.7145 12.3787 53.1092 10.9067 53.8985 9.648C54.6878 8.38933 55.7758 7.41867 57.1625 6.736C58.5705 6.05333 60.1918 5.712 62.0265 5.712C63.9252 5.712 65.5038 6.05333 66.7625 6.736C68.0425 7.39733 68.9918 8.4 69.6105 9.744C70.2292 11.0667 70.4852 12.7413 70.3785 14.768H56.3305C56.4372 15.664 56.7252 16.4747 57.1945 17.2C57.6852 17.904 58.3465 18.4587 59.1785 18.864C60.0105 19.248 60.9812 19.44 62.0905 19.44C63.3278 19.44 64.3625 19.1947 65.1945 18.704C66.0478 18.2133 66.6025 17.5627 66.8585 16.752ZM61.9305 8.592C60.4798 8.592 59.2852 8.95467 58.3465 9.68C57.4078 10.384 56.7998 11.2907 56.5225 12.4H66.7945C66.7092 11.2053 66.2292 10.2773 65.3545 9.616C64.4798 8.93333 63.3385 8.592 61.9305 8.592ZM72.1765 6.064H83.4405V8.976H72.1765V6.064ZM76.0165 1.776H79.6005V22H76.0165V1.776ZM112.841 1.264L104.393 15.248V22H100.745V15.248L92.297 1.264H96.489L103.625 13.488H101.641L108.681 1.264H112.841ZM120.933 22.352C119.162 22.352 117.573 22.032 116.165 21.392C114.757 20.752 113.647 19.8133 112.837 18.576C112.026 17.3387 111.621 15.8347 111.621 14.064C111.621 12.3147 112.026 10.8213 112.837 9.584C113.647 8.32533 114.757 7.36533 116.165 6.704C117.573 6.04267 119.162 5.712 120.933 5.712C122.703 5.712 124.282 6.04267 125.669 6.704C127.055 7.36533 128.143 8.32533 128.933 9.584C129.743 10.8213 130.149 12.3147 130.149 14.064C130.149 15.8347 129.743 17.3387 128.933 18.576C128.143 19.8133 127.055 20.752 125.669 21.392C124.282 22.032 122.703 22.352 120.933 22.352ZM120.933 19.44C121.957 19.44 122.895 19.2373 123.749 18.832C124.602 18.4267 125.274 17.8187 125.765 17.008C126.277 16.1973 126.533 15.216 126.533 14.064C126.533 12.912 126.277 11.9307 125.765 11.12C125.274 10.3093 124.602 9.69067 123.749 9.264C122.917 8.816 121.978 8.592 120.933 8.592C119.887 8.592 118.938 8.80533 118.085 9.232C117.231 9.65867 116.538 10.2773 116.005 11.088C115.493 11.8987 115.237 12.8907 115.237 14.064C115.237 15.216 115.493 16.1973 116.005 17.008C116.517 17.8187 117.199 18.4267 118.053 18.832C118.927 19.2373 119.887 19.44 120.933 19.44ZM149.936 22H146.384V6.064H149.936V22ZM146.576 14.416L146.608 15.44C146.565 15.7173 146.469 16.1333 146.32 16.688C146.192 17.2427 145.968 17.8507 145.648 18.512C145.349 19.152 144.944 19.7707 144.432 20.368C143.941 20.944 143.322 21.424 142.576 21.808C141.829 22.1707 140.922 22.352 139.856 22.352C139.088 22.352 138.309 22.2453 137.52 22.032C136.752 21.84 136.048 21.5093 135.408 21.04C134.789 20.5707 134.288 19.9307 133.904 19.12C133.52 18.3093 133.328 17.2853 133.328 16.048V6.064H136.88V15.376C136.88 16.3787 137.04 17.168 137.36 17.744C137.701 18.2987 138.17 18.6933 138.768 18.928C139.365 19.1627 140.058 19.28 140.848 19.28C141.978 19.28 142.938 19.024 143.728 18.512C144.517 18 145.146 17.3707 145.616 16.624C146.106 15.856 146.426 15.12 146.576 14.416ZM153.859 6.064H157.411V22H153.859V6.064ZM163.171 9.104C162.019 9.104 161.027 9.34933 160.195 9.84C159.384 10.3307 158.734 10.928 158.243 11.632C157.752 12.336 157.411 13.0187 157.219 13.68L157.187 11.888C157.208 11.6533 157.283 11.3013 157.411 10.832C157.539 10.3413 157.731 9.808 157.987 9.232C158.264 8.656 158.627 8.10133 159.075 7.568C159.544 7.01333 160.11 6.56533 160.771 6.224C161.454 5.88267 162.254 5.712 163.171 5.712V9.104ZM38.213 58.112H36.581L47.589 39.264H51.205V60H47.589V44.48L48.421 44.704L39.397 60H35.429L26.405 44.768L27.269 44.512V60H23.621V39.264H27.269L38.213 58.112ZM68.9835 54.752H72.4075C72.2368 55.84 71.8102 56.8107 71.1275 57.664C70.4662 58.496 69.5595 59.1573 68.4075 59.648C67.2555 60.1173 65.8795 60.352 64.2795 60.352C62.4662 60.352 60.8448 60.0213 59.4155 59.36C57.9862 58.6773 56.8662 57.7173 56.0555 56.48C55.2448 55.2427 54.8395 53.7707 54.8395 52.064C54.8395 50.3787 55.2342 48.9067 56.0235 47.648C56.8128 46.3893 57.9008 45.4187 59.2875 44.736C60.6955 44.0533 62.3168 43.712 64.1515 43.712C66.0502 43.712 67.6288 44.0533 68.8875 44.736C70.1675 45.3973 71.1168 46.4 71.7355 47.744C72.3542 49.0667 72.6102 50.7413 72.5035 52.768H58.4555C58.5622 53.664 58.8502 54.4747 59.3195 55.2C59.8102 55.904 60.4715 56.4587 61.3035 56.864C62.1355 57.248 63.1062 57.44 64.2155 57.44C65.4528 57.44 66.4875 57.1947 67.3195 56.704C68.1728 56.2133 68.7275 55.5627 68.9835 54.752ZM64.0555 46.592C62.6048 46.592 61.4102 46.9547 60.4715 47.68C59.5328 48.384 58.9248 49.2907 58.6475 50.4H68.9195C68.8342 49.2053 68.3542 48.2773 67.4795 47.616C66.6048 46.9333 65.4635 46.592 64.0555 46.592ZM75.6715 44.064H79.2235V60H75.6715V44.064ZM85.9435 43.712C86.8608 43.712 87.7035 43.84 88.4715 44.096C89.2608 44.352 89.9328 44.7467 90.4875 45.28C91.0635 45.792 91.5008 46.432 91.7995 47.2C92.1195 47.968 92.2795 48.8747 92.2795 49.92V60H88.7275V50.624C88.7275 49.3227 88.4075 48.3627 87.7675 47.744C87.1488 47.104 86.1675 46.784 84.8235 46.784C83.7995 46.784 82.8608 47.008 82.0075 47.456C81.1755 47.8827 80.4928 48.448 79.9595 49.152C79.4262 49.8347 79.1168 50.592 79.0315 51.424L78.9995 49.696C79.1062 48.9067 79.3408 48.16 79.7035 47.456C80.0662 46.7307 80.5462 46.0907 81.1435 45.536C81.7408 44.96 82.4448 44.512 83.2555 44.192C84.0662 43.872 84.9622 43.712 85.9435 43.712ZM95.0828 44.064H106.347V46.976H95.0828V44.064ZM98.9227 39.776H102.507V60H98.9227V39.776ZM117.37 60.352C115.6 60.352 114.01 60.032 112.602 59.392C111.194 58.752 110.085 57.8133 109.274 56.576C108.464 55.3387 108.058 53.8347 108.058 52.064C108.058 50.3147 108.464 48.8213 109.274 47.584C110.085 46.3253 111.194 45.3653 112.602 44.704C114.01 44.0427 115.6 43.712 117.37 43.712C119.141 43.712 120.72 44.0427 122.106 44.704C123.493 45.3653 124.581 46.3253 125.37 47.584C126.181 48.8213 126.586 50.3147 126.586 52.064C126.586 53.8347 126.181 55.3387 125.37 56.576C124.581 57.8133 123.493 58.752 122.106 59.392C120.72 60.032 119.141 60.352 117.37 60.352ZM117.37 57.44C118.394 57.44 119.333 57.2373 120.186 56.832C121.04 56.4267 121.712 55.8187 122.202 55.008C122.714 54.1973 122.97 53.216 122.97 52.064C122.97 50.912 122.714 49.9307 122.202 49.12C121.712 48.3093 121.04 47.6907 120.186 47.264C119.354 46.816 118.416 46.592 117.37 46.592C116.325 46.592 115.376 46.8053 114.522 47.232C113.669 47.6587 112.976 48.2773 112.442 49.088C111.93 49.8987 111.674 50.8907 111.674 52.064C111.674 53.216 111.93 54.1973 112.442 55.008C112.954 55.8187 113.637 56.4267 114.49 56.832C115.365 57.2373 116.325 57.44 117.37 57.44ZM129.765 44.064H133.317V60H129.765V44.064ZM139.077 47.104C137.925 47.104 136.933 47.3493 136.101 47.84C135.291 48.3307 134.64 48.928 134.149 49.632C133.659 50.336 133.317 51.0187 133.125 51.68L133.093 49.888C133.115 49.6533 133.189 49.3013 133.317 48.832C133.445 48.3413 133.637 47.808 133.893 47.232C134.171 46.656 134.533 46.1013 134.981 45.568C135.451 45.0133 136.016 44.5653 136.677 44.224C137.36 43.8827 138.16 43.712 139.077 43.712V47.104Z" fill="black"/>
<path d="M16.088 20.112V21.112H17.825L16.9528 19.6099L16.088 20.112ZM14.456 20.112L13.5925 19.6077L12.7139 21.112H14.456V20.112ZM25.464 1.264V0.264H24.89L24.6005 0.759673L25.464 1.264ZM29.08 1.264H30.08V0.264H29.08V1.264ZM29.08 22V23H30.08V22H29.08ZM25.464 22H24.464V23H25.464V22ZM25.464 6.48L25.724 5.51438L24.464 5.17516V6.48H25.464ZM26.296 6.704L27.1573 7.21212L27.8251 6.08008L26.556 5.73838L26.296 6.704ZM17.272 22V23H17.8431L18.1333 22.5081L17.272 22ZM13.304 22L12.4437 22.5097L12.7341 23H13.304V22ZM4.28 6.768L3.99591 5.8092L2.76562 6.17373L3.41965 7.2777L4.28 6.768ZM5.144 6.512H6.144V5.17273L4.85991 5.5532L5.144 6.512ZM5.144 22V23H6.144V22H5.144ZM1.496 22H0.496V23H1.496V22ZM1.496 1.264V0.264H0.496V1.264H1.496ZM5.144 1.264L6.00879 0.761864L5.71971 0.264H5.144V1.264ZM16.088 19.112H14.456V21.112H16.088V19.112ZM15.3195 20.6163L26.3275 1.76833L24.6005 0.759673L13.5925 19.6077L15.3195 20.6163ZM25.464 2.264H29.08V0.264H25.464V2.264ZM28.08 1.264V22H30.08V1.264H28.08ZM29.08 21H25.464V23H29.08V21ZM26.464 22V6.48H24.464V22H26.464ZM25.204 7.44562L26.036 7.66962L26.556 5.73838L25.724 5.51438L25.204 7.44562ZM25.4347 6.19588L16.4107 21.4919L18.1333 22.5081L27.1573 7.21212L25.4347 6.19588ZM17.272 21H13.304V23H17.272V21ZM14.1644 21.4903L5.14035 6.2583L3.41965 7.2777L12.4437 22.5097L14.1644 21.4903ZM4.56409 7.7268L5.42809 7.4708L4.85991 5.5532L3.99591 5.8092L4.56409 7.7268ZM4.144 6.512V22H6.144V6.512H4.144ZM5.144 21H1.496V23H5.144V21ZM2.496 22V1.264H0.496V22H2.496ZM1.496 2.264H5.144V0.264H1.496V2.264ZM4.27921 1.76614L15.2232 20.6141L16.9528 19.6099L6.00879 0.761864L4.27921 1.76614ZM46.8585 16.752V15.752H46.1256L45.9049 16.4509L46.8585 16.752ZM50.2825 16.752L51.2704 16.907L51.4516 15.752H50.2825V16.752ZM49.0025 19.664L48.2216 19.0393L48.2197 19.0418L49.0025 19.664ZM46.2825 21.648L46.6598 22.5741L46.6671 22.5711L46.6744 22.568L46.2825 21.648ZM37.2905 21.36L36.8595 22.2624L36.8706 22.2676L37.2905 21.36ZM33.9305 18.48L33.094 19.028L33.094 19.028L33.9305 18.48ZM33.8985 9.648L34.7457 10.1793L34.7457 10.1793L33.8985 9.648ZM37.1625 6.736L36.7262 5.83617L36.7208 5.83883L37.1625 6.736ZM46.7625 6.736L46.2857 7.61503L46.2946 7.61982L46.3035 7.62442L46.7625 6.736ZM49.6105 9.744L48.7021 10.1622L48.7047 10.1677L49.6105 9.744ZM50.3785 14.768V15.768H51.3273L51.3771 14.8206L50.3785 14.768ZM36.3305 14.768V13.768H35.2044L35.3375 14.8862L36.3305 14.768ZM37.1945 17.2L36.3549 17.7433L36.3643 17.7577L36.3741 17.7718L37.1945 17.2ZM39.1785 18.864L38.7405 19.763L38.7499 19.7676L38.7594 19.772L39.1785 18.864ZM45.1945 18.704L44.696 17.837L44.6865 17.8426L45.1945 18.704ZM38.3465 9.68L38.9465 10.48L38.9523 10.4757L38.9579 10.4713L38.3465 9.68ZM36.5225 12.4L35.5524 12.1575L35.2417 13.4H36.5225V12.4ZM46.7945 12.4V13.4H47.8685L47.792 12.3288L46.7945 12.4ZM45.3545 9.616L44.7392 10.4043L44.7453 10.409L44.7514 10.4137L45.3545 9.616ZM46.8585 17.752H50.2825V15.752H46.8585V17.752ZM49.2946 16.597C49.1507 17.5145 48.7947 18.323 48.2216 19.0393L49.7834 20.2887C50.5756 19.2984 51.073 18.1655 51.2704 16.907L49.2946 16.597ZM48.2197 19.0418C47.6789 19.7221 46.9169 20.2909 45.8906 20.728L46.6744 22.568C47.9521 22.0238 49.0035 21.2699 49.7853 20.2862L48.2197 19.0418ZM45.9052 20.7219C44.9019 21.1307 43.6605 21.352 42.1545 21.352V23.352C43.8485 23.352 45.3591 23.104 46.6598 22.5741L45.9052 20.7219ZM42.1545 21.352C40.4643 21.352 38.9896 21.0443 37.7104 20.4524L36.8706 22.2676C38.45 22.9984 40.218 23.352 42.1545 23.352V21.352ZM37.7215 20.4576C36.445 19.848 35.4703 19.0055 34.767 17.932L33.094 19.028C34.0121 20.4292 35.2773 21.5067 36.8595 22.2624L37.7215 20.4576ZM34.767 17.932C34.0787 16.8814 33.7145 15.6067 33.7145 14.064H31.7145C31.7145 15.9347 32.161 17.6039 33.094 19.028L34.767 17.932ZM33.7145 14.064C33.7145 12.5407 34.0691 11.2581 34.7457 10.1793L33.0513 9.11671C32.1492 10.5552 31.7145 12.2166 31.7145 14.064H33.7145ZM34.7457 10.1793C35.4323 9.08437 36.377 8.23733 37.6042 7.63317L36.7208 5.83883C35.1747 6.6 33.9433 7.6943 33.0513 9.11671L34.7457 10.1793ZM37.5988 7.63581C38.8492 7.02953 40.317 6.712 42.0265 6.712V4.712C40.0666 4.712 38.2918 5.07714 36.7262 5.83618L37.5988 7.63581ZM42.0265 6.712C43.811 6.712 45.2134 7.03343 46.2857 7.61503L47.2393 5.85697C45.7943 5.07324 44.0394 4.712 42.0265 4.712V6.712ZM46.3035 7.62442C47.3798 8.18052 48.1739 9.01471 48.7021 10.1621L50.5189 9.32586C49.8097 7.78529 48.7052 6.61415 47.2215 5.84757L46.3035 7.62442ZM48.7047 10.1677C49.232 11.295 49.4811 12.7922 49.3799 14.7154L51.3771 14.8206C51.4892 12.6904 51.2263 10.8383 50.5163 9.32031L48.7047 10.1677ZM50.3785 13.768H36.3305V15.768H50.3785V13.768ZM35.3375 14.8862C35.4614 15.9268 35.799 16.8841 36.3549 17.7433L38.0341 16.6567C37.6513 16.0653 37.4129 15.4012 37.3235 14.6498L35.3375 14.8862ZM36.3741 17.7718C36.9699 18.6266 37.7676 19.289 38.7405 19.763L39.6165 17.965C38.9254 17.6283 38.4005 17.1814 38.0149 16.6282L36.3741 17.7718ZM38.7594 19.772C39.7475 20.228 40.8664 20.44 42.0905 20.44V18.44C41.0959 18.44 40.2735 18.268 39.5976 17.956L38.7594 19.772ZM42.0905 20.44C43.4572 20.44 44.679 20.1689 45.7025 19.5654L44.6865 17.8426C44.046 18.2204 43.1985 18.44 42.0905 18.44V20.44ZM45.693 19.5709C46.7269 18.9764 47.4688 18.1402 47.8121 17.0531L45.9049 16.4509C45.7362 16.9851 45.3688 17.4503 44.696 17.8371L45.693 19.5709ZM41.9305 7.592C40.3091 7.592 38.8851 8.00008 37.7351 8.88871L38.9579 10.4713C39.6853 9.90925 40.6505 9.592 41.9305 9.592V7.592ZM37.7465 8.88C36.6293 9.71789 35.887 10.8191 35.5524 12.1575L37.4926 12.6425C37.7127 11.7623 38.1864 11.0501 38.9465 10.48L37.7465 8.88ZM36.5225 13.4H46.7945V11.4H36.5225V13.4ZM47.792 12.3288C47.6882 10.8763 47.0852 9.6709 45.9576 8.81834L44.7514 10.4137C45.3732 10.8838 45.7301 11.5344 45.797 12.4712L47.792 12.3288ZM45.9698 8.82768C44.8767 7.97458 43.5006 7.592 41.9305 7.592V9.592C43.1764 9.592 44.0829 9.89209 44.7392 10.4043L45.9698 8.82768ZM66.8585 16.752V15.752H66.1256L65.9049 16.4509L66.8585 16.752ZM70.2825 16.752L71.2704 16.907L71.4516 15.752H70.2825V16.752ZM69.0025 19.664L68.2216 19.0393L68.2197 19.0418L69.0025 19.664ZM66.2825 21.648L66.6598 22.5741L66.6671 22.5711L66.6744 22.568L66.2825 21.648ZM57.2905 21.36L56.8595 22.2624L56.8706 22.2676L57.2905 21.36ZM53.9305 18.48L53.094 19.028L53.094 19.028L53.9305 18.48ZM53.8985 9.648L54.7457 10.1793L54.7457 10.1793L53.8985 9.648ZM57.1625 6.736L56.7262 5.83617L56.7208 5.83883L57.1625 6.736ZM66.7625 6.736L66.2857 7.61503L66.2946 7.61982L66.3035 7.62442L66.7625 6.736ZM69.6105 9.744L68.7021 10.1622L68.7047 10.1677L69.6105 9.744ZM70.3785 14.768V15.768H71.3273L71.3771 14.8206L70.3785 14.768ZM56.3305 14.768V13.768H55.2044L55.3375 14.8862L56.3305 14.768ZM57.1945 17.2L56.3549 17.7433L56.3643 17.7577L56.3741 17.7718L57.1945 17.2ZM59.1785 18.864L58.7405 19.763L58.7499 19.7676L58.7594 19.772L59.1785 18.864ZM65.1945 18.704L64.696 17.837L64.6865 17.8426L65.1945 18.704ZM58.3465 9.68L58.9465 10.48L58.9523 10.4757L58.9579 10.4713L58.3465 9.68ZM56.5225 12.4L55.5524 12.1575L55.2417 13.4H56.5225V12.4ZM66.7945 12.4V13.4H67.8685L67.792 12.3288L66.7945 12.4ZM65.3545 9.616L64.7392 10.4043L64.7453 10.409L64.7514 10.4137L65.3545 9.616ZM66.8585 17.752H70.2825V15.752H66.8585V17.752ZM69.2946 16.597C69.1507 17.5145 68.7947 18.323 68.2216 19.0393L69.7834 20.2887C70.5756 19.2984 71.073 18.1655 71.2704 16.907L69.2946 16.597ZM68.2197 19.0418C67.6789 19.7221 66.9169 20.2909 65.8906 20.728L66.6744 22.568C67.9521 22.0238 69.0035 21.2699 69.7853 20.2862L68.2197 19.0418ZM65.9052 20.7219C64.9019 21.1307 63.6605 21.352 62.1545 21.352V23.352C63.8485 23.352 65.3591 23.104 66.6598 22.5741L65.9052 20.7219ZM62.1545 21.352C60.4643 21.352 58.9896 21.0443 57.7104 20.4524L56.8706 22.2676C58.45 22.9984 60.218 23.352 62.1545 23.352V21.352ZM57.7215 20.4576C56.445 19.848 55.4703 19.0055 54.767 17.932L53.094 19.028C54.0121 20.4292 55.2773 21.5067 56.8595 22.2624L57.7215 20.4576ZM54.767 17.932C54.0787 16.8814 53.7145 15.6067 53.7145 14.064H51.7145C51.7145 15.9347 52.161 17.6039 53.094 19.028L54.767 17.932ZM53.7145 14.064C53.7145 12.5407 54.0691 11.2581 54.7457 10.1793L53.0513 9.11671C52.1492 10.5552 51.7145 12.2166 51.7145 14.064H53.7145ZM54.7457 10.1793C55.4323 9.08437 56.377 8.23733 57.6042 7.63317L56.7208 5.83883C55.1747 6.6 53.9433 7.6943 53.0513 9.11671L54.7457 10.1793ZM57.5988 7.63581C58.8492 7.02953 60.317 6.712 62.0265 6.712V4.712C60.0666 4.712 58.2918 5.07714 56.7262 5.83618L57.5988 7.63581ZM62.0265 6.712C63.811 6.712 65.2134 7.03343 66.2857 7.61503L67.2393 5.85697C65.7943 5.07324 64.0394 4.712 62.0265 4.712V6.712ZM66.3035 7.62442C67.3798 8.18052 68.1739 9.01471 68.7021 10.1621L70.5189 9.32586C69.8097 7.78529 68.7052 6.61415 67.2215 5.84757L66.3035 7.62442ZM68.7047 10.1677C69.232 11.295 69.4811 12.7922 69.3799 14.7154L71.3771 14.8206C71.4892 12.6904 71.2263 10.8383 70.5163 9.32031L68.7047 10.1677ZM70.3785 13.768H56.3305V15.768H70.3785V13.768ZM55.3375 14.8862C55.4614 15.9268 55.799 16.8841 56.3549 17.7433L58.0341 16.6567C57.6513 16.0653 57.4129 15.4012 57.3235 14.6498L55.3375 14.8862ZM56.3741 17.7718C56.9699 18.6266 57.7676 19.289 58.7405 19.763L59.6165 17.965C58.9254 17.6283 58.4005 17.1814 58.0149 16.6282L56.3741 17.7718ZM58.7594 19.772C59.7475 20.228 60.8664 20.44 62.0905 20.44V18.44C61.0959 18.44 60.2735 18.268 59.5976 17.956L58.7594 19.772ZM62.0905 20.44C63.4572 20.44 64.679 20.1689 65.7025 19.5654L64.6865 17.8426C64.046 18.2204 63.1985 18.44 62.0905 18.44V20.44ZM65.693 19.5709C66.7269 18.9764 67.4688 18.1402 67.8121 17.0531L65.9049 16.4509C65.7362 16.9851 65.3688 17.4503 64.696 17.8371L65.693 19.5709ZM61.9305 7.592C60.3091 7.592 58.8851 8.00008 57.7351 8.88871L58.9579 10.4713C59.6853 9.90925 60.6505 9.592 61.9305 9.592V7.592ZM57.7465 8.88C56.6293 9.71789 55.887 10.8191 55.5524 12.1575L57.4926 12.6425C57.7127 11.7623 58.1864 11.0501 58.9465 10.48L57.7465 8.88ZM56.5225 13.4H66.7945V11.4H56.5225V13.4ZM67.792 12.3288C67.6882 10.8763 67.0852 9.6709 65.9576 8.81834L64.7514 10.4137C65.3732 10.8838 65.7301 11.5344 65.797 12.4712L67.792 12.3288ZM65.9698 8.82768C64.8767 7.97458 63.5006 7.592 61.9305 7.592V9.592C63.1764 9.592 64.0829 9.89209 64.7392 10.4043L65.9698 8.82768ZM72.1765 6.064V5.064H71.1765V6.064H72.1765ZM83.4405 6.064H84.4405V5.064H83.4405V6.064ZM83.4405 8.976V9.976H84.4405V8.976H83.4405ZM72.1765 8.976H71.1765V9.976H72.1765V8.976ZM76.0165 1.776V0.775999H75.0165V1.776H76.0165ZM79.6005 1.776H80.6005V0.775999H79.6005V1.776ZM79.6005 22V23H80.6005V22H79.6005ZM76.0165 22H75.0165V23H76.0165V22ZM72.1765 7.064H83.4405V5.064H72.1765V7.064ZM82.4405 6.064V8.976H84.4405V6.064H82.4405ZM83.4405 7.976H72.1765V9.976H83.4405V7.976ZM73.1765 8.976V6.064H71.1765V8.976H73.1765ZM76.0165 2.776H79.6005V0.775999H76.0165V2.776ZM78.6005 1.776V22H80.6005V1.776H78.6005ZM79.6005 21H76.0165V23H79.6005V21ZM77.0165 22V1.776H75.0165V22H77.0165ZM112.841 1.264L113.697 1.78109L114.613 0.264H112.841V1.264ZM104.393 15.248L103.537 14.7309L103.393 14.9694V15.248H104.393ZM104.393 22V23H105.393V22H104.393ZM100.745 22H99.745V23H100.745V22ZM100.745 15.248H101.745V14.9694L101.601 14.7309L100.745 15.248ZM92.297 1.264V0.264H90.5246L91.4411 1.78109L92.297 1.264ZM96.489 1.264L97.3526 0.759848L97.0632 0.264H96.489V1.264ZM103.625 13.488V14.488H105.367L104.489 12.9838L103.625 13.488ZM101.641 13.488L100.774 12.9889L99.9111 14.488H101.641V13.488ZM108.681 1.264V0.264H108.103L107.814 0.764932L108.681 1.264ZM111.985 0.746914L103.537 14.7309L105.249 15.7651L113.697 1.78109L111.985 0.746914ZM103.393 15.248V22H105.393V15.248H103.393ZM104.393 21H100.745V23H104.393V21ZM101.745 22V15.248H99.745V22H101.745ZM101.601 14.7309L93.1529 0.746914L91.4411 1.78109L99.8891 15.7651L101.601 14.7309ZM92.297 2.264H96.489V0.264H92.297V2.264ZM95.6254 1.76815L102.761 13.9922L104.489 12.9838L97.3526 0.759848L95.6254 1.76815ZM103.625 12.488H101.641V14.488H103.625V12.488ZM102.508 13.9871L109.548 1.76307L107.814 0.764932L100.774 12.9889L102.508 13.9871ZM108.681 2.264H112.841V0.264H108.681V2.264ZM116.165 21.392L115.751 22.3024L115.751 22.3024L116.165 21.392ZM112.837 18.576L113.673 18.028L112.837 18.576ZM112.837 9.584L113.673 10.132L113.677 10.1255L112.837 9.584ZM116.165 6.704L115.74 5.79887L115.74 5.79887L116.165 6.704ZM128.933 9.584L128.086 10.1153L128.091 10.1237L128.096 10.132L128.933 9.584ZM128.933 18.576L128.096 18.0279L128.09 18.0382L128.933 18.576ZM125.669 21.392L125.25 20.484L125.669 21.392ZM125.765 17.008L124.919 16.474L124.914 16.4821L124.909 16.4902L125.765 17.008ZM125.765 11.12L124.909 11.6378L124.914 11.6459L124.919 11.654L125.765 11.12ZM123.749 9.264L123.275 10.1445L123.288 10.1517L123.302 10.1584L123.749 9.264ZM118.085 9.232L117.638 8.33757L117.638 8.33757L118.085 9.232ZM116.005 11.088L115.169 10.5384L115.164 10.5461L115.159 10.554L116.005 11.088ZM116.005 17.008L115.159 17.542L115.159 17.542L116.005 17.008ZM118.053 18.832L117.624 19.7353L117.632 19.7393L118.053 18.832ZM120.933 21.352C119.284 21.352 117.839 21.0546 116.579 20.4816L115.751 22.3024C117.306 23.0094 119.04 23.352 120.933 23.352V21.352ZM116.579 20.4816C115.335 19.9162 114.375 19.0995 113.673 18.028L112 19.124C112.92 20.5271 114.179 21.5878 115.751 22.3024L116.579 20.4816ZM113.673 18.028C112.989 16.9832 112.621 15.6789 112.621 14.064H110.621C110.621 15.9905 111.063 17.6941 112 19.124L113.673 18.028ZM112.621 14.064C112.621 12.4732 112.987 11.1787 113.673 10.132L112 9.03597C111.065 10.464 110.621 12.1561 110.621 14.064H112.621ZM113.677 10.1255C114.382 9.03098 115.345 8.19393 116.59 7.60913L115.74 5.79887C114.169 6.53674 112.912 7.61968 111.996 9.04252L113.677 10.1255ZM116.59 7.60913C117.848 7.01838 119.289 6.712 120.933 6.712V4.712C119.035 4.712 117.298 5.06695 115.74 5.79887L116.59 7.60913ZM120.933 6.712C122.577 6.712 124.005 7.01849 125.238 7.6066L126.099 5.8014C124.559 5.06684 122.83 4.712 120.933 4.712V6.712ZM125.238 7.6066C126.46 8.18916 127.401 9.02311 128.086 10.1153L129.78 9.05271C128.886 7.62755 127.651 6.54151 126.099 5.8014L125.238 7.6066ZM128.096 10.132C128.782 11.1787 129.149 12.4732 129.149 14.064H131.149C131.149 12.1561 130.705 10.464 129.769 9.03597L128.096 10.132ZM129.149 14.064C129.149 15.6789 128.781 16.9832 128.096 18.028L129.769 19.124C130.706 17.6941 131.149 15.9905 131.149 14.064H129.149ZM128.09 18.0382C127.408 19.1073 126.47 19.9209 125.25 20.484L126.088 22.3C127.641 21.5831 128.879 20.5193 129.776 19.1138L128.09 18.0382ZM125.25 20.484C124.014 21.0545 122.582 21.352 120.933 21.352V23.352C122.825 23.352 124.55 23.0095 126.088 22.3L125.25 20.484ZM120.933 20.44C122.093 20.44 123.179 20.2095 124.178 19.7353L123.32 17.9287C122.611 18.2652 121.821 18.44 120.933 18.44V20.44ZM124.178 19.7353C125.209 19.2457 126.029 18.5034 126.62 17.5258L124.909 16.4902C124.52 17.134 123.996 17.6076 123.32 17.9287L124.178 19.7353ZM126.61 17.542C127.242 16.5419 127.533 15.3666 127.533 14.064H125.533C125.533 15.0654 125.312 15.8528 124.919 16.474L126.61 17.542ZM127.533 14.064C127.533 12.7614 127.242 11.5861 126.61 10.586L124.919 11.654C125.312 12.2752 125.533 13.0626 125.533 14.064H127.533ZM126.62 10.6022C126.031 9.62879 125.217 8.88009 124.196 8.36957L123.302 10.1584C123.987 10.5012 124.517 10.9899 124.909 11.6378L126.62 10.6022ZM124.223 8.38353C123.23 7.84899 122.126 7.592 120.933 7.592V9.592C121.831 9.592 122.603 9.78301 123.275 10.1445L124.223 8.38353ZM120.933 7.592C119.747 7.592 118.643 7.83503 117.638 8.33757L118.532 10.1264C119.234 9.77564 120.028 9.592 120.933 9.592V7.592ZM117.638 8.33757C116.624 8.84439 115.798 9.58324 115.169 10.5384L116.84 11.6376C117.278 10.9714 117.839 10.4729 118.532 10.1264L117.638 8.33757ZM115.159 10.554C114.526 11.5569 114.237 12.7441 114.237 14.064H116.237C116.237 13.0373 116.46 12.2404 116.85 11.622L115.159 10.554ZM114.237 14.064C114.237 15.3666 114.528 16.5419 115.159 17.542L116.85 16.474C116.458 15.8528 116.237 15.0654 116.237 14.064H114.237ZM115.159 17.542C115.771 18.5102 116.597 19.2475 117.624 19.7353L118.482 17.9287C117.802 17.6059 117.263 17.1272 116.85 16.474L115.159 17.542ZM117.632 19.7393C118.65 20.2107 119.755 20.44 120.933 20.44V18.44C120.02 18.44 119.205 18.2639 118.473 17.9247L117.632 19.7393ZM149.936 22V23H150.936V22H149.936ZM146.384 22H145.384V23H146.384V22ZM146.384 6.064V5.064H145.384V6.064H146.384ZM149.936 6.064H150.936V5.064H149.936V6.064ZM146.576 14.416L147.575 14.3848L145.598 14.2085L146.576 14.416ZM146.608 15.44L147.596 15.5921L147.61 15.5009L147.607 15.4088L146.608 15.44ZM146.32 16.688L145.354 16.428L145.349 16.4455L145.345 16.4631L146.32 16.688ZM145.648 18.512L144.748 18.0764L144.742 18.0891L145.648 18.512ZM144.432 20.368L143.672 19.7172L143.671 19.7195L144.432 20.368ZM142.576 21.808L143.013 22.7075L143.023 22.7025L143.033 22.6973L142.576 21.808ZM137.52 22.032L137.781 21.0666L137.771 21.0642L137.762 21.0619L137.52 22.032ZM135.408 21.04L134.803 21.8367L134.81 21.8416L134.816 21.8464L135.408 21.04ZM133.904 19.12L134.807 18.6919L134.807 18.6919L133.904 19.12ZM133.328 6.064V5.064H132.328V6.064H133.328ZM136.88 6.064H137.88V5.064H136.88V6.064ZM137.36 17.744L136.486 18.2296L136.496 18.2491L136.508 18.2681L137.36 17.744ZM138.768 18.928L138.402 19.8588L138.402 19.8588L138.768 18.928ZM143.728 18.512L143.184 17.673L143.184 17.673L143.728 18.512ZM145.616 16.624L144.773 16.0856L144.769 16.0918L145.616 16.624ZM149.936 21H146.384V23H149.936V21ZM147.384 22V6.064H145.384V22H147.384ZM146.384 7.064H149.936V5.064H146.384V7.064ZM148.936 6.064V22H150.936V6.064H148.936ZM145.576 14.4472L145.608 15.4712L147.607 15.4088L147.575 14.3848L145.576 14.4472ZM145.619 15.2879C145.585 15.5082 145.502 15.8802 145.354 16.428L147.285 16.948C147.437 16.3865 147.545 15.9265 147.596 15.5921L145.619 15.2879ZM145.345 16.4631C145.238 16.9276 145.044 17.464 144.748 18.0764L146.548 18.9476C146.892 18.2373 147.145 17.5578 147.294 16.9129L145.345 16.4631ZM144.742 18.0891C144.485 18.6381 144.132 19.1811 143.672 19.7172L145.191 21.0188C145.755 20.3603 146.213 19.6659 146.554 18.9349L144.742 18.0891ZM143.671 19.7195C143.273 20.1859 142.762 20.5878 142.118 20.9187L143.033 22.6973C143.883 22.2602 144.609 21.7021 145.193 21.0165L143.671 19.7195ZM142.139 20.9085C141.561 21.189 140.813 21.352 139.856 21.352V23.352C141.032 23.352 142.097 23.1524 143.013 22.7075L142.139 20.9085ZM139.856 21.352C139.181 21.352 138.49 21.2585 137.781 21.0666L137.259 22.9974C138.128 23.2322 138.994 23.352 139.856 23.352V21.352ZM137.762 21.0619C137.12 20.9014 136.535 20.6265 135.999 20.2336L134.816 21.8464C135.561 22.3922 136.383 22.7786 137.277 23.0021L137.762 21.0619ZM136.012 20.2433C135.54 19.8851 135.133 19.3801 134.807 18.6919L133 19.5481C133.442 20.4813 134.038 21.2562 134.803 21.8367L136.012 20.2433ZM134.807 18.6919C134.506 18.0558 134.328 17.1901 134.328 16.048H132.328C132.328 17.3805 132.533 18.5629 133 19.5481L134.807 18.6919ZM134.328 16.048V6.064H132.328V16.048H134.328ZM133.328 7.064H136.88V5.064H133.328V7.064ZM135.88 6.064V15.376H137.88V6.064H135.88ZM135.88 15.376C135.88 16.4673 136.051 17.4473 136.486 18.2296L138.234 17.2584C138.029 16.8887 137.88 16.2901 137.88 15.376H135.88ZM136.508 18.2681C136.961 19.0045 137.6 19.5435 138.402 19.8588L139.133 17.9972C138.741 17.8431 138.441 17.5929 138.211 17.2199L136.508 18.2681ZM138.402 19.8588C139.139 20.1484 139.961 20.28 140.848 20.28V18.28C140.156 18.28 139.591 18.177 139.133 17.9972L138.402 19.8588ZM140.848 20.28C142.132 20.28 143.29 19.9876 144.272 19.351L143.184 17.673C142.586 18.0604 141.825 18.28 140.848 18.28V20.28ZM144.272 19.351C145.175 18.7653 145.911 18.034 146.462 17.1562L144.769 16.0918C144.382 16.7074 143.859 17.2347 143.184 17.673L144.272 19.351ZM146.458 17.1624C146.997 16.3189 147.374 15.4717 147.554 14.6235L145.598 14.2085C145.479 14.7683 145.216 15.3931 144.773 16.0856L146.458 17.1624ZM153.859 6.064V5.064H152.859V6.064H153.859ZM157.411 6.064H158.411V5.064H157.411V6.064ZM157.411 22V23H158.411V22H157.411ZM153.859 22H152.859V23H153.859V22ZM163.171 9.104V10.104H164.171V9.104H163.171ZM160.195 9.84L159.687 8.97858L159.677 8.9845L160.195 9.84ZM158.243 11.632L159.063 12.2038L159.063 12.2038L158.243 11.632ZM157.219 13.68L156.219 13.6979L158.179 13.9588L157.219 13.68ZM157.187 11.888L156.191 11.7975L156.186 11.8516L156.187 11.9059L157.187 11.888ZM157.411 10.832L158.376 11.0951L158.379 11.0844L157.411 10.832ZM157.987 9.232L157.086 8.79818L157.079 8.81192L157.073 8.82586L157.987 9.232ZM159.075 7.568L158.312 6.92205L158.309 6.92481L159.075 7.568ZM160.771 6.224L160.324 5.3295L160.312 5.33538L160.771 6.224ZM163.171 5.712H164.171V4.712H163.171V5.712ZM153.859 7.064H157.411V5.064H153.859V7.064ZM156.411 6.064V22H158.411V6.064H156.411ZM157.411 21H153.859V23H157.411V21ZM154.859 22V6.064H152.859V22H154.859ZM163.171 8.104C161.875 8.104 160.7 8.38111 159.687 8.97863L160.703 10.7014C161.354 10.3176 162.163 10.104 163.171 10.104V8.104ZM159.677 8.9845C158.759 9.53995 158.001 10.2301 157.423 11.0602L159.063 12.2038C159.466 11.6259 160.009 11.1214 160.713 10.6955L159.677 8.9845ZM157.423 11.0602C156.884 11.8325 156.487 12.6131 156.259 13.4012L158.179 13.9588C158.335 13.4242 158.62 12.8395 159.063 12.2038L157.423 11.0602ZM158.219 13.6621L158.187 11.8701L156.187 11.9059L156.219 13.6979L158.219 13.6621ZM158.183 11.9785C158.196 11.8359 158.251 11.5543 158.376 11.0951L156.446 10.5689C156.315 11.0484 156.221 11.4708 156.191 11.7975L158.183 11.9785ZM158.379 11.0844C158.49 10.6572 158.662 10.1759 158.901 9.63814L157.073 8.82586C156.8 9.44014 156.588 10.0255 156.443 10.5796L158.379 11.0844ZM158.888 9.66581C159.126 9.17135 159.442 8.68631 159.841 8.21119L158.309 6.92481C157.812 7.51636 157.403 8.14064 157.086 8.79818L158.888 9.66581ZM159.838 8.21394C160.221 7.76182 160.682 7.39531 161.23 7.11262L160.312 5.33538C159.537 5.73535 158.868 6.26485 158.312 6.92206L159.838 8.21394ZM161.218 7.11843C161.737 6.85917 162.378 6.712 163.171 6.712V4.712C162.129 4.712 161.171 4.90616 160.324 5.32957L161.218 7.11843ZM162.171 5.712V9.104H164.171V5.712H162.171ZM38.213 58.112V59.112H39.95L39.0778 57.6099L38.213 58.112ZM36.581 58.112L35.7175 57.6077L34.8389 59.112H36.581V58.112ZM47.589 39.264V38.264H47.015L46.7255 38.7597L47.589 39.264ZM51.205 39.264H52.205V38.264H51.205V39.264ZM51.205 60V61H52.205V60H51.205ZM47.589 60H46.589V61H47.589V60ZM47.589 44.48L47.849 43.5144L46.589 43.1752V44.48H47.589ZM48.421 44.704L49.2823 45.2121L49.9501 44.0801L48.681 43.7384L48.421 44.704ZM39.397 60V61H39.9681L40.2583 60.5081L39.397 60ZM35.429 60L34.5687 60.5097L34.8591 61H35.429V60ZM26.405 44.768L26.1209 43.8092L24.8906 44.1737L25.5446 45.2777L26.405 44.768ZM27.269 44.512H28.269V43.1727L26.9849 43.5532L27.269 44.512ZM27.269 60V61H28.269V60H27.269ZM23.621 60H22.621V61H23.621V60ZM23.621 39.264V38.264H22.621V39.264H23.621ZM27.269 39.264L28.1338 38.7619L27.8447 38.264H27.269V39.264ZM38.213 57.112H36.581V59.112H38.213V57.112ZM37.4445 58.6163L48.4525 39.7683L46.7255 38.7597L35.7175 57.6077L37.4445 58.6163ZM47.589 40.264H51.205V38.264H47.589V40.264ZM50.205 39.264V60H52.205V39.264H50.205ZM51.205 59H47.589V61H51.205V59ZM48.589 60V44.48H46.589V60H48.589ZM47.329 45.4456L48.161 45.6696L48.681 43.7384L47.849 43.5144L47.329 45.4456ZM47.5597 44.1959L38.5357 59.4919L40.2583 60.5081L49.2823 45.2121L47.5597 44.1959ZM39.397 59H35.429V61H39.397V59ZM36.2894 59.4903L27.2654 44.2583L25.5446 45.2777L34.5687 60.5097L36.2894 59.4903ZM26.6891 45.7268L27.5531 45.4708L26.9849 43.5532L26.1209 43.8092L26.6891 45.7268ZM26.269 44.512V60H28.269V44.512H26.269ZM27.269 59H23.621V61H27.269V59ZM24.621 60V39.264H22.621V60H24.621ZM23.621 40.264H27.269V38.264H23.621V40.264ZM26.4042 39.7661L37.3482 58.6141L39.0778 57.6099L28.1338 38.7619L26.4042 39.7661ZM68.9835 54.752V53.752H68.2506L68.0299 54.4509L68.9835 54.752ZM72.4075 54.752L73.3954 54.907L73.5766 53.752H72.4075V54.752ZM71.1275 57.664L70.3466 57.0393L70.3447 57.0418L71.1275 57.664ZM68.4075 59.648L68.7848 60.5741L68.7921 60.5711L68.7994 60.568L68.4075 59.648ZM59.4155 59.36L58.9845 60.2624L58.9956 60.2676L59.4155 59.36ZM56.0555 56.48L55.219 57.028L55.219 57.028L56.0555 56.48ZM56.0235 47.648L56.8707 48.1793L56.8707 48.1793L56.0235 47.648ZM59.2875 44.736L58.8512 43.8362L58.8458 43.8388L59.2875 44.736ZM68.8875 44.736L68.4107 45.615L68.4196 45.6198L68.4285 45.6244L68.8875 44.736ZM71.7355 47.744L70.8271 48.1622L70.8297 48.1677L71.7355 47.744ZM72.5035 52.768V53.768H73.4523L73.5021 52.8206L72.5035 52.768ZM58.4555 52.768V51.768H57.3294L57.4625 52.8862L58.4555 52.768ZM59.3195 55.2L58.4799 55.7433L58.4893 55.7577L58.4991 55.7718L59.3195 55.2ZM61.3035 56.864L60.8655 57.763L60.8749 57.7676L60.8844 57.772L61.3035 56.864ZM67.3195 56.704L66.821 55.837L66.8115 55.8426L67.3195 56.704ZM60.4715 47.68L61.0715 48.48L61.0773 48.4757L61.0829 48.4713L60.4715 47.68ZM58.6475 50.4L57.6774 50.1575L57.3667 51.4H58.6475V50.4ZM68.9195 50.4V51.4H69.9935L69.917 50.3288L68.9195 50.4ZM67.4795 47.616L66.8642 48.4043L66.8703 48.409L66.8764 48.4137L67.4795 47.616ZM68.9835 55.752H72.4075V53.752H68.9835V55.752ZM71.4196 54.597C71.2757 55.5145 70.9197 56.323 70.3466 57.0393L71.9084 58.2887C72.7006 57.2984 73.198 56.1655 73.3954 54.907L71.4196 54.597ZM70.3447 57.0418C69.8039 57.7221 69.0419 58.2909 68.0156 58.728L68.7994 60.568C70.0771 60.0238 71.1285 59.2699 71.9103 58.2862L70.3447 57.0418ZM68.0302 58.7219C67.0269 59.1307 65.7855 59.352 64.2795 59.352V61.352C65.9735 61.352 67.4841 61.104 68.7848 60.5741L68.0302 58.7219ZM64.2795 59.352C62.5893 59.352 61.1146 59.0443 59.8354 58.4524L58.9956 60.2676C60.575 60.9984 62.343 61.352 64.2795 61.352V59.352ZM59.8465 58.4576C58.57 57.848 57.5953 57.0055 56.892 55.932L55.219 57.028C56.1371 58.4292 57.4023 59.5067 58.9845 60.2624L59.8465 58.4576ZM56.892 55.932C56.2037 54.8814 55.8395 53.6067 55.8395 52.064H53.8395C53.8395 53.9347 54.286 55.6039 55.219 57.028L56.892 55.932ZM55.8395 52.064C55.8395 50.5407 56.1941 49.2581 56.8707 48.1793L55.1763 47.1167C54.2742 48.5552 53.8395 50.2166 53.8395 52.064H55.8395ZM56.8707 48.1793C57.5573 47.0844 58.502 46.2373 59.7292 45.6332L58.8458 43.8388C57.2997 44.6 56.0683 45.6943 55.1763 47.1167L56.8707 48.1793ZM59.7238 45.6358C60.9742 45.0295 62.442 44.712 64.1515 44.712V42.712C62.1916 42.712 60.4168 43.0771 58.8512 43.8362L59.7238 45.6358ZM64.1515 44.712C65.936 44.712 67.3384 45.0334 68.4107 45.615L69.3643 43.857C67.9193 43.0732 66.1644 42.712 64.1515 42.712V44.712ZM68.4285 45.6244C69.5048 46.1805 70.2989 47.0147 70.8271 48.1621L72.6439 47.3259C71.9347 45.7853 70.8302 44.6141 69.3465 43.8476L68.4285 45.6244ZM70.8297 48.1677C71.357 49.295 71.6061 50.7922 71.5049 52.7154L73.5021 52.8206C73.6142 50.6904 73.3513 48.8383 72.6413 47.3203L70.8297 48.1677ZM72.5035 51.768H58.4555V53.768H72.5035V51.768ZM57.4625 52.8862C57.5864 53.9268 57.924 54.8841 58.4799 55.7433L60.1591 54.6567C59.7763 54.0653 59.5379 53.4012 59.4485 52.6498L57.4625 52.8862ZM58.4991 55.7718C59.0949 56.6266 59.8926 57.289 60.8655 57.763L61.7415 55.965C61.0504 55.6283 60.5255 55.1814 60.1399 54.6282L58.4991 55.7718ZM60.8844 57.772C61.8725 58.228 62.9914 58.44 64.2155 58.44V56.44C63.2209 56.44 62.3985 56.268 61.7226 55.956L60.8844 57.772ZM64.2155 58.44C65.5822 58.44 66.804 58.1689 67.8275 57.5654L66.8115 55.8426C66.171 56.2204 65.3235 56.44 64.2155 56.44V58.44ZM67.818 57.5709C68.8519 56.9764 69.5938 56.1402 69.9371 55.0531L68.0299 54.4509C67.8612 54.9851 67.4938 55.4503 66.821 55.8371L67.818 57.5709ZM64.0555 45.592C62.4341 45.592 61.0101 46.0001 59.8601 46.8887L61.0829 48.4713C61.8103 47.9093 62.7755 47.592 64.0555 47.592V45.592ZM59.8715 46.88C58.7543 47.7179 58.012 48.8191 57.6774 50.1575L59.6176 50.6425C59.8377 49.7623 60.3114 49.0501 61.0715 48.48L59.8715 46.88ZM58.6475 51.4H68.9195V49.4H58.6475V51.4ZM69.917 50.3288C69.8132 48.8763 69.2102 47.6709 68.0826 46.8183L66.8764 48.4137C67.4982 48.8838 67.8551 49.5344 67.922 50.4712L69.917 50.3288ZM68.0948 46.8277C67.0017 45.9746 65.6256 45.592 64.0555 45.592V47.592C65.3014 47.592 66.2079 47.8921 66.8642 48.4043L68.0948 46.8277ZM75.6715 44.064V43.064H74.6715V44.064H75.6715ZM79.2235 44.064H80.2235V43.064H79.2235V44.064ZM79.2235 60V61H80.2235V60H79.2235ZM75.6715 60H74.6715V61H75.6715V60ZM88.4715 44.096L88.1553 45.0447L88.163 45.0472L88.4715 44.096ZM90.4875 45.28L89.7944 46.0008L89.8085 46.0144L89.8231 46.0274L90.4875 45.28ZM91.7995 47.2L90.8675 47.5624L90.8718 47.5736L90.8764 47.5846L91.7995 47.2ZM92.2795 60V61H93.2795V60H92.2795ZM88.7275 60H87.7275V61H88.7275V60ZM87.7675 47.744L87.0485 48.439L87.0603 48.4512L87.0725 48.463L87.7675 47.744ZM82.0075 47.456L82.4638 48.3459L82.4723 48.3414L82.0075 47.456ZM79.9595 49.152L80.7475 49.7676L80.7521 49.7618L80.7566 49.7559L79.9595 49.152ZM79.0315 51.424L78.0317 51.4425L80.0263 51.526L79.0315 51.424ZM78.9995 49.696L78.0085 49.5621L77.9983 49.638L77.9997 49.7145L78.9995 49.696ZM79.7035 47.456L80.5925 47.914L80.5979 47.9032L79.7035 47.456ZM81.1435 45.536L81.824 46.2688L81.8309 46.2624L81.8376 46.2558L81.1435 45.536ZM83.2555 44.192L83.6227 45.1222L83.6227 45.1222L83.2555 44.192ZM75.6715 45.064H79.2235V43.064H75.6715V45.064ZM78.2235 44.064V60H80.2235V44.064H78.2235ZM79.2235 59H75.6715V61H79.2235V59ZM76.6715 60V44.064H74.6715V60H76.6715ZM85.9435 44.712C86.7675 44.712 87.5018 44.8269 88.1553 45.0447L88.7877 43.1473C87.9052 42.8531 86.9542 42.712 85.9435 42.712V44.712ZM88.163 45.0472C88.8198 45.2603 89.3572 45.5805 89.7944 46.0008L91.1806 44.5592C90.5084 43.9128 89.7018 43.4437 88.78 43.1448L88.163 45.0472ZM89.8231 46.0274C90.2725 46.4269 90.6222 46.9317 90.8675 47.5624L92.7315 46.8376C92.3795 45.9323 91.8545 45.1571 91.1519 44.5326L89.8231 46.0274ZM90.8764 47.5846C91.1344 48.2038 91.2795 48.974 91.2795 49.92H93.2795C93.2795 48.7753 93.1046 47.7322 92.7226 46.8154L90.8764 47.5846ZM91.2795 49.92V60H93.2795V49.92H91.2795ZM92.2795 59H88.7275V61H92.2795V59ZM89.7275 60V50.624H87.7275V60H89.7275ZM89.7275 50.624C89.7275 49.1772 89.3723 47.9045 88.4625 47.025L87.0725 48.463C87.4427 48.8209 87.7275 49.4681 87.7275 50.624H89.7275ZM88.4865 47.049C87.6017 46.1337 86.3016 45.784 84.8235 45.784V47.784C86.0334 47.784 86.6959 48.0743 87.0485 48.439L88.4865 47.049ZM84.8235 45.784C83.648 45.784 82.5483 46.0426 81.5427 46.5706L82.4723 48.3414C83.1733 47.9734 83.951 47.784 84.8235 47.784V45.784ZM81.5512 46.5662C80.5936 47.0573 79.7917 47.7175 79.1624 48.5481L80.7566 49.7559C81.194 49.1785 81.7574 48.7081 82.4638 48.3458L81.5512 46.5662ZM79.1715 48.5364C78.5266 49.3618 78.142 50.2958 78.0367 51.322L80.0263 51.526C80.0917 50.8882 80.3257 50.3076 80.7475 49.7676L79.1715 48.5364ZM80.0313 51.4055L79.9993 49.6775L77.9997 49.7145L78.0317 51.4425L80.0313 51.4055ZM79.9905 49.8299C80.082 49.153 80.2824 48.516 80.5925 47.914L78.8145 46.998C78.3993 47.804 78.1304 48.6604 78.0085 49.5621L79.9905 49.8299ZM80.5979 47.9032C80.9067 47.2857 81.314 46.7423 81.824 46.2688L80.463 44.8032C79.7783 45.439 79.2256 46.1756 78.8091 47.0088L80.5979 47.9032ZM81.8376 46.2558C82.3361 45.7752 82.9275 45.3966 83.6227 45.1222L82.8883 43.2618C81.9622 43.6274 81.1456 44.1448 80.4494 44.8162L81.8376 46.2558ZM83.6227 45.1222C84.3026 44.8538 85.0721 44.712 85.9435 44.712V42.712C84.8522 42.712 83.8297 42.8902 82.8883 43.2618L83.6227 45.1222ZM95.0828 44.064V43.064H94.0828V44.064H95.0828ZM106.347 44.064H107.347V43.064H106.347V44.064ZM106.347 46.976V47.976H107.347V46.976H106.347ZM95.0828 46.976H94.0828V47.976H95.0828V46.976ZM98.9227 39.776V38.776H97.9227V39.776H98.9227ZM102.507 39.776H103.507V38.776H102.507V39.776ZM102.507 60V61H103.507V60H102.507ZM98.9227 60H97.9227V61H98.9227V60ZM95.0828 45.064H106.347V43.064H95.0828V45.064ZM105.347 44.064V46.976H107.347V44.064H105.347ZM106.347 45.976H95.0828V47.976H106.347V45.976ZM96.0828 46.976V44.064H94.0828V46.976H96.0828ZM98.9227 40.776H102.507V38.776H98.9227V40.776ZM101.507 39.776V60H103.507V39.776H101.507ZM102.507 59H98.9227V61H102.507V59ZM99.9227 60V39.776H97.9227V60H99.9227ZM112.602 59.392L112.188 60.3024L112.188 60.3024L112.602 59.392ZM109.274 56.576L110.111 56.028L109.274 56.576ZM109.274 47.584L110.111 48.132L110.115 48.1255L109.274 47.584ZM112.602 44.704L112.177 43.7989L112.177 43.7989L112.602 44.704ZM125.37 47.584L124.523 48.1153L124.528 48.1237L124.534 48.132L125.37 47.584ZM125.37 56.576L124.534 56.0279L124.527 56.0382L125.37 56.576ZM122.106 59.392L121.687 58.484L122.106 59.392ZM122.202 55.008L121.357 54.474L121.352 54.4821L121.347 54.4902L122.202 55.008ZM122.202 49.12L121.347 49.6378L121.352 49.6459L121.357 49.654L122.202 49.12ZM120.186 47.264L119.712 48.1445L119.725 48.1517L119.739 48.1584L120.186 47.264ZM114.522 47.232L114.075 46.3376L114.075 46.3376L114.522 47.232ZM112.442 49.088L111.607 48.5384L111.602 48.5461L111.597 48.554L112.442 49.088ZM112.442 55.008L111.597 55.542L111.597 55.542L112.442 55.008ZM114.49 56.832L114.061 57.7353L114.07 57.7393L114.49 56.832ZM117.37 59.352C115.722 59.352 114.277 59.0546 113.016 58.4816L112.188 60.3024C113.744 61.0094 115.477 61.352 117.37 61.352V59.352ZM113.016 58.4816C111.772 57.9162 110.813 57.0995 110.111 56.028L108.438 57.124C109.357 58.5271 110.616 59.5878 112.188 60.3024L113.016 58.4816ZM110.111 56.028C109.426 54.9832 109.058 53.6789 109.058 52.064H107.058C107.058 53.9905 107.501 55.6941 108.438 57.124L110.111 56.028ZM109.058 52.064C109.058 50.4732 109.425 49.1787 110.111 48.132L108.438 47.036C107.502 48.464 107.058 50.1561 107.058 52.064H109.058ZM110.115 48.1255C110.82 47.031 111.782 46.1939 113.027 45.6091L112.177 43.7989C110.606 44.5367 109.35 45.6197 108.434 47.0425L110.115 48.1255ZM113.027 45.6091C114.285 45.0184 115.726 44.712 117.37 44.712V42.712C115.473 42.712 113.735 43.0669 112.177 43.7989L113.027 45.6091ZM117.37 44.712C119.015 44.712 120.443 45.0185 121.676 45.6066L122.537 43.8014C120.997 43.0668 119.267 42.712 117.37 42.712V44.712ZM121.676 45.6066C122.897 46.1892 123.838 47.0231 124.523 48.1153L126.217 47.0527C125.324 45.6276 124.089 44.5415 122.537 43.8014L121.676 45.6066ZM124.534 48.132C125.22 49.1787 125.586 50.4732 125.586 52.064H127.586C127.586 50.1561 127.142 48.464 126.207 47.036L124.534 48.132ZM125.586 52.064C125.586 53.6789 125.218 54.9832 124.534 56.028L126.207 57.124C127.144 55.6941 127.586 53.9905 127.586 52.064H125.586ZM124.527 56.0382C123.845 57.1073 122.907 57.9209 121.687 58.484L122.525 60.3C124.078 59.5831 125.317 58.5193 126.213 57.1138L124.527 56.0382ZM121.687 58.484C120.451 59.0545 119.019 59.352 117.37 59.352V61.352C119.263 61.352 120.988 61.0095 122.525 60.3L121.687 58.484ZM117.37 58.44C118.53 58.44 119.617 58.2095 120.615 57.7353L119.757 55.9287C119.049 56.2652 118.258 56.44 117.37 56.44V58.44ZM120.615 57.7353C121.646 57.2457 122.466 56.5034 123.058 55.5258L121.347 54.4902C120.957 55.134 120.433 55.6076 119.757 55.9287L120.615 57.7353ZM123.048 55.542C123.679 54.5419 123.97 53.3666 123.97 52.064H121.97C121.97 53.0654 121.749 53.8528 121.357 54.474L123.048 55.542ZM123.97 52.064C123.97 50.7614 123.679 49.5861 123.048 48.586L121.357 49.654C121.749 50.2752 121.97 51.0626 121.97 52.064H123.97ZM123.058 48.6022C122.469 47.6288 121.655 46.8801 120.633 46.3696L119.739 48.1584C120.425 48.5012 120.955 48.9899 121.347 49.6378L123.058 48.6022ZM120.66 46.3835C119.668 45.849 118.563 45.592 117.37 45.592V47.592C118.268 47.592 119.041 47.783 119.712 48.1445L120.66 46.3835ZM117.37 45.592C116.185 45.592 115.08 45.835 114.075 46.3376L114.969 48.1264C115.671 47.7756 116.465 47.592 117.37 47.592V45.592ZM114.075 46.3376C113.061 46.8444 112.235 47.5832 111.607 48.5384L113.278 49.6376C113.716 48.9714 114.276 48.4729 114.969 48.1264L114.075 46.3376ZM111.597 48.554C110.963 49.5569 110.674 50.7441 110.674 52.064H112.674C112.674 51.0373 112.897 50.2404 113.288 49.622L111.597 48.554ZM110.674 52.064C110.674 53.3666 110.965 54.5419 111.597 55.542L113.288 54.474C112.895 53.8528 112.674 53.0654 112.674 52.064H110.674ZM111.597 55.542C112.208 56.5102 113.034 57.2475 114.061 57.7353L114.919 55.9287C114.24 55.6059 113.7 55.1272 113.288 54.474L111.597 55.542ZM114.07 57.7393C115.087 58.2107 116.192 58.44 117.37 58.44V56.44C116.458 56.44 115.643 56.2639 114.911 55.9247L114.07 57.7393ZM129.765 44.064V43.064H128.765V44.064H129.765ZM133.317 44.064H134.317V43.064H133.317V44.064ZM133.317 60V61H134.317V60H133.317ZM129.765 60H128.765V61H129.765V60ZM139.077 47.104V48.104H140.077V47.104H139.077ZM136.101 47.84L135.593 46.9786L135.583 46.9845L136.101 47.84ZM134.149 49.632L134.97 50.2038L134.97 50.2038L134.149 49.632ZM133.125 51.68L132.125 51.6979L134.086 51.9588L133.125 51.68ZM133.093 49.888L132.097 49.7975L132.092 49.8516L132.093 49.9059L133.093 49.888ZM133.317 48.832L134.282 49.0951L134.285 49.0844L133.317 48.832ZM133.893 47.232L132.992 46.7982L132.986 46.8119L132.979 46.8259L133.893 47.232ZM134.981 45.568L134.218 44.9221L134.216 44.9248L134.981 45.568ZM136.677 44.224L136.23 43.3295L136.219 43.3354L136.677 44.224ZM139.077 43.712H140.077V42.712H139.077V43.712ZM129.765 45.064H133.317V43.064H129.765V45.064ZM132.317 44.064V60H134.317V44.064H132.317ZM133.317 59H129.765V61H133.317V59ZM130.765 60V44.064H128.765V60H130.765ZM139.077 46.104C137.781 46.104 136.606 46.3811 135.593 46.9786L136.609 48.7014C137.26 48.3176 138.069 48.104 139.077 48.104V46.104ZM135.583 46.9845C134.666 47.5399 133.907 48.2301 133.329 49.0602L134.97 50.2038C135.372 49.6259 135.915 49.1214 136.619 48.6955L135.583 46.9845ZM133.329 49.0602C132.791 49.8325 132.394 50.6131 132.165 51.4012L134.086 51.9588C134.241 51.4242 134.527 50.8395 134.97 50.2038L133.329 49.0602ZM134.125 51.6621L134.093 49.8701L132.093 49.9059L132.125 51.6979L134.125 51.6621ZM134.089 49.9785C134.102 49.8359 134.157 49.5543 134.282 49.0951L132.352 48.5689C132.222 49.0484 132.127 49.4708 132.097 49.7975L134.089 49.9785ZM134.285 49.0844C134.396 48.6572 134.568 48.1759 134.807 47.6381L132.979 46.8259C132.706 47.4401 132.494 48.0255 132.35 48.5796L134.285 49.0844ZM134.794 47.6658C135.032 47.1714 135.348 46.6863 135.747 46.2112L134.216 44.9248C133.719 45.5164 133.309 46.1406 132.992 46.7982L134.794 47.6658ZM135.745 46.2139C136.127 45.7618 136.588 45.3953 137.136 45.1126L136.219 43.3354C135.444 43.7354 134.774 44.2648 134.218 44.9221L135.745 46.2139ZM137.124 45.1184C137.643 44.8592 138.284 44.712 139.077 44.712V42.712C138.036 42.712 137.077 42.9062 136.23 43.3296L137.124 45.1184ZM138.077 43.712V47.104H140.077V43.712H138.077Z" fill="white" mask="url(#path-1-outside-1_240_3598)"/>
</g>
<defs>
<filter id="filter0_d_240_3598" x="0.496094" y="0.264008" width="165.675" height="63.088" filterUnits="userSpaceOnUse" color-interpolation-filters="sRGB">
<feFlood flood-opacity="0" result="BackgroundImageFix"/>
<feColorMatrix in="SourceAlpha" type="matrix" values="0 0 0 0 0 0 0 0 0 0 0 0 0 0 0 0 0 0 127 0" result="hardAlpha"/>
<feOffset dx="1" dy="1"/>
<feGaussianBlur stdDeviation="1"/>
<feComposite in2="hardAlpha" operator="out"/>
<feColorMatrix type="matrix" values="0 0 0 0 0 0 0 0 0 0 0 0 0 0 0 0 0 0 1 0"/>
<feBlend mode="normal" in2="BackgroundImageFix" result="effect1_dropShadow_240_3598"/>
<feBlend mode="normal" in="SourceGraphic" in2="effect1_dropShadow_240_3598" result="shape"/>
</filter>
</defs>
</svg>
