<svg width="680" height="54" viewBox="0 0 680 54" fill="none" xmlns="http://www.w3.org/2000/svg">
<g filter="url(#filter0_d_101_584)">
<mask id="path-1-outside-1_101_584" maskUnits="userSpaceOnUse" x="0" y="0" width="678" height="52" fill="black">
<rect fill="white" width="678" height="52"/>
<path d="M36.05 45.575H32.225L58.025 1.4H66.5V50H58.025V13.625L59.975 14.15L38.825 50H29.525L8.375 14.3L10.4 13.7V50H1.85V1.4H10.4L36.05 45.575ZM108.168 37.7H116.193C115.793 40.25 114.793 42.525 113.193 44.525C111.643 46.475 109.518 48.025 106.818 49.175C104.118 50.275 100.893 50.825 97.1434 50.825C92.8934 50.825 89.0934 50.05 85.7434 48.5C82.3934 46.9 79.7684 44.65 77.8684 41.75C75.9684 38.85 75.0184 35.4 75.0184 31.4C75.0184 27.45 75.9434 24 77.7934 21.05C79.6434 18.1 82.1934 15.825 85.4434 14.225C88.7434 12.625 92.5434 11.825 96.8434 11.825C101.293 11.825 104.993 12.625 107.943 14.225C110.943 15.775 113.168 18.125 114.618 21.275C116.068 24.375 116.668 28.3 116.418 33.05H83.4934C83.7434 35.15 84.4184 37.05 85.5184 38.75C86.6684 40.4 88.2184 41.7 90.1684 42.65C92.1184 43.55 94.3934 44 96.9934 44C99.8934 44 102.318 43.425 104.268 42.275C106.268 41.125 107.568 39.6 108.168 37.7ZM96.6184 18.575C93.2184 18.575 90.4184 19.425 88.2184 21.125C86.0184 22.775 84.5934 24.9 83.9434 27.5H108.018C107.818 24.7 106.693 22.525 104.643 20.975C102.593 19.375 99.9184 18.575 96.6184 18.575ZM155.043 37.7H163.068C162.668 40.25 161.668 42.525 160.068 44.525C158.518 46.475 156.393 48.025 153.693 49.175C150.993 50.275 147.768 50.825 144.018 50.825C139.768 50.825 135.968 50.05 132.618 48.5C129.268 46.9 126.643 44.65 124.743 41.75C122.843 38.85 121.893 35.4 121.893 31.4C121.893 27.45 122.818 24 124.668 21.05C126.518 18.1 129.068 15.825 132.318 14.225C135.618 12.625 139.418 11.825 143.718 11.825C148.168 11.825 151.868 12.625 154.818 14.225C157.818 15.775 160.043 18.125 161.493 21.275C162.943 24.375 163.543 28.3 163.293 33.05H130.368C130.618 35.15 131.293 37.05 132.393 38.75C133.543 40.4 135.093 41.7 137.043 42.65C138.993 43.55 141.268 44 143.868 44C146.768 44 149.193 43.425 151.143 42.275C153.143 41.125 154.443 39.6 155.043 37.7ZM143.493 18.575C140.093 18.575 137.293 19.425 135.093 21.125C132.893 22.775 131.468 24.9 130.818 27.5H154.893C154.693 24.7 153.568 22.525 151.518 20.975C149.468 19.375 146.793 18.575 143.493 18.575ZM167.507 12.65H193.907V19.475H167.507V12.65ZM176.507 2.6H184.907V50H176.507V2.6ZM262.815 1.4L243.015 34.175V50H234.465V34.175L214.665 1.4H224.49L241.215 30.05H236.565L253.065 1.4H262.815ZM281.78 50.825C277.63 50.825 273.905 50.075 270.605 48.575C267.305 47.075 264.705 44.875 262.805 41.975C260.905 39.075 259.955 35.55 259.955 31.4C259.955 27.3 260.905 23.8 262.805 20.9C264.705 17.95 267.305 15.7 270.605 14.15C273.905 12.6 277.63 11.825 281.78 11.825C285.93 11.825 289.63 12.6 292.88 14.15C296.13 15.7 298.68 17.95 300.53 20.9C302.43 23.8 303.38 27.3 303.38 31.4C303.38 35.55 302.43 39.075 300.53 41.975C298.68 44.875 296.13 47.075 292.88 48.575C289.63 50.075 285.93 50.825 281.78 50.825ZM281.78 44C284.18 44 286.38 43.525 288.38 42.575C290.38 41.625 291.955 40.2 293.105 38.3C294.305 36.4 294.905 34.1 294.905 31.4C294.905 28.7 294.305 26.4 293.105 24.5C291.955 22.6 290.38 21.15 288.38 20.15C286.43 19.1 284.23 18.575 281.78 18.575C279.33 18.575 277.105 19.075 275.105 20.075C273.105 21.075 271.48 22.525 270.23 24.425C269.03 26.325 268.43 28.65 268.43 31.4C268.43 34.1 269.03 36.4 270.23 38.3C271.43 40.2 273.03 41.625 275.03 42.575C277.08 43.525 279.33 44 281.78 44ZM349.756 50H341.431V12.65H349.756V50ZM341.881 32.225L341.956 34.625C341.856 35.275 341.631 36.25 341.281 37.55C340.981 38.85 340.456 40.275 339.706 41.825C339.006 43.325 338.056 44.775 336.856 46.175C335.706 47.525 334.256 48.65 332.506 49.55C330.756 50.4 328.631 50.825 326.131 50.825C324.331 50.825 322.506 50.575 320.656 50.075C318.856 49.625 317.206 48.85 315.706 47.75C314.256 46.65 313.081 45.15 312.181 43.25C311.281 41.35 310.831 38.95 310.831 36.05V12.65H319.156V34.475C319.156 36.825 319.531 38.675 320.281 40.025C321.081 41.325 322.181 42.25 323.581 42.8C324.981 43.35 326.606 43.625 328.456 43.625C331.106 43.625 333.356 43.025 335.206 41.825C337.056 40.625 338.531 39.15 339.631 37.4C340.781 35.6 341.531 33.875 341.881 32.225ZM358.951 12.65H367.276V50H358.951V12.65ZM380.776 19.775C378.076 19.775 375.751 20.35 373.801 21.5C371.901 22.65 370.376 24.05 369.226 25.7C368.076 27.35 367.276 28.95 366.826 30.5L366.751 26.3C366.801 25.75 366.976 24.925 367.276 23.825C367.576 22.675 368.026 21.425 368.626 20.075C369.276 18.725 370.126 17.425 371.176 16.175C372.276 14.875 373.601 13.825 375.151 13.025C376.751 12.225 378.626 11.825 380.776 11.825V19.775ZM439.761 45.575H435.936L461.736 1.4H470.211V50H461.736V13.625L463.686 14.15L442.536 50H433.236L412.086 14.3L414.111 13.7V50H405.561V1.4H414.111L439.761 45.575ZM511.879 37.7H519.904C519.504 40.25 518.504 42.525 516.904 44.525C515.354 46.475 513.229 48.025 510.529 49.175C507.829 50.275 504.604 50.825 500.854 50.825C496.604 50.825 492.804 50.05 489.454 48.5C486.104 46.9 483.479 44.65 481.579 41.75C479.679 38.85 478.729 35.4 478.729 31.4C478.729 27.45 479.654 24 481.504 21.05C483.354 18.1 485.904 15.825 489.154 14.225C492.454 12.625 496.254 11.825 500.554 11.825C505.004 11.825 508.704 12.625 511.654 14.225C514.654 15.775 516.879 18.125 518.329 21.275C519.779 24.375 520.379 28.3 520.129 33.05H487.204C487.454 35.15 488.129 37.05 489.229 38.75C490.379 40.4 491.929 41.7 493.879 42.65C495.829 43.55 498.104 44 500.704 44C503.604 44 506.029 43.425 507.979 42.275C509.979 41.125 511.279 39.6 511.879 37.7ZM500.329 18.575C496.929 18.575 494.129 19.425 491.929 21.125C489.729 22.775 488.304 24.9 487.654 27.5H511.729C511.529 24.7 510.404 22.525 508.354 20.975C506.304 19.375 503.629 18.575 500.329 18.575ZM527.554 12.65H535.879V50H527.554V12.65ZM551.629 11.825C553.779 11.825 555.754 12.125 557.554 12.725C559.404 13.325 560.979 14.25 562.279 15.5C563.629 16.7 564.654 18.2 565.354 20C566.104 21.8 566.479 23.925 566.479 26.375V50H558.154V28.025C558.154 24.975 557.404 22.725 555.904 21.275C554.454 19.775 552.154 19.025 549.004 19.025C546.604 19.025 544.404 19.55 542.404 20.6C540.454 21.6 538.854 22.925 537.604 24.575C536.354 26.175 535.629 27.95 535.429 29.9L535.354 25.85C535.604 24 536.154 22.25 537.004 20.6C537.854 18.9 538.979 17.4 540.379 16.1C541.779 14.75 543.429 13.7 545.329 12.95C547.229 12.2 549.329 11.825 551.629 11.825ZM573.049 12.65H599.449V19.475H573.049V12.65ZM582.049 2.6H590.449V50H582.049V2.6ZM625.286 50.825C621.136 50.825 617.411 50.075 614.111 48.575C610.811 47.075 608.211 44.875 606.311 41.975C604.411 39.075 603.461 35.55 603.461 31.4C603.461 27.3 604.411 23.8 606.311 20.9C608.211 17.95 610.811 15.7 614.111 14.15C617.411 12.6 621.136 11.825 625.286 11.825C629.436 11.825 633.136 12.6 636.386 14.15C639.636 15.7 642.186 17.95 644.036 20.9C645.936 23.8 646.886 27.3 646.886 31.4C646.886 35.55 645.936 39.075 644.036 41.975C642.186 44.875 639.636 47.075 636.386 48.575C633.136 50.075 629.436 50.825 625.286 50.825ZM625.286 44C627.686 44 629.886 43.525 631.886 42.575C633.886 41.625 635.461 40.2 636.611 38.3C637.811 36.4 638.411 34.1 638.411 31.4C638.411 28.7 637.811 26.4 636.611 24.5C635.461 22.6 633.886 21.15 631.886 20.15C629.936 19.1 627.736 18.575 625.286 18.575C622.836 18.575 620.611 19.075 618.611 20.075C616.611 21.075 614.986 22.525 613.736 24.425C612.536 26.325 611.936 28.65 611.936 31.4C611.936 34.1 612.536 36.4 613.736 38.3C614.936 40.2 616.536 41.625 618.536 42.575C620.586 43.525 622.836 44 625.286 44ZM654.337 12.65H662.662V50H654.337V12.65ZM676.162 19.775C673.462 19.775 671.137 20.35 669.187 21.5C667.287 22.65 665.762 24.05 664.612 25.7C663.462 27.35 662.662 28.95 662.212 30.5L662.137 26.3C662.187 25.75 662.362 24.925 662.662 23.825C662.962 22.675 663.412 21.425 664.012 20.075C664.662 18.725 665.512 17.425 666.562 16.175C667.662 14.875 668.987 13.825 670.537 13.025C672.137 12.225 674.012 11.825 676.162 11.825V19.775Z"/>
</mask>
<path d="M36.05 45.575H32.225L58.025 1.4H66.5V50H58.025V13.625L59.975 14.15L38.825 50H29.525L8.375 14.3L10.4 13.7V50H1.85V1.4H10.4L36.05 45.575ZM108.168 37.7H116.193C115.793 40.25 114.793 42.525 113.193 44.525C111.643 46.475 109.518 48.025 106.818 49.175C104.118 50.275 100.893 50.825 97.1434 50.825C92.8934 50.825 89.0934 50.05 85.7434 48.5C82.3934 46.9 79.7684 44.65 77.8684 41.75C75.9684 38.85 75.0184 35.4 75.0184 31.4C75.0184 27.45 75.9434 24 77.7934 21.05C79.6434 18.1 82.1934 15.825 85.4434 14.225C88.7434 12.625 92.5434 11.825 96.8434 11.825C101.293 11.825 104.993 12.625 107.943 14.225C110.943 15.775 113.168 18.125 114.618 21.275C116.068 24.375 116.668 28.3 116.418 33.05H83.4934C83.7434 35.15 84.4184 37.05 85.5184 38.75C86.6684 40.4 88.2184 41.7 90.1684 42.65C92.1184 43.55 94.3934 44 96.9934 44C99.8934 44 102.318 43.425 104.268 42.275C106.268 41.125 107.568 39.6 108.168 37.7ZM96.6184 18.575C93.2184 18.575 90.4184 19.425 88.2184 21.125C86.0184 22.775 84.5934 24.9 83.9434 27.5H108.018C107.818 24.7 106.693 22.525 104.643 20.975C102.593 19.375 99.9184 18.575 96.6184 18.575ZM155.043 37.7H163.068C162.668 40.25 161.668 42.525 160.068 44.525C158.518 46.475 156.393 48.025 153.693 49.175C150.993 50.275 147.768 50.825 144.018 50.825C139.768 50.825 135.968 50.05 132.618 48.5C129.268 46.9 126.643 44.65 124.743 41.75C122.843 38.85 121.893 35.4 121.893 31.4C121.893 27.45 122.818 24 124.668 21.05C126.518 18.1 129.068 15.825 132.318 14.225C135.618 12.625 139.418 11.825 143.718 11.825C148.168 11.825 151.868 12.625 154.818 14.225C157.818 15.775 160.043 18.125 161.493 21.275C162.943 24.375 163.543 28.3 163.293 33.05H130.368C130.618 35.15 131.293 37.05 132.393 38.75C133.543 40.4 135.093 41.7 137.043 42.65C138.993 43.55 141.268 44 143.868 44C146.768 44 149.193 43.425 151.143 42.275C153.143 41.125 154.443 39.6 155.043 37.7ZM143.493 18.575C140.093 18.575 137.293 19.425 135.093 21.125C132.893 22.775 131.468 24.9 130.818 27.5H154.893C154.693 24.7 153.568 22.525 151.518 20.975C149.468 19.375 146.793 18.575 143.493 18.575ZM167.507 12.65H193.907V19.475H167.507V12.65ZM176.507 2.6H184.907V50H176.507V2.6ZM262.815 1.4L243.015 34.175V50H234.465V34.175L214.665 1.4H224.49L241.215 30.05H236.565L253.065 1.4H262.815ZM281.78 50.825C277.63 50.825 273.905 50.075 270.605 48.575C267.305 47.075 264.705 44.875 262.805 41.975C260.905 39.075 259.955 35.55 259.955 31.4C259.955 27.3 260.905 23.8 262.805 20.9C264.705 17.95 267.305 15.7 270.605 14.15C273.905 12.6 277.63 11.825 281.78 11.825C285.93 11.825 289.63 12.6 292.88 14.15C296.13 15.7 298.68 17.95 300.53 20.9C302.43 23.8 303.38 27.3 303.38 31.4C303.38 35.55 302.43 39.075 300.53 41.975C298.68 44.875 296.13 47.075 292.88 48.575C289.63 50.075 285.93 50.825 281.78 50.825ZM281.78 44C284.18 44 286.38 43.525 288.38 42.575C290.38 41.625 291.955 40.2 293.105 38.3C294.305 36.4 294.905 34.1 294.905 31.4C294.905 28.7 294.305 26.4 293.105 24.5C291.955 22.6 290.38 21.15 288.38 20.15C286.43 19.1 284.23 18.575 281.78 18.575C279.33 18.575 277.105 19.075 275.105 20.075C273.105 21.075 271.48 22.525 270.23 24.425C269.03 26.325 268.43 28.65 268.43 31.4C268.43 34.1 269.03 36.4 270.23 38.3C271.43 40.2 273.03 41.625 275.03 42.575C277.08 43.525 279.33 44 281.78 44ZM349.756 50H341.431V12.65H349.756V50ZM341.881 32.225L341.956 34.625C341.856 35.275 341.631 36.25 341.281 37.55C340.981 38.85 340.456 40.275 339.706 41.825C339.006 43.325 338.056 44.775 336.856 46.175C335.706 47.525 334.256 48.65 332.506 49.55C330.756 50.4 328.631 50.825 326.131 50.825C324.331 50.825 322.506 50.575 320.656 50.075C318.856 49.625 317.206 48.85 315.706 47.75C314.256 46.65 313.081 45.15 312.181 43.25C311.281 41.35 310.831 38.95 310.831 36.05V12.65H319.156V34.475C319.156 36.825 319.531 38.675 320.281 40.025C321.081 41.325 322.181 42.25 323.581 42.8C324.981 43.35 326.606 43.625 328.456 43.625C331.106 43.625 333.356 43.025 335.206 41.825C337.056 40.625 338.531 39.15 339.631 37.4C340.781 35.6 341.531 33.875 341.881 32.225ZM358.951 12.65H367.276V50H358.951V12.65ZM380.776 19.775C378.076 19.775 375.751 20.35 373.801 21.5C371.901 22.65 370.376 24.05 369.226 25.7C368.076 27.35 367.276 28.95 366.826 30.5L366.751 26.3C366.801 25.75 366.976 24.925 367.276 23.825C367.576 22.675 368.026 21.425 368.626 20.075C369.276 18.725 370.126 17.425 371.176 16.175C372.276 14.875 373.601 13.825 375.151 13.025C376.751 12.225 378.626 11.825 380.776 11.825V19.775ZM439.761 45.575H435.936L461.736 1.4H470.211V50H461.736V13.625L463.686 14.15L442.536 50H433.236L412.086 14.3L414.111 13.7V50H405.561V1.4H414.111L439.761 45.575ZM511.879 37.7H519.904C519.504 40.25 518.504 42.525 516.904 44.525C515.354 46.475 513.229 48.025 510.529 49.175C507.829 50.275 504.604 50.825 500.854 50.825C496.604 50.825 492.804 50.05 489.454 48.5C486.104 46.9 483.479 44.65 481.579 41.75C479.679 38.85 478.729 35.4 478.729 31.4C478.729 27.45 479.654 24 481.504 21.05C483.354 18.1 485.904 15.825 489.154 14.225C492.454 12.625 496.254 11.825 500.554 11.825C505.004 11.825 508.704 12.625 511.654 14.225C514.654 15.775 516.879 18.125 518.329 21.275C519.779 24.375 520.379 28.3 520.129 33.05H487.204C487.454 35.15 488.129 37.05 489.229 38.75C490.379 40.4 491.929 41.7 493.879 42.65C495.829 43.55 498.104 44 500.704 44C503.604 44 506.029 43.425 507.979 42.275C509.979 41.125 511.279 39.6 511.879 37.7ZM500.329 18.575C496.929 18.575 494.129 19.425 491.929 21.125C489.729 22.775 488.304 24.9 487.654 27.5H511.729C511.529 24.7 510.404 22.525 508.354 20.975C506.304 19.375 503.629 18.575 500.329 18.575ZM527.554 12.65H535.879V50H527.554V12.65ZM551.629 11.825C553.779 11.825 555.754 12.125 557.554 12.725C559.404 13.325 560.979 14.25 562.279 15.5C563.629 16.7 564.654 18.2 565.354 20C566.104 21.8 566.479 23.925 566.479 26.375V50H558.154V28.025C558.154 24.975 557.404 22.725 555.904 21.275C554.454 19.775 552.154 19.025 549.004 19.025C546.604 19.025 544.404 19.55 542.404 20.6C540.454 21.6 538.854 22.925 537.604 24.575C536.354 26.175 535.629 27.95 535.429 29.9L535.354 25.85C535.604 24 536.154 22.25 537.004 20.6C537.854 18.9 538.979 17.4 540.379 16.1C541.779 14.75 543.429 13.7 545.329 12.95C547.229 12.2 549.329 11.825 551.629 11.825ZM573.049 12.65H599.449V19.475H573.049V12.65ZM582.049 2.6H590.449V50H582.049V2.6ZM625.286 50.825C621.136 50.825 617.411 50.075 614.111 48.575C610.811 47.075 608.211 44.875 606.311 41.975C604.411 39.075 603.461 35.55 603.461 31.4C603.461 27.3 604.411 23.8 606.311 20.9C608.211 17.95 610.811 15.7 614.111 14.15C617.411 12.6 621.136 11.825 625.286 11.825C629.436 11.825 633.136 12.6 636.386 14.15C639.636 15.7 642.186 17.95 644.036 20.9C645.936 23.8 646.886 27.3 646.886 31.4C646.886 35.55 645.936 39.075 644.036 41.975C642.186 44.875 639.636 47.075 636.386 48.575C633.136 50.075 629.436 50.825 625.286 50.825ZM625.286 44C627.686 44 629.886 43.525 631.886 42.575C633.886 41.625 635.461 40.2 636.611 38.3C637.811 36.4 638.411 34.1 638.411 31.4C638.411 28.7 637.811 26.4 636.611 24.5C635.461 22.6 633.886 21.15 631.886 20.15C629.936 19.1 627.736 18.575 625.286 18.575C622.836 18.575 620.611 19.075 618.611 20.075C616.611 21.075 614.986 22.525 613.736 24.425C612.536 26.325 611.936 28.65 611.936 31.4C611.936 34.1 612.536 36.4 613.736 38.3C614.936 40.2 616.536 41.625 618.536 42.575C620.586 43.525 622.836 44 625.286 44ZM654.337 12.65H662.662V50H654.337V12.65ZM676.162 19.775C673.462 19.775 671.137 20.35 669.187 21.5C667.287 22.65 665.762 24.05 664.612 25.7C663.462 27.35 662.662 28.95 662.212 30.5L662.137 26.3C662.187 25.75 662.362 24.925 662.662 23.825C662.962 22.675 663.412 21.425 664.012 20.075C664.662 18.725 665.512 17.425 666.562 16.175C667.662 14.875 668.987 13.825 670.537 13.025C672.137 12.225 674.012 11.825 676.162 11.825V19.775Z" fill="black"/>
<path d="M36.05 45.575V46.575H37.787L36.9148 45.0729L36.05 45.575ZM32.225 45.575L31.3615 45.0707L30.4829 46.575H32.225V45.575ZM58.025 1.4V0.4H57.451L57.1615 0.895674L58.025 1.4ZM66.5 1.4H67.5V0.4H66.5V1.4ZM66.5 50V51H67.5V50H66.5ZM58.025 50H57.025V51H58.025V50ZM58.025 13.625L58.285 12.6594L57.025 12.3202V13.625H58.025ZM59.975 14.15L60.8363 14.6581L61.5041 13.5261L60.235 13.1844L59.975 14.15ZM38.825 50V51H39.3961L39.6863 50.5081L38.825 50ZM29.525 50L28.6646 50.5097L28.9551 51H29.525V50ZM8.375 14.3L8.09091 13.3412L6.86062 13.7057L7.51465 14.8097L8.375 14.3ZM10.4 13.7H11.4V12.3607L10.1159 12.7412L10.4 13.7ZM10.4 50V51H11.4V50H10.4ZM1.85 50H0.85V51H1.85V50ZM1.85 1.4V0.4H0.85V1.4H1.85ZM10.4 1.4L11.2648 0.897863L10.9757 0.4H10.4V1.4ZM36.05 44.575H32.225V46.575H36.05V44.575ZM33.0885 46.0793L58.8885 1.90433L57.1615 0.895674L31.3615 45.0707L33.0885 46.0793ZM58.025 2.4H66.5V0.4H58.025V2.4ZM65.5 1.4V50H67.5V1.4H65.5ZM66.5 49H58.025V51H66.5V49ZM59.025 50V13.625H57.025V50H59.025ZM57.765 14.5906L59.715 15.1156L60.235 13.1844L58.285 12.6594L57.765 14.5906ZM59.1137 13.6419L37.9637 49.4919L39.6863 50.5081L60.8363 14.6581L59.1137 13.6419ZM38.825 49H29.525V51H38.825V49ZM30.3854 49.4903L9.23535 13.7903L7.51465 14.8097L28.6646 50.5097L30.3854 49.4903ZM8.65909 15.2588L10.6841 14.6588L10.1159 12.7412L8.09091 13.3412L8.65909 15.2588ZM9.4 13.7V50H11.4V13.7H9.4ZM10.4 49H1.85V51H10.4V49ZM2.85 50V1.4H0.85V50H2.85ZM1.85 2.4H10.4V0.4H1.85V2.4ZM9.53521 1.90214L35.1852 46.0771L36.9148 45.0729L11.2648 0.897863L9.53521 1.90214ZM108.168 37.7V36.7H107.435L107.215 37.3989L108.168 37.7ZM116.193 37.7L117.181 37.855L117.362 36.7H116.193V37.7ZM113.193 44.525L112.412 43.9003L112.411 43.9028L113.193 44.525ZM106.818 49.175L107.196 50.1011L107.203 50.0981L107.21 50.095L106.818 49.175ZM85.7434 48.5L85.3123 49.4024L85.3234 49.4076L85.7434 48.5ZM77.8684 41.75L77.0319 42.298L77.8684 41.75ZM77.7934 21.05L78.6405 21.5813L77.7934 21.05ZM85.4434 14.225L85.0071 13.3252L85.0017 13.3278L85.4434 14.225ZM107.943 14.225L107.467 15.104L107.475 15.1088L107.484 15.1134L107.943 14.225ZM114.618 21.275L113.71 21.6931L113.713 21.6987L114.618 21.275ZM116.418 33.05V34.05H117.367L117.417 33.1026L116.418 33.05ZM83.4934 33.05V32.05H82.3672L82.5004 33.1682L83.4934 33.05ZM85.5184 38.75L84.6788 39.2933L84.6881 39.3077L84.698 39.3218L85.5184 38.75ZM90.1684 42.65L89.7304 43.549L89.7398 43.5536L89.7493 43.558L90.1684 42.65ZM104.268 42.275L103.77 41.408L103.76 41.4136L104.268 42.275ZM88.2184 21.125L88.8184 21.925L88.8241 21.9207L88.8298 21.9163L88.2184 21.125ZM83.9434 27.5L82.9732 27.2575L82.6626 28.5H83.9434V27.5ZM108.018 27.5V28.5H109.092L109.016 27.4288L108.018 27.5ZM104.643 20.975L104.028 21.7633L104.034 21.768L104.04 21.7727L104.643 20.975ZM108.168 38.7H116.193V36.7H108.168V38.7ZM115.205 37.545C114.832 39.9245 113.903 42.0373 112.412 43.9003L113.974 45.1497C115.684 43.0127 116.755 40.5755 117.181 37.855L115.205 37.545ZM112.411 43.9028C110.981 45.7011 109.001 47.1585 106.426 48.255L107.21 50.095C110.036 48.8915 112.306 47.2489 113.976 45.1472L112.411 43.9028ZM106.441 48.2489C103.89 49.2883 100.799 49.825 97.1434 49.825V51.825C100.987 51.825 104.347 51.2617 107.196 50.1011L106.441 48.2489ZM97.1434 49.825C93.0165 49.825 89.3631 49.073 86.1633 47.5924L85.3234 49.4076C88.8236 51.027 92.7702 51.825 97.1434 51.825V49.825ZM86.1743 47.5976C82.9772 46.0706 80.4975 43.9381 78.7048 41.202L77.0319 42.298C79.0392 45.3619 81.8095 47.7293 85.3124 49.4024L86.1743 47.5976ZM78.7048 41.202C76.9272 38.4887 76.0184 35.236 76.0184 31.4H74.0184C74.0184 35.564 75.0095 39.2113 77.0319 42.298L78.7048 41.202ZM76.0184 31.4C76.0184 27.612 76.9033 24.3515 78.6405 21.5813L76.9462 20.5187C74.9834 23.6485 74.0184 27.288 74.0184 31.4H76.0184ZM78.6405 21.5813C80.3879 18.795 82.7945 16.6437 85.885 15.1222L85.0017 13.3278C81.5922 15.0063 78.8989 17.405 76.9462 20.5187L78.6405 21.5813ZM85.8796 15.1248C89.0221 13.6012 92.6686 12.825 96.8434 12.825V10.825C92.4182 10.825 88.4646 11.6488 85.0071 13.3252L85.8796 15.1248ZM96.8434 12.825C101.179 12.825 104.703 13.6051 107.467 15.104L108.42 13.346C105.284 11.6449 101.408 10.825 96.8434 10.825V12.825ZM107.484 15.1134C110.281 16.5582 112.35 18.7397 113.71 21.6931L115.527 20.8569C113.986 17.5103 111.606 14.9918 108.402 13.3366L107.484 15.1134ZM113.713 21.6987C115.071 24.6034 115.664 28.3509 115.42 32.9974L117.417 33.1026C117.672 28.2491 117.066 24.1466 115.524 20.8513L113.713 21.6987ZM116.418 32.05H83.4934V34.05H116.418V32.05ZM82.5004 33.1682C82.7676 35.4128 83.4922 37.4594 84.6788 39.2933L86.3579 38.2067C85.3445 36.6406 84.7191 34.8872 84.4864 32.9318L82.5004 33.1682ZM84.698 39.3218C85.953 41.1226 87.6395 42.5303 89.7304 43.549L90.6063 41.751C88.7972 40.8697 87.3837 39.6774 86.3388 38.1782L84.698 39.3218ZM89.7493 43.558C91.8554 44.53 94.2786 45 96.9934 45V43C94.5081 43 92.3813 42.57 90.5874 41.742L89.7493 43.558ZM96.9934 45C100.023 45 102.635 44.3993 104.776 43.1364L103.76 41.4136C102.002 42.4507 99.764 43 96.9934 43V45ZM104.767 43.1419C106.947 41.8881 108.435 40.1775 109.122 38.0011L107.215 37.3989C106.702 39.0225 105.589 40.3619 103.77 41.4081L104.767 43.1419ZM96.6184 17.575C93.0477 17.575 90.0182 18.4704 87.6069 20.3337L88.8298 21.9163C90.8185 20.3796 93.389 19.575 96.6184 19.575V17.575ZM87.6184 20.325C85.2398 22.1089 83.6805 24.4284 82.9732 27.2575L84.9135 27.7425C85.5062 25.3716 86.7969 23.4411 88.8184 21.925L87.6184 20.325ZM83.9434 28.5H108.018V26.5H83.9434V28.5ZM109.016 27.4288C108.797 24.3709 107.549 21.9186 105.246 20.1773L104.04 21.7727C105.837 23.1314 106.839 25.0291 107.021 27.5712L109.016 27.4288ZM105.259 20.1867C102.99 18.4162 100.08 17.575 96.6184 17.575V19.575C99.7563 19.575 102.196 20.3338 104.028 21.7633L105.259 20.1867ZM155.043 37.7V36.7H154.31L154.09 37.3989L155.043 37.7ZM163.068 37.7L164.056 37.855L164.237 36.7H163.068V37.7ZM160.068 44.525L159.287 43.9003L159.286 43.9028L160.068 44.525ZM153.693 49.175L154.071 50.1011L154.078 50.0981L154.085 50.095L153.693 49.175ZM132.618 48.5L132.187 49.4024L132.198 49.4076L132.618 48.5ZM124.743 41.75L123.907 42.298L124.743 41.75ZM124.668 21.05L125.516 21.5813L124.668 21.05ZM132.318 14.225L131.882 13.3252L131.877 13.3278L132.318 14.225ZM154.818 14.225L154.342 15.104L154.35 15.1088L154.359 15.1134L154.818 14.225ZM161.493 21.275L160.585 21.6931L160.588 21.6987L161.493 21.275ZM163.293 33.05V34.05H164.242L164.292 33.1026L163.293 33.05ZM130.368 33.05V32.05H129.242L129.375 33.1682L130.368 33.05ZM132.393 38.75L131.554 39.2933L131.563 39.3077L131.573 39.3218L132.393 38.75ZM137.043 42.65L136.605 43.549L136.615 43.5536L136.624 43.558L137.043 42.65ZM151.143 42.275L150.645 41.408L150.635 41.4136L151.143 42.275ZM135.093 21.125L135.693 21.925L135.699 21.9207L135.705 21.9163L135.093 21.125ZM130.818 27.5L129.848 27.2575L129.538 28.5H130.818V27.5ZM154.893 27.5V28.5H155.967L155.891 27.4288L154.893 27.5ZM151.518 20.975L150.903 21.7633L150.909 21.768L150.915 21.7727L151.518 20.975ZM155.043 38.7H163.068V36.7H155.043V38.7ZM162.08 37.545C161.707 39.9245 160.778 42.0373 159.287 43.9003L160.849 45.1497C162.559 43.0127 163.63 40.5755 164.056 37.855L162.08 37.545ZM159.286 43.9028C157.856 45.7011 155.876 47.1585 153.301 48.255L154.085 50.095C156.911 48.8915 159.181 47.2489 160.851 45.1472L159.286 43.9028ZM153.316 48.2489C150.765 49.2883 147.674 49.825 144.018 49.825V51.825C147.862 51.825 151.222 51.2617 154.071 50.1011L153.316 48.2489ZM144.018 49.825C139.891 49.825 136.238 49.073 133.038 47.5924L132.198 49.4076C135.699 51.027 139.645 51.825 144.018 51.825V49.825ZM133.049 47.5976C129.852 46.0706 127.372 43.9381 125.58 41.202L123.907 42.298C125.914 45.3619 128.685 47.7293 132.187 49.4024L133.049 47.5976ZM125.58 41.202C123.802 38.4887 122.893 35.236 122.893 31.4H120.893C120.893 35.564 121.885 39.2113 123.907 42.298L125.58 41.202ZM122.893 31.4C122.893 27.612 123.778 24.3515 125.516 21.5813L123.821 20.5187C121.858 23.6485 120.893 27.288 120.893 31.4H122.893ZM125.516 21.5813C127.263 18.795 129.669 16.6437 132.76 15.1222L131.877 13.3278C128.467 15.0063 125.774 17.405 123.821 20.5187L125.516 21.5813ZM132.755 15.1248C135.897 13.6012 139.544 12.825 143.718 12.825V10.825C139.293 10.825 135.34 11.6488 131.882 13.3252L132.755 15.1248ZM143.718 12.825C148.054 12.825 151.578 13.6051 154.342 15.104L155.295 13.346C152.159 11.6449 148.283 10.825 143.718 10.825V12.825ZM154.359 15.1134C157.156 16.5582 159.225 18.7397 160.585 21.6931L162.402 20.8569C160.861 17.5103 158.481 14.9918 155.277 13.3366L154.359 15.1134ZM160.588 21.6987C161.946 24.6034 162.539 28.3509 162.295 32.9974L164.292 33.1026C164.547 28.2491 163.941 24.1466 162.399 20.8513L160.588 21.6987ZM163.293 32.05H130.368V34.05H163.293V32.05ZM129.375 33.1682C129.643 35.4128 130.367 37.4594 131.554 39.2933L133.233 38.2067C132.22 36.6406 131.594 34.8872 131.361 32.9318L129.375 33.1682ZM131.573 39.3218C132.828 41.1226 134.514 42.5303 136.605 43.549L137.481 41.751C135.672 40.8697 134.259 39.6774 133.214 38.1782L131.573 39.3218ZM136.624 43.558C138.73 44.53 141.154 45 143.868 45V43C141.383 43 139.256 42.57 137.462 41.742L136.624 43.558ZM143.868 45C146.898 45 149.51 44.3993 151.651 43.1364L150.635 41.4136C148.877 42.4507 146.639 43 143.868 43V45ZM151.642 43.1419C153.822 41.8881 155.31 40.1775 155.997 38.0011L154.09 37.3989C153.577 39.0225 152.464 40.3619 150.645 41.4081L151.642 43.1419ZM143.493 17.575C139.923 17.575 136.893 18.4704 134.482 20.3337L135.705 21.9163C137.693 20.3796 140.264 19.575 143.493 19.575V17.575ZM134.493 20.325C132.115 22.1089 130.555 24.4284 129.848 27.2575L131.788 27.7425C132.381 25.3716 133.672 23.4411 135.693 21.925L134.493 20.325ZM130.818 28.5H154.893V26.5H130.818V28.5ZM155.891 27.4288C155.672 24.3709 154.424 21.9186 152.121 20.1773L150.915 21.7727C152.712 23.1314 153.714 25.0291 153.896 27.5712L155.891 27.4288ZM152.134 20.1867C149.865 18.4162 146.955 17.575 143.493 17.575V19.575C146.631 19.575 149.071 20.3338 150.903 21.7633L152.134 20.1867ZM167.507 12.65V11.65H166.507V12.65H167.507ZM193.907 12.65H194.907V11.65H193.907V12.65ZM193.907 19.475V20.475H194.907V19.475H193.907ZM167.507 19.475H166.507V20.475H167.507V19.475ZM176.507 2.6V1.6H175.507V2.6H176.507ZM184.907 2.6H185.907V1.6H184.907V2.6ZM184.907 50V51H185.907V50H184.907ZM176.507 50H175.507V51H176.507V50ZM167.507 13.65H193.907V11.65H167.507V13.65ZM192.907 12.65V19.475H194.907V12.65H192.907ZM193.907 18.475H167.507V20.475H193.907V18.475ZM168.507 19.475V12.65H166.507V19.475H168.507ZM176.507 3.6H184.907V1.6H176.507V3.6ZM183.907 2.6V50H185.907V2.6H183.907ZM184.907 49H176.507V51H184.907V49ZM177.507 50V2.6H175.507V50H177.507ZM262.815 1.4L263.671 1.91709L264.587 0.4H262.815V1.4ZM243.015 34.175L242.159 33.6579L242.015 33.8964V34.175H243.015ZM243.015 50V51H244.015V50H243.015ZM234.465 50H233.465V51H234.465V50ZM234.465 34.175H235.465V33.8964L235.321 33.6579L234.465 34.175ZM214.665 1.4V0.4H212.892L213.809 1.91709L214.665 1.4ZM224.49 1.4L225.353 0.895847L225.064 0.4H224.49V1.4ZM241.215 30.05V31.05H242.957L242.078 29.5458L241.215 30.05ZM236.565 30.05L235.698 29.5509L234.835 31.05H236.565V30.05ZM253.065 1.4V0.4H252.487L252.198 0.900932L253.065 1.4ZM261.959 0.882914L242.159 33.6579L243.871 34.6921L263.671 1.91709L261.959 0.882914ZM242.015 34.175V50H244.015V34.175H242.015ZM243.015 49H234.465V51H243.015V49ZM235.465 50V34.175H233.465V50H235.465ZM235.321 33.6579L215.521 0.882914L213.809 1.91709L233.609 34.6921L235.321 33.6579ZM214.665 2.4H224.49V0.4H214.665V2.4ZM223.626 1.90415L240.351 30.5542L242.078 29.5458L225.353 0.895847L223.626 1.90415ZM241.215 29.05H236.565V31.05H241.215V29.05ZM237.431 30.5491L253.931 1.89907L252.198 0.900932L235.698 29.5509L237.431 30.5491ZM253.065 2.4H262.815V0.4H253.065V2.4ZM270.605 48.575L270.191 49.4854L270.605 48.575ZM262.805 41.975L263.641 41.427L262.805 41.975ZM262.805 20.9L263.641 21.448L263.646 21.4415L262.805 20.9ZM270.605 14.15L270.18 13.2449L270.605 14.15ZM300.53 20.9L299.683 21.4313L299.688 21.4397L299.693 21.448L300.53 20.9ZM300.53 41.975L299.693 41.4269L299.687 41.4372L300.53 41.975ZM292.88 48.575L292.461 47.667L292.88 48.575ZM293.105 38.3L292.259 37.766L292.254 37.7741L292.249 37.7822L293.105 38.3ZM293.105 24.5L292.249 25.0178L292.254 25.0259L292.259 25.034L293.105 24.5ZM288.38 20.15L287.906 21.0305L287.919 21.0377L287.933 21.0444L288.38 20.15ZM275.105 20.075L274.658 19.1806L275.105 20.075ZM270.23 24.425L269.394 23.8754L269.389 23.8831L269.384 23.891L270.23 24.425ZM270.23 38.3L269.384 38.834L270.23 38.3ZM275.03 42.575L274.601 43.4783L274.609 43.4823L275.03 42.575ZM281.78 49.825C277.752 49.825 274.171 49.0976 271.019 47.6646L270.191 49.4854C273.639 51.0524 277.508 51.825 281.78 51.825V49.825ZM271.019 47.6646C267.883 46.2392 265.433 44.1612 263.641 41.427L261.968 42.523C263.977 45.5888 266.727 47.9108 270.191 49.4854L271.019 47.6646ZM263.641 41.427C261.868 38.7196 260.955 35.3942 260.955 31.4H258.955C258.955 35.7058 259.942 39.4304 261.968 42.523L263.641 41.427ZM260.955 31.4C260.955 27.4585 261.866 24.1573 263.641 21.448L261.968 20.352C259.943 23.4427 258.955 27.1415 258.955 31.4H260.955ZM263.646 21.4415C265.44 18.6557 267.893 16.5286 271.03 15.0551L270.18 13.2449C266.717 14.8714 263.97 17.2443 261.964 20.3585L263.646 21.4415ZM271.03 15.0551C274.18 13.5757 277.757 12.825 281.78 12.825V10.825C277.503 10.825 273.63 11.6243 270.18 13.2449L271.03 15.0551ZM281.78 12.825C285.804 12.825 289.353 13.5758 292.449 15.0526L293.31 13.2474C289.907 11.6242 286.056 10.825 281.78 10.825V12.825ZM292.449 15.0526C295.534 16.5238 297.937 18.6478 299.683 21.4313L301.377 20.3687C299.423 17.2522 296.726 14.8762 293.31 13.2474L292.449 15.0526ZM299.693 21.448C301.468 24.1573 302.38 27.4585 302.38 31.4H304.38C304.38 27.1415 303.391 23.4427 301.366 20.352L299.693 21.448ZM302.38 31.4C302.38 35.3942 301.467 38.7196 299.693 41.427L301.366 42.523C303.393 39.4304 304.38 35.7058 304.38 31.4H302.38ZM299.687 41.4372C297.944 44.169 295.544 46.2439 292.461 47.667L293.299 49.483C296.715 47.9062 299.416 45.581 301.373 42.5128L299.687 41.4372ZM292.461 47.667C289.362 49.0975 285.808 49.825 281.78 49.825V51.825C286.052 51.825 289.898 51.0525 293.299 49.483L292.461 47.667ZM281.78 45C284.316 45 286.664 44.4972 288.809 43.4783L287.951 41.6717C286.096 42.5528 284.044 43 281.78 43V45ZM288.809 43.4783C290.986 42.444 292.709 40.8847 293.96 38.8178L292.249 37.7822C291.2 39.5153 289.773 40.806 287.951 41.6717L288.809 43.4783ZM293.95 38.834C295.27 36.7445 295.905 34.2506 295.905 31.4H293.905C293.905 33.9494 293.34 36.0555 292.259 37.766L293.95 38.834ZM295.905 31.4C295.905 28.5494 295.27 26.0555 293.95 23.966L292.259 25.034C293.34 26.7445 293.905 28.8506 293.905 31.4H295.905ZM293.96 23.9822C292.712 21.9195 290.995 20.3394 288.827 19.2556L287.933 21.0444C289.765 21.9606 291.198 23.2805 292.249 25.0178L293.96 23.9822ZM288.854 19.2695C286.743 18.133 284.377 17.575 281.78 17.575V19.575C284.082 19.575 286.116 20.067 287.906 21.0305L288.854 19.2695ZM281.78 17.575C279.19 17.575 276.809 18.1047 274.658 19.1806L275.552 20.9694C277.4 20.0453 279.47 19.575 281.78 19.575V17.575ZM274.658 19.1806C272.497 20.2607 270.74 21.8309 269.394 23.8754L271.065 24.9746C272.22 23.2191 273.712 21.8893 275.552 20.9694L274.658 19.1806ZM269.384 23.891C268.063 25.9833 267.43 28.5034 267.43 31.4H269.43C269.43 28.7966 269.997 26.6667 271.075 24.959L269.384 23.891ZM267.43 31.4C267.43 34.2506 268.065 36.7445 269.384 38.834L271.075 37.766C269.995 36.0555 269.43 33.9494 269.43 31.4H267.43ZM269.384 38.834C270.684 40.8915 272.427 42.4458 274.601 43.4783L275.459 41.6717C273.633 40.8042 272.176 39.5085 271.075 37.766L269.384 38.834ZM274.609 43.4823C276.802 44.4984 279.197 45 281.78 45V43C279.463 43 277.358 42.5516 275.45 41.6677L274.609 43.4823ZM349.756 50V51H350.756V50H349.756ZM341.431 50H340.431V51H341.431V50ZM341.431 12.65V11.65H340.431V12.65H341.431ZM349.756 12.65H350.756V11.65H349.756V12.65ZM341.881 32.225L342.88 32.1938L340.902 32.0175L341.881 32.225ZM341.956 34.625L342.944 34.7771L342.958 34.6859L342.955 34.5938L341.956 34.625ZM341.281 37.55L340.315 37.29L340.31 37.3075L340.306 37.3251L341.281 37.55ZM339.706 41.825L338.805 41.3894L338.799 41.4021L339.706 41.825ZM336.856 46.175L336.096 45.5242L336.094 45.5265L336.856 46.175ZM332.506 49.55L332.943 50.4495L332.953 50.4445L332.963 50.4393L332.506 49.55ZM320.656 50.075L320.917 49.1096L320.907 49.1072L320.898 49.1049L320.656 50.075ZM315.706 47.75L315.101 48.5467L315.108 48.5516L315.114 48.5564L315.706 47.75ZM312.181 43.25L313.084 42.8219L312.181 43.25ZM310.831 12.65V11.65H309.831V12.65H310.831ZM319.156 12.65H320.156V11.65H319.156V12.65ZM320.281 40.025L319.406 40.5106L319.417 40.5301L319.429 40.5491L320.281 40.025ZM323.581 42.8L323.215 43.7308L323.581 42.8ZM335.206 41.825L334.661 40.986L335.206 41.825ZM339.631 37.4L338.788 36.8616L338.784 36.8678L339.631 37.4ZM349.756 49H341.431V51H349.756V49ZM342.431 50V12.65H340.431V50H342.431ZM341.431 13.65H349.756V11.65H341.431V13.65ZM348.756 12.65V50H350.756V12.65H348.756ZM340.881 32.2562L340.956 34.6562L342.955 34.5938L342.88 32.1938L340.881 32.2562ZM340.967 34.4729C340.876 35.0658 340.663 35.9969 340.315 37.29L342.246 37.81C342.598 36.5031 342.835 35.4842 342.944 34.7771L340.967 34.4729ZM340.306 37.3251C340.027 38.5349 339.532 39.8884 338.806 41.3894L340.606 42.2606C341.379 40.6616 341.934 39.1651 342.255 37.7749L340.306 37.3251ZM338.799 41.4021C338.142 42.8111 337.244 44.1854 336.096 45.5242L337.615 46.8258C338.867 45.3646 339.869 43.8389 340.612 42.2479L338.799 41.4021ZM336.094 45.5265C335.038 46.7669 333.695 47.8138 332.048 48.6607L332.963 50.4393C334.816 49.4862 336.373 48.2831 337.617 46.8235L336.094 45.5265ZM332.069 48.6505C330.488 49.4183 328.521 49.825 326.131 49.825V51.825C328.74 51.825 331.023 51.3817 332.943 50.4495L332.069 48.6505ZM326.131 49.825C324.424 49.825 322.687 49.5881 320.917 49.1096L320.395 51.0404C322.324 51.5619 324.237 51.825 326.131 51.825V49.825ZM320.898 49.1049C319.224 48.6864 317.693 47.9671 316.297 46.9436L315.114 48.5564C316.719 49.7329 318.487 50.5636 320.413 51.0451L320.898 49.1049ZM316.31 46.9533C315.007 45.9644 313.926 44.5994 313.084 42.8219L311.277 43.6781C312.235 45.7006 313.505 47.3356 315.101 48.5467L316.31 46.9533ZM313.084 42.8219C312.267 41.0965 311.831 38.8548 311.831 36.05H309.831C309.831 39.0452 310.294 41.6035 311.277 43.6781L313.084 42.8219ZM311.831 36.05V12.65H309.831V36.05H311.831ZM310.831 13.65H319.156V11.65H310.831V13.65ZM318.156 12.65V34.475H320.156V12.65H318.156ZM318.156 34.475C318.156 36.9136 318.542 38.9543 319.406 40.5106L321.155 39.5394C320.519 38.3957 320.156 36.7364 320.156 34.475H318.156ZM319.429 40.5491C320.341 42.0308 321.61 43.1002 323.215 43.7308L323.946 41.8692C322.751 41.3998 321.82 40.6192 321.132 39.5009L319.429 40.5491ZM323.215 43.7308C324.755 44.3357 326.508 44.625 328.456 44.625V42.625C326.703 42.625 325.206 42.3643 323.946 41.8692L323.215 43.7308ZM328.456 44.625C331.259 44.625 333.708 43.9886 335.75 42.664L334.661 40.986C333.004 42.0614 330.952 42.625 328.456 42.625V44.625ZM335.75 42.664C337.713 41.3903 339.295 39.8133 340.477 37.9322L338.784 36.8678C337.766 38.4867 336.398 39.8597 334.661 40.986L335.75 42.664ZM340.473 37.9384C341.672 36.063 342.478 34.2267 342.859 32.4325L340.902 32.0175C340.583 33.5233 339.89 35.1371 338.788 36.8616L340.473 37.9384ZM358.951 12.65V11.65H357.951V12.65H358.951ZM367.276 12.65H368.276V11.65H367.276V12.65ZM367.276 50V51H368.276V50H367.276ZM358.951 50H357.951V51H358.951V50ZM380.776 19.775V20.775H381.776V19.775H380.776ZM373.801 21.5L373.293 20.6386L373.283 20.6445L373.801 21.5ZM369.226 25.7L370.046 26.2718L369.226 25.7ZM366.826 30.5L365.826 30.5179L367.786 30.7788L366.826 30.5ZM366.751 26.3L365.755 26.2095L365.75 26.2635L365.751 26.3179L366.751 26.3ZM367.276 23.825L368.241 24.0881L368.243 24.0774L367.276 23.825ZM368.626 20.075L367.725 19.6412L367.718 19.6549L367.712 19.6689L368.626 20.075ZM371.176 16.175L370.412 15.5291L370.41 15.5318L371.176 16.175ZM375.151 13.025L374.704 12.1305L374.692 12.1364L375.151 13.025ZM380.776 11.825H381.776V10.825H380.776V11.825ZM358.951 13.65H367.276V11.65H358.951V13.65ZM366.276 12.65V50H368.276V12.65H366.276ZM367.276 49H358.951V51H367.276V49ZM359.951 50V12.65H357.951V50H359.951ZM380.776 18.775C377.932 18.775 375.424 19.3818 373.293 20.6386L374.309 22.3614C376.078 21.3182 378.22 20.775 380.776 20.775V18.775ZM373.283 20.6445C371.276 21.8593 369.643 23.3521 368.405 25.1282L370.046 26.2718C371.108 24.7479 372.526 23.4407 374.319 22.3555L373.283 20.6445ZM368.405 25.1282C367.208 26.8465 366.352 28.5444 365.865 30.2212L367.786 30.7788C368.199 29.3555 368.944 27.8535 370.046 26.2718L368.405 25.1282ZM367.826 30.4821L367.751 26.2821L365.751 26.3179L365.826 30.5179L367.826 30.4821ZM367.747 26.3905C367.788 25.9325 367.943 25.1779 368.241 24.0881L366.311 23.5619C366.008 24.6721 365.813 25.5675 365.755 26.2095L367.747 26.3905ZM368.243 24.0774C368.527 22.9909 368.957 21.7929 369.54 20.4811L367.712 19.6689C367.095 21.0571 366.625 22.3591 366.308 23.5726L368.243 24.0774ZM369.527 20.5088C370.138 19.2404 370.94 18.01 371.941 16.8182L370.41 15.5318C369.311 16.84 368.414 18.2096 367.725 19.6412L369.527 20.5088ZM371.939 16.8209C372.952 15.6235 374.173 14.655 375.609 13.9136L374.692 12.1364C373.029 12.995 371.599 14.1265 370.412 15.5291L371.939 16.8209ZM375.598 13.9194C377.034 13.2015 378.75 12.825 380.776 12.825V10.825C378.502 10.825 376.468 11.2485 374.704 12.1306L375.598 13.9194ZM379.776 11.825V19.775H381.776V11.825H379.776ZM439.761 45.575V46.575H441.498L440.626 45.0729L439.761 45.575ZM435.936 45.575L435.072 45.0707L434.194 46.575H435.936V45.575ZM461.736 1.4V0.4H461.162L460.872 0.895674L461.736 1.4ZM470.211 1.4H471.211V0.4H470.211V1.4ZM470.211 50V51H471.211V50H470.211ZM461.736 50H460.736V51H461.736V50ZM461.736 13.625L461.996 12.6594L460.736 12.3202V13.625H461.736ZM463.686 14.15L464.547 14.6581L465.215 13.5261L463.946 13.1844L463.686 14.15ZM442.536 50V51H443.107L443.397 50.5081L442.536 50ZM433.236 50L432.376 50.5097L432.666 51H433.236V50ZM412.086 14.3L411.802 13.3412L410.572 13.7057L411.226 14.8097L412.086 14.3ZM414.111 13.7H415.111V12.3607L413.827 12.7412L414.111 13.7ZM414.111 50V51H415.111V50H414.111ZM405.561 50H404.561V51H405.561V50ZM405.561 1.4V0.4H404.561V1.4H405.561ZM414.111 1.4L414.976 0.897863L414.687 0.4H414.111V1.4ZM439.761 44.575H435.936V46.575H439.761V44.575ZM436.799 46.0793L462.599 1.90433L460.872 0.895674L435.072 45.0707L436.799 46.0793ZM461.736 2.4H470.211V0.4H461.736V2.4ZM469.211 1.4V50H471.211V1.4H469.211ZM470.211 49H461.736V51H470.211V49ZM462.736 50V13.625H460.736V50H462.736ZM461.476 14.5906L463.426 15.1156L463.946 13.1844L461.996 12.6594L461.476 14.5906ZM462.825 13.6419L441.675 49.4919L443.397 50.5081L464.547 14.6581L462.825 13.6419ZM442.536 49H433.236V51H442.536V49ZM434.096 49.4903L412.946 13.7903L411.226 14.8097L432.376 50.5097L434.096 49.4903ZM412.37 15.2588L414.395 14.6588L413.827 12.7412L411.802 13.3412L412.37 15.2588ZM413.111 13.7V50H415.111V13.7H413.111ZM414.111 49H405.561V51H414.111V49ZM406.561 50V1.4H404.561V50H406.561ZM405.561 2.4H414.111V0.4H405.561V2.4ZM413.246 1.90214L438.896 46.0771L440.626 45.0729L414.976 0.897863L413.246 1.90214ZM511.879 37.7V36.7H511.146L510.926 37.3989L511.879 37.7ZM519.904 37.7L520.892 37.855L521.073 36.7H519.904V37.7ZM516.904 44.525L516.123 43.9003L516.121 43.9028L516.904 44.525ZM510.529 49.175L510.907 50.1011L510.914 50.0981L510.921 50.095L510.529 49.175ZM489.454 48.5L489.023 49.4024L489.034 49.4076L489.454 48.5ZM481.579 41.75L480.743 42.298L481.579 41.75ZM481.504 21.05L482.352 21.5813L481.504 21.05ZM489.154 14.225L488.718 13.3252L488.713 13.3278L489.154 14.225ZM511.654 14.225L511.178 15.104L511.186 15.1088L511.195 15.1134L511.654 14.225ZM518.329 21.275L517.421 21.6931L517.423 21.6987L518.329 21.275ZM520.129 33.05V34.05H521.078L521.128 33.1026L520.129 33.05ZM487.204 33.05V32.05H486.078L486.211 33.1682L487.204 33.05ZM489.229 38.75L488.39 39.2933L488.399 39.3077L488.409 39.3218L489.229 38.75ZM493.879 42.65L493.441 43.549L493.451 43.5536L493.46 43.558L493.879 42.65ZM507.979 42.275L507.481 41.408L507.471 41.4136L507.979 42.275ZM491.929 21.125L492.529 21.925L492.535 21.9207L492.541 21.9163L491.929 21.125ZM487.654 27.5L486.684 27.2575L486.374 28.5H487.654V27.5ZM511.729 27.5V28.5H512.803L512.727 27.4288L511.729 27.5ZM508.354 20.975L507.739 21.7633L507.745 21.768L507.751 21.7727L508.354 20.975ZM511.879 38.7H519.904V36.7H511.879V38.7ZM518.916 37.545C518.543 39.9245 517.614 42.0373 516.123 43.9003L517.685 45.1497C519.395 43.0127 520.465 40.5755 520.892 37.855L518.916 37.545ZM516.121 43.9028C514.692 45.7011 512.712 47.1585 510.137 48.255L510.921 50.095C513.747 48.8915 516.017 47.2489 517.687 45.1472L516.121 43.9028ZM510.152 48.2489C507.601 49.2883 504.51 49.825 500.854 49.825V51.825C504.698 51.825 508.058 51.2617 510.907 50.1011L510.152 48.2489ZM500.854 49.825C496.727 49.825 493.074 49.073 489.874 47.5924L489.034 49.4076C492.535 51.027 496.481 51.825 500.854 51.825V49.825ZM489.885 47.5976C486.688 46.0706 484.208 43.9381 482.416 41.202L480.743 42.298C482.75 45.3619 485.52 47.7293 489.023 49.4024L489.885 47.5976ZM482.416 41.202C480.638 38.4887 479.729 35.236 479.729 31.4H477.729C477.729 35.564 478.72 39.2113 480.743 42.298L482.416 41.202ZM479.729 31.4C479.729 27.612 480.614 24.3515 482.352 21.5813L480.657 20.5187C478.694 23.6485 477.729 27.288 477.729 31.4H479.729ZM482.352 21.5813C484.099 18.795 486.505 16.6437 489.596 15.1222L488.713 13.3278C485.303 15.0063 482.61 17.405 480.657 20.5187L482.352 21.5813ZM489.591 15.1248C492.733 13.6012 496.379 12.825 500.554 12.825V10.825C496.129 10.825 492.176 11.6488 488.718 13.3252L489.591 15.1248ZM500.554 12.825C504.89 12.825 508.414 13.6051 511.178 15.104L512.131 13.346C508.995 11.6449 505.118 10.825 500.554 10.825V12.825ZM511.195 15.1134C513.992 16.5582 516.061 18.7397 517.421 21.6931L519.238 20.8569C517.697 17.5103 515.317 14.9918 512.113 13.3366L511.195 15.1134ZM517.423 21.6987C518.782 24.6034 519.375 28.3509 519.131 32.9974L521.128 33.1026C521.383 28.2491 520.776 24.1466 519.235 20.8513L517.423 21.6987ZM520.129 32.05H487.204V34.05H520.129V32.05ZM486.211 33.1682C486.479 35.4128 487.203 37.4594 488.39 39.2933L490.069 38.2067C489.055 36.6406 488.43 34.8872 488.197 32.9318L486.211 33.1682ZM488.409 39.3218C489.664 41.1226 491.35 42.5303 493.441 43.549L494.317 41.751C492.508 40.8697 491.095 39.6774 490.05 38.1782L488.409 39.3218ZM493.46 43.558C495.566 44.53 497.99 45 500.704 45V43C498.219 43 496.092 42.57 494.298 41.742L493.46 43.558ZM500.704 45C503.734 45 506.346 44.3993 508.487 43.1364L507.471 41.4136C505.713 42.4507 503.475 43 500.704 43V45ZM508.478 43.1419C510.658 41.8881 512.146 40.1775 512.833 38.0011L510.926 37.3989C510.413 39.0225 509.3 40.3619 507.481 41.4081L508.478 43.1419ZM500.329 17.575C496.759 17.575 493.729 18.4704 491.318 20.3337L492.541 21.9163C494.529 20.3796 497.1 19.575 500.329 19.575V17.575ZM491.329 20.325C488.951 22.1089 487.391 24.4284 486.684 27.2575L488.624 27.7425C489.217 25.3716 490.508 23.4411 492.529 21.925L491.329 20.325ZM487.654 28.5H511.729V26.5H487.654V28.5ZM512.727 27.4288C512.508 24.3709 511.26 21.9186 508.957 20.1773L507.751 21.7727C509.548 23.1314 510.55 25.0291 510.732 27.5712L512.727 27.4288ZM508.97 20.1867C506.701 18.4162 503.791 17.575 500.329 17.575V19.575C503.467 19.575 505.907 20.3338 507.739 21.7633L508.97 20.1867ZM527.554 12.65V11.65H526.554V12.65H527.554ZM535.879 12.65H536.879V11.65H535.879V12.65ZM535.879 50V51H536.879V50H535.879ZM527.554 50H526.554V51H527.554V50ZM557.554 12.725L557.238 13.6737L557.246 13.6762L557.554 12.725ZM562.279 15.5L561.586 16.2208L561.6 16.2344L561.615 16.2474L562.279 15.5ZM565.354 20L564.422 20.3624L564.427 20.3736L564.431 20.3846L565.354 20ZM566.479 50V51H567.479V50H566.479ZM558.154 50H557.154V51H558.154V50ZM555.904 21.275L555.185 21.97L555.197 21.9822L555.209 21.994L555.904 21.275ZM542.404 20.6L542.861 21.4899L542.869 21.4854L542.404 20.6ZM537.604 24.575L538.392 25.1906L538.397 25.1848L538.401 25.1789L537.604 24.575ZM535.429 29.9L534.429 29.9185L536.424 30.002L535.429 29.9ZM535.354 25.85L534.363 25.7161L534.353 25.792L534.354 25.8685L535.354 25.85ZM537.004 20.6L537.893 21.058L537.899 21.0472L537.004 20.6ZM540.379 16.1L541.06 16.8328L541.067 16.8264L541.073 16.8198L540.379 16.1ZM545.329 12.95L545.696 13.8802L545.329 12.95ZM527.554 13.65H535.879V11.65H527.554V13.65ZM534.879 12.65V50H536.879V12.65H534.879ZM535.879 49H527.554V51H535.879V49ZM528.554 50V12.65H526.554V50H528.554ZM551.629 12.825C553.686 12.825 555.553 13.1119 557.238 13.6737L557.871 11.7763C555.956 11.1381 553.873 10.825 551.629 10.825V12.825ZM557.246 13.6762C558.963 14.2333 560.404 15.0838 561.586 16.2208L562.972 14.7792C561.555 13.4162 559.845 12.4167 557.863 11.7738L557.246 13.6762ZM561.615 16.2474C562.838 17.3349 563.776 18.6997 564.422 20.3624L566.286 19.6376C565.533 17.7003 564.42 16.0651 562.944 14.7526L561.615 16.2474ZM564.431 20.3846C565.119 22.0358 565.479 24.0244 565.479 26.375H567.479C567.479 23.8256 567.089 21.5642 566.277 19.6154L564.431 20.3846ZM565.479 26.375V50H567.479V26.375H565.479ZM566.479 49H558.154V51H566.479V49ZM559.154 50V28.025H557.154V50H559.154ZM559.154 28.025C559.154 24.8296 558.369 22.2668 556.599 20.556L555.209 21.994C556.44 23.1832 557.154 25.1204 557.154 28.025H559.154ZM556.623 20.58C554.907 18.8047 552.288 18.025 549.004 18.025V20.025C552.02 20.025 554.001 20.7453 555.185 21.97L556.623 20.58ZM549.004 18.025C546.453 18.025 544.092 18.5846 541.939 19.7146L542.869 21.4854C544.717 20.5154 546.756 20.025 549.004 20.025V18.025ZM541.948 19.7102C539.872 20.7746 538.153 22.1945 536.807 23.9711L538.401 25.1789C539.555 23.6555 541.036 22.4254 542.861 21.4898L541.948 19.7102ZM536.816 23.9594C535.455 25.7021 534.654 27.6538 534.435 29.798L536.424 30.002C536.604 28.2462 537.254 26.6479 538.392 25.1906L536.816 23.9594ZM536.429 29.8815L536.354 25.8315L534.354 25.8685L534.429 29.9185L536.429 29.8815ZM536.345 25.9839C536.58 24.2463 537.096 22.606 537.893 21.058L536.115 20.142C535.213 21.894 534.628 23.7537 534.363 25.7161L536.345 25.9839ZM537.899 21.0472C538.695 19.455 539.747 18.0516 541.06 16.8328L539.699 15.3672C538.211 16.7484 537.014 18.345 536.11 20.1528L537.899 21.0472ZM541.073 16.8198C542.375 15.5652 543.912 14.5846 545.696 13.8802L544.962 12.0198C542.947 12.8154 541.184 13.9348 539.685 15.3802L541.073 16.8198ZM545.696 13.8802C547.466 13.1818 549.439 12.825 551.629 12.825V10.825C549.219 10.825 546.993 11.2182 544.962 12.0198L545.696 13.8802ZM573.049 12.65V11.65H572.049V12.65H573.049ZM599.449 12.65H600.449V11.65H599.449V12.65ZM599.449 19.475V20.475H600.449V19.475H599.449ZM573.049 19.475H572.049V20.475H573.049V19.475ZM582.049 2.6V1.6H581.049V2.6H582.049ZM590.449 2.6H591.449V1.6H590.449V2.6ZM590.449 50V51H591.449V50H590.449ZM582.049 50H581.049V51H582.049V50ZM573.049 13.65H599.449V11.65H573.049V13.65ZM598.449 12.65V19.475H600.449V12.65H598.449ZM599.449 18.475H573.049V20.475H599.449V18.475ZM574.049 19.475V12.65H572.049V19.475H574.049ZM582.049 3.6H590.449V1.6H582.049V3.6ZM589.449 2.6V50H591.449V2.6H589.449ZM590.449 49H582.049V51H590.449V49ZM583.049 50V2.6H581.049V50H583.049ZM614.111 48.575L613.697 49.4854L614.111 48.575ZM606.311 41.975L607.147 41.427L606.311 41.975ZM606.311 20.9L607.147 21.448L607.151 21.4415L606.311 20.9ZM614.111 14.15L613.686 13.2449L614.111 14.15ZM644.036 20.9L643.189 21.4313L643.194 21.4397L643.199 21.448L644.036 20.9ZM644.036 41.975L643.199 41.4269L643.193 41.4372L644.036 41.975ZM636.386 48.575L635.967 47.667L636.386 48.575ZM636.611 38.3L635.765 37.766L635.76 37.7741L635.755 37.7822L636.611 38.3ZM636.611 24.5L635.755 25.0178L635.76 25.0259L635.765 25.034L636.611 24.5ZM631.886 20.15L631.412 21.0305L631.425 21.0377L631.439 21.0444L631.886 20.15ZM618.611 20.075L618.164 19.1806L618.611 20.075ZM613.736 24.425L612.9 23.8754L612.895 23.8831L612.89 23.891L613.736 24.425ZM613.736 38.3L612.89 38.834L613.736 38.3ZM618.536 42.575L618.107 43.4783L618.115 43.4823L618.536 42.575ZM625.286 49.825C621.258 49.825 617.677 49.0976 614.525 47.6646L613.697 49.4854C617.144 51.0524 621.014 51.825 625.286 51.825V49.825ZM614.525 47.6646C611.389 46.2392 608.939 44.1612 607.147 41.427L605.474 42.523C607.483 45.5888 610.233 47.9108 613.697 49.4854L614.525 47.6646ZM607.147 41.427C605.373 38.7196 604.461 35.3942 604.461 31.4H602.461C602.461 35.7058 603.448 39.4304 605.474 42.523L607.147 41.427ZM604.461 31.4C604.461 27.4585 605.372 24.1573 607.147 21.448L605.474 20.352C603.449 23.4427 602.461 27.1415 602.461 31.4H604.461ZM607.151 21.4415C608.946 18.6557 611.399 16.5286 614.536 15.0551L613.686 13.2449C610.223 14.8714 607.476 17.2443 605.47 20.3585L607.151 21.4415ZM614.536 15.0551C617.686 13.5757 621.262 12.825 625.286 12.825V10.825C621.009 10.825 617.136 11.6243 613.686 13.2449L614.536 15.0551ZM625.286 12.825C629.31 12.825 632.859 13.5758 635.955 15.0526L636.816 13.2474C633.413 11.6242 629.562 10.825 625.286 10.825V12.825ZM635.955 15.0526C639.04 16.5238 641.443 18.6478 643.189 21.4313L644.883 20.3687C642.929 17.2522 640.231 14.8762 636.816 13.2474L635.955 15.0526ZM643.199 21.448C644.974 24.1573 645.886 27.4585 645.886 31.4H647.886C647.886 27.1415 646.897 23.4427 644.872 20.352L643.199 21.448ZM645.886 31.4C645.886 35.3942 644.973 38.7196 643.199 41.427L644.872 42.523C646.898 39.4304 647.886 35.7058 647.886 31.4H645.886ZM643.193 41.4372C641.45 44.169 639.05 46.2439 635.967 47.667L636.805 49.483C640.221 47.9062 642.922 45.581 644.879 42.5128L643.193 41.4372ZM635.967 47.667C632.867 49.0975 629.314 49.825 625.286 49.825V51.825C629.557 51.825 633.404 51.0525 636.805 49.483L635.967 47.667ZM625.286 45C627.822 45 630.17 44.4972 632.315 43.4783L631.457 41.6717C629.602 42.5528 627.55 43 625.286 43V45ZM632.315 43.4783C634.492 42.444 636.215 40.8847 637.466 38.8178L635.755 37.7822C634.706 39.5153 633.279 40.806 631.457 41.6717L632.315 43.4783ZM637.456 38.834C638.776 36.7445 639.411 34.2506 639.411 31.4H637.411C637.411 33.9494 636.846 36.0555 635.765 37.766L637.456 38.834ZM639.411 31.4C639.411 28.5494 638.776 26.0555 637.456 23.966L635.765 25.034C636.846 26.7445 637.411 28.8506 637.411 31.4H639.411ZM637.466 23.9822C636.218 21.9195 634.501 20.3394 632.333 19.2556L631.439 21.0444C633.271 21.9606 634.704 23.2805 635.755 25.0178L637.466 23.9822ZM632.36 19.2695C630.249 18.133 627.883 17.575 625.286 17.575V19.575C627.588 19.575 629.622 20.067 631.412 21.0305L632.36 19.2695ZM625.286 17.575C622.696 17.575 620.315 18.1047 618.164 19.1806L619.058 20.9694C620.906 20.0453 622.976 19.575 625.286 19.575V17.575ZM618.164 19.1806C616.003 20.2607 614.245 21.8309 612.9 23.8754L614.571 24.9746C615.726 23.2191 617.218 21.8893 619.058 20.9694L618.164 19.1806ZM612.89 23.891C611.569 25.9833 610.936 28.5034 610.936 31.4H612.936C612.936 28.7966 613.503 26.6667 614.581 24.959L612.89 23.891ZM610.936 31.4C610.936 34.2506 611.571 36.7445 612.89 38.834L614.581 37.766C613.501 36.0555 612.936 33.9494 612.936 31.4H610.936ZM612.89 38.834C614.19 40.8915 615.933 42.4458 618.107 43.4783L618.965 41.6717C617.138 40.8042 615.682 39.5085 614.581 37.766L612.89 38.834ZM618.115 43.4823C620.308 44.4984 622.703 45 625.286 45V43C622.969 43 620.864 42.5516 618.956 41.6677L618.115 43.4823ZM654.337 12.65V11.65H653.337V12.65H654.337ZM662.661 12.65H663.661V11.65H662.661V12.65ZM662.661 50V51H663.661V50H662.661ZM654.337 50H653.337V51H654.337V50ZM676.161 19.775V20.775H677.161V19.775H676.161ZM669.187 21.5L668.679 20.6386L668.669 20.6445L669.187 21.5ZM664.612 25.7L665.432 26.2718L664.612 25.7ZM662.212 30.5L661.212 30.5179L663.172 30.7788L662.212 30.5ZM662.137 26.3L661.141 26.2095L661.136 26.2635L661.137 26.3179L662.137 26.3ZM662.661 23.825L663.626 24.0881L663.629 24.0774L662.661 23.825ZM664.012 20.075L663.111 19.6412L663.104 19.6549L663.098 19.6689L664.012 20.075ZM666.562 16.175L665.798 15.5291L665.796 15.5318L666.562 16.175ZM670.536 13.025L670.089 12.1305L670.078 12.1364L670.536 13.025ZM676.161 11.825H677.161V10.825H676.161V11.825ZM654.337 13.65H662.661V11.65H654.337V13.65ZM661.661 12.65V50H663.661V12.65H661.661ZM662.661 49H654.337V51H662.661V49ZM655.337 50V12.65H653.337V50H655.337ZM676.161 18.775C673.317 18.775 670.81 19.3818 668.679 20.6386L669.695 22.3614C671.463 21.3182 673.606 20.775 676.161 20.775V18.775ZM668.669 20.6445C666.662 21.8593 665.029 23.3521 663.791 25.1282L665.432 26.2718C666.494 24.7479 667.911 23.4407 669.704 22.3555L668.669 20.6445ZM663.791 25.1282C662.594 26.8465 661.738 28.5444 661.251 30.2212L663.172 30.7788C663.585 29.3555 664.33 27.8535 665.432 26.2718L663.791 25.1282ZM663.211 30.4821L663.136 26.2821L661.137 26.3179L661.212 30.5179L663.211 30.4821ZM663.132 26.3905C663.174 25.9325 663.329 25.1779 663.626 24.0881L661.697 23.5619C661.394 24.6721 661.199 25.5675 661.141 26.2095L663.132 26.3905ZM663.629 24.0774C663.913 22.9909 664.342 21.7929 664.925 20.4811L663.098 19.6689C662.481 21.0571 662.01 22.3591 661.694 23.5726L663.629 24.0774ZM664.913 20.5088C665.523 19.2404 666.326 18.01 667.327 16.8182L665.796 15.5318C664.697 16.84 663.8 18.2096 663.111 19.6412L664.913 20.5088ZM667.325 16.8209C668.338 15.6235 669.559 14.655 670.995 13.9136L670.078 12.1364C668.414 12.995 666.985 14.1265 665.798 15.5291L667.325 16.8209ZM670.984 13.9194C672.42 13.2015 674.136 12.825 676.161 12.825V10.825C673.887 10.825 671.853 11.2485 670.089 12.1306L670.984 13.9194ZM675.161 11.825V19.775H677.161V11.825H675.161Z" fill="white" mask="url(#path-1-outside-1_101_584)"/>
</g>
<defs>
<filter id="filter0_d_101_584" x="0.850098" y="0.400002" width="678.312" height="53.425" filterUnits="userSpaceOnUse" color-interpolation-filters="sRGB">
<feFlood flood-opacity="0" result="BackgroundImageFix"/>
<feColorMatrix in="SourceAlpha" type="matrix" values="0 0 0 0 0 0 0 0 0 0 0 0 0 0 0 0 0 0 127 0" result="hardAlpha"/>
<feOffset dx="1" dy="1"/>
<feGaussianBlur stdDeviation="1"/>
<feComposite in2="hardAlpha" operator="out"/>
<feColorMatrix type="matrix" values="0 0 0 0 0 0 0 0 0 0 0 0 0 0 0 0 0 0 1 0"/>
<feBlend mode="normal" in2="BackgroundImageFix" result="effect1_dropShadow_101_584"/>
<feBlend mode="normal" in="SourceGraphic" in2="effect1_dropShadow_101_584" result="shape"/>
</filter>
</defs>
</svg>
