<svg width="286" height="145" viewBox="0 0 286 145" fill="none" xmlns="http://www.w3.org/2000/svg">
<g filter="url(#filter0_d_95_315)">
<mask id="path-1-outside-1_95_315" maskUnits="userSpaceOnUse" x="0" y="0" width="284" height="143" fill="black">
<rect fill="white" width="284" height="143"/>
<path d="M30.1 51.9C24.4 51.9 19.425 50.875 15.175 48.825C10.975 46.775 7.7 43.875 5.35 40.125C3.05 36.375 1.9 31.9 1.9 26.7C1.9 21.5 3.05 17.025 5.35 13.275C7.7 9.475 10.975 6.575 15.175 4.575C19.425 2.525 24.4 1.5 30.1 1.5C35.85 1.5 40.825 2.525 45.025 4.575C49.225 6.575 52.475 9.475 54.775 13.275C57.125 17.025 58.3 21.5 58.3 26.7C58.3 31.9 57.125 36.375 54.775 40.125C52.475 43.875 49.225 46.775 45.025 48.825C40.825 50.875 35.85 51.9 30.1 51.9ZM30.1 44.4C33.9 44.4 37.25 43.75 40.15 42.45C43.05 41.15 45.325 39.2 46.975 36.6C48.675 33.95 49.525 30.65 49.525 26.7C49.525 22.8 48.675 19.55 46.975 16.95C45.325 14.3 43.05 12.325 40.15 11.025C37.25 9.675 33.9 9 30.1 9C26.35 9 23 9.675 20.05 11.025C17.1 12.325 14.775 14.3 13.075 16.95C11.375 19.55 10.525 22.8 10.525 26.7C10.525 30.65 11.375 33.95 13.075 36.6C14.775 39.2 17.1 41.15 20.05 42.45C23 43.75 26.35 44.4 30.1 44.4ZM105.808 51H97.4834V13.65H105.808V51ZM97.9334 33.225L98.0084 35.625C97.9084 36.275 97.6834 37.25 97.3334 38.55C97.0334 39.85 96.5084 41.275 95.7584 42.825C95.0584 44.325 94.1084 45.775 92.9084 47.175C91.7584 48.525 90.3084 49.65 88.5584 50.55C86.8084 51.4 84.6834 51.825 82.1834 51.825C80.3834 51.825 78.5584 51.575 76.7084 51.075C74.9084 50.625 73.2584 49.85 71.7584 48.75C70.3084 47.65 69.1334 46.15 68.2334 44.25C67.3334 42.35 66.8834 39.95 66.8834 37.05V13.65H75.2084V35.475C75.2084 37.825 75.5834 39.675 76.3334 41.025C77.1334 42.325 78.2334 43.25 79.6334 43.8C81.0334 44.35 82.6584 44.625 84.5084 44.625C87.1584 44.625 89.4084 44.025 91.2584 42.825C93.1084 41.625 94.5834 40.15 95.6834 38.4C96.8334 36.6 97.5834 34.875 97.9334 33.225ZM115.004 13.65H123.329V51H115.004V13.65ZM136.829 20.775C134.129 20.775 131.804 21.35 129.854 22.5C127.954 23.65 126.429 25.05 125.279 26.7C124.129 28.35 123.329 29.95 122.879 31.5L122.804 27.3C122.854 26.75 123.029 25.925 123.329 24.825C123.629 23.675 124.079 22.425 124.679 21.075C125.329 19.725 126.179 18.425 127.229 17.175C128.329 15.875 129.654 14.825 131.204 14.025C132.804 13.225 134.679 12.825 136.829 12.825V20.775ZM38.05 136.575H34.225L60.025 92.4H68.5V141H60.025V104.625L61.975 105.15L40.825 141H31.525L10.375 105.3L12.4 104.7V141H3.85V92.4H12.4L38.05 136.575ZM88.7184 87.825V95.85H78.7434V87.825H88.7184ZM79.4934 103.65H87.8934V141H79.4934V103.65ZM96.2148 128.7H103.94C104.34 130.6 105.365 132.15 107.015 133.35C108.665 134.5 110.89 135.075 113.69 135.075C115.49 135.075 116.89 134.875 117.89 134.475C118.94 134.075 119.665 133.525 120.065 132.825C120.515 132.125 120.74 131.325 120.74 130.425C120.74 129.325 120.415 128.475 119.765 127.875C119.165 127.275 118.265 126.775 117.065 126.375C115.865 125.975 114.365 125.625 112.565 125.325C110.715 124.875 108.89 124.375 107.09 123.825C105.29 123.275 103.665 122.6 102.215 121.8C100.765 120.95 99.6148 119.9 98.7648 118.65C97.9648 117.35 97.5648 115.775 97.5648 113.925C97.5648 112.225 97.9398 110.7 98.6898 109.35C99.4898 107.95 100.59 106.775 101.99 105.825C103.39 104.875 105.04 104.15 106.94 103.65C108.84 103.1 110.915 102.825 113.165 102.825C116.415 102.825 119.115 103.35 121.265 104.4C123.465 105.45 125.115 106.925 126.215 108.825C127.365 110.725 127.94 112.9 127.94 115.35H120.59C120.19 113.35 119.415 111.9 118.265 111C117.115 110.1 115.39 109.65 113.09 109.65C110.79 109.65 109.04 110.05 107.84 110.85C106.64 111.65 106.04 112.75 106.04 114.15C106.04 115.2 106.415 116.05 107.165 116.7C107.965 117.3 109.09 117.825 110.54 118.275C111.99 118.725 113.69 119.175 115.64 119.625C117.44 120.125 119.14 120.65 120.74 121.2C122.34 121.7 123.765 122.35 125.015 123.15C126.315 123.9 127.34 124.9 128.09 126.15C128.84 127.4 129.215 128.95 129.215 130.8C129.215 133.1 128.59 135.075 127.34 136.725C126.14 138.375 124.39 139.65 122.09 140.55C119.79 141.4 117.015 141.825 113.765 141.825C110.915 141.825 108.44 141.5 106.34 140.85C104.29 140.2 102.565 139.35 101.165 138.3C99.8148 137.25 98.7648 136.125 98.0148 134.925C97.2648 133.725 96.7398 132.575 96.4398 131.475C96.1898 130.375 96.1148 129.45 96.2148 128.7ZM135.106 128.7H142.831C143.231 130.6 144.256 132.15 145.906 133.35C147.556 134.5 149.781 135.075 152.581 135.075C154.381 135.075 155.781 134.875 156.781 134.475C157.831 134.075 158.556 133.525 158.956 132.825C159.406 132.125 159.631 131.325 159.631 130.425C159.631 129.325 159.306 128.475 158.656 127.875C158.056 127.275 157.156 126.775 155.956 126.375C154.756 125.975 153.256 125.625 151.456 125.325C149.606 124.875 147.781 124.375 145.981 123.825C144.181 123.275 142.556 122.6 141.106 121.8C139.656 120.95 138.506 119.9 137.656 118.65C136.856 117.35 136.456 115.775 136.456 113.925C136.456 112.225 136.831 110.7 137.581 109.35C138.381 107.95 139.481 106.775 140.881 105.825C142.281 104.875 143.931 104.15 145.831 103.65C147.731 103.1 149.806 102.825 152.056 102.825C155.306 102.825 158.006 103.35 160.156 104.4C162.356 105.45 164.006 106.925 165.106 108.825C166.256 110.725 166.831 112.9 166.831 115.35H159.481C159.081 113.35 158.306 111.9 157.156 111C156.006 110.1 154.281 109.65 151.981 109.65C149.681 109.65 147.931 110.05 146.731 110.85C145.531 111.65 144.931 112.75 144.931 114.15C144.931 115.2 145.306 116.05 146.056 116.7C146.856 117.3 147.981 117.825 149.431 118.275C150.881 118.725 152.581 119.175 154.531 119.625C156.331 120.125 158.031 120.65 159.631 121.2C161.231 121.7 162.656 122.35 163.906 123.15C165.206 123.9 166.231 124.9 166.981 126.15C167.731 127.4 168.106 128.95 168.106 130.8C168.106 133.1 167.481 135.075 166.231 136.725C165.031 138.375 163.281 139.65 160.981 140.55C158.681 141.4 155.906 141.825 152.656 141.825C149.806 141.825 147.331 141.5 145.231 140.85C143.181 140.2 141.456 139.35 140.056 138.3C138.706 137.25 137.656 136.125 136.906 134.925C136.156 133.725 135.631 132.575 135.331 131.475C135.081 130.375 135.006 129.45 135.106 128.7ZM185.398 87.825V95.85H175.423V87.825H185.398ZM176.173 103.65H184.573V141H176.173V103.65ZM214.42 141.825C210.27 141.825 206.545 141.075 203.245 139.575C199.945 138.075 197.345 135.875 195.445 132.975C193.545 130.075 192.595 126.55 192.595 122.4C192.595 118.3 193.545 114.8 195.445 111.9C197.345 108.95 199.945 106.7 203.245 105.15C206.545 103.6 210.27 102.825 214.42 102.825C218.57 102.825 222.27 103.6 225.52 105.15C228.77 106.7 231.32 108.95 233.17 111.9C235.07 114.8 236.02 118.3 236.02 122.4C236.02 126.55 235.07 130.075 233.17 132.975C231.32 135.875 228.77 138.075 225.52 139.575C222.27 141.075 218.57 141.825 214.42 141.825ZM214.42 135C216.82 135 219.02 134.525 221.02 133.575C223.02 132.625 224.595 131.2 225.745 129.3C226.945 127.4 227.545 125.1 227.545 122.4C227.545 119.7 226.945 117.4 225.745 115.5C224.595 113.6 223.02 112.15 221.02 111.15C219.07 110.1 216.87 109.575 214.42 109.575C211.97 109.575 209.745 110.075 207.745 111.075C205.745 112.075 204.12 113.525 202.87 115.425C201.67 117.325 201.07 119.65 201.07 122.4C201.07 125.1 201.67 127.4 202.87 129.3C204.07 131.2 205.67 132.625 207.67 133.575C209.72 134.525 211.97 135 214.42 135ZM243.47 103.65H251.795V141H243.47V103.65ZM267.545 102.825C269.695 102.825 271.67 103.125 273.47 103.725C275.32 104.325 276.895 105.25 278.195 106.5C279.545 107.7 280.57 109.2 281.27 111C282.02 112.8 282.395 114.925 282.395 117.375V141H274.07V119.025C274.07 115.975 273.32 113.725 271.82 112.275C270.37 110.775 268.07 110.025 264.92 110.025C262.52 110.025 260.32 110.55 258.32 111.6C256.37 112.6 254.77 113.925 253.52 115.575C252.27 117.175 251.545 118.95 251.345 120.9L251.27 116.85C251.52 115 252.07 113.25 252.92 111.6C253.77 109.9 254.895 108.4 256.295 107.1C257.695 105.75 259.345 104.7 261.245 103.95C263.145 103.2 265.245 102.825 267.545 102.825Z"/>
</mask>
<path d="M30.1 51.9C24.4 51.9 19.425 50.875 15.175 48.825C10.975 46.775 7.7 43.875 5.35 40.125C3.05 36.375 1.9 31.9 1.9 26.7C1.9 21.5 3.05 17.025 5.35 13.275C7.7 9.475 10.975 6.575 15.175 4.575C19.425 2.525 24.4 1.5 30.1 1.5C35.85 1.5 40.825 2.525 45.025 4.575C49.225 6.575 52.475 9.475 54.775 13.275C57.125 17.025 58.3 21.5 58.3 26.7C58.3 31.9 57.125 36.375 54.775 40.125C52.475 43.875 49.225 46.775 45.025 48.825C40.825 50.875 35.85 51.9 30.1 51.9ZM30.1 44.4C33.9 44.4 37.25 43.75 40.15 42.45C43.05 41.15 45.325 39.2 46.975 36.6C48.675 33.95 49.525 30.65 49.525 26.7C49.525 22.8 48.675 19.55 46.975 16.95C45.325 14.3 43.05 12.325 40.15 11.025C37.25 9.675 33.9 9 30.1 9C26.35 9 23 9.675 20.05 11.025C17.1 12.325 14.775 14.3 13.075 16.95C11.375 19.55 10.525 22.8 10.525 26.7C10.525 30.65 11.375 33.95 13.075 36.6C14.775 39.2 17.1 41.15 20.05 42.45C23 43.75 26.35 44.4 30.1 44.4ZM105.808 51H97.4834V13.65H105.808V51ZM97.9334 33.225L98.0084 35.625C97.9084 36.275 97.6834 37.25 97.3334 38.55C97.0334 39.85 96.5084 41.275 95.7584 42.825C95.0584 44.325 94.1084 45.775 92.9084 47.175C91.7584 48.525 90.3084 49.65 88.5584 50.55C86.8084 51.4 84.6834 51.825 82.1834 51.825C80.3834 51.825 78.5584 51.575 76.7084 51.075C74.9084 50.625 73.2584 49.85 71.7584 48.75C70.3084 47.65 69.1334 46.15 68.2334 44.25C67.3334 42.35 66.8834 39.95 66.8834 37.05V13.65H75.2084V35.475C75.2084 37.825 75.5834 39.675 76.3334 41.025C77.1334 42.325 78.2334 43.25 79.6334 43.8C81.0334 44.35 82.6584 44.625 84.5084 44.625C87.1584 44.625 89.4084 44.025 91.2584 42.825C93.1084 41.625 94.5834 40.15 95.6834 38.4C96.8334 36.6 97.5834 34.875 97.9334 33.225ZM115.004 13.65H123.329V51H115.004V13.65ZM136.829 20.775C134.129 20.775 131.804 21.35 129.854 22.5C127.954 23.65 126.429 25.05 125.279 26.7C124.129 28.35 123.329 29.95 122.879 31.5L122.804 27.3C122.854 26.75 123.029 25.925 123.329 24.825C123.629 23.675 124.079 22.425 124.679 21.075C125.329 19.725 126.179 18.425 127.229 17.175C128.329 15.875 129.654 14.825 131.204 14.025C132.804 13.225 134.679 12.825 136.829 12.825V20.775ZM38.05 136.575H34.225L60.025 92.4H68.5V141H60.025V104.625L61.975 105.15L40.825 141H31.525L10.375 105.3L12.4 104.7V141H3.85V92.4H12.4L38.05 136.575ZM88.7184 87.825V95.85H78.7434V87.825H88.7184ZM79.4934 103.65H87.8934V141H79.4934V103.65ZM96.2148 128.7H103.94C104.34 130.6 105.365 132.15 107.015 133.35C108.665 134.5 110.89 135.075 113.69 135.075C115.49 135.075 116.89 134.875 117.89 134.475C118.94 134.075 119.665 133.525 120.065 132.825C120.515 132.125 120.74 131.325 120.74 130.425C120.74 129.325 120.415 128.475 119.765 127.875C119.165 127.275 118.265 126.775 117.065 126.375C115.865 125.975 114.365 125.625 112.565 125.325C110.715 124.875 108.89 124.375 107.09 123.825C105.29 123.275 103.665 122.6 102.215 121.8C100.765 120.95 99.6148 119.9 98.7648 118.65C97.9648 117.35 97.5648 115.775 97.5648 113.925C97.5648 112.225 97.9398 110.7 98.6898 109.35C99.4898 107.95 100.59 106.775 101.99 105.825C103.39 104.875 105.04 104.15 106.94 103.65C108.84 103.1 110.915 102.825 113.165 102.825C116.415 102.825 119.115 103.35 121.265 104.4C123.465 105.45 125.115 106.925 126.215 108.825C127.365 110.725 127.94 112.9 127.94 115.35H120.59C120.19 113.35 119.415 111.9 118.265 111C117.115 110.1 115.39 109.65 113.09 109.65C110.79 109.65 109.04 110.05 107.84 110.85C106.64 111.65 106.04 112.75 106.04 114.15C106.04 115.2 106.415 116.05 107.165 116.7C107.965 117.3 109.09 117.825 110.54 118.275C111.99 118.725 113.69 119.175 115.64 119.625C117.44 120.125 119.14 120.65 120.74 121.2C122.34 121.7 123.765 122.35 125.015 123.15C126.315 123.9 127.34 124.9 128.09 126.15C128.84 127.4 129.215 128.95 129.215 130.8C129.215 133.1 128.59 135.075 127.34 136.725C126.14 138.375 124.39 139.65 122.09 140.55C119.79 141.4 117.015 141.825 113.765 141.825C110.915 141.825 108.44 141.5 106.34 140.85C104.29 140.2 102.565 139.35 101.165 138.3C99.8148 137.25 98.7648 136.125 98.0148 134.925C97.2648 133.725 96.7398 132.575 96.4398 131.475C96.1898 130.375 96.1148 129.45 96.2148 128.7ZM135.106 128.7H142.831C143.231 130.6 144.256 132.15 145.906 133.35C147.556 134.5 149.781 135.075 152.581 135.075C154.381 135.075 155.781 134.875 156.781 134.475C157.831 134.075 158.556 133.525 158.956 132.825C159.406 132.125 159.631 131.325 159.631 130.425C159.631 129.325 159.306 128.475 158.656 127.875C158.056 127.275 157.156 126.775 155.956 126.375C154.756 125.975 153.256 125.625 151.456 125.325C149.606 124.875 147.781 124.375 145.981 123.825C144.181 123.275 142.556 122.6 141.106 121.8C139.656 120.95 138.506 119.9 137.656 118.65C136.856 117.35 136.456 115.775 136.456 113.925C136.456 112.225 136.831 110.7 137.581 109.35C138.381 107.95 139.481 106.775 140.881 105.825C142.281 104.875 143.931 104.15 145.831 103.65C147.731 103.1 149.806 102.825 152.056 102.825C155.306 102.825 158.006 103.35 160.156 104.4C162.356 105.45 164.006 106.925 165.106 108.825C166.256 110.725 166.831 112.9 166.831 115.35H159.481C159.081 113.35 158.306 111.9 157.156 111C156.006 110.1 154.281 109.65 151.981 109.65C149.681 109.65 147.931 110.05 146.731 110.85C145.531 111.65 144.931 112.75 144.931 114.15C144.931 115.2 145.306 116.05 146.056 116.7C146.856 117.3 147.981 117.825 149.431 118.275C150.881 118.725 152.581 119.175 154.531 119.625C156.331 120.125 158.031 120.65 159.631 121.2C161.231 121.7 162.656 122.35 163.906 123.15C165.206 123.9 166.231 124.9 166.981 126.15C167.731 127.4 168.106 128.95 168.106 130.8C168.106 133.1 167.481 135.075 166.231 136.725C165.031 138.375 163.281 139.65 160.981 140.55C158.681 141.4 155.906 141.825 152.656 141.825C149.806 141.825 147.331 141.5 145.231 140.85C143.181 140.2 141.456 139.35 140.056 138.3C138.706 137.25 137.656 136.125 136.906 134.925C136.156 133.725 135.631 132.575 135.331 131.475C135.081 130.375 135.006 129.45 135.106 128.7ZM185.398 87.825V95.85H175.423V87.825H185.398ZM176.173 103.65H184.573V141H176.173V103.65ZM214.42 141.825C210.27 141.825 206.545 141.075 203.245 139.575C199.945 138.075 197.345 135.875 195.445 132.975C193.545 130.075 192.595 126.55 192.595 122.4C192.595 118.3 193.545 114.8 195.445 111.9C197.345 108.95 199.945 106.7 203.245 105.15C206.545 103.6 210.27 102.825 214.42 102.825C218.57 102.825 222.27 103.6 225.52 105.15C228.77 106.7 231.32 108.95 233.17 111.9C235.07 114.8 236.02 118.3 236.02 122.4C236.02 126.55 235.07 130.075 233.17 132.975C231.32 135.875 228.77 138.075 225.52 139.575C222.27 141.075 218.57 141.825 214.42 141.825ZM214.42 135C216.82 135 219.02 134.525 221.02 133.575C223.02 132.625 224.595 131.2 225.745 129.3C226.945 127.4 227.545 125.1 227.545 122.4C227.545 119.7 226.945 117.4 225.745 115.5C224.595 113.6 223.02 112.15 221.02 111.15C219.07 110.1 216.87 109.575 214.42 109.575C211.97 109.575 209.745 110.075 207.745 111.075C205.745 112.075 204.12 113.525 202.87 115.425C201.67 117.325 201.07 119.65 201.07 122.4C201.07 125.1 201.67 127.4 202.87 129.3C204.07 131.2 205.67 132.625 207.67 133.575C209.72 134.525 211.97 135 214.42 135ZM243.47 103.65H251.795V141H243.47V103.65ZM267.545 102.825C269.695 102.825 271.67 103.125 273.47 103.725C275.32 104.325 276.895 105.25 278.195 106.5C279.545 107.7 280.57 109.2 281.27 111C282.02 112.8 282.395 114.925 282.395 117.375V141H274.07V119.025C274.07 115.975 273.32 113.725 271.82 112.275C270.37 110.775 268.07 110.025 264.92 110.025C262.52 110.025 260.32 110.55 258.32 111.6C256.37 112.6 254.77 113.925 253.52 115.575C252.27 117.175 251.545 118.95 251.345 120.9L251.27 116.85C251.52 115 252.07 113.25 252.92 111.6C253.77 109.9 254.895 108.4 256.295 107.1C257.695 105.75 259.345 104.7 261.245 103.95C263.145 103.2 265.245 102.825 267.545 102.825Z" fill="black"/>
<path d="M15.175 48.825L14.7364 49.7237L14.7405 49.7257L15.175 48.825ZM5.35 40.125L4.49752 40.6479L4.50264 40.656L5.35 40.125ZM5.35 13.275L4.49949 12.749L4.49756 12.7522L5.35 13.275ZM15.175 4.575L15.6049 5.47787L15.6095 5.47569L15.175 4.575ZM45.025 4.575L44.5863 5.47371L44.5951 5.47786L45.025 4.575ZM54.775 13.275L53.9195 13.7928L53.9235 13.7994L53.9276 13.806L54.775 13.275ZM54.775 40.125L53.9276 39.594L53.9226 39.6022L54.775 40.125ZM45.025 48.825L44.5864 47.9263L45.025 48.825ZM40.15 42.45L40.5591 43.3625V43.3625L40.15 42.45ZM46.975 36.6L46.1333 36.06L46.1307 36.0642L46.975 36.6ZM46.975 16.95L46.1261 17.4786L46.132 17.488L46.138 17.4972L46.975 16.95ZM40.15 11.025L39.728 11.9316L39.7344 11.9346L39.7409 11.9375L40.15 11.025ZM20.05 11.025L20.4533 11.9402L20.4661 11.9343L20.05 11.025ZM13.075 16.95L13.912 17.4973L13.9167 17.49L13.075 16.95ZM13.075 36.6L12.2333 37.14L12.238 37.1473L13.075 36.6ZM20.05 42.45L19.6467 43.3651L20.05 42.45ZM30.1 50.9C24.5196 50.9 19.6987 49.8968 15.6095 47.9243L14.7405 49.7257C19.1513 51.8532 24.2804 52.9 30.1 52.9V50.9ZM15.6136 47.9263C11.5717 45.9535 8.44248 43.1766 6.19736 39.594L4.50264 40.656C6.95752 44.5734 10.3783 47.5965 14.7364 49.7237L15.6136 47.9263ZM6.20244 39.6022C4.01527 36.0361 2.9 31.7494 2.9 26.7H0.9C0.9 32.0506 2.08473 36.7139 4.49756 40.6478L6.20244 39.6022ZM2.9 26.7C2.9 21.6506 4.01527 17.3639 6.20244 13.7978L4.49756 12.7522C2.08473 16.6861 0.9 21.3494 0.9 26.7H2.9ZM6.2005 13.801C8.44514 10.1713 11.5709 7.39883 15.6049 5.47786L14.7451 3.67214C10.3791 5.75117 6.95486 8.77865 4.4995 12.749L6.2005 13.801ZM15.6095 5.47569C19.6987 3.50324 24.5196 2.5 30.1 2.5V0.499998C24.2804 0.499998 19.1513 1.54675 14.7405 3.6743L15.6095 5.47569ZM30.1 2.5C35.7323 2.5 40.5508 3.50392 44.5864 5.47366L45.4636 3.67633C41.0992 1.54608 35.9677 0.499998 30.1 0.499998V2.5ZM44.5951 5.47786C48.6274 7.39803 51.7256 10.1681 53.9195 13.7928L55.6305 12.7572C53.2244 8.78187 49.8226 5.75196 45.4549 3.67214L44.5951 5.47786ZM53.9276 13.806C56.1616 17.3708 57.3 21.6545 57.3 26.7H59.3C59.3 21.3455 58.0885 16.6792 55.6224 12.744L53.9276 13.806ZM57.3 26.7C57.3 31.7455 56.1616 36.0292 53.9276 39.594L55.6224 40.656C58.0885 36.7208 59.3 32.0545 59.3 26.7H57.3ZM53.9226 39.6022C51.7283 43.1798 48.6267 45.9543 44.5864 47.9263L45.4636 49.7237C49.8233 47.5957 53.2217 44.5702 55.6274 40.6478L53.9226 39.6022ZM44.5864 47.9263C40.5508 49.8961 35.7323 50.9 30.1 50.9V52.9C35.9677 52.9 41.0992 51.8539 45.4636 49.7237L44.5864 47.9263ZM30.1 45.4C34.0139 45.4 37.5077 44.7303 40.5591 43.3625L39.7409 41.5375C36.9923 42.7697 33.7862 43.4 30.1 43.4V45.4ZM40.5591 43.3625C43.6319 41.985 46.0608 39.9069 47.8193 37.1358L46.1307 36.0642C44.5892 38.4931 42.4681 40.315 39.7409 41.5375L40.5591 43.3625ZM47.8167 37.14C49.6435 34.2923 50.525 30.7929 50.525 26.7H48.525C48.525 30.5071 47.7065 33.6077 46.1333 36.06L47.8167 37.14ZM50.525 26.7C50.525 22.6552 49.6426 19.2025 47.812 16.4027L46.138 17.4972C47.7074 19.8975 48.525 22.9448 48.525 26.7H50.525ZM47.8239 16.4214C46.0667 13.5993 43.6371 11.4923 40.5591 10.1125L39.7409 11.9375C42.4629 13.1577 44.5833 15.0007 46.1261 17.4786L47.8239 16.4214ZM40.572 10.1184C37.5173 8.6964 34.0187 8 30.1 8V10C33.7813 10 36.9827 10.6536 39.728 11.9316L40.572 10.1184ZM30.1 8C26.2287 8 22.7333 8.69731 19.6339 10.1157L20.4661 11.9343C23.2667 10.6527 26.4713 10 30.1 10V8ZM19.6467 10.1099C16.5215 11.4871 14.0421 13.5905 12.2333 16.41L13.9167 17.49C15.5079 15.0095 17.6785 13.1628 20.4533 11.9401L19.6467 10.1099ZM12.238 16.4027C10.4074 19.2025 9.525 22.6552 9.525 26.7H11.525C11.525 22.9448 12.3426 19.8975 13.912 17.4972L12.238 16.4027ZM9.525 26.7C9.525 30.7929 10.4065 34.2923 12.2333 37.14L13.9167 36.06C12.3435 33.6077 11.525 30.5071 11.525 26.7H9.525ZM12.238 37.1473C14.0481 39.9156 16.5267 41.9901 19.6467 43.3651L20.4533 41.5349C17.6733 40.3099 15.5019 38.4844 13.912 36.0527L12.238 37.1473ZM19.6467 43.3651C22.7429 44.7295 26.2336 45.4 30.1 45.4V43.4C26.4664 43.4 23.2571 42.7705 20.4533 41.5349L19.6467 43.3651ZM105.808 51V52H106.808V51H105.808ZM97.4834 51H96.4834V52H97.4834V51ZM97.4834 13.65V12.65H96.4834V13.65H97.4834ZM105.808 13.65H106.808V12.65H105.808V13.65ZM97.9334 33.225L98.9329 33.1938L96.9552 33.0175L97.9334 33.225ZM98.0084 35.625L98.9968 35.7771L99.0108 35.6859L99.0079 35.5938L98.0084 35.625ZM97.3334 38.55L96.3678 38.29L96.3631 38.3075L96.359 38.3251L97.3334 38.55ZM95.7584 42.825L94.8582 42.3894L94.8522 42.4021L95.7584 42.825ZM92.9084 47.175L92.1491 46.5242L92.1472 46.5265L92.9084 47.175ZM88.5584 50.55L88.9953 51.4495L89.0056 51.4445L89.0157 51.4393L88.5584 50.55ZM76.7084 51.075L76.9693 50.1096L76.9601 50.1072L76.9509 50.1049L76.7084 51.075ZM71.7584 48.75L71.154 49.5467L71.1605 49.5516L71.167 49.5564L71.7584 48.75ZM68.2334 44.25L69.1371 43.8219L68.2334 44.25ZM66.8834 13.65V12.65H65.8834V13.65H66.8834ZM75.2084 13.65H76.2084V12.65H75.2084V13.65ZM76.3334 41.025L75.4592 41.5106L75.4701 41.5301L75.4817 41.5491L76.3334 41.025ZM79.6334 43.8L79.2677 44.7308L79.6334 43.8ZM91.2584 42.825L90.7142 41.986L91.2584 42.825ZM95.6834 38.4L94.8407 37.8616L94.8368 37.8678L95.6834 38.4ZM105.808 50H97.4834V52H105.808V50ZM98.4834 51V13.65H96.4834V51H98.4834ZM97.4834 14.65H105.808V12.65H97.4834V14.65ZM104.808 13.65V51H106.808V13.65H104.808ZM96.9339 33.2562L97.0089 35.6562L99.0079 35.5938L98.9329 33.1938L96.9339 33.2562ZM97.02 35.4729C96.9288 36.0658 96.7159 36.9969 96.3678 38.29L98.299 38.81C98.6509 37.5031 98.888 36.4842 98.9968 35.7771L97.02 35.4729ZM96.359 38.3251C96.0798 39.5349 95.5846 40.8884 94.8582 42.3894L96.6586 43.2606C97.4322 41.6616 97.987 40.1651 98.3078 38.7749L96.359 38.3251ZM94.8522 42.4021C94.1947 43.8111 93.2967 45.1854 92.1491 46.5242L93.6677 47.8258C94.9201 46.3646 95.9221 44.8389 96.6646 43.2479L94.8522 42.4021ZM92.1472 46.5265C91.0906 47.7669 89.7477 48.8138 88.1011 49.6607L89.0157 51.4393C90.869 50.4862 92.4262 49.2831 93.6696 47.8235L92.1472 46.5265ZM88.1215 49.6505C86.5407 50.4183 84.5737 50.825 82.1834 50.825V52.825C84.7931 52.825 87.0761 52.3817 88.9953 51.4495L88.1215 49.6505ZM82.1834 50.825C80.477 50.825 78.7397 50.5881 76.9693 50.1096L76.4475 52.0404C78.3771 52.5619 80.2898 52.825 82.1834 52.825V50.825ZM76.9509 50.1049C75.2771 49.6864 73.7455 48.9671 72.3498 47.9436L71.167 49.5564C72.7713 50.7329 74.5397 51.5636 76.4659 52.0451L76.9509 50.1049ZM72.3628 47.9533C71.0593 46.9644 69.9791 45.5994 69.1371 43.8219L67.3297 44.6781C68.2877 46.7006 69.5575 48.3356 71.154 49.5467L72.3628 47.9533ZM69.1371 43.8219C68.3198 42.0965 67.8834 39.8548 67.8834 37.05H65.8834C65.8834 40.0452 66.347 42.6035 67.3297 44.6781L69.1371 43.8219ZM67.8834 37.05V13.65H65.8834V37.05H67.8834ZM66.8834 14.65H75.2084V12.65H66.8834V14.65ZM74.2084 13.65V35.475H76.2084V13.65H74.2084ZM74.2084 35.475C74.2084 37.9136 74.5946 39.9543 75.4592 41.5106L77.2076 40.5394C76.5722 39.3957 76.2084 37.7364 76.2084 35.475H74.2084ZM75.4817 41.5491C76.3936 43.0308 77.6627 44.1002 79.2677 44.7308L79.9991 42.8692C78.8041 42.3998 77.8732 41.6192 77.1851 40.5009L75.4817 41.5491ZM79.2677 44.7308C80.8076 45.3357 82.5611 45.625 84.5084 45.625V43.625C82.7557 43.625 81.2592 43.3643 79.9991 42.8692L79.2677 44.7308ZM84.5084 45.625C87.3121 45.625 89.7604 44.9886 91.8026 43.664L90.7142 41.986C89.0564 43.0614 87.0047 43.625 84.5084 43.625V45.625ZM91.8026 43.664C93.7662 42.3903 95.3476 40.8133 96.53 38.9322L94.8368 37.8678C93.8192 39.4867 92.4506 40.8597 90.7142 41.986L91.8026 43.664ZM96.5261 38.9384C97.7243 37.063 98.5311 35.2267 98.9116 33.4325L96.9552 33.0175C96.6357 34.5233 95.9425 36.1371 94.8407 37.8616L96.5261 38.9384ZM115.004 13.65V12.65H114.004V13.65H115.004ZM123.329 13.65H124.329V12.65H123.329V13.65ZM123.329 51V52H124.329V51H123.329ZM115.004 51H114.004V52H115.004V51ZM136.829 20.775V21.775H137.829V20.775H136.829ZM129.854 22.5L129.346 21.6386L129.336 21.6445L129.854 22.5ZM125.279 26.7L126.099 27.2718H126.099L125.279 26.7ZM122.879 31.5L121.879 31.5179L123.839 31.7788L122.879 31.5ZM122.804 27.3L121.808 27.2095L121.803 27.2635L121.804 27.3179L122.804 27.3ZM123.329 24.825L124.293 25.0881L124.296 25.0774L123.329 24.825ZM124.679 21.075L123.778 20.6412L123.771 20.6549L123.765 20.6689L124.679 21.075ZM127.229 17.175L126.465 16.5291L126.463 16.5318L127.229 17.175ZM131.204 14.025L130.756 13.1305L130.745 13.1364L131.204 14.025ZM136.829 12.825H137.829V11.825H136.829V12.825ZM115.004 14.65H123.329V12.65H115.004V14.65ZM122.329 13.65V51H124.329V13.65H122.329ZM123.329 50H115.004V52H123.329V50ZM116.004 51V13.65H114.004V51H116.004ZM136.829 19.775C133.984 19.775 131.477 20.3818 129.346 21.6386L130.361 23.3614C132.13 22.3182 134.273 21.775 136.829 21.775V19.775ZM129.336 21.6445C127.329 22.8593 125.696 24.3521 124.458 26.1282L126.099 27.2718C127.161 25.7479 128.578 24.4407 130.371 23.3555L129.336 21.6445ZM124.458 26.1282C123.261 27.8465 122.405 29.5444 121.918 31.2212L123.839 31.7788C124.252 30.3555 124.997 28.8535 126.099 27.2718L124.458 26.1282ZM123.878 31.4821L123.803 27.2821L121.804 27.3179L121.879 31.5179L123.878 31.4821ZM123.799 27.3905C123.841 26.9325 123.996 26.1779 124.293 25.0881L122.364 24.5619C122.061 25.6721 121.866 26.5675 121.808 27.2095L123.799 27.3905ZM124.296 25.0774C124.58 23.9909 125.009 22.7929 125.592 21.4811L123.765 20.6689C123.148 22.0571 122.677 23.3591 122.361 24.5726L124.296 25.0774ZM125.58 21.5088C126.19 20.2404 126.993 19.01 127.994 17.8182L126.463 16.5318C125.364 17.84 124.467 19.2096 123.778 20.6412L125.58 21.5088ZM127.992 17.8209C129.005 16.6235 130.226 15.655 131.662 14.9136L130.745 13.1364C129.081 13.995 127.652 15.1265 126.465 16.5291L127.992 17.8209ZM131.651 14.9194C133.087 14.2015 134.803 13.825 136.829 13.825V11.825C134.554 11.825 132.52 12.2485 130.756 13.1306L131.651 14.9194ZM135.829 12.825V20.775H137.829V12.825H135.829ZM38.05 136.575V137.575H39.787L38.9148 136.073L38.05 136.575ZM34.225 136.575L33.3615 136.071L32.4829 137.575H34.225V136.575ZM60.025 92.4V91.4H59.451L59.1615 91.8957L60.025 92.4ZM68.5 92.4H69.5V91.4H68.5V92.4ZM68.5 141V142H69.5V141H68.5ZM60.025 141H59.025V142H60.025V141ZM60.025 104.625L60.285 103.659L59.025 103.32V104.625H60.025ZM61.975 105.15L62.8363 105.658L63.5041 104.526L62.235 104.184L61.975 105.15ZM40.825 141V142H41.3961L41.6863 141.508L40.825 141ZM31.525 141L30.6646 141.51L30.9551 142H31.525V141ZM10.375 105.3L10.0909 104.341L8.86062 104.706L9.51465 105.81L10.375 105.3ZM12.4 104.7H13.4V103.361L12.1159 103.741L12.4 104.7ZM12.4 141V142H13.4V141H12.4ZM3.85 141H2.85V142H3.85V141ZM3.85 92.4V91.4H2.85V92.4H3.85ZM12.4 92.4L13.2648 91.8979L12.9757 91.4H12.4V92.4ZM38.05 135.575H34.225V137.575H38.05V135.575ZM35.0885 137.079L60.8885 92.9043L59.1615 91.8957L33.3615 136.071L35.0885 137.079ZM60.025 93.4H68.5V91.4H60.025V93.4ZM67.5 92.4V141H69.5V92.4H67.5ZM68.5 140H60.025V142H68.5V140ZM61.025 141V104.625H59.025V141H61.025ZM59.765 105.591L61.715 106.116L62.235 104.184L60.285 103.659L59.765 105.591ZM61.1137 104.642L39.9637 140.492L41.6863 141.508L62.8363 105.658L61.1137 104.642ZM40.825 140H31.525V142H40.825V140ZM32.3854 140.49L11.2354 104.79L9.51465 105.81L30.6646 141.51L32.3854 140.49ZM10.6591 106.259L12.6841 105.659L12.1159 103.741L10.0909 104.341L10.6591 106.259ZM11.4 104.7V141H13.4V104.7H11.4ZM12.4 140H3.85V142H12.4V140ZM4.85 141V92.4H2.85V141H4.85ZM3.85 93.4H12.4V91.4H3.85V93.4ZM11.5352 92.9021L37.1852 137.077L38.9148 136.073L13.2648 91.8979L11.5352 92.9021ZM88.7184 87.825H89.7184V86.825H88.7184V87.825ZM88.7184 95.85V96.85H89.7184V95.85H88.7184ZM78.7434 95.85H77.7434V96.85H78.7434V95.85ZM78.7434 87.825V86.825H77.7434V87.825H78.7434ZM79.4934 103.65V102.65H78.4934V103.65H79.4934ZM87.8934 103.65H88.8934V102.65H87.8934V103.65ZM87.8934 141V142H88.8934V141H87.8934ZM79.4934 141H78.4934V142H79.4934V141ZM87.7184 87.825V95.85H89.7184V87.825H87.7184ZM88.7184 94.85H78.7434V96.85H88.7184V94.85ZM79.7434 95.85V87.825H77.7434V95.85H79.7434ZM78.7434 88.825H88.7184V86.825H78.7434V88.825ZM79.4934 104.65H87.8934V102.65H79.4934V104.65ZM86.8934 103.65V141H88.8934V103.65H86.8934ZM87.8934 140H79.4934V142H87.8934V140ZM80.4934 141V103.65H78.4934V141H80.4934ZM96.2148 128.7V127.7H95.3393L95.2236 128.568L96.2148 128.7ZM103.94 128.7L104.918 128.494L104.751 127.7H103.94V128.7ZM107.015 133.35L106.427 134.159L106.435 134.165L106.443 134.17L107.015 133.35ZM117.89 134.475L117.534 133.541L117.526 133.543L117.518 133.547L117.89 134.475ZM120.065 132.825L119.224 132.284L119.21 132.306L119.197 132.329L120.065 132.825ZM119.765 127.875L119.058 128.582L119.072 128.596L119.087 128.61L119.765 127.875ZM117.065 126.375L117.381 125.426L117.065 126.375ZM112.565 125.325L112.328 126.297L112.364 126.305L112.4 126.311L112.565 125.325ZM107.09 123.825L107.382 122.869L107.09 123.825ZM102.215 121.8L101.709 122.663L101.72 122.669L101.732 122.676L102.215 121.8ZM98.7648 118.65L97.9132 119.174L97.9251 119.193L97.9379 119.212L98.7648 118.65ZM98.6898 109.35L97.8215 108.854L97.8157 108.864L98.6898 109.35ZM101.99 105.825L102.551 106.652L101.99 105.825ZM106.94 103.65L107.194 104.617L107.206 104.614L107.218 104.611L106.94 103.65ZM121.265 104.4L120.826 105.299L120.834 105.302L121.265 104.4ZM126.215 108.825L125.349 109.326L125.354 109.334L125.359 109.343L126.215 108.825ZM127.94 115.35V116.35H128.94V115.35H127.94ZM120.59 115.35L119.609 115.546L119.77 116.35H120.59V115.35ZM118.265 111L117.649 111.788L118.265 111ZM107.165 116.7L106.51 117.456L106.537 117.479L106.565 117.5L107.165 116.7ZM110.54 118.275L110.243 119.23L110.54 118.275ZM115.64 119.625L115.907 118.661L115.886 118.656L115.865 118.651L115.64 119.625ZM120.74 121.2L120.415 122.146L120.428 122.15L120.442 122.154L120.74 121.2ZM125.015 123.15L124.476 123.992L124.495 124.005L124.515 124.016L125.015 123.15ZM128.09 126.15L128.947 125.635L128.09 126.15ZM127.34 136.725L126.543 136.121L126.537 136.129L126.531 136.137L127.34 136.725ZM122.09 140.55L122.436 141.488L122.445 141.485L122.454 141.481L122.09 140.55ZM106.34 140.85L106.038 141.803L106.044 141.805L106.34 140.85ZM101.165 138.3L100.551 139.089L100.558 139.095L100.565 139.1L101.165 138.3ZM98.0148 134.925L97.1668 135.455L98.0148 134.925ZM96.4398 131.475L95.4647 131.697L95.4695 131.717L95.4751 131.738L96.4398 131.475ZM96.2148 129.7H103.94V127.7H96.2148V129.7ZM102.961 128.906C103.415 131.061 104.588 132.821 106.427 134.159L107.603 132.541C106.142 131.479 105.265 130.139 104.918 128.494L102.961 128.906ZM106.443 134.17C108.315 135.475 110.763 136.075 113.69 136.075V134.075C111.017 134.075 109.015 133.525 107.587 132.53L106.443 134.17ZM113.69 136.075C115.543 136.075 117.09 135.872 118.261 135.403L117.518 133.547C116.69 133.878 115.437 134.075 113.69 134.075V136.075ZM118.246 135.409C119.428 134.959 120.38 134.288 120.933 133.321L119.197 132.329C118.949 132.762 118.452 133.191 117.534 133.541L118.246 135.409ZM120.906 133.366C121.468 132.491 121.74 131.5 121.74 130.425H119.74C119.74 131.15 119.562 131.759 119.224 132.284L120.906 133.366ZM121.74 130.425C121.74 129.119 121.346 127.974 120.443 127.14L119.087 128.61C119.483 128.976 119.74 129.531 119.74 130.425H121.74ZM120.472 127.168C119.722 126.418 118.662 125.853 117.381 125.426L116.749 127.324C117.868 127.697 118.608 128.132 119.058 128.582L120.472 127.168ZM117.381 125.426C116.115 125.004 114.56 124.644 112.729 124.339L112.4 126.311C114.169 126.606 115.615 126.946 116.749 127.324L117.381 125.426ZM112.801 124.353C110.97 123.908 109.163 123.413 107.382 122.869L106.798 124.781C108.616 125.337 110.46 125.842 112.328 126.297L112.801 124.353ZM107.382 122.869C105.64 122.336 104.08 121.687 102.698 120.924L101.732 122.676C103.25 123.513 104.94 124.214 106.798 124.781L107.382 122.869ZM102.721 120.937C101.384 120.154 100.349 119.202 99.5918 118.088L97.9379 119.212C98.8803 120.598 100.146 121.746 101.709 122.663L102.721 120.937ZM99.6165 118.126C98.9322 117.014 98.5648 115.629 98.5648 113.925H96.5648C96.5648 115.921 96.9974 117.686 97.9132 119.174L99.6165 118.126ZM98.5648 113.925C98.5648 112.377 98.9046 111.022 99.564 109.836L97.8157 108.864C96.975 110.378 96.5648 112.073 96.5648 113.925H98.5648ZM99.5581 109.846C100.279 108.585 101.271 107.521 102.551 106.652L101.428 104.998C99.9086 106.029 98.701 107.315 97.8216 108.854L99.5581 109.846ZM102.551 106.652C103.844 105.775 105.387 105.093 107.194 104.617L106.685 102.683C104.693 103.207 102.936 103.975 101.428 104.998L102.551 106.652ZM107.218 104.611C109.016 104.09 110.996 103.825 113.165 103.825V101.825C110.833 101.825 108.664 102.11 106.662 102.689L107.218 104.611ZM113.165 103.825C116.314 103.825 118.853 104.335 120.826 105.299L121.704 103.501C119.377 102.365 116.515 101.825 113.165 101.825V103.825ZM120.834 105.302C122.873 106.276 124.362 107.62 125.349 109.326L127.08 108.324C125.868 106.23 124.057 104.624 121.696 103.498L120.834 105.302ZM125.359 109.343C126.405 111.071 126.94 113.063 126.94 115.35H128.94C128.94 112.737 128.324 110.379 127.07 108.307L125.359 109.343ZM127.94 114.35H120.59V116.35H127.94V114.35ZM121.57 115.154C121.142 113.012 120.282 111.309 118.881 110.212L117.649 111.788C118.548 112.491 119.238 113.688 119.609 115.546L121.57 115.154ZM118.881 110.212C117.479 109.116 115.493 108.65 113.09 108.65V110.65C115.287 110.65 116.75 111.084 117.649 111.788L118.881 110.212ZM113.09 108.65C110.7 108.65 108.72 109.061 107.285 110.018L108.395 111.682C109.359 111.039 110.88 110.65 113.09 110.65V108.65ZM107.285 110.018C105.817 110.997 105.04 112.404 105.04 114.15H107.04C107.04 113.096 107.463 112.303 108.395 111.682L107.285 110.018ZM105.04 114.15C105.04 115.471 105.527 116.604 106.51 117.456L107.82 115.944C107.303 115.496 107.04 114.929 107.04 114.15H105.04ZM106.565 117.5C107.491 118.195 108.735 118.762 110.243 119.23L110.836 117.32C109.445 116.888 108.439 116.405 107.765 115.9L106.565 117.5ZM110.243 119.23C111.723 119.689 113.448 120.145 115.415 120.599L115.865 118.651C113.932 118.205 112.257 117.761 110.836 117.32L110.243 119.23ZM115.372 120.589C117.155 121.084 118.836 121.603 120.415 122.146L121.065 120.254C119.444 119.697 117.725 119.166 115.907 118.661L115.372 120.589ZM120.442 122.154C121.967 122.631 123.31 123.246 124.476 123.992L125.554 122.308C124.22 121.454 122.712 120.769 121.038 120.246L120.442 122.154ZM124.515 124.016C125.672 124.684 126.572 125.565 127.232 126.664L128.947 125.635C128.107 124.235 126.957 123.116 125.515 122.284L124.515 124.016ZM127.232 126.664C127.867 127.722 128.215 129.083 128.215 130.8H130.215C130.215 128.817 129.813 127.078 128.947 125.635L127.232 126.664ZM128.215 130.8C128.215 132.908 127.646 134.664 126.543 136.121L128.137 137.329C129.533 135.486 130.215 133.292 130.215 130.8H128.215ZM126.531 136.137C125.465 137.603 123.885 138.774 121.725 139.619L122.454 141.481C124.894 140.526 126.815 139.147 128.149 137.313L126.531 136.137ZM121.743 139.612C119.584 140.41 116.933 140.825 113.765 140.825V142.825C117.097 142.825 119.996 142.39 122.436 141.488L121.743 139.612ZM113.765 140.825C110.987 140.825 108.616 140.508 106.636 139.895L106.044 141.805C108.263 142.492 110.843 142.825 113.765 142.825V140.825ZM106.642 139.897C104.676 139.273 103.057 138.469 101.765 137.5L100.565 139.1C102.073 140.231 103.904 141.127 106.038 141.803L106.642 139.897ZM101.779 137.511C100.503 136.518 99.5392 135.477 98.8628 134.395L97.1668 135.455C97.9905 136.773 99.127 137.982 100.551 139.089L101.779 137.511ZM98.8628 134.395C98.1527 133.259 97.6736 132.198 97.4046 131.212L95.4751 131.738C95.8061 132.952 96.377 134.191 97.1668 135.455L98.8628 134.395ZM97.415 131.253C97.1797 130.218 97.1275 129.421 97.2061 128.832L95.2236 128.568C95.1022 129.479 95.2 130.532 95.4647 131.697L97.415 131.253ZM135.106 128.7V127.7H134.231L134.115 128.568L135.106 128.7ZM142.831 128.7L143.81 128.494L143.643 127.7H142.831V128.7ZM145.906 133.35L145.318 134.159L145.326 134.165L145.335 134.17L145.906 133.35ZM156.781 134.475L156.425 133.541L156.418 133.543L156.41 133.547L156.781 134.475ZM158.956 132.825L158.115 132.284L158.101 132.306L158.088 132.329L158.956 132.825ZM158.656 127.875L157.949 128.582L157.963 128.596L157.978 128.61L158.656 127.875ZM155.956 126.375L156.273 125.426L155.956 126.375ZM151.456 125.325L151.22 126.297L151.256 126.305L151.292 126.311L151.456 125.325ZM145.981 123.825L146.274 122.869L145.981 123.825ZM141.106 121.8L140.601 122.663L140.612 122.669L140.623 122.676L141.106 121.8ZM137.656 118.65L136.805 119.174L136.817 119.193L136.83 119.212L137.656 118.65ZM137.581 109.35L136.713 108.854L136.707 108.864L137.581 109.35ZM140.881 105.825L141.443 106.652L140.881 105.825ZM145.831 103.65L146.086 104.617L146.098 104.614L146.109 104.611L145.831 103.65ZM160.156 104.4L159.718 105.299L159.726 105.302L160.156 104.4ZM165.106 108.825L164.241 109.326L164.246 109.334L164.251 109.343L165.106 108.825ZM166.831 115.35V116.35H167.831V115.35H166.831ZM159.481 115.35L158.501 115.546L158.662 116.35H159.481V115.35ZM157.156 111L156.54 111.788L157.156 111ZM146.056 116.7L145.402 117.456L145.428 117.479L145.456 117.5L146.056 116.7ZM149.431 118.275L149.135 119.23L149.431 118.275ZM154.531 119.625L154.799 118.661L154.778 118.656L154.756 118.651L154.531 119.625ZM159.631 121.2L159.306 122.146L159.32 122.15L159.333 122.154L159.631 121.2ZM163.906 123.15L163.367 123.992L163.387 124.005L163.407 124.016L163.906 123.15ZM166.981 126.15L167.839 125.635L166.981 126.15ZM166.231 136.725L165.434 136.121L165.428 136.129L165.423 136.137L166.231 136.725ZM160.981 140.55L161.328 141.488L161.337 141.485L161.346 141.481L160.981 140.55ZM145.231 140.85L144.929 141.803L144.936 141.805L145.231 140.85ZM140.056 138.3L139.443 139.089L139.449 139.095L139.456 139.1L140.056 138.3ZM136.906 134.925L136.058 135.455L136.906 134.925ZM135.331 131.475L134.356 131.697L134.361 131.717L134.367 131.738L135.331 131.475ZM135.106 129.7H142.831V127.7H135.106V129.7ZM141.853 128.906C142.307 131.061 143.479 132.821 145.318 134.159L146.495 132.541C145.034 131.479 144.156 130.139 143.81 128.494L141.853 128.906ZM145.335 134.17C147.207 135.475 149.655 136.075 152.581 136.075V134.075C149.908 134.075 147.906 133.525 146.478 132.53L145.335 134.17ZM152.581 136.075C154.435 136.075 155.981 135.872 157.153 135.403L156.41 133.547C155.581 133.878 154.328 134.075 152.581 134.075V136.075ZM157.137 135.409C158.32 134.959 159.272 134.288 159.825 133.321L158.088 132.329C157.841 132.762 157.343 133.191 156.425 133.541L157.137 135.409ZM159.798 133.366C160.36 132.491 160.631 131.5 160.631 130.425H158.631C158.631 131.15 158.453 131.759 158.115 132.284L159.798 133.366ZM160.631 130.425C160.631 129.119 160.238 127.974 159.335 127.14L157.978 128.61C158.375 128.976 158.631 129.531 158.631 130.425H160.631ZM159.364 127.168C158.613 126.418 157.554 125.853 156.273 125.426L155.64 127.324C156.759 127.697 157.5 128.132 157.949 128.582L159.364 127.168ZM156.273 125.426C155.007 125.004 153.452 124.644 151.621 124.339L151.292 126.311C153.061 126.606 154.506 126.946 155.64 127.324L156.273 125.426ZM151.693 124.353C149.861 123.908 148.055 123.413 146.274 122.869L145.689 124.781C147.508 125.337 149.352 125.842 151.22 126.297L151.693 124.353ZM146.274 122.869C144.531 122.336 142.971 121.687 141.59 120.924L140.623 122.676C142.142 123.513 143.832 124.214 145.689 124.781L146.274 122.869ZM141.612 120.937C140.276 120.154 139.241 119.202 138.483 118.088L136.83 119.212C137.772 120.598 139.037 121.746 140.601 122.663L141.612 120.937ZM138.508 118.126C137.824 117.014 137.456 115.629 137.456 113.925H135.456C135.456 115.921 135.889 117.686 136.805 119.174L138.508 118.126ZM137.456 113.925C137.456 112.377 137.796 111.022 138.456 109.836L136.707 108.864C135.867 110.378 135.456 112.073 135.456 113.925H137.456ZM138.45 109.846C139.17 108.585 140.163 107.521 141.443 106.652L140.32 104.998C138.8 106.029 137.593 107.315 136.713 108.854L138.45 109.846ZM141.443 106.652C142.736 105.775 144.278 105.093 146.086 104.617L145.577 102.683C143.585 103.207 141.827 103.975 140.32 104.998L141.443 106.652ZM146.109 104.611C147.908 104.09 149.888 103.825 152.056 103.825V101.825C149.725 101.825 147.555 102.11 145.553 102.689L146.109 104.611ZM152.056 103.825C155.206 103.825 157.744 104.335 159.718 105.299L160.595 103.501C158.269 102.365 155.407 101.825 152.056 101.825V103.825ZM159.726 105.302C161.765 106.276 163.253 107.62 164.241 109.326L165.972 108.324C164.76 106.23 162.948 104.624 160.587 103.498L159.726 105.302ZM164.251 109.343C165.297 111.071 165.831 113.063 165.831 115.35H167.831C167.831 112.737 167.216 110.379 165.962 108.307L164.251 109.343ZM166.831 114.35H159.481V116.35H166.831V114.35ZM160.462 115.154C160.034 113.012 159.174 111.309 157.773 110.212L156.54 111.788C157.439 112.491 158.129 113.688 158.501 115.546L160.462 115.154ZM157.773 110.212C156.371 109.116 154.385 108.65 151.981 108.65V110.65C154.178 110.65 155.642 111.084 156.54 111.788L157.773 110.212ZM151.981 108.65C149.592 108.65 147.612 109.061 146.177 110.018L147.286 111.682C148.251 111.039 149.771 110.65 151.981 110.65V108.65ZM146.177 110.018C144.709 110.997 143.931 112.404 143.931 114.15H145.931C145.931 113.096 146.354 112.303 147.286 111.682L146.177 110.018ZM143.931 114.15C143.931 115.471 144.418 116.604 145.402 117.456L146.711 115.944C146.195 115.496 145.931 114.929 145.931 114.15H143.931ZM145.456 117.5C146.383 118.195 147.626 118.762 149.135 119.23L149.728 117.32C148.336 116.888 147.33 116.405 146.656 115.9L145.456 117.5ZM149.135 119.23C150.615 119.689 152.34 120.145 154.307 120.599L154.756 118.651C152.823 118.205 151.148 117.761 149.728 117.32L149.135 119.23ZM154.264 120.589C156.046 121.084 157.727 121.603 159.306 122.146L159.957 120.254C158.336 119.697 156.616 119.166 154.799 118.661L154.264 120.589ZM159.333 122.154C160.859 122.631 162.201 123.246 163.367 123.992L164.445 122.308C163.112 121.454 161.604 120.769 159.93 120.246L159.333 122.154ZM163.407 124.016C164.564 124.684 165.464 125.565 166.124 126.664L167.839 125.635C166.999 124.235 165.849 123.116 164.406 122.284L163.407 124.016ZM166.124 126.664C166.759 127.722 167.106 129.083 167.106 130.8H169.106C169.106 128.817 168.704 127.078 167.839 125.635L166.124 126.664ZM167.106 130.8C167.106 132.908 166.538 134.664 165.434 136.121L167.029 137.329C168.425 135.486 169.106 133.292 169.106 130.8H167.106ZM165.423 136.137C164.357 137.603 162.777 138.774 160.617 139.619L161.346 141.481C163.786 140.526 165.706 139.147 167.04 137.313L165.423 136.137ZM160.635 139.612C158.475 140.41 155.824 140.825 152.656 140.825V142.825C155.988 142.825 158.888 142.39 161.328 141.488L160.635 139.612ZM152.656 140.825C149.879 140.825 147.508 140.508 145.527 139.895L144.936 141.805C147.155 142.492 149.734 142.825 152.656 142.825V140.825ZM145.534 139.897C143.567 139.273 141.949 138.469 140.656 137.5L139.456 139.1C140.964 140.231 142.796 141.127 144.929 141.803L145.534 139.897ZM140.67 137.511C139.394 136.518 138.431 135.477 137.754 134.395L136.058 135.455C136.882 136.773 138.019 137.982 139.443 139.089L140.67 137.511ZM137.754 134.395C137.044 133.259 136.565 132.198 136.296 131.212L134.367 131.738C134.698 132.952 135.269 134.191 136.058 135.455L137.754 134.395ZM136.307 131.253C136.071 130.218 136.019 129.421 136.098 128.832L134.115 128.568C133.994 129.479 134.092 130.532 134.356 131.697L136.307 131.253ZM185.398 87.825H186.398V86.825H185.398V87.825ZM185.398 95.85V96.85H186.398V95.85H185.398ZM175.423 95.85H174.423V96.85H175.423V95.85ZM175.423 87.825V86.825H174.423V87.825H175.423ZM176.173 103.65V102.65H175.173V103.65H176.173ZM184.573 103.65H185.573V102.65H184.573V103.65ZM184.573 141V142H185.573V141H184.573ZM176.173 141H175.173V142H176.173V141ZM184.398 87.825V95.85H186.398V87.825H184.398ZM185.398 94.85H175.423V96.85H185.398V94.85ZM176.423 95.85V87.825H174.423V95.85H176.423ZM175.423 88.825H185.398V86.825H175.423V88.825ZM176.173 104.65H184.573V102.65H176.173V104.65ZM183.573 103.65V141H185.573V103.65H183.573ZM184.573 140H176.173V142H184.573V140ZM177.173 141V103.65H175.173V141H177.173ZM203.245 139.575L202.831 140.485L203.245 139.575ZM195.445 132.975L196.281 132.427L195.445 132.975ZM195.445 111.9L196.281 112.448L196.285 112.441L195.445 111.9ZM203.245 105.15L202.819 104.245L203.245 105.15ZM233.17 111.9L232.322 112.431L232.328 112.44L232.333 112.448L233.17 111.9ZM233.17 132.975L232.333 132.427L232.326 132.437L233.17 132.975ZM225.52 139.575L225.1 138.667L225.52 139.575ZM225.745 129.3L224.899 128.766L224.894 128.774L224.889 128.782L225.745 129.3ZM225.745 115.5L224.889 116.018L224.894 116.026L224.899 116.034L225.745 115.5ZM221.02 111.15L220.545 112.03L220.559 112.038L220.572 112.044L221.02 111.15ZM207.745 111.075L207.297 110.181L207.745 111.075ZM202.87 115.425L202.034 114.875L202.029 114.883L202.024 114.891L202.87 115.425ZM202.87 129.3L202.024 129.834L202.87 129.3ZM207.67 133.575L207.24 134.478L207.249 134.482L207.67 133.575ZM214.42 140.825C210.392 140.825 206.811 140.098 203.658 138.665L202.831 140.485C206.278 142.052 210.147 142.825 214.42 142.825V140.825ZM203.658 138.665C200.522 137.239 198.072 135.161 196.281 132.427L194.608 133.523C196.617 136.589 199.367 138.911 202.831 140.485L203.658 138.665ZM196.281 132.427C194.507 129.72 193.595 126.394 193.595 122.4H191.595C191.595 126.706 192.582 130.43 194.608 133.523L196.281 132.427ZM193.595 122.4C193.595 118.459 194.506 115.157 196.281 112.448L194.608 111.352C192.583 114.443 191.595 118.141 191.595 122.4H193.595ZM196.285 112.441C198.08 109.656 200.533 107.529 203.67 106.055L202.819 104.245C199.356 105.871 196.61 108.244 194.604 111.359L196.285 112.441ZM203.67 106.055C206.819 104.576 210.396 103.825 214.42 103.825V101.825C210.143 101.825 206.27 102.624 202.819 104.245L203.67 106.055ZM214.42 103.825C218.443 103.825 221.993 104.576 225.089 106.053L225.95 104.247C222.546 102.624 218.696 101.825 214.42 101.825V103.825ZM225.089 106.053C228.174 107.524 230.577 109.648 232.322 112.431L234.017 111.369C232.062 108.252 229.365 105.876 225.95 104.247L225.089 106.053ZM232.333 112.448C234.108 115.157 235.02 118.459 235.02 122.4H237.02C237.02 118.141 236.031 114.443 234.006 111.352L232.333 112.448ZM235.02 122.4C235.02 126.394 234.107 129.72 232.333 132.427L234.006 133.523C236.032 130.43 237.02 126.706 237.02 122.4H235.02ZM232.326 132.437C230.584 135.169 228.184 137.244 225.1 138.667L225.939 140.483C229.355 138.906 232.055 136.581 234.013 133.513L232.326 132.437ZM225.1 138.667C222.001 140.097 218.448 140.825 214.42 140.825V142.825C218.691 142.825 222.538 142.053 225.939 140.483L225.1 138.667ZM214.42 136C216.955 136 219.304 135.497 221.449 134.478L220.59 132.672C218.736 133.553 216.684 134 214.42 134V136ZM221.449 134.478C223.626 133.444 225.349 131.885 226.6 129.818L224.889 128.782C223.84 130.515 222.413 131.806 220.59 132.672L221.449 134.478ZM226.59 129.834C227.91 127.745 228.545 125.251 228.545 122.4H226.545C226.545 124.949 225.979 127.055 224.899 128.766L226.59 129.834ZM228.545 122.4C228.545 119.549 227.91 117.055 226.59 114.966L224.899 116.034C225.979 117.745 226.545 119.851 226.545 122.4H228.545ZM226.6 114.982C225.352 112.919 223.634 111.339 221.467 110.256L220.572 112.044C222.405 112.961 223.838 114.281 224.889 116.018L226.6 114.982ZM221.494 110.27C219.383 109.133 217.017 108.575 214.42 108.575V110.575C216.722 110.575 218.756 111.067 220.545 112.03L221.494 110.27ZM214.42 108.575C211.829 108.575 209.449 109.105 207.297 110.181L208.192 111.969C210.04 111.045 212.11 110.575 214.42 110.575V108.575ZM207.297 110.181C205.137 111.261 203.379 112.831 202.034 114.875L203.705 115.975C204.86 114.219 206.352 112.889 208.192 111.969L207.297 110.181ZM202.024 114.891C200.703 116.983 200.07 119.503 200.07 122.4H202.07C202.07 119.797 202.636 117.667 203.715 115.959L202.024 114.891ZM200.07 122.4C200.07 125.251 200.704 127.745 202.024 129.834L203.715 128.766C202.635 127.055 202.07 124.949 202.07 122.4H200.07ZM202.024 129.834C203.324 131.891 205.067 133.446 207.24 134.478L208.099 132.672C206.272 131.804 204.816 130.509 203.715 128.766L202.024 129.834ZM207.249 134.482C209.442 135.498 211.837 136 214.42 136V134C212.102 134 209.997 133.552 208.09 132.668L207.249 134.482ZM243.47 103.65V102.65H242.47V103.65H243.47ZM251.795 103.65H252.795V102.65H251.795V103.65ZM251.795 141V142H252.795V141H251.795ZM243.47 141H242.47V142H243.47V141ZM273.47 103.725L273.154 104.674L273.162 104.676L273.47 103.725ZM278.195 106.5L277.502 107.221L277.516 107.234L277.531 107.247L278.195 106.5ZM281.27 111L280.338 111.362L280.343 111.374L280.347 111.385L281.27 111ZM282.395 141V142H283.395V141H282.395ZM274.07 141H273.07V142H274.07V141ZM271.82 112.275L271.101 112.97L271.113 112.982L271.125 112.994L271.82 112.275ZM258.32 111.6L258.777 112.49L258.785 112.485L258.32 111.6ZM253.52 115.575L254.308 116.191L254.313 116.185L254.317 116.179L253.52 115.575ZM251.345 120.9L250.345 120.919L252.34 121.002L251.345 120.9ZM251.27 116.85L250.279 116.716L250.269 116.792L250.27 116.869L251.27 116.85ZM252.92 111.6L253.809 112.058L253.815 112.047L252.92 111.6ZM256.295 107.1L256.976 107.833L256.983 107.826L256.989 107.82L256.295 107.1ZM261.245 103.95L261.612 104.88L261.245 103.95ZM243.47 104.65H251.795V102.65H243.47V104.65ZM250.795 103.65V141H252.795V103.65H250.795ZM251.795 140H243.47V142H251.795V140ZM244.47 141V103.65H242.47V141H244.47ZM267.545 103.825C269.602 103.825 271.469 104.112 273.154 104.674L273.787 102.776C271.872 102.138 269.789 101.825 267.545 101.825V103.825ZM273.162 104.676C274.879 105.233 276.32 106.084 277.502 107.221L278.888 105.779C277.471 104.416 275.761 103.417 273.779 102.774L273.162 104.676ZM277.531 107.247C278.754 108.335 279.692 109.7 280.338 111.362L282.202 110.638C281.449 108.7 280.336 107.065 278.86 105.753L277.531 107.247ZM280.347 111.385C281.035 113.036 281.395 115.024 281.395 117.375H283.395C283.395 114.826 283.005 112.564 282.193 110.615L280.347 111.385ZM281.395 117.375V141H283.395V117.375H281.395ZM282.395 140H274.07V142H282.395V140ZM275.07 141V119.025H273.07V141H275.07ZM275.07 119.025C275.07 115.83 274.285 113.267 272.515 111.556L271.125 112.994C272.355 114.183 273.07 116.12 273.07 119.025H275.07ZM272.539 111.58C270.823 109.805 268.204 109.025 264.92 109.025V111.025C267.936 111.025 269.917 111.745 271.101 112.97L272.539 111.58ZM264.92 109.025C262.369 109.025 260.008 109.585 257.855 110.715L258.785 112.485C260.633 111.515 262.672 111.025 264.92 111.025V109.025ZM257.864 110.71C255.788 111.775 254.069 113.194 252.723 114.971L254.317 116.179C255.471 114.656 256.952 113.425 258.777 112.49L257.864 110.71ZM252.732 114.959C251.371 116.702 250.57 118.654 250.351 120.798L252.34 121.002C252.52 119.246 253.17 117.648 254.308 116.191L252.732 114.959ZM252.345 120.881L252.27 116.831L250.27 116.869L250.345 120.919L252.345 120.881ZM252.261 116.984C252.496 115.246 253.012 113.606 253.809 112.058L252.031 111.142C251.129 112.894 250.545 114.754 250.279 116.716L252.261 116.984ZM253.815 112.047C254.611 110.455 255.663 109.052 256.976 107.833L255.615 106.367C254.127 107.748 252.93 109.345 252.026 111.153L253.815 112.047ZM256.989 107.82C258.291 106.565 259.828 105.585 261.612 104.88L260.878 103.02C258.863 103.815 257.1 104.935 255.601 106.38L256.989 107.82ZM261.612 104.88C263.382 104.182 265.355 103.825 267.545 103.825V101.825C265.135 101.825 262.909 102.218 260.878 103.02L261.612 104.88Z" fill="white" mask="url(#path-1-outside-1_95_315)"/>
</g>
<defs>
<filter id="filter0_d_95_315" x="0.899902" y="0.5" width="284.496" height="144.325" filterUnits="userSpaceOnUse" color-interpolation-filters="sRGB">
<feFlood flood-opacity="0" result="BackgroundImageFix"/>
<feColorMatrix in="SourceAlpha" type="matrix" values="0 0 0 0 0 0 0 0 0 0 0 0 0 0 0 0 0 0 127 0" result="hardAlpha"/>
<feOffset dx="1" dy="1"/>
<feGaussianBlur stdDeviation="1"/>
<feComposite in2="hardAlpha" operator="out"/>
<feColorMatrix type="matrix" values="0 0 0 0 0 0 0 0 0 0 0 0 0 0 0 0 0 0 1 0"/>
<feBlend mode="normal" in2="BackgroundImageFix" result="effect1_dropShadow_95_315"/>
<feBlend mode="normal" in="SourceGraphic" in2="effect1_dropShadow_95_315" result="shape"/>
</filter>
</defs>
</svg>
