<svg width="347" height="85" viewBox="0 0 347 85" fill="none" xmlns="http://www.w3.org/2000/svg">
<g filter="url(#filter0_d_310_511)">
<mask id="path-1-outside-1_310_511" maskUnits="userSpaceOnUse" x="-1" y="-1" width="348" height="86" fill="black">
<rect fill="white" x="-1" y="-1" width="348" height="86"/>
<path d="M0.450137 45.435H10.5511C10.7938 47.6797 11.6735 49.712 13.1901 51.532C14.7675 53.2913 16.8301 54.6867 19.3781 55.718C21.9868 56.6887 24.9595 57.174 28.2961 57.174C31.2688 57.174 33.7258 56.81 35.6671 56.082C37.6085 55.354 39.0341 54.353 39.9441 53.079C40.9148 51.7443 41.4001 50.1973 41.4001 48.438C41.4001 46.6787 40.8238 45.3137 39.6711 44.343C38.5791 43.3117 36.8805 42.4623 34.5751 41.795C32.2698 41.067 29.3275 40.3693 25.7481 39.702C22.7755 39.156 19.8938 38.428 17.1031 37.518C14.3125 36.608 11.7948 35.4553 9.55014 34.06C7.36614 32.6647 5.63714 30.966 4.36314 28.964C3.08914 26.9013 2.45214 24.4747 2.45214 21.684C2.45214 18.5293 3.3318 15.678 5.09114 13.13C6.91114 10.582 9.58047 8.58 13.0991 7.124C16.6178 5.668 20.8948 4.94 25.9301 4.94C33.6348 4.94 39.5195 6.72966 43.5841 10.309C47.6488 13.8277 49.6205 18.6203 49.4991 24.687H39.5801C39.3981 20.865 38.0028 18.1047 35.3941 16.406C32.7855 14.7073 29.4791 13.858 25.4751 13.858C21.8958 13.858 18.8928 14.495 16.4661 15.769C14.0395 17.043 12.8261 19.1057 12.8261 21.957C12.8261 23.1703 13.0991 24.232 13.6451 25.142C14.2518 25.9913 15.2225 26.78 16.5571 27.508C17.8918 28.1753 19.7118 28.8427 22.0171 29.51C24.3831 30.1167 27.2648 30.784 30.6621 31.512C33.5741 31.9973 36.3041 32.6647 38.8521 33.514C41.4001 34.3633 43.6145 35.425 45.4951 36.699C47.4365 37.973 48.9531 39.611 50.0451 41.613C51.1371 43.615 51.6831 46.072 51.6831 48.984C51.6831 52.3207 50.8338 55.2933 49.1351 57.902C47.4365 60.45 44.8278 62.4823 41.3091 63.999C37.8511 65.455 33.3618 66.183 27.8411 66.183C23.6551 66.183 19.9848 65.6977 16.8301 64.727C13.7361 63.6957 11.0971 62.3913 8.91314 60.814C6.72914 59.176 4.9698 57.4167 3.63514 55.536C2.36114 53.6553 1.45114 51.8353 0.905137 50.076C0.419804 48.256 0.268137 46.709 0.450137 45.435ZM72.7674 0.480995V10.218H60.6644V0.480995H72.7674ZM61.5744 19.682H71.7664V65H61.5744V19.682ZM104.067 57.993C99.8205 57.993 95.9681 57.2347 92.5101 55.718C89.1128 54.2013 86.4131 51.987 84.4111 49.075C82.4698 46.163 81.4991 42.6747 81.4991 38.61C81.4991 34.5453 82.4395 31.0267 84.3201 28.054C86.2615 25.0813 88.9308 22.776 92.3281 21.138C95.7861 19.5 99.6991 18.681 104.067 18.681C105.341 18.681 106.554 18.772 107.707 18.954C108.92 19.136 110.073 19.3787 111.165 19.682L132.368 19.773V28.236C129.456 28.2967 126.514 27.9023 123.541 27.053C120.629 26.143 118.051 25.2027 115.806 24.232L115.533 23.686C117.596 24.7173 119.446 25.9913 121.084 27.508C122.783 28.964 124.117 30.6323 125.088 32.513C126.059 34.3937 126.544 36.517 126.544 38.883C126.544 42.887 125.573 46.3147 123.632 49.166C121.751 52.0173 119.112 54.2013 115.715 55.718C112.378 57.2347 108.496 57.993 104.067 57.993ZM118.627 83.473V81.38C118.627 78.4073 117.747 76.3143 115.988 75.101C114.229 73.8877 111.772 73.281 108.617 73.281H96.3321C93.9055 73.281 91.8125 73.0687 90.0531 72.644C88.3545 72.28 86.9895 71.7037 85.9581 70.915C84.9268 70.187 84.1685 69.3073 83.6831 68.276C83.1978 67.3053 82.9551 66.2133 82.9551 65C82.9551 62.5733 83.6831 60.7533 85.1391 59.54C86.6558 58.3267 88.6275 57.538 91.0541 57.174C93.5415 56.81 96.1501 56.7493 98.8801 56.992L104.067 57.993C100.488 58.1143 97.7578 58.448 95.8771 58.994C94.0571 59.4793 93.1471 60.4803 93.1471 61.997C93.1471 62.907 93.5111 63.635 94.2391 64.181C94.9671 64.727 95.9985 65 97.3331 65H110.255C113.956 65 117.201 65.4247 119.992 66.274C122.783 67.184 124.936 68.6703 126.453 70.733C128.03 72.8563 128.819 75.738 128.819 79.378V83.473H118.627ZM104.067 50.076C106.494 50.076 108.647 49.621 110.528 48.711C112.409 47.801 113.895 46.4967 114.987 44.798C116.079 43.0993 116.625 41.0367 116.625 38.61C116.625 36.1833 116.079 34.0903 114.987 32.331C113.895 30.5717 112.409 29.237 110.528 28.327C108.647 27.417 106.494 26.962 104.067 26.962C101.701 26.962 99.5475 27.417 97.6061 28.327C95.7255 29.237 94.2391 30.5717 93.1471 32.331C92.0551 34.0297 91.5091 36.1227 91.5091 38.61C91.5091 41.0367 92.0551 43.0993 93.1471 44.798C94.2391 46.4967 95.7255 47.801 97.6061 48.711C99.4868 49.621 101.64 50.076 104.067 50.076ZM140.474 19.682H150.575V65H140.474V19.682ZM169.685 18.681C172.293 18.681 174.69 19.045 176.874 19.773C179.118 20.501 181.029 21.6233 182.607 23.14C184.245 24.596 185.488 26.416 186.338 28.6C187.248 30.784 187.703 33.3623 187.703 36.335V65H177.602V38.337C177.602 34.6363 176.692 31.9063 174.872 30.147C173.112 28.327 170.322 27.417 166.5 27.417C163.588 27.417 160.918 28.054 158.492 29.328C156.126 30.5413 154.184 32.149 152.668 34.151C151.151 36.0923 150.271 38.246 150.029 40.612L149.938 35.698C150.241 33.4533 150.908 31.33 151.94 29.328C152.971 27.2653 154.336 25.4453 156.035 23.868C157.733 22.23 159.735 20.956 162.041 20.046C164.346 19.136 166.894 18.681 169.685 18.681ZM270.701 40.157V6.032H280.984V40.976C280.984 44.6767 280.468 47.9223 279.437 50.713C278.466 53.5037 277.071 55.8697 275.251 57.811C273.431 59.7523 271.277 61.36 268.79 62.634C266.303 63.8473 263.573 64.727 260.6 65.273C257.688 65.819 254.594 66.092 251.318 66.092C247.921 66.092 244.705 65.819 241.672 65.273C238.639 64.727 235.878 63.8473 233.391 62.634C230.904 61.36 228.75 59.7523 226.93 57.811C225.171 55.8697 223.775 53.5037 222.744 50.713C221.773 47.9223 221.288 44.6767 221.288 40.976V6.032H231.662V40.157C231.662 44.7677 232.511 48.2863 234.21 50.713C235.969 53.079 238.335 54.717 241.308 55.627C244.281 56.537 247.617 56.992 251.318 56.992C254.897 56.992 258.143 56.537 261.055 55.627C263.967 54.717 266.303 53.079 268.062 50.713C269.821 48.2863 270.701 44.7677 270.701 40.157ZM322.801 66.001C319.1 66.001 315.945 65.273 313.337 63.817C310.789 62.361 308.726 60.45 307.149 58.084C305.632 55.6573 304.51 53.079 303.782 50.349C303.054 47.5583 302.69 44.9193 302.69 42.432C302.69 39.0953 303.023 36.0013 303.691 33.15C304.419 30.2987 305.541 27.8113 307.058 25.688C308.635 23.504 310.698 21.8053 313.246 20.592C315.854 19.318 319.039 18.681 322.801 18.681C327.047 18.681 330.869 19.7123 334.267 21.775C337.664 23.777 340.364 26.5677 342.366 30.147C344.368 33.6657 345.369 37.7607 345.369 42.432C345.369 47.1033 344.337 51.2287 342.275 54.808C340.273 58.3267 337.573 61.087 334.176 63.089C330.778 65.0303 326.987 66.001 322.801 66.001ZM319.798 57.629C322.831 57.629 325.5 56.992 327.806 55.718C330.111 54.444 331.901 52.6543 333.175 50.349C334.449 48.0437 335.086 45.4047 335.086 42.432C335.086 37.882 333.751 34.1813 331.082 31.33C328.412 28.418 324.651 26.962 319.798 26.962C316.764 26.962 314.034 27.599 311.608 28.873C309.181 30.147 307.27 31.9367 305.875 34.242C304.479 36.4867 303.782 39.2167 303.782 42.432C303.782 45.344 304.419 47.9527 305.693 50.258C306.967 52.5633 308.787 54.3833 311.153 55.718C313.519 56.992 316.4 57.629 319.798 57.629ZM293.681 19.682H303.327L303.782 30.784V83.2H293.681V19.682Z"/>
</mask>
<path d="M0.450137 45.435H10.5511C10.7938 47.6797 11.6735 49.712 13.1901 51.532C14.7675 53.2913 16.8301 54.6867 19.3781 55.718C21.9868 56.6887 24.9595 57.174 28.2961 57.174C31.2688 57.174 33.7258 56.81 35.6671 56.082C37.6085 55.354 39.0341 54.353 39.9441 53.079C40.9148 51.7443 41.4001 50.1973 41.4001 48.438C41.4001 46.6787 40.8238 45.3137 39.6711 44.343C38.5791 43.3117 36.8805 42.4623 34.5751 41.795C32.2698 41.067 29.3275 40.3693 25.7481 39.702C22.7755 39.156 19.8938 38.428 17.1031 37.518C14.3125 36.608 11.7948 35.4553 9.55014 34.06C7.36614 32.6647 5.63714 30.966 4.36314 28.964C3.08914 26.9013 2.45214 24.4747 2.45214 21.684C2.45214 18.5293 3.3318 15.678 5.09114 13.13C6.91114 10.582 9.58047 8.58 13.0991 7.124C16.6178 5.668 20.8948 4.94 25.9301 4.94C33.6348 4.94 39.5195 6.72966 43.5841 10.309C47.6488 13.8277 49.6205 18.6203 49.4991 24.687H39.5801C39.3981 20.865 38.0028 18.1047 35.3941 16.406C32.7855 14.7073 29.4791 13.858 25.4751 13.858C21.8958 13.858 18.8928 14.495 16.4661 15.769C14.0395 17.043 12.8261 19.1057 12.8261 21.957C12.8261 23.1703 13.0991 24.232 13.6451 25.142C14.2518 25.9913 15.2225 26.78 16.5571 27.508C17.8918 28.1753 19.7118 28.8427 22.0171 29.51C24.3831 30.1167 27.2648 30.784 30.6621 31.512C33.5741 31.9973 36.3041 32.6647 38.8521 33.514C41.4001 34.3633 43.6145 35.425 45.4951 36.699C47.4365 37.973 48.9531 39.611 50.0451 41.613C51.1371 43.615 51.6831 46.072 51.6831 48.984C51.6831 52.3207 50.8338 55.2933 49.1351 57.902C47.4365 60.45 44.8278 62.4823 41.3091 63.999C37.8511 65.455 33.3618 66.183 27.8411 66.183C23.6551 66.183 19.9848 65.6977 16.8301 64.727C13.7361 63.6957 11.0971 62.3913 8.91314 60.814C6.72914 59.176 4.9698 57.4167 3.63514 55.536C2.36114 53.6553 1.45114 51.8353 0.905137 50.076C0.419804 48.256 0.268137 46.709 0.450137 45.435ZM72.7674 0.480995V10.218H60.6644V0.480995H72.7674ZM61.5744 19.682H71.7664V65H61.5744V19.682ZM104.067 57.993C99.8205 57.993 95.9681 57.2347 92.5101 55.718C89.1128 54.2013 86.4131 51.987 84.4111 49.075C82.4698 46.163 81.4991 42.6747 81.4991 38.61C81.4991 34.5453 82.4395 31.0267 84.3201 28.054C86.2615 25.0813 88.9308 22.776 92.3281 21.138C95.7861 19.5 99.6991 18.681 104.067 18.681C105.341 18.681 106.554 18.772 107.707 18.954C108.92 19.136 110.073 19.3787 111.165 19.682L132.368 19.773V28.236C129.456 28.2967 126.514 27.9023 123.541 27.053C120.629 26.143 118.051 25.2027 115.806 24.232L115.533 23.686C117.596 24.7173 119.446 25.9913 121.084 27.508C122.783 28.964 124.117 30.6323 125.088 32.513C126.059 34.3937 126.544 36.517 126.544 38.883C126.544 42.887 125.573 46.3147 123.632 49.166C121.751 52.0173 119.112 54.2013 115.715 55.718C112.378 57.2347 108.496 57.993 104.067 57.993ZM118.627 83.473V81.38C118.627 78.4073 117.747 76.3143 115.988 75.101C114.229 73.8877 111.772 73.281 108.617 73.281H96.3321C93.9055 73.281 91.8125 73.0687 90.0531 72.644C88.3545 72.28 86.9895 71.7037 85.9581 70.915C84.9268 70.187 84.1685 69.3073 83.6831 68.276C83.1978 67.3053 82.9551 66.2133 82.9551 65C82.9551 62.5733 83.6831 60.7533 85.1391 59.54C86.6558 58.3267 88.6275 57.538 91.0541 57.174C93.5415 56.81 96.1501 56.7493 98.8801 56.992L104.067 57.993C100.488 58.1143 97.7578 58.448 95.8771 58.994C94.0571 59.4793 93.1471 60.4803 93.1471 61.997C93.1471 62.907 93.5111 63.635 94.2391 64.181C94.9671 64.727 95.9985 65 97.3331 65H110.255C113.956 65 117.201 65.4247 119.992 66.274C122.783 67.184 124.936 68.6703 126.453 70.733C128.03 72.8563 128.819 75.738 128.819 79.378V83.473H118.627ZM104.067 50.076C106.494 50.076 108.647 49.621 110.528 48.711C112.409 47.801 113.895 46.4967 114.987 44.798C116.079 43.0993 116.625 41.0367 116.625 38.61C116.625 36.1833 116.079 34.0903 114.987 32.331C113.895 30.5717 112.409 29.237 110.528 28.327C108.647 27.417 106.494 26.962 104.067 26.962C101.701 26.962 99.5475 27.417 97.6061 28.327C95.7255 29.237 94.2391 30.5717 93.1471 32.331C92.0551 34.0297 91.5091 36.1227 91.5091 38.61C91.5091 41.0367 92.0551 43.0993 93.1471 44.798C94.2391 46.4967 95.7255 47.801 97.6061 48.711C99.4868 49.621 101.64 50.076 104.067 50.076ZM140.474 19.682H150.575V65H140.474V19.682ZM169.685 18.681C172.293 18.681 174.69 19.045 176.874 19.773C179.118 20.501 181.029 21.6233 182.607 23.14C184.245 24.596 185.488 26.416 186.338 28.6C187.248 30.784 187.703 33.3623 187.703 36.335V65H177.602V38.337C177.602 34.6363 176.692 31.9063 174.872 30.147C173.112 28.327 170.322 27.417 166.5 27.417C163.588 27.417 160.918 28.054 158.492 29.328C156.126 30.5413 154.184 32.149 152.668 34.151C151.151 36.0923 150.271 38.246 150.029 40.612L149.938 35.698C150.241 33.4533 150.908 31.33 151.94 29.328C152.971 27.2653 154.336 25.4453 156.035 23.868C157.733 22.23 159.735 20.956 162.041 20.046C164.346 19.136 166.894 18.681 169.685 18.681ZM270.701 40.157V6.032H280.984V40.976C280.984 44.6767 280.468 47.9223 279.437 50.713C278.466 53.5037 277.071 55.8697 275.251 57.811C273.431 59.7523 271.277 61.36 268.79 62.634C266.303 63.8473 263.573 64.727 260.6 65.273C257.688 65.819 254.594 66.092 251.318 66.092C247.921 66.092 244.705 65.819 241.672 65.273C238.639 64.727 235.878 63.8473 233.391 62.634C230.904 61.36 228.75 59.7523 226.93 57.811C225.171 55.8697 223.775 53.5037 222.744 50.713C221.773 47.9223 221.288 44.6767 221.288 40.976V6.032H231.662V40.157C231.662 44.7677 232.511 48.2863 234.21 50.713C235.969 53.079 238.335 54.717 241.308 55.627C244.281 56.537 247.617 56.992 251.318 56.992C254.897 56.992 258.143 56.537 261.055 55.627C263.967 54.717 266.303 53.079 268.062 50.713C269.821 48.2863 270.701 44.7677 270.701 40.157ZM322.801 66.001C319.1 66.001 315.945 65.273 313.337 63.817C310.789 62.361 308.726 60.45 307.149 58.084C305.632 55.6573 304.51 53.079 303.782 50.349C303.054 47.5583 302.69 44.9193 302.69 42.432C302.69 39.0953 303.023 36.0013 303.691 33.15C304.419 30.2987 305.541 27.8113 307.058 25.688C308.635 23.504 310.698 21.8053 313.246 20.592C315.854 19.318 319.039 18.681 322.801 18.681C327.047 18.681 330.869 19.7123 334.267 21.775C337.664 23.777 340.364 26.5677 342.366 30.147C344.368 33.6657 345.369 37.7607 345.369 42.432C345.369 47.1033 344.337 51.2287 342.275 54.808C340.273 58.3267 337.573 61.087 334.176 63.089C330.778 65.0303 326.987 66.001 322.801 66.001ZM319.798 57.629C322.831 57.629 325.5 56.992 327.806 55.718C330.111 54.444 331.901 52.6543 333.175 50.349C334.449 48.0437 335.086 45.4047 335.086 42.432C335.086 37.882 333.751 34.1813 331.082 31.33C328.412 28.418 324.651 26.962 319.798 26.962C316.764 26.962 314.034 27.599 311.608 28.873C309.181 30.147 307.27 31.9367 305.875 34.242C304.479 36.4867 303.782 39.2167 303.782 42.432C303.782 45.344 304.419 47.9527 305.693 50.258C306.967 52.5633 308.787 54.3833 311.153 55.718C313.519 56.992 316.4 57.629 319.798 57.629ZM293.681 19.682H303.327L303.782 30.784V83.2H293.681V19.682Z" fill="white"/>
<path d="M0.450137 45.435V44.435H-0.417159L-0.539813 45.2936L0.450137 45.435ZM10.5511 45.435L11.5453 45.3275L11.4489 44.435H10.5511V45.435ZM13.1901 51.532L12.4219 52.1722L12.4335 52.1861L12.4456 52.1995L13.1901 51.532ZM19.3781 55.718L19.0029 56.6449L19.0161 56.6503L19.0294 56.6552L19.3781 55.718ZM39.9441 53.079L39.1354 52.4908L39.1304 52.4978L39.9441 53.079ZM39.6711 44.343L38.9845 45.07L39.0052 45.0896L39.027 45.1079L39.6711 44.343ZM34.5751 41.795L34.274 42.7486L34.2855 42.7522L34.2971 42.7556L34.5751 41.795ZM25.7481 39.702L25.9314 38.7189L25.9288 38.7184L25.7481 39.702ZM17.1031 37.518L17.4132 36.5673L17.1031 37.518ZM9.55014 34.06L9.01171 34.9028L9.0222 34.9093L9.55014 34.06ZM4.36314 28.964L3.51226 29.4895L3.51948 29.5009L4.36314 28.964ZM5.09114 13.13L4.2774 12.5488L4.27277 12.5552L4.26824 12.5618L5.09114 13.13ZM13.0991 7.124L13.4815 8.04801L13.0991 7.124ZM43.5841 10.309L42.9232 11.0595L42.9296 11.0651L43.5841 10.309ZM49.4991 24.687V25.687H50.4793L50.4989 24.707L49.4991 24.687ZM39.5801 24.687L38.5813 24.7346L38.6266 25.687H39.5801V24.687ZM35.3941 16.406L35.9398 15.568L35.3941 16.406ZM16.4661 15.769L16.931 16.6544L16.4661 15.769ZM13.6451 25.142L12.7876 25.6565L12.8082 25.6907L12.8314 25.7232L13.6451 25.142ZM16.5571 27.508L16.0783 28.3859L16.094 28.3944L16.1099 28.4024L16.5571 27.508ZM22.0171 29.51L21.7391 30.4706L21.7539 30.4748L21.7688 30.4787L22.0171 29.51ZM30.6621 31.512L30.4526 32.4898L30.4751 32.4946L30.4977 32.4984L30.6621 31.512ZM38.8521 33.514L39.1684 32.5653L38.8521 33.514ZM45.4951 36.699L44.9343 37.5269L44.9404 37.531L44.9465 37.535L45.4951 36.699ZM50.0451 41.613L49.1672 42.0919V42.0919L50.0451 41.613ZM49.1351 57.902L49.9672 58.4567L49.9731 58.4477L49.1351 57.902ZM41.3091 63.999L41.6972 64.9207L41.705 64.9173L41.3091 63.999ZM16.8301 64.727L16.5139 65.6757L16.5249 65.6794L16.5361 65.6828L16.8301 64.727ZM8.91314 60.814L8.31314 61.614L8.32034 61.6194L8.32765 61.6247L8.91314 60.814ZM3.63514 55.536L2.80722 56.0968L2.81333 56.1059L2.81963 56.1147L3.63514 55.536ZM0.905137 50.076L-0.0610979 50.3337L-0.055903 50.3531L-0.0499272 50.3724L0.905137 50.076ZM0.450137 46.435H10.5511V44.435H0.450137V46.435ZM9.55693 45.5425C9.82186 47.9931 10.7856 50.2086 12.4219 52.1722L13.9584 50.8918C12.5613 49.2154 11.7658 47.3663 11.5453 45.3275L9.55693 45.5425ZM12.4456 52.1995C14.14 54.0895 16.3367 55.5657 19.0029 56.6449L19.7533 54.7911C17.3236 53.8076 15.3949 52.4932 13.9347 50.8645L12.4456 52.1995ZM19.0294 56.6552C21.7694 57.6747 24.8635 58.174 28.2961 58.174V56.174C25.0555 56.174 22.2042 55.7026 19.7269 54.7808L19.0294 56.6552ZM28.2961 58.174C31.341 58.174 33.9273 57.8024 36.0183 57.0183L35.316 55.1457C33.5243 55.8176 31.1966 56.174 28.2961 56.174V58.174ZM36.0183 57.0183C38.0863 56.2428 39.7003 55.1408 40.7579 53.6602L39.1304 52.4978C38.3679 53.5652 37.1306 54.4652 35.316 55.1457L36.0183 57.0183ZM40.7529 53.6672C41.8563 52.15 42.4001 50.3939 42.4001 48.438H40.4001C40.4001 50.0008 39.9733 51.3387 39.1354 52.4908L40.7529 53.6672ZM42.4001 48.438C42.4001 46.4386 41.7324 44.7715 40.3153 43.5781L39.027 45.1079C39.9152 45.8559 40.4001 46.9188 40.4001 48.438H42.4001ZM40.3578 43.616C39.101 42.429 37.2296 41.5224 34.8532 40.8344L34.2971 42.7556C36.5313 43.4023 38.0573 44.1943 38.9845 45.07L40.3578 43.616ZM34.8763 40.8414C32.5182 40.0968 29.5328 39.3904 25.9314 38.7189L25.5649 40.6851C29.1221 41.3483 32.0214 42.0372 34.274 42.7486L34.8763 40.8414ZM25.9288 38.7184C22.9986 38.1803 20.1602 37.4631 17.4132 36.5673L16.7931 38.4687C19.6274 39.3929 22.5523 40.1317 25.5675 40.6855L25.9288 38.7184ZM17.4132 36.5673C14.6906 35.6795 12.2474 34.5592 10.0781 33.2107L9.0222 34.9093C11.3422 36.3515 13.9343 37.5365 16.7931 38.4687L17.4132 36.5673ZM10.0885 33.2173C8.01589 31.8931 6.39556 30.2952 5.2068 28.4271L3.51948 29.5009C4.87872 31.6368 6.71638 33.4362 9.01175 34.9027L10.0885 33.2173ZM5.21393 28.4385C4.05149 26.5564 3.45214 24.3177 3.45214 21.684H1.45214C1.45214 24.6317 2.12679 27.2462 3.51234 29.4895L5.21393 28.4385ZM3.45214 21.684C3.45214 18.7282 4.27233 16.0758 5.91403 13.6982L4.26824 12.5618C2.39128 15.2802 1.45214 18.3304 1.45214 21.684H3.45214ZM5.90487 13.7112C7.59459 11.3456 10.0983 9.44794 13.4815 8.04801L12.7168 6.19998C9.06262 7.71205 6.22769 9.81836 4.2774 12.5488L5.90487 13.7112ZM13.4815 8.04801C16.8467 6.65552 20.9859 5.94 25.9301 5.94V3.94C20.8037 3.94 16.3889 4.68048 12.7168 6.19998L13.4815 8.04801ZM25.9301 5.94C33.4933 5.94 39.1054 7.69746 42.9233 11.0595L44.245 9.55851C39.9336 5.76187 33.7763 3.94 25.9301 3.94V5.94ZM42.9296 11.0651C46.739 14.3627 48.6156 18.8545 48.4993 24.667L50.4989 24.707C50.6254 18.3862 48.5586 13.2926 44.2386 9.55294L42.9296 11.0651ZM49.4991 23.687H39.5801V25.687H49.4991V23.687ZM40.579 24.6394C40.3857 20.5791 38.8803 17.4827 35.9398 15.568L34.8485 17.244C37.1253 18.7266 38.4106 21.1509 38.5813 24.7346L40.579 24.6394ZM35.9398 15.568C33.1282 13.7372 29.618 12.858 25.4751 12.858V14.858C29.3403 14.858 32.4427 15.6775 34.8485 17.244L35.9398 15.568ZM25.4751 12.858C21.7817 12.858 18.6085 13.5148 16.0013 14.8836L16.931 16.6544C19.1771 15.4752 22.0099 14.858 25.4751 14.858V12.858ZM16.0013 14.8836C14.6474 15.5944 13.5885 16.5502 12.8742 17.7645C12.1612 18.9766 11.8261 20.3873 11.8261 21.957H13.8261C13.8261 20.6753 14.0977 19.6291 14.5981 18.7785C15.0971 17.9302 15.8582 17.2176 16.931 16.6544L16.0013 14.8836ZM11.8261 21.957C11.8261 23.3251 12.1357 24.5698 12.7876 25.6565L14.5026 24.6275C14.0626 23.8942 13.8261 23.0156 13.8261 21.957H11.8261ZM12.8314 25.7232C13.5566 26.7385 14.667 27.6161 16.0783 28.3859L17.036 26.6301C15.778 25.9439 14.947 25.2442 14.4589 24.5608L12.8314 25.7232ZM16.1099 28.4024C17.5213 29.1081 19.406 29.7952 21.7391 30.4706L22.2952 28.5494C20.0176 27.8901 18.2623 27.2425 17.0044 26.6136L16.1099 28.4024ZM21.7688 30.4787C24.1518 31.0897 27.0472 31.7601 30.4526 32.4898L30.8717 30.5342C27.4824 29.8079 24.6145 29.1436 22.2655 28.5413L21.7688 30.4787ZM30.4977 32.4984C33.3632 32.976 36.042 33.6314 38.5359 34.4627L39.1684 32.5653C36.5662 31.6979 33.785 31.0187 30.8265 30.5256L30.4977 32.4984ZM38.5359 34.4627C41.0125 35.2882 43.1415 36.3125 44.9343 37.5269L46.056 35.8711C44.0874 34.5375 41.7877 33.4384 39.1684 32.5653L38.5359 34.4627ZM44.9465 37.535C46.753 38.7206 48.1554 40.2369 49.1672 42.0919L50.923 41.1341C49.7508 38.9851 48.12 37.2254 46.0438 35.8629L44.9465 37.535ZM49.1672 42.0919C50.1599 43.9118 50.6831 46.1941 50.6831 48.984H52.6831C52.6831 45.9499 52.1143 43.3182 50.923 41.1341L49.1672 42.0919ZM50.6831 48.984C50.6831 52.1415 49.8824 54.9218 48.2971 57.3563L49.9731 58.4477C51.7852 55.6649 52.6831 52.4998 52.6831 48.984H50.6831ZM48.3031 57.3473C46.7357 59.6984 44.299 61.6213 40.9133 63.0807L41.705 64.9173C45.3566 63.3433 48.1373 61.2016 49.9672 58.4567L48.3031 57.3473ZM40.9211 63.0774C37.6296 64.4633 33.2859 65.183 27.8411 65.183V67.183C33.4377 67.183 38.0727 66.4467 41.6972 64.9206L40.9211 63.0774ZM27.8411 65.183C23.7294 65.183 20.1621 64.7059 17.1242 63.7712L16.5361 65.6828C19.8076 66.6894 23.5808 67.183 27.8411 67.183V65.183ZM17.1464 63.7783C14.1291 62.7725 11.5852 61.5103 9.49863 60.0033L8.32765 61.6247C10.6091 63.2724 13.3432 64.6188 16.5139 65.6757L17.1464 63.7783ZM9.51314 60.014C7.3972 58.427 5.71553 56.7396 4.45064 54.9573L2.81963 56.1147C4.22408 58.0938 6.06108 59.925 8.31314 61.614L9.51314 60.014ZM4.46306 54.9752C3.23189 53.1577 2.37119 51.4261 1.8602 49.7796L-0.0499272 50.3724C0.531084 52.2445 1.49038 54.1529 2.80722 56.0968L4.46306 54.9752ZM1.87137 49.8183C1.40601 48.0732 1.28381 46.6703 1.44009 45.5764L-0.539813 45.2936C-0.74754 46.7477 -0.566401 48.4388 -0.0610979 50.3337L1.87137 49.8183ZM72.7674 0.480995H73.7674V-0.519005H72.7674V0.480995ZM72.7674 10.218V11.218H73.7674V10.218H72.7674ZM60.6644 10.218H59.6644V11.218H60.6644V10.218ZM60.6644 0.480995V-0.519005H59.6644V0.480995H60.6644ZM61.5744 19.682V18.682H60.5744V19.682H61.5744ZM71.7664 19.682H72.7664V18.682H71.7664V19.682ZM71.7664 65V66H72.7664V65H71.7664ZM61.5744 65H60.5744V66H61.5744V65ZM71.7674 0.480995V10.218H73.7674V0.480995H71.7674ZM72.7674 9.21799H60.6644V11.218H72.7674V9.21799ZM61.6644 10.218V0.480995H59.6644V10.218H61.6644ZM60.6644 1.481H72.7674V-0.519005H60.6644V1.481ZM61.5744 20.682H71.7664V18.682H61.5744V20.682ZM70.7664 19.682V65H72.7664V19.682H70.7664ZM71.7664 64H61.5744V66H71.7664V64ZM62.5744 65V19.682H60.5744V65H62.5744ZM92.5101 55.718L92.1025 56.6312L92.1085 56.6338L92.5101 55.718ZM84.4111 49.075L83.5791 49.6297L83.5831 49.6356L83.5871 49.6415L84.4111 49.075ZM84.3201 28.054L83.4829 27.5072L83.4789 27.5133L83.4751 27.5194L84.3201 28.054ZM92.3281 21.138L91.9 20.2342L91.8938 20.2372L92.3281 21.138ZM107.707 18.954L107.551 19.9418L107.559 19.9429L107.707 18.954ZM111.165 19.682L110.897 20.6455L111.027 20.6814L111.161 20.682L111.165 19.682ZM132.368 19.773H133.368V18.7773L132.372 18.773L132.368 19.773ZM132.368 28.236L132.389 29.2358L133.368 29.2154V28.236H132.368ZM123.541 27.053L123.243 28.0075L123.255 28.0111L123.266 28.0145L123.541 27.053ZM115.806 24.232L114.912 24.6792L115.075 25.0052L115.409 25.1499L115.806 24.232ZM115.533 23.686L115.98 22.7916L113.297 21.4499L114.639 24.1332L115.533 23.686ZM121.084 27.508L120.405 28.2418L120.419 28.2548L120.433 28.2673L121.084 27.508ZM125.088 32.513L125.977 32.0544L125.088 32.513ZM123.632 49.166L122.806 48.6032L122.801 48.6093L122.797 48.6154L123.632 49.166ZM115.715 55.718L115.307 54.8048L115.301 54.8076L115.715 55.718ZM118.627 83.473H117.627V84.473H118.627V83.473ZM90.0531 72.644L90.2878 71.6719L90.2753 71.6689L90.2627 71.6662L90.0531 72.644ZM85.9581 70.915L86.5656 70.1206L86.5504 70.109L86.5348 70.098L85.9581 70.915ZM83.6831 68.276L84.588 67.8502L84.5829 67.8394L84.5776 67.8288L83.6831 68.276ZM85.1391 59.54L84.5145 58.7591L84.5066 58.7654L84.499 58.7718L85.1391 59.54ZM91.0541 57.174L90.9093 56.1845L90.9058 56.1851L91.0541 57.174ZM98.8801 56.992L99.0696 56.0101L99.0195 56.0004L98.9687 55.9959L98.8801 56.992ZM104.067 57.993L104.101 58.9924L104.257 57.0111L104.067 57.993ZM95.8771 58.994L96.1348 59.9602L96.1454 59.9574L96.156 59.9543L95.8771 58.994ZM94.2391 64.181L94.8391 63.381H94.8391L94.2391 64.181ZM119.992 66.274L120.302 65.3233L120.293 65.3202L120.283 65.3173L119.992 66.274ZM126.453 70.733L125.647 71.3254L125.65 71.3293L126.453 70.733ZM128.819 83.473V84.473H129.819V83.473H128.819ZM110.528 48.711L110.964 49.6112L110.528 48.711ZM114.987 44.798L114.146 44.2572L114.987 44.798ZM114.987 32.331L115.837 31.8036L114.987 32.331ZM110.528 28.327L110.964 27.4268L110.528 28.327ZM97.6061 28.327L97.1817 27.4215L97.1706 27.4268L97.6061 28.327ZM93.1471 32.331L93.9883 32.8718L93.9926 32.8651L93.9968 32.8584L93.1471 32.331ZM93.1471 44.798L93.9883 44.2572L93.1471 44.798ZM97.6061 48.711L98.0417 47.8108L97.6061 48.711ZM104.067 56.993C99.9415 56.993 96.2283 56.2568 92.9118 54.8022L92.1085 56.6338C95.708 58.2125 99.6995 58.993 104.067 58.993V56.993ZM92.9178 54.8049C89.6792 53.3591 87.1273 51.2607 85.2352 48.5085L83.5871 49.6415C85.699 52.7133 88.5464 55.0436 92.1025 56.6311L92.9178 54.8049ZM85.2432 48.5203C83.4282 45.7978 82.4991 42.5099 82.4991 38.61H80.4991C80.4991 42.8394 81.5114 46.5282 83.5791 49.6297L85.2432 48.5203ZM82.4991 38.61C82.4991 34.7046 83.4007 31.3777 85.1652 28.5886L83.4751 27.5194C81.4782 30.6756 80.4991 34.3861 80.4991 38.61H82.4991ZM85.1574 28.6008C86.9929 25.7902 89.5185 23.6028 92.7624 22.0388L91.8938 20.2372C88.3431 21.9492 85.5301 24.3725 83.4829 27.5072L85.1574 28.6008ZM92.7562 22.0417C96.0627 20.4755 99.8262 19.681 104.067 19.681V17.681C99.5721 17.681 95.5096 18.5245 91.9001 20.2343L92.7562 22.0417ZM104.067 19.681C105.294 19.681 106.455 19.7686 107.551 19.9418L107.863 17.9662C106.654 17.7754 105.389 17.681 104.067 17.681V19.681ZM107.559 19.9429C108.735 20.1194 109.848 20.3539 110.897 20.6455L111.433 18.7185C110.299 18.4034 109.106 18.1526 107.855 17.9651L107.559 19.9429ZM111.161 20.682L132.364 20.773L132.372 18.773L111.169 18.682L111.161 20.682ZM131.368 19.773V28.236H133.368V19.773H131.368ZM132.347 27.2362C129.541 27.2947 126.698 26.9151 123.816 26.0915L123.266 28.0145C126.329 28.8896 129.371 29.2987 132.389 29.2358L132.347 27.2362ZM123.839 26.0985C120.953 25.1965 118.409 24.268 116.203 23.3141L115.409 25.1499C117.693 26.1374 120.305 27.0894 123.243 28.0075L123.839 26.0985ZM116.701 23.7848L116.428 23.2388L114.639 24.1332L114.912 24.6792L116.701 23.7848ZM115.086 24.5804C117.067 25.5709 118.838 26.7915 120.405 28.2418L121.764 26.7742C120.054 25.1912 118.125 23.8638 115.98 22.7916L115.086 24.5804ZM120.433 28.2673C122.04 29.6442 123.291 31.212 124.2 32.9716L125.977 32.0544C124.944 30.0526 123.526 28.2838 121.735 26.7487L120.433 28.2673ZM124.2 32.9716C125.089 34.6945 125.544 36.6575 125.544 38.883H127.544C127.544 36.3765 127.029 34.0929 125.977 32.0544L124.2 32.9716ZM125.544 38.883C125.544 42.7194 124.617 45.9433 122.806 48.6032L124.459 49.7288C126.53 46.6861 127.544 43.0546 127.544 38.883H125.544ZM122.797 48.6154C121.031 51.2935 118.547 53.3587 115.307 54.8049L116.123 56.6311C119.678 55.044 122.472 52.7411 124.467 49.7166L122.797 48.6154ZM115.301 54.8076C112.119 56.2542 108.382 56.993 104.067 56.993V58.993C108.609 58.993 112.638 58.2151 116.129 56.6284L115.301 54.8076ZM119.627 83.473V81.38H117.627V83.473H119.627ZM119.627 81.38C119.627 78.2179 118.683 75.7449 116.556 74.2778L115.42 75.9242C116.812 76.8837 117.627 78.5968 117.627 81.38H119.627ZM116.556 74.2778C114.567 72.9065 111.883 72.281 108.617 72.281V74.281C111.66 74.281 113.89 74.8688 115.42 75.9242L116.556 74.2778ZM108.617 72.281H96.3321V74.281H108.617V72.281ZM96.3321 72.281C93.9596 72.281 91.9493 72.073 90.2878 71.6719L89.8185 73.6161C91.6756 74.0644 93.8514 74.281 96.3321 74.281V72.281ZM90.2627 71.6662C88.6621 71.3232 87.4468 70.7945 86.5656 70.1206L85.3507 71.7094C86.5322 72.6128 88.0469 73.2368 89.8436 73.6218L90.2627 71.6662ZM86.5348 70.098C85.6293 69.4588 84.9919 68.7086 84.588 67.8502L82.7783 68.7018C83.3451 69.9061 84.2243 70.9152 85.3815 71.732L86.5348 70.098ZM84.5776 67.8288C84.1695 67.0126 83.9551 66.0766 83.9551 65H81.9551C81.9551 66.3501 82.2261 67.598 82.7887 68.7232L84.5776 67.8288ZM83.9551 65C83.9551 62.7803 84.6124 61.2807 85.7793 60.3082L84.499 58.7718C82.7539 60.226 81.9551 62.3664 81.9551 65H83.9551ZM85.7638 60.3209C87.1111 59.2431 88.9049 58.5076 91.2025 58.1629L90.9058 56.1851C88.35 56.5684 86.2006 57.4102 84.5145 58.7591L85.7638 60.3209ZM91.1989 58.1635C93.6024 57.8117 96.1324 57.7517 98.7916 57.9881L98.9687 55.9959C96.1678 55.747 93.4805 55.8083 90.9093 56.1845L91.1989 58.1635ZM98.6907 57.9739L103.878 58.9749L104.257 57.0111L99.0696 56.0101L98.6907 57.9739ZM104.033 56.9936C100.427 57.1158 97.599 57.4528 95.5983 58.0337L96.156 59.9543C97.9166 59.4432 100.548 59.1129 104.101 58.9924L104.033 56.9936ZM95.6195 58.0278C94.5939 58.3013 93.7153 58.7479 93.0897 59.4361C92.4467 60.1433 92.1471 61.0224 92.1471 61.997H94.1471C94.1471 61.455 94.3025 61.0752 94.5696 60.7814C94.854 60.4686 95.3404 60.1721 96.1348 59.9602L95.6195 58.0278ZM92.1471 61.997C92.1471 63.2218 92.6593 64.2461 93.6391 64.981L94.8391 63.381C94.363 63.0239 94.1471 62.5922 94.1471 61.997H92.1471ZM93.6391 64.981C94.6043 65.7049 95.8789 66 97.3331 66V64C96.118 64 95.33 63.7491 94.8391 63.381L93.6391 64.981ZM97.3331 66H110.255V64H97.3331V66ZM110.255 66C113.882 66 117.026 66.4166 119.701 67.2307L120.283 65.3173C117.377 64.4328 114.029 64 110.255 64V66ZM119.682 67.2247C122.304 68.0798 124.272 69.4549 125.647 71.3254L127.259 70.1406C125.601 67.8858 123.261 66.2882 120.302 65.3233L119.682 67.2247ZM125.65 71.3293C127.059 73.2259 127.819 75.8736 127.819 79.378H129.819C129.819 75.6024 129.002 72.4867 127.256 70.1367L125.65 71.3293ZM127.819 79.378V83.473H129.819V79.378H127.819ZM128.819 82.473H118.627V84.473H128.819V82.473ZM104.067 51.076C106.62 51.076 108.927 50.5967 110.964 49.6112L110.093 47.8108C108.368 48.6453 106.367 49.076 104.067 49.076V51.076ZM110.964 49.6112C113.004 48.6239 114.633 47.1978 115.828 45.3388L114.146 44.2572C113.157 45.7955 111.814 46.9781 110.093 47.8108L110.964 49.6112ZM115.828 45.3388C117.043 43.4488 117.625 41.1893 117.625 38.61H115.625C115.625 40.884 115.115 42.7499 114.146 44.2572L115.828 45.3388ZM117.625 38.61C117.625 36.0295 117.043 33.7468 115.837 31.8036L114.138 32.8584C115.115 34.4338 115.625 36.3372 115.625 38.61H117.625ZM115.837 31.8036C114.644 29.8818 113.013 28.4186 110.964 27.4268L110.093 29.2272C111.804 30.0554 113.146 31.2615 114.138 32.8584L115.837 31.8036ZM110.964 27.4268C108.927 26.4413 106.62 25.962 104.067 25.962V27.962C106.367 27.962 108.368 28.3927 110.093 29.2272L110.964 27.4268ZM104.067 25.962C101.57 25.962 99.2691 26.4431 97.1817 27.4215L98.0306 29.2325C99.8259 28.3909 101.833 27.962 104.067 27.962V25.962ZM97.1706 27.4268C95.121 28.4186 93.4904 29.8818 92.2975 31.8036L93.9968 32.8584C94.9879 31.2615 96.33 30.0554 98.0417 29.2272L97.1706 27.4268ZM92.306 31.7902C91.0886 33.684 90.5091 35.9755 90.5091 38.61H92.5091C92.5091 36.2699 93.0217 34.3753 93.9883 32.8718L92.306 31.7902ZM90.5091 38.61C90.5091 41.1893 91.091 43.4488 92.306 45.3388L93.9883 44.2572C93.0193 42.7499 92.5091 40.884 92.5091 38.61H90.5091ZM92.306 45.3388C93.5011 47.1978 95.1302 48.6239 97.1706 49.6112L98.0417 47.8108C96.3207 46.9781 94.9772 45.7955 93.9883 44.2572L92.306 45.3388ZM97.1706 49.6112C99.2073 50.5967 101.514 51.076 104.067 51.076V49.076C101.767 49.076 99.7663 48.6453 98.0417 47.8108L97.1706 49.6112ZM140.474 19.682V18.682H139.474V19.682H140.474ZM150.575 19.682H151.575V18.682H150.575V19.682ZM150.575 65V66H151.575V65H150.575ZM140.474 65H139.474V66H140.474V65ZM176.874 19.773L176.557 20.7217L176.565 20.7242L176.874 19.773ZM182.607 23.14L181.913 23.8608L181.928 23.8744L181.942 23.8874L182.607 23.14ZM186.338 28.6L185.406 28.9624L185.41 28.9736L185.414 28.9846L186.338 28.6ZM187.703 65V66H188.703V65H187.703ZM177.602 65H176.602V66H177.602V65ZM174.872 30.147L174.153 30.842L174.164 30.8542L174.177 30.866L174.872 30.147ZM158.492 29.328L158.948 30.2179L158.956 30.2134L158.492 29.328ZM152.668 34.151L153.456 34.7666L153.46 34.7608L153.465 34.7549L152.668 34.151ZM150.029 40.612L149.029 40.6305L151.023 40.714L150.029 40.612ZM149.938 35.698L148.947 35.5641L148.936 35.64L148.938 35.7165L149.938 35.698ZM151.94 29.328L152.829 29.786L152.834 29.7752L151.94 29.328ZM156.035 23.868L156.715 24.6008L156.722 24.5944L156.729 24.5878L156.035 23.868ZM162.041 20.046L162.408 20.9762L162.041 20.046ZM140.474 20.682H150.575V18.682H140.474V20.682ZM149.575 19.682V65H151.575V19.682H149.575ZM150.575 64H140.474V66H150.575V64ZM141.474 65V19.682H139.474V65H141.474ZM169.685 19.681C172.2 19.681 174.488 20.0319 176.557 20.7217L177.19 18.8243C174.891 18.0581 172.387 17.681 169.685 17.681V19.681ZM176.565 20.7242C178.677 21.4093 180.454 22.4572 181.913 23.8608L183.3 22.4192C181.605 20.7895 179.559 19.5927 177.182 18.8218L176.565 20.7242ZM181.942 23.8874C183.454 25.2309 184.61 26.9157 185.406 28.9624L187.27 28.2376C186.367 25.9163 185.036 23.9611 183.271 22.3926L181.942 23.8874ZM185.414 28.9846C186.262 31.0198 186.703 33.4617 186.703 36.335H188.703C188.703 33.263 188.233 30.5482 187.261 28.2154L185.414 28.9846ZM186.703 36.335V65H188.703V36.335H186.703ZM187.703 64H177.602V66H187.703V64ZM178.602 65V38.337H176.602V65H178.602ZM178.602 38.337C178.602 34.4909 177.656 31.4481 175.567 29.428L174.177 30.866C175.727 32.3645 176.602 34.7818 176.602 38.337H178.602ZM175.591 29.452C173.565 27.3567 170.456 26.417 166.5 26.417V28.417C170.187 28.417 172.659 29.2973 174.153 30.842L175.591 29.452ZM166.5 26.417C163.436 26.417 160.606 27.0886 158.027 28.4426L158.956 30.2134C161.231 29.0194 163.739 28.417 166.5 28.417V26.417ZM158.035 28.4382C155.544 29.7159 153.483 31.4185 151.87 33.5471L153.465 34.7549C154.885 32.8795 156.707 31.3667 158.948 30.2178L158.035 28.4382ZM151.88 33.5354C150.251 35.6194 149.296 37.9498 149.034 40.51L151.023 40.714C151.246 38.5422 152.05 36.5652 153.456 34.7666L151.88 33.5354ZM151.028 40.5935L150.937 35.6795L148.938 35.7165L149.029 40.6305L151.028 40.5935ZM150.929 35.8319C151.217 33.6996 151.85 31.686 152.829 29.786L151.051 28.87C149.967 30.974 149.265 33.207 148.947 35.5641L150.929 35.8319ZM152.834 29.7752C153.811 27.8204 155.104 26.097 156.715 24.6008L155.354 23.1352C153.568 24.7937 152.13 26.7103 151.045 28.8808L152.834 29.7752ZM156.729 24.5878C158.328 23.0452 160.218 21.8406 162.408 20.9762L161.673 19.1158C159.253 20.0714 157.138 21.4148 155.34 23.1482L156.729 24.5878ZM162.408 20.9762C164.582 20.1178 167.004 19.681 169.685 19.681V17.681C166.784 17.681 164.109 18.1542 161.673 19.1158L162.408 20.9762ZM270.701 6.032V5.032H269.701V6.032H270.701ZM280.984 6.032H281.984V5.032H280.984V6.032ZM279.437 50.713L278.499 50.3663L278.496 50.3754L278.492 50.3845L279.437 50.713ZM275.251 57.811L274.521 57.1271L275.251 57.811ZM268.79 62.634L269.228 63.5328L269.237 63.5285L269.246 63.524L268.79 62.634ZM260.6 65.273L260.419 64.2894L260.416 64.2901L260.6 65.273ZM233.391 62.634L232.935 63.524L232.944 63.5285L232.953 63.5328L233.391 62.634ZM226.93 57.811L226.189 58.4825L226.195 58.4888L226.2 58.4949L226.93 57.811ZM222.744 50.713L221.799 51.0415L221.803 51.0506L221.806 51.0596L222.744 50.713ZM221.288 6.032V5.032H220.288V6.032H221.288ZM231.662 6.032H232.662V5.032H231.662V6.032ZM234.21 50.713L233.391 51.2865L233.399 51.2982L233.407 51.3097L234.21 50.713ZM261.055 55.627L261.353 56.5815L261.055 55.627ZM268.062 50.713L268.864 51.3097L268.872 51.3L268.062 50.713ZM271.701 40.157V6.032H269.701V40.157H271.701ZM270.701 7.032H280.984V5.032H270.701V7.032ZM279.984 6.032V40.976H281.984V6.032H279.984ZM279.984 40.976C279.984 44.5861 279.481 47.71 278.499 50.3663L280.375 51.0596C281.456 48.1347 281.984 44.7672 281.984 40.976H279.984ZM278.492 50.3845C277.563 53.0576 276.236 55.2986 274.521 57.1271L275.98 58.4949C277.906 56.4407 279.37 53.9497 280.381 51.0415L278.492 50.3845ZM274.521 57.1271C272.784 58.9803 270.724 60.5197 268.334 61.744L269.246 63.524C271.83 62.2003 274.078 60.5244 275.98 58.4949L274.521 57.1271ZM268.352 61.7352C265.953 62.9052 263.311 63.7584 260.419 64.2895L260.781 66.2565C263.834 65.6956 266.652 64.7894 269.228 63.5328L268.352 61.7352ZM260.416 64.2901C257.57 64.8236 254.539 65.092 251.318 65.092V67.092C254.649 67.092 257.805 66.8144 260.784 66.2559L260.416 64.2901ZM251.318 65.092C247.974 65.092 244.818 64.8233 241.849 64.2888L241.495 66.2572C244.592 66.8147 247.867 67.092 251.318 67.092V65.092ZM241.849 64.2888C238.896 63.7573 236.225 62.9039 233.829 61.7352L232.953 63.5328C235.531 64.7907 238.381 65.6967 241.495 66.2572L241.849 64.2888ZM233.847 61.744C231.457 60.5197 229.397 58.9803 227.659 57.1271L226.2 58.4949C228.103 60.5244 230.351 62.2003 232.935 63.524L233.847 61.744ZM227.671 57.1395C226.008 55.3048 224.675 53.0533 223.682 50.3663L221.806 51.0596C222.876 53.9541 224.333 56.4345 226.189 58.4825L227.671 57.1395ZM223.688 50.3845C222.762 47.7223 222.288 44.5919 222.288 40.976H220.288C220.288 44.7615 220.784 48.1224 221.799 51.0415L223.688 50.3845ZM222.288 40.976V6.032H220.288V40.976H222.288ZM221.288 7.032H231.662V5.032H221.288V7.032ZM230.662 6.032V40.157H232.662V6.032H230.662ZM230.662 40.157C230.662 44.8667 231.525 48.6218 233.391 51.2865L235.029 50.1395C233.497 47.9508 232.662 44.6686 232.662 40.157H230.662ZM233.407 51.3097C235.301 53.8565 237.85 55.6144 241.015 56.5832L241.601 54.6708C238.82 53.8196 236.637 52.3015 235.012 50.1163L233.407 51.3097ZM241.015 56.5832C244.099 57.5271 247.536 57.992 251.318 57.992V55.992C247.698 55.992 244.462 55.5469 241.601 54.6708L241.015 56.5832ZM251.318 57.992C254.981 57.992 258.33 57.5264 261.353 56.5815L260.757 54.6725C257.956 55.5476 254.813 55.992 251.318 55.992V57.992ZM261.353 56.5815C264.459 55.6108 266.974 53.8514 268.864 51.3097L267.259 50.1163C265.631 52.3066 263.475 53.8232 260.757 54.6725L261.353 56.5815ZM268.872 51.3C270.805 48.633 271.701 44.8721 271.701 40.157H269.701C269.701 44.6632 268.837 47.9397 267.252 50.126L268.872 51.3ZM313.337 63.817L312.84 64.6853L312.849 64.6902L313.337 63.817ZM307.149 58.084L306.301 58.614L306.308 58.6265L306.317 58.6387L307.149 58.084ZM303.782 50.349L302.814 50.6014L302.815 50.6067L303.782 50.349ZM303.691 33.15L302.722 32.9026L302.719 32.9123L302.717 32.9221L303.691 33.15ZM307.058 25.688L306.247 25.1025L306.244 25.1068L307.058 25.688ZM313.246 20.592L313.676 21.4949L313.684 21.4906L313.246 20.592ZM334.267 21.775L333.748 22.6299L333.759 22.6365L334.267 21.775ZM342.366 30.147L341.493 30.6352L341.496 30.6415L342.366 30.147ZM342.275 54.808L341.408 54.3087L341.405 54.3135L342.275 54.808ZM334.176 63.089L334.672 63.9573L334.683 63.9505L334.176 63.089ZM327.806 55.718L327.322 54.8428L327.806 55.718ZM333.175 50.349L332.299 49.8653L333.175 50.349ZM331.082 31.33L330.344 32.0058L330.352 32.0134L331.082 31.33ZM311.608 28.873L311.143 27.9876L311.608 28.873ZM305.875 34.242L306.724 34.77L306.73 34.7598L305.875 34.242ZM305.693 50.258L304.817 50.7417L305.693 50.258ZM311.153 55.718L310.661 56.589L310.67 56.5938L310.678 56.5985L311.153 55.718ZM293.681 19.682V18.682H292.681V19.682H293.681ZM303.327 19.682L304.326 19.641L304.286 18.682H303.327V19.682ZM303.782 30.784H304.782V30.7635L304.781 30.743L303.782 30.784ZM303.782 83.2V84.2H304.782V83.2H303.782ZM293.681 83.2H292.681V84.2H293.681V83.2ZM322.801 65.001C319.23 65.001 316.252 64.299 313.824 62.9438L312.849 64.6902C315.638 66.247 318.97 67.001 322.801 67.001V65.001ZM313.833 62.9488C311.415 61.5672 309.469 59.7619 307.981 57.5293L306.317 58.6387C307.983 61.1381 310.162 63.1548 312.84 64.6852L313.833 62.9488ZM307.997 57.554C306.532 55.2106 305.45 52.7239 304.748 50.0913L302.815 50.6067C303.569 53.4341 304.732 56.104 306.301 58.614L307.997 57.554ZM304.749 50.0966C304.039 47.3755 303.69 44.8219 303.69 42.432H301.69C301.69 45.0168 302.068 47.7411 302.814 50.6014L304.749 50.0966ZM303.69 42.432C303.69 39.1616 304.017 36.145 304.664 33.3779L302.717 32.9221C302.03 35.8577 301.69 39.029 301.69 42.432H303.69ZM304.659 33.3974C305.361 30.6508 306.435 28.2798 307.871 26.2692L306.244 25.1068C304.647 27.3429 303.476 29.9466 302.722 32.9026L304.659 33.3974ZM307.868 26.2735C309.343 24.2321 311.272 22.6396 313.676 21.4949L312.816 19.6891C310.124 20.9711 307.927 22.7759 306.247 25.1025L307.868 26.2735ZM313.684 21.4906C316.122 20.3 319.148 19.681 322.801 19.681V17.681C318.93 17.681 315.586 18.336 312.807 19.6934L313.684 21.4906ZM322.801 19.681C326.877 19.681 330.517 20.6687 333.748 22.6298L334.786 20.9202C331.221 18.756 327.217 17.681 322.801 17.681V19.681ZM333.759 22.6365C336.997 24.5449 339.574 27.204 341.493 30.6352L343.238 29.6588C341.153 25.9314 338.33 23.0091 334.774 20.9135L333.759 22.6365ZM341.496 30.6415C343.4 33.9876 344.369 37.9071 344.369 42.432H346.369C346.369 37.6143 345.335 33.3437 343.235 29.6525L341.496 30.6415ZM344.369 42.432C344.369 46.9514 343.372 50.9002 341.408 54.3087L343.141 55.3073C345.302 51.5571 346.369 47.2552 346.369 42.432H344.369ZM341.405 54.3135C339.487 57.6846 336.911 60.3166 333.668 62.2275L334.683 63.9505C338.235 61.8574 341.058 58.9688 343.144 55.3025L341.405 54.3135ZM333.679 62.2208C330.444 64.0697 326.825 65.001 322.801 65.001V67.001C327.148 67.001 331.113 65.9909 334.672 63.9572L333.679 62.2208ZM319.798 58.629C322.974 58.629 325.815 57.9608 328.289 56.5932L327.322 54.8428C325.186 56.0232 322.688 56.629 319.798 56.629V58.629ZM328.289 56.5932C330.759 55.2282 332.685 53.3028 334.05 50.8327L332.299 49.8653C331.116 52.0059 329.462 53.6598 327.322 54.8428L328.289 56.5932ZM334.05 50.8327C335.416 48.3611 336.086 45.5518 336.086 42.432H334.086C334.086 45.2576 333.481 47.7263 332.299 49.8653L334.05 50.8327ZM336.086 42.432C336.086 37.673 334.683 33.7135 331.812 30.6466L330.352 32.0134C332.819 34.6492 334.086 38.091 334.086 42.432H336.086ZM331.819 30.6543C328.918 27.4897 324.862 25.962 319.798 25.962V27.962C324.44 27.962 327.907 29.3463 330.344 32.0057L331.819 30.6543ZM319.798 25.962C316.62 25.962 313.728 26.6306 311.143 27.9876L312.072 29.7584C314.341 28.5674 316.909 27.962 319.798 27.962V25.962ZM311.143 27.9876C308.558 29.3447 306.51 31.2603 305.019 33.7242L306.73 34.7598C308.029 32.6131 309.804 30.9493 312.072 29.7584L311.143 27.9876ZM305.025 33.7141C303.512 36.1484 302.782 39.0706 302.782 42.432H304.782C304.782 39.3627 305.446 36.8249 306.724 34.7699L305.025 33.7141ZM302.782 42.432C302.782 45.4949 303.453 48.2731 304.817 50.7417L306.568 49.7743C305.384 47.6323 304.782 45.1931 304.782 42.432H302.782ZM304.817 50.7417C306.184 53.2145 308.139 55.1663 310.661 56.589L311.644 54.847C309.434 53.6004 307.749 51.9122 306.568 49.7743L304.817 50.7417ZM310.678 56.5985C313.224 57.969 316.278 58.629 319.798 58.629V56.629C316.523 56.629 313.813 56.015 311.627 54.8375L310.678 56.5985ZM293.681 20.682H303.327V18.682H293.681V20.682ZM302.327 19.7229L302.782 30.8249L304.781 30.743L304.326 19.641L302.327 19.7229ZM302.782 30.784V83.2H304.782V30.784H302.782ZM303.782 82.2H293.681V84.2H303.782V82.2ZM294.681 83.2V19.682H292.681V83.2H294.681Z" fill="black" mask="url(#path-1-outside-1_310_511)"/>
</g>
<defs>
<filter id="filter0_d_310_511" x="0.176758" y="0.480995" width="346.691" height="84.492" filterUnits="userSpaceOnUse" color-interpolation-filters="sRGB">
<feFlood flood-opacity="0" result="BackgroundImageFix"/>
<feColorMatrix in="SourceAlpha" type="matrix" values="0 0 0 0 0 0 0 0 0 0 0 0 0 0 0 0 0 0 127 0" result="hardAlpha"/>
<feOffset dx="1" dy="1"/>
<feGaussianBlur stdDeviation="0.25"/>
<feComposite in2="hardAlpha" operator="out"/>
<feColorMatrix type="matrix" values="0 0 0 0 1 0 0 0 0 1 0 0 0 0 1 0 0 0 1 0"/>
<feBlend mode="normal" in2="BackgroundImageFix" result="effect1_dropShadow_310_511"/>
<feBlend mode="normal" in="SourceGraphic" in2="effect1_dropShadow_310_511" result="shape"/>
</filter>
</defs>
</svg>
