<svg width="379" height="56" viewBox="0 0 379 56" fill="none" xmlns="http://www.w3.org/2000/svg">
<g filter="url(#filter0_d_71_780)">
<mask id="path-1-outside-1_71_780" maskUnits="userSpaceOnUse" x="-1" y="-1" width="379" height="56" fill="black">
<rect fill="white" x="-1" y="-1" width="379" height="56"/>
<path d="M0.35 4.4H47V11.75H0.35V4.4ZM19.475 10.85H27.95V53H19.475V10.85ZM63.3664 53.825C59.9664 53.825 56.8414 53 53.9914 51.35C51.1914 49.7 48.9414 47.425 47.2414 44.525C45.5914 41.575 44.7664 38.2 44.7664 34.4C44.7664 30.5 45.6164 27.1 47.3164 24.2C49.0164 21.25 51.3164 18.95 54.2164 17.3C57.1164 15.65 60.3664 14.825 63.9664 14.825C67.9664 14.825 71.1414 15.7 73.4914 17.45C75.8414 19.2 77.5164 21.55 78.5164 24.5C79.5164 27.45 80.0164 30.75 80.0164 34.4C80.0164 36.45 79.7164 38.625 79.1164 40.925C78.5164 43.175 77.5664 45.275 76.2664 47.225C75.0164 49.175 73.3164 50.775 71.1664 52.025C69.0664 53.225 66.4664 53.825 63.3664 53.825ZM65.9164 46.925C68.7164 46.925 71.0914 46.4 73.0414 45.35C75.0414 44.25 76.5414 42.75 77.5414 40.85C78.5914 38.95 79.1164 36.8 79.1164 34.4C79.1164 31.75 78.5914 29.5 77.5414 27.65C76.4914 25.75 74.9914 24.3 73.0414 23.3C71.0914 22.25 68.7164 21.725 65.9164 21.725C61.9164 21.725 58.8164 22.9 56.6164 25.25C54.4164 27.6 53.3164 30.65 53.3164 34.4C53.3164 36.85 53.8414 39.025 54.8914 40.925C55.9914 42.825 57.4914 44.3 59.3914 45.35C61.2914 46.4 63.4664 46.925 65.9164 46.925ZM79.1164 15.65H87.5164V53H79.7164C79.7164 53 79.6664 52.525 79.5664 51.575C79.4664 50.625 79.3664 49.475 79.2664 48.125C79.1664 46.725 79.1164 45.4 79.1164 44.15V15.65ZM97.4176 0.649999H105.743V53H97.4176V0.649999ZM116.607 0.649999H124.932V53H116.607V0.649999ZM154.032 15.65L133.107 34.85L133.332 29.6L155.607 53H144.957L125.157 32.075L142.482 15.65H154.032ZM171.883 4.4H218.533V11.75H171.883V4.4ZM191.008 10.85H199.483V53H191.008V10.85ZM238.125 53.825C233.975 53.825 230.25 53.075 226.95 51.575C223.65 50.075 221.05 47.875 219.15 44.975C217.25 42.075 216.3 38.55 216.3 34.4C216.3 30.3 217.25 26.8 219.15 23.9C221.05 20.95 223.65 18.7 226.95 17.15C230.25 15.6 233.975 14.825 238.125 14.825C242.275 14.825 245.975 15.6 249.225 17.15C252.475 18.7 255.025 20.95 256.875 23.9C258.775 26.8 259.725 30.3 259.725 34.4C259.725 38.55 258.775 42.075 256.875 44.975C255.025 47.875 252.475 50.075 249.225 51.575C245.975 53.075 242.275 53.825 238.125 53.825ZM238.125 47C240.525 47 242.725 46.525 244.725 45.575C246.725 44.625 248.3 43.2 249.45 41.3C250.65 39.4 251.25 37.1 251.25 34.4C251.25 31.7 250.65 29.4 249.45 27.5C248.3 25.6 246.725 24.15 244.725 23.15C242.775 22.1 240.575 21.575 238.125 21.575C235.675 21.575 233.45 22.075 231.45 23.075C229.45 24.075 227.825 25.525 226.575 27.425C225.375 29.325 224.775 31.65 224.775 34.4C224.775 37.1 225.375 39.4 226.575 41.3C227.775 43.2 229.375 44.625 231.375 45.575C233.425 46.525 235.675 47 238.125 47ZM326.386 32.525V4.4H334.861V33.2C334.861 36.25 334.436 38.925 333.586 41.225C332.786 43.525 331.636 45.475 330.136 47.075C328.636 48.675 326.861 50 324.811 51.05C322.761 52.05 320.511 52.775 318.061 53.225C315.661 53.675 313.111 53.9 310.411 53.9C307.611 53.9 304.961 53.675 302.461 53.225C299.961 52.775 297.686 52.05 295.636 51.05C293.586 50 291.811 48.675 290.311 47.075C288.861 45.475 287.711 43.525 286.861 41.225C286.061 38.925 285.661 36.25 285.661 33.2V4.4H294.211V32.525C294.211 36.325 294.911 39.225 296.311 41.225C297.761 43.175 299.711 44.525 302.161 45.275C304.611 46.025 307.361 46.4 310.411 46.4C313.361 46.4 316.036 46.025 318.436 45.275C320.836 44.525 322.761 43.175 324.211 41.225C325.661 39.225 326.386 36.325 326.386 32.525ZM343.675 40.7H351.4C351.8 42.6 352.825 44.15 354.475 45.35C356.125 46.5 358.35 47.075 361.15 47.075C362.95 47.075 364.35 46.875 365.35 46.475C366.4 46.075 367.125 45.525 367.525 44.825C367.975 44.125 368.2 43.325 368.2 42.425C368.2 41.325 367.875 40.475 367.225 39.875C366.625 39.275 365.725 38.775 364.525 38.375C363.325 37.975 361.825 37.625 360.025 37.325C358.175 36.875 356.35 36.375 354.55 35.825C352.75 35.275 351.125 34.6 349.675 33.8C348.225 32.95 347.075 31.9 346.225 30.65C345.425 29.35 345.025 27.775 345.025 25.925C345.025 24.225 345.4 22.7 346.15 21.35C346.95 19.95 348.05 18.775 349.45 17.825C350.85 16.875 352.5 16.15 354.4 15.65C356.3 15.1 358.375 14.825 360.625 14.825C363.875 14.825 366.575 15.35 368.725 16.4C370.925 17.45 372.575 18.925 373.675 20.825C374.825 22.725 375.4 24.9 375.4 27.35H368.05C367.65 25.35 366.875 23.9 365.725 23C364.575 22.1 362.85 21.65 360.55 21.65C358.25 21.65 356.5 22.05 355.3 22.85C354.1 23.65 353.5 24.75 353.5 26.15C353.5 27.2 353.875 28.05 354.625 28.7C355.425 29.3 356.55 29.825 358 30.275C359.45 30.725 361.15 31.175 363.1 31.625C364.9 32.125 366.6 32.65 368.2 33.2C369.8 33.7 371.225 34.35 372.475 35.15C373.775 35.9 374.8 36.9 375.55 38.15C376.3 39.4 376.675 40.95 376.675 42.8C376.675 45.1 376.05 47.075 374.8 48.725C373.6 50.375 371.85 51.65 369.55 52.55C367.25 53.4 364.475 53.825 361.225 53.825C358.375 53.825 355.9 53.5 353.8 52.85C351.75 52.2 350.025 51.35 348.625 50.3C347.275 49.25 346.225 48.125 345.475 46.925C344.725 45.725 344.2 44.575 343.9 43.475C343.65 42.375 343.575 41.45 343.675 40.7Z"/>
</mask>
<path d="M0.35 4.4H47V11.75H0.35V4.4ZM19.475 10.85H27.95V53H19.475V10.85ZM63.3664 53.825C59.9664 53.825 56.8414 53 53.9914 51.35C51.1914 49.7 48.9414 47.425 47.2414 44.525C45.5914 41.575 44.7664 38.2 44.7664 34.4C44.7664 30.5 45.6164 27.1 47.3164 24.2C49.0164 21.25 51.3164 18.95 54.2164 17.3C57.1164 15.65 60.3664 14.825 63.9664 14.825C67.9664 14.825 71.1414 15.7 73.4914 17.45C75.8414 19.2 77.5164 21.55 78.5164 24.5C79.5164 27.45 80.0164 30.75 80.0164 34.4C80.0164 36.45 79.7164 38.625 79.1164 40.925C78.5164 43.175 77.5664 45.275 76.2664 47.225C75.0164 49.175 73.3164 50.775 71.1664 52.025C69.0664 53.225 66.4664 53.825 63.3664 53.825ZM65.9164 46.925C68.7164 46.925 71.0914 46.4 73.0414 45.35C75.0414 44.25 76.5414 42.75 77.5414 40.85C78.5914 38.95 79.1164 36.8 79.1164 34.4C79.1164 31.75 78.5914 29.5 77.5414 27.65C76.4914 25.75 74.9914 24.3 73.0414 23.3C71.0914 22.25 68.7164 21.725 65.9164 21.725C61.9164 21.725 58.8164 22.9 56.6164 25.25C54.4164 27.6 53.3164 30.65 53.3164 34.4C53.3164 36.85 53.8414 39.025 54.8914 40.925C55.9914 42.825 57.4914 44.3 59.3914 45.35C61.2914 46.4 63.4664 46.925 65.9164 46.925ZM79.1164 15.65H87.5164V53H79.7164C79.7164 53 79.6664 52.525 79.5664 51.575C79.4664 50.625 79.3664 49.475 79.2664 48.125C79.1664 46.725 79.1164 45.4 79.1164 44.15V15.65ZM97.4176 0.649999H105.743V53H97.4176V0.649999ZM116.607 0.649999H124.932V53H116.607V0.649999ZM154.032 15.65L133.107 34.85L133.332 29.6L155.607 53H144.957L125.157 32.075L142.482 15.65H154.032ZM171.883 4.4H218.533V11.75H171.883V4.4ZM191.008 10.85H199.483V53H191.008V10.85ZM238.125 53.825C233.975 53.825 230.25 53.075 226.95 51.575C223.65 50.075 221.05 47.875 219.15 44.975C217.25 42.075 216.3 38.55 216.3 34.4C216.3 30.3 217.25 26.8 219.15 23.9C221.05 20.95 223.65 18.7 226.95 17.15C230.25 15.6 233.975 14.825 238.125 14.825C242.275 14.825 245.975 15.6 249.225 17.15C252.475 18.7 255.025 20.95 256.875 23.9C258.775 26.8 259.725 30.3 259.725 34.4C259.725 38.55 258.775 42.075 256.875 44.975C255.025 47.875 252.475 50.075 249.225 51.575C245.975 53.075 242.275 53.825 238.125 53.825ZM238.125 47C240.525 47 242.725 46.525 244.725 45.575C246.725 44.625 248.3 43.2 249.45 41.3C250.65 39.4 251.25 37.1 251.25 34.4C251.25 31.7 250.65 29.4 249.45 27.5C248.3 25.6 246.725 24.15 244.725 23.15C242.775 22.1 240.575 21.575 238.125 21.575C235.675 21.575 233.45 22.075 231.45 23.075C229.45 24.075 227.825 25.525 226.575 27.425C225.375 29.325 224.775 31.65 224.775 34.4C224.775 37.1 225.375 39.4 226.575 41.3C227.775 43.2 229.375 44.625 231.375 45.575C233.425 46.525 235.675 47 238.125 47ZM326.386 32.525V4.4H334.861V33.2C334.861 36.25 334.436 38.925 333.586 41.225C332.786 43.525 331.636 45.475 330.136 47.075C328.636 48.675 326.861 50 324.811 51.05C322.761 52.05 320.511 52.775 318.061 53.225C315.661 53.675 313.111 53.9 310.411 53.9C307.611 53.9 304.961 53.675 302.461 53.225C299.961 52.775 297.686 52.05 295.636 51.05C293.586 50 291.811 48.675 290.311 47.075C288.861 45.475 287.711 43.525 286.861 41.225C286.061 38.925 285.661 36.25 285.661 33.2V4.4H294.211V32.525C294.211 36.325 294.911 39.225 296.311 41.225C297.761 43.175 299.711 44.525 302.161 45.275C304.611 46.025 307.361 46.4 310.411 46.4C313.361 46.4 316.036 46.025 318.436 45.275C320.836 44.525 322.761 43.175 324.211 41.225C325.661 39.225 326.386 36.325 326.386 32.525ZM343.675 40.7H351.4C351.8 42.6 352.825 44.15 354.475 45.35C356.125 46.5 358.35 47.075 361.15 47.075C362.95 47.075 364.35 46.875 365.35 46.475C366.4 46.075 367.125 45.525 367.525 44.825C367.975 44.125 368.2 43.325 368.2 42.425C368.2 41.325 367.875 40.475 367.225 39.875C366.625 39.275 365.725 38.775 364.525 38.375C363.325 37.975 361.825 37.625 360.025 37.325C358.175 36.875 356.35 36.375 354.55 35.825C352.75 35.275 351.125 34.6 349.675 33.8C348.225 32.95 347.075 31.9 346.225 30.65C345.425 29.35 345.025 27.775 345.025 25.925C345.025 24.225 345.4 22.7 346.15 21.35C346.95 19.95 348.05 18.775 349.45 17.825C350.85 16.875 352.5 16.15 354.4 15.65C356.3 15.1 358.375 14.825 360.625 14.825C363.875 14.825 366.575 15.35 368.725 16.4C370.925 17.45 372.575 18.925 373.675 20.825C374.825 22.725 375.4 24.9 375.4 27.35H368.05C367.65 25.35 366.875 23.9 365.725 23C364.575 22.1 362.85 21.65 360.55 21.65C358.25 21.65 356.5 22.05 355.3 22.85C354.1 23.65 353.5 24.75 353.5 26.15C353.5 27.2 353.875 28.05 354.625 28.7C355.425 29.3 356.55 29.825 358 30.275C359.45 30.725 361.15 31.175 363.1 31.625C364.9 32.125 366.6 32.65 368.2 33.2C369.8 33.7 371.225 34.35 372.475 35.15C373.775 35.9 374.8 36.9 375.55 38.15C376.3 39.4 376.675 40.95 376.675 42.8C376.675 45.1 376.05 47.075 374.8 48.725C373.6 50.375 371.85 51.65 369.55 52.55C367.25 53.4 364.475 53.825 361.225 53.825C358.375 53.825 355.9 53.5 353.8 52.85C351.75 52.2 350.025 51.35 348.625 50.3C347.275 49.25 346.225 48.125 345.475 46.925C344.725 45.725 344.2 44.575 343.9 43.475C343.65 42.375 343.575 41.45 343.675 40.7Z" fill="white"/>
<path d="M0.35 4.4V3.4H-0.65V4.4H0.35ZM47 4.4H48V3.4H47V4.4ZM47 11.75V12.75H48V11.75H47ZM0.35 11.75H-0.65V12.75H0.35V11.75ZM19.475 10.85V9.85H18.475V10.85H19.475ZM27.95 10.85H28.95V9.85H27.95V10.85ZM27.95 53V54H28.95V53H27.95ZM19.475 53H18.475V54H19.475V53ZM0.35 5.4H47V3.4H0.35V5.4ZM46 4.4V11.75H48V4.4H46ZM47 10.75H0.35V12.75H47V10.75ZM1.35 11.75V4.4H-0.65V11.75H1.35ZM19.475 11.85H27.95V9.85H19.475V11.85ZM26.95 10.85V53H28.95V10.85H26.95ZM27.95 52H19.475V54H27.95V52ZM20.475 53V10.85H18.475V53H20.475ZM53.9914 51.35L53.4837 52.2116L53.4904 52.2154L53.9914 51.35ZM47.2414 44.525L46.3686 45.0132L46.3736 45.022L46.3787 45.0307L47.2414 44.525ZM47.3164 24.2L48.1791 24.7057L48.1828 24.6993L47.3164 24.2ZM54.2164 17.3L53.7219 16.4308L54.2164 17.3ZM73.4914 17.45L74.0887 16.648V16.648L73.4914 17.45ZM78.5164 24.5L79.4635 24.179L78.5164 24.5ZM79.1164 40.925L80.0827 41.1827L80.084 41.1774L79.1164 40.925ZM76.2664 47.225L75.4344 46.6703L75.4294 46.6778L75.4245 46.6853L76.2664 47.225ZM71.1664 52.025L71.6626 52.8933L71.669 52.8895L71.1664 52.025ZM73.0414 45.35L73.5155 46.2305L73.5233 46.2262L73.0414 45.35ZM77.5414 40.85L76.6662 40.3663L76.6612 40.3752L76.6565 40.3843L77.5414 40.85ZM77.5414 27.65L76.6661 28.1337L76.6717 28.1436L77.5414 27.65ZM73.0414 23.3L72.5673 24.1805L72.5761 24.1852L72.5851 24.1898L73.0414 23.3ZM56.6164 25.25L57.3464 25.9334V25.9334L56.6164 25.25ZM54.8914 40.925L54.0162 41.4087L54.021 41.4174L54.026 41.426L54.8914 40.925ZM59.3914 45.35L58.9077 46.2252L59.3914 45.35ZM79.1164 15.65V14.65H78.1164V15.65H79.1164ZM87.5164 15.65H88.5164V14.65H87.5164V15.65ZM87.5164 53V54H88.5164V53H87.5164ZM79.7164 53L78.7219 53.1047L78.8161 54H79.7164V53ZM79.5664 51.575L78.5719 51.6797V51.6797L79.5664 51.575ZM79.2664 48.125L78.2689 48.1962L78.2691 48.1989L79.2664 48.125ZM63.3664 52.825C60.1364 52.825 57.1851 52.0435 54.4924 50.4846L53.4904 52.2154C56.4977 53.9565 59.7964 54.825 63.3664 54.825V52.825ZM54.4991 50.4885C51.851 48.9279 49.7211 46.7776 48.1041 44.0193L46.3787 45.0307C48.1617 48.0724 50.5319 50.4721 53.4837 52.2115L54.4991 50.4885ZM48.1142 44.0368C46.5576 41.2538 45.7664 38.0507 45.7664 34.4H43.7664C43.7664 38.3493 44.6253 41.8962 46.3686 45.0132L48.1142 44.0368ZM45.7664 34.4C45.7664 30.6489 46.5826 27.4292 48.1791 24.7057L46.4537 23.6943C44.6503 26.7708 43.7664 30.3511 43.7664 34.4H45.7664ZM48.1828 24.6993C49.7959 21.9002 51.9689 19.7293 54.7109 18.1692L53.7219 16.4308C50.6639 18.1707 48.2369 20.5998 46.45 23.7007L48.1828 24.6993ZM54.7109 18.1692C57.4484 16.6116 60.5257 15.825 63.9664 15.825V13.825C60.2071 13.825 56.7844 14.6884 53.7219 16.4308L54.7109 18.1692ZM63.9664 15.825C67.8285 15.825 70.7699 16.6701 72.8941 18.252L74.0887 16.648C71.5129 14.7299 68.1043 13.825 63.9664 13.825V15.825ZM72.8941 18.252C75.071 19.8731 76.6301 22.0504 77.5693 24.821L79.4635 24.179C78.4027 21.0496 76.6119 18.5269 74.0887 16.648L72.8941 18.252ZM77.5693 24.821C78.5289 27.6516 79.0164 30.8409 79.0164 34.4H81.0164C81.0164 30.6591 80.504 27.2484 79.4635 24.179L77.5693 24.821ZM79.0164 34.4C79.0164 36.3526 78.7306 38.4422 78.1488 40.6726L80.084 41.1774C80.7022 38.8078 81.0164 36.5474 81.0164 34.4H79.0164ZM78.1502 40.6673C77.5785 42.811 76.6741 44.8107 75.4344 46.6703L77.0985 47.7797C78.4587 45.7393 79.4543 43.539 80.0826 41.1827L78.1502 40.6673ZM75.4245 46.6853C74.2665 48.4919 72.6869 49.9843 70.6638 51.1605L71.669 52.8895C73.9459 51.5657 75.7663 49.8581 77.1083 47.7647L75.4245 46.6853ZM70.6703 51.1568C68.7582 52.2494 66.3404 52.825 63.3664 52.825V54.825C66.5924 54.825 69.3746 54.2006 71.6625 52.8932L70.6703 51.1568ZM65.9164 47.925C68.8391 47.925 71.3863 47.377 73.5155 46.2305L72.5673 44.4695C70.7965 45.423 68.5937 45.925 65.9164 45.925V47.925ZM73.5233 46.2262C75.6836 45.0381 77.3292 43.4002 78.4263 41.3157L76.6565 40.3843C75.7536 42.0998 74.3992 43.4619 72.5595 44.4738L73.5233 46.2262ZM78.4166 41.3337C79.5569 39.2704 80.1164 36.9509 80.1164 34.4H78.1164C78.1164 36.6491 77.6259 38.6296 76.6662 40.3663L78.4166 41.3337ZM80.1164 34.4C80.1164 31.619 79.5651 29.1896 78.4111 27.1564L76.6717 28.1436C77.6177 29.8104 78.1164 31.881 78.1164 34.4H80.1164ZM78.4166 27.1663C77.2695 25.0905 75.6228 23.5 73.4977 22.4102L72.5851 24.1898C74.36 25.1 75.7133 26.4095 76.6662 28.1337L78.4166 27.1663ZM73.5155 22.4195C71.3863 21.273 68.8391 20.725 65.9164 20.725V22.725C68.5937 22.725 70.7965 23.227 72.5673 24.1805L73.5155 22.4195ZM65.9164 20.725C61.7115 20.725 58.3195 21.9676 55.8864 24.5666L57.3464 25.9334C59.3133 23.8324 62.1213 22.725 65.9164 22.725V20.725ZM55.8864 24.5666C53.4846 27.1321 52.3164 30.4409 52.3164 34.4H54.3164C54.3164 30.859 55.3482 28.0679 57.3464 25.9334L55.8864 24.5666ZM52.3164 34.4C52.3164 36.9971 52.8743 39.3424 54.0162 41.4087L55.7666 40.4413C54.8085 38.7076 54.3164 36.7029 54.3164 34.4H52.3164ZM54.026 41.426C55.2158 43.4812 56.847 45.0864 58.9077 46.2252L59.8751 44.4748C58.1358 43.5136 56.767 42.1688 55.7568 40.424L54.026 41.426ZM58.9077 46.2252C60.974 47.3671 63.3193 47.925 65.9164 47.925V45.925C63.6135 45.925 61.6088 45.4329 59.8751 44.4748L58.9077 46.2252ZM79.1164 16.65H87.5164V14.65H79.1164V16.65ZM86.5164 15.65V53H88.5164V15.65H86.5164ZM87.5164 52H79.7164V54H87.5164V52ZM79.7164 53C80.7109 52.8953 80.7109 52.8953 80.7109 52.8953C80.7109 52.8953 80.7109 52.8953 80.7109 52.8953C80.7109 52.8953 80.7109 52.8953 80.7109 52.8953C80.7109 52.8953 80.7109 52.8952 80.7109 52.8952C80.7109 52.8952 80.7109 52.8952 80.7109 52.8952C80.7109 52.8952 80.7109 52.8951 80.7109 52.8951C80.7109 52.8951 80.7109 52.8951 80.7109 52.8951C80.7109 52.895 80.7109 52.895 80.7109 52.895C80.7109 52.8949 80.7109 52.8949 80.7109 52.8949C80.7109 52.8948 80.7109 52.8948 80.7109 52.8948C80.7109 52.8947 80.7108 52.8947 80.7108 52.8947C80.7108 52.8946 80.7108 52.8946 80.7108 52.8945C80.7108 52.8945 80.7108 52.8944 80.7108 52.8944C80.7108 52.8943 80.7108 52.8943 80.7108 52.8942C80.7108 52.8942 80.7108 52.8941 80.7108 52.8941C80.7108 52.894 80.7108 52.894 80.7108 52.8939C80.7108 52.8939 80.7108 52.8938 80.7107 52.8937C80.7107 52.8937 80.7107 52.8936 80.7107 52.8936C80.7107 52.8935 80.7107 52.8934 80.7107 52.8933C80.7107 52.8933 80.7107 52.8932 80.7107 52.8931C80.7107 52.8931 80.7107 52.893 80.7107 52.8929C80.7107 52.8928 80.7106 52.8928 80.7106 52.8927C80.7106 52.8926 80.7106 52.8925 80.7106 52.8924C80.7106 52.8924 80.7106 52.8923 80.7106 52.8922C80.7106 52.8921 80.7106 52.892 80.7106 52.8919C80.7105 52.8918 80.7105 52.8917 80.7105 52.8916C80.7105 52.8915 80.7105 52.8914 80.7105 52.8913C80.7105 52.8913 80.7105 52.8912 80.7105 52.8911C80.7105 52.891 80.7104 52.8908 80.7104 52.8907C80.7104 52.8906 80.7104 52.8905 80.7104 52.8904C80.7104 52.8903 80.7104 52.8902 80.7104 52.8901C80.7104 52.89 80.7103 52.8899 80.7103 52.8897C80.7103 52.8896 80.7103 52.8895 80.7103 52.8894C80.7103 52.8893 80.7103 52.8892 80.7103 52.889C80.7102 52.8889 80.7102 52.8888 80.7102 52.8887C80.7102 52.8885 80.7102 52.8884 80.7102 52.8883C80.7102 52.8881 80.7101 52.888 80.7101 52.8879C80.7101 52.8877 80.7101 52.8876 80.7101 52.8875C80.7101 52.8873 80.7101 52.8872 80.71 52.887C80.71 52.8869 80.71 52.8868 80.71 52.8866C80.71 52.8865 80.71 52.8863 80.71 52.8862C80.7099 52.886 80.7099 52.8859 80.7099 52.8857C80.7099 52.8856 80.7099 52.8854 80.7099 52.8853C80.7098 52.8851 80.7098 52.8849 80.7098 52.8848C80.7098 52.8846 80.7098 52.8845 80.7098 52.8843C80.7097 52.8841 80.7097 52.884 80.7097 52.8838C80.7097 52.8836 80.7097 52.8835 80.7096 52.8833C80.7096 52.8831 80.7096 52.883 80.7096 52.8828C80.7096 52.8826 80.7096 52.8824 80.7095 52.8823C80.7095 52.8821 80.7095 52.8819 80.7095 52.8817C80.7095 52.8815 80.7094 52.8814 80.7094 52.8812C80.7094 52.881 80.7094 52.8808 80.7094 52.8806C80.7094 52.8804 80.7093 52.8802 80.7093 52.88C80.7093 52.8799 80.7093 52.8797 80.7092 52.8795C80.7092 52.8793 80.7092 52.8791 80.7092 52.8789C80.7092 52.8787 80.7091 52.8785 80.7091 52.8783C80.7091 52.8781 80.7091 52.8779 80.7091 52.8777C80.709 52.8774 80.709 52.8772 80.709 52.877C80.709 52.8768 80.7089 52.8766 80.7089 52.8764C80.7089 52.8762 80.7089 52.876 80.7089 52.8757C80.7088 52.8755 80.7088 52.8753 80.7088 52.8751C80.7088 52.8749 80.7087 52.8746 80.7087 52.8744C80.7087 52.8742 80.7087 52.874 80.7086 52.8737C80.7086 52.8735 80.7086 52.8733 80.7086 52.873C80.7085 52.8728 80.7085 52.8726 80.7085 52.8723C80.7085 52.8721 80.7085 52.8719 80.7084 52.8716C80.7084 52.8714 80.7084 52.8712 80.7083 52.8709C80.7083 52.8707 80.7083 52.8704 80.7083 52.8702C80.7082 52.8699 80.7082 52.8697 80.7082 52.8694C80.7082 52.8692 80.7081 52.8689 80.7081 52.8687C80.7081 52.8684 80.7081 52.8682 80.708 52.8679C80.708 52.8677 80.708 52.8674 80.7079 52.8671C80.7079 52.8669 80.7079 52.8666 80.7079 52.8663C80.7078 52.8661 80.7078 52.8658 80.7078 52.8655C80.7078 52.8653 80.7077 52.865 80.7077 52.8647C80.7077 52.8645 80.7076 52.8642 80.7076 52.8639C80.7076 52.8636 80.7076 52.8634 80.7075 52.8631C80.7075 52.8628 80.7075 52.8625 80.7074 52.8622C80.7074 52.862 80.7074 52.8617 80.7073 52.8614C80.7073 52.8611 80.7073 52.8608 80.7073 52.8605C80.7072 52.8602 80.7072 52.8599 80.7072 52.8596C80.7071 52.8594 80.7071 52.8591 80.7071 52.8588C80.707 52.8585 80.707 52.8582 80.707 52.8579C80.7069 52.8576 80.7069 52.8573 80.7069 52.857C80.7068 52.8567 80.7068 52.8563 80.7068 52.856C80.7067 52.8557 80.7067 52.8554 80.7067 52.8551C80.7066 52.8548 80.7066 52.8545 80.7066 52.8542C80.7066 52.8539 80.7065 52.8535 80.7065 52.8532C80.7065 52.8529 80.7064 52.8526 80.7064 52.8523C80.7063 52.8519 80.7063 52.8516 80.7063 52.8513C80.7062 52.851 80.7062 52.8506 80.7062 52.8503C80.7061 52.85 80.7061 52.8496 80.7061 52.8493C80.706 52.849 80.706 52.8486 80.706 52.8483C80.7059 52.848 80.7059 52.8476 80.7059 52.8473C80.7058 52.8469 80.7058 52.8466 80.7057 52.8463C80.7057 52.8459 80.7057 52.8456 80.7056 52.8452C80.7056 52.8449 80.7056 52.8445 80.7055 52.8442C80.7055 52.8438 80.7055 52.8435 80.7054 52.8431C80.7054 52.8428 80.7053 52.8424 80.7053 52.842C80.7053 52.8417 80.7052 52.8413 80.7052 52.841C80.7052 52.8406 80.7051 52.8402 80.7051 52.8399C80.705 52.8395 80.705 52.8391 80.705 52.8388C80.7049 52.8384 80.7049 52.838 80.7048 52.8376C80.7048 52.8373 80.7048 52.8369 80.7047 52.8365C80.7047 52.8361 80.7046 52.8358 80.7046 52.8354C80.7046 52.835 80.7045 52.8346 80.7045 52.8342C80.7044 52.8339 80.7044 52.8335 80.7044 52.8331C80.7043 52.8327 80.7043 52.8323 80.7042 52.8319C80.7042 52.8315 80.7042 52.8311 80.7041 52.8307C80.7041 52.8303 80.704 52.8299 80.704 52.8295C80.7039 52.8291 80.7039 52.8287 80.7039 52.8283C80.7038 52.8279 80.7038 52.8275 80.7037 52.8271C80.7037 52.8267 80.7037 52.8263 80.7036 52.8259C80.7036 52.8255 80.7035 52.8251 80.7035 52.8247C80.7034 52.8243 80.7034 52.8238 80.7033 52.8234C80.7033 52.823 80.7033 52.8226 80.7032 52.8222C80.7032 52.8217 80.7031 52.8213 80.7031 52.8209C80.703 52.8205 80.703 52.8201 80.7029 52.8196C80.7029 52.8192 80.7029 52.8188 80.7028 52.8183C80.7028 52.8179 80.7027 52.8175 80.7027 52.817C80.7026 52.8166 80.7026 52.8162 80.7025 52.8157C80.7025 52.8153 80.7024 52.8148 80.7024 52.8144C80.7024 52.814 80.7023 52.8135 80.7023 52.8131C80.7022 52.8126 80.7022 52.8122 80.7021 52.8117C80.7021 52.8113 80.702 52.8108 80.702 52.8104C80.7019 52.8099 80.7019 52.8095 80.7018 52.809C80.7018 52.8086 80.7017 52.8081 80.7017 52.8076C80.7016 52.8072 80.7016 52.8067 80.7015 52.8063C80.7015 52.8058 80.7014 52.8053 80.7014 52.8049C80.7013 52.8044 80.7013 52.8039 80.7012 52.8034C80.7012 52.803 80.7011 52.8025 80.7011 52.802C80.701 52.8016 80.701 52.8011 80.7009 52.8006C80.7009 52.8001 80.7008 52.7996 80.7008 52.7992C80.7007 52.7987 80.7007 52.7982 80.7006 52.7977C80.7006 52.7972 80.7005 52.7967 80.7005 52.7962C80.7004 52.7958 80.7004 52.7953 80.7003 52.7948C80.7003 52.7943 80.7002 52.7938 80.7002 52.7933C80.7001 52.7928 80.7001 52.7923 80.7 52.7918C80.7 52.7913 80.6999 52.7908 80.6999 52.7903C80.6998 52.7898 80.6998 52.7893 80.6997 52.7888C80.6996 52.7883 80.6996 52.7878 80.6995 52.7872C80.6995 52.7867 80.6994 52.7862 80.6994 52.7857C80.6993 52.7852 80.6993 52.7847 80.6992 52.7842C80.6992 52.7836 80.6991 52.7831 80.6991 52.7826C80.699 52.7821 80.6989 52.7815 80.6989 52.781C80.6988 52.7805 80.6988 52.78 80.6987 52.7794C80.6987 52.7789 80.6986 52.7784 80.6985 52.7778C80.6985 52.7773 80.6984 52.7768 80.6984 52.7762C80.6983 52.7757 80.6983 52.7752 80.6982 52.7746C80.6982 52.7741 80.6981 52.7736 80.698 52.773C80.698 52.7725 80.6979 52.7719 80.6979 52.7714C80.6978 52.7708 80.6978 52.7703 80.6977 52.7697C80.6976 52.7692 80.6976 52.7686 80.6975 52.7681C80.6975 52.7675 80.6974 52.767 80.6973 52.7664C80.6973 52.7658 80.6972 52.7653 80.6972 52.7647C80.6971 52.7642 80.697 52.7636 80.697 52.763C80.6969 52.7625 80.6969 52.7619 80.6968 52.7613C80.6967 52.7608 80.6967 52.7602 80.6966 52.7596C80.6966 52.759 80.6965 52.7585 80.6964 52.7579C80.6964 52.7573 80.6963 52.7567 80.6963 52.7562C80.6962 52.7556 80.6961 52.755 80.6961 52.7544C80.696 52.7538 80.696 52.7532 80.6959 52.7527C80.6958 52.7521 80.6958 52.7515 80.6957 52.7509C80.6956 52.7503 80.6956 52.7497 80.6955 52.7491C80.6955 52.7485 80.6954 52.7479 80.6953 52.7473C80.6953 52.7467 80.6952 52.7461 80.6951 52.7455C80.6951 52.7449 80.695 52.7443 80.695 52.7437C80.6949 52.7431 80.6948 52.7425 80.6948 52.7419C80.6947 52.7413 80.6946 52.7407 80.6946 52.7401C80.6945 52.7394 80.6944 52.7388 80.6944 52.7382C80.6943 52.7376 80.6942 52.737 80.6942 52.7364C80.6941 52.7357 80.6941 52.7351 80.694 52.7345C80.6939 52.7339 80.6939 52.7332 80.6938 52.7326C80.6937 52.732 80.6937 52.7314 80.6936 52.7307C80.6935 52.7301 80.6935 52.7295 80.6934 52.7288C80.6933 52.7282 80.6933 52.7276 80.6932 52.7269C80.6931 52.7263 80.6931 52.7257 80.693 52.725C80.6929 52.7244 80.6928 52.7237 80.6928 52.7231C80.6927 52.7224 80.6926 52.7218 80.6926 52.7211C80.6925 52.7205 80.6924 52.7198 80.6924 52.7192C80.6923 52.7185 80.6922 52.7179 80.6922 52.7172C80.6921 52.7166 80.692 52.7159 80.692 52.7153C80.6919 52.7146 80.6918 52.7139 80.6917 52.7133C80.6917 52.7126 80.6916 52.7119 80.6915 52.7113C80.6915 52.7106 80.6914 52.7099 80.6913 52.7093C80.6913 52.7086 80.6912 52.7079 80.6911 52.7073C80.691 52.7066 80.691 52.7059 80.6909 52.7052C80.6908 52.7045 80.6908 52.7039 80.6907 52.7032C80.6906 52.7025 80.6905 52.7018 80.6905 52.7011C80.6904 52.7005 80.6903 52.6998 80.6903 52.6991C80.6902 52.6984 80.6901 52.6977 80.69 52.697C80.69 52.6963 80.6899 52.6956 80.6898 52.6949C80.6897 52.6942 80.6897 52.6935 80.6896 52.6928C80.6895 52.6921 80.6895 52.6914 80.6894 52.6907C80.6893 52.69 80.6892 52.6893 80.6892 52.6886C80.6891 52.6879 80.689 52.6872 80.6889 52.6865C80.6889 52.6858 80.6888 52.6851 80.6887 52.6843C80.6886 52.6836 80.6886 52.6829 80.6885 52.6822C80.6884 52.6815 80.6883 52.6808 80.6883 52.68C80.6882 52.6793 80.6881 52.6786 80.688 52.6779C80.688 52.6772 80.6879 52.6764 80.6878 52.6757C80.6877 52.675 80.6876 52.6742 80.6876 52.6735C80.6875 52.6728 80.6874 52.672 80.6873 52.6713C80.6873 52.6706 80.6872 52.6698 80.6871 52.6691C80.687 52.6684 80.6869 52.6676 80.6869 52.6669C80.6868 52.6661 80.6867 52.6654 80.6866 52.6646C80.6866 52.6639 80.6865 52.6631 80.6864 52.6624C80.6863 52.6616 80.6862 52.6609 80.6862 52.6601C80.6861 52.6594 80.686 52.6586 80.6859 52.6579C80.6858 52.6571 80.6858 52.6563 80.6857 52.6556C80.6856 52.6548 80.6855 52.6541 80.6854 52.6533C80.6854 52.6525 80.6853 52.6518 80.6852 52.651C80.6851 52.6502 80.685 52.6495 80.685 52.6487C80.6849 52.6479 80.6848 52.6471 80.6847 52.6464C80.6846 52.6456 80.6845 52.6448 80.6845 52.644C80.6844 52.6433 80.6843 52.6425 80.6842 52.6417C80.6841 52.6409 80.6841 52.6401 80.684 52.6393C80.6839 52.6386 80.6838 52.6378 80.6837 52.637C80.6836 52.6362 80.6836 52.6354 80.6835 52.6346C80.6834 52.6338 80.6833 52.633 80.6832 52.6322C80.6831 52.6314 80.6831 52.6306 80.683 52.6298C80.6829 52.629 80.6828 52.6282 80.6827 52.6274C80.6826 52.6266 80.6825 52.6258 80.6825 52.625C80.6824 52.6242 80.6823 52.6234 80.6822 52.6226C80.6821 52.6217 80.682 52.6209 80.6819 52.6201C80.6819 52.6193 80.6818 52.6185 80.6817 52.6177C80.6816 52.6169 80.6815 52.616 80.6814 52.6152C80.6813 52.6144 80.6813 52.6136 80.6812 52.6127C80.6811 52.6119 80.681 52.6111 80.6809 52.6102C80.6808 52.6094 80.6807 52.6086 80.6806 52.6077C80.6806 52.6069 80.6805 52.6061 80.6804 52.6052C80.6803 52.6044 80.6802 52.6036 80.6801 52.6027C80.68 52.6019 80.6799 52.601 80.6798 52.6002C80.6798 52.5994 80.6797 52.5985 80.6796 52.5977C80.6795 52.5968 80.6794 52.596 80.6793 52.5951C80.6792 52.5943 80.6791 52.5934 80.679 52.5926C80.679 52.5917 80.6789 52.5908 80.6788 52.59C80.6787 52.5891 80.6786 52.5883 80.6785 52.5874C80.6784 52.5865 80.6783 52.5857 80.6782 52.5848C80.6781 52.5839 80.678 52.5831 80.678 52.5822C80.6779 52.5813 80.6778 52.5805 80.6777 52.5796C80.6776 52.5787 80.6775 52.5778 80.6774 52.577C80.6773 52.5761 80.6772 52.5752 80.6771 52.5743C80.677 52.5734 80.6769 52.5726 80.6768 52.5717C80.6768 52.5708 80.6767 52.5699 80.6766 52.569C80.6765 52.5681 80.6764 52.5672 80.6763 52.5664C80.6762 52.5655 80.6761 52.5646 80.676 52.5637C80.6759 52.5628 80.6758 52.5619 80.6757 52.561C80.6756 52.5601 80.6755 52.5592 80.6754 52.5583C80.6753 52.5574 80.6752 52.5565 80.6751 52.5556C80.6751 52.5547 80.675 52.5538 80.6749 52.5528C80.6748 52.5519 80.6747 52.551 80.6746 52.5501C80.6745 52.5492 80.6744 52.5483 80.6743 52.5474C80.6742 52.5464 80.6741 52.5455 80.674 52.5446C80.6739 52.5437 80.6738 52.5428 80.6737 52.5418C80.6736 52.5409 80.6735 52.54 80.6734 52.5391C80.6733 52.5381 80.6732 52.5372 80.6731 52.5363C80.673 52.5353 80.6729 52.5344 80.6728 52.5335C80.6727 52.5325 80.6726 52.5316 80.6725 52.5307C80.6724 52.5297 80.6723 52.5288 80.6722 52.5278C80.6721 52.5269 80.672 52.526 80.6719 52.525C80.6718 52.5241 80.6717 52.5231 80.6716 52.5222C80.6715 52.5212 80.6714 52.5203 80.6713 52.5193C80.6712 52.5184 80.6711 52.5174 80.671 52.5164C80.6709 52.5155 80.6708 52.5145 80.6707 52.5136C80.6706 52.5126 80.6705 52.5117 80.6704 52.5107C80.6703 52.5097 80.6702 52.5088 80.6701 52.5078C80.67 52.5068 80.6699 52.5059 80.6698 52.5049C80.6697 52.5039 80.6696 52.5029 80.6695 52.502C80.6694 52.501 80.6693 52.5 80.6692 52.499C80.6691 52.4981 80.669 52.4971 80.6689 52.4961C80.6688 52.4951 80.6687 52.4941 80.6686 52.4931C80.6685 52.4922 80.6684 52.4912 80.6683 52.4902C80.6682 52.4892 80.6681 52.4882 80.668 52.4872C80.6678 52.4862 80.6677 52.4852 80.6676 52.4842C80.6675 52.4832 80.6674 52.4822 80.6673 52.4812C80.6672 52.4802 80.6671 52.4792 80.667 52.4782C80.6669 52.4772 80.6668 52.4762 80.6667 52.4752C80.6666 52.4742 80.6665 52.4732 80.6664 52.4722C80.6663 52.4712 80.6662 52.4702 80.6661 52.4691C80.6659 52.4681 80.6658 52.4671 80.6657 52.4661C80.6656 52.4651 80.6655 52.4641 80.6654 52.463C80.6653 52.462 80.6652 52.461 80.6651 52.46C80.665 52.4589 80.6649 52.4579 80.6648 52.4569C80.6646 52.4558 80.6645 52.4548 80.6644 52.4538C80.6643 52.4527 80.6642 52.4517 80.6641 52.4507C80.664 52.4496 80.6639 52.4486 80.6638 52.4476C80.6637 52.4465 80.6636 52.4455 80.6635 52.4444C80.6633 52.4434 80.6632 52.4423 80.6631 52.4413C80.663 52.4403 80.6629 52.4392 80.6628 52.4381C80.6627 52.4371 80.6626 52.4361 80.6625 52.435C80.6623 52.4339 80.6622 52.4329 80.6621 52.4318C80.662 52.4308 80.6619 52.4297 80.6618 52.4286C80.6617 52.4276 80.6616 52.4265 80.6615 52.4255C80.6613 52.4244 80.6612 52.4233 80.6611 52.4222C80.661 52.4212 80.6609 52.4201 80.6608 52.419C80.6607 52.418 80.6606 52.4169 80.6604 52.4158C80.6603 52.4147 80.6602 52.4137 80.6601 52.4126C80.66 52.4115 80.6599 52.4104 80.6598 52.4093C80.6596 52.4082 80.6595 52.4072 80.6594 52.4061C80.6593 52.405 80.6592 52.4039 80.6591 52.4028C80.659 52.4017 80.6588 52.4006 80.6587 52.3995C80.6586 52.3984 80.6585 52.3973 80.6584 52.3962C80.6583 52.3951 80.6581 52.3941 80.658 52.3929C80.6579 52.3918 80.6578 52.3907 80.6577 52.3896C80.6576 52.3885 80.6574 52.3874 80.6573 52.3863C80.6572 52.3852 80.6571 52.3841 80.657 52.383C80.6569 52.3819 80.6567 52.3808 80.6566 52.3796C80.6565 52.3785 80.6564 52.3774 80.6563 52.3763C80.6562 52.3752 80.656 52.374 80.6559 52.3729C80.6558 52.3718 80.6557 52.3707 80.6556 52.3695C80.6554 52.3684 80.6553 52.3673 80.6552 52.3662C80.6551 52.365 80.655 52.3639 80.6549 52.3628C80.6547 52.3616 80.6546 52.3605 80.6545 52.3594C80.6544 52.3582 80.6543 52.3571 80.6541 52.3559C80.654 52.3548 80.6539 52.3536 80.6538 52.3525C80.6537 52.3514 80.6535 52.3502 80.6534 52.3491C80.6533 52.3479 80.6532 52.3468 80.653 52.3456C80.6529 52.3445 80.6528 52.3433 80.6527 52.3421C80.6526 52.341 80.6524 52.3398 80.6523 52.3387C80.6522 52.3375 80.6521 52.3363 80.652 52.3352C80.6518 52.334 80.6517 52.3329 80.6516 52.3317C80.6515 52.3305 80.6513 52.3294 80.6512 52.3282C80.6511 52.327 80.651 52.3258 80.6508 52.3247C80.6507 52.3235 80.6506 52.3223 80.6505 52.3211C80.6504 52.32 80.6502 52.3188 80.6501 52.3176C80.65 52.3164 80.6498 52.3152 80.6497 52.3141C80.6496 52.3129 80.6495 52.3117 80.6494 52.3105C80.6492 52.3093 80.6491 52.3081 80.649 52.3069C80.6488 52.3057 80.6487 52.3045 80.6486 52.3033C80.6485 52.3021 80.6483 52.3009 80.6482 52.2997C80.6481 52.2985 80.648 52.2973 80.6478 52.2961C80.6477 52.2949 80.6476 52.2937 80.6475 52.2925C80.6473 52.2913 80.6472 52.2901 80.6471 52.2889C80.6469 52.2877 80.6468 52.2865 80.6467 52.2853C80.6466 52.284 80.6464 52.2828 80.6463 52.2816C80.6462 52.2804 80.6461 52.2792 80.6459 52.278C80.6458 52.2767 80.6457 52.2755 80.6455 52.2743C80.6454 52.2731 80.6453 52.2718 80.6452 52.2706C80.645 52.2694 80.6449 52.2682 80.6448 52.2669C80.6446 52.2657 80.6445 52.2645 80.6444 52.2632C80.6442 52.262 80.6441 52.2607 80.644 52.2595C80.6439 52.2583 80.6437 52.257 80.6436 52.2558C80.6435 52.2545 80.6433 52.2533 80.6432 52.252C80.6431 52.2508 80.6429 52.2495 80.6428 52.2483C80.6427 52.247 80.6425 52.2458 80.6424 52.2445C80.6423 52.2433 80.6421 52.242 80.642 52.2408C80.6419 52.2395 80.6417 52.2383 80.6416 52.237C80.6415 52.2357 80.6413 52.2345 80.6412 52.2332C80.6411 52.2319 80.641 52.2307 80.6408 52.2294C80.6407 52.2281 80.6405 52.2269 80.6404 52.2256C80.6403 52.2243 80.6402 52.2231 80.64 52.2218C80.6399 52.2205 80.6397 52.2192 80.6396 52.2179C80.6395 52.2167 80.6393 52.2154 80.6392 52.2141C80.6391 52.2128 80.6389 52.2115 80.6388 52.2103C80.6387 52.209 80.6385 52.2077 80.6384 52.2064C80.6383 52.2051 80.6381 52.2038 80.638 52.2025C80.6378 52.2012 80.6377 52.1999 80.6376 52.1986C80.6374 52.1973 80.6373 52.196 80.6372 52.1947C80.637 52.1934 80.6369 52.1921 80.6368 52.1908C80.6366 52.1895 80.6365 52.1882 80.6363 52.1869C80.6362 52.1856 80.6361 52.1843 80.6359 52.183C80.6358 52.1817 80.6357 52.1803 80.6355 52.179C80.6354 52.1777 80.6352 52.1764 80.6351 52.1751C80.635 52.1738 80.6348 52.1724 80.6347 52.1711C80.6345 52.1698 80.6344 52.1685 80.6343 52.1671C80.6341 52.1658 80.634 52.1645 80.6338 52.1632C80.6337 52.1618 80.6336 52.1605 80.6334 52.1592C80.6333 52.1578 80.6331 52.1565 80.633 52.1552C80.6329 52.1538 80.6327 52.1525 80.6326 52.1511C80.6324 52.1498 80.6323 52.1485 80.6322 52.1471C80.632 52.1458 80.6319 52.1444 80.6317 52.1431C80.6316 52.1417 80.6314 52.1404 80.6313 52.139C80.6312 52.1377 80.631 52.1363 80.6309 52.135C80.6307 52.1336 80.6306 52.1322 80.6304 52.1309C80.6303 52.1295 80.6302 52.1282 80.63 52.1268C80.6299 52.1254 80.6297 52.1241 80.6296 52.1227C80.6294 52.1213 80.6293 52.12 80.6292 52.1186C80.629 52.1172 80.6289 52.1159 80.6287 52.1145C80.6286 52.1131 80.6284 52.1117 80.6283 52.1104C80.6281 52.109 80.628 52.1076 80.6279 52.1062C80.6277 52.1048 80.6276 52.1035 80.6274 52.1021C80.6273 52.1007 80.6271 52.0993 80.627 52.0979C80.6268 52.0965 80.6267 52.0951 80.6265 52.0938C80.6264 52.0924 80.6262 52.091 80.6261 52.0896C80.626 52.0882 80.6258 52.0868 80.6257 52.0854C80.6255 52.084 80.6254 52.0826 80.6252 52.0812C80.6251 52.0798 80.6249 52.0784 80.6248 52.077C80.6246 52.0756 80.6245 52.0742 80.6243 52.0727C80.6242 52.0713 80.624 52.0699 80.6239 52.0685C80.6237 52.0671 80.6236 52.0657 80.6234 52.0643C80.6233 52.0628 80.6231 52.0614 80.623 52.06C80.6228 52.0586 80.6227 52.0572 80.6225 52.0557C80.6224 52.0543 80.6222 52.0529 80.6221 52.0515C80.6219 52.05 80.6218 52.0486 80.6216 52.0472C80.6215 52.0457 80.6213 52.0443 80.6212 52.0429C80.621 52.0414 80.6209 52.04 80.6207 52.0386C80.6206 52.0371 80.6204 52.0357 80.6203 52.0342C80.6201 52.0328 80.62 52.0313 80.6198 52.0299C80.6197 52.0285 80.6195 52.027 80.6194 52.0256C80.6192 52.0241 80.6191 52.0227 80.6189 52.0212C80.6188 52.0198 80.6186 52.0183 80.6184 52.0168C80.6183 52.0154 80.6181 52.0139 80.618 52.0125C80.6178 52.011 80.6177 52.0095 80.6175 52.0081C80.6174 52.0066 80.6172 52.0051 80.6171 52.0037C80.6169 52.0022 80.6167 52.0007 80.6166 51.9993C80.6164 51.9978 80.6163 51.9963 80.6161 51.9949C80.616 51.9934 80.6158 51.9919 80.6157 51.9904C80.6155 51.9889 80.6153 51.9875 80.6152 51.986C80.615 51.9845 80.6149 51.983 80.6147 51.9815C80.6146 51.98 80.6144 51.9786 80.6143 51.9771C80.6141 51.9756 80.6139 51.9741 80.6138 51.9726C80.6136 51.9711 80.6135 51.9696 80.6133 51.9681C80.6132 51.9666 80.613 51.9651 80.6128 51.9636C80.6127 51.9621 80.6125 51.9606 80.6124 51.9591C80.6122 51.9576 80.612 51.9561 80.6119 51.9546C80.6117 51.9531 80.6116 51.9516 80.6114 51.9501C80.6113 51.9486 80.6111 51.947 80.6109 51.9455C80.6108 51.944 80.6106 51.9425 80.6105 51.941C80.6103 51.9395 80.6101 51.9379 80.61 51.9364C80.6098 51.9349 80.6097 51.9334 80.6095 51.9318C80.6093 51.9303 80.6092 51.9288 80.609 51.9273C80.6088 51.9257 80.6087 51.9242 80.6085 51.9227C80.6084 51.9211 80.6082 51.9196 80.608 51.9181C80.6079 51.9165 80.6077 51.915 80.6076 51.9134C80.6074 51.9119 80.6072 51.9104 80.6071 51.9088C80.6069 51.9073 80.6067 51.9057 80.6066 51.9042C80.6064 51.9026 80.6063 51.9011 80.6061 51.8995C80.6059 51.898 80.6058 51.8964 80.6056 51.8949C80.6054 51.8933 80.6053 51.8918 80.6051 51.8902C80.6049 51.8886 80.6048 51.8871 80.6046 51.8855C80.6045 51.884 80.6043 51.8824 80.6041 51.8808C80.604 51.8793 80.6038 51.8777 80.6036 51.8761C80.6035 51.8746 80.6033 51.873 80.6031 51.8714C80.603 51.8699 80.6028 51.8683 80.6026 51.8667C80.6025 51.8651 80.6023 51.8635 80.6021 51.862C80.602 51.8604 80.6018 51.8588 80.6016 51.8572C80.6015 51.8556 80.6013 51.854 80.6011 51.8525C80.601 51.8509 80.6008 51.8493 80.6006 51.8477C80.6005 51.8461 80.6003 51.8445 80.6001 51.8429C80.6 51.8413 80.5998 51.8397 80.5996 51.8381C80.5995 51.8365 80.5993 51.8349 80.5991 51.8333C80.599 51.8317 80.5988 51.8301 80.5986 51.8285C80.5984 51.8269 80.5983 51.8253 80.5981 51.8237C80.5979 51.8221 80.5978 51.8205 80.5976 51.8189C80.5974 51.8172 80.5973 51.8156 80.5971 51.814C80.5969 51.8124 80.5967 51.8108 80.5966 51.8092C80.5964 51.8075 80.5962 51.8059 80.5961 51.8043C80.5959 51.8027 80.5957 51.801 80.5956 51.7994C80.5954 51.7978 80.5952 51.7962 80.595 51.7945C80.5949 51.7929 80.5947 51.7913 80.5945 51.7896C80.5944 51.788 80.5942 51.7864 80.594 51.7847C80.5938 51.7831 80.5937 51.7814 80.5935 51.7798C80.5933 51.7782 80.5931 51.7765 80.593 51.7749C80.5928 51.7732 80.5926 51.7716 80.5925 51.7699C80.5923 51.7683 80.5921 51.7666 80.5919 51.765C80.5918 51.7633 80.5916 51.7617 80.5914 51.76C80.5912 51.7584 80.5911 51.7567 80.5909 51.7551C80.5907 51.7534 80.5905 51.7517 80.5904 51.7501C80.5902 51.7484 80.59 51.7467 80.5898 51.7451C80.5897 51.7434 80.5895 51.7417 80.5893 51.7401C80.5891 51.7384 80.589 51.7367 80.5888 51.735C80.5886 51.7334 80.5884 51.7317 80.5882 51.73C80.5881 51.7283 80.5879 51.7267 80.5877 51.725C80.5875 51.7233 80.5874 51.7216 80.5872 51.7199C80.587 51.7182 80.5868 51.7166 80.5867 51.7149C80.5865 51.7132 80.5863 51.7115 80.5861 51.7098C80.5859 51.7081 80.5858 51.7064 80.5856 51.7047C80.5854 51.703 80.5852 51.7013 80.5851 51.6996C80.5849 51.6979 80.5847 51.6962 80.5845 51.6945C80.5843 51.6928 80.5842 51.6911 80.584 51.6894C80.5838 51.6877 80.5836 51.686 80.5834 51.6843C80.5833 51.6826 80.5831 51.6808 80.5829 51.6791C80.5827 51.6774 80.5825 51.6757 80.5824 51.674C80.5822 51.6723 80.582 51.6705 80.5818 51.6688C80.5816 51.6671 80.5814 51.6654 80.5813 51.6637C80.5811 51.6619 80.5809 51.6602 80.5807 51.6585C80.5805 51.6568 80.5804 51.655 80.5802 51.6533C80.58 51.6516 80.5798 51.6498 80.5796 51.6481C80.5794 51.6463 80.5793 51.6446 80.5791 51.6429C80.5789 51.6411 80.5787 51.6394 80.5785 51.6376C80.5783 51.6359 80.5782 51.6342 80.578 51.6324C80.5778 51.6307 80.5776 51.6289 80.5774 51.6272C80.5772 51.6254 80.5771 51.6237 80.5769 51.6219C80.5767 51.6202 80.5765 51.6184 80.5763 51.6166C80.5761 51.6149 80.5759 51.6131 80.5758 51.6114C80.5756 51.6096 80.5754 51.6078 80.5752 51.6061C80.575 51.6043 80.5748 51.6025 80.5746 51.6008C80.5745 51.599 80.5743 51.5972 80.5741 51.5955C80.5739 51.5937 80.5737 51.5919 80.5735 51.5901C80.5733 51.5884 80.5732 51.5866 80.573 51.5848C80.5728 51.583 80.5726 51.5813 80.5724 51.5795C80.5722 51.5777 80.572 51.5759 80.5718 51.5741C80.5716 51.5723 80.5715 51.5705 80.5713 51.5687C80.5711 51.567 80.5709 51.5652 80.5707 51.5634C80.5705 51.5616 80.5703 51.5598 80.5701 51.558C80.57 51.5562 80.5698 51.5544 80.5696 51.5526C80.5694 51.5508 80.5692 51.549 80.569 51.5472C80.5688 51.5454 80.5686 51.5436 80.5684 51.5418C80.5682 51.5399 80.5681 51.5381 80.5679 51.5363C80.5677 51.5345 80.5675 51.5327 80.5673 51.5309C80.5671 51.5291 80.5669 51.5273 80.5667 51.5254C80.5665 51.5236 80.5663 51.5218 80.5661 51.52C80.5659 51.5182 80.5658 51.5163 80.5656 51.5145C80.5654 51.5127 80.5652 51.5108 80.565 51.509C80.5648 51.5072 80.5646 51.5053 80.5644 51.5035C80.5642 51.5017 80.564 51.4998 80.5638 51.498C80.5636 51.4962 80.5634 51.4943 80.5632 51.4925C80.563 51.4907 80.5629 51.4888 80.5627 51.487C80.5625 51.4851 80.5623 51.4833 80.5621 51.4814C80.5619 51.4796 80.5617 51.4777 80.5615 51.4759C80.5613 51.474 80.5611 51.4722 80.5609 51.4703L78.5719 51.6797C78.5721 51.6815 78.5723 51.6834 78.5725 51.6852C78.5727 51.6871 78.5729 51.6889 78.5731 51.6908C78.5733 51.6926 78.5735 51.6945 78.5737 51.6963C78.5738 51.6982 78.574 51.7 78.5742 51.7019C78.5744 51.7037 78.5746 51.7055 78.5748 51.7074C78.575 51.7092 78.5752 51.7111 78.5754 51.7129C78.5756 51.7147 78.5758 51.7166 78.576 51.7184C78.5762 51.7202 78.5764 51.722 78.5766 51.7239C78.5767 51.7257 78.5769 51.7275 78.5771 51.7293C78.5773 51.7312 78.5775 51.733 78.5777 51.7348C78.5779 51.7366 78.5781 51.7384 78.5783 51.7403C78.5785 51.7421 78.5787 51.7439 78.5788 51.7457C78.579 51.7475 78.5792 51.7493 78.5794 51.7511C78.5796 51.7529 78.5798 51.7547 78.58 51.7566C78.5802 51.7584 78.5804 51.7602 78.5806 51.762C78.5807 51.7638 78.5809 51.7656 78.5811 51.7674C78.5813 51.7692 78.5815 51.771 78.5817 51.7727C78.5819 51.7745 78.5821 51.7763 78.5823 51.7781C78.5825 51.7799 78.5826 51.7817 78.5828 51.7835C78.583 51.7853 78.5832 51.7871 78.5834 51.7888C78.5836 51.7906 78.5838 51.7924 78.584 51.7942C78.5841 51.796 78.5843 51.7977 78.5845 51.7995C78.5847 51.8013 78.5849 51.8031 78.5851 51.8048C78.5853 51.8066 78.5854 51.8084 78.5856 51.8102C78.5858 51.8119 78.586 51.8137 78.5862 51.8155C78.5864 51.8172 78.5866 51.819 78.5867 51.8207C78.5869 51.8225 78.5871 51.8243 78.5873 51.826C78.5875 51.8278 78.5877 51.8295 78.5879 51.8313C78.588 51.833 78.5882 51.8348 78.5884 51.8365C78.5886 51.8383 78.5888 51.84 78.589 51.8418C78.5891 51.8435 78.5893 51.8453 78.5895 51.847C78.5897 51.8488 78.5899 51.8505 78.5901 51.8522C78.5902 51.854 78.5904 51.8557 78.5906 51.8575C78.5908 51.8592 78.591 51.8609 78.5912 51.8627C78.5913 51.8644 78.5915 51.8661 78.5917 51.8679C78.5919 51.8696 78.5921 51.8713 78.5923 51.873C78.5924 51.8748 78.5926 51.8765 78.5928 51.8782C78.593 51.8799 78.5932 51.8816 78.5933 51.8834C78.5935 51.8851 78.5937 51.8868 78.5939 51.8885C78.5941 51.8902 78.5942 51.8919 78.5944 51.8936C78.5946 51.8954 78.5948 51.8971 78.595 51.8988C78.5951 51.9005 78.5953 51.9022 78.5955 51.9039C78.5957 51.9056 78.5959 51.9073 78.596 51.909C78.5962 51.9107 78.5964 51.9124 78.5966 51.9141C78.5968 51.9158 78.5969 51.9175 78.5971 51.9192C78.5973 51.9209 78.5975 51.9225 78.5976 51.9242C78.5978 51.9259 78.598 51.9276 78.5982 51.9293C78.5984 51.931 78.5985 51.9327 78.5987 51.9343C78.5989 51.936 78.5991 51.9377 78.5992 51.9394C78.5994 51.9411 78.5996 51.9427 78.5998 51.9444C78.5999 51.9461 78.6001 51.9478 78.6003 51.9494C78.6005 51.9511 78.6006 51.9528 78.6008 51.9544C78.601 51.9561 78.6012 51.9578 78.6013 51.9594C78.6015 51.9611 78.6017 51.9628 78.6019 51.9644C78.6021 51.9661 78.6022 51.9677 78.6024 51.9694C78.6026 51.9711 78.6027 51.9727 78.6029 51.9744C78.6031 51.976 78.6033 51.9777 78.6034 51.9793C78.6036 51.981 78.6038 51.9826 78.604 51.9843C78.6041 51.9859 78.6043 51.9875 78.6045 51.9892C78.6047 51.9908 78.6048 51.9925 78.605 51.9941C78.6052 51.9957 78.6053 51.9974 78.6055 51.999C78.6057 52.0006 78.6059 52.0023 78.606 52.0039C78.6062 52.0055 78.6064 52.0072 78.6065 52.0088C78.6067 52.0104 78.6069 52.012 78.6071 52.0137C78.6072 52.0153 78.6074 52.0169 78.6076 52.0185C78.6077 52.0202 78.6079 52.0218 78.6081 52.0234C78.6083 52.025 78.6084 52.0266 78.6086 52.0282C78.6088 52.0298 78.6089 52.0315 78.6091 52.0331C78.6093 52.0347 78.6094 52.0363 78.6096 52.0379C78.6098 52.0395 78.6099 52.0411 78.6101 52.0427C78.6103 52.0443 78.6105 52.0459 78.6106 52.0475C78.6108 52.0491 78.611 52.0507 78.6111 52.0523C78.6113 52.0539 78.6115 52.0555 78.6116 52.0571C78.6118 52.0587 78.612 52.0602 78.6121 52.0618C78.6123 52.0634 78.6125 52.065 78.6126 52.0666C78.6128 52.0682 78.613 52.0698 78.6131 52.0713C78.6133 52.0729 78.6135 52.0745 78.6136 52.0761C78.6138 52.0776 78.614 52.0792 78.6141 52.0808C78.6143 52.0824 78.6145 52.0839 78.6146 52.0855C78.6148 52.0871 78.615 52.0886 78.6151 52.0902C78.6153 52.0918 78.6154 52.0933 78.6156 52.0949C78.6158 52.0965 78.6159 52.098 78.6161 52.0996C78.6163 52.1011 78.6164 52.1027 78.6166 52.1042C78.6168 52.1058 78.6169 52.1074 78.6171 52.1089C78.6172 52.1105 78.6174 52.112 78.6176 52.1136C78.6177 52.1151 78.6179 52.1166 78.6181 52.1182C78.6182 52.1197 78.6184 52.1213 78.6185 52.1228C78.6187 52.1244 78.6189 52.1259 78.619 52.1274C78.6192 52.129 78.6194 52.1305 78.6195 52.132C78.6197 52.1336 78.6198 52.1351 78.62 52.1366C78.6202 52.1382 78.6203 52.1397 78.6205 52.1412C78.6206 52.1427 78.6208 52.1443 78.621 52.1458C78.6211 52.1473 78.6213 52.1488 78.6214 52.1503C78.6216 52.1519 78.6218 52.1534 78.6219 52.1549C78.6221 52.1564 78.6222 52.1579 78.6224 52.1594C78.6226 52.1609 78.6227 52.1625 78.6229 52.164C78.623 52.1655 78.6232 52.167 78.6234 52.1685C78.6235 52.17 78.6237 52.1715 78.6238 52.173C78.624 52.1745 78.6241 52.176 78.6243 52.1775C78.6245 52.179 78.6246 52.1805 78.6248 52.182C78.6249 52.1835 78.6251 52.185 78.6252 52.1864C78.6254 52.1879 78.6256 52.1894 78.6257 52.1909C78.6259 52.1924 78.626 52.1939 78.6262 52.1954C78.6263 52.1968 78.6265 52.1983 78.6266 52.1998C78.6268 52.2013 78.627 52.2028 78.6271 52.2042C78.6273 52.2057 78.6274 52.2072 78.6276 52.2086C78.6277 52.2101 78.6279 52.2116 78.628 52.2131C78.6282 52.2145 78.6284 52.216 78.6285 52.2175C78.6287 52.2189 78.6288 52.2204 78.629 52.2218C78.6291 52.2233 78.6293 52.2248 78.6294 52.2262C78.6296 52.2277 78.6297 52.2291 78.6299 52.2306C78.63 52.232 78.6302 52.2335 78.6303 52.2349C78.6305 52.2364 78.6307 52.2378 78.6308 52.2393C78.631 52.2407 78.6311 52.2422 78.6313 52.2436C78.6314 52.2451 78.6316 52.2465 78.6317 52.2479C78.6319 52.2494 78.632 52.2508 78.6322 52.2522C78.6323 52.2537 78.6325 52.2551 78.6326 52.2565C78.6328 52.258 78.6329 52.2594 78.6331 52.2608C78.6332 52.2623 78.6334 52.2637 78.6335 52.2651C78.6337 52.2665 78.6338 52.268 78.634 52.2694C78.6341 52.2708 78.6343 52.2722 78.6344 52.2736C78.6346 52.275 78.6347 52.2765 78.6349 52.2779C78.635 52.2793 78.6352 52.2807 78.6353 52.2821C78.6355 52.2835 78.6356 52.2849 78.6358 52.2863C78.6359 52.2877 78.6361 52.2891 78.6362 52.2906C78.6364 52.292 78.6365 52.2934 78.6366 52.2948C78.6368 52.2962 78.6369 52.2975 78.6371 52.2989C78.6372 52.3003 78.6374 52.3017 78.6375 52.3031C78.6377 52.3045 78.6378 52.3059 78.638 52.3073C78.6381 52.3087 78.6383 52.3101 78.6384 52.3115C78.6385 52.3128 78.6387 52.3142 78.6388 52.3156C78.639 52.317 78.6391 52.3184 78.6393 52.3197C78.6394 52.3211 78.6396 52.3225 78.6397 52.3239C78.6399 52.3252 78.64 52.3266 78.6401 52.328C78.6403 52.3293 78.6404 52.3307 78.6406 52.3321C78.6407 52.3335 78.6409 52.3348 78.641 52.3362C78.6412 52.3375 78.6413 52.3389 78.6414 52.3403C78.6416 52.3416 78.6417 52.343 78.6419 52.3443C78.642 52.3457 78.6422 52.347 78.6423 52.3484C78.6424 52.3497 78.6426 52.3511 78.6427 52.3524C78.6429 52.3538 78.643 52.3551 78.6431 52.3565C78.6433 52.3578 78.6434 52.3592 78.6436 52.3605C78.6437 52.3618 78.6439 52.3632 78.644 52.3645C78.6441 52.3659 78.6443 52.3672 78.6444 52.3685C78.6446 52.3699 78.6447 52.3712 78.6448 52.3725C78.645 52.3739 78.6451 52.3752 78.6452 52.3765C78.6454 52.3778 78.6455 52.3792 78.6457 52.3805C78.6458 52.3818 78.646 52.3831 78.6461 52.3844C78.6462 52.3858 78.6464 52.3871 78.6465 52.3884C78.6466 52.3897 78.6468 52.391 78.6469 52.3923C78.6471 52.3937 78.6472 52.395 78.6473 52.3963C78.6475 52.3976 78.6476 52.3989 78.6477 52.4002C78.6479 52.4015 78.648 52.4028 78.6482 52.4041C78.6483 52.4054 78.6484 52.4067 78.6486 52.408C78.6487 52.4093 78.6488 52.4106 78.649 52.4119C78.6491 52.4132 78.6492 52.4145 78.6494 52.4158C78.6495 52.417 78.6497 52.4183 78.6498 52.4196C78.6499 52.4209 78.6501 52.4222 78.6502 52.4235C78.6503 52.4248 78.6505 52.426 78.6506 52.4273C78.6507 52.4286 78.6509 52.4299 78.651 52.4312C78.6511 52.4324 78.6513 52.4337 78.6514 52.435C78.6515 52.4362 78.6517 52.4375 78.6518 52.4388C78.6519 52.44 78.6521 52.4413 78.6522 52.4426C78.6523 52.4438 78.6525 52.4451 78.6526 52.4464C78.6527 52.4476 78.6529 52.4489 78.653 52.4501C78.6531 52.4514 78.6533 52.4527 78.6534 52.4539C78.6535 52.4552 78.6537 52.4564 78.6538 52.4577C78.6539 52.4589 78.6541 52.4602 78.6542 52.4614C78.6543 52.4627 78.6544 52.4639 78.6546 52.4652C78.6547 52.4664 78.6548 52.4676 78.655 52.4689C78.6551 52.4701 78.6552 52.4714 78.6554 52.4726C78.6555 52.4738 78.6556 52.4751 78.6558 52.4763C78.6559 52.4775 78.656 52.4788 78.6561 52.48C78.6563 52.4812 78.6564 52.4824 78.6565 52.4837C78.6567 52.4849 78.6568 52.4861 78.6569 52.4873C78.657 52.4886 78.6572 52.4898 78.6573 52.491C78.6574 52.4922 78.6576 52.4934 78.6577 52.4946C78.6578 52.4958 78.6579 52.4971 78.6581 52.4983C78.6582 52.4995 78.6583 52.5007 78.6585 52.5019C78.6586 52.5031 78.6587 52.5043 78.6588 52.5055C78.659 52.5067 78.6591 52.5079 78.6592 52.5091C78.6593 52.5103 78.6595 52.5115 78.6596 52.5127C78.6597 52.5139 78.6598 52.5151 78.66 52.5163C78.6601 52.5175 78.6602 52.5187 78.6603 52.5199C78.6605 52.5211 78.6606 52.5222 78.6607 52.5234C78.6608 52.5246 78.661 52.5258 78.6611 52.527C78.6612 52.5282 78.6613 52.5293 78.6615 52.5305C78.6616 52.5317 78.6617 52.5329 78.6618 52.534C78.662 52.5352 78.6621 52.5364 78.6622 52.5376C78.6623 52.5387 78.6625 52.5399 78.6626 52.5411C78.6627 52.5422 78.6628 52.5434 78.6629 52.5446C78.6631 52.5457 78.6632 52.5469 78.6633 52.548C78.6634 52.5492 78.6636 52.5504 78.6637 52.5515C78.6638 52.5527 78.6639 52.5538 78.664 52.555C78.6642 52.5561 78.6643 52.5573 78.6644 52.5584C78.6645 52.5596 78.6646 52.5607 78.6648 52.5619C78.6649 52.563 78.665 52.5642 78.6651 52.5653C78.6652 52.5664 78.6654 52.5676 78.6655 52.5687C78.6656 52.5699 78.6657 52.571 78.6658 52.5721C78.666 52.5733 78.6661 52.5744 78.6662 52.5755C78.6663 52.5767 78.6664 52.5778 78.6666 52.5789C78.6667 52.58 78.6668 52.5812 78.6669 52.5823C78.667 52.5834 78.6672 52.5845 78.6673 52.5857C78.6674 52.5868 78.6675 52.5879 78.6676 52.589C78.6677 52.5901 78.6679 52.5912 78.668 52.5924C78.6681 52.5935 78.6682 52.5946 78.6683 52.5957C78.6684 52.5968 78.6686 52.5979 78.6687 52.599C78.6688 52.6001 78.6689 52.6012 78.669 52.6023C78.6691 52.6034 78.6693 52.6045 78.6694 52.6056C78.6695 52.6067 78.6696 52.6078 78.6697 52.6089C78.6698 52.61 78.6699 52.6111 78.6701 52.6122C78.6702 52.6133 78.6703 52.6144 78.6704 52.6154C78.6705 52.6165 78.6706 52.6176 78.6707 52.6187C78.6709 52.6198 78.671 52.6209 78.6711 52.622C78.6712 52.623 78.6713 52.6241 78.6714 52.6252C78.6715 52.6263 78.6717 52.6273 78.6718 52.6284C78.6719 52.6295 78.672 52.6306 78.6721 52.6316C78.6722 52.6327 78.6723 52.6338 78.6724 52.6348C78.6726 52.6359 78.6727 52.637 78.6728 52.638C78.6729 52.6391 78.673 52.6401 78.6731 52.6412C78.6732 52.6423 78.6733 52.6433 78.6734 52.6444C78.6736 52.6454 78.6737 52.6465 78.6738 52.6475C78.6739 52.6486 78.674 52.6496 78.6741 52.6507C78.6742 52.6517 78.6743 52.6528 78.6744 52.6538C78.6746 52.6549 78.6747 52.6559 78.6748 52.6569C78.6749 52.658 78.675 52.659 78.6751 52.66C78.6752 52.6611 78.6753 52.6621 78.6754 52.6632C78.6755 52.6642 78.6756 52.6652 78.6758 52.6662C78.6759 52.6673 78.676 52.6683 78.6761 52.6693C78.6762 52.6703 78.6763 52.6714 78.6764 52.6724C78.6765 52.6734 78.6766 52.6744 78.6767 52.6755C78.6768 52.6765 78.6769 52.6775 78.677 52.6785C78.6771 52.6795 78.6773 52.6805 78.6774 52.6815C78.6775 52.6826 78.6776 52.6836 78.6777 52.6846C78.6778 52.6856 78.6779 52.6866 78.678 52.6876C78.6781 52.6886 78.6782 52.6896 78.6783 52.6906C78.6784 52.6916 78.6785 52.6926 78.6786 52.6936C78.6787 52.6946 78.6788 52.6956 78.6789 52.6966C78.679 52.6976 78.6792 52.6986 78.6793 52.6996C78.6794 52.7005 78.6795 52.7015 78.6796 52.7025C78.6797 52.7035 78.6798 52.7045 78.6799 52.7055C78.68 52.7064 78.6801 52.7074 78.6802 52.7084C78.6803 52.7094 78.6804 52.7104 78.6805 52.7113C78.6806 52.7123 78.6807 52.7133 78.6808 52.7143C78.6809 52.7152 78.681 52.7162 78.6811 52.7172C78.6812 52.7181 78.6813 52.7191 78.6814 52.7201C78.6815 52.721 78.6816 52.722 78.6817 52.7229C78.6818 52.7239 78.6819 52.7249 78.682 52.7258C78.6821 52.7268 78.6822 52.7277 78.6823 52.7287C78.6824 52.7296 78.6825 52.7306 78.6826 52.7315C78.6827 52.7325 78.6828 52.7334 78.6829 52.7344C78.683 52.7353 78.6831 52.7363 78.6832 52.7372C78.6833 52.7382 78.6834 52.7391 78.6835 52.74C78.6836 52.741 78.6837 52.7419 78.6838 52.7429C78.6839 52.7438 78.684 52.7447 78.6841 52.7457C78.6842 52.7466 78.6843 52.7475 78.6844 52.7484C78.6845 52.7494 78.6846 52.7503 78.6847 52.7512C78.6848 52.7521 78.6849 52.7531 78.685 52.754C78.6851 52.7549 78.6852 52.7558 78.6853 52.7567C78.6854 52.7577 78.6855 52.7586 78.6856 52.7595C78.6857 52.7604 78.6858 52.7613 78.6859 52.7622C78.686 52.7631 78.686 52.764 78.6861 52.7649C78.6862 52.7658 78.6863 52.7667 78.6864 52.7677C78.6865 52.7686 78.6866 52.7695 78.6867 52.7704C78.6868 52.7713 78.6869 52.7721 78.687 52.773C78.6871 52.7739 78.6872 52.7748 78.6873 52.7757C78.6874 52.7766 78.6875 52.7775 78.6876 52.7784C78.6877 52.7793 78.6877 52.7802 78.6878 52.7811C78.6879 52.7819 78.688 52.7828 78.6881 52.7837C78.6882 52.7846 78.6883 52.7855 78.6884 52.7863C78.6885 52.7872 78.6886 52.7881 78.6887 52.789C78.6888 52.7898 78.6889 52.7907 78.6889 52.7916C78.689 52.7924 78.6891 52.7933 78.6892 52.7942C78.6893 52.795 78.6894 52.7959 78.6895 52.7968C78.6896 52.7976 78.6897 52.7985 78.6898 52.7994C78.6898 52.8002 78.6899 52.8011 78.69 52.8019C78.6901 52.8028 78.6902 52.8036 78.6903 52.8045C78.6904 52.8053 78.6905 52.8062 78.6906 52.807C78.6907 52.8079 78.6908 52.8087 78.6908 52.8096C78.6909 52.8104 78.691 52.8113 78.6911 52.8121C78.6912 52.8129 78.6913 52.8138 78.6914 52.8146C78.6915 52.8155 78.6915 52.8163 78.6916 52.8171C78.6917 52.818 78.6918 52.8188 78.6919 52.8196C78.692 52.8204 78.6921 52.8213 78.6922 52.8221C78.6922 52.8229 78.6923 52.8238 78.6924 52.8246C78.6925 52.8254 78.6926 52.8262 78.6927 52.827C78.6928 52.8279 78.6928 52.8287 78.6929 52.8295C78.693 52.8303 78.6931 52.8311 78.6932 52.8319C78.6933 52.8327 78.6934 52.8336 78.6935 52.8344C78.6935 52.8352 78.6936 52.836 78.6937 52.8368C78.6938 52.8376 78.6939 52.8384 78.694 52.8392C78.694 52.84 78.6941 52.8408 78.6942 52.8416C78.6943 52.8424 78.6944 52.8432 78.6945 52.844C78.6945 52.8448 78.6946 52.8456 78.6947 52.8464C78.6948 52.8471 78.6949 52.8479 78.695 52.8487C78.695 52.8495 78.6951 52.8503 78.6952 52.8511C78.6953 52.8519 78.6954 52.8526 78.6954 52.8534C78.6955 52.8542 78.6956 52.855 78.6957 52.8557C78.6958 52.8565 78.6959 52.8573 78.6959 52.8581C78.696 52.8588 78.6961 52.8596 78.6962 52.8604C78.6963 52.8611 78.6964 52.8619 78.6964 52.8627C78.6965 52.8634 78.6966 52.8642 78.6967 52.865C78.6967 52.8657 78.6968 52.8665 78.6969 52.8672C78.697 52.868 78.6971 52.8688 78.6971 52.8695C78.6972 52.8703 78.6973 52.871 78.6974 52.8718C78.6975 52.8725 78.6975 52.8733 78.6976 52.874C78.6977 52.8748 78.6978 52.8755 78.6979 52.8762C78.6979 52.877 78.698 52.8777 78.6981 52.8785C78.6982 52.8792 78.6982 52.8799 78.6983 52.8807C78.6984 52.8814 78.6985 52.8821 78.6986 52.8829C78.6986 52.8836 78.6987 52.8843 78.6988 52.8851C78.6989 52.8858 78.6989 52.8865 78.699 52.8872C78.6991 52.888 78.6992 52.8887 78.6992 52.8894C78.6993 52.8901 78.6994 52.8909 78.6995 52.8916C78.6995 52.8923 78.6996 52.893 78.6997 52.8937C78.6998 52.8944 78.6998 52.8951 78.6999 52.8959C78.7 52.8966 78.7001 52.8973 78.7001 52.898C78.7002 52.8987 78.7003 52.8994 78.7004 52.9001C78.7004 52.9008 78.7005 52.9015 78.7006 52.9022C78.7007 52.9029 78.7007 52.9036 78.7008 52.9043C78.7009 52.905 78.701 52.9057 78.701 52.9064C78.7011 52.9071 78.7012 52.9078 78.7012 52.9084C78.7013 52.9091 78.7014 52.9098 78.7015 52.9105C78.7015 52.9112 78.7016 52.9119 78.7017 52.9126C78.7018 52.9132 78.7018 52.9139 78.7019 52.9146C78.702 52.9153 78.702 52.9159 78.7021 52.9166C78.7022 52.9173 78.7022 52.918 78.7023 52.9186C78.7024 52.9193 78.7025 52.92 78.7025 52.9206C78.7026 52.9213 78.7027 52.922 78.7027 52.9226C78.7028 52.9233 78.7029 52.924 78.7029 52.9246C78.703 52.9253 78.7031 52.9259 78.7032 52.9266C78.7032 52.9273 78.7033 52.9279 78.7034 52.9286C78.7034 52.9292 78.7035 52.9299 78.7036 52.9305C78.7036 52.9312 78.7037 52.9318 78.7038 52.9325C78.7038 52.9331 78.7039 52.9337 78.704 52.9344C78.704 52.935 78.7041 52.9357 78.7042 52.9363C78.7042 52.9369 78.7043 52.9376 78.7044 52.9382C78.7044 52.9388 78.7045 52.9395 78.7046 52.9401C78.7046 52.9407 78.7047 52.9414 78.7048 52.942C78.7048 52.9426 78.7049 52.9432 78.705 52.9439C78.705 52.9445 78.7051 52.9451 78.7052 52.9457C78.7052 52.9464 78.7053 52.947 78.7054 52.9476C78.7054 52.9482 78.7055 52.9488 78.7056 52.9494C78.7056 52.95 78.7057 52.9507 78.7058 52.9513C78.7058 52.9519 78.7059 52.9525 78.7059 52.9531C78.706 52.9537 78.7061 52.9543 78.7061 52.9549C78.7062 52.9555 78.7063 52.9561 78.7063 52.9567C78.7064 52.9573 78.7065 52.9579 78.7065 52.9585C78.7066 52.9591 78.7066 52.9597 78.7067 52.9603C78.7068 52.9608 78.7068 52.9614 78.7069 52.962C78.7069 52.9626 78.707 52.9632 78.7071 52.9638C78.7071 52.9644 78.7072 52.9649 78.7073 52.9655C78.7073 52.9661 78.7074 52.9667 78.7074 52.9673C78.7075 52.9678 78.7076 52.9684 78.7076 52.969C78.7077 52.9696 78.7077 52.9701 78.7078 52.9707C78.7079 52.9713 78.7079 52.9718 78.708 52.9724C78.708 52.973 78.7081 52.9735 78.7082 52.9741C78.7082 52.9746 78.7083 52.9752 78.7083 52.9758C78.7084 52.9763 78.7085 52.9769 78.7085 52.9774C78.7086 52.978 78.7086 52.9785 78.7087 52.9791C78.7087 52.9796 78.7088 52.9802 78.7089 52.9807C78.7089 52.9813 78.709 52.9818 78.709 52.9824C78.7091 52.9829 78.7091 52.9835 78.7092 52.984C78.7093 52.9845 78.7093 52.9851 78.7094 52.9856C78.7094 52.9862 78.7095 52.9867 78.7095 52.9872C78.7096 52.9878 78.7096 52.9883 78.7097 52.9888C78.7098 52.9893 78.7098 52.9899 78.7099 52.9904C78.7099 52.9909 78.71 52.9914 78.71 52.992C78.7101 52.9925 78.7101 52.993 78.7102 52.9935C78.7103 52.994 78.7103 52.9946 78.7104 52.9951C78.7104 52.9956 78.7105 52.9961 78.7105 52.9966C78.7106 52.9971 78.7106 52.9976 78.7107 52.9981C78.7107 52.9986 78.7108 52.9992 78.7108 52.9997C78.7109 53.0002 78.711 53.0007 78.711 53.0012C78.7111 53.0017 78.7111 53.0022 78.7112 53.0027C78.7112 53.0032 78.7113 53.0036 78.7113 53.0041C78.7114 53.0046 78.7114 53.0051 78.7115 53.0056C78.7115 53.0061 78.7116 53.0066 78.7116 53.0071C78.7117 53.0076 78.7117 53.008 78.7118 53.0085C78.7118 53.009 78.7119 53.0095 78.7119 53.01C78.712 53.0105 78.712 53.0109 78.7121 53.0114C78.7121 53.0119 78.7122 53.0123 78.7122 53.0128C78.7123 53.0133 78.7123 53.0138 78.7124 53.0142C78.7124 53.0147 78.7125 53.0152 78.7125 53.0156C78.7126 53.0161 78.7126 53.0165 78.7127 53.017C78.7127 53.0175 78.7128 53.0179 78.7128 53.0184C78.7129 53.0188 78.7129 53.0193 78.713 53.0198C78.713 53.0202 78.7131 53.0207 78.7131 53.0211C78.7132 53.0216 78.7132 53.022 78.7132 53.0224C78.7133 53.0229 78.7133 53.0233 78.7134 53.0238C78.7134 53.0242 78.7135 53.0247 78.7135 53.0251C78.7136 53.0255 78.7136 53.026 78.7137 53.0264C78.7137 53.0268 78.7138 53.0273 78.7138 53.0277C78.7138 53.0281 78.7139 53.0286 78.7139 53.029C78.714 53.0294 78.714 53.0298 78.7141 53.0303C78.7141 53.0307 78.7142 53.0311 78.7142 53.0315C78.7142 53.032 78.7143 53.0324 78.7143 53.0328C78.7144 53.0332 78.7144 53.0336 78.7145 53.034C78.7145 53.0345 78.7146 53.0349 78.7146 53.0353C78.7146 53.0357 78.7147 53.0361 78.7147 53.0365C78.7148 53.0369 78.7148 53.0373 78.7149 53.0377C78.7149 53.0381 78.7149 53.0385 78.715 53.0389C78.715 53.0393 78.7151 53.0397 78.7151 53.0401C78.7151 53.0405 78.7152 53.0409 78.7152 53.0413C78.7153 53.0417 78.7153 53.0421 78.7154 53.0424C78.7154 53.0428 78.7154 53.0432 78.7155 53.0436C78.7155 53.044 78.7156 53.0444 78.7156 53.0448C78.7156 53.0451 78.7157 53.0455 78.7157 53.0459C78.7158 53.0463 78.7158 53.0466 78.7158 53.047C78.7159 53.0474 78.7159 53.0478 78.716 53.0481C78.716 53.0485 78.716 53.0489 78.7161 53.0492C78.7161 53.0496 78.7161 53.05 78.7162 53.0503C78.7162 53.0507 78.7163 53.051 78.7163 53.0514C78.7163 53.0518 78.7164 53.0521 78.7164 53.0525C78.7164 53.0528 78.7165 53.0532 78.7165 53.0535C78.7166 53.0539 78.7166 53.0542 78.7166 53.0546C78.7167 53.0549 78.7167 53.0553 78.7167 53.0556C78.7168 53.056 78.7168 53.0563 78.7169 53.0567C78.7169 53.057 78.7169 53.0573 78.717 53.0577C78.717 53.058 78.717 53.0583 78.7171 53.0587C78.7171 53.059 78.7171 53.0593 78.7172 53.0597C78.7172 53.06 78.7172 53.0603 78.7173 53.0607C78.7173 53.061 78.7173 53.0613 78.7174 53.0616C78.7174 53.062 78.7174 53.0623 78.7175 53.0626C78.7175 53.0629 78.7175 53.0632 78.7176 53.0635C78.7176 53.0639 78.7176 53.0642 78.7177 53.0645C78.7177 53.0648 78.7177 53.0651 78.7178 53.0654C78.7178 53.0657 78.7178 53.066 78.7179 53.0663C78.7179 53.0666 78.7179 53.0669 78.718 53.0672C78.718 53.0675 78.718 53.0678 78.7181 53.0681C78.7181 53.0684 78.7181 53.0687 78.7181 53.069C78.7182 53.0693 78.7182 53.0696 78.7182 53.0699C78.7183 53.0702 78.7183 53.0705 78.7183 53.0708C78.7184 53.071 78.7184 53.0713 78.7184 53.0716C78.7185 53.0719 78.7185 53.0722 78.7185 53.0725C78.7185 53.0727 78.7186 53.073 78.7186 53.0733C78.7186 53.0736 78.7187 53.0738 78.7187 53.0741C78.7187 53.0744 78.7187 53.0747 78.7188 53.0749C78.7188 53.0752 78.7188 53.0755 78.7189 53.0757C78.7189 53.076 78.7189 53.0762 78.7189 53.0765C78.719 53.0768 78.719 53.077 78.719 53.0773C78.719 53.0775 78.7191 53.0778 78.7191 53.078C78.7191 53.0783 78.7192 53.0786 78.7192 53.0788C78.7192 53.0791 78.7192 53.0793 78.7193 53.0796C78.7193 53.0798 78.7193 53.08 78.7193 53.0803C78.7194 53.0805 78.7194 53.0808 78.7194 53.081C78.7194 53.0812 78.7195 53.0815 78.7195 53.0817C78.7195 53.082 78.7195 53.0822 78.7196 53.0824C78.7196 53.0826 78.7196 53.0829 78.7196 53.0831C78.7197 53.0833 78.7197 53.0836 78.7197 53.0838C78.7197 53.084 78.7197 53.0842 78.7198 53.0845C78.7198 53.0847 78.7198 53.0849 78.7198 53.0851C78.7199 53.0853 78.7199 53.0855 78.7199 53.0858C78.7199 53.086 78.72 53.0862 78.72 53.0864C78.72 53.0866 78.72 53.0868 78.72 53.087C78.7201 53.0872 78.7201 53.0874 78.7201 53.0876C78.7201 53.0878 78.7202 53.088 78.7202 53.0882C78.7202 53.0884 78.7202 53.0886 78.7202 53.0888C78.7203 53.089 78.7203 53.0892 78.7203 53.0894C78.7203 53.0896 78.7203 53.0898 78.7204 53.09C78.7204 53.0902 78.7204 53.0904 78.7204 53.0905C78.7204 53.0907 78.7205 53.0909 78.7205 53.0911C78.7205 53.0913 78.7205 53.0915 78.7205 53.0916C78.7206 53.0918 78.7206 53.092 78.7206 53.0922C78.7206 53.0923 78.7206 53.0925 78.7206 53.0927C78.7207 53.0928 78.7207 53.093 78.7207 53.0932C78.7207 53.0934 78.7207 53.0935 78.7207 53.0937C78.7208 53.0938 78.7208 53.094 78.7208 53.0942C78.7208 53.0943 78.7208 53.0945 78.7208 53.0946C78.7209 53.0948 78.7209 53.0949 78.7209 53.0951C78.7209 53.0953 78.7209 53.0954 78.7209 53.0956C78.721 53.0957 78.721 53.0958 78.721 53.096C78.721 53.0961 78.721 53.0963 78.721 53.0964C78.721 53.0966 78.7211 53.0967 78.7211 53.0968C78.7211 53.097 78.7211 53.0971 78.7211 53.0972C78.7211 53.0974 78.7211 53.0975 78.7212 53.0976C78.7212 53.0978 78.7212 53.0979 78.7212 53.098C78.7212 53.0982 78.7212 53.0983 78.7212 53.0984C78.7213 53.0985 78.7213 53.0986 78.7213 53.0988C78.7213 53.0989 78.7213 53.099 78.7213 53.0991C78.7213 53.0992 78.7213 53.0993 78.7214 53.0995C78.7214 53.0996 78.7214 53.0997 78.7214 53.0998C78.7214 53.0999 78.7214 53.1 78.7214 53.1001C78.7214 53.1002 78.7214 53.1003 78.7215 53.1004C78.7215 53.1005 78.7215 53.1006 78.7215 53.1007C78.7215 53.1008 78.7215 53.1009 78.7215 53.101C78.7215 53.1011 78.7215 53.1012 78.7215 53.1013C78.7216 53.1014 78.7216 53.1015 78.7216 53.1016C78.7216 53.1016 78.7216 53.1017 78.7216 53.1018C78.7216 53.1019 78.7216 53.102 78.7216 53.1021C78.7216 53.1021 78.7216 53.1022 78.7216 53.1023C78.7217 53.1024 78.7217 53.1024 78.7217 53.1025C78.7217 53.1026 78.7217 53.1027 78.7217 53.1027C78.7217 53.1028 78.7217 53.1029 78.7217 53.1029C78.7217 53.103 78.7217 53.1031 78.7217 53.1031C78.7217 53.1032 78.7217 53.1032 78.7218 53.1033C78.7218 53.1034 78.7218 53.1034 78.7218 53.1035C78.7218 53.1035 78.7218 53.1036 78.7218 53.1036C78.7218 53.1037 78.7218 53.1037 78.7218 53.1038C78.7218 53.1038 78.7218 53.1039 78.7218 53.1039C78.7218 53.104 78.7218 53.104 78.7218 53.104C78.7218 53.1041 78.7218 53.1041 78.7218 53.1041C78.7218 53.1042 78.7219 53.1042 78.7219 53.1042C78.7219 53.1043 78.7219 53.1043 78.7219 53.1043C78.7219 53.1044 78.7219 53.1044 78.7219 53.1044C78.7219 53.1044 78.7219 53.1045 78.7219 53.1045C78.7219 53.1045 78.7219 53.1045 78.7219 53.1046C78.7219 53.1046 78.7219 53.1046 78.7219 53.1046C78.7219 53.1046 78.7219 53.1046 78.7219 53.1046C78.7219 53.1046 78.7219 53.1047 78.7219 53.1047C78.7219 53.1047 78.7219 53.1047 78.7219 53.1047C78.7219 53.1047 78.7219 53.1047 79.7164 53ZM80.5609 51.4703C80.4623 50.5338 80.3632 49.3947 80.2637 48.0511L78.2691 48.1989C78.3696 49.5553 78.4705 50.7162 78.5719 51.6797L80.5609 51.4703ZM80.2639 48.0538C80.1654 46.6746 80.1164 45.3736 80.1164 44.15H78.1164C78.1164 45.4264 78.1675 46.7754 78.269 48.1962L80.2639 48.0538ZM80.1164 44.15V15.65H78.1164V44.15H80.1164ZM97.4176 0.649999V-0.350001H96.4176V0.649999H97.4176ZM105.743 0.649999H106.743V-0.350001H105.743V0.649999ZM105.743 53V54H106.743V53H105.743ZM97.4176 53H96.4176V54H97.4176V53ZM97.4176 1.65H105.743V-0.350001H97.4176V1.65ZM104.743 0.649999V53H106.743V0.649999H104.743ZM105.743 52H97.4176V54H105.743V52ZM98.4176 53V0.649999H96.4176V53H98.4176ZM116.607 0.649999V-0.350001H115.607V0.649999H116.607ZM124.932 0.649999H125.932V-0.350001H124.932V0.649999ZM124.932 53V54H125.932V53H124.932ZM116.607 53H115.607V54H116.607V53ZM154.032 15.65L154.708 16.3868L156.601 14.65H154.032V15.65ZM133.107 34.85L132.108 34.8072L132.005 37.2187L133.783 35.5868L133.107 34.85ZM133.332 29.6L134.056 28.9105L132.434 27.2059L132.333 29.5572L133.332 29.6ZM155.607 53V54H157.94L156.331 52.3105L155.607 53ZM144.957 53L144.231 53.6873L144.527 54H144.957V53ZM125.157 32.075L124.469 31.3493L123.744 32.0366L124.431 32.7623L125.157 32.075ZM142.482 15.65V14.65H142.083L141.794 14.9243L142.482 15.65ZM116.607 1.65H124.932V-0.350001H116.607V1.65ZM123.932 0.649999V53H125.932V0.649999H123.932ZM124.932 52H116.607V54H124.932V52ZM117.607 53V0.649999H115.607V53H117.607ZM153.356 14.9132L132.431 34.1132L133.783 35.5868L154.708 16.3868L153.356 14.9132ZM134.106 34.8928L134.331 29.6428L132.333 29.5572L132.108 34.8072L134.106 34.8928ZM132.608 30.2895L154.883 53.6895L156.331 52.3105L134.056 28.9105L132.608 30.2895ZM155.607 52H144.957V54H155.607V52ZM145.683 52.3127L125.883 31.3877L124.431 32.7623L144.231 53.6873L145.683 52.3127ZM125.845 32.8007L143.17 16.3757L141.794 14.9243L124.469 31.3493L125.845 32.8007ZM142.482 16.65H154.032V14.65H142.482V16.65ZM171.883 4.4V3.4H170.883V4.4H171.883ZM218.533 4.4H219.533V3.4H218.533V4.4ZM218.533 11.75V12.75H219.533V11.75H218.533ZM171.883 11.75H170.883V12.75H171.883V11.75ZM191.008 10.85V9.85H190.008V10.85H191.008ZM199.483 10.85H200.483V9.85H199.483V10.85ZM199.483 53V54H200.483V53H199.483ZM191.008 53H190.008V54H191.008V53ZM171.883 5.4H218.533V3.4H171.883V5.4ZM217.533 4.4V11.75H219.533V4.4H217.533ZM218.533 10.75H171.883V12.75H218.533V10.75ZM172.883 11.75V4.4H170.883V11.75H172.883ZM191.008 11.85H199.483V9.85H191.008V11.85ZM198.483 10.85V53H200.483V10.85H198.483ZM199.483 52H191.008V54H199.483V52ZM192.008 53V10.85H190.008V53H192.008ZM226.95 51.575L226.536 52.4854L226.95 51.575ZM219.15 44.975L219.986 44.427L219.15 44.975ZM219.15 23.9L219.986 24.448L219.99 24.4415L219.15 23.9ZM226.95 17.15L226.524 16.2449L226.95 17.15ZM256.875 23.9L256.027 24.4313L256.033 24.4397L256.038 24.448L256.875 23.9ZM256.875 44.975L256.038 44.4269L256.032 44.4372L256.875 44.975ZM249.225 51.575L248.806 50.667L249.225 51.575ZM249.45 41.3L248.604 40.766L248.599 40.7741L248.594 40.7822L249.45 41.3ZM249.45 27.5L248.594 28.0178L248.599 28.0259L248.604 28.034L249.45 27.5ZM244.725 23.15L244.251 24.0305L244.264 24.0377L244.277 24.0444L244.725 23.15ZM231.45 23.075L231.002 22.1806L231.45 23.075ZM226.575 27.425L225.739 26.8754L225.734 26.8831L225.729 26.891L226.575 27.425ZM226.575 41.3L225.729 41.834L226.575 41.3ZM231.375 45.575L230.946 46.4783L230.954 46.4823L231.375 45.575ZM238.125 52.825C234.097 52.825 230.516 52.0976 227.363 50.6646L226.536 52.4854C229.983 54.0524 233.852 54.825 238.125 54.825V52.825ZM227.363 50.6646C224.228 49.2392 221.777 47.1612 219.986 44.427L218.313 45.523C220.322 48.5888 223.072 50.9108 226.536 52.4854L227.363 50.6646ZM219.986 44.427C218.212 41.7196 217.3 38.3942 217.3 34.4H215.3C215.3 38.7058 216.287 42.4304 218.313 45.523L219.986 44.427ZM217.3 34.4C217.3 30.4585 218.211 27.1573 219.986 24.448L218.313 23.352C216.288 26.4427 215.3 30.1415 215.3 34.4H217.3ZM219.99 24.4415C221.785 21.6557 224.238 19.5286 227.375 18.0551L226.524 16.2449C223.062 17.8714 220.315 20.2443 218.309 23.3585L219.99 24.4415ZM227.375 18.0551C230.524 16.5757 234.101 15.825 238.125 15.825V13.825C233.848 13.825 229.975 14.6243 226.524 16.2449L227.375 18.0551ZM238.125 15.825C242.148 15.825 245.698 16.5758 248.794 18.0526L249.655 16.2474C246.252 14.6242 242.401 13.825 238.125 13.825V15.825ZM248.794 18.0526C251.879 19.5238 254.282 21.6478 256.027 24.4313L257.722 23.3687C255.767 20.2522 253.07 17.8762 249.655 16.2474L248.794 18.0526ZM256.038 24.448C257.813 27.1573 258.725 30.4585 258.725 34.4H260.725C260.725 30.1415 259.736 26.4427 257.711 23.352L256.038 24.448ZM258.725 34.4C258.725 38.3942 257.812 41.7196 256.038 44.427L257.711 45.523C259.737 42.4304 260.725 38.7058 260.725 34.4H258.725ZM256.032 44.4372C254.289 47.169 251.889 49.2439 248.806 50.667L249.644 52.483C253.06 50.9062 255.76 48.581 257.718 45.5128L256.032 44.4372ZM248.806 50.667C245.706 52.0975 242.153 52.825 238.125 52.825V54.825C242.396 54.825 246.243 54.0525 249.644 52.483L248.806 50.667ZM238.125 48C240.66 48 243.009 47.4972 245.154 46.4783L244.296 44.6717C242.441 45.5528 240.389 46 238.125 46V48ZM245.154 46.4783C247.331 45.444 249.054 43.8847 250.305 41.8178L248.594 40.7822C247.545 42.5153 246.118 43.806 244.296 44.6717L245.154 46.4783ZM250.295 41.834C251.615 39.7445 252.25 37.2506 252.25 34.4H250.25C250.25 36.9494 249.684 39.0555 248.604 40.766L250.295 41.834ZM252.25 34.4C252.25 31.5494 251.615 29.0555 250.295 26.966L248.604 28.034C249.684 29.7445 250.25 31.8506 250.25 34.4H252.25ZM250.305 26.9822C249.057 24.9195 247.34 23.3394 245.172 22.2556L244.277 24.0444C246.11 24.9606 247.543 26.2805 248.594 28.0178L250.305 26.9822ZM245.199 22.2695C243.088 21.133 240.722 20.575 238.125 20.575V22.575C240.427 22.575 242.461 23.067 244.251 24.0305L245.199 22.2695ZM238.125 20.575C235.534 20.575 233.154 21.1047 231.002 22.1806L231.897 23.9694C233.745 23.0453 235.815 22.575 238.125 22.575V20.575ZM231.002 22.1806C228.842 23.2607 227.084 24.8309 225.739 26.8754L227.41 27.9746C228.565 26.2191 230.057 24.8893 231.897 23.9694L231.002 22.1806ZM225.729 26.891C224.408 28.9833 223.775 31.5034 223.775 34.4H225.775C225.775 31.7966 226.342 29.6667 227.42 27.959L225.729 26.891ZM223.775 34.4C223.775 37.2506 224.409 39.7445 225.729 41.834L227.42 40.766C226.34 39.0555 225.775 36.9494 225.775 34.4H223.775ZM225.729 41.834C227.029 43.8915 228.772 45.4458 230.946 46.4783L231.804 44.6717C229.977 43.8042 228.521 42.5085 227.42 40.766L225.729 41.834ZM230.954 46.4823C233.147 47.4984 235.542 48 238.125 48V46C235.807 46 233.702 45.5516 231.795 44.6677L230.954 46.4823ZM326.386 4.4V3.4H325.386V4.4H326.386ZM334.861 4.4H335.861V3.4H334.861V4.4ZM333.586 41.225L332.648 40.8783L332.644 40.8874L332.641 40.8965L333.586 41.225ZM330.136 47.075L329.406 46.3911L330.136 47.075ZM324.811 51.05L325.249 51.9488L325.258 51.9445L325.266 51.94L324.811 51.05ZM318.061 53.225L317.88 52.2414L317.876 52.2421L318.061 53.225ZM295.636 51.05L295.18 51.94L295.188 51.9445L295.197 51.9488L295.636 51.05ZM290.311 47.075L289.57 47.7465L289.575 47.7528L289.581 47.7589L290.311 47.075ZM286.861 41.225L285.916 41.5535L285.919 41.5626L285.923 41.5717L286.861 41.225ZM285.661 4.4V3.4H284.661V4.4H285.661ZM294.211 4.4H295.211V3.4H294.211V4.4ZM296.311 41.225L295.491 41.7985L295.5 41.8102L295.508 41.8217L296.311 41.225ZM318.436 45.275L318.734 46.2295L318.436 45.275ZM324.211 41.225L325.013 41.8217L325.02 41.812L324.211 41.225ZM327.386 32.525V4.4H325.386V32.525H327.386ZM326.386 5.4H334.861V3.4H326.386V5.4ZM333.861 4.4V33.2H335.861V4.4H333.861ZM333.861 33.2C333.861 36.1594 333.448 38.7127 332.648 40.8783L334.524 41.5717C335.423 39.1373 335.861 36.3406 335.861 33.2H333.861ZM332.641 40.8965C331.882 43.0789 330.8 44.9039 329.406 46.3911L330.865 47.7589C332.471 46.0461 333.689 43.9711 334.53 41.5535L332.641 40.8965ZM329.406 46.3911C327.989 47.903 326.307 49.1597 324.355 50.16L325.266 51.94C327.414 50.8403 329.283 49.447 330.865 47.7589L329.406 46.3911ZM324.372 50.1512C322.411 51.1079 320.249 51.8064 317.88 52.2415L318.241 54.2085C320.772 53.7436 323.11 52.9921 325.249 51.9488L324.372 50.1512ZM317.876 52.2421C315.543 52.6796 313.055 52.9 310.411 52.9V54.9C313.166 54.9 315.778 54.6704 318.245 54.2079L317.876 52.2421ZM310.411 52.9C307.664 52.9 305.074 52.6793 302.638 52.2408L302.283 54.2092C304.847 54.6707 307.557 54.9 310.411 54.9V52.9ZM302.638 52.2408C300.218 51.8053 298.032 51.1066 296.074 50.1512L295.197 51.9488C297.339 52.9934 299.703 53.7447 302.283 54.2092L302.638 52.2408ZM296.091 50.16C294.139 49.1597 292.458 47.903 291.04 46.3911L289.581 47.7589C291.164 49.447 293.032 50.8403 295.18 51.94L296.091 50.16ZM291.052 46.4035C289.698 44.9102 288.61 43.0746 287.799 40.8783L285.923 41.5717C286.811 43.9754 288.023 46.0398 289.57 47.7465L291.052 46.4035ZM287.805 40.8965C287.05 38.7249 286.661 36.1652 286.661 33.2H284.661C284.661 36.3348 285.071 39.1251 285.916 41.5535L287.805 40.8965ZM286.661 33.2V4.4H284.661V33.2H286.661ZM285.661 5.4H294.211V3.4H285.661V5.4ZM293.211 4.4V32.525H295.211V4.4H293.211ZM293.211 32.525C293.211 36.4241 293.925 39.5605 295.491 41.7985L297.13 40.6515C295.896 38.8895 295.211 36.2259 295.211 32.525H293.211ZM295.508 41.8217C297.092 43.9525 299.226 45.4224 301.868 46.2312L302.453 44.3188C300.195 43.6276 298.429 42.3975 297.113 40.6283L295.508 41.8217ZM301.868 46.2312C304.429 47.0151 307.28 47.4 310.411 47.4V45.4C307.441 45.4 304.792 45.0349 302.453 44.3188L301.868 46.2312ZM310.411 47.4C313.445 47.4 316.222 47.0144 318.734 46.2295L318.137 44.3205C315.849 45.0356 313.276 45.4 310.411 45.4V47.4ZM318.734 46.2295C321.328 45.4188 323.432 43.9474 325.013 41.8217L323.408 40.6283C322.089 42.4026 320.343 43.6312 318.137 44.3205L318.734 46.2295ZM325.02 41.812C326.644 39.5716 327.386 36.4295 327.386 32.525H325.386C325.386 36.2205 324.677 38.8784 323.401 40.638L325.02 41.812ZM343.675 40.7V39.7H342.799L342.684 40.5678L343.675 40.7ZM351.4 40.7L352.378 40.494L352.211 39.7H351.4V40.7ZM354.475 45.35L353.887 46.1587L353.895 46.1646L353.903 46.1704L354.475 45.35ZM365.35 46.475L364.994 45.5405L364.986 45.5435L364.978 45.5465L365.35 46.475ZM367.525 44.825L366.684 44.2842L366.67 44.3062L366.657 44.3289L367.525 44.825ZM367.225 39.875L366.518 40.5821L366.532 40.5962L366.547 40.6098L367.225 39.875ZM364.525 38.375L364.841 37.4263L364.525 38.375ZM360.025 37.325L359.788 38.2967L359.824 38.3054L359.86 38.3114L360.025 37.325ZM354.55 35.825L354.842 34.8686L354.55 35.825ZM349.675 33.8L349.169 34.6627L349.18 34.6693L349.192 34.6756L349.675 33.8ZM346.225 30.65L345.373 31.1741L345.385 31.1935L345.398 31.2123L346.225 30.65ZM346.15 21.35L345.281 20.8538L345.276 20.8644L346.15 21.35ZM349.45 17.825L350.011 18.6525H350.011L349.45 17.825ZM354.4 15.65L354.654 16.6171L354.666 16.614L354.678 16.6106L354.4 15.65ZM368.725 16.4L368.286 17.2986L368.294 17.3025L368.725 16.4ZM373.675 20.825L372.809 21.326L372.814 21.3345L372.819 21.3428L373.675 20.825ZM375.4 27.35V28.35H376.4V27.35H375.4ZM368.05 27.35L367.069 27.5461L367.23 28.35H368.05V27.35ZM365.725 23L365.108 23.7875L365.725 23ZM354.625 28.7L353.97 29.4557L353.997 29.4788L354.025 29.5L354.625 28.7ZM358 30.275L357.703 31.2301L358 30.275ZM363.1 31.625L363.367 30.6615L363.346 30.6556L363.325 30.6506L363.1 31.625ZM368.2 33.2L367.875 34.1457L367.888 34.1503L367.902 34.1545L368.2 33.2ZM372.475 35.15L371.936 35.9923L371.955 36.0047L371.975 36.0162L372.475 35.15ZM375.55 38.15L376.407 37.6355L375.55 38.15ZM374.8 48.725L374.003 48.1211L373.997 48.1289L373.991 48.1368L374.8 48.725ZM369.55 52.55L369.896 53.488L369.905 53.4847L369.914 53.4812L369.55 52.55ZM353.8 52.85L353.498 53.8033L353.504 53.8053L353.8 52.85ZM348.625 50.3L348.011 51.0894L348.018 51.0947L348.025 51.1L348.625 50.3ZM345.475 46.925L344.627 47.455L345.475 46.925ZM343.9 43.475L342.925 43.6966L342.929 43.7175L342.935 43.7381L343.9 43.475ZM343.675 41.7H351.4V39.7H343.675V41.7ZM350.421 40.906C350.875 43.0615 352.048 44.8212 353.887 46.1587L355.063 44.5413C353.602 43.4788 352.725 42.1385 352.378 40.494L350.421 40.906ZM353.903 46.1704C355.775 47.475 358.223 48.075 361.15 48.075V46.075C358.477 46.075 356.475 45.525 355.047 44.5296L353.903 46.1704ZM361.15 48.075C363.003 48.075 364.55 47.872 365.721 47.4035L364.978 45.5465C364.15 45.878 362.896 46.075 361.15 46.075V48.075ZM365.706 47.4095C366.888 46.9591 367.84 46.2885 368.393 45.3211L366.657 44.3289C366.409 44.7615 365.912 45.1909 364.994 45.5405L365.706 47.4095ZM368.366 45.3658C368.928 44.4913 369.2 43.5005 369.2 42.425H367.2C367.2 43.1495 367.021 43.7587 366.684 44.2842L368.366 45.3658ZM369.2 42.425C369.2 41.1187 368.806 39.9738 367.903 39.1402L366.547 40.6098C366.943 40.9762 367.2 41.5313 367.2 42.425H369.2ZM367.932 39.1679C367.182 38.4175 366.122 37.8533 364.841 37.4263L364.209 39.3237C365.328 39.6967 366.068 40.1325 366.518 40.5821L367.932 39.1679ZM364.841 37.4263C363.575 37.0043 362.02 36.6438 360.189 36.3386L359.86 38.3114C361.629 38.6062 363.075 38.9457 364.209 39.3237L364.841 37.4263ZM360.261 36.3533C358.43 35.9078 356.623 35.4129 354.842 34.8686L354.258 36.7813C356.076 37.3371 357.92 37.8422 359.788 38.2967L360.261 36.3533ZM354.842 34.8686C353.099 34.3362 351.54 33.6868 350.158 32.9244L349.192 34.6756C350.71 35.5132 352.4 36.2138 354.258 36.7813L354.842 34.8686ZM350.181 32.9373C348.844 32.1539 347.809 31.2018 347.052 30.0877L345.398 31.2123C346.34 32.5982 347.605 33.7461 349.169 34.6627L350.181 32.9373ZM347.076 30.1259C346.392 29.014 346.025 27.6293 346.025 25.925H344.025C344.025 27.9207 344.457 29.686 345.373 31.1741L347.076 30.1259ZM346.025 25.925C346.025 24.3774 346.365 23.0225 347.024 21.8356L345.276 20.8644C344.435 22.3775 344.025 24.0726 344.025 25.925H346.025ZM347.018 21.8461C347.739 20.5851 348.731 19.5212 350.011 18.6525L348.888 16.9975C347.369 18.0288 346.161 19.3149 345.282 20.8539L347.018 21.8461ZM350.011 18.6525C351.304 17.7754 352.846 17.0928 354.654 16.6171L354.145 14.6829C352.153 15.2072 350.396 15.9746 348.888 16.9975L350.011 18.6525ZM354.678 16.6106C356.476 16.09 358.456 15.825 360.625 15.825V13.825C358.293 13.825 356.124 14.11 354.122 14.6894L354.678 16.6106ZM360.625 15.825C363.774 15.825 366.312 16.3348 368.286 17.2986L369.164 15.5014C366.837 14.3652 363.975 13.825 360.625 13.825V15.825ZM368.294 17.3025C370.333 18.2756 371.822 19.6197 372.809 21.326L374.54 20.324C373.328 18.2303 371.517 16.6244 369.156 15.4975L368.294 17.3025ZM372.819 21.3428C373.865 23.0708 374.4 25.0631 374.4 27.35H376.4C376.4 24.7369 375.784 22.3792 374.53 20.3072L372.819 21.3428ZM375.4 26.35H368.05V28.35H375.4V26.35ZM369.03 27.1539C368.602 25.0119 367.742 23.3089 366.341 22.2125L365.108 23.7875C366.007 24.491 366.698 25.6881 367.069 27.5461L369.03 27.1539ZM366.341 22.2125C364.939 21.1155 362.953 20.65 360.55 20.65V22.65C362.747 22.65 364.21 23.0845 365.108 23.7875L366.341 22.2125ZM360.55 20.65C358.16 20.65 356.18 21.0611 354.745 22.0179L355.854 23.682C356.819 23.0389 358.34 22.65 360.55 22.65V20.65ZM354.745 22.0179C353.277 22.9967 352.5 24.4037 352.5 26.15H354.5C354.5 25.0963 354.923 24.3033 355.854 23.682L354.745 22.0179ZM352.5 26.15C352.5 27.4709 352.987 28.6036 353.97 29.4557L355.28 27.9443C354.763 27.4964 354.5 26.9291 354.5 26.15H352.5ZM354.025 29.5C354.951 30.1946 356.195 30.7619 357.703 31.2301L358.296 29.3199C356.905 28.8881 355.899 28.4054 355.225 27.9L354.025 29.5ZM357.703 31.2301C359.183 31.6893 360.908 32.1455 362.875 32.5994L363.325 30.6506C361.392 30.2045 359.717 29.7607 358.296 29.3199L357.703 31.2301ZM362.832 32.5885C364.615 33.0837 366.296 33.6028 367.875 34.1457L368.525 32.2543C366.904 31.6972 365.185 31.1663 363.367 30.6615L362.832 32.5885ZM367.902 34.1545C369.427 34.6313 370.77 35.2459 371.936 35.9923L373.014 34.3077C371.68 33.4541 370.172 32.7687 368.498 32.2455L367.902 34.1545ZM371.975 36.0162C373.132 36.6839 374.032 37.5646 374.692 38.6645L376.407 37.6355C375.567 36.2354 374.417 35.1161 372.975 34.2838L371.975 36.0162ZM374.692 38.6645C375.327 39.7224 375.675 41.0831 375.675 42.8H377.675C377.675 40.8169 377.273 39.0776 376.407 37.6355L374.692 38.6645ZM375.675 42.8C375.675 44.9075 375.106 46.6642 374.003 48.1211L375.597 49.3289C376.993 47.4858 377.675 45.2925 377.675 42.8H375.675ZM373.991 48.1368C372.925 49.6026 371.345 50.7736 369.185 51.6188L369.914 53.4812C372.354 52.5264 374.275 51.1474 375.609 49.3132L373.991 48.1368ZM369.203 51.612C367.044 52.4101 364.393 52.825 361.225 52.825V54.825C364.557 54.825 367.456 54.3899 369.896 53.488L369.203 51.612ZM361.225 52.825C358.447 52.825 356.076 52.5078 354.095 51.8947L353.504 53.8053C355.723 54.4922 358.303 54.825 361.225 54.825V52.825ZM354.102 51.8968C352.136 51.2733 350.517 50.4691 349.225 49.5L348.025 51.1C349.533 52.2309 351.364 53.1267 353.498 53.8032L354.102 51.8968ZM349.239 49.5107C347.963 48.5181 346.999 47.4772 346.323 46.395L344.627 47.455C345.45 48.7728 346.587 49.9819 348.011 51.0894L349.239 49.5107ZM346.323 46.395C345.613 45.2587 345.134 44.1982 344.865 43.2119L342.935 43.7381C343.266 44.9518 343.837 46.1913 344.627 47.455L346.323 46.395ZM344.875 43.2534C344.64 42.218 344.587 41.4213 344.666 40.8322L342.684 40.5678C342.562 41.4787 342.66 42.532 342.925 43.6966L344.875 43.2534Z" fill="black" mask="url(#path-1-outside-1_71_780)"/>
</g>
<defs>
<filter id="filter0_d_71_780" x="0.350098" y="0.649902" width="377.825" height="54.75" filterUnits="userSpaceOnUse" color-interpolation-filters="sRGB">
<feFlood flood-opacity="0" result="BackgroundImageFix"/>
<feColorMatrix in="SourceAlpha" type="matrix" values="0 0 0 0 0 0 0 0 0 0 0 0 0 0 0 0 0 0 127 0" result="hardAlpha"/>
<feOffset dx="1" dy="1"/>
<feGaussianBlur stdDeviation="0.25"/>
<feComposite in2="hardAlpha" operator="out"/>
<feColorMatrix type="matrix" values="0 0 0 0 1 0 0 0 0 1 0 0 0 0 1 0 0 0 1 0"/>
<feBlend mode="normal" in2="BackgroundImageFix" result="effect1_dropShadow_71_780"/>
<feBlend mode="normal" in="SourceGraphic" in2="effect1_dropShadow_71_780" result="shape"/>
</filter>
</defs>
</svg>
