<svg width="370" height="55" viewBox="0 0 370 55" fill="none" xmlns="http://www.w3.org/2000/svg">
<g filter="url(#filter0_d_103_608)">
<mask id="path-1-outside-1_103_608" maskUnits="userSpaceOnUse" x="0" y="0" width="368" height="53" fill="black">
<rect fill="white" width="368" height="53"/>
<path d="M30.1 51.9C24.4 51.9 19.425 50.875 15.175 48.825C10.975 46.775 7.7 43.875 5.35 40.125C3.05 36.375 1.9 31.9 1.9 26.7C1.9 21.5 3.05 17.025 5.35 13.275C7.7 9.475 10.975 6.575 15.175 4.575C19.425 2.525 24.4 1.5 30.1 1.5C35.85 1.5 40.825 2.525 45.025 4.575C49.225 6.575 52.475 9.475 54.775 13.275C57.125 17.025 58.3 21.5 58.3 26.7C58.3 31.9 57.125 36.375 54.775 40.125C52.475 43.875 49.225 46.775 45.025 48.825C40.825 50.875 35.85 51.9 30.1 51.9ZM30.1 44.4C33.9 44.4 37.25 43.75 40.15 42.45C43.05 41.15 45.325 39.2 46.975 36.6C48.675 33.95 49.525 30.65 49.525 26.7C49.525 22.8 48.675 19.55 46.975 16.95C45.325 14.3 43.05 12.325 40.15 11.025C37.25 9.675 33.9 9 30.1 9C26.35 9 23 9.675 20.05 11.025C17.1 12.325 14.775 14.3 13.075 16.95C11.375 19.55 10.525 22.8 10.525 26.7C10.525 30.65 11.375 33.95 13.075 36.6C14.775 39.2 17.1 41.15 20.05 42.45C23 43.75 26.35 44.4 30.1 44.4ZM105.808 51H97.4834V13.65H105.808V51ZM97.9334 33.225L98.0084 35.625C97.9084 36.275 97.6834 37.25 97.3334 38.55C97.0334 39.85 96.5084 41.275 95.7584 42.825C95.0584 44.325 94.1084 45.775 92.9084 47.175C91.7584 48.525 90.3084 49.65 88.5584 50.55C86.8084 51.4 84.6834 51.825 82.1834 51.825C80.3834 51.825 78.5584 51.575 76.7084 51.075C74.9084 50.625 73.2584 49.85 71.7584 48.75C70.3084 47.65 69.1334 46.15 68.2334 44.25C67.3334 42.35 66.8834 39.95 66.8834 37.05V13.65H75.2084V35.475C75.2084 37.825 75.5834 39.675 76.3334 41.025C77.1334 42.325 78.2334 43.25 79.6334 43.8C81.0334 44.35 82.6584 44.625 84.5084 44.625C87.1584 44.625 89.4084 44.025 91.2584 42.825C93.1084 41.625 94.5834 40.15 95.6834 38.4C96.8334 36.6 97.5834 34.875 97.9334 33.225ZM115.004 13.65H123.329V51H115.004V13.65ZM136.829 20.775C134.129 20.775 131.804 21.35 129.854 22.5C127.954 23.65 126.429 25.05 125.279 26.7C124.129 28.35 123.329 29.95 122.879 31.5L122.804 27.3C122.854 26.75 123.029 25.925 123.329 24.825C123.629 23.675 124.079 22.425 124.679 21.075C125.329 19.725 126.179 18.425 127.229 17.175C128.329 15.875 129.654 14.825 131.204 14.025C132.804 13.225 134.679 12.825 136.829 12.825V20.775ZM154.111 2.4H200.761V9.75H154.111V2.4ZM173.236 8.85H181.711V51H173.236V8.85ZM231.677 38.7H239.702C239.302 41.25 238.302 43.525 236.702 45.525C235.152 47.475 233.027 49.025 230.327 50.175C227.627 51.275 224.402 51.825 220.652 51.825C216.402 51.825 212.602 51.05 209.252 49.5C205.902 47.9 203.277 45.65 201.377 42.75C199.477 39.85 198.527 36.4 198.527 32.4C198.527 28.45 199.452 25 201.302 22.05C203.152 19.1 205.702 16.825 208.952 15.225C212.252 13.625 216.052 12.825 220.352 12.825C224.802 12.825 228.502 13.625 231.452 15.225C234.452 16.775 236.677 19.125 238.127 22.275C239.577 25.375 240.177 29.3 239.927 34.05H207.002C207.252 36.15 207.927 38.05 209.027 39.75C210.177 41.4 211.727 42.7 213.677 43.65C215.627 44.55 217.902 45 220.502 45C223.402 45 225.827 44.425 227.777 43.275C229.777 42.125 231.077 40.6 231.677 38.7ZM220.127 19.575C216.727 19.575 213.927 20.425 211.727 22.125C209.527 23.775 208.102 25.9 207.452 28.5H231.527C231.327 25.7 230.202 23.525 228.152 21.975C226.102 20.375 223.427 19.575 220.127 19.575ZM264.002 51.825C260.602 51.825 257.477 51 254.627 49.35C251.827 47.7 249.577 45.425 247.877 42.525C246.227 39.575 245.402 36.2 245.402 32.4C245.402 28.5 246.252 25.1 247.952 22.2C249.652 19.25 251.952 16.95 254.852 15.3C257.752 13.65 261.002 12.825 264.602 12.825C268.602 12.825 271.777 13.7 274.127 15.45C276.477 17.2 278.152 19.55 279.152 22.5C280.152 25.45 280.652 28.75 280.652 32.4C280.652 34.45 280.352 36.625 279.752 38.925C279.152 41.175 278.202 43.275 276.902 45.225C275.652 47.175 273.952 48.775 271.802 50.025C269.702 51.225 267.102 51.825 264.002 51.825ZM266.552 44.925C269.352 44.925 271.727 44.4 273.677 43.35C275.677 42.25 277.177 40.75 278.177 38.85C279.227 36.95 279.752 34.8 279.752 32.4C279.752 29.75 279.227 27.5 278.177 25.65C277.127 23.75 275.627 22.3 273.677 21.3C271.727 20.25 269.352 19.725 266.552 19.725C262.552 19.725 259.452 20.9 257.252 23.25C255.052 25.6 253.952 28.65 253.952 32.4C253.952 34.85 254.477 37.025 255.527 38.925C256.627 40.825 258.127 42.3 260.027 43.35C261.927 44.4 264.102 44.925 266.552 44.925ZM279.752 13.65H288.152V51H280.352C280.352 51 280.302 50.525 280.202 49.575C280.102 48.625 280.002 47.475 279.902 46.125C279.802 44.725 279.752 43.4 279.752 42.15V13.65ZM297.303 13.65H305.628V51H297.303V13.65ZM321.378 12.825C323.528 12.825 325.503 13.125 327.303 13.725C329.153 14.325 330.728 15.25 332.028 16.5C333.378 17.7 334.403 19.2 335.103 21C335.853 22.8 336.228 24.925 336.228 27.375V51H327.903V29.025C327.903 25.975 327.153 23.725 325.653 22.275C324.203 20.775 321.903 20.025 318.753 20.025C316.353 20.025 314.153 20.55 312.153 21.6C310.203 22.6 308.603 23.925 307.353 25.575C306.103 27.175 305.378 28.95 305.178 30.9L305.103 26.85C305.353 25 305.903 23.25 306.753 21.6C307.603 19.9 308.728 18.4 310.128 17.1C311.528 15.75 313.178 14.7 315.078 13.95C316.978 13.2 319.078 12.825 321.378 12.825ZM351.153 12.825C353.353 12.825 355.353 13.125 357.153 13.725C358.953 14.325 360.503 15.25 361.803 16.5C363.153 17.7 364.203 19.2 364.953 21C365.703 22.8 366.078 24.925 366.078 27.375V51H357.678V29.025C357.678 25.975 356.928 23.725 355.428 22.275C353.978 20.775 351.678 20.025 348.528 20.025C346.128 20.025 343.928 20.55 341.928 21.6C339.978 22.6 338.378 23.925 337.128 25.575C335.928 27.175 335.228 28.95 335.028 30.9L334.878 26.7C335.128 24.9 335.703 23.175 336.603 21.525C337.503 19.825 338.653 18.325 340.053 17.025C341.453 15.725 343.078 14.7 344.928 13.95C346.828 13.2 348.903 12.825 351.153 12.825Z"/>
</mask>
<path d="M30.1 51.9C24.4 51.9 19.425 50.875 15.175 48.825C10.975 46.775 7.7 43.875 5.35 40.125C3.05 36.375 1.9 31.9 1.9 26.7C1.9 21.5 3.05 17.025 5.35 13.275C7.7 9.475 10.975 6.575 15.175 4.575C19.425 2.525 24.4 1.5 30.1 1.5C35.85 1.5 40.825 2.525 45.025 4.575C49.225 6.575 52.475 9.475 54.775 13.275C57.125 17.025 58.3 21.5 58.3 26.7C58.3 31.9 57.125 36.375 54.775 40.125C52.475 43.875 49.225 46.775 45.025 48.825C40.825 50.875 35.85 51.9 30.1 51.9ZM30.1 44.4C33.9 44.4 37.25 43.75 40.15 42.45C43.05 41.15 45.325 39.2 46.975 36.6C48.675 33.95 49.525 30.65 49.525 26.7C49.525 22.8 48.675 19.55 46.975 16.95C45.325 14.3 43.05 12.325 40.15 11.025C37.25 9.675 33.9 9 30.1 9C26.35 9 23 9.675 20.05 11.025C17.1 12.325 14.775 14.3 13.075 16.95C11.375 19.55 10.525 22.8 10.525 26.7C10.525 30.65 11.375 33.95 13.075 36.6C14.775 39.2 17.1 41.15 20.05 42.45C23 43.75 26.35 44.4 30.1 44.4ZM105.808 51H97.4834V13.65H105.808V51ZM97.9334 33.225L98.0084 35.625C97.9084 36.275 97.6834 37.25 97.3334 38.55C97.0334 39.85 96.5084 41.275 95.7584 42.825C95.0584 44.325 94.1084 45.775 92.9084 47.175C91.7584 48.525 90.3084 49.65 88.5584 50.55C86.8084 51.4 84.6834 51.825 82.1834 51.825C80.3834 51.825 78.5584 51.575 76.7084 51.075C74.9084 50.625 73.2584 49.85 71.7584 48.75C70.3084 47.65 69.1334 46.15 68.2334 44.25C67.3334 42.35 66.8834 39.95 66.8834 37.05V13.65H75.2084V35.475C75.2084 37.825 75.5834 39.675 76.3334 41.025C77.1334 42.325 78.2334 43.25 79.6334 43.8C81.0334 44.35 82.6584 44.625 84.5084 44.625C87.1584 44.625 89.4084 44.025 91.2584 42.825C93.1084 41.625 94.5834 40.15 95.6834 38.4C96.8334 36.6 97.5834 34.875 97.9334 33.225ZM115.004 13.65H123.329V51H115.004V13.65ZM136.829 20.775C134.129 20.775 131.804 21.35 129.854 22.5C127.954 23.65 126.429 25.05 125.279 26.7C124.129 28.35 123.329 29.95 122.879 31.5L122.804 27.3C122.854 26.75 123.029 25.925 123.329 24.825C123.629 23.675 124.079 22.425 124.679 21.075C125.329 19.725 126.179 18.425 127.229 17.175C128.329 15.875 129.654 14.825 131.204 14.025C132.804 13.225 134.679 12.825 136.829 12.825V20.775ZM154.111 2.4H200.761V9.75H154.111V2.4ZM173.236 8.85H181.711V51H173.236V8.85ZM231.677 38.7H239.702C239.302 41.25 238.302 43.525 236.702 45.525C235.152 47.475 233.027 49.025 230.327 50.175C227.627 51.275 224.402 51.825 220.652 51.825C216.402 51.825 212.602 51.05 209.252 49.5C205.902 47.9 203.277 45.65 201.377 42.75C199.477 39.85 198.527 36.4 198.527 32.4C198.527 28.45 199.452 25 201.302 22.05C203.152 19.1 205.702 16.825 208.952 15.225C212.252 13.625 216.052 12.825 220.352 12.825C224.802 12.825 228.502 13.625 231.452 15.225C234.452 16.775 236.677 19.125 238.127 22.275C239.577 25.375 240.177 29.3 239.927 34.05H207.002C207.252 36.15 207.927 38.05 209.027 39.75C210.177 41.4 211.727 42.7 213.677 43.65C215.627 44.55 217.902 45 220.502 45C223.402 45 225.827 44.425 227.777 43.275C229.777 42.125 231.077 40.6 231.677 38.7ZM220.127 19.575C216.727 19.575 213.927 20.425 211.727 22.125C209.527 23.775 208.102 25.9 207.452 28.5H231.527C231.327 25.7 230.202 23.525 228.152 21.975C226.102 20.375 223.427 19.575 220.127 19.575ZM264.002 51.825C260.602 51.825 257.477 51 254.627 49.35C251.827 47.7 249.577 45.425 247.877 42.525C246.227 39.575 245.402 36.2 245.402 32.4C245.402 28.5 246.252 25.1 247.952 22.2C249.652 19.25 251.952 16.95 254.852 15.3C257.752 13.65 261.002 12.825 264.602 12.825C268.602 12.825 271.777 13.7 274.127 15.45C276.477 17.2 278.152 19.55 279.152 22.5C280.152 25.45 280.652 28.75 280.652 32.4C280.652 34.45 280.352 36.625 279.752 38.925C279.152 41.175 278.202 43.275 276.902 45.225C275.652 47.175 273.952 48.775 271.802 50.025C269.702 51.225 267.102 51.825 264.002 51.825ZM266.552 44.925C269.352 44.925 271.727 44.4 273.677 43.35C275.677 42.25 277.177 40.75 278.177 38.85C279.227 36.95 279.752 34.8 279.752 32.4C279.752 29.75 279.227 27.5 278.177 25.65C277.127 23.75 275.627 22.3 273.677 21.3C271.727 20.25 269.352 19.725 266.552 19.725C262.552 19.725 259.452 20.9 257.252 23.25C255.052 25.6 253.952 28.65 253.952 32.4C253.952 34.85 254.477 37.025 255.527 38.925C256.627 40.825 258.127 42.3 260.027 43.35C261.927 44.4 264.102 44.925 266.552 44.925ZM279.752 13.65H288.152V51H280.352C280.352 51 280.302 50.525 280.202 49.575C280.102 48.625 280.002 47.475 279.902 46.125C279.802 44.725 279.752 43.4 279.752 42.15V13.65ZM297.303 13.65H305.628V51H297.303V13.65ZM321.378 12.825C323.528 12.825 325.503 13.125 327.303 13.725C329.153 14.325 330.728 15.25 332.028 16.5C333.378 17.7 334.403 19.2 335.103 21C335.853 22.8 336.228 24.925 336.228 27.375V51H327.903V29.025C327.903 25.975 327.153 23.725 325.653 22.275C324.203 20.775 321.903 20.025 318.753 20.025C316.353 20.025 314.153 20.55 312.153 21.6C310.203 22.6 308.603 23.925 307.353 25.575C306.103 27.175 305.378 28.95 305.178 30.9L305.103 26.85C305.353 25 305.903 23.25 306.753 21.6C307.603 19.9 308.728 18.4 310.128 17.1C311.528 15.75 313.178 14.7 315.078 13.95C316.978 13.2 319.078 12.825 321.378 12.825ZM351.153 12.825C353.353 12.825 355.353 13.125 357.153 13.725C358.953 14.325 360.503 15.25 361.803 16.5C363.153 17.7 364.203 19.2 364.953 21C365.703 22.8 366.078 24.925 366.078 27.375V51H357.678V29.025C357.678 25.975 356.928 23.725 355.428 22.275C353.978 20.775 351.678 20.025 348.528 20.025C346.128 20.025 343.928 20.55 341.928 21.6C339.978 22.6 338.378 23.925 337.128 25.575C335.928 27.175 335.228 28.95 335.028 30.9L334.878 26.7C335.128 24.9 335.703 23.175 336.603 21.525C337.503 19.825 338.653 18.325 340.053 17.025C341.453 15.725 343.078 14.7 344.928 13.95C346.828 13.2 348.903 12.825 351.153 12.825Z" fill="black"/>
<path d="M15.175 48.825L14.7364 49.7237L14.7405 49.7257L15.175 48.825ZM5.35 40.125L4.49752 40.6479L4.50264 40.656L5.35 40.125ZM5.35 13.275L4.49949 12.749L4.49756 12.7522L5.35 13.275ZM15.175 4.575L15.6049 5.47787L15.6095 5.47569L15.175 4.575ZM45.025 4.575L44.5863 5.47371L44.5951 5.47786L45.025 4.575ZM54.775 13.275L53.9195 13.7928L53.9235 13.7994L53.9276 13.806L54.775 13.275ZM54.775 40.125L53.9276 39.594L53.9226 39.6022L54.775 40.125ZM45.025 48.825L44.5864 47.9263L45.025 48.825ZM40.15 42.45L40.5591 43.3625V43.3625L40.15 42.45ZM46.975 36.6L46.1333 36.06L46.1307 36.0642L46.975 36.6ZM46.975 16.95L46.1261 17.4786L46.132 17.488L46.138 17.4972L46.975 16.95ZM40.15 11.025L39.728 11.9316L39.7344 11.9346L39.7409 11.9375L40.15 11.025ZM20.05 11.025L20.4533 11.9402L20.4661 11.9343L20.05 11.025ZM13.075 16.95L13.912 17.4973L13.9167 17.49L13.075 16.95ZM13.075 36.6L12.2333 37.14L12.238 37.1473L13.075 36.6ZM20.05 42.45L19.6467 43.3651L20.05 42.45ZM30.1 50.9C24.5196 50.9 19.6987 49.8968 15.6095 47.9243L14.7405 49.7257C19.1513 51.8532 24.2804 52.9 30.1 52.9V50.9ZM15.6136 47.9263C11.5717 45.9535 8.44248 43.1766 6.19736 39.594L4.50264 40.656C6.95752 44.5734 10.3783 47.5965 14.7364 49.7237L15.6136 47.9263ZM6.20244 39.6022C4.01527 36.0361 2.9 31.7494 2.9 26.7H0.9C0.9 32.0506 2.08473 36.7139 4.49756 40.6478L6.20244 39.6022ZM2.9 26.7C2.9 21.6506 4.01527 17.3639 6.20244 13.7978L4.49756 12.7522C2.08473 16.6861 0.9 21.3494 0.9 26.7H2.9ZM6.2005 13.801C8.44514 10.1713 11.5709 7.39883 15.6049 5.47786L14.7451 3.67214C10.3791 5.75117 6.95486 8.77865 4.4995 12.749L6.2005 13.801ZM15.6095 5.47569C19.6987 3.50324 24.5196 2.5 30.1 2.5V0.499998C24.2804 0.499998 19.1513 1.54675 14.7405 3.6743L15.6095 5.47569ZM30.1 2.5C35.7323 2.5 40.5508 3.50392 44.5864 5.47366L45.4636 3.67633C41.0992 1.54608 35.9677 0.499998 30.1 0.499998V2.5ZM44.5951 5.47786C48.6274 7.39803 51.7256 10.1681 53.9195 13.7928L55.6305 12.7572C53.2244 8.78187 49.8226 5.75196 45.4549 3.67214L44.5951 5.47786ZM53.9276 13.806C56.1616 17.3708 57.3 21.6545 57.3 26.7H59.3C59.3 21.3455 58.0885 16.6792 55.6224 12.744L53.9276 13.806ZM57.3 26.7C57.3 31.7455 56.1616 36.0292 53.9276 39.594L55.6224 40.656C58.0885 36.7208 59.3 32.0545 59.3 26.7H57.3ZM53.9226 39.6022C51.7283 43.1798 48.6267 45.9543 44.5864 47.9263L45.4636 49.7237C49.8233 47.5957 53.2217 44.5702 55.6274 40.6478L53.9226 39.6022ZM44.5864 47.9263C40.5508 49.8961 35.7323 50.9 30.1 50.9V52.9C35.9677 52.9 41.0992 51.8539 45.4636 49.7237L44.5864 47.9263ZM30.1 45.4C34.0139 45.4 37.5077 44.7303 40.5591 43.3625L39.7409 41.5375C36.9923 42.7697 33.7862 43.4 30.1 43.4V45.4ZM40.5591 43.3625C43.6319 41.985 46.0608 39.9069 47.8193 37.1358L46.1307 36.0642C44.5892 38.4931 42.4681 40.315 39.7409 41.5375L40.5591 43.3625ZM47.8167 37.14C49.6435 34.2923 50.525 30.7929 50.525 26.7H48.525C48.525 30.5071 47.7065 33.6077 46.1333 36.06L47.8167 37.14ZM50.525 26.7C50.525 22.6552 49.6426 19.2025 47.812 16.4027L46.138 17.4972C47.7074 19.8975 48.525 22.9448 48.525 26.7H50.525ZM47.8239 16.4214C46.0667 13.5993 43.6371 11.4923 40.5591 10.1125L39.7409 11.9375C42.4629 13.1577 44.5833 15.0007 46.1261 17.4786L47.8239 16.4214ZM40.572 10.1184C37.5173 8.6964 34.0187 8 30.1 8V10C33.7813 10 36.9827 10.6536 39.728 11.9316L40.572 10.1184ZM30.1 8C26.2287 8 22.7333 8.69731 19.6339 10.1157L20.4661 11.9343C23.2667 10.6527 26.4713 10 30.1 10V8ZM19.6467 10.1099C16.5215 11.4871 14.0421 13.5905 12.2333 16.41L13.9167 17.49C15.5079 15.0095 17.6785 13.1628 20.4533 11.9401L19.6467 10.1099ZM12.238 16.4027C10.4074 19.2025 9.525 22.6552 9.525 26.7H11.525C11.525 22.9448 12.3426 19.8975 13.912 17.4972L12.238 16.4027ZM9.525 26.7C9.525 30.7929 10.4065 34.2923 12.2333 37.14L13.9167 36.06C12.3435 33.6077 11.525 30.5071 11.525 26.7H9.525ZM12.238 37.1473C14.0481 39.9156 16.5267 41.9901 19.6467 43.3651L20.4533 41.5349C17.6733 40.3099 15.5019 38.4844 13.912 36.0527L12.238 37.1473ZM19.6467 43.3651C22.7429 44.7295 26.2336 45.4 30.1 45.4V43.4C26.4664 43.4 23.2571 42.7705 20.4533 41.5349L19.6467 43.3651ZM105.808 51V52H106.808V51H105.808ZM97.4834 51H96.4834V52H97.4834V51ZM97.4834 13.65V12.65H96.4834V13.65H97.4834ZM105.808 13.65H106.808V12.65H105.808V13.65ZM97.9334 33.225L98.9329 33.1938L96.9552 33.0175L97.9334 33.225ZM98.0084 35.625L98.9968 35.7771L99.0108 35.6859L99.0079 35.5938L98.0084 35.625ZM97.3334 38.55L96.3678 38.29L96.3631 38.3075L96.359 38.3251L97.3334 38.55ZM95.7584 42.825L94.8582 42.3894L94.8522 42.4021L95.7584 42.825ZM92.9084 47.175L92.1491 46.5242L92.1472 46.5265L92.9084 47.175ZM88.5584 50.55L88.9953 51.4495L89.0056 51.4445L89.0157 51.4393L88.5584 50.55ZM76.7084 51.075L76.9693 50.1096L76.9601 50.1072L76.9509 50.1049L76.7084 51.075ZM71.7584 48.75L71.154 49.5467L71.1605 49.5516L71.167 49.5564L71.7584 48.75ZM68.2334 44.25L69.1371 43.8219L68.2334 44.25ZM66.8834 13.65V12.65H65.8834V13.65H66.8834ZM75.2084 13.65H76.2084V12.65H75.2084V13.65ZM76.3334 41.025L75.4592 41.5106L75.4701 41.5301L75.4817 41.5491L76.3334 41.025ZM79.6334 43.8L79.2677 44.7308L79.6334 43.8ZM91.2584 42.825L90.7142 41.986L91.2584 42.825ZM95.6834 38.4L94.8407 37.8616L94.8368 37.8678L95.6834 38.4ZM105.808 50H97.4834V52H105.808V50ZM98.4834 51V13.65H96.4834V51H98.4834ZM97.4834 14.65H105.808V12.65H97.4834V14.65ZM104.808 13.65V51H106.808V13.65H104.808ZM96.9339 33.2562L97.0089 35.6562L99.0079 35.5938L98.9329 33.1938L96.9339 33.2562ZM97.02 35.4729C96.9288 36.0658 96.7159 36.9969 96.3678 38.29L98.299 38.81C98.6509 37.5031 98.888 36.4842 98.9968 35.7771L97.02 35.4729ZM96.359 38.3251C96.0798 39.5349 95.5846 40.8884 94.8582 42.3894L96.6586 43.2606C97.4322 41.6616 97.987 40.1651 98.3078 38.7749L96.359 38.3251ZM94.8522 42.4021C94.1947 43.8111 93.2967 45.1854 92.1491 46.5242L93.6677 47.8258C94.9201 46.3646 95.9221 44.8389 96.6646 43.2479L94.8522 42.4021ZM92.1472 46.5265C91.0906 47.7669 89.7477 48.8138 88.1011 49.6607L89.0157 51.4393C90.869 50.4862 92.4262 49.2831 93.6696 47.8235L92.1472 46.5265ZM88.1215 49.6505C86.5407 50.4183 84.5737 50.825 82.1834 50.825V52.825C84.7931 52.825 87.0761 52.3817 88.9953 51.4495L88.1215 49.6505ZM82.1834 50.825C80.477 50.825 78.7397 50.5881 76.9693 50.1096L76.4475 52.0404C78.3771 52.5619 80.2898 52.825 82.1834 52.825V50.825ZM76.9509 50.1049C75.2771 49.6864 73.7455 48.9671 72.3498 47.9436L71.167 49.5564C72.7713 50.7329 74.5397 51.5636 76.4659 52.0451L76.9509 50.1049ZM72.3628 47.9533C71.0593 46.9644 69.9791 45.5994 69.1371 43.8219L67.3297 44.6781C68.2877 46.7006 69.5575 48.3356 71.154 49.5467L72.3628 47.9533ZM69.1371 43.8219C68.3198 42.0965 67.8834 39.8548 67.8834 37.05H65.8834C65.8834 40.0452 66.347 42.6035 67.3297 44.6781L69.1371 43.8219ZM67.8834 37.05V13.65H65.8834V37.05H67.8834ZM66.8834 14.65H75.2084V12.65H66.8834V14.65ZM74.2084 13.65V35.475H76.2084V13.65H74.2084ZM74.2084 35.475C74.2084 37.9136 74.5946 39.9543 75.4592 41.5106L77.2076 40.5394C76.5722 39.3957 76.2084 37.7364 76.2084 35.475H74.2084ZM75.4817 41.5491C76.3936 43.0308 77.6627 44.1002 79.2677 44.7308L79.9991 42.8692C78.8041 42.3998 77.8732 41.6192 77.1851 40.5009L75.4817 41.5491ZM79.2677 44.7308C80.8076 45.3357 82.5611 45.625 84.5084 45.625V43.625C82.7557 43.625 81.2592 43.3643 79.9991 42.8692L79.2677 44.7308ZM84.5084 45.625C87.3121 45.625 89.7604 44.9886 91.8026 43.664L90.7142 41.986C89.0564 43.0614 87.0047 43.625 84.5084 43.625V45.625ZM91.8026 43.664C93.7662 42.3903 95.3476 40.8133 96.53 38.9322L94.8368 37.8678C93.8192 39.4867 92.4506 40.8597 90.7142 41.986L91.8026 43.664ZM96.5261 38.9384C97.7243 37.063 98.5311 35.2267 98.9116 33.4325L96.9552 33.0175C96.6357 34.5233 95.9425 36.1371 94.8407 37.8616L96.5261 38.9384ZM115.004 13.65V12.65H114.004V13.65H115.004ZM123.329 13.65H124.329V12.65H123.329V13.65ZM123.329 51V52H124.329V51H123.329ZM115.004 51H114.004V52H115.004V51ZM136.829 20.775V21.775H137.829V20.775H136.829ZM129.854 22.5L129.346 21.6386L129.336 21.6445L129.854 22.5ZM125.279 26.7L126.099 27.2718H126.099L125.279 26.7ZM122.879 31.5L121.879 31.5179L123.839 31.7788L122.879 31.5ZM122.804 27.3L121.808 27.2095L121.803 27.2635L121.804 27.3179L122.804 27.3ZM123.329 24.825L124.293 25.0881L124.296 25.0774L123.329 24.825ZM124.679 21.075L123.778 20.6412L123.771 20.6549L123.765 20.6689L124.679 21.075ZM127.229 17.175L126.465 16.5291L126.463 16.5318L127.229 17.175ZM131.204 14.025L130.756 13.1305L130.745 13.1364L131.204 14.025ZM136.829 12.825H137.829V11.825H136.829V12.825ZM115.004 14.65H123.329V12.65H115.004V14.65ZM122.329 13.65V51H124.329V13.65H122.329ZM123.329 50H115.004V52H123.329V50ZM116.004 51V13.65H114.004V51H116.004ZM136.829 19.775C133.984 19.775 131.477 20.3818 129.346 21.6386L130.361 23.3614C132.13 22.3182 134.273 21.775 136.829 21.775V19.775ZM129.336 21.6445C127.329 22.8593 125.696 24.3521 124.458 26.1282L126.099 27.2718C127.161 25.7479 128.578 24.4407 130.371 23.3555L129.336 21.6445ZM124.458 26.1282C123.261 27.8465 122.405 29.5444 121.918 31.2212L123.839 31.7788C124.252 30.3555 124.997 28.8535 126.099 27.2718L124.458 26.1282ZM123.878 31.4821L123.803 27.2821L121.804 27.3179L121.879 31.5179L123.878 31.4821ZM123.799 27.3905C123.841 26.9325 123.996 26.1779 124.293 25.0881L122.364 24.5619C122.061 25.6721 121.866 26.5675 121.808 27.2095L123.799 27.3905ZM124.296 25.0774C124.58 23.9909 125.009 22.7929 125.592 21.4811L123.765 20.6689C123.148 22.0571 122.677 23.3591 122.361 24.5726L124.296 25.0774ZM125.58 21.5088C126.19 20.2404 126.993 19.01 127.994 17.8182L126.463 16.5318C125.364 17.84 124.467 19.2096 123.778 20.6412L125.58 21.5088ZM127.992 17.8209C129.005 16.6235 130.226 15.655 131.662 14.9136L130.745 13.1364C129.081 13.995 127.652 15.1265 126.465 16.5291L127.992 17.8209ZM131.651 14.9194C133.087 14.2015 134.803 13.825 136.829 13.825V11.825C134.554 11.825 132.52 12.2485 130.756 13.1306L131.651 14.9194ZM135.829 12.825V20.775H137.829V12.825H135.829ZM154.111 2.4V1.4H153.111V2.4H154.111ZM200.761 2.4H201.761V1.4H200.761V2.4ZM200.761 9.75V10.75H201.761V9.75H200.761ZM154.111 9.75H153.111V10.75H154.111V9.75ZM173.236 8.85V7.85H172.236V8.85H173.236ZM181.711 8.85H182.711V7.85H181.711V8.85ZM181.711 51V52H182.711V51H181.711ZM173.236 51H172.236V52H173.236V51ZM154.111 3.4H200.761V1.4H154.111V3.4ZM199.761 2.4V9.75H201.761V2.4H199.761ZM200.761 8.75H154.111V10.75H200.761V8.75ZM155.111 9.75V2.4H153.111V9.75H155.111ZM173.236 9.85H181.711V7.85H173.236V9.85ZM180.711 8.85V51H182.711V8.85H180.711ZM181.711 50H173.236V52H181.711V50ZM174.236 51V8.85H172.236V51H174.236ZM231.677 38.7V37.7H230.944L230.724 38.3989L231.677 38.7ZM239.702 38.7L240.69 38.855L240.871 37.7H239.702V38.7ZM236.702 45.525L235.921 44.9003L235.919 44.9028L236.702 45.525ZM230.327 50.175L230.704 51.1011L230.712 51.0981L230.719 51.095L230.327 50.175ZM209.252 49.5L208.821 50.4024L208.832 50.4076L209.252 49.5ZM201.377 42.75L200.541 43.298L201.377 42.75ZM201.302 22.05L202.149 22.5813L201.302 22.05ZM208.952 15.225L208.516 14.3252L208.51 14.3278L208.952 15.225ZM231.452 15.225L230.975 16.104L230.984 16.1088L230.993 16.1134L231.452 15.225ZM238.127 22.275L237.219 22.6931L237.221 22.6987L238.127 22.275ZM239.927 34.05V35.05H240.876L240.926 34.1026L239.927 34.05ZM207.002 34.05V33.05H205.876L206.009 34.1682L207.002 34.05ZM209.027 39.75L208.188 40.2933L208.197 40.3077L208.207 40.3218L209.027 39.75ZM213.677 43.65L213.239 44.549L213.249 44.5536L213.258 44.558L213.677 43.65ZM227.777 43.275L227.279 42.408L227.269 42.4136L227.777 43.275ZM211.727 22.125L212.327 22.925L212.333 22.9207L212.339 22.9163L211.727 22.125ZM207.452 28.5L206.482 28.2575L206.171 29.5H207.452V28.5ZM231.527 28.5V29.5H232.601L232.525 28.4288L231.527 28.5ZM228.152 21.975L227.537 22.7633L227.543 22.768L227.549 22.7727L228.152 21.975ZM231.677 39.7H239.702V37.7H231.677V39.7ZM238.714 38.545C238.341 40.9245 237.412 43.0373 235.921 44.9003L237.483 46.1497C239.193 44.0127 240.263 41.5755 240.69 38.855L238.714 38.545ZM235.919 44.9028C234.49 46.7011 232.51 48.1585 229.935 49.255L230.719 51.095C233.545 49.8915 235.814 48.2489 237.485 46.1472L235.919 44.9028ZM229.95 49.2489C227.399 50.2883 224.308 50.825 220.652 50.825V52.825C224.496 52.825 227.856 52.2617 230.704 51.1011L229.95 49.2489ZM220.652 50.825C216.525 50.825 212.872 50.073 209.672 48.5924L208.832 50.4076C212.332 52.027 216.279 52.825 220.652 52.825V50.825ZM209.683 48.5976C206.486 47.0706 204.006 44.9381 202.214 42.202L200.541 43.298C202.548 46.3619 205.318 48.7293 208.821 50.4024L209.683 48.5976ZM202.214 42.202C200.436 39.4887 199.527 36.236 199.527 32.4H197.527C197.527 36.564 198.518 40.2113 200.541 43.298L202.214 42.202ZM199.527 32.4C199.527 28.612 200.412 25.3515 202.149 22.5813L200.455 21.5187C198.492 24.6485 197.527 28.288 197.527 32.4H199.527ZM202.149 22.5813C203.897 19.795 206.303 17.6437 209.394 16.1222L208.51 14.3278C205.101 16.0063 202.408 18.405 200.455 21.5187L202.149 22.5813ZM209.388 16.1248C212.531 14.6012 216.177 13.825 220.352 13.825V11.825C215.927 11.825 211.973 12.6488 208.516 14.3252L209.388 16.1248ZM220.352 13.825C224.688 13.825 228.212 14.6051 230.975 16.104L231.929 14.346C228.793 12.6449 224.916 11.825 220.352 11.825V13.825ZM230.993 16.1134C233.789 17.5582 235.859 19.7397 237.219 22.6931L239.036 21.8569C237.495 18.5103 235.115 15.9918 231.911 14.3366L230.993 16.1134ZM237.221 22.6987C238.58 25.6034 239.173 29.3509 238.929 33.9974L240.926 34.1026C241.181 29.2491 240.574 25.1466 239.033 21.8513L237.221 22.6987ZM239.927 33.05H207.002V35.05H239.927V33.05ZM206.009 34.1682C206.276 36.4128 207.001 38.4594 208.188 40.2933L209.867 39.2067C208.853 37.6406 208.228 35.8872 207.995 33.9318L206.009 34.1682ZM208.207 40.3218C209.462 42.1226 211.148 43.5303 213.239 44.549L214.115 42.751C212.306 41.8697 210.892 40.6774 209.848 39.1782L208.207 40.3218ZM213.258 44.558C215.364 45.53 217.787 46 220.502 46V44C218.017 44 215.89 43.57 214.096 42.742L213.258 44.558ZM220.502 46C223.532 46 226.144 45.3993 228.285 44.1364L227.269 42.4136C225.511 43.4507 223.273 44 220.502 44V46ZM228.276 44.1419C230.456 42.8881 231.943 41.1775 232.631 39.0011L230.724 38.3989C230.211 40.0225 229.098 41.3619 227.279 42.4081L228.276 44.1419ZM220.127 18.575C216.556 18.575 213.527 19.4704 211.116 21.3337L212.339 22.9163C214.327 21.3796 216.898 20.575 220.127 20.575V18.575ZM211.127 21.325C208.749 23.1089 207.189 25.4284 206.482 28.2575L208.422 28.7425C209.015 26.3716 210.306 24.4411 212.327 22.925L211.127 21.325ZM207.452 29.5H231.527V27.5H207.452V29.5ZM232.525 28.4288C232.306 25.3709 231.058 22.9186 228.755 21.1773L227.549 22.7727C229.346 24.1314 230.348 26.0291 230.53 28.5712L232.525 28.4288ZM228.767 21.1867C226.499 19.4162 223.589 18.575 220.127 18.575V20.575C223.265 20.575 225.705 21.3338 227.537 22.7633L228.767 21.1867ZM254.627 49.35L254.119 50.2116L254.126 50.2154L254.627 49.35ZM247.877 42.525L247.004 43.0132L247.009 43.022L247.014 43.0307L247.877 42.525ZM247.952 22.2L248.815 22.7057L248.819 22.6993L247.952 22.2ZM254.852 15.3L254.358 14.4308L254.852 15.3ZM274.127 15.45L274.724 14.648L274.127 15.45ZM279.152 22.5L280.099 22.179L279.152 22.5ZM279.752 38.925L280.718 39.1827L280.72 39.1774L279.752 38.925ZM276.902 45.225L276.07 44.6703L276.065 44.6778L276.06 44.6853L276.902 45.225ZM271.802 50.025L272.298 50.8933L272.305 50.8895L271.802 50.025ZM273.677 43.35L274.151 44.2305L274.159 44.2262L273.677 43.35ZM278.177 38.85L277.302 38.3663L277.297 38.3752L277.292 38.3843L278.177 38.85ZM278.177 25.65L277.302 26.1337L277.307 26.1436L278.177 25.65ZM273.677 21.3L273.203 22.1805L273.212 22.1852L273.221 22.1898L273.677 21.3ZM257.252 23.25L257.982 23.9334V23.9334L257.252 23.25ZM255.527 38.925L254.652 39.4087L254.657 39.4174L254.662 39.426L255.527 38.925ZM260.027 43.35L259.543 44.2252L260.027 43.35ZM279.752 13.65V12.65H278.752V13.65H279.752ZM288.152 13.65H289.152V12.65H288.152V13.65ZM288.152 51V52H289.152V51H288.152ZM280.352 51L279.358 51.1047L279.452 52H280.352V51ZM280.202 49.575L279.208 49.6797V49.6797L280.202 49.575ZM279.902 46.125L278.905 46.1962L278.905 46.1989L279.902 46.125ZM264.002 50.825C260.772 50.825 257.821 50.0435 255.128 48.4846L254.126 50.2154C257.133 51.9565 260.432 52.825 264.002 52.825V50.825ZM255.135 48.4885C252.487 46.9279 250.357 44.7776 248.74 42.0193L247.014 43.0307C248.797 46.0724 251.168 48.4721 254.119 50.2115L255.135 48.4885ZM248.75 42.0368C247.193 39.2538 246.402 36.0507 246.402 32.4H244.402C244.402 36.3493 245.261 39.8962 247.004 43.0132L248.75 42.0368ZM246.402 32.4C246.402 28.6489 247.218 25.4292 248.815 22.7057L247.089 21.6943C245.286 24.7708 244.402 28.3511 244.402 32.4H246.402ZM248.819 22.6993C250.432 19.9002 252.605 17.7293 255.347 16.1692L254.358 14.4308C251.3 16.1707 248.873 18.5998 247.086 21.7007L248.819 22.6993ZM255.347 16.1692C258.084 14.6116 261.161 13.825 264.602 13.825V11.825C260.843 11.825 257.42 12.6884 254.358 14.4308L255.347 16.1692ZM264.602 13.825C268.464 13.825 271.406 14.6701 273.53 16.252L274.724 14.648C272.149 12.7299 268.74 11.825 264.602 11.825V13.825ZM273.53 16.252C275.707 17.8731 277.266 20.0504 278.205 22.821L280.099 22.179C279.038 19.0496 277.248 16.5269 274.724 14.648L273.53 16.252ZM278.205 22.821C279.165 25.6516 279.652 28.8409 279.652 32.4H281.652C281.652 28.6591 281.14 25.2484 280.099 22.179L278.205 22.821ZM279.652 32.4C279.652 34.3526 279.366 36.4422 278.785 38.6726L280.72 39.1774C281.338 36.8078 281.652 34.5474 281.652 32.4H279.652ZM278.786 38.6673C278.214 40.811 277.31 42.8107 276.07 44.6703L277.734 45.7797C279.094 43.7393 280.09 41.539 280.718 39.1827L278.786 38.6673ZM276.06 44.6853C274.902 46.4919 273.323 47.9843 271.3 49.1605L272.305 50.8895C274.582 49.5657 276.402 47.8581 277.744 45.7647L276.06 44.6853ZM271.306 49.1568C269.394 50.2494 266.976 50.825 264.002 50.825V52.825C267.228 52.825 270.01 52.2006 272.298 50.8932L271.306 49.1568ZM266.552 45.925C269.475 45.925 272.022 45.377 274.151 44.2305L273.203 42.4695C271.432 43.423 269.229 43.925 266.552 43.925V45.925ZM274.159 44.2262C276.319 43.0381 277.965 41.4002 279.062 39.3157L277.292 38.3843C276.389 40.0998 275.035 41.4619 273.195 42.4738L274.159 44.2262ZM279.052 39.3337C280.193 37.2704 280.752 34.9509 280.752 32.4H278.752C278.752 34.6491 278.262 36.6296 277.302 38.3663L279.052 39.3337ZM280.752 32.4C280.752 29.619 280.201 27.1896 279.047 25.1564L277.307 26.1436C278.253 27.8104 278.752 29.881 278.752 32.4H280.752ZM279.052 25.1663C277.905 23.0905 276.259 21.5 274.133 20.4102L273.221 22.1898C274.996 23.1 276.349 24.4095 277.302 26.1337L279.052 25.1663ZM274.151 20.4195C272.022 19.273 269.475 18.725 266.552 18.725V20.725C269.229 20.725 271.432 21.227 273.203 22.1805L274.151 20.4195ZM266.552 18.725C262.347 18.725 258.955 19.9676 256.522 22.5666L257.982 23.9334C259.949 21.8324 262.757 20.725 266.552 20.725V18.725ZM256.522 22.5666C254.12 25.1321 252.952 28.4409 252.952 32.4H254.952C254.952 28.859 255.984 26.0679 257.982 23.9334L256.522 22.5666ZM252.952 32.4C252.952 34.9971 253.51 37.3424 254.652 39.4087L256.402 38.4413C255.444 36.7076 254.952 34.7029 254.952 32.4H252.952ZM254.662 39.426C255.852 41.4812 257.483 43.0864 259.543 44.2252L260.511 42.4748C258.772 41.5136 257.403 40.1688 256.393 38.424L254.662 39.426ZM259.543 44.2252C261.61 45.3671 263.955 45.925 266.552 45.925V43.925C264.249 43.925 262.245 43.4329 260.511 42.4748L259.543 44.2252ZM279.752 14.65H288.152V12.65H279.752V14.65ZM287.152 13.65V51H289.152V13.65H287.152ZM288.152 50H280.352V52H288.152V50ZM280.352 51C281.347 50.8953 281.347 50.8953 281.347 50.8953C281.347 50.8953 281.347 50.8953 281.347 50.8953C281.347 50.8953 281.347 50.8953 281.347 50.8953C281.347 50.8953 281.347 50.8952 281.347 50.8952C281.347 50.8952 281.347 50.8952 281.347 50.8952C281.347 50.8952 281.347 50.8951 281.347 50.8951C281.347 50.8951 281.347 50.8951 281.347 50.8951C281.347 50.895 281.347 50.895 281.347 50.895C281.347 50.8949 281.347 50.8949 281.347 50.8949C281.347 50.8948 281.347 50.8948 281.347 50.8948C281.347 50.8947 281.347 50.8947 281.347 50.8947C281.347 50.8946 281.347 50.8946 281.347 50.8945C281.347 50.8945 281.347 50.8944 281.347 50.8944C281.347 50.8943 281.347 50.8943 281.347 50.8942C281.347 50.8942 281.347 50.8941 281.347 50.8941C281.347 50.894 281.347 50.894 281.346 50.8939C281.346 50.8939 281.346 50.8938 281.346 50.8937C281.346 50.8937 281.346 50.8936 281.346 50.8936C281.346 50.8935 281.346 50.8934 281.346 50.8933C281.346 50.8933 281.346 50.8932 281.346 50.8931C281.346 50.8931 281.346 50.893 281.346 50.8929C281.346 50.8928 281.346 50.8928 281.346 50.8927C281.346 50.8926 281.346 50.8925 281.346 50.8924C281.346 50.8924 281.346 50.8923 281.346 50.8922C281.346 50.8921 281.346 50.892 281.346 50.8919C281.346 50.8918 281.346 50.8917 281.346 50.8916C281.346 50.8915 281.346 50.8914 281.346 50.8913C281.346 50.8913 281.346 50.8912 281.346 50.8911C281.346 50.891 281.346 50.8908 281.346 50.8907C281.346 50.8906 281.346 50.8905 281.346 50.8904C281.346 50.8903 281.346 50.8902 281.346 50.8901C281.346 50.89 281.346 50.8899 281.346 50.8897C281.346 50.8896 281.346 50.8895 281.346 50.8894C281.346 50.8893 281.346 50.8892 281.346 50.889C281.346 50.8889 281.346 50.8888 281.346 50.8887C281.346 50.8885 281.346 50.8884 281.346 50.8883C281.346 50.8881 281.346 50.888 281.346 50.8879C281.346 50.8877 281.346 50.8876 281.346 50.8875C281.346 50.8873 281.346 50.8872 281.346 50.887C281.346 50.8869 281.346 50.8868 281.346 50.8866C281.346 50.8865 281.346 50.8863 281.346 50.8862C281.346 50.886 281.346 50.8859 281.346 50.8857C281.346 50.8856 281.346 50.8854 281.346 50.8853C281.346 50.8851 281.346 50.8849 281.346 50.8848C281.346 50.8846 281.346 50.8845 281.345 50.8843C281.345 50.8841 281.345 50.884 281.345 50.8838C281.345 50.8836 281.345 50.8835 281.345 50.8833C281.345 50.8831 281.345 50.883 281.345 50.8828C281.345 50.8826 281.345 50.8824 281.345 50.8823C281.345 50.8821 281.345 50.8819 281.345 50.8817C281.345 50.8815 281.345 50.8814 281.345 50.8812C281.345 50.881 281.345 50.8808 281.345 50.8806C281.345 50.8804 281.345 50.8802 281.345 50.88C281.345 50.8799 281.345 50.8797 281.345 50.8795C281.345 50.8793 281.345 50.8791 281.345 50.8789C281.345 50.8787 281.345 50.8785 281.345 50.8783C281.345 50.8781 281.345 50.8779 281.345 50.8777C281.345 50.8774 281.345 50.8772 281.345 50.877C281.345 50.8768 281.345 50.8766 281.345 50.8764C281.345 50.8762 281.345 50.876 281.345 50.8757C281.345 50.8755 281.345 50.8753 281.345 50.8751C281.345 50.8749 281.344 50.8746 281.344 50.8744C281.344 50.8742 281.344 50.874 281.344 50.8737C281.344 50.8735 281.344 50.8733 281.344 50.873C281.344 50.8728 281.344 50.8726 281.344 50.8723C281.344 50.8721 281.344 50.8719 281.344 50.8716C281.344 50.8714 281.344 50.8712 281.344 50.8709C281.344 50.8707 281.344 50.8704 281.344 50.8702C281.344 50.8699 281.344 50.8697 281.344 50.8694C281.344 50.8692 281.344 50.8689 281.344 50.8687C281.344 50.8684 281.344 50.8682 281.344 50.8679C281.344 50.8677 281.344 50.8674 281.344 50.8671C281.344 50.8669 281.344 50.8666 281.344 50.8663C281.344 50.8661 281.344 50.8658 281.344 50.8655C281.344 50.8653 281.343 50.865 281.343 50.8647C281.343 50.8645 281.343 50.8642 281.343 50.8639C281.343 50.8636 281.343 50.8634 281.343 50.8631C281.343 50.8628 281.343 50.8625 281.343 50.8622C281.343 50.862 281.343 50.8617 281.343 50.8614C281.343 50.8611 281.343 50.8608 281.343 50.8605C281.343 50.8602 281.343 50.8599 281.343 50.8596C281.343 50.8594 281.343 50.8591 281.343 50.8588C281.343 50.8585 281.343 50.8582 281.343 50.8579C281.343 50.8576 281.343 50.8573 281.343 50.857C281.343 50.8567 281.343 50.8563 281.343 50.856C281.342 50.8557 281.342 50.8554 281.342 50.8551C281.342 50.8548 281.342 50.8545 281.342 50.8542C281.342 50.8539 281.342 50.8535 281.342 50.8532C281.342 50.8529 281.342 50.8526 281.342 50.8523C281.342 50.8519 281.342 50.8516 281.342 50.8513C281.342 50.851 281.342 50.8506 281.342 50.8503C281.342 50.85 281.342 50.8496 281.342 50.8493C281.342 50.849 281.342 50.8486 281.342 50.8483C281.342 50.848 281.342 50.8476 281.342 50.8473C281.342 50.8469 281.342 50.8466 281.341 50.8463C281.341 50.8459 281.341 50.8456 281.341 50.8452C281.341 50.8449 281.341 50.8445 281.341 50.8442C281.341 50.8438 281.341 50.8435 281.341 50.8431C281.341 50.8428 281.341 50.8424 281.341 50.842C281.341 50.8417 281.341 50.8413 281.341 50.841C281.341 50.8406 281.341 50.8402 281.341 50.8399C281.341 50.8395 281.341 50.8391 281.341 50.8388C281.341 50.8384 281.341 50.838 281.341 50.8376C281.341 50.8373 281.341 50.8369 281.34 50.8365C281.34 50.8361 281.34 50.8358 281.34 50.8354C281.34 50.835 281.34 50.8346 281.34 50.8342C281.34 50.8339 281.34 50.8335 281.34 50.8331C281.34 50.8327 281.34 50.8323 281.34 50.8319C281.34 50.8315 281.34 50.8311 281.34 50.8307C281.34 50.8303 281.34 50.8299 281.34 50.8295C281.34 50.8291 281.34 50.8287 281.34 50.8283C281.34 50.8279 281.34 50.8275 281.339 50.8271C281.339 50.8267 281.339 50.8263 281.339 50.8259C281.339 50.8255 281.339 50.8251 281.339 50.8247C281.339 50.8243 281.339 50.8238 281.339 50.8234C281.339 50.823 281.339 50.8226 281.339 50.8222C281.339 50.8217 281.339 50.8213 281.339 50.8209C281.339 50.8205 281.339 50.8201 281.339 50.8196C281.339 50.8192 281.339 50.8188 281.339 50.8183C281.339 50.8179 281.338 50.8175 281.338 50.817C281.338 50.8166 281.338 50.8162 281.338 50.8157C281.338 50.8153 281.338 50.8148 281.338 50.8144C281.338 50.814 281.338 50.8135 281.338 50.8131C281.338 50.8126 281.338 50.8122 281.338 50.8117C281.338 50.8113 281.338 50.8108 281.338 50.8104C281.338 50.8099 281.338 50.8095 281.338 50.809C281.338 50.8086 281.337 50.8081 281.337 50.8076C281.337 50.8072 281.337 50.8067 281.337 50.8063C281.337 50.8058 281.337 50.8053 281.337 50.8049C281.337 50.8044 281.337 50.8039 281.337 50.8034C281.337 50.803 281.337 50.8025 281.337 50.802C281.337 50.8016 281.337 50.8011 281.337 50.8006C281.337 50.8001 281.337 50.7996 281.337 50.7992C281.336 50.7987 281.336 50.7982 281.336 50.7977C281.336 50.7972 281.336 50.7967 281.336 50.7962C281.336 50.7958 281.336 50.7953 281.336 50.7948C281.336 50.7943 281.336 50.7938 281.336 50.7933C281.336 50.7928 281.336 50.7923 281.336 50.7918C281.336 50.7913 281.336 50.7908 281.336 50.7903C281.336 50.7898 281.335 50.7893 281.335 50.7888C281.335 50.7883 281.335 50.7878 281.335 50.7872C281.335 50.7867 281.335 50.7862 281.335 50.7857C281.335 50.7852 281.335 50.7847 281.335 50.7842C281.335 50.7836 281.335 50.7831 281.335 50.7826C281.335 50.7821 281.335 50.7815 281.335 50.781C281.335 50.7805 281.335 50.78 281.334 50.7794C281.334 50.7789 281.334 50.7784 281.334 50.7778C281.334 50.7773 281.334 50.7768 281.334 50.7762C281.334 50.7757 281.334 50.7752 281.334 50.7746C281.334 50.7741 281.334 50.7736 281.334 50.773C281.334 50.7725 281.334 50.7719 281.334 50.7714C281.334 50.7708 281.333 50.7703 281.333 50.7697C281.333 50.7692 281.333 50.7686 281.333 50.7681C281.333 50.7675 281.333 50.767 281.333 50.7664C281.333 50.7658 281.333 50.7653 281.333 50.7647C281.333 50.7642 281.333 50.7636 281.333 50.763C281.333 50.7625 281.333 50.7619 281.333 50.7613C281.332 50.7608 281.332 50.7602 281.332 50.7596C281.332 50.759 281.332 50.7585 281.332 50.7579C281.332 50.7573 281.332 50.7567 281.332 50.7562C281.332 50.7556 281.332 50.755 281.332 50.7544C281.332 50.7538 281.332 50.7532 281.332 50.7527C281.332 50.7521 281.332 50.7515 281.331 50.7509C281.331 50.7503 281.331 50.7497 281.331 50.7491C281.331 50.7485 281.331 50.7479 281.331 50.7473C281.331 50.7467 281.331 50.7461 281.331 50.7455C281.331 50.7449 281.331 50.7443 281.331 50.7437C281.331 50.7431 281.331 50.7425 281.331 50.7419C281.33 50.7413 281.33 50.7407 281.33 50.7401C281.33 50.7394 281.33 50.7388 281.33 50.7382C281.33 50.7376 281.33 50.737 281.33 50.7364C281.33 50.7357 281.33 50.7351 281.33 50.7345C281.33 50.7339 281.33 50.7332 281.33 50.7326C281.329 50.732 281.329 50.7314 281.329 50.7307C281.329 50.7301 281.329 50.7295 281.329 50.7288C281.329 50.7282 281.329 50.7276 281.329 50.7269C281.329 50.7263 281.329 50.7257 281.329 50.725C281.329 50.7244 281.329 50.7237 281.329 50.7231C281.328 50.7224 281.328 50.7218 281.328 50.7211C281.328 50.7205 281.328 50.7198 281.328 50.7192C281.328 50.7185 281.328 50.7179 281.328 50.7172C281.328 50.7166 281.328 50.7159 281.328 50.7153C281.328 50.7146 281.328 50.7139 281.327 50.7133C281.327 50.7126 281.327 50.7119 281.327 50.7113C281.327 50.7106 281.327 50.7099 281.327 50.7093C281.327 50.7086 281.327 50.7079 281.327 50.7073C281.327 50.7066 281.327 50.7059 281.327 50.7052C281.327 50.7045 281.327 50.7039 281.326 50.7032C281.326 50.7025 281.326 50.7018 281.326 50.7011C281.326 50.7005 281.326 50.6998 281.326 50.6991C281.326 50.6984 281.326 50.6977 281.326 50.697C281.326 50.6963 281.326 50.6956 281.326 50.6949C281.326 50.6942 281.325 50.6935 281.325 50.6928C281.325 50.6921 281.325 50.6914 281.325 50.6907C281.325 50.69 281.325 50.6893 281.325 50.6886C281.325 50.6879 281.325 50.6872 281.325 50.6865C281.325 50.6858 281.325 50.6851 281.324 50.6843C281.324 50.6836 281.324 50.6829 281.324 50.6822C281.324 50.6815 281.324 50.6808 281.324 50.68C281.324 50.6793 281.324 50.6786 281.324 50.6779C281.324 50.6772 281.324 50.6764 281.324 50.6757C281.323 50.675 281.323 50.6742 281.323 50.6735C281.323 50.6728 281.323 50.672 281.323 50.6713C281.323 50.6706 281.323 50.6698 281.323 50.6691C281.323 50.6684 281.323 50.6676 281.323 50.6669C281.323 50.6661 281.322 50.6654 281.322 50.6646C281.322 50.6639 281.322 50.6631 281.322 50.6624C281.322 50.6616 281.322 50.6609 281.322 50.6601C281.322 50.6594 281.322 50.6586 281.322 50.6579C281.322 50.6571 281.322 50.6563 281.321 50.6556C281.321 50.6548 281.321 50.6541 281.321 50.6533C281.321 50.6525 281.321 50.6518 281.321 50.651C281.321 50.6502 281.321 50.6495 281.321 50.6487C281.321 50.6479 281.321 50.6471 281.32 50.6464C281.32 50.6456 281.32 50.6448 281.32 50.644C281.32 50.6433 281.32 50.6425 281.32 50.6417C281.32 50.6409 281.32 50.6401 281.32 50.6393C281.32 50.6386 281.32 50.6378 281.319 50.637C281.319 50.6362 281.319 50.6354 281.319 50.6346C281.319 50.6338 281.319 50.633 281.319 50.6322C281.319 50.6314 281.319 50.6306 281.319 50.6298C281.319 50.629 281.319 50.6282 281.318 50.6274C281.318 50.6266 281.318 50.6258 281.318 50.625C281.318 50.6242 281.318 50.6234 281.318 50.6226C281.318 50.6217 281.318 50.6209 281.318 50.6201C281.318 50.6193 281.318 50.6185 281.317 50.6177C281.317 50.6169 281.317 50.616 281.317 50.6152C281.317 50.6144 281.317 50.6136 281.317 50.6127C281.317 50.6119 281.317 50.6111 281.317 50.6102C281.317 50.6094 281.316 50.6086 281.316 50.6077C281.316 50.6069 281.316 50.6061 281.316 50.6052C281.316 50.6044 281.316 50.6036 281.316 50.6027C281.316 50.6019 281.316 50.601 281.316 50.6002C281.315 50.5994 281.315 50.5985 281.315 50.5977C281.315 50.5968 281.315 50.596 281.315 50.5951C281.315 50.5943 281.315 50.5934 281.315 50.5926C281.315 50.5917 281.315 50.5908 281.315 50.59C281.314 50.5891 281.314 50.5883 281.314 50.5874C281.314 50.5865 281.314 50.5857 281.314 50.5848C281.314 50.5839 281.314 50.5831 281.314 50.5822C281.314 50.5813 281.314 50.5805 281.313 50.5796C281.313 50.5787 281.313 50.5778 281.313 50.577C281.313 50.5761 281.313 50.5752 281.313 50.5743C281.313 50.5734 281.313 50.5726 281.313 50.5717C281.312 50.5708 281.312 50.5699 281.312 50.569C281.312 50.5681 281.312 50.5672 281.312 50.5664C281.312 50.5655 281.312 50.5646 281.312 50.5637C281.312 50.5628 281.312 50.5619 281.311 50.561C281.311 50.5601 281.311 50.5592 281.311 50.5583C281.311 50.5574 281.311 50.5565 281.311 50.5556C281.311 50.5547 281.311 50.5538 281.311 50.5528C281.311 50.5519 281.31 50.551 281.31 50.5501C281.31 50.5492 281.31 50.5483 281.31 50.5474C281.31 50.5464 281.31 50.5455 281.31 50.5446C281.31 50.5437 281.31 50.5428 281.309 50.5418C281.309 50.5409 281.309 50.54 281.309 50.5391C281.309 50.5381 281.309 50.5372 281.309 50.5363C281.309 50.5353 281.309 50.5344 281.309 50.5335C281.308 50.5325 281.308 50.5316 281.308 50.5307C281.308 50.5297 281.308 50.5288 281.308 50.5278C281.308 50.5269 281.308 50.526 281.308 50.525C281.308 50.5241 281.307 50.5231 281.307 50.5222C281.307 50.5212 281.307 50.5203 281.307 50.5193C281.307 50.5184 281.307 50.5174 281.307 50.5164C281.307 50.5155 281.307 50.5145 281.306 50.5136C281.306 50.5126 281.306 50.5117 281.306 50.5107C281.306 50.5097 281.306 50.5088 281.306 50.5078C281.306 50.5068 281.306 50.5059 281.306 50.5049C281.305 50.5039 281.305 50.5029 281.305 50.502C281.305 50.501 281.305 50.5 281.305 50.499C281.305 50.4981 281.305 50.4971 281.305 50.4961C281.305 50.4951 281.304 50.4941 281.304 50.4931C281.304 50.4922 281.304 50.4912 281.304 50.4902C281.304 50.4892 281.304 50.4882 281.304 50.4872C281.304 50.4862 281.303 50.4852 281.303 50.4842C281.303 50.4832 281.303 50.4822 281.303 50.4812C281.303 50.4802 281.303 50.4792 281.303 50.4782C281.303 50.4772 281.303 50.4762 281.302 50.4752C281.302 50.4742 281.302 50.4732 281.302 50.4722C281.302 50.4712 281.302 50.4702 281.302 50.4691C281.302 50.4681 281.302 50.4671 281.301 50.4661C281.301 50.4651 281.301 50.4641 281.301 50.463C281.301 50.462 281.301 50.461 281.301 50.46C281.301 50.4589 281.301 50.4579 281.301 50.4569C281.3 50.4558 281.3 50.4548 281.3 50.4538C281.3 50.4527 281.3 50.4517 281.3 50.4507C281.3 50.4496 281.3 50.4486 281.3 50.4476C281.299 50.4465 281.299 50.4455 281.299 50.4444C281.299 50.4434 281.299 50.4423 281.299 50.4413C281.299 50.4403 281.299 50.4392 281.299 50.4381C281.298 50.4371 281.298 50.4361 281.298 50.435C281.298 50.4339 281.298 50.4329 281.298 50.4318C281.298 50.4308 281.298 50.4297 281.298 50.4286C281.297 50.4276 281.297 50.4265 281.297 50.4255C281.297 50.4244 281.297 50.4233 281.297 50.4222C281.297 50.4212 281.297 50.4201 281.297 50.419C281.296 50.418 281.296 50.4169 281.296 50.4158C281.296 50.4147 281.296 50.4137 281.296 50.4126C281.296 50.4115 281.296 50.4104 281.296 50.4093C281.295 50.4082 281.295 50.4072 281.295 50.4061C281.295 50.405 281.295 50.4039 281.295 50.4028C281.295 50.4017 281.295 50.4006 281.294 50.3995C281.294 50.3984 281.294 50.3973 281.294 50.3962C281.294 50.3951 281.294 50.3941 281.294 50.3929C281.294 50.3918 281.294 50.3907 281.293 50.3896C281.293 50.3885 281.293 50.3874 281.293 50.3863C281.293 50.3852 281.293 50.3841 281.293 50.383C281.293 50.3819 281.292 50.3808 281.292 50.3796C281.292 50.3785 281.292 50.3774 281.292 50.3763C281.292 50.3752 281.292 50.374 281.292 50.3729C281.292 50.3718 281.291 50.3707 281.291 50.3695C281.291 50.3684 281.291 50.3673 281.291 50.3662C281.291 50.365 281.291 50.3639 281.291 50.3628C281.29 50.3616 281.29 50.3605 281.29 50.3594C281.29 50.3582 281.29 50.3571 281.29 50.3559C281.29 50.3548 281.29 50.3536 281.29 50.3525C281.289 50.3514 281.289 50.3502 281.289 50.3491C281.289 50.3479 281.289 50.3468 281.289 50.3456C281.289 50.3445 281.289 50.3433 281.288 50.3421C281.288 50.341 281.288 50.3398 281.288 50.3387C281.288 50.3375 281.288 50.3363 281.288 50.3352C281.288 50.334 281.287 50.3329 281.287 50.3317C281.287 50.3305 281.287 50.3294 281.287 50.3282C281.287 50.327 281.287 50.3258 281.287 50.3247C281.286 50.3235 281.286 50.3223 281.286 50.3211C281.286 50.32 281.286 50.3188 281.286 50.3176C281.286 50.3164 281.286 50.3152 281.285 50.3141C281.285 50.3129 281.285 50.3117 281.285 50.3105C281.285 50.3093 281.285 50.3081 281.285 50.3069C281.285 50.3057 281.284 50.3045 281.284 50.3033C281.284 50.3021 281.284 50.3009 281.284 50.2997C281.284 50.2985 281.284 50.2973 281.284 50.2961C281.283 50.2949 281.283 50.2937 281.283 50.2925C281.283 50.2913 281.283 50.2901 281.283 50.2889C281.283 50.2877 281.283 50.2865 281.282 50.2853C281.282 50.284 281.282 50.2828 281.282 50.2816C281.282 50.2804 281.282 50.2792 281.282 50.278C281.282 50.2767 281.281 50.2755 281.281 50.2743C281.281 50.2731 281.281 50.2718 281.281 50.2706C281.281 50.2694 281.281 50.2682 281.281 50.2669C281.28 50.2657 281.28 50.2645 281.28 50.2632C281.28 50.262 281.28 50.2607 281.28 50.2595C281.28 50.2583 281.279 50.257 281.279 50.2558C281.279 50.2545 281.279 50.2533 281.279 50.252C281.279 50.2508 281.279 50.2495 281.279 50.2483C281.278 50.247 281.278 50.2458 281.278 50.2445C281.278 50.2433 281.278 50.242 281.278 50.2408C281.278 50.2395 281.277 50.2383 281.277 50.237C281.277 50.2357 281.277 50.2345 281.277 50.2332C281.277 50.2319 281.277 50.2307 281.277 50.2294C281.276 50.2281 281.276 50.2269 281.276 50.2256C281.276 50.2243 281.276 50.2231 281.276 50.2218C281.276 50.2205 281.275 50.2192 281.275 50.2179C281.275 50.2167 281.275 50.2154 281.275 50.2141C281.275 50.2128 281.275 50.2115 281.275 50.2103C281.274 50.209 281.274 50.2077 281.274 50.2064C281.274 50.2051 281.274 50.2038 281.274 50.2025C281.274 50.2012 281.273 50.1999 281.273 50.1986C281.273 50.1973 281.273 50.196 281.273 50.1947C281.273 50.1934 281.273 50.1921 281.272 50.1908C281.272 50.1895 281.272 50.1882 281.272 50.1869C281.272 50.1856 281.272 50.1843 281.272 50.183C281.272 50.1817 281.271 50.1803 281.271 50.179C281.271 50.1777 281.271 50.1764 281.271 50.1751C281.271 50.1738 281.271 50.1724 281.27 50.1711C281.27 50.1698 281.27 50.1685 281.27 50.1671C281.27 50.1658 281.27 50.1645 281.27 50.1632C281.269 50.1618 281.269 50.1605 281.269 50.1592C281.269 50.1578 281.269 50.1565 281.269 50.1552C281.269 50.1538 281.268 50.1525 281.268 50.1511C281.268 50.1498 281.268 50.1485 281.268 50.1471C281.268 50.1458 281.268 50.1444 281.267 50.1431C281.267 50.1417 281.267 50.1404 281.267 50.139C281.267 50.1377 281.267 50.1363 281.267 50.135C281.266 50.1336 281.266 50.1322 281.266 50.1309C281.266 50.1295 281.266 50.1282 281.266 50.1268C281.266 50.1254 281.265 50.1241 281.265 50.1227C281.265 50.1213 281.265 50.12 281.265 50.1186C281.265 50.1172 281.265 50.1159 281.264 50.1145C281.264 50.1131 281.264 50.1117 281.264 50.1104C281.264 50.109 281.264 50.1076 281.264 50.1062C281.263 50.1048 281.263 50.1035 281.263 50.1021C281.263 50.1007 281.263 50.0993 281.263 50.0979C281.263 50.0965 281.262 50.0951 281.262 50.0938C281.262 50.0924 281.262 50.091 281.262 50.0896C281.262 50.0882 281.262 50.0868 281.261 50.0854C281.261 50.084 281.261 50.0826 281.261 50.0812C281.261 50.0798 281.261 50.0784 281.26 50.077C281.26 50.0756 281.26 50.0742 281.26 50.0727C281.26 50.0713 281.26 50.0699 281.26 50.0685C281.259 50.0671 281.259 50.0657 281.259 50.0643C281.259 50.0628 281.259 50.0614 281.259 50.06C281.259 50.0586 281.258 50.0572 281.258 50.0557C281.258 50.0543 281.258 50.0529 281.258 50.0515C281.258 50.05 281.258 50.0486 281.257 50.0472C281.257 50.0457 281.257 50.0443 281.257 50.0429C281.257 50.0414 281.257 50.04 281.256 50.0386C281.256 50.0371 281.256 50.0357 281.256 50.0342C281.256 50.0328 281.256 50.0313 281.256 50.0299C281.255 50.0285 281.255 50.027 281.255 50.0256C281.255 50.0241 281.255 50.0227 281.255 50.0212C281.254 50.0198 281.254 50.0183 281.254 50.0168C281.254 50.0154 281.254 50.0139 281.254 50.0125C281.254 50.011 281.253 50.0095 281.253 50.0081C281.253 50.0066 281.253 50.0051 281.253 50.0037C281.253 50.0022 281.253 50.0007 281.252 49.9993C281.252 49.9978 281.252 49.9963 281.252 49.9949C281.252 49.9934 281.252 49.9919 281.251 49.9904C281.251 49.9889 281.251 49.9875 281.251 49.986C281.251 49.9845 281.251 49.983 281.25 49.9815C281.25 49.98 281.25 49.9786 281.25 49.9771C281.25 49.9756 281.25 49.9741 281.25 49.9726C281.249 49.9711 281.249 49.9696 281.249 49.9681C281.249 49.9666 281.249 49.9651 281.249 49.9636C281.248 49.9621 281.248 49.9606 281.248 49.9591C281.248 49.9576 281.248 49.9561 281.248 49.9546C281.247 49.9531 281.247 49.9516 281.247 49.9501C281.247 49.9486 281.247 49.947 281.247 49.9455C281.247 49.944 281.246 49.9425 281.246 49.941C281.246 49.9395 281.246 49.9379 281.246 49.9364C281.246 49.9349 281.245 49.9334 281.245 49.9318C281.245 49.9303 281.245 49.9288 281.245 49.9273C281.245 49.9257 281.244 49.9242 281.244 49.9227C281.244 49.9211 281.244 49.9196 281.244 49.9181C281.244 49.9165 281.243 49.915 281.243 49.9134C281.243 49.9119 281.243 49.9104 281.243 49.9088C281.243 49.9073 281.242 49.9057 281.242 49.9042C281.242 49.9026 281.242 49.9011 281.242 49.8995C281.242 49.898 281.242 49.8964 281.241 49.8949C281.241 49.8933 281.241 49.8918 281.241 49.8902C281.241 49.8886 281.241 49.8871 281.24 49.8855C281.24 49.884 281.24 49.8824 281.24 49.8808C281.24 49.8793 281.24 49.8777 281.239 49.8761C281.239 49.8746 281.239 49.873 281.239 49.8714C281.239 49.8699 281.239 49.8683 281.238 49.8667C281.238 49.8651 281.238 49.8635 281.238 49.862C281.238 49.8604 281.238 49.8588 281.237 49.8572C281.237 49.8556 281.237 49.854 281.237 49.8525C281.237 49.8509 281.237 49.8493 281.236 49.8477C281.236 49.8461 281.236 49.8445 281.236 49.8429C281.236 49.8413 281.236 49.8397 281.235 49.8381C281.235 49.8365 281.235 49.8349 281.235 49.8333C281.235 49.8317 281.235 49.8301 281.234 49.8285C281.234 49.8269 281.234 49.8253 281.234 49.8237C281.234 49.8221 281.234 49.8205 281.233 49.8189C281.233 49.8172 281.233 49.8156 281.233 49.814C281.233 49.8124 281.232 49.8108 281.232 49.8092C281.232 49.8075 281.232 49.8059 281.232 49.8043C281.232 49.8027 281.231 49.801 281.231 49.7994C281.231 49.7978 281.231 49.7962 281.231 49.7945C281.231 49.7929 281.23 49.7913 281.23 49.7896C281.23 49.788 281.23 49.7864 281.23 49.7847C281.23 49.7831 281.229 49.7814 281.229 49.7798C281.229 49.7782 281.229 49.7765 281.229 49.7749C281.229 49.7732 281.228 49.7716 281.228 49.7699C281.228 49.7683 281.228 49.7666 281.228 49.765C281.228 49.7633 281.227 49.7617 281.227 49.76C281.227 49.7584 281.227 49.7567 281.227 49.7551C281.226 49.7534 281.226 49.7517 281.226 49.7501C281.226 49.7484 281.226 49.7467 281.226 49.7451C281.225 49.7434 281.225 49.7417 281.225 49.7401C281.225 49.7384 281.225 49.7367 281.225 49.735C281.224 49.7334 281.224 49.7317 281.224 49.73C281.224 49.7283 281.224 49.7267 281.223 49.725C281.223 49.7233 281.223 49.7216 281.223 49.7199C281.223 49.7182 281.223 49.7166 281.222 49.7149C281.222 49.7132 281.222 49.7115 281.222 49.7098C281.222 49.7081 281.221 49.7064 281.221 49.7047C281.221 49.703 281.221 49.7013 281.221 49.6996C281.221 49.6979 281.22 49.6962 281.22 49.6945C281.22 49.6928 281.22 49.6911 281.22 49.6894C281.22 49.6877 281.219 49.686 281.219 49.6843C281.219 49.6826 281.219 49.6808 281.219 49.6791C281.218 49.6774 281.218 49.6757 281.218 49.674C281.218 49.6723 281.218 49.6705 281.218 49.6688C281.217 49.6671 281.217 49.6654 281.217 49.6637C281.217 49.6619 281.217 49.6602 281.216 49.6585C281.216 49.6568 281.216 49.655 281.216 49.6533C281.216 49.6516 281.216 49.6498 281.215 49.6481C281.215 49.6463 281.215 49.6446 281.215 49.6429C281.215 49.6411 281.214 49.6394 281.214 49.6376C281.214 49.6359 281.214 49.6342 281.214 49.6324C281.214 49.6307 281.213 49.6289 281.213 49.6272C281.213 49.6254 281.213 49.6237 281.213 49.6219C281.212 49.6202 281.212 49.6184 281.212 49.6166C281.212 49.6149 281.212 49.6131 281.211 49.6114C281.211 49.6096 281.211 49.6078 281.211 49.6061C281.211 49.6043 281.211 49.6025 281.21 49.6008C281.21 49.599 281.21 49.5972 281.21 49.5955C281.21 49.5937 281.209 49.5919 281.209 49.5901C281.209 49.5884 281.209 49.5866 281.209 49.5848C281.209 49.583 281.208 49.5813 281.208 49.5795C281.208 49.5777 281.208 49.5759 281.208 49.5741C281.207 49.5723 281.207 49.5705 281.207 49.5687C281.207 49.567 281.207 49.5652 281.206 49.5634C281.206 49.5616 281.206 49.5598 281.206 49.558C281.206 49.5562 281.206 49.5544 281.205 49.5526C281.205 49.5508 281.205 49.549 281.205 49.5472C281.205 49.5454 281.204 49.5436 281.204 49.5418C281.204 49.5399 281.204 49.5381 281.204 49.5363C281.203 49.5345 281.203 49.5327 281.203 49.5309C281.203 49.5291 281.203 49.5273 281.202 49.5254C281.202 49.5236 281.202 49.5218 281.202 49.52C281.202 49.5182 281.202 49.5163 281.201 49.5145C281.201 49.5127 281.201 49.5108 281.201 49.509C281.201 49.5072 281.2 49.5053 281.2 49.5035C281.2 49.5017 281.2 49.4998 281.2 49.498C281.199 49.4962 281.199 49.4943 281.199 49.4925C281.199 49.4907 281.199 49.4888 281.198 49.487C281.198 49.4851 281.198 49.4833 281.198 49.4814C281.198 49.4796 281.197 49.4777 281.197 49.4759C281.197 49.474 281.197 49.4722 281.197 49.4703L279.208 49.6797C279.208 49.6815 279.208 49.6834 279.208 49.6852C279.208 49.6871 279.209 49.6889 279.209 49.6908C279.209 49.6926 279.209 49.6945 279.209 49.6963C279.21 49.6982 279.21 49.7 279.21 49.7019C279.21 49.7037 279.21 49.7055 279.211 49.7074C279.211 49.7092 279.211 49.7111 279.211 49.7129C279.211 49.7147 279.212 49.7166 279.212 49.7184C279.212 49.7202 279.212 49.722 279.212 49.7239C279.212 49.7257 279.213 49.7275 279.213 49.7293C279.213 49.7312 279.213 49.733 279.213 49.7348C279.214 49.7366 279.214 49.7384 279.214 49.7403C279.214 49.7421 279.214 49.7439 279.215 49.7457C279.215 49.7475 279.215 49.7493 279.215 49.7511C279.215 49.7529 279.216 49.7547 279.216 49.7566C279.216 49.7584 279.216 49.7602 279.216 49.762C279.216 49.7638 279.217 49.7656 279.217 49.7674C279.217 49.7692 279.217 49.771 279.217 49.7727C279.218 49.7745 279.218 49.7763 279.218 49.7781C279.218 49.7799 279.218 49.7817 279.219 49.7835C279.219 49.7853 279.219 49.7871 279.219 49.7888C279.219 49.7906 279.22 49.7924 279.22 49.7942C279.22 49.796 279.22 49.7977 279.22 49.7995C279.22 49.8013 279.221 49.8031 279.221 49.8048C279.221 49.8066 279.221 49.8084 279.221 49.8102C279.222 49.8119 279.222 49.8137 279.222 49.8155C279.222 49.8172 279.222 49.819 279.223 49.8207C279.223 49.8225 279.223 49.8243 279.223 49.826C279.223 49.8278 279.223 49.8295 279.224 49.8313C279.224 49.833 279.224 49.8348 279.224 49.8365C279.224 49.8383 279.225 49.84 279.225 49.8418C279.225 49.8435 279.225 49.8453 279.225 49.847C279.225 49.8488 279.226 49.8505 279.226 49.8522C279.226 49.854 279.226 49.8557 279.226 49.8575C279.227 49.8592 279.227 49.8609 279.227 49.8627C279.227 49.8644 279.227 49.8661 279.227 49.8679C279.228 49.8696 279.228 49.8713 279.228 49.873C279.228 49.8748 279.228 49.8765 279.229 49.8782C279.229 49.8799 279.229 49.8816 279.229 49.8834C279.229 49.8851 279.229 49.8868 279.23 49.8885C279.23 49.8902 279.23 49.8919 279.23 49.8936C279.23 49.8954 279.231 49.8971 279.231 49.8988C279.231 49.9005 279.231 49.9022 279.231 49.9039C279.231 49.9056 279.232 49.9073 279.232 49.909C279.232 49.9107 279.232 49.9124 279.232 49.9141C279.232 49.9158 279.233 49.9175 279.233 49.9192C279.233 49.9209 279.233 49.9225 279.233 49.9242C279.234 49.9259 279.234 49.9276 279.234 49.9293C279.234 49.931 279.234 49.9327 279.234 49.9343C279.235 49.936 279.235 49.9377 279.235 49.9394C279.235 49.9411 279.235 49.9427 279.236 49.9444C279.236 49.9461 279.236 49.9478 279.236 49.9494C279.236 49.9511 279.236 49.9528 279.237 49.9544C279.237 49.9561 279.237 49.9578 279.237 49.9594C279.237 49.9611 279.237 49.9628 279.238 49.9644C279.238 49.9661 279.238 49.9677 279.238 49.9694C279.238 49.9711 279.238 49.9727 279.239 49.9744C279.239 49.976 279.239 49.9777 279.239 49.9793C279.239 49.981 279.24 49.9826 279.24 49.9843C279.24 49.9859 279.24 49.9875 279.24 49.9892C279.24 49.9908 279.241 49.9925 279.241 49.9941C279.241 49.9957 279.241 49.9974 279.241 49.999C279.241 50.0006 279.242 50.0023 279.242 50.0039C279.242 50.0055 279.242 50.0072 279.242 50.0088C279.242 50.0104 279.243 50.012 279.243 50.0137C279.243 50.0153 279.243 50.0169 279.243 50.0185C279.243 50.0202 279.244 50.0218 279.244 50.0234C279.244 50.025 279.244 50.0266 279.244 50.0282C279.245 50.0298 279.245 50.0315 279.245 50.0331C279.245 50.0347 279.245 50.0363 279.245 50.0379C279.246 50.0395 279.246 50.0411 279.246 50.0427C279.246 50.0443 279.246 50.0459 279.246 50.0475C279.247 50.0491 279.247 50.0507 279.247 50.0523C279.247 50.0539 279.247 50.0555 279.247 50.0571C279.248 50.0587 279.248 50.0602 279.248 50.0618C279.248 50.0634 279.248 50.065 279.248 50.0666C279.249 50.0682 279.249 50.0698 279.249 50.0713C279.249 50.0729 279.249 50.0745 279.249 50.0761C279.25 50.0776 279.25 50.0792 279.25 50.0808C279.25 50.0824 279.25 50.0839 279.25 50.0855C279.251 50.0871 279.251 50.0886 279.251 50.0902C279.251 50.0918 279.251 50.0933 279.251 50.0949C279.252 50.0965 279.252 50.098 279.252 50.0996C279.252 50.1011 279.252 50.1027 279.252 50.1042C279.253 50.1058 279.253 50.1074 279.253 50.1089C279.253 50.1105 279.253 50.112 279.253 50.1136C279.253 50.1151 279.254 50.1166 279.254 50.1182C279.254 50.1197 279.254 50.1213 279.254 50.1228C279.254 50.1244 279.255 50.1259 279.255 50.1274C279.255 50.129 279.255 50.1305 279.255 50.132C279.255 50.1336 279.256 50.1351 279.256 50.1366C279.256 50.1382 279.256 50.1397 279.256 50.1412C279.256 50.1427 279.257 50.1443 279.257 50.1458C279.257 50.1473 279.257 50.1488 279.257 50.1503C279.257 50.1519 279.258 50.1534 279.258 50.1549C279.258 50.1564 279.258 50.1579 279.258 50.1594C279.258 50.1609 279.258 50.1625 279.259 50.164C279.259 50.1655 279.259 50.167 279.259 50.1685C279.259 50.17 279.259 50.1715 279.26 50.173C279.26 50.1745 279.26 50.176 279.26 50.1775C279.26 50.179 279.26 50.1805 279.261 50.182C279.261 50.1835 279.261 50.185 279.261 50.1864C279.261 50.1879 279.261 50.1894 279.261 50.1909C279.262 50.1924 279.262 50.1939 279.262 50.1954C279.262 50.1968 279.262 50.1983 279.262 50.1998C279.263 50.2013 279.263 50.2028 279.263 50.2042C279.263 50.2057 279.263 50.2072 279.263 50.2086C279.263 50.2101 279.264 50.2116 279.264 50.2131C279.264 50.2145 279.264 50.216 279.264 50.2175C279.264 50.2189 279.265 50.2204 279.265 50.2218C279.265 50.2233 279.265 50.2248 279.265 50.2262C279.265 50.2277 279.265 50.2291 279.266 50.2306C279.266 50.232 279.266 50.2335 279.266 50.2349C279.266 50.2364 279.266 50.2378 279.267 50.2393C279.267 50.2407 279.267 50.2422 279.267 50.2436C279.267 50.2451 279.267 50.2465 279.267 50.2479C279.268 50.2494 279.268 50.2508 279.268 50.2522C279.268 50.2537 279.268 50.2551 279.268 50.2565C279.269 50.258 279.269 50.2594 279.269 50.2608C279.269 50.2623 279.269 50.2637 279.269 50.2651C279.269 50.2665 279.27 50.268 279.27 50.2694C279.27 50.2708 279.27 50.2722 279.27 50.2736C279.27 50.275 279.27 50.2765 279.271 50.2779C279.271 50.2793 279.271 50.2807 279.271 50.2821C279.271 50.2835 279.271 50.2849 279.272 50.2863C279.272 50.2877 279.272 50.2891 279.272 50.2906C279.272 50.292 279.272 50.2934 279.272 50.2948C279.273 50.2962 279.273 50.2975 279.273 50.2989C279.273 50.3003 279.273 50.3017 279.273 50.3031C279.273 50.3045 279.274 50.3059 279.274 50.3073C279.274 50.3087 279.274 50.3101 279.274 50.3115C279.274 50.3128 279.274 50.3142 279.275 50.3156C279.275 50.317 279.275 50.3184 279.275 50.3197C279.275 50.3211 279.275 50.3225 279.275 50.3239C279.276 50.3252 279.276 50.3266 279.276 50.328C279.276 50.3293 279.276 50.3307 279.276 50.3321C279.276 50.3335 279.277 50.3348 279.277 50.3362C279.277 50.3375 279.277 50.3389 279.277 50.3403C279.277 50.3416 279.277 50.343 279.278 50.3443C279.278 50.3457 279.278 50.347 279.278 50.3484C279.278 50.3497 279.278 50.3511 279.278 50.3524C279.279 50.3538 279.279 50.3551 279.279 50.3565C279.279 50.3578 279.279 50.3592 279.279 50.3605C279.279 50.3618 279.28 50.3632 279.28 50.3645C279.28 50.3659 279.28 50.3672 279.28 50.3685C279.28 50.3699 279.28 50.3712 279.281 50.3725C279.281 50.3739 279.281 50.3752 279.281 50.3765C279.281 50.3778 279.281 50.3792 279.281 50.3805C279.282 50.3818 279.282 50.3831 279.282 50.3844C279.282 50.3858 279.282 50.3871 279.282 50.3884C279.282 50.3897 279.283 50.391 279.283 50.3923C279.283 50.3937 279.283 50.395 279.283 50.3963C279.283 50.3976 279.283 50.3989 279.283 50.4002C279.284 50.4015 279.284 50.4028 279.284 50.4041C279.284 50.4054 279.284 50.4067 279.284 50.408C279.284 50.4093 279.285 50.4106 279.285 50.4119C279.285 50.4132 279.285 50.4145 279.285 50.4158C279.285 50.417 279.285 50.4183 279.286 50.4196C279.286 50.4209 279.286 50.4222 279.286 50.4235C279.286 50.4248 279.286 50.426 279.286 50.4273C279.286 50.4286 279.287 50.4299 279.287 50.4312C279.287 50.4324 279.287 50.4337 279.287 50.435C279.287 50.4362 279.287 50.4375 279.288 50.4388C279.288 50.44 279.288 50.4413 279.288 50.4426C279.288 50.4438 279.288 50.4451 279.288 50.4464C279.288 50.4476 279.289 50.4489 279.289 50.4501C279.289 50.4514 279.289 50.4527 279.289 50.4539C279.289 50.4552 279.289 50.4564 279.29 50.4577C279.29 50.4589 279.29 50.4602 279.29 50.4614C279.29 50.4627 279.29 50.4639 279.29 50.4652C279.29 50.4664 279.291 50.4676 279.291 50.4689C279.291 50.4701 279.291 50.4714 279.291 50.4726C279.291 50.4738 279.291 50.4751 279.292 50.4763C279.292 50.4775 279.292 50.4788 279.292 50.48C279.292 50.4812 279.292 50.4824 279.292 50.4837C279.292 50.4849 279.293 50.4861 279.293 50.4873C279.293 50.4886 279.293 50.4898 279.293 50.491C279.293 50.4922 279.293 50.4934 279.293 50.4946C279.294 50.4958 279.294 50.4971 279.294 50.4983C279.294 50.4995 279.294 50.5007 279.294 50.5019C279.294 50.5031 279.294 50.5043 279.295 50.5055C279.295 50.5067 279.295 50.5079 279.295 50.5091C279.295 50.5103 279.295 50.5115 279.295 50.5127C279.295 50.5139 279.296 50.5151 279.296 50.5163C279.296 50.5175 279.296 50.5187 279.296 50.5199C279.296 50.5211 279.296 50.5222 279.296 50.5234C279.297 50.5246 279.297 50.5258 279.297 50.527C279.297 50.5282 279.297 50.5293 279.297 50.5305C279.297 50.5317 279.297 50.5329 279.298 50.534C279.298 50.5352 279.298 50.5364 279.298 50.5376C279.298 50.5387 279.298 50.5399 279.298 50.5411C279.298 50.5422 279.299 50.5434 279.299 50.5446C279.299 50.5457 279.299 50.5469 279.299 50.548C279.299 50.5492 279.299 50.5504 279.299 50.5515C279.3 50.5527 279.3 50.5538 279.3 50.555C279.3 50.5561 279.3 50.5573 279.3 50.5584C279.3 50.5596 279.3 50.5607 279.301 50.5619C279.301 50.563 279.301 50.5642 279.301 50.5653C279.301 50.5664 279.301 50.5676 279.301 50.5687C279.301 50.5699 279.301 50.571 279.302 50.5721C279.302 50.5733 279.302 50.5744 279.302 50.5755C279.302 50.5767 279.302 50.5778 279.302 50.5789C279.302 50.58 279.303 50.5812 279.303 50.5823C279.303 50.5834 279.303 50.5845 279.303 50.5857C279.303 50.5868 279.303 50.5879 279.303 50.589C279.303 50.5901 279.304 50.5912 279.304 50.5924C279.304 50.5935 279.304 50.5946 279.304 50.5957C279.304 50.5968 279.304 50.5979 279.304 50.599C279.305 50.6001 279.305 50.6012 279.305 50.6023C279.305 50.6034 279.305 50.6045 279.305 50.6056C279.305 50.6067 279.305 50.6078 279.305 50.6089C279.306 50.61 279.306 50.6111 279.306 50.6122C279.306 50.6133 279.306 50.6144 279.306 50.6154C279.306 50.6165 279.306 50.6176 279.306 50.6187C279.307 50.6198 279.307 50.6209 279.307 50.622C279.307 50.623 279.307 50.6241 279.307 50.6252C279.307 50.6263 279.307 50.6273 279.308 50.6284C279.308 50.6295 279.308 50.6306 279.308 50.6316C279.308 50.6327 279.308 50.6338 279.308 50.6348C279.308 50.6359 279.308 50.637 279.309 50.638C279.309 50.6391 279.309 50.6401 279.309 50.6412C279.309 50.6423 279.309 50.6433 279.309 50.6444C279.309 50.6454 279.309 50.6465 279.31 50.6475C279.31 50.6486 279.31 50.6496 279.31 50.6507C279.31 50.6517 279.31 50.6528 279.31 50.6538C279.31 50.6549 279.31 50.6559 279.311 50.6569C279.311 50.658 279.311 50.659 279.311 50.66C279.311 50.6611 279.311 50.6621 279.311 50.6632C279.311 50.6642 279.311 50.6652 279.311 50.6662C279.312 50.6673 279.312 50.6683 279.312 50.6693C279.312 50.6703 279.312 50.6714 279.312 50.6724C279.312 50.6734 279.312 50.6744 279.312 50.6755C279.313 50.6765 279.313 50.6775 279.313 50.6785C279.313 50.6795 279.313 50.6805 279.313 50.6815C279.313 50.6826 279.313 50.6836 279.313 50.6846C279.314 50.6856 279.314 50.6866 279.314 50.6876C279.314 50.6886 279.314 50.6896 279.314 50.6906C279.314 50.6916 279.314 50.6926 279.314 50.6936C279.314 50.6946 279.315 50.6956 279.315 50.6966C279.315 50.6976 279.315 50.6986 279.315 50.6996C279.315 50.7005 279.315 50.7015 279.315 50.7025C279.315 50.7035 279.316 50.7045 279.316 50.7055C279.316 50.7064 279.316 50.7074 279.316 50.7084C279.316 50.7094 279.316 50.7104 279.316 50.7113C279.316 50.7123 279.316 50.7133 279.317 50.7143C279.317 50.7152 279.317 50.7162 279.317 50.7172C279.317 50.7181 279.317 50.7191 279.317 50.7201C279.317 50.721 279.317 50.722 279.317 50.7229C279.318 50.7239 279.318 50.7249 279.318 50.7258C279.318 50.7268 279.318 50.7277 279.318 50.7287C279.318 50.7296 279.318 50.7306 279.318 50.7315C279.318 50.7325 279.319 50.7334 279.319 50.7344C279.319 50.7353 279.319 50.7363 279.319 50.7372C279.319 50.7382 279.319 50.7391 279.319 50.74C279.319 50.741 279.319 50.7419 279.32 50.7429C279.32 50.7438 279.32 50.7447 279.32 50.7457C279.32 50.7466 279.32 50.7475 279.32 50.7484C279.32 50.7494 279.32 50.7503 279.32 50.7512C279.321 50.7521 279.321 50.7531 279.321 50.754C279.321 50.7549 279.321 50.7558 279.321 50.7567C279.321 50.7577 279.321 50.7586 279.321 50.7595C279.321 50.7604 279.322 50.7613 279.322 50.7622C279.322 50.7631 279.322 50.764 279.322 50.7649C279.322 50.7658 279.322 50.7667 279.322 50.7677C279.322 50.7686 279.322 50.7695 279.322 50.7704C279.323 50.7713 279.323 50.7721 279.323 50.773C279.323 50.7739 279.323 50.7748 279.323 50.7757C279.323 50.7766 279.323 50.7775 279.323 50.7784C279.323 50.7793 279.323 50.7802 279.324 50.7811C279.324 50.7819 279.324 50.7828 279.324 50.7837C279.324 50.7846 279.324 50.7855 279.324 50.7863C279.324 50.7872 279.324 50.7881 279.324 50.789C279.324 50.7898 279.325 50.7907 279.325 50.7916C279.325 50.7924 279.325 50.7933 279.325 50.7942C279.325 50.795 279.325 50.7959 279.325 50.7968C279.325 50.7976 279.325 50.7985 279.326 50.7994C279.326 50.8002 279.326 50.8011 279.326 50.8019C279.326 50.8028 279.326 50.8036 279.326 50.8045C279.326 50.8053 279.326 50.8062 279.326 50.807C279.326 50.8079 279.326 50.8087 279.327 50.8096C279.327 50.8104 279.327 50.8113 279.327 50.8121C279.327 50.8129 279.327 50.8138 279.327 50.8146C279.327 50.8155 279.327 50.8163 279.327 50.8171C279.327 50.818 279.328 50.8188 279.328 50.8196C279.328 50.8204 279.328 50.8213 279.328 50.8221C279.328 50.8229 279.328 50.8238 279.328 50.8246C279.328 50.8254 279.328 50.8262 279.328 50.827C279.328 50.8279 279.329 50.8287 279.329 50.8295C279.329 50.8303 279.329 50.8311 279.329 50.8319C279.329 50.8327 279.329 50.8336 279.329 50.8344C279.329 50.8352 279.329 50.836 279.329 50.8368C279.33 50.8376 279.33 50.8384 279.33 50.8392C279.33 50.84 279.33 50.8408 279.33 50.8416C279.33 50.8424 279.33 50.8432 279.33 50.844C279.33 50.8448 279.33 50.8456 279.33 50.8464C279.331 50.8471 279.331 50.8479 279.331 50.8487C279.331 50.8495 279.331 50.8503 279.331 50.8511C279.331 50.8519 279.331 50.8526 279.331 50.8534C279.331 50.8542 279.331 50.855 279.331 50.8557C279.332 50.8565 279.332 50.8573 279.332 50.8581C279.332 50.8588 279.332 50.8596 279.332 50.8604C279.332 50.8611 279.332 50.8619 279.332 50.8627C279.332 50.8634 279.332 50.8642 279.332 50.865C279.332 50.8657 279.333 50.8665 279.333 50.8672C279.333 50.868 279.333 50.8688 279.333 50.8695C279.333 50.8703 279.333 50.871 279.333 50.8718C279.333 50.8725 279.333 50.8733 279.333 50.874C279.333 50.8748 279.334 50.8755 279.334 50.8762C279.334 50.877 279.334 50.8777 279.334 50.8785C279.334 50.8792 279.334 50.8799 279.334 50.8807C279.334 50.8814 279.334 50.8821 279.334 50.8829C279.334 50.8836 279.334 50.8843 279.335 50.8851C279.335 50.8858 279.335 50.8865 279.335 50.8872C279.335 50.888 279.335 50.8887 279.335 50.8894C279.335 50.8901 279.335 50.8909 279.335 50.8916C279.335 50.8923 279.335 50.893 279.335 50.8937C279.336 50.8944 279.336 50.8951 279.336 50.8959C279.336 50.8966 279.336 50.8973 279.336 50.898C279.336 50.8987 279.336 50.8994 279.336 50.9001C279.336 50.9008 279.336 50.9015 279.336 50.9022C279.336 50.9029 279.336 50.9036 279.337 50.9043C279.337 50.905 279.337 50.9057 279.337 50.9064C279.337 50.9071 279.337 50.9078 279.337 50.9084C279.337 50.9091 279.337 50.9098 279.337 50.9105C279.337 50.9112 279.337 50.9119 279.337 50.9126C279.337 50.9132 279.338 50.9139 279.338 50.9146C279.338 50.9153 279.338 50.9159 279.338 50.9166C279.338 50.9173 279.338 50.918 279.338 50.9186C279.338 50.9193 279.338 50.92 279.338 50.9206C279.338 50.9213 279.338 50.922 279.338 50.9226C279.339 50.9233 279.339 50.924 279.339 50.9246C279.339 50.9253 279.339 50.9259 279.339 50.9266C279.339 50.9273 279.339 50.9279 279.339 50.9286C279.339 50.9292 279.339 50.9299 279.339 50.9305C279.339 50.9312 279.339 50.9318 279.34 50.9325C279.34 50.9331 279.34 50.9337 279.34 50.9344C279.34 50.935 279.34 50.9357 279.34 50.9363C279.34 50.9369 279.34 50.9376 279.34 50.9382C279.34 50.9388 279.34 50.9395 279.34 50.9401C279.34 50.9407 279.34 50.9414 279.341 50.942C279.341 50.9426 279.341 50.9432 279.341 50.9439C279.341 50.9445 279.341 50.9451 279.341 50.9457C279.341 50.9464 279.341 50.947 279.341 50.9476C279.341 50.9482 279.341 50.9488 279.341 50.9494C279.341 50.95 279.341 50.9507 279.341 50.9513C279.342 50.9519 279.342 50.9525 279.342 50.9531C279.342 50.9537 279.342 50.9543 279.342 50.9549C279.342 50.9555 279.342 50.9561 279.342 50.9567C279.342 50.9573 279.342 50.9579 279.342 50.9585C279.342 50.9591 279.342 50.9597 279.342 50.9603C279.342 50.9608 279.343 50.9614 279.343 50.962C279.343 50.9626 279.343 50.9632 279.343 50.9638C279.343 50.9644 279.343 50.9649 279.343 50.9655C279.343 50.9661 279.343 50.9667 279.343 50.9673C279.343 50.9678 279.343 50.9684 279.343 50.969C279.343 50.9696 279.343 50.9701 279.344 50.9707C279.344 50.9713 279.344 50.9718 279.344 50.9724C279.344 50.973 279.344 50.9735 279.344 50.9741C279.344 50.9746 279.344 50.9752 279.344 50.9758C279.344 50.9763 279.344 50.9769 279.344 50.9774C279.344 50.978 279.344 50.9785 279.344 50.9791C279.344 50.9796 279.345 50.9802 279.345 50.9807C279.345 50.9813 279.345 50.9818 279.345 50.9824C279.345 50.9829 279.345 50.9835 279.345 50.984C279.345 50.9845 279.345 50.9851 279.345 50.9856C279.345 50.9862 279.345 50.9867 279.345 50.9872C279.345 50.9878 279.345 50.9883 279.345 50.9888C279.345 50.9893 279.346 50.9899 279.346 50.9904C279.346 50.9909 279.346 50.9914 279.346 50.992C279.346 50.9925 279.346 50.993 279.346 50.9935C279.346 50.994 279.346 50.9946 279.346 50.9951C279.346 50.9956 279.346 50.9961 279.346 50.9966C279.346 50.9971 279.346 50.9976 279.346 50.9981C279.346 50.9986 279.347 50.9992 279.347 50.9997C279.347 51.0002 279.347 51.0007 279.347 51.0012C279.347 51.0017 279.347 51.0022 279.347 51.0027C279.347 51.0032 279.347 51.0036 279.347 51.0041C279.347 51.0046 279.347 51.0051 279.347 51.0056C279.347 51.0061 279.347 51.0066 279.347 51.0071C279.347 51.0076 279.347 51.008 279.348 51.0085C279.348 51.009 279.348 51.0095 279.348 51.01C279.348 51.0105 279.348 51.0109 279.348 51.0114C279.348 51.0119 279.348 51.0123 279.348 51.0128C279.348 51.0133 279.348 51.0138 279.348 51.0142C279.348 51.0147 279.348 51.0152 279.348 51.0156C279.348 51.0161 279.348 51.0165 279.348 51.017C279.348 51.0175 279.349 51.0179 279.349 51.0184C279.349 51.0188 279.349 51.0193 279.349 51.0198C279.349 51.0202 279.349 51.0207 279.349 51.0211C279.349 51.0216 279.349 51.022 279.349 51.0224C279.349 51.0229 279.349 51.0233 279.349 51.0238C279.349 51.0242 279.349 51.0247 279.349 51.0251C279.349 51.0255 279.349 51.026 279.349 51.0264C279.349 51.0268 279.349 51.0273 279.35 51.0277C279.35 51.0281 279.35 51.0286 279.35 51.029C279.35 51.0294 279.35 51.0298 279.35 51.0303C279.35 51.0307 279.35 51.0311 279.35 51.0315C279.35 51.032 279.35 51.0324 279.35 51.0328C279.35 51.0332 279.35 51.0336 279.35 51.034C279.35 51.0345 279.35 51.0349 279.35 51.0353C279.35 51.0357 279.35 51.0361 279.35 51.0365C279.351 51.0369 279.351 51.0373 279.351 51.0377C279.351 51.0381 279.351 51.0385 279.351 51.0389C279.351 51.0393 279.351 51.0397 279.351 51.0401C279.351 51.0405 279.351 51.0409 279.351 51.0413C279.351 51.0417 279.351 51.0421 279.351 51.0424C279.351 51.0428 279.351 51.0432 279.351 51.0436C279.351 51.044 279.351 51.0444 279.351 51.0448C279.351 51.0451 279.351 51.0455 279.351 51.0459C279.352 51.0463 279.352 51.0466 279.352 51.047C279.352 51.0474 279.352 51.0478 279.352 51.0481C279.352 51.0485 279.352 51.0489 279.352 51.0492C279.352 51.0496 279.352 51.05 279.352 51.0503C279.352 51.0507 279.352 51.051 279.352 51.0514C279.352 51.0518 279.352 51.0521 279.352 51.0525C279.352 51.0528 279.352 51.0532 279.352 51.0535C279.352 51.0539 279.352 51.0542 279.352 51.0546C279.352 51.0549 279.352 51.0553 279.352 51.0556C279.353 51.056 279.353 51.0563 279.353 51.0567C279.353 51.057 279.353 51.0573 279.353 51.0577C279.353 51.058 279.353 51.0583 279.353 51.0587C279.353 51.059 279.353 51.0593 279.353 51.0597C279.353 51.06 279.353 51.0603 279.353 51.0607C279.353 51.061 279.353 51.0613 279.353 51.0616C279.353 51.062 279.353 51.0623 279.353 51.0626C279.353 51.0629 279.353 51.0632 279.353 51.0635C279.353 51.0639 279.353 51.0642 279.353 51.0645C279.353 51.0648 279.353 51.0651 279.354 51.0654C279.354 51.0657 279.354 51.066 279.354 51.0663C279.354 51.0666 279.354 51.0669 279.354 51.0672C279.354 51.0675 279.354 51.0678 279.354 51.0681C279.354 51.0684 279.354 51.0687 279.354 51.069C279.354 51.0693 279.354 51.0696 279.354 51.0699C279.354 51.0702 279.354 51.0705 279.354 51.0708C279.354 51.071 279.354 51.0713 279.354 51.0716C279.354 51.0719 279.354 51.0722 279.354 51.0725C279.354 51.0727 279.354 51.073 279.354 51.0733C279.354 51.0736 279.354 51.0738 279.354 51.0741C279.354 51.0744 279.354 51.0747 279.355 51.0749C279.355 51.0752 279.355 51.0755 279.355 51.0757C279.355 51.076 279.355 51.0762 279.355 51.0765C279.355 51.0768 279.355 51.077 279.355 51.0773C279.355 51.0775 279.355 51.0778 279.355 51.078C279.355 51.0783 279.355 51.0786 279.355 51.0788C279.355 51.0791 279.355 51.0793 279.355 51.0796C279.355 51.0798 279.355 51.08 279.355 51.0803C279.355 51.0805 279.355 51.0808 279.355 51.081C279.355 51.0812 279.355 51.0815 279.355 51.0817C279.355 51.082 279.355 51.0822 279.355 51.0824C279.355 51.0826 279.355 51.0829 279.355 51.0831C279.355 51.0833 279.355 51.0836 279.355 51.0838C279.355 51.084 279.355 51.0842 279.356 51.0845C279.356 51.0847 279.356 51.0849 279.356 51.0851C279.356 51.0853 279.356 51.0855 279.356 51.0858C279.356 51.086 279.356 51.0862 279.356 51.0864C279.356 51.0866 279.356 51.0868 279.356 51.087C279.356 51.0872 279.356 51.0874 279.356 51.0876C279.356 51.0878 279.356 51.088 279.356 51.0882C279.356 51.0884 279.356 51.0886 279.356 51.0888C279.356 51.089 279.356 51.0892 279.356 51.0894C279.356 51.0896 279.356 51.0898 279.356 51.09C279.356 51.0902 279.356 51.0904 279.356 51.0905C279.356 51.0907 279.356 51.0909 279.356 51.0911C279.356 51.0913 279.356 51.0915 279.356 51.0916C279.356 51.0918 279.356 51.092 279.356 51.0922C279.356 51.0923 279.356 51.0925 279.356 51.0927C279.356 51.0928 279.356 51.093 279.356 51.0932C279.356 51.0934 279.356 51.0935 279.356 51.0937C279.357 51.0938 279.357 51.094 279.357 51.0942C279.357 51.0943 279.357 51.0945 279.357 51.0946C279.357 51.0948 279.357 51.0949 279.357 51.0951C279.357 51.0953 279.357 51.0954 279.357 51.0956C279.357 51.0957 279.357 51.0958 279.357 51.096C279.357 51.0961 279.357 51.0963 279.357 51.0964C279.357 51.0966 279.357 51.0967 279.357 51.0968C279.357 51.097 279.357 51.0971 279.357 51.0972C279.357 51.0974 279.357 51.0975 279.357 51.0976C279.357 51.0978 279.357 51.0979 279.357 51.098C279.357 51.0982 279.357 51.0983 279.357 51.0984C279.357 51.0985 279.357 51.0986 279.357 51.0988C279.357 51.0989 279.357 51.099 279.357 51.0991C279.357 51.0992 279.357 51.0993 279.357 51.0995C279.357 51.0996 279.357 51.0997 279.357 51.0998C279.357 51.0999 279.357 51.1 279.357 51.1001C279.357 51.1002 279.357 51.1003 279.357 51.1004C279.357 51.1005 279.357 51.1006 279.357 51.1007C279.357 51.1008 279.357 51.1009 279.357 51.101C279.357 51.1011 279.357 51.1012 279.357 51.1013C279.357 51.1014 279.357 51.1015 279.357 51.1016C279.357 51.1016 279.357 51.1017 279.357 51.1018C279.357 51.1019 279.357 51.102 279.357 51.1021C279.357 51.1021 279.357 51.1022 279.357 51.1023C279.357 51.1024 279.357 51.1024 279.357 51.1025C279.357 51.1026 279.357 51.1027 279.357 51.1027C279.357 51.1028 279.357 51.1029 279.357 51.1029C279.357 51.103 279.357 51.1031 279.357 51.1031C279.357 51.1032 279.357 51.1032 279.358 51.1033C279.358 51.1034 279.358 51.1034 279.358 51.1035C279.358 51.1035 279.358 51.1036 279.358 51.1036C279.358 51.1037 279.358 51.1037 279.358 51.1038C279.358 51.1038 279.358 51.1039 279.358 51.1039C279.358 51.104 279.358 51.104 279.358 51.104C279.358 51.1041 279.358 51.1041 279.358 51.1041C279.358 51.1042 279.358 51.1042 279.358 51.1042C279.358 51.1043 279.358 51.1043 279.358 51.1043C279.358 51.1044 279.358 51.1044 279.358 51.1044C279.358 51.1044 279.358 51.1045 279.358 51.1045C279.358 51.1045 279.358 51.1045 279.358 51.1046C279.358 51.1046 279.358 51.1046 279.358 51.1046C279.358 51.1046 279.358 51.1046 279.358 51.1046C279.358 51.1046 279.358 51.1047 279.358 51.1047C279.358 51.1047 279.358 51.1047 279.358 51.1047C279.358 51.1047 279.358 51.1047 280.352 51ZM281.197 49.4703C281.098 48.5338 280.999 47.3947 280.899 46.0511L278.905 46.1989C279.005 47.5553 279.106 48.7162 279.208 49.6797L281.197 49.4703ZM280.9 46.0537C280.801 44.6746 280.752 43.3736 280.752 42.15H278.752C278.752 43.4264 278.803 44.7754 278.905 46.1962L280.9 46.0537ZM280.752 42.15V13.65H278.752V42.15H280.752ZM297.303 13.65V12.65H296.303V13.65H297.303ZM305.628 13.65H306.628V12.65H305.628V13.65ZM305.628 51V52H306.628V51H305.628ZM297.303 51H296.303V52H297.303V51ZM327.303 13.725L326.987 14.6737L326.995 14.6762L327.303 13.725ZM332.028 16.5L331.335 17.2208L331.349 17.2344L331.364 17.2474L332.028 16.5ZM335.103 21L334.171 21.3624L334.176 21.3736L334.18 21.3846L335.103 21ZM336.228 51V52H337.228V51H336.228ZM327.903 51H326.903V52H327.903V51ZM325.653 22.275L324.934 22.97L324.946 22.9822L324.958 22.994L325.653 22.275ZM312.153 21.6L312.61 22.4899L312.618 22.4854L312.153 21.6ZM307.353 25.575L308.141 26.1906L308.146 26.1848L308.15 26.1789L307.353 25.575ZM305.178 30.9L304.178 30.9185L306.173 31.002L305.178 30.9ZM305.103 26.85L304.112 26.7161L304.102 26.792L304.103 26.8685L305.103 26.85ZM306.753 21.6L307.642 22.058L307.648 22.0472L306.753 21.6ZM310.128 17.1L310.809 17.8328L310.816 17.8264L310.822 17.8198L310.128 17.1ZM315.078 13.95L315.445 14.8802L315.078 13.95ZM357.153 13.725L356.837 14.6737L357.153 13.725ZM361.803 16.5L361.11 17.2208L361.124 17.2344L361.139 17.2474L361.803 16.5ZM364.953 21L364.03 21.3846L364.953 21ZM366.078 51V52H367.078V51H366.078ZM357.678 51H356.678V52H357.678V51ZM355.428 22.275L354.709 22.97L354.721 22.9822L354.733 22.994L355.428 22.275ZM341.928 21.6L342.385 22.4899L342.393 22.4854L341.928 21.6ZM337.128 25.575L336.331 24.9711L336.328 24.975L337.128 25.575ZM335.028 30.9L334.029 30.9357L336.023 31.002L335.028 30.9ZM334.878 26.7L333.888 26.5624L333.876 26.6487L333.879 26.7357L334.878 26.7ZM336.603 21.525L337.481 22.0039L337.487 21.9929L336.603 21.525ZM340.053 17.025L340.734 17.7578L340.053 17.025ZM344.928 13.95L344.561 13.0198L344.553 13.0233L344.928 13.95ZM297.303 14.65H305.628V12.65H297.303V14.65ZM304.628 13.65V51H306.628V13.65H304.628ZM305.628 50H297.303V52H305.628V50ZM298.303 51V13.65H296.303V51H298.303ZM321.378 13.825C323.435 13.825 325.302 14.1119 326.987 14.6737L327.62 12.7763C325.705 12.1381 323.622 11.825 321.378 11.825V13.825ZM326.995 14.6762C328.712 15.2333 330.153 16.0838 331.335 17.2208L332.721 15.7792C331.304 14.4162 329.594 13.4167 327.612 12.7738L326.995 14.6762ZM331.364 17.2474C332.587 18.3349 333.525 19.6997 334.171 21.3624L336.035 20.6376C335.282 18.7003 334.169 17.0651 332.693 15.7526L331.364 17.2474ZM334.18 21.3846C334.868 23.0358 335.228 25.0244 335.228 27.375H337.228C337.228 24.8256 336.838 22.5642 336.026 20.6154L334.18 21.3846ZM335.228 27.375V51H337.228V27.375H335.228ZM336.228 50H327.903V52H336.228V50ZM328.903 51V29.025H326.903V51H328.903ZM328.903 29.025C328.903 25.8296 328.118 23.2668 326.348 21.556L324.958 22.994C326.189 24.1832 326.903 26.1204 326.903 29.025H328.903ZM326.372 21.58C324.656 19.8047 322.037 19.025 318.753 19.025V21.025C321.769 21.025 323.75 21.7453 324.934 22.97L326.372 21.58ZM318.753 19.025C316.202 19.025 313.841 19.5846 311.688 20.7146L312.618 22.4854C314.466 21.5154 316.505 21.025 318.753 21.025V19.025ZM311.697 20.7102C309.621 21.7746 307.902 23.1945 306.556 24.9711L308.15 26.1789C309.304 24.6555 310.785 23.4254 312.61 22.4898L311.697 20.7102ZM306.565 24.9594C305.204 26.7021 304.403 28.6538 304.184 30.798L306.173 31.002C306.353 29.2462 307.003 27.6479 308.141 26.1906L306.565 24.9594ZM306.178 30.8815L306.103 26.8315L304.103 26.8685L304.178 30.9185L306.178 30.8815ZM306.094 26.9839C306.329 25.2463 306.845 23.606 307.642 22.058L305.864 21.142C304.962 22.894 304.378 24.7537 304.112 26.7161L306.094 26.9839ZM307.648 22.0472C308.444 20.455 309.496 19.0516 310.809 17.8328L309.448 16.3672C307.96 17.7484 306.763 19.345 305.859 21.1528L307.648 22.0472ZM310.822 17.8198C312.124 16.5652 313.661 15.5846 315.445 14.8802L314.711 13.0198C312.696 13.8154 310.933 14.9348 309.434 16.3802L310.822 17.8198ZM315.445 14.8802C317.215 14.1818 319.188 13.825 321.378 13.825V11.825C318.968 11.825 316.742 12.2182 314.711 13.0198L315.445 14.8802ZM351.153 13.825C353.263 13.825 355.154 14.1126 356.837 14.6737L357.47 12.7763C355.553 12.1374 353.444 11.825 351.153 11.825V13.825ZM356.837 14.6737C358.504 15.2292 359.923 16.0792 361.11 17.2208L362.496 15.7792C361.084 14.4208 359.403 13.4208 357.47 12.7763L356.837 14.6737ZM361.139 17.2474C362.368 18.3397 363.333 19.7122 364.03 21.3846L365.876 20.6154C365.073 18.6878 363.939 17.0603 362.468 15.7526L361.139 17.2474ZM364.03 21.3846C364.718 23.0358 365.078 25.0244 365.078 27.375H367.078C367.078 24.8256 366.688 22.5642 365.876 20.6154L364.03 21.3846ZM365.078 27.375V51H367.078V27.375H365.078ZM366.078 50H357.678V52H366.078V50ZM358.678 51V29.025H356.678V51H358.678ZM358.678 29.025C358.678 25.8296 357.893 23.2668 356.123 21.556L354.733 22.994C355.964 24.1832 356.678 26.1204 356.678 29.025H358.678ZM356.147 21.58C354.431 19.8047 351.812 19.025 348.528 19.025V21.025C351.544 21.025 353.525 21.7453 354.709 22.97L356.147 21.58ZM348.528 19.025C345.977 19.025 343.616 19.5846 341.464 20.7146L342.393 22.4854C344.241 21.5154 346.28 21.025 348.528 21.025V19.025ZM341.472 20.7102C339.396 21.7746 337.677 23.1945 336.331 24.9711L337.925 26.1789C339.079 24.6555 340.56 23.4254 342.385 22.4898L341.472 20.7102ZM336.328 24.975C335.022 26.7171 334.252 28.6636 334.034 30.798L336.023 31.002C336.204 29.2364 336.835 27.6329 337.928 26.175L336.328 24.975ZM336.028 30.8643L335.878 26.6643L333.879 26.7357L334.029 30.9357L336.028 30.8643ZM335.869 26.8376C336.102 25.1613 336.637 23.5515 337.481 22.0039L335.725 21.0461C334.77 22.7985 334.155 24.6387 333.888 26.5624L335.869 26.8376ZM337.487 21.9929C338.335 20.3913 339.417 18.981 340.734 17.7578L339.373 16.2922C337.89 17.669 336.672 19.2587 335.72 21.0571L337.487 21.9929ZM340.734 17.7578C342.041 16.5441 343.561 15.5832 345.304 14.8767L344.553 13.0233C342.595 13.8168 340.866 14.9059 339.373 16.2922L340.734 17.7578ZM345.296 14.8802C347.067 14.1808 349.016 13.825 351.153 13.825V11.825C348.79 11.825 346.589 12.2192 344.561 13.0198L345.296 14.8802Z" fill="white" mask="url(#path-1-outside-1_103_608)"/>
</g>
<defs>
<filter id="filter0_d_103_608" x="0.899902" y="0.5" width="368.178" height="54.4" filterUnits="userSpaceOnUse" color-interpolation-filters="sRGB">
<feFlood flood-opacity="0" result="BackgroundImageFix"/>
<feColorMatrix in="SourceAlpha" type="matrix" values="0 0 0 0 0 0 0 0 0 0 0 0 0 0 0 0 0 0 127 0" result="hardAlpha"/>
<feOffset dx="1" dy="1"/>
<feGaussianBlur stdDeviation="1"/>
<feComposite in2="hardAlpha" operator="out"/>
<feColorMatrix type="matrix" values="0 0 0 0 0 0 0 0 0 0 0 0 0 0 0 0 0 0 1 0"/>
<feBlend mode="normal" in2="BackgroundImageFix" result="effect1_dropShadow_103_608"/>
<feBlend mode="normal" in="SourceGraphic" in2="effect1_dropShadow_103_608" result="shape"/>
</filter>
</defs>
</svg>
