<svg width="226" height="145" viewBox="0 0 226 145" fill="none" xmlns="http://www.w3.org/2000/svg">
<g filter="url(#filter0_d_101_557)">
<mask id="path-1-outside-1_101_557" maskUnits="userSpaceOnUse" x="0" y="0" width="224" height="143" fill="black">
<rect fill="white" width="224" height="143"/>
<path d="M32.1 51.9C26.4 51.9 21.425 50.875 17.175 48.825C12.975 46.775 9.7 43.875 7.35 40.125C5.05 36.375 3.9 31.9 3.9 26.7C3.9 21.5 5.05 17.025 7.35 13.275C9.7 9.475 12.975 6.575 17.175 4.575C21.425 2.525 26.4 1.5 32.1 1.5C37.85 1.5 42.825 2.525 47.025 4.575C51.225 6.575 54.475 9.475 56.775 13.275C59.125 17.025 60.3 21.5 60.3 26.7C60.3 31.9 59.125 36.375 56.775 40.125C54.475 43.875 51.225 46.775 47.025 48.825C42.825 50.875 37.85 51.9 32.1 51.9ZM32.1 44.4C35.9 44.4 39.25 43.75 42.15 42.45C45.05 41.15 47.325 39.2 48.975 36.6C50.675 33.95 51.525 30.65 51.525 26.7C51.525 22.8 50.675 19.55 48.975 16.95C47.325 14.3 45.05 12.325 42.15 11.025C39.25 9.675 35.9 9 32.1 9C28.35 9 25 9.675 22.05 11.025C19.1 12.325 16.775 14.3 15.075 16.95C13.375 19.55 12.525 22.8 12.525 26.7C12.525 30.65 13.375 33.95 15.075 36.6C16.775 39.2 19.1 41.15 22.05 42.45C25 43.75 28.35 44.4 32.1 44.4ZM107.808 51H99.4834V13.65H107.808V51ZM99.9334 33.225L100.008 35.625C99.9084 36.275 99.6834 37.25 99.3334 38.55C99.0334 39.85 98.5084 41.275 97.7584 42.825C97.0584 44.325 96.1084 45.775 94.9084 47.175C93.7584 48.525 92.3084 49.65 90.5584 50.55C88.8084 51.4 86.6834 51.825 84.1834 51.825C82.3834 51.825 80.5584 51.575 78.7084 51.075C76.9084 50.625 75.2584 49.85 73.7584 48.75C72.3084 47.65 71.1334 46.15 70.2334 44.25C69.3334 42.35 68.8834 39.95 68.8834 37.05V13.65H77.2084V35.475C77.2084 37.825 77.5834 39.675 78.3334 41.025C79.1334 42.325 80.2334 43.25 81.6334 43.8C83.0334 44.35 84.6584 44.625 86.5084 44.625C89.1584 44.625 91.4084 44.025 93.2584 42.825C95.1084 41.625 96.5834 40.15 97.6834 38.4C98.8334 36.6 99.5834 34.875 99.9334 33.225ZM117.004 13.65H125.329V51H117.004V13.65ZM138.829 20.775C136.129 20.775 133.804 21.35 131.854 22.5C129.954 23.65 128.429 25.05 127.279 26.7C126.129 28.35 125.329 29.95 124.879 31.5L124.804 27.3C124.854 26.75 125.029 25.925 125.329 24.825C125.629 23.675 126.079 22.425 126.679 21.075C127.329 19.725 128.179 18.425 129.229 17.175C130.329 15.875 131.654 14.825 133.204 14.025C134.804 13.225 136.679 12.825 138.829 12.825V20.775ZM21.675 141L1.5 92.4H10.8L28.125 135.825H25.35L42.6 92.4H51.75L31.8 141H21.675ZM67.6471 87.825V95.85H57.6721V87.825H67.6471ZM58.4221 103.65H66.8221V141H58.4221V103.65ZM75.1436 128.7H82.8686C83.2686 130.6 84.2936 132.15 85.9436 133.35C87.5936 134.5 89.8186 135.075 92.6186 135.075C94.4186 135.075 95.8186 134.875 96.8186 134.475C97.8686 134.075 98.5936 133.525 98.9936 132.825C99.4436 132.125 99.6686 131.325 99.6686 130.425C99.6686 129.325 99.3436 128.475 98.6936 127.875C98.0936 127.275 97.1936 126.775 95.9936 126.375C94.7936 125.975 93.2936 125.625 91.4936 125.325C89.6436 124.875 87.8186 124.375 86.0186 123.825C84.2186 123.275 82.5936 122.6 81.1436 121.8C79.6936 120.95 78.5436 119.9 77.6936 118.65C76.8936 117.35 76.4936 115.775 76.4936 113.925C76.4936 112.225 76.8686 110.7 77.6186 109.35C78.4186 107.95 79.5186 106.775 80.9186 105.825C82.3186 104.875 83.9686 104.15 85.8686 103.65C87.7686 103.1 89.8436 102.825 92.0936 102.825C95.3436 102.825 98.0436 103.35 100.194 104.4C102.394 105.45 104.044 106.925 105.144 108.825C106.294 110.725 106.869 112.9 106.869 115.35H99.5186C99.1186 113.35 98.3436 111.9 97.1936 111C96.0436 110.1 94.3186 109.65 92.0186 109.65C89.7186 109.65 87.9686 110.05 86.7686 110.85C85.5686 111.65 84.9686 112.75 84.9686 114.15C84.9686 115.2 85.3436 116.05 86.0936 116.7C86.8936 117.3 88.0186 117.825 89.4686 118.275C90.9186 118.725 92.6186 119.175 94.5686 119.625C96.3686 120.125 98.0686 120.65 99.6686 121.2C101.269 121.7 102.694 122.35 103.944 123.15C105.244 123.9 106.269 124.9 107.019 126.15C107.769 127.4 108.144 128.95 108.144 130.8C108.144 133.1 107.519 135.075 106.269 136.725C105.069 138.375 103.319 139.65 101.019 140.55C98.7186 141.4 95.9436 141.825 92.6936 141.825C89.8436 141.825 87.3686 141.5 85.2686 140.85C83.2186 140.2 81.4936 139.35 80.0936 138.3C78.7436 137.25 77.6936 136.125 76.9436 134.925C76.1936 133.725 75.6686 132.575 75.3686 131.475C75.1186 130.375 75.0436 129.45 75.1436 128.7ZM125.435 87.825V95.85H115.46V87.825H125.435ZM116.21 103.65H124.61V141H116.21V103.65ZM154.457 141.825C150.307 141.825 146.582 141.075 143.282 139.575C139.982 138.075 137.382 135.875 135.482 132.975C133.582 130.075 132.632 126.55 132.632 122.4C132.632 118.3 133.582 114.8 135.482 111.9C137.382 108.95 139.982 106.7 143.282 105.15C146.582 103.6 150.307 102.825 154.457 102.825C158.607 102.825 162.307 103.6 165.557 105.15C168.807 106.7 171.357 108.95 173.207 111.9C175.107 114.8 176.057 118.3 176.057 122.4C176.057 126.55 175.107 130.075 173.207 132.975C171.357 135.875 168.807 138.075 165.557 139.575C162.307 141.075 158.607 141.825 154.457 141.825ZM154.457 135C156.857 135 159.057 134.525 161.057 133.575C163.057 132.625 164.632 131.2 165.782 129.3C166.982 127.4 167.582 125.1 167.582 122.4C167.582 119.7 166.982 117.4 165.782 115.5C164.632 113.6 163.057 112.15 161.057 111.15C159.107 110.1 156.907 109.575 154.457 109.575C152.007 109.575 149.782 110.075 147.782 111.075C145.782 112.075 144.157 113.525 142.907 115.425C141.707 117.325 141.107 119.65 141.107 122.4C141.107 125.1 141.707 127.4 142.907 129.3C144.107 131.2 145.707 132.625 147.707 133.575C149.757 134.525 152.007 135 154.457 135ZM183.507 103.65H191.832V141H183.507V103.65ZM207.582 102.825C209.732 102.825 211.707 103.125 213.507 103.725C215.357 104.325 216.932 105.25 218.232 106.5C219.582 107.7 220.607 109.2 221.307 111C222.057 112.8 222.432 114.925 222.432 117.375V141H214.107V119.025C214.107 115.975 213.357 113.725 211.857 112.275C210.407 110.775 208.107 110.025 204.957 110.025C202.557 110.025 200.357 110.55 198.357 111.6C196.407 112.6 194.807 113.925 193.557 115.575C192.307 117.175 191.582 118.95 191.382 120.9L191.307 116.85C191.557 115 192.107 113.25 192.957 111.6C193.807 109.9 194.932 108.4 196.332 107.1C197.732 105.75 199.382 104.7 201.282 103.95C203.182 103.2 205.282 102.825 207.582 102.825Z"/>
</mask>
<path d="M32.1 51.9C26.4 51.9 21.425 50.875 17.175 48.825C12.975 46.775 9.7 43.875 7.35 40.125C5.05 36.375 3.9 31.9 3.9 26.7C3.9 21.5 5.05 17.025 7.35 13.275C9.7 9.475 12.975 6.575 17.175 4.575C21.425 2.525 26.4 1.5 32.1 1.5C37.85 1.5 42.825 2.525 47.025 4.575C51.225 6.575 54.475 9.475 56.775 13.275C59.125 17.025 60.3 21.5 60.3 26.7C60.3 31.9 59.125 36.375 56.775 40.125C54.475 43.875 51.225 46.775 47.025 48.825C42.825 50.875 37.85 51.9 32.1 51.9ZM32.1 44.4C35.9 44.4 39.25 43.75 42.15 42.45C45.05 41.15 47.325 39.2 48.975 36.6C50.675 33.95 51.525 30.65 51.525 26.7C51.525 22.8 50.675 19.55 48.975 16.95C47.325 14.3 45.05 12.325 42.15 11.025C39.25 9.675 35.9 9 32.1 9C28.35 9 25 9.675 22.05 11.025C19.1 12.325 16.775 14.3 15.075 16.95C13.375 19.55 12.525 22.8 12.525 26.7C12.525 30.65 13.375 33.95 15.075 36.6C16.775 39.2 19.1 41.15 22.05 42.45C25 43.75 28.35 44.4 32.1 44.4ZM107.808 51H99.4834V13.65H107.808V51ZM99.9334 33.225L100.008 35.625C99.9084 36.275 99.6834 37.25 99.3334 38.55C99.0334 39.85 98.5084 41.275 97.7584 42.825C97.0584 44.325 96.1084 45.775 94.9084 47.175C93.7584 48.525 92.3084 49.65 90.5584 50.55C88.8084 51.4 86.6834 51.825 84.1834 51.825C82.3834 51.825 80.5584 51.575 78.7084 51.075C76.9084 50.625 75.2584 49.85 73.7584 48.75C72.3084 47.65 71.1334 46.15 70.2334 44.25C69.3334 42.35 68.8834 39.95 68.8834 37.05V13.65H77.2084V35.475C77.2084 37.825 77.5834 39.675 78.3334 41.025C79.1334 42.325 80.2334 43.25 81.6334 43.8C83.0334 44.35 84.6584 44.625 86.5084 44.625C89.1584 44.625 91.4084 44.025 93.2584 42.825C95.1084 41.625 96.5834 40.15 97.6834 38.4C98.8334 36.6 99.5834 34.875 99.9334 33.225ZM117.004 13.65H125.329V51H117.004V13.65ZM138.829 20.775C136.129 20.775 133.804 21.35 131.854 22.5C129.954 23.65 128.429 25.05 127.279 26.7C126.129 28.35 125.329 29.95 124.879 31.5L124.804 27.3C124.854 26.75 125.029 25.925 125.329 24.825C125.629 23.675 126.079 22.425 126.679 21.075C127.329 19.725 128.179 18.425 129.229 17.175C130.329 15.875 131.654 14.825 133.204 14.025C134.804 13.225 136.679 12.825 138.829 12.825V20.775ZM21.675 141L1.5 92.4H10.8L28.125 135.825H25.35L42.6 92.4H51.75L31.8 141H21.675ZM67.6471 87.825V95.85H57.6721V87.825H67.6471ZM58.4221 103.65H66.8221V141H58.4221V103.65ZM75.1436 128.7H82.8686C83.2686 130.6 84.2936 132.15 85.9436 133.35C87.5936 134.5 89.8186 135.075 92.6186 135.075C94.4186 135.075 95.8186 134.875 96.8186 134.475C97.8686 134.075 98.5936 133.525 98.9936 132.825C99.4436 132.125 99.6686 131.325 99.6686 130.425C99.6686 129.325 99.3436 128.475 98.6936 127.875C98.0936 127.275 97.1936 126.775 95.9936 126.375C94.7936 125.975 93.2936 125.625 91.4936 125.325C89.6436 124.875 87.8186 124.375 86.0186 123.825C84.2186 123.275 82.5936 122.6 81.1436 121.8C79.6936 120.95 78.5436 119.9 77.6936 118.65C76.8936 117.35 76.4936 115.775 76.4936 113.925C76.4936 112.225 76.8686 110.7 77.6186 109.35C78.4186 107.95 79.5186 106.775 80.9186 105.825C82.3186 104.875 83.9686 104.15 85.8686 103.65C87.7686 103.1 89.8436 102.825 92.0936 102.825C95.3436 102.825 98.0436 103.35 100.194 104.4C102.394 105.45 104.044 106.925 105.144 108.825C106.294 110.725 106.869 112.9 106.869 115.35H99.5186C99.1186 113.35 98.3436 111.9 97.1936 111C96.0436 110.1 94.3186 109.65 92.0186 109.65C89.7186 109.65 87.9686 110.05 86.7686 110.85C85.5686 111.65 84.9686 112.75 84.9686 114.15C84.9686 115.2 85.3436 116.05 86.0936 116.7C86.8936 117.3 88.0186 117.825 89.4686 118.275C90.9186 118.725 92.6186 119.175 94.5686 119.625C96.3686 120.125 98.0686 120.65 99.6686 121.2C101.269 121.7 102.694 122.35 103.944 123.15C105.244 123.9 106.269 124.9 107.019 126.15C107.769 127.4 108.144 128.95 108.144 130.8C108.144 133.1 107.519 135.075 106.269 136.725C105.069 138.375 103.319 139.65 101.019 140.55C98.7186 141.4 95.9436 141.825 92.6936 141.825C89.8436 141.825 87.3686 141.5 85.2686 140.85C83.2186 140.2 81.4936 139.35 80.0936 138.3C78.7436 137.25 77.6936 136.125 76.9436 134.925C76.1936 133.725 75.6686 132.575 75.3686 131.475C75.1186 130.375 75.0436 129.45 75.1436 128.7ZM125.435 87.825V95.85H115.46V87.825H125.435ZM116.21 103.65H124.61V141H116.21V103.65ZM154.457 141.825C150.307 141.825 146.582 141.075 143.282 139.575C139.982 138.075 137.382 135.875 135.482 132.975C133.582 130.075 132.632 126.55 132.632 122.4C132.632 118.3 133.582 114.8 135.482 111.9C137.382 108.95 139.982 106.7 143.282 105.15C146.582 103.6 150.307 102.825 154.457 102.825C158.607 102.825 162.307 103.6 165.557 105.15C168.807 106.7 171.357 108.95 173.207 111.9C175.107 114.8 176.057 118.3 176.057 122.4C176.057 126.55 175.107 130.075 173.207 132.975C171.357 135.875 168.807 138.075 165.557 139.575C162.307 141.075 158.607 141.825 154.457 141.825ZM154.457 135C156.857 135 159.057 134.525 161.057 133.575C163.057 132.625 164.632 131.2 165.782 129.3C166.982 127.4 167.582 125.1 167.582 122.4C167.582 119.7 166.982 117.4 165.782 115.5C164.632 113.6 163.057 112.15 161.057 111.15C159.107 110.1 156.907 109.575 154.457 109.575C152.007 109.575 149.782 110.075 147.782 111.075C145.782 112.075 144.157 113.525 142.907 115.425C141.707 117.325 141.107 119.65 141.107 122.4C141.107 125.1 141.707 127.4 142.907 129.3C144.107 131.2 145.707 132.625 147.707 133.575C149.757 134.525 152.007 135 154.457 135ZM183.507 103.65H191.832V141H183.507V103.65ZM207.582 102.825C209.732 102.825 211.707 103.125 213.507 103.725C215.357 104.325 216.932 105.25 218.232 106.5C219.582 107.7 220.607 109.2 221.307 111C222.057 112.8 222.432 114.925 222.432 117.375V141H214.107V119.025C214.107 115.975 213.357 113.725 211.857 112.275C210.407 110.775 208.107 110.025 204.957 110.025C202.557 110.025 200.357 110.55 198.357 111.6C196.407 112.6 194.807 113.925 193.557 115.575C192.307 117.175 191.582 118.95 191.382 120.9L191.307 116.85C191.557 115 192.107 113.25 192.957 111.6C193.807 109.9 194.932 108.4 196.332 107.1C197.732 105.75 199.382 104.7 201.282 103.95C203.182 103.2 205.282 102.825 207.582 102.825Z" fill="black"/>
<path d="M17.175 48.825L16.7364 49.7237L16.7405 49.7257L17.175 48.825ZM7.35 40.125L6.49752 40.6479L6.50264 40.656L7.35 40.125ZM7.35 13.275L6.49949 12.749L6.49756 12.7522L7.35 13.275ZM17.175 4.575L17.6049 5.47787L17.6095 5.47569L17.175 4.575ZM47.025 4.575L46.5863 5.47371L46.5951 5.47786L47.025 4.575ZM56.775 13.275L55.9195 13.7928L55.9235 13.7994L55.9276 13.806L56.775 13.275ZM56.775 40.125L55.9276 39.594L55.9226 39.6022L56.775 40.125ZM47.025 48.825L46.5864 47.9263L47.025 48.825ZM42.15 42.45L42.5591 43.3625V43.3625L42.15 42.45ZM48.975 36.6L48.1333 36.06L48.1307 36.0642L48.975 36.6ZM48.975 16.95L48.1261 17.4786L48.132 17.488L48.138 17.4972L48.975 16.95ZM42.15 11.025L41.728 11.9316L41.7344 11.9346L41.7409 11.9375L42.15 11.025ZM22.05 11.025L22.4533 11.9402L22.4661 11.9343L22.05 11.025ZM15.075 16.95L15.912 17.4973L15.9167 17.49L15.075 16.95ZM15.075 36.6L14.2333 37.14L14.238 37.1473L15.075 36.6ZM22.05 42.45L21.6467 43.3651L22.05 42.45ZM32.1 50.9C26.5196 50.9 21.6987 49.8968 17.6095 47.9243L16.7405 49.7257C21.1513 51.8532 26.2804 52.9 32.1 52.9V50.9ZM17.6136 47.9263C13.5717 45.9535 10.4425 43.1766 8.19736 39.594L6.50264 40.656C8.95752 44.5734 12.3783 47.5965 16.7364 49.7237L17.6136 47.9263ZM8.20244 39.6022C6.01527 36.0361 4.9 31.7494 4.9 26.7H2.9C2.9 32.0506 4.08473 36.7139 6.49756 40.6478L8.20244 39.6022ZM4.9 26.7C4.9 21.6506 6.01527 17.3639 8.20244 13.7978L6.49756 12.7522C4.08473 16.6861 2.9 21.3494 2.9 26.7H4.9ZM8.2005 13.801C10.4451 10.1713 13.5709 7.39883 17.6049 5.47786L16.7451 3.67214C12.3791 5.75117 8.95486 8.77865 6.4995 12.749L8.2005 13.801ZM17.6095 5.47569C21.6987 3.50324 26.5196 2.5 32.1 2.5V0.499998C26.2804 0.499998 21.1513 1.54675 16.7405 3.6743L17.6095 5.47569ZM32.1 2.5C37.7323 2.5 42.5508 3.50392 46.5864 5.47366L47.4636 3.67633C43.0992 1.54608 37.9677 0.499998 32.1 0.499998V2.5ZM46.5951 5.47786C50.6274 7.39803 53.7256 10.1681 55.9195 13.7928L57.6305 12.7572C55.2244 8.78187 51.8226 5.75196 47.4549 3.67214L46.5951 5.47786ZM55.9276 13.806C58.1616 17.3708 59.3 21.6545 59.3 26.7H61.3C61.3 21.3455 60.0885 16.6792 57.6224 12.744L55.9276 13.806ZM59.3 26.7C59.3 31.7455 58.1616 36.0292 55.9276 39.594L57.6224 40.656C60.0885 36.7208 61.3 32.0545 61.3 26.7H59.3ZM55.9226 39.6022C53.7283 43.1798 50.6267 45.9543 46.5864 47.9263L47.4636 49.7237C51.8233 47.5957 55.2217 44.5702 57.6274 40.6478L55.9226 39.6022ZM46.5864 47.9263C42.5508 49.8961 37.7323 50.9 32.1 50.9V52.9C37.9677 52.9 43.0992 51.8539 47.4636 49.7237L46.5864 47.9263ZM32.1 45.4C36.0139 45.4 39.5077 44.7303 42.5591 43.3625L41.7409 41.5375C38.9923 42.7697 35.7862 43.4 32.1 43.4V45.4ZM42.5591 43.3625C45.6319 41.985 48.0608 39.9069 49.8193 37.1358L48.1307 36.0642C46.5892 38.4931 44.4681 40.315 41.7409 41.5375L42.5591 43.3625ZM49.8167 37.14C51.6435 34.2923 52.525 30.7929 52.525 26.7H50.525C50.525 30.5071 49.7065 33.6077 48.1333 36.06L49.8167 37.14ZM52.525 26.7C52.525 22.6552 51.6426 19.2025 49.812 16.4027L48.138 17.4972C49.7074 19.8975 50.525 22.9448 50.525 26.7H52.525ZM49.8239 16.4214C48.0667 13.5993 45.6371 11.4923 42.5591 10.1125L41.7409 11.9375C44.4629 13.1577 46.5833 15.0007 48.1261 17.4786L49.8239 16.4214ZM42.572 10.1184C39.5173 8.6964 36.0187 8 32.1 8V10C35.7813 10 38.9827 10.6536 41.728 11.9316L42.572 10.1184ZM32.1 8C28.2287 8 24.7333 8.69731 21.6339 10.1157L22.4661 11.9343C25.2667 10.6527 28.4713 10 32.1 10V8ZM21.6467 10.1099C18.5215 11.4871 16.0421 13.5905 14.2333 16.41L15.9167 17.49C17.5079 15.0095 19.6785 13.1628 22.4533 11.9401L21.6467 10.1099ZM14.238 16.4027C12.4074 19.2025 11.525 22.6552 11.525 26.7H13.525C13.525 22.9448 14.3426 19.8975 15.912 17.4972L14.238 16.4027ZM11.525 26.7C11.525 30.7929 12.4065 34.2923 14.2333 37.14L15.9167 36.06C14.3435 33.6077 13.525 30.5071 13.525 26.7H11.525ZM14.238 37.1473C16.0481 39.9156 18.5267 41.9901 21.6467 43.3651L22.4533 41.5349C19.6733 40.3099 17.5019 38.4844 15.912 36.0527L14.238 37.1473ZM21.6467 43.3651C24.7429 44.7295 28.2336 45.4 32.1 45.4V43.4C28.4664 43.4 25.2571 42.7705 22.4533 41.5349L21.6467 43.3651ZM107.808 51V52H108.808V51H107.808ZM99.4834 51H98.4834V52H99.4834V51ZM99.4834 13.65V12.65H98.4834V13.65H99.4834ZM107.808 13.65H108.808V12.65H107.808V13.65ZM99.9334 33.225L100.933 33.1938L98.9552 33.0175L99.9334 33.225ZM100.008 35.625L100.997 35.7771L101.011 35.6859L101.008 35.5938L100.008 35.625ZM99.3334 38.55L98.3678 38.29L98.3631 38.3075L98.359 38.3251L99.3334 38.55ZM97.7584 42.825L96.8582 42.3894L96.8522 42.4021L97.7584 42.825ZM94.9084 47.175L94.1491 46.5242L94.1472 46.5265L94.9084 47.175ZM90.5584 50.55L90.9953 51.4495L91.0056 51.4445L91.0157 51.4393L90.5584 50.55ZM78.7084 51.075L78.9693 50.1096L78.9601 50.1072L78.9509 50.1049L78.7084 51.075ZM73.7584 48.75L73.154 49.5467L73.1605 49.5516L73.167 49.5564L73.7584 48.75ZM70.2334 44.25L71.1371 43.8219L70.2334 44.25ZM68.8834 13.65V12.65H67.8834V13.65H68.8834ZM77.2084 13.65H78.2084V12.65H77.2084V13.65ZM78.3334 41.025L77.4592 41.5106L77.4701 41.5301L77.4817 41.5491L78.3334 41.025ZM81.6334 43.8L81.2677 44.7308L81.6334 43.8ZM93.2584 42.825L92.7142 41.986L93.2584 42.825ZM97.6834 38.4L96.8407 37.8616L96.8368 37.8678L97.6834 38.4ZM107.808 50H99.4834V52H107.808V50ZM100.483 51V13.65H98.4834V51H100.483ZM99.4834 14.65H107.808V12.65H99.4834V14.65ZM106.808 13.65V51H108.808V13.65H106.808ZM98.9339 33.2562L99.0089 35.6562L101.008 35.5938L100.933 33.1938L98.9339 33.2562ZM99.02 35.4729C98.9288 36.0658 98.7159 36.9969 98.3678 38.29L100.299 38.81C100.651 37.5031 100.888 36.4842 100.997 35.7771L99.02 35.4729ZM98.359 38.3251C98.0798 39.5349 97.5846 40.8884 96.8582 42.3894L98.6586 43.2606C99.4322 41.6616 99.987 40.1651 100.308 38.7749L98.359 38.3251ZM96.8522 42.4021C96.1947 43.8111 95.2967 45.1854 94.1491 46.5242L95.6677 47.8258C96.9201 46.3646 97.9221 44.8389 98.6646 43.2479L96.8522 42.4021ZM94.1472 46.5265C93.0906 47.7669 91.7477 48.8138 90.1011 49.6607L91.0157 51.4393C92.869 50.4862 94.4262 49.2831 95.6696 47.8235L94.1472 46.5265ZM90.1215 49.6505C88.5407 50.4183 86.5737 50.825 84.1834 50.825V52.825C86.7931 52.825 89.0761 52.3817 90.9953 51.4495L90.1215 49.6505ZM84.1834 50.825C82.477 50.825 80.7397 50.5881 78.9693 50.1096L78.4475 52.0404C80.3771 52.5619 82.2898 52.825 84.1834 52.825V50.825ZM78.9509 50.1049C77.2771 49.6864 75.7455 48.9671 74.3498 47.9436L73.167 49.5564C74.7713 50.7329 76.5397 51.5636 78.4659 52.0451L78.9509 50.1049ZM74.3628 47.9533C73.0593 46.9644 71.9791 45.5994 71.1371 43.8219L69.3297 44.6781C70.2877 46.7006 71.5575 48.3356 73.154 49.5467L74.3628 47.9533ZM71.1371 43.8219C70.3198 42.0965 69.8834 39.8548 69.8834 37.05H67.8834C67.8834 40.0452 68.347 42.6035 69.3297 44.6781L71.1371 43.8219ZM69.8834 37.05V13.65H67.8834V37.05H69.8834ZM68.8834 14.65H77.2084V12.65H68.8834V14.65ZM76.2084 13.65V35.475H78.2084V13.65H76.2084ZM76.2084 35.475C76.2084 37.9136 76.5946 39.9543 77.4592 41.5106L79.2076 40.5394C78.5722 39.3957 78.2084 37.7364 78.2084 35.475H76.2084ZM77.4817 41.5491C78.3936 43.0308 79.6627 44.1002 81.2677 44.7308L81.9991 42.8692C80.8041 42.3998 79.8732 41.6192 79.1851 40.5009L77.4817 41.5491ZM81.2677 44.7308C82.8076 45.3357 84.5611 45.625 86.5084 45.625V43.625C84.7557 43.625 83.2592 43.3643 81.9991 42.8692L81.2677 44.7308ZM86.5084 45.625C89.3121 45.625 91.7604 44.9886 93.8026 43.664L92.7142 41.986C91.0564 43.0614 89.0047 43.625 86.5084 43.625V45.625ZM93.8026 43.664C95.7662 42.3903 97.3476 40.8133 98.53 38.9322L96.8368 37.8678C95.8192 39.4867 94.4506 40.8597 92.7142 41.986L93.8026 43.664ZM98.5261 38.9384C99.7243 37.063 100.531 35.2267 100.912 33.4325L98.9552 33.0175C98.6357 34.5233 97.9425 36.1371 96.8407 37.8616L98.5261 38.9384ZM117.004 13.65V12.65H116.004V13.65H117.004ZM125.329 13.65H126.329V12.65H125.329V13.65ZM125.329 51V52H126.329V51H125.329ZM117.004 51H116.004V52H117.004V51ZM138.829 20.775V21.775H139.829V20.775H138.829ZM131.854 22.5L131.346 21.6386L131.336 21.6445L131.854 22.5ZM127.279 26.7L128.099 27.2718H128.099L127.279 26.7ZM124.879 31.5L123.879 31.5179L125.839 31.7788L124.879 31.5ZM124.804 27.3L123.808 27.2095L123.803 27.2635L123.804 27.3179L124.804 27.3ZM125.329 24.825L126.293 25.0881L126.296 25.0774L125.329 24.825ZM126.679 21.075L125.778 20.6412L125.771 20.6549L125.765 20.6689L126.679 21.075ZM129.229 17.175L128.465 16.5291L128.463 16.5318L129.229 17.175ZM133.204 14.025L132.756 13.1305L132.745 13.1364L133.204 14.025ZM138.829 12.825H139.829V11.825H138.829V12.825ZM117.004 14.65H125.329V12.65H117.004V14.65ZM124.329 13.65V51H126.329V13.65H124.329ZM125.329 50H117.004V52H125.329V50ZM118.004 51V13.65H116.004V51H118.004ZM138.829 19.775C135.984 19.775 133.477 20.3818 131.346 21.6386L132.361 23.3614C134.13 22.3182 136.273 21.775 138.829 21.775V19.775ZM131.336 21.6445C129.329 22.8593 127.696 24.3521 126.458 26.1282L128.099 27.2718C129.161 25.7479 130.578 24.4407 132.371 23.3555L131.336 21.6445ZM126.458 26.1282C125.261 27.8465 124.405 29.5444 123.918 31.2212L125.839 31.7788C126.252 30.3555 126.997 28.8535 128.099 27.2718L126.458 26.1282ZM125.878 31.4821L125.803 27.2821L123.804 27.3179L123.879 31.5179L125.878 31.4821ZM125.799 27.3905C125.841 26.9325 125.996 26.1779 126.293 25.0881L124.364 24.5619C124.061 25.6721 123.866 26.5675 123.808 27.2095L125.799 27.3905ZM126.296 25.0774C126.58 23.9909 127.009 22.7929 127.592 21.4811L125.765 20.6689C125.148 22.0571 124.677 23.3591 124.361 24.5726L126.296 25.0774ZM127.58 21.5088C128.19 20.2404 128.993 19.01 129.994 17.8182L128.463 16.5318C127.364 17.84 126.467 19.2096 125.778 20.6412L127.58 21.5088ZM129.992 17.8209C131.005 16.6235 132.226 15.655 133.662 14.9136L132.745 13.1364C131.081 13.995 129.652 15.1265 128.465 16.5291L129.992 17.8209ZM133.651 14.9194C135.087 14.2015 136.803 13.825 138.829 13.825V11.825C136.554 11.825 134.52 12.2485 132.756 13.1306L133.651 14.9194ZM137.829 12.825V20.775H139.829V12.825H137.829ZM21.675 141L20.7514 141.383L21.0074 142H21.675V141ZM1.5 92.4V91.4H0.00213592L0.576418 92.7834L1.5 92.4ZM10.8 92.4L11.7288 92.0294L11.4777 91.4H10.8V92.4ZM28.125 135.825V136.825H29.6006L29.0538 135.454L28.125 135.825ZM25.35 135.825L24.4206 135.456L23.8768 136.825H25.35V135.825ZM42.6 92.4V91.4H41.9212L41.6706 92.0308L42.6 92.4ZM51.75 92.4L52.6751 92.7797L53.2415 91.4H51.75V92.4ZM31.8 141V142H32.4705L32.7251 141.38L31.8 141ZM22.5986 140.617L2.42358 92.0166L0.576418 92.7834L20.7514 141.383L22.5986 140.617ZM1.5 93.4H10.8V91.4H1.5V93.4ZM9.87119 92.7706L27.1962 136.196L29.0538 135.454L11.7288 92.0294L9.87119 92.7706ZM28.125 134.825H25.35V136.825H28.125V134.825ZM26.2794 136.194L43.5294 92.7692L41.6706 92.0308L24.4206 135.456L26.2794 136.194ZM42.6 93.4H51.75V91.4H42.6V93.4ZM50.8249 92.0203L30.8749 140.62L32.7251 141.38L52.6751 92.7797L50.8249 92.0203ZM31.8 140H21.675V142H31.8V140ZM67.6471 87.825H68.6471V86.825H67.6471V87.825ZM67.6471 95.85V96.85H68.6471V95.85H67.6471ZM57.6721 95.85H56.6721V96.85H57.6721V95.85ZM57.6721 87.825V86.825H56.6721V87.825H57.6721ZM58.4221 103.65V102.65H57.4221V103.65H58.4221ZM66.8221 103.65H67.8221V102.65H66.8221V103.65ZM66.8221 141V142H67.8221V141H66.8221ZM58.4221 141H57.4221V142H58.4221V141ZM66.6471 87.825V95.85H68.6471V87.825H66.6471ZM67.6471 94.85H57.6721V96.85H67.6471V94.85ZM58.6721 95.85V87.825H56.6721V95.85H58.6721ZM57.6721 88.825H67.6471V86.825H57.6721V88.825ZM58.4221 104.65H66.8221V102.65H58.4221V104.65ZM65.8221 103.65V141H67.8221V103.65H65.8221ZM66.8221 140H58.4221V142H66.8221V140ZM59.4221 141V103.65H57.4221V141H59.4221ZM75.1436 128.7V127.7H74.268L74.1523 128.568L75.1436 128.7ZM82.8686 128.7L83.8471 128.494L83.6799 127.7H82.8686V128.7ZM85.9436 133.35L85.3554 134.159L85.3635 134.165L85.3718 134.17L85.9436 133.35ZM96.8186 134.475L96.4626 133.541L96.4548 133.543L96.4472 133.547L96.8186 134.475ZM98.9936 132.825L98.1524 132.284L98.1383 132.306L98.1253 132.329L98.9936 132.825ZM98.6936 127.875L97.9865 128.582L98.0006 128.596L98.0153 128.61L98.6936 127.875ZM95.9936 126.375L96.3098 125.426L95.9936 126.375ZM91.4936 125.325L91.2572 126.297L91.2929 126.305L91.3292 126.311L91.4936 125.325ZM86.0186 123.825L86.3108 122.869L86.0186 123.825ZM81.1436 121.8L80.6378 122.663L80.6491 122.669L80.6605 122.676L81.1436 121.8ZM77.6936 118.65L76.8419 119.174L76.8538 119.193L76.8666 119.212L77.6936 118.65ZM77.6186 109.35L76.7503 108.854L76.7444 108.864L77.6186 109.35ZM80.9186 105.825L81.4801 106.652L80.9186 105.825ZM85.8686 103.65L86.123 104.617L86.1349 104.614L86.1466 104.611L85.8686 103.65ZM100.194 104.4L99.7547 105.299L99.7628 105.302L100.194 104.4ZM105.144 108.825L104.278 109.326L104.283 109.334L104.288 109.343L105.144 108.825ZM106.869 115.35V116.35H107.869V115.35H106.869ZM99.5186 115.35L98.538 115.546L98.6988 116.35H99.5186V115.35ZM97.1936 111L96.5772 111.788L97.1936 111ZM86.0936 116.7L85.4386 117.456L85.4653 117.479L85.4936 117.5L86.0936 116.7ZM89.4686 118.275L89.1722 119.23L89.4686 118.275ZM94.5686 119.625L94.8362 118.661L94.8149 118.656L94.7934 118.651L94.5686 119.625ZM99.6686 121.2L99.3435 122.146L99.3568 122.15L99.3703 122.154L99.6686 121.2ZM103.944 123.15L103.405 123.992L103.424 124.005L103.444 124.016L103.944 123.15ZM107.019 126.15L107.876 125.635L107.019 126.15ZM106.269 136.725L105.471 136.121L105.466 136.129L105.46 136.137L106.269 136.725ZM101.019 140.55L101.365 141.488L101.374 141.485L101.383 141.481L101.019 140.55ZM85.2686 140.85L84.9663 141.803L84.9729 141.805L85.2686 140.85ZM80.0936 138.3L79.4796 139.089L79.4865 139.095L79.4936 139.1L80.0936 138.3ZM76.9436 134.925L76.0956 135.455L76.9436 134.925ZM75.3686 131.475L74.3934 131.697L74.3982 131.717L74.4038 131.738L75.3686 131.475ZM75.1436 129.7H82.8686V127.7H75.1436V129.7ZM81.89 128.906C82.3438 131.061 83.5163 132.821 85.3554 134.159L86.5317 132.541C85.0709 131.479 84.1933 130.139 83.8471 128.494L81.89 128.906ZM85.3718 134.17C87.2437 135.475 89.6918 136.075 92.6186 136.075V134.075C89.9453 134.075 87.9435 133.525 86.5154 132.53L85.3718 134.17ZM92.6186 136.075C94.4719 136.075 96.0185 135.872 97.1899 135.403L96.4472 133.547C95.6186 133.878 94.3652 134.075 92.6186 134.075V136.075ZM97.1746 135.409C98.3567 134.959 99.309 134.288 99.8618 133.321L98.1253 132.329C97.8781 132.762 97.3804 133.191 96.4626 133.541L97.1746 135.409ZM99.8347 133.366C100.397 132.491 100.669 131.5 100.669 130.425H98.6686C98.6686 131.15 98.4902 131.759 98.1524 132.284L99.8347 133.366ZM100.669 130.425C100.669 129.119 100.275 127.974 99.3718 127.14L98.0153 128.61C98.4122 128.976 98.6686 129.531 98.6686 130.425H100.669ZM99.4007 127.168C98.6503 126.418 97.5907 125.853 96.3098 125.426L95.6773 127.324C96.7964 127.697 97.5368 128.132 97.9865 128.582L99.4007 127.168ZM96.3098 125.426C95.0438 125.004 93.489 124.644 91.658 124.339L91.3292 126.311C93.0981 126.606 94.5433 126.946 95.6773 127.324L96.3098 125.426ZM91.7299 124.353C89.8985 123.908 88.0921 123.413 86.3108 122.869L85.7263 124.781C87.545 125.337 89.3887 125.842 91.2572 126.297L91.7299 124.353ZM86.3108 122.869C84.5682 122.336 83.0084 121.687 81.6266 120.924L80.6605 122.676C82.1787 123.513 83.8689 124.214 85.7263 124.781L86.3108 122.869ZM81.6493 120.937C80.3129 120.154 79.2781 119.202 78.5205 118.088L76.8666 119.212C77.809 120.598 79.0743 121.746 80.6378 122.663L81.6493 120.937ZM78.5452 118.126C77.861 117.014 77.4936 115.629 77.4936 113.925H75.4936C75.4936 115.921 75.9262 117.686 76.8419 119.174L78.5452 118.126ZM77.4936 113.925C77.4936 112.377 77.8334 111.022 78.4927 109.836L76.7444 108.864C75.9037 110.378 75.4936 112.073 75.4936 113.925H77.4936ZM78.4868 109.846C79.2074 108.585 80.1998 107.521 81.4801 106.652L80.3571 104.998C78.8373 106.029 77.6297 107.315 76.7503 108.854L78.4868 109.846ZM81.4801 106.652C82.7726 105.775 84.3152 105.093 86.123 104.617L85.6141 102.683C83.6219 103.207 81.8645 103.975 80.3571 104.998L81.4801 106.652ZM86.1466 104.611C87.9448 104.09 89.9249 103.825 92.0936 103.825V101.825C89.7622 101.825 87.5923 102.11 85.5905 102.689L86.1466 104.611ZM92.0936 103.825C95.2431 103.825 97.7813 104.335 99.7547 105.299L100.632 103.501C98.3058 102.365 95.444 101.825 92.0936 101.825V103.825ZM99.7628 105.302C101.802 106.276 103.29 107.62 104.278 109.326L106.009 108.324C104.797 106.23 102.985 104.624 100.624 103.498L99.7628 105.302ZM104.288 109.343C105.334 111.071 105.869 113.063 105.869 115.35H107.869C107.869 112.737 107.253 110.379 105.999 108.307L104.288 109.343ZM106.869 114.35H99.5186V116.35H106.869V114.35ZM100.499 115.154C100.071 113.012 99.2109 111.309 97.8099 110.212L96.5772 111.788C97.4762 112.491 98.1664 113.688 98.538 115.546L100.499 115.154ZM97.8099 110.212C96.4082 109.116 94.4216 108.65 92.0186 108.65V110.65C94.2155 110.65 95.6789 111.084 96.5772 111.788L97.8099 110.212ZM92.0186 108.65C89.6286 108.65 87.6492 109.061 86.2139 110.018L87.3233 111.682C88.2879 111.039 89.8085 110.65 92.0186 110.65V108.65ZM86.2139 110.018C84.7457 110.997 83.9686 112.404 83.9686 114.15H85.9686C85.9686 113.096 86.3914 112.303 87.3233 111.682L86.2139 110.018ZM83.9686 114.15C83.9686 115.471 84.4554 116.604 85.4386 117.456L86.7485 115.944C86.2317 115.496 85.9686 114.929 85.9686 114.15H83.9686ZM85.4936 117.5C86.4197 118.195 87.6635 118.762 89.1722 119.23L89.765 117.32C88.3736 116.888 87.3674 116.405 86.6936 115.9L85.4936 117.5ZM89.1722 119.23C90.6518 119.689 92.3767 120.145 94.3437 120.599L94.7934 118.651C92.8604 118.205 91.1853 117.761 89.765 117.32L89.1722 119.23ZM94.3009 120.589C96.0836 121.084 97.7643 121.603 99.3435 122.146L99.9936 120.254C98.3728 119.697 96.6536 119.166 94.8362 118.661L94.3009 120.589ZM99.3703 122.154C100.896 122.631 102.238 123.246 103.405 123.992L104.483 122.308C103.149 121.454 101.641 120.769 99.9668 120.246L99.3703 122.154ZM103.444 124.016C104.601 124.684 105.501 125.565 106.161 126.664L107.876 125.635C107.036 124.235 105.886 123.116 104.443 122.284L103.444 124.016ZM106.161 126.664C106.796 127.722 107.144 129.083 107.144 130.8H109.144C109.144 128.817 108.741 127.078 107.876 125.635L106.161 126.664ZM107.144 130.8C107.144 132.908 106.575 134.664 105.471 136.121L107.066 137.329C108.462 135.486 109.144 133.292 109.144 130.8H107.144ZM105.46 136.137C104.394 137.603 102.814 138.774 100.654 139.619L101.383 141.481C103.823 140.526 105.743 139.147 107.077 137.313L105.46 136.137ZM100.672 139.612C98.5124 140.41 95.8615 140.825 92.6936 140.825V142.825C96.0256 142.825 98.9247 142.39 101.365 141.488L100.672 139.612ZM92.6936 140.825C89.9158 140.825 87.545 140.508 85.5642 139.895L84.9729 141.805C87.1922 142.492 89.7713 142.825 92.6936 142.825V140.825ZM85.5708 139.897C83.6043 139.273 81.9857 138.469 80.6936 137.5L79.4936 139.1C81.0014 140.231 82.8328 141.127 84.9663 141.803L85.5708 139.897ZM80.7075 137.511C79.4314 136.518 78.4679 135.477 77.7915 134.395L76.0956 135.455C76.9192 136.773 78.0557 137.982 79.4796 139.089L80.7075 137.511ZM77.7915 134.395C77.0814 133.259 76.6023 132.198 76.3333 131.212L74.4038 131.738C74.7348 132.952 75.3057 134.191 76.0956 135.455L77.7915 134.395ZM76.3437 131.253C76.1084 130.218 76.0562 129.421 76.1348 128.832L74.1523 128.568C74.0309 129.479 74.1287 130.532 74.3934 131.697L76.3437 131.253ZM125.435 87.825H126.435V86.825H125.435V87.825ZM125.435 95.85V96.85H126.435V95.85H125.435ZM115.46 95.85H114.46V96.85H115.46V95.85ZM115.46 87.825V86.825H114.46V87.825H115.46ZM116.21 103.65V102.65H115.21V103.65H116.21ZM124.61 103.65H125.61V102.65H124.61V103.65ZM124.61 141V142H125.61V141H124.61ZM116.21 141H115.21V142H116.21V141ZM124.435 87.825V95.85H126.435V87.825H124.435ZM125.435 94.85H115.46V96.85H125.435V94.85ZM116.46 95.85V87.825H114.46V95.85H116.46ZM115.46 88.825H125.435V86.825H115.46V88.825ZM116.21 104.65H124.61V102.65H116.21V104.65ZM123.61 103.65V141H125.61V103.65H123.61ZM124.61 140H116.21V142H124.61V140ZM117.21 141V103.65H115.21V141H117.21ZM143.282 139.575L142.868 140.485L143.282 139.575ZM135.482 132.975L136.318 132.427L135.482 132.975ZM135.482 111.9L136.318 112.448L136.322 112.441L135.482 111.9ZM143.282 105.15L142.857 104.245L143.282 105.15ZM173.207 111.9L172.359 112.431L172.365 112.44L172.37 112.448L173.207 111.9ZM173.207 132.975L172.37 132.427L172.364 132.437L173.207 132.975ZM165.557 139.575L165.138 138.667L165.557 139.575ZM165.782 129.3L164.936 128.766L164.931 128.774L164.926 128.782L165.782 129.3ZM165.782 115.5L164.926 116.018L164.931 116.026L164.936 116.034L165.782 115.5ZM161.057 111.15L160.583 112.03L160.596 112.038L160.609 112.044L161.057 111.15ZM147.782 111.075L147.334 110.181L147.782 111.075ZM142.907 115.425L142.071 114.875L142.066 114.883L142.061 114.891L142.907 115.425ZM142.907 129.3L142.061 129.834L142.907 129.3ZM147.707 133.575L147.278 134.478L147.286 134.482L147.707 133.575ZM154.457 140.825C150.429 140.825 146.848 140.098 143.695 138.665L142.868 140.485C146.315 142.052 150.185 142.825 154.457 142.825V140.825ZM143.695 138.665C140.56 137.239 138.109 135.161 136.318 132.427L134.645 133.523C136.654 136.589 139.404 138.911 142.868 140.485L143.695 138.665ZM136.318 132.427C134.544 129.72 133.632 126.394 133.632 122.4H131.632C131.632 126.706 132.619 130.43 134.645 133.523L136.318 132.427ZM133.632 122.4C133.632 118.459 134.543 115.157 136.318 112.448L134.645 111.352C132.62 114.443 131.632 118.141 131.632 122.4H133.632ZM136.322 112.441C138.117 109.656 140.57 107.529 143.707 106.055L142.857 104.245C139.394 105.871 136.647 108.244 134.641 111.359L136.322 112.441ZM143.707 106.055C146.856 104.576 150.433 103.825 154.457 103.825V101.825C150.18 101.825 146.307 102.624 142.857 104.245L143.707 106.055ZM154.457 103.825C158.48 103.825 162.03 104.576 165.126 106.053L165.987 104.247C162.584 102.624 158.733 101.825 154.457 101.825V103.825ZM165.126 106.053C168.211 107.524 170.614 109.648 172.359 112.431L174.054 111.369C172.099 108.252 169.402 105.876 165.987 104.247L165.126 106.053ZM172.37 112.448C174.145 115.157 175.057 118.459 175.057 122.4H177.057C177.057 118.141 176.068 114.443 174.043 111.352L172.37 112.448ZM175.057 122.4C175.057 126.394 174.144 129.72 172.37 132.427L174.043 133.523C176.069 130.43 177.057 126.706 177.057 122.4H175.057ZM172.364 132.437C170.621 135.169 168.221 137.244 165.138 138.667L165.976 140.483C169.392 138.906 172.092 136.581 174.05 133.513L172.364 132.437ZM165.138 138.667C162.038 140.097 158.485 140.825 154.457 140.825V142.825C158.728 142.825 162.575 142.053 165.976 140.483L165.138 138.667ZM154.457 136C156.992 136 159.341 135.497 161.486 134.478L160.628 132.672C158.773 133.553 156.721 134 154.457 134V136ZM161.486 134.478C163.663 133.444 165.386 131.885 166.637 129.818L164.926 128.782C163.877 130.515 162.45 131.806 160.628 132.672L161.486 134.478ZM166.627 129.834C167.947 127.745 168.582 125.251 168.582 122.4H166.582C166.582 124.949 166.016 127.055 164.936 128.766L166.627 129.834ZM168.582 122.4C168.582 119.549 167.947 117.055 166.627 114.966L164.936 116.034C166.016 117.745 166.582 119.851 166.582 122.4H168.582ZM166.637 114.982C165.389 112.919 163.672 111.339 161.504 110.256L160.609 112.044C162.442 112.961 163.875 114.281 164.926 116.018L166.637 114.982ZM161.531 110.27C159.42 109.133 157.054 108.575 154.457 108.575V110.575C156.759 110.575 158.793 111.067 160.583 112.03L161.531 110.27ZM154.457 108.575C151.867 108.575 149.486 109.105 147.334 110.181L148.229 111.969C150.077 111.045 152.147 110.575 154.457 110.575V108.575ZM147.334 110.181C145.174 111.261 143.416 112.831 142.071 114.875L143.742 115.975C144.897 114.219 146.389 112.889 148.229 111.969L147.334 110.181ZM142.061 114.891C140.74 116.983 140.107 119.503 140.107 122.4H142.107C142.107 119.797 142.674 117.667 143.752 115.959L142.061 114.891ZM140.107 122.4C140.107 125.251 140.741 127.745 142.061 129.834L143.752 128.766C142.672 127.055 142.107 124.949 142.107 122.4H140.107ZM142.061 129.834C143.361 131.891 145.104 133.446 147.278 134.478L148.136 132.672C146.309 131.804 144.853 130.509 143.752 128.766L142.061 129.834ZM147.286 134.482C149.479 135.498 151.874 136 154.457 136V134C152.139 134 150.035 133.552 148.127 132.668L147.286 134.482ZM183.507 103.65V102.65H182.507V103.65H183.507ZM191.832 103.65H192.832V102.65H191.832V103.65ZM191.832 141V142H192.832V141H191.832ZM183.507 141H182.507V142H183.507V141ZM213.507 103.725L213.191 104.674L213.199 104.676L213.507 103.725ZM218.232 106.5L217.539 107.221L217.553 107.234L217.568 107.247L218.232 106.5ZM221.307 111L220.375 111.362L220.38 111.374L220.384 111.385L221.307 111ZM222.432 141V142H223.432V141H222.432ZM214.107 141H213.107V142H214.107V141ZM211.857 112.275L211.138 112.97L211.15 112.982L211.162 112.994L211.857 112.275ZM198.357 111.6L198.814 112.49L198.822 112.485L198.357 111.6ZM193.557 115.575L194.345 116.191L194.35 116.185L194.355 116.179L193.557 115.575ZM191.382 120.9L190.383 120.919L192.377 121.002L191.382 120.9ZM191.307 116.85L190.316 116.716L190.306 116.792L190.308 116.869L191.307 116.85ZM192.957 111.6L193.846 112.058L193.852 112.047L192.957 111.6ZM196.332 107.1L197.013 107.833L197.02 107.826L197.027 107.82L196.332 107.1ZM201.282 103.95L201.65 104.88L201.282 103.95ZM183.507 104.65H191.832V102.65H183.507V104.65ZM190.832 103.65V141H192.832V103.65H190.832ZM191.832 140H183.507V142H191.832V140ZM184.507 141V103.65H182.507V141H184.507ZM207.582 103.825C209.639 103.825 211.506 104.112 213.191 104.674L213.824 102.776C211.909 102.138 209.826 101.825 207.582 101.825V103.825ZM213.199 104.676C214.916 105.233 216.357 106.084 217.539 107.221L218.926 105.779C217.508 104.416 215.798 103.417 213.816 102.774L213.199 104.676ZM217.568 107.247C218.791 108.335 219.729 109.7 220.375 111.362L222.239 110.638C221.486 108.7 220.373 107.065 218.897 105.753L217.568 107.247ZM220.384 111.385C221.072 113.036 221.432 115.024 221.432 117.375H223.432C223.432 114.826 223.042 112.564 222.23 110.615L220.384 111.385ZM221.432 117.375V141H223.432V117.375H221.432ZM222.432 140H214.107V142H222.432V140ZM215.107 141V119.025H213.107V141H215.107ZM215.107 119.025C215.107 115.83 214.322 113.267 212.552 111.556L211.162 112.994C212.393 114.183 213.107 116.12 213.107 119.025H215.107ZM212.576 111.58C210.86 109.805 208.242 109.025 204.957 109.025V111.025C207.973 111.025 209.955 111.745 211.138 112.97L212.576 111.58ZM204.957 109.025C202.406 109.025 200.045 109.585 197.893 110.715L198.822 112.485C200.67 111.515 202.709 111.025 204.957 111.025V109.025ZM197.901 110.71C195.826 111.775 194.106 113.194 192.76 114.971L194.355 116.179C195.509 114.656 196.989 113.425 198.814 112.49L197.901 110.71ZM192.769 114.959C191.408 116.702 190.608 118.654 190.388 120.798L192.377 121.002C192.557 119.246 193.207 117.648 194.345 116.191L192.769 114.959ZM192.382 120.881L192.307 116.831L190.308 116.869L190.383 120.919L192.382 120.881ZM192.298 116.984C192.533 115.246 193.049 113.606 193.846 112.058L192.068 111.142C191.166 112.894 190.582 114.754 190.316 116.716L192.298 116.984ZM193.852 112.047C194.648 110.455 195.7 109.052 197.013 107.833L195.652 106.367C194.165 107.748 192.967 109.345 192.063 111.153L193.852 112.047ZM197.027 107.82C198.328 106.565 199.865 105.585 201.65 104.88L200.915 103.02C198.9 103.815 197.137 104.935 195.638 106.38L197.027 107.82ZM201.65 104.88C203.419 104.182 205.392 103.825 207.582 103.825V101.825C205.172 101.825 202.946 102.218 200.915 103.02L201.65 104.88Z" fill="white" mask="url(#path-1-outside-1_101_557)"/>
</g>
<defs>
<filter id="filter0_d_101_557" x="0.5" y="0.5" width="224.933" height="144.325" filterUnits="userSpaceOnUse" color-interpolation-filters="sRGB">
<feFlood flood-opacity="0" result="BackgroundImageFix"/>
<feColorMatrix in="SourceAlpha" type="matrix" values="0 0 0 0 0 0 0 0 0 0 0 0 0 0 0 0 0 0 127 0" result="hardAlpha"/>
<feOffset dx="1" dy="1"/>
<feGaussianBlur stdDeviation="1"/>
<feComposite in2="hardAlpha" operator="out"/>
<feColorMatrix type="matrix" values="0 0 0 0 0 0 0 0 0 0 0 0 0 0 0 0 0 0 1 0"/>
<feBlend mode="normal" in2="BackgroundImageFix" result="effect1_dropShadow_101_557"/>
<feBlend mode="normal" in="SourceGraphic" in2="effect1_dropShadow_101_557" result="shape"/>
</filter>
</defs>
</svg>
