<svg width="261" height="31" viewBox="0 0 261 31" fill="none" xmlns="http://www.w3.org/2000/svg">
<g filter="url(#filter0_d_240_3630)">
<mask id="path-1-outside-1_240_3630" maskUnits="userSpaceOnUse" x="-1" y="-1" width="262" height="32" fill="black">
<rect fill="white" x="-1" y="-1" width="262" height="32"/>
<path d="M8.928 23L0.64 2.264H4.608L11.648 20.504H10.496L17.216 2.264H21.344L28.064 20.504H26.912L33.952 2.264H37.856L29.664 23H25.376L18.752 4.792H19.84L13.184 23H8.928ZM53.61 23V13.784C53.61 12.9307 53.4607 12.2267 53.162 11.672C52.8847 11.096 52.4473 10.6587 51.85 10.36C51.2527 10.0613 50.4633 9.912 49.482 9.912C48.5007 9.912 47.6047 10.1253 46.794 10.552C45.9833 10.9573 45.322 11.5013 44.81 12.184C44.298 12.8667 43.9993 13.624 43.914 14.456L43.882 12.664C43.9887 11.896 44.2233 11.16 44.586 10.456C44.9487 9.73067 45.4287 9.09067 46.026 8.536C46.6233 7.98133 47.3273 7.544 48.138 7.224C48.9487 6.88267 49.8447 6.712 50.826 6.712C51.7433 6.712 52.586 6.84 53.354 7.096C54.1433 7.352 54.8153 7.736 55.37 8.248C55.946 8.73867 56.3833 9.35733 56.682 10.104C57.002 10.8293 57.162 11.672 57.162 12.632V23H53.61ZM40.554 23V0.664H44.106V23H40.554ZM59.3565 7.064H63.1645L69.5965 22.36L66.5245 23L59.3565 7.064ZM77.1165 7.064L66.8765 29.4H63.1325L67.5165 20.664L73.3085 7.064H77.1165ZM109.415 15.736C109.201 17.336 108.636 18.712 107.719 19.864C106.801 20.9947 105.575 21.8693 104.039 22.488C102.524 23.0853 100.753 23.384 98.7265 23.384C96.9772 23.384 95.3665 23.1493 93.8945 22.68C92.4438 22.2107 91.1745 21.528 90.0865 20.632C89.0198 19.7147 88.1878 18.5947 87.5905 17.272C87.0145 15.928 86.7265 14.392 86.7265 12.664C86.7265 10.9147 87.0145 9.37867 87.5905 8.056C88.1878 6.73333 89.0198 5.61333 90.0865 4.696C91.1745 3.75733 92.4438 3.05333 93.8945 2.584C95.3665 2.11467 96.9772 1.88 98.7265 1.88C100.775 1.88 102.556 2.18933 104.071 2.808C105.607 3.42666 106.833 4.312 107.751 5.464C108.668 6.616 109.223 8.00267 109.415 9.624H105.895C105.596 8.664 105.127 7.85333 104.487 7.192C103.847 6.50933 103.036 5.98667 102.055 5.624C101.095 5.26133 99.9852 5.08 98.7265 5.08C97.1478 5.08 95.7292 5.37867 94.4705 5.976C93.2118 6.552 92.2198 7.40533 91.4945 8.536C90.7905 9.64533 90.4385 11.0213 90.4385 12.664C90.4385 14.2853 90.7905 15.6613 91.4945 16.792C92.2198 17.9013 93.2118 18.744 94.4705 19.32C95.7292 19.896 97.1478 20.184 98.7265 20.184C99.9852 20.184 101.095 20.0133 102.055 19.672C103.015 19.3093 103.815 18.7973 104.455 18.136C105.095 17.4533 105.564 16.6533 105.863 15.736H109.415ZM126.454 23V13.784C126.454 12.9307 126.304 12.2267 126.006 11.672C125.728 11.096 125.291 10.6587 124.694 10.36C124.096 10.0613 123.307 9.912 122.326 9.912C121.344 9.912 120.448 10.1253 119.638 10.552C118.827 10.9573 118.166 11.5013 117.654 12.184C117.142 12.8667 116.843 13.624 116.758 14.456L116.726 12.664C116.832 11.896 117.067 11.16 117.43 10.456C117.792 9.73067 118.272 9.09067 118.87 8.536C119.467 7.98133 120.171 7.544 120.982 7.224C121.792 6.88267 122.688 6.712 123.67 6.712C124.587 6.712 125.43 6.84 126.198 7.096C126.987 7.352 127.659 7.736 128.214 8.248C128.79 8.73867 129.227 9.35733 129.526 10.104C129.846 10.8293 130.006 11.672 130.006 12.632V23H126.454ZM113.398 23V0.664H116.95V23H113.398ZM142.433 23.352C140.662 23.352 139.073 23.032 137.665 22.392C136.257 21.752 135.147 20.8133 134.337 19.576C133.526 18.3387 133.121 16.8347 133.121 15.064C133.121 13.3147 133.526 11.8213 134.337 10.584C135.147 9.32533 136.257 8.36533 137.665 7.704C139.073 7.04267 140.662 6.712 142.433 6.712C144.203 6.712 145.782 7.04267 147.169 7.704C148.555 8.36533 149.643 9.32533 150.433 10.584C151.243 11.8213 151.649 13.3147 151.649 15.064C151.649 16.8347 151.243 18.3387 150.433 19.576C149.643 20.8133 148.555 21.752 147.169 22.392C145.782 23.032 144.203 23.352 142.433 23.352ZM142.433 20.44C143.457 20.44 144.395 20.2373 145.249 19.832C146.102 19.4267 146.774 18.8187 147.265 18.008C147.777 17.1973 148.033 16.216 148.033 15.064C148.033 13.912 147.777 12.9307 147.265 12.12C146.774 11.3093 146.102 10.6907 145.249 10.264C144.417 9.816 143.478 9.592 142.433 9.592C141.387 9.592 140.438 9.80533 139.585 10.232C138.731 10.6587 138.038 11.2773 137.505 12.088C136.993 12.8987 136.737 13.8907 136.737 15.064C136.737 16.216 136.993 17.1973 137.505 18.008C138.017 18.8187 138.699 19.4267 139.553 19.832C140.427 20.2373 141.387 20.44 142.433 20.44ZM163.308 23.352C161.537 23.352 159.948 23.032 158.54 22.392C157.132 21.752 156.022 20.8133 155.212 19.576C154.401 18.3387 153.996 16.8347 153.996 15.064C153.996 13.3147 154.401 11.8213 155.212 10.584C156.022 9.32533 157.132 8.36533 158.54 7.704C159.948 7.04267 161.537 6.712 163.308 6.712C165.078 6.712 166.657 7.04267 168.044 7.704C169.43 8.36533 170.518 9.32533 171.308 10.584C172.118 11.8213 172.524 13.3147 172.524 15.064C172.524 16.8347 172.118 18.3387 171.308 19.576C170.518 20.8133 169.43 21.752 168.044 22.392C166.657 23.032 165.078 23.352 163.308 23.352ZM163.308 20.44C164.332 20.44 165.27 20.2373 166.124 19.832C166.977 19.4267 167.649 18.8187 168.14 18.008C168.652 17.1973 168.908 16.216 168.908 15.064C168.908 13.912 168.652 12.9307 168.14 12.12C167.649 11.3093 166.977 10.6907 166.124 10.264C165.292 9.816 164.353 9.592 163.308 9.592C162.262 9.592 161.313 9.80533 160.46 10.232C159.606 10.6587 158.913 11.2773 158.38 12.088C157.868 12.8987 157.612 13.8907 157.612 15.064C157.612 16.216 157.868 17.1973 158.38 18.008C158.892 18.8187 159.574 19.4267 160.428 19.832C161.302 20.2373 162.262 20.44 163.308 20.44ZM174.999 17.752H178.295C178.465 18.5627 178.903 19.224 179.607 19.736C180.311 20.2267 181.26 20.472 182.455 20.472C183.223 20.472 183.82 20.3867 184.247 20.216C184.695 20.0453 185.004 19.8107 185.175 19.512C185.367 19.2133 185.463 18.872 185.463 18.488C185.463 18.0187 185.324 17.656 185.047 17.4C184.791 17.144 184.407 16.9307 183.895 16.76C183.383 16.5893 182.743 16.44 181.975 16.312C181.185 16.12 180.407 15.9067 179.639 15.672C178.871 15.4373 178.177 15.1493 177.559 14.808C176.94 14.4453 176.449 13.9973 176.087 13.464C175.745 12.9093 175.575 12.2373 175.575 11.448C175.575 10.7227 175.735 10.072 176.055 9.496C176.396 8.89867 176.865 8.39733 177.463 7.992C178.06 7.58667 178.764 7.27733 179.575 7.064C180.385 6.82933 181.271 6.712 182.231 6.712C183.617 6.712 184.769 6.936 185.687 7.384C186.625 7.832 187.329 8.46133 187.799 9.272C188.289 10.0827 188.535 11.0107 188.535 12.056H185.399C185.228 11.2027 184.897 10.584 184.407 10.2C183.916 9.816 183.18 9.624 182.199 9.624C181.217 9.624 180.471 9.79467 179.959 10.136C179.447 10.4773 179.191 10.9467 179.191 11.544C179.191 11.992 179.351 12.3547 179.671 12.632C180.012 12.888 180.492 13.112 181.111 13.304C181.729 13.496 182.455 13.688 183.287 13.88C184.055 14.0933 184.78 14.3173 185.463 14.552C186.145 14.7653 186.753 15.0427 187.287 15.384C187.841 15.704 188.279 16.1307 188.599 16.664C188.919 17.1973 189.079 17.8587 189.079 18.648C189.079 19.6293 188.812 20.472 188.279 21.176C187.767 21.88 187.02 22.424 186.039 22.808C185.057 23.1707 183.873 23.352 182.487 23.352C181.271 23.352 180.215 23.2133 179.319 22.936C178.444 22.6587 177.708 22.296 177.111 21.848C176.535 21.4 176.087 20.92 175.767 20.408C175.447 19.896 175.223 19.4053 175.095 18.936C174.988 18.4667 174.956 18.072 174.999 17.752ZM205.609 17.752H209.033C208.862 18.84 208.435 19.8107 207.753 20.664C207.091 21.496 206.185 22.1573 205.033 22.648C203.881 23.1173 202.505 23.352 200.905 23.352C199.091 23.352 197.47 23.0213 196.041 22.36C194.611 21.6773 193.491 20.7173 192.681 19.48C191.87 18.2427 191.465 16.7707 191.465 15.064C191.465 13.3787 191.859 11.9067 192.649 10.648C193.438 9.38933 194.526 8.41867 195.913 7.736C197.321 7.05333 198.942 6.712 200.777 6.712C202.675 6.712 204.254 7.05333 205.513 7.736C206.793 8.39733 207.742 9.4 208.361 10.744C208.979 12.0667 209.235 13.7413 209.128 15.768H195.081C195.187 16.664 195.475 17.4747 195.945 18.2C196.435 18.904 197.097 19.4587 197.929 19.864C198.761 20.248 199.731 20.44 200.841 20.44C202.078 20.44 203.113 20.1947 203.945 19.704C204.798 19.2133 205.353 18.5627 205.609 17.752ZM200.681 9.592C199.23 9.592 198.035 9.95467 197.097 10.68C196.158 11.384 195.55 12.2907 195.273 13.4H205.545C205.459 12.2053 204.979 11.2773 204.105 10.616C203.23 9.93333 202.089 9.592 200.681 9.592ZM237.56 14.264V2.264H241.176V14.552C241.176 15.8533 240.994 16.9947 240.632 17.976C240.29 18.9573 239.8 19.7893 239.16 20.472C238.52 21.1547 237.762 21.72 236.888 22.168C236.013 22.5947 235.053 22.904 234.008 23.096C232.984 23.288 231.896 23.384 230.744 23.384C229.549 23.384 228.418 23.288 227.352 23.096C226.285 22.904 225.314 22.5947 224.44 22.168C223.565 21.72 222.808 21.1547 222.168 20.472C221.549 19.7893 221.058 18.9573 220.696 17.976C220.354 16.9947 220.184 15.8533 220.184 14.552V2.264H223.832V14.264C223.832 15.8853 224.13 17.1227 224.728 17.976C225.346 18.808 226.178 19.384 227.224 19.704C228.269 20.024 229.442 20.184 230.744 20.184C232.002 20.184 233.144 20.024 234.168 19.704C235.192 19.384 236.013 18.808 236.632 17.976C237.25 17.1227 237.56 15.8853 237.56 14.264ZM244.936 17.752H248.232C248.403 18.5627 248.84 19.224 249.544 19.736C250.248 20.2267 251.198 20.472 252.392 20.472C253.16 20.472 253.758 20.3867 254.184 20.216C254.632 20.0453 254.942 19.8107 255.112 19.512C255.304 19.2133 255.4 18.872 255.4 18.488C255.4 18.0187 255.262 17.656 254.984 17.4C254.728 17.144 254.344 16.9307 253.832 16.76C253.32 16.5893 252.68 16.44 251.912 16.312C251.123 16.12 250.344 15.9067 249.576 15.672C248.808 15.4373 248.115 15.1493 247.496 14.808C246.878 14.4453 246.387 13.9973 246.024 13.464C245.683 12.9093 245.512 12.2373 245.512 11.448C245.512 10.7227 245.672 10.072 245.992 9.496C246.334 8.89867 246.803 8.39733 247.4 7.992C247.998 7.58667 248.702 7.27733 249.512 7.064C250.323 6.82933 251.208 6.712 252.168 6.712C253.555 6.712 254.707 6.936 255.624 7.384C256.563 7.832 257.267 8.46133 257.736 9.272C258.227 10.0827 258.472 11.0107 258.472 12.056H255.336C255.166 11.2027 254.835 10.584 254.344 10.2C253.854 9.816 253.118 9.624 252.136 9.624C251.155 9.624 250.408 9.79467 249.896 10.136C249.384 10.4773 249.128 10.9467 249.128 11.544C249.128 11.992 249.288 12.3547 249.608 12.632C249.95 12.888 250.43 13.112 251.048 13.304C251.667 13.496 252.392 13.688 253.224 13.88C253.992 14.0933 254.718 14.3173 255.4 14.552C256.083 14.7653 256.691 15.0427 257.224 15.384C257.779 15.704 258.216 16.1307 258.536 16.664C258.856 17.1973 259.016 17.8587 259.016 18.648C259.016 19.6293 258.75 20.472 258.216 21.176C257.704 21.88 256.958 22.424 255.976 22.808C254.995 23.1707 253.811 23.352 252.424 23.352C251.208 23.352 250.152 23.2133 249.256 22.936C248.382 22.6587 247.646 22.296 247.048 21.848C246.472 21.4 246.024 20.92 245.704 20.408C245.384 19.896 245.16 19.4053 245.032 18.936C244.926 18.4667 244.894 18.072 244.936 17.752Z"/>
</mask>
<path d="M8.928 23L0.64 2.264H4.608L11.648 20.504H10.496L17.216 2.264H21.344L28.064 20.504H26.912L33.952 2.264H37.856L29.664 23H25.376L18.752 4.792H19.84L13.184 23H8.928ZM53.61 23V13.784C53.61 12.9307 53.4607 12.2267 53.162 11.672C52.8847 11.096 52.4473 10.6587 51.85 10.36C51.2527 10.0613 50.4633 9.912 49.482 9.912C48.5007 9.912 47.6047 10.1253 46.794 10.552C45.9833 10.9573 45.322 11.5013 44.81 12.184C44.298 12.8667 43.9993 13.624 43.914 14.456L43.882 12.664C43.9887 11.896 44.2233 11.16 44.586 10.456C44.9487 9.73067 45.4287 9.09067 46.026 8.536C46.6233 7.98133 47.3273 7.544 48.138 7.224C48.9487 6.88267 49.8447 6.712 50.826 6.712C51.7433 6.712 52.586 6.84 53.354 7.096C54.1433 7.352 54.8153 7.736 55.37 8.248C55.946 8.73867 56.3833 9.35733 56.682 10.104C57.002 10.8293 57.162 11.672 57.162 12.632V23H53.61ZM40.554 23V0.664H44.106V23H40.554ZM59.3565 7.064H63.1645L69.5965 22.36L66.5245 23L59.3565 7.064ZM77.1165 7.064L66.8765 29.4H63.1325L67.5165 20.664L73.3085 7.064H77.1165ZM109.415 15.736C109.201 17.336 108.636 18.712 107.719 19.864C106.801 20.9947 105.575 21.8693 104.039 22.488C102.524 23.0853 100.753 23.384 98.7265 23.384C96.9772 23.384 95.3665 23.1493 93.8945 22.68C92.4438 22.2107 91.1745 21.528 90.0865 20.632C89.0198 19.7147 88.1878 18.5947 87.5905 17.272C87.0145 15.928 86.7265 14.392 86.7265 12.664C86.7265 10.9147 87.0145 9.37867 87.5905 8.056C88.1878 6.73333 89.0198 5.61333 90.0865 4.696C91.1745 3.75733 92.4438 3.05333 93.8945 2.584C95.3665 2.11467 96.9772 1.88 98.7265 1.88C100.775 1.88 102.556 2.18933 104.071 2.808C105.607 3.42666 106.833 4.312 107.751 5.464C108.668 6.616 109.223 8.00267 109.415 9.624H105.895C105.596 8.664 105.127 7.85333 104.487 7.192C103.847 6.50933 103.036 5.98667 102.055 5.624C101.095 5.26133 99.9852 5.08 98.7265 5.08C97.1478 5.08 95.7292 5.37867 94.4705 5.976C93.2118 6.552 92.2198 7.40533 91.4945 8.536C90.7905 9.64533 90.4385 11.0213 90.4385 12.664C90.4385 14.2853 90.7905 15.6613 91.4945 16.792C92.2198 17.9013 93.2118 18.744 94.4705 19.32C95.7292 19.896 97.1478 20.184 98.7265 20.184C99.9852 20.184 101.095 20.0133 102.055 19.672C103.015 19.3093 103.815 18.7973 104.455 18.136C105.095 17.4533 105.564 16.6533 105.863 15.736H109.415ZM126.454 23V13.784C126.454 12.9307 126.304 12.2267 126.006 11.672C125.728 11.096 125.291 10.6587 124.694 10.36C124.096 10.0613 123.307 9.912 122.326 9.912C121.344 9.912 120.448 10.1253 119.638 10.552C118.827 10.9573 118.166 11.5013 117.654 12.184C117.142 12.8667 116.843 13.624 116.758 14.456L116.726 12.664C116.832 11.896 117.067 11.16 117.43 10.456C117.792 9.73067 118.272 9.09067 118.87 8.536C119.467 7.98133 120.171 7.544 120.982 7.224C121.792 6.88267 122.688 6.712 123.67 6.712C124.587 6.712 125.43 6.84 126.198 7.096C126.987 7.352 127.659 7.736 128.214 8.248C128.79 8.73867 129.227 9.35733 129.526 10.104C129.846 10.8293 130.006 11.672 130.006 12.632V23H126.454ZM113.398 23V0.664H116.95V23H113.398ZM142.433 23.352C140.662 23.352 139.073 23.032 137.665 22.392C136.257 21.752 135.147 20.8133 134.337 19.576C133.526 18.3387 133.121 16.8347 133.121 15.064C133.121 13.3147 133.526 11.8213 134.337 10.584C135.147 9.32533 136.257 8.36533 137.665 7.704C139.073 7.04267 140.662 6.712 142.433 6.712C144.203 6.712 145.782 7.04267 147.169 7.704C148.555 8.36533 149.643 9.32533 150.433 10.584C151.243 11.8213 151.649 13.3147 151.649 15.064C151.649 16.8347 151.243 18.3387 150.433 19.576C149.643 20.8133 148.555 21.752 147.169 22.392C145.782 23.032 144.203 23.352 142.433 23.352ZM142.433 20.44C143.457 20.44 144.395 20.2373 145.249 19.832C146.102 19.4267 146.774 18.8187 147.265 18.008C147.777 17.1973 148.033 16.216 148.033 15.064C148.033 13.912 147.777 12.9307 147.265 12.12C146.774 11.3093 146.102 10.6907 145.249 10.264C144.417 9.816 143.478 9.592 142.433 9.592C141.387 9.592 140.438 9.80533 139.585 10.232C138.731 10.6587 138.038 11.2773 137.505 12.088C136.993 12.8987 136.737 13.8907 136.737 15.064C136.737 16.216 136.993 17.1973 137.505 18.008C138.017 18.8187 138.699 19.4267 139.553 19.832C140.427 20.2373 141.387 20.44 142.433 20.44ZM163.308 23.352C161.537 23.352 159.948 23.032 158.54 22.392C157.132 21.752 156.022 20.8133 155.212 19.576C154.401 18.3387 153.996 16.8347 153.996 15.064C153.996 13.3147 154.401 11.8213 155.212 10.584C156.022 9.32533 157.132 8.36533 158.54 7.704C159.948 7.04267 161.537 6.712 163.308 6.712C165.078 6.712 166.657 7.04267 168.044 7.704C169.43 8.36533 170.518 9.32533 171.308 10.584C172.118 11.8213 172.524 13.3147 172.524 15.064C172.524 16.8347 172.118 18.3387 171.308 19.576C170.518 20.8133 169.43 21.752 168.044 22.392C166.657 23.032 165.078 23.352 163.308 23.352ZM163.308 20.44C164.332 20.44 165.27 20.2373 166.124 19.832C166.977 19.4267 167.649 18.8187 168.14 18.008C168.652 17.1973 168.908 16.216 168.908 15.064C168.908 13.912 168.652 12.9307 168.14 12.12C167.649 11.3093 166.977 10.6907 166.124 10.264C165.292 9.816 164.353 9.592 163.308 9.592C162.262 9.592 161.313 9.80533 160.46 10.232C159.606 10.6587 158.913 11.2773 158.38 12.088C157.868 12.8987 157.612 13.8907 157.612 15.064C157.612 16.216 157.868 17.1973 158.38 18.008C158.892 18.8187 159.574 19.4267 160.428 19.832C161.302 20.2373 162.262 20.44 163.308 20.44ZM174.999 17.752H178.295C178.465 18.5627 178.903 19.224 179.607 19.736C180.311 20.2267 181.26 20.472 182.455 20.472C183.223 20.472 183.82 20.3867 184.247 20.216C184.695 20.0453 185.004 19.8107 185.175 19.512C185.367 19.2133 185.463 18.872 185.463 18.488C185.463 18.0187 185.324 17.656 185.047 17.4C184.791 17.144 184.407 16.9307 183.895 16.76C183.383 16.5893 182.743 16.44 181.975 16.312C181.185 16.12 180.407 15.9067 179.639 15.672C178.871 15.4373 178.177 15.1493 177.559 14.808C176.94 14.4453 176.449 13.9973 176.087 13.464C175.745 12.9093 175.575 12.2373 175.575 11.448C175.575 10.7227 175.735 10.072 176.055 9.496C176.396 8.89867 176.865 8.39733 177.463 7.992C178.06 7.58667 178.764 7.27733 179.575 7.064C180.385 6.82933 181.271 6.712 182.231 6.712C183.617 6.712 184.769 6.936 185.687 7.384C186.625 7.832 187.329 8.46133 187.799 9.272C188.289 10.0827 188.535 11.0107 188.535 12.056H185.399C185.228 11.2027 184.897 10.584 184.407 10.2C183.916 9.816 183.18 9.624 182.199 9.624C181.217 9.624 180.471 9.79467 179.959 10.136C179.447 10.4773 179.191 10.9467 179.191 11.544C179.191 11.992 179.351 12.3547 179.671 12.632C180.012 12.888 180.492 13.112 181.111 13.304C181.729 13.496 182.455 13.688 183.287 13.88C184.055 14.0933 184.78 14.3173 185.463 14.552C186.145 14.7653 186.753 15.0427 187.287 15.384C187.841 15.704 188.279 16.1307 188.599 16.664C188.919 17.1973 189.079 17.8587 189.079 18.648C189.079 19.6293 188.812 20.472 188.279 21.176C187.767 21.88 187.02 22.424 186.039 22.808C185.057 23.1707 183.873 23.352 182.487 23.352C181.271 23.352 180.215 23.2133 179.319 22.936C178.444 22.6587 177.708 22.296 177.111 21.848C176.535 21.4 176.087 20.92 175.767 20.408C175.447 19.896 175.223 19.4053 175.095 18.936C174.988 18.4667 174.956 18.072 174.999 17.752ZM205.609 17.752H209.033C208.862 18.84 208.435 19.8107 207.753 20.664C207.091 21.496 206.185 22.1573 205.033 22.648C203.881 23.1173 202.505 23.352 200.905 23.352C199.091 23.352 197.47 23.0213 196.041 22.36C194.611 21.6773 193.491 20.7173 192.681 19.48C191.87 18.2427 191.465 16.7707 191.465 15.064C191.465 13.3787 191.859 11.9067 192.649 10.648C193.438 9.38933 194.526 8.41867 195.913 7.736C197.321 7.05333 198.942 6.712 200.777 6.712C202.675 6.712 204.254 7.05333 205.513 7.736C206.793 8.39733 207.742 9.4 208.361 10.744C208.979 12.0667 209.235 13.7413 209.128 15.768H195.081C195.187 16.664 195.475 17.4747 195.945 18.2C196.435 18.904 197.097 19.4587 197.929 19.864C198.761 20.248 199.731 20.44 200.841 20.44C202.078 20.44 203.113 20.1947 203.945 19.704C204.798 19.2133 205.353 18.5627 205.609 17.752ZM200.681 9.592C199.23 9.592 198.035 9.95467 197.097 10.68C196.158 11.384 195.55 12.2907 195.273 13.4H205.545C205.459 12.2053 204.979 11.2773 204.105 10.616C203.23 9.93333 202.089 9.592 200.681 9.592ZM237.56 14.264V2.264H241.176V14.552C241.176 15.8533 240.994 16.9947 240.632 17.976C240.29 18.9573 239.8 19.7893 239.16 20.472C238.52 21.1547 237.762 21.72 236.888 22.168C236.013 22.5947 235.053 22.904 234.008 23.096C232.984 23.288 231.896 23.384 230.744 23.384C229.549 23.384 228.418 23.288 227.352 23.096C226.285 22.904 225.314 22.5947 224.44 22.168C223.565 21.72 222.808 21.1547 222.168 20.472C221.549 19.7893 221.058 18.9573 220.696 17.976C220.354 16.9947 220.184 15.8533 220.184 14.552V2.264H223.832V14.264C223.832 15.8853 224.13 17.1227 224.728 17.976C225.346 18.808 226.178 19.384 227.224 19.704C228.269 20.024 229.442 20.184 230.744 20.184C232.002 20.184 233.144 20.024 234.168 19.704C235.192 19.384 236.013 18.808 236.632 17.976C237.25 17.1227 237.56 15.8853 237.56 14.264ZM244.936 17.752H248.232C248.403 18.5627 248.84 19.224 249.544 19.736C250.248 20.2267 251.198 20.472 252.392 20.472C253.16 20.472 253.758 20.3867 254.184 20.216C254.632 20.0453 254.942 19.8107 255.112 19.512C255.304 19.2133 255.4 18.872 255.4 18.488C255.4 18.0187 255.262 17.656 254.984 17.4C254.728 17.144 254.344 16.9307 253.832 16.76C253.32 16.5893 252.68 16.44 251.912 16.312C251.123 16.12 250.344 15.9067 249.576 15.672C248.808 15.4373 248.115 15.1493 247.496 14.808C246.878 14.4453 246.387 13.9973 246.024 13.464C245.683 12.9093 245.512 12.2373 245.512 11.448C245.512 10.7227 245.672 10.072 245.992 9.496C246.334 8.89867 246.803 8.39733 247.4 7.992C247.998 7.58667 248.702 7.27733 249.512 7.064C250.323 6.82933 251.208 6.712 252.168 6.712C253.555 6.712 254.707 6.936 255.624 7.384C256.563 7.832 257.267 8.46133 257.736 9.272C258.227 10.0827 258.472 11.0107 258.472 12.056H255.336C255.166 11.2027 254.835 10.584 254.344 10.2C253.854 9.816 253.118 9.624 252.136 9.624C251.155 9.624 250.408 9.79467 249.896 10.136C249.384 10.4773 249.128 10.9467 249.128 11.544C249.128 11.992 249.288 12.3547 249.608 12.632C249.95 12.888 250.43 13.112 251.048 13.304C251.667 13.496 252.392 13.688 253.224 13.88C253.992 14.0933 254.718 14.3173 255.4 14.552C256.083 14.7653 256.691 15.0427 257.224 15.384C257.779 15.704 258.216 16.1307 258.536 16.664C258.856 17.1973 259.016 17.8587 259.016 18.648C259.016 19.6293 258.75 20.472 258.216 21.176C257.704 21.88 256.958 22.424 255.976 22.808C254.995 23.1707 253.811 23.352 252.424 23.352C251.208 23.352 250.152 23.2133 249.256 22.936C248.382 22.6587 247.646 22.296 247.048 21.848C246.472 21.4 246.024 20.92 245.704 20.408C245.384 19.896 245.16 19.4053 245.032 18.936C244.926 18.4667 244.894 18.072 244.936 17.752Z" fill="white"/>
<path d="M8.928 23L7.99942 23.3711L8.25077 24H8.928V23ZM0.64 2.264V1.264H-0.83661L-0.288575 2.63514L0.64 2.264ZM4.608 2.264L5.54092 1.90392L5.29393 1.264H4.608V2.264ZM11.648 20.504V21.504H13.1059L12.5809 20.1439L11.648 20.504ZM10.496 20.504L9.55766 20.1583L9.06187 21.504H10.496V20.504ZM17.216 2.264V1.264H16.5187L16.2777 1.91829L17.216 2.264ZM21.344 2.264L22.2823 1.91829L22.0413 1.264H21.344V2.264ZM28.064 20.504V21.504H29.4981L29.0023 20.1583L28.064 20.504ZM26.912 20.504L25.9791 20.1439L25.4541 21.504H26.912V20.504ZM33.952 2.264V1.264H33.2661L33.0191 1.90392L33.952 2.264ZM37.856 2.264L38.7861 2.63143L39.3263 1.264H37.856V2.264ZM29.664 23V24H30.3441L30.5941 23.3674L29.664 23ZM25.376 23L24.4363 23.3419L24.6757 24H25.376V23ZM18.752 4.792V3.792H17.3241L17.8123 5.13388L18.752 4.792ZM19.84 4.792L20.7792 5.13533L21.2703 3.792H19.84V4.792ZM13.184 23V24H13.8832L14.1232 23.3433L13.184 23ZM9.85658 22.6289L1.56858 1.89286L-0.288575 2.63514L7.99942 23.3711L9.85658 22.6289ZM0.64 3.264H4.608V1.264H0.64V3.264ZM3.67508 2.62408L10.7151 20.8641L12.5809 20.1439L5.54092 1.90392L3.67508 2.62408ZM11.648 19.504H10.496V21.504H11.648V19.504ZM11.4343 20.8497L18.1543 2.6097L16.2777 1.91829L9.55766 20.1583L11.4343 20.8497ZM17.216 3.264H21.344V1.264H17.216V3.264ZM20.4057 2.6097L27.1257 20.8497L29.0023 20.1583L22.2823 1.91829L20.4057 2.6097ZM28.064 19.504H26.912V21.504H28.064V19.504ZM27.8449 20.8641L34.8849 2.62408L33.0191 1.90392L25.9791 20.1439L27.8449 20.8641ZM33.952 3.264H37.856V1.264H33.952V3.264ZM36.9259 1.89657L28.7339 22.6326L30.5941 23.3674L38.7861 2.63143L36.9259 1.89657ZM29.664 22H25.376V24H29.664V22ZM26.3157 22.6581L19.6917 4.45012L17.8123 5.13388L24.4363 23.3419L26.3157 22.6581ZM18.752 5.792H19.84V3.792H18.752V5.792ZM18.9008 4.44867L12.2448 22.6567L14.1232 23.3433L20.7792 5.13533L18.9008 4.44867ZM13.184 22H8.928V24H13.184V22ZM53.61 23H52.61V24H53.61V23ZM53.162 11.672L52.261 12.1058L52.2708 12.1262L52.2815 12.1461L53.162 11.672ZM46.794 10.552L47.2412 11.4464L47.2505 11.4418L47.2597 11.4369L46.794 10.552ZM44.81 12.184L44.01 11.584L44.81 12.184ZM43.914 14.456L42.9142 14.4739L44.9088 14.558L43.914 14.456ZM43.882 12.664L42.8915 12.5264L42.8808 12.6038L42.8822 12.6819L43.882 12.664ZM44.586 10.456L45.475 10.914L45.4804 10.9032L44.586 10.456ZM48.138 7.224L48.5052 8.15415L48.5157 8.15001L48.5261 8.14563L48.138 7.224ZM53.354 7.096L53.0378 8.04471L53.0455 8.04722L53.354 7.096ZM55.37 8.248L54.6917 8.9828L54.7064 8.99632L54.7215 9.00924L55.37 8.248ZM56.682 10.104L55.7535 10.4754L55.76 10.4916L55.7671 10.5076L56.682 10.104ZM57.162 23V24H58.162V23H57.162ZM40.554 23H39.554V24H40.554V23ZM40.554 0.664V-0.336H39.554V0.664H40.554ZM44.106 0.664H45.106V-0.336H44.106V0.664ZM44.106 23V24H45.106V23H44.106ZM54.61 23V13.784H52.61V23H54.61ZM54.61 13.784C54.61 12.8213 54.4425 11.9408 54.0425 11.1979L52.2815 12.1461C52.4789 12.5126 52.61 13.0401 52.61 13.784H54.61ZM54.063 11.2382C53.6851 10.4533 53.0831 9.85853 52.2972 9.46557L51.4028 11.2544C51.8115 11.4588 52.0843 11.7387 52.261 12.1058L54.063 11.2382ZM52.2972 9.46557C51.5113 9.07262 50.5513 8.912 49.482 8.912V10.912C50.3753 10.912 50.994 11.05 51.4028 11.2544L52.2972 9.46557ZM49.482 8.912C48.3503 8.912 47.2927 9.15949 46.3283 9.66708L47.2597 11.4369C47.9167 11.0912 48.6511 10.912 49.482 10.912V8.912ZM46.3468 9.65757C45.4061 10.1279 44.6209 10.7695 44.01 11.584L45.61 12.784C46.0231 12.2332 46.5606 11.7868 47.2412 11.4464L46.3468 9.65757ZM44.01 11.584C43.3914 12.4088 43.0235 13.3376 42.9192 14.354L44.9088 14.558C44.9752 13.9104 45.2046 13.3245 45.61 12.784L44.01 11.584ZM44.9138 14.4381L44.8818 12.6461L42.8822 12.6819L42.9142 14.4739L44.9138 14.4381ZM44.8725 12.8016C44.9633 12.1477 45.1629 11.5198 45.475 10.914L43.697 9.99804C43.2838 10.8002 43.014 11.6443 42.8915 12.5264L44.8725 12.8016ZM45.4804 10.9032C45.7892 10.2857 46.1965 9.7423 46.7065 9.26879L45.3456 7.80321C44.6608 8.43903 44.1082 9.17563 43.6916 10.0088L45.4804 10.9032ZM46.7065 9.26879C47.2064 8.80456 47.8022 8.43163 48.5052 8.15415L47.7708 6.29384C46.8524 6.65637 46.0403 7.15811 45.3456 7.80321L46.7065 9.26879ZM48.5261 8.14563C49.2004 7.86169 49.9625 7.712 50.826 7.712V5.712C49.7268 5.712 48.6969 5.90364 47.7499 6.30236L48.5261 8.14563ZM50.826 7.712C51.65 7.712 52.3843 7.82686 53.0378 8.04468L53.6702 6.14732C52.7877 5.85314 51.8367 5.712 50.826 5.712V7.712ZM53.0455 8.04722C53.7112 8.26312 54.2534 8.57819 54.6917 8.9828L56.0483 7.5132C55.3773 6.89381 54.5755 6.44088 53.6625 6.14478L53.0455 8.04722ZM54.7215 9.00924C55.1662 9.38802 55.5113 9.86973 55.7535 10.4754L57.6105 9.73261C57.2554 8.84493 56.7258 8.08932 56.0185 7.48676L54.7215 9.00924ZM55.7671 10.5076C56.0204 11.0819 56.162 11.7823 56.162 12.632H58.162C58.162 11.5617 57.9836 10.5767 57.5969 9.70036L55.7671 10.5076ZM56.162 12.632V23H58.162V12.632H56.162ZM57.162 22H53.61V24H57.162V22ZM41.554 23V0.664H39.554V23H41.554ZM40.554 1.664H44.106V-0.336H40.554V1.664ZM43.106 0.664V23H45.106V0.664H43.106ZM44.106 22H40.554V24H44.106V22ZM59.3565 7.064V6.064H57.8102L58.4445 7.47421L59.3565 7.064ZM63.1645 7.064L64.0863 6.67637L63.8288 6.064H63.1645V7.064ZM69.5965 22.36L69.8005 23.339L70.9889 23.0914L70.5183 21.9724L69.5965 22.36ZM66.5245 23L65.6125 23.4102L65.942 24.1428L66.7285 23.979L66.5245 23ZM77.1165 7.064L78.0255 7.48074L78.675 6.064H77.1165V7.064ZM66.8765 29.4V30.4H67.5181L67.7855 29.8167L66.8765 29.4ZM63.1325 29.4L62.2387 28.9515L61.5118 30.4H63.1325V29.4ZM67.5165 20.664L68.4103 21.1125L68.4243 21.0846L68.4365 21.0558L67.5165 20.664ZM73.3085 7.064V6.064H72.6475L72.3885 6.67217L73.3085 7.064ZM59.3565 8.064H63.1645V6.064H59.3565V8.064ZM62.2427 7.45162L68.6747 22.7476L70.5183 21.9724L64.0863 6.67637L62.2427 7.45162ZM69.3925 21.381L66.3205 22.021L66.7285 23.979L69.8005 23.339L69.3925 21.381ZM67.4365 22.5898L60.2685 6.65379L58.4445 7.47421L65.6125 23.4102L67.4365 22.5898ZM76.2075 6.64725L65.9675 28.9833L67.7855 29.8167L78.0255 7.48074L76.2075 6.64725ZM66.8765 28.4H63.1325V30.4H66.8765V28.4ZM64.0263 29.8485L68.4103 21.1125L66.6227 20.2155L62.2387 28.9515L64.0263 29.8485ZM68.4365 21.0558L74.2285 7.45583L72.3885 6.67217L66.5965 20.2722L68.4365 21.0558ZM73.3085 8.064H77.1165V6.064H73.3085V8.064ZM109.415 15.736L110.406 15.8682L110.557 14.736H109.415V15.736ZM107.718 19.864L108.495 20.4941L108.501 20.4869L107.718 19.864ZM104.038 22.488L104.405 23.4183L104.412 23.4156L104.038 22.488ZM93.8945 22.68L93.5867 23.6315L93.5907 23.6327L93.8945 22.68ZM90.0865 20.632L89.4345 21.3902L89.4426 21.3971L89.4508 21.4039L90.0865 20.632ZM87.5905 17.272L86.6714 17.6659L86.6752 17.6748L86.6791 17.6836L87.5905 17.272ZM87.5905 8.056L86.679 7.64438L86.6737 7.65673L87.5905 8.056ZM90.0865 4.696L90.7385 5.45419L90.7397 5.45316L90.0865 4.696ZM93.8945 2.584L93.5907 1.63125L93.5867 1.63256L93.8945 2.584ZM104.071 2.808L103.692 3.73376L103.697 3.73558L104.071 2.808ZM107.751 5.464L108.533 4.84107L107.751 5.464ZM109.415 9.624V10.624H110.54L110.408 9.5064L109.415 9.624ZM105.895 9.624L104.94 9.92107L105.158 10.624H105.895V9.624ZM104.487 7.192L103.757 7.87594L103.762 7.88172L103.768 7.88742L104.487 7.192ZM102.055 5.624L101.701 6.55949L101.708 6.56199L102.055 5.624ZM94.4705 5.976L94.8867 6.8854L94.8992 6.87943L94.4705 5.976ZM91.4945 8.536L90.6528 7.99604L90.6502 8.00018L91.4945 8.536ZM91.4945 16.792L90.6456 17.3206L90.6515 17.33L90.6575 17.3392L91.4945 16.792ZM94.4705 19.32L94.0544 20.2293L94.4705 19.32ZM102.055 19.672L102.39 20.6142L102.399 20.6109L102.408 20.6075L102.055 19.672ZM104.454 18.136L105.173 18.8314L105.179 18.8257L105.184 18.8199L104.454 18.136ZM105.863 15.736V14.736H105.136L104.912 15.4264L105.863 15.736ZM108.423 15.6038C108.231 17.0421 107.73 18.2441 106.936 19.2411L108.501 20.4869C109.542 19.1799 110.171 17.6299 110.406 15.8682L108.423 15.6038ZM106.942 19.234C106.145 20.2157 105.065 20.9963 103.665 21.5604L104.412 23.4156C106.084 22.7424 107.457 21.7737 108.495 20.494L106.942 19.234ZM103.672 21.5577C102.299 22.0992 100.657 22.384 98.7265 22.384V24.384C100.849 24.384 102.749 24.0714 104.405 23.4183L103.672 21.5577ZM98.7265 22.384C97.0668 22.384 95.56 22.1614 94.1983 21.7273L93.5907 23.6327C95.173 24.1372 96.8875 24.384 98.7265 24.384V22.384ZM94.2023 21.7286C92.8614 21.2947 91.7055 20.6698 90.7222 19.8601L89.4508 21.4039C90.6435 22.3862 92.0262 23.1266 93.5867 23.6314L94.2023 21.7286ZM90.7385 19.8738C89.7861 19.0547 89.0411 18.0543 88.5019 16.8604L86.6791 17.6836C87.3346 19.135 88.2535 20.3746 89.4345 21.3902L90.7385 19.8738ZM88.5096 16.8781C87.9958 15.6791 87.7265 14.2808 87.7265 12.664H85.7265C85.7265 14.5032 86.0332 16.1769 86.6714 17.6659L88.5096 16.8781ZM87.7265 12.664C87.7265 11.0235 87.9965 9.62819 88.5073 8.45527L86.6737 7.65673C86.0325 9.12915 85.7265 10.8058 85.7265 12.664H87.7265ZM88.5019 8.46759C89.0411 7.27368 89.7861 6.27326 90.7385 5.45418L89.4345 3.93781C88.2535 4.9534 87.3346 6.19299 86.6791 7.64441L88.5019 8.46759ZM90.7397 5.45316C91.7206 4.60689 92.8707 3.96625 94.2023 3.53544L93.5867 1.63256C92.0169 2.14041 90.6284 2.90777 89.4333 3.93884L90.7397 5.45316ZM94.1983 3.53674C95.56 3.10256 97.0668 2.88 98.7265 2.88V0.879999C96.8875 0.879999 95.173 1.12677 93.5907 1.63126L94.1983 3.53674ZM98.7265 2.88C100.676 2.88 102.324 3.17476 103.692 3.73375L104.449 1.88224C102.788 1.2039 100.873 0.879999 98.7265 0.879999V2.88ZM103.697 3.73558C105.093 4.29789 106.171 5.08624 106.968 6.08693L108.533 4.84107C107.495 3.53776 106.12 2.55544 104.444 1.88041L103.697 3.73558ZM106.968 6.08693C107.757 7.07788 108.249 8.28432 108.421 9.7416L110.408 9.5064C110.196 7.72101 109.578 6.15412 108.533 4.84107L106.968 6.08693ZM109.415 8.624H105.895V10.624H109.415V8.624ZM106.849 9.32693C106.509 8.23156 105.964 7.28051 105.205 6.49658L103.768 7.88742C104.289 8.42616 104.683 9.09644 104.94 9.92107L106.849 9.32693ZM105.216 6.50806C104.458 5.69935 103.511 5.09607 102.401 4.686L101.708 6.56199C102.561 6.87727 103.235 7.31931 103.757 7.87594L105.216 6.50806ZM102.408 4.68853C101.313 4.27475 100.079 4.08 98.7265 4.08V6.08C99.8909 6.08 100.876 6.24791 101.701 6.55947L102.408 4.68853ZM98.7265 4.08C97.0193 4.08 95.4512 4.40368 94.0418 5.07257L94.8992 6.87943C96.0071 6.35366 97.2763 6.08 98.7265 6.08V4.08ZM94.0544 5.06669C92.627 5.71991 91.4849 6.6989 90.6528 7.99604L92.3362 9.07595C92.9547 8.11176 93.7967 7.38409 94.8866 6.88531L94.0544 5.06669ZM90.6502 8.00018C89.8218 9.30548 89.4385 10.8789 89.4385 12.664H91.4385C91.4385 11.1638 91.7592 9.98518 92.3388 9.07182L90.6502 8.00018ZM89.4385 12.664C89.4385 14.4314 89.8233 15.9999 90.6456 17.3206L92.3434 16.2634C91.7577 15.3227 91.4385 14.1392 91.4385 12.664H89.4385ZM90.6575 17.3392C91.4909 18.6138 92.6321 19.5784 94.0544 20.2293L94.8866 18.4107C93.7916 17.9096 92.9488 17.1889 92.3315 16.2448L90.6575 17.3392ZM94.0544 20.2293C95.4608 20.8729 97.0244 21.184 98.7265 21.184V19.184C97.2713 19.184 95.9975 18.9191 94.8866 18.4107L94.0544 20.2293ZM98.7265 21.184C100.073 21.184 101.3 21.0016 102.39 20.6142L101.719 18.7298C100.889 19.0251 99.8969 19.184 98.7265 19.184V21.184ZM102.408 20.6075C103.49 20.1987 104.419 19.6104 105.173 18.8314L103.736 17.4406C103.21 17.9843 102.539 18.4199 101.701 18.7365L102.408 20.6075ZM105.184 18.8199C105.928 18.0269 106.471 17.098 106.813 16.0456L104.912 15.4264C104.657 16.2087 104.261 16.8798 103.725 17.4521L105.184 18.8199ZM105.863 16.736H109.415V14.736H105.863V16.736ZM126.454 23H125.454V24H126.454V23ZM126.006 11.672L125.105 12.1058L125.115 12.1262L125.125 12.1461L126.006 11.672ZM119.638 10.552L120.085 11.4464L120.094 11.4418L120.104 11.4369L119.638 10.552ZM117.654 12.184L116.854 11.584L117.654 12.184ZM116.758 14.456L115.758 14.4739L117.753 14.558L116.758 14.456ZM116.726 12.664L115.735 12.5264L115.725 12.6038L115.726 12.6819L116.726 12.664ZM117.43 10.456L118.319 10.914L118.324 10.9032L117.43 10.456ZM120.982 7.224L121.349 8.15415L121.359 8.15001L121.37 8.14563L120.982 7.224ZM126.198 7.096L125.882 8.04471L125.889 8.04722L126.198 7.096ZM128.214 8.248L127.535 8.9828L127.55 8.99632L127.565 9.00924L128.214 8.248ZM129.526 10.104L128.597 10.4754L128.604 10.4916L128.611 10.5076L129.526 10.104ZM130.006 23V24H131.006V23H130.006ZM113.398 23H112.398V24H113.398V23ZM113.398 0.664V-0.336H112.398V0.664H113.398ZM116.95 0.664H117.95V-0.336H116.95V0.664ZM116.95 23V24H117.95V23H116.95ZM127.454 23V13.784H125.454V23H127.454ZM127.454 13.784C127.454 12.8213 127.286 11.9408 126.886 11.1979L125.125 12.1461C125.323 12.5126 125.454 13.0401 125.454 13.784H127.454ZM126.907 11.2382C126.529 10.4533 125.927 9.85853 125.141 9.46557L124.247 11.2544C124.655 11.4588 124.928 11.7387 125.105 12.1058L126.907 11.2382ZM125.141 9.46557C124.355 9.07262 123.395 8.912 122.326 8.912V10.912C123.219 10.912 123.838 11.05 124.247 11.2544L125.141 9.46557ZM122.326 8.912C121.194 8.912 120.136 9.15949 119.172 9.66708L120.104 11.4369C120.76 11.0912 121.495 10.912 122.326 10.912V8.912ZM119.191 9.65757C118.25 10.1279 117.465 10.7695 116.854 11.584L118.454 12.784C118.867 12.2332 119.404 11.7868 120.085 11.4464L119.191 9.65757ZM116.854 11.584C116.235 12.4088 115.867 13.3376 115.763 14.354L117.753 14.558C117.819 13.9104 118.048 13.3245 118.454 12.784L116.854 11.584ZM117.758 14.4381L117.726 12.6461L115.726 12.6819L115.758 14.4739L117.758 14.4381ZM117.716 12.8016C117.807 12.1477 118.007 11.5198 118.319 10.914L116.541 9.99804C116.128 10.8002 115.858 11.6443 115.735 12.5264L117.716 12.8016ZM118.324 10.9032C118.633 10.2857 119.04 9.7423 119.55 9.26879L118.189 7.80321C117.505 8.43903 116.952 9.17563 116.535 10.0088L118.324 10.9032ZM119.55 9.26879C120.05 8.80456 120.646 8.43163 121.349 8.15415L120.615 6.29384C119.696 6.65637 118.884 7.15811 118.189 7.80321L119.55 9.26879ZM121.37 8.14563C122.044 7.86169 122.806 7.712 123.67 7.712V5.712C122.571 5.712 121.541 5.90364 120.594 6.30236L121.37 8.14563ZM123.67 7.712C124.494 7.712 125.228 7.82686 125.882 8.04468L126.514 6.14732C125.631 5.85314 124.68 5.712 123.67 5.712V7.712ZM125.889 8.04722C126.555 8.26312 127.097 8.57819 127.535 8.9828L128.892 7.5132C128.221 6.89381 127.419 6.44088 126.506 6.14478L125.889 8.04722ZM127.565 9.00924C128.01 9.38802 128.355 9.86973 128.597 10.4754L130.454 9.73261C130.099 8.84493 129.57 8.08932 128.862 7.48676L127.565 9.00924ZM128.611 10.5076C128.864 11.0819 129.006 11.7823 129.006 12.632H131.006C131.006 11.5617 130.827 10.5767 130.441 9.70036L128.611 10.5076ZM129.006 12.632V23H131.006V12.632H129.006ZM130.006 22H126.454V24H130.006V22ZM114.398 23V0.664H112.398V23H114.398ZM113.398 1.664H116.95V-0.336H113.398V1.664ZM115.95 0.664V23H117.95V0.664H115.95ZM116.95 22H113.398V24H116.95V22ZM137.665 22.392L137.251 23.3024L137.665 22.392ZM134.337 19.576L135.173 19.028L134.337 19.576ZM134.337 10.584L135.173 11.132L135.177 11.1255L134.337 10.584ZM137.665 7.704L137.24 6.79887L137.665 7.704ZM150.433 10.584L149.586 11.1153L149.591 11.1237L149.596 11.132L150.433 10.584ZM150.433 19.576L149.596 19.0279L149.59 19.0382L150.433 19.576ZM147.169 22.392L146.75 21.484L147.169 22.392ZM147.265 18.008L146.419 17.474L146.414 17.4821L146.409 17.4902L147.265 18.008ZM147.265 12.12L146.409 12.6378L146.414 12.6459L146.419 12.654L147.265 12.12ZM145.249 10.264L144.775 11.1445L144.788 11.1517L144.802 11.1584L145.249 10.264ZM139.585 10.232L139.138 9.33757L139.585 10.232ZM137.505 12.088L136.669 11.5384L136.664 11.5461L136.659 11.554L137.505 12.088ZM137.505 18.008L136.659 18.542L137.505 18.008ZM139.553 19.832L139.124 20.7353L139.132 20.7393L139.553 19.832ZM142.433 22.352C140.784 22.352 139.339 22.0546 138.079 21.4816L137.251 23.3024C138.806 24.0094 140.54 24.352 142.433 24.352V22.352ZM138.079 21.4816C136.835 20.9162 135.875 20.0995 135.173 19.028L133.5 20.124C134.42 21.5271 135.679 22.5878 137.251 23.3024L138.079 21.4816ZM135.173 19.028C134.489 17.9832 134.121 16.6789 134.121 15.064H132.121C132.121 16.9905 132.563 18.6941 133.5 20.124L135.173 19.028ZM134.121 15.064C134.121 13.4732 134.487 12.1787 135.173 11.132L133.5 10.036C132.565 11.464 132.121 13.1561 132.121 15.064H134.121ZM135.177 11.1255C135.882 10.031 136.845 9.19393 138.09 8.60913L137.24 6.79887C135.669 7.53674 134.412 8.61968 133.496 10.0425L135.177 11.1255ZM138.09 8.60913C139.348 8.01838 140.789 7.712 142.433 7.712V5.712C140.535 5.712 138.798 6.06695 137.24 6.79887L138.09 8.60913ZM142.433 7.712C144.077 7.712 145.505 8.01849 146.738 8.6066L147.599 6.8014C146.059 6.06684 144.33 5.712 142.433 5.712V7.712ZM146.738 8.6066C147.96 9.18916 148.901 10.0231 149.586 11.1153L151.28 10.0527C150.386 8.62755 149.151 7.54151 147.599 6.8014L146.738 8.6066ZM149.596 11.132C150.282 12.1787 150.649 13.4732 150.649 15.064H152.649C152.649 13.1561 152.205 11.464 151.269 10.036L149.596 11.132ZM150.649 15.064C150.649 16.6789 150.281 17.9832 149.596 19.028L151.269 20.124C152.206 18.6941 152.649 16.9905 152.649 15.064H150.649ZM149.59 19.0382C148.908 20.1073 147.97 20.9209 146.75 21.484L147.588 23.3C149.141 22.5831 150.379 21.5193 151.276 20.1138L149.59 19.0382ZM146.75 21.484C145.514 22.0545 144.082 22.352 142.433 22.352V24.352C144.325 24.352 146.05 24.0095 147.588 23.3L146.75 21.484ZM142.433 21.44C143.593 21.44 144.679 21.2095 145.678 20.7353L144.82 18.9287C144.111 19.2652 143.321 19.44 142.433 19.44V21.44ZM145.678 20.7353C146.709 20.2457 147.529 19.5034 148.12 18.5258L146.409 17.4902C146.02 18.1339 145.496 18.6076 144.82 18.9287L145.678 20.7353ZM148.11 18.542C148.742 17.5419 149.033 16.3666 149.033 15.064H147.033C147.033 16.0654 146.812 16.8528 146.419 17.474L148.11 18.542ZM149.033 15.064C149.033 13.7614 148.742 12.5861 148.11 11.586L146.419 12.654C146.812 13.2752 147.033 14.0626 147.033 15.064H149.033ZM148.12 11.6022C147.531 10.6288 146.717 9.88009 145.696 9.36957L144.802 11.1584C145.487 11.5012 146.017 11.9899 146.409 12.6378L148.12 11.6022ZM145.723 9.38353C144.73 8.84899 143.626 8.592 142.433 8.592V10.592C143.331 10.592 144.103 10.783 144.775 11.1445L145.723 9.38353ZM142.433 8.592C141.247 8.592 140.143 8.83503 139.138 9.33757L140.032 11.1264C140.734 10.7756 141.528 10.592 142.433 10.592V8.592ZM139.138 9.33757C138.124 9.84439 137.298 10.5832 136.669 11.5384L138.34 12.6376C138.778 11.9714 139.339 11.4729 140.032 11.1264L139.138 9.33757ZM136.659 11.554C136.026 12.5569 135.737 13.7441 135.737 15.064H137.737C137.737 14.0373 137.96 13.2404 138.35 12.622L136.659 11.554ZM135.737 15.064C135.737 16.3666 136.028 17.5419 136.659 18.542L138.35 17.474C137.958 16.8528 137.737 16.0654 137.737 15.064H135.737ZM136.659 18.542C137.271 19.5102 138.097 20.2475 139.124 20.7353L139.982 18.9287C139.302 18.6059 138.763 18.1272 138.35 17.474L136.659 18.542ZM139.132 20.7393C140.15 21.2107 141.255 21.44 142.433 21.44V19.44C141.52 19.44 140.705 19.2639 139.973 18.9247L139.132 20.7393ZM158.54 22.392L158.126 23.3024L158.54 22.392ZM155.212 19.576L156.048 19.028L155.212 19.576ZM155.212 10.584L156.048 11.132L156.052 11.1255L155.212 10.584ZM158.54 7.704L158.115 6.79887L158.54 7.704ZM171.308 10.584L170.461 11.1153L170.466 11.1237L170.471 11.132L171.308 10.584ZM171.308 19.576L170.471 19.0279L170.465 19.0382L171.308 19.576ZM168.044 22.392L167.625 21.484L168.044 22.392ZM168.14 18.008L167.294 17.474L167.289 17.4821L167.284 17.4902L168.14 18.008ZM168.14 12.12L167.284 12.6378L167.289 12.6459L167.294 12.654L168.14 12.12ZM166.124 10.264L165.65 11.1445L165.663 11.1517L165.677 11.1584L166.124 10.264ZM160.46 10.232L160.013 9.33757L160.46 10.232ZM158.38 12.088L157.544 11.5384L157.539 11.5461L157.534 11.554L158.38 12.088ZM158.38 18.008L157.534 18.542L158.38 18.008ZM160.428 19.832L159.999 20.7353L160.007 20.7393L160.428 19.832ZM163.308 22.352C161.659 22.352 160.214 22.0546 158.954 21.4816L158.126 23.3024C159.681 24.0094 161.415 24.352 163.308 24.352V22.352ZM158.954 21.4816C157.71 20.9162 156.75 20.0995 156.048 19.028L154.375 20.124C155.295 21.5271 156.554 22.5878 158.126 23.3024L158.954 21.4816ZM156.048 19.028C155.364 17.9832 154.996 16.6789 154.996 15.064H152.996C152.996 16.9905 153.438 18.6941 154.375 20.124L156.048 19.028ZM154.996 15.064C154.996 13.4732 155.362 12.1787 156.048 11.132L154.375 10.036C153.44 11.464 152.996 13.1561 152.996 15.064H154.996ZM156.052 11.1255C156.757 10.031 157.72 9.19393 158.965 8.60913L158.115 6.79887C156.544 7.53674 155.287 8.61968 154.371 10.0425L156.052 11.1255ZM158.965 8.60913C160.223 8.01838 161.664 7.712 163.308 7.712V5.712C161.41 5.712 159.673 6.06695 158.115 6.79887L158.965 8.60913ZM163.308 7.712C164.952 7.712 166.38 8.01849 167.613 8.6066L168.474 6.8014C166.934 6.06684 165.205 5.712 163.308 5.712V7.712ZM167.613 8.6066C168.835 9.18916 169.776 10.0231 170.461 11.1153L172.155 10.0527C171.261 8.62755 170.026 7.54151 168.474 6.8014L167.613 8.6066ZM170.471 11.132C171.157 12.1787 171.524 13.4732 171.524 15.064H173.524C173.524 13.1561 173.08 11.464 172.144 10.036L170.471 11.132ZM171.524 15.064C171.524 16.6789 171.156 17.9832 170.471 19.028L172.144 20.124C173.081 18.6941 173.524 16.9905 173.524 15.064H171.524ZM170.465 19.0382C169.783 20.1073 168.845 20.9209 167.625 21.484L168.463 23.3C170.016 22.5831 171.254 21.5193 172.151 20.1138L170.465 19.0382ZM167.625 21.484C166.389 22.0545 164.957 22.352 163.308 22.352V24.352C165.2 24.352 166.925 24.0095 168.463 23.3L167.625 21.484ZM163.308 21.44C164.468 21.44 165.554 21.2095 166.553 20.7353L165.695 18.9287C164.986 19.2652 164.196 19.44 163.308 19.44V21.44ZM166.553 20.7353C167.584 20.2457 168.404 19.5034 168.995 18.5258L167.284 17.4902C166.895 18.1339 166.371 18.6076 165.695 18.9287L166.553 20.7353ZM168.985 18.542C169.617 17.5419 169.908 16.3666 169.908 15.064H167.908C167.908 16.0654 167.687 16.8528 167.294 17.474L168.985 18.542ZM169.908 15.064C169.908 13.7614 169.617 12.5861 168.985 11.586L167.294 12.654C167.687 13.2752 167.908 14.0626 167.908 15.064H169.908ZM168.995 11.6022C168.406 10.6288 167.592 9.88009 166.571 9.36957L165.677 11.1584C166.362 11.5012 166.892 11.9899 167.284 12.6378L168.995 11.6022ZM166.598 9.38353C165.605 8.84899 164.501 8.592 163.308 8.592V10.592C164.206 10.592 164.978 10.783 165.65 11.1445L166.598 9.38353ZM163.308 8.592C162.122 8.592 161.018 8.83503 160.013 9.33757L160.907 11.1264C161.609 10.7756 162.403 10.592 163.308 10.592V8.592ZM160.013 9.33757C158.999 9.84439 158.173 10.5832 157.544 11.5384L159.215 12.6376C159.653 11.9714 160.214 11.4729 160.907 11.1264L160.013 9.33757ZM157.534 11.554C156.901 12.5569 156.612 13.7441 156.612 15.064H158.612C158.612 14.0373 158.835 13.2404 159.225 12.622L157.534 11.554ZM156.612 15.064C156.612 16.3666 156.903 17.5419 157.534 18.542L159.225 17.474C158.833 16.8528 158.612 16.0654 158.612 15.064H156.612ZM157.534 18.542C158.146 19.5102 158.972 20.2475 159.999 20.7353L160.857 18.9287C160.177 18.6059 159.638 18.1272 159.225 17.474L157.534 18.542ZM160.007 20.7393C161.025 21.2107 162.13 21.44 163.308 21.44V19.44C162.395 19.44 161.58 19.2639 160.848 18.9247L160.007 20.7393ZM174.999 17.752V16.752H174.123L174.008 17.6198L174.999 17.752ZM178.295 17.752L179.273 17.546L179.106 16.752H178.295V17.752ZM179.607 19.736L179.019 20.5447L179.027 20.5506L179.035 20.5564L179.607 19.736ZM184.247 20.216L183.891 19.2815L183.883 19.2845L183.875 19.2875L184.247 20.216ZM185.175 19.512L184.334 18.9712L184.319 18.9932L184.307 19.0159L185.175 19.512ZM185.047 17.4L184.34 18.1071L184.354 18.1212L184.368 18.1348L185.047 17.4ZM183.895 16.76L184.211 15.8113V15.8113L183.895 16.76ZM181.975 16.312L181.738 17.2837L181.774 17.2924L181.81 17.2984L181.975 16.312ZM179.639 15.672L179.931 14.7156L179.639 15.672ZM177.559 14.808L177.053 15.6707L177.064 15.6773L177.076 15.6836L177.559 14.808ZM176.087 13.464L175.235 13.9881L175.247 14.0075L175.26 14.0263L176.087 13.464ZM176.055 9.496L175.186 8.99982L175.181 9.01036L176.055 9.496ZM177.463 7.992L178.024 8.81948L177.463 7.992ZM179.575 7.064L179.829 8.03107L179.841 8.02796L179.853 8.02456L179.575 7.064ZM185.687 7.384L185.248 8.2826L185.256 8.28648L185.687 7.384ZM187.799 9.272L186.933 9.77304L186.938 9.78147L186.943 9.7898L187.799 9.272ZM188.535 12.056V13.056H189.535V12.056H188.535ZM185.399 12.056L184.418 12.2521L184.579 13.056H185.399V12.056ZM184.407 10.2L183.79 10.9875L184.407 10.2ZM179.671 12.632L179.016 13.3877L179.042 13.4108L179.071 13.432L179.671 12.632ZM181.111 13.304L180.814 14.2591L181.111 13.304ZM183.287 13.88L183.554 12.9165L183.533 12.9106L183.512 12.9056L183.287 13.88ZM185.463 14.552L185.138 15.4977L185.151 15.5023L185.164 15.5065L185.463 14.552ZM187.287 15.384L186.748 16.2263L186.767 16.2387L186.787 16.2502L187.287 15.384ZM188.599 16.664L189.456 16.1495L188.599 16.664ZM188.279 21.176L187.482 20.5721L187.476 20.5799L187.47 20.5878L188.279 21.176ZM186.039 22.808L186.385 23.746L186.394 23.7427L186.403 23.7392L186.039 22.808ZM179.319 22.936L179.016 23.8893L179.023 23.8913L179.319 22.936ZM177.111 21.848L176.497 22.6374L176.504 22.6427L176.511 22.648L177.111 21.848ZM175.767 20.408L174.919 20.938L175.767 20.408ZM175.095 18.936L174.12 19.1576L174.124 19.1785L174.13 19.1991L175.095 18.936ZM174.999 18.752H178.295V16.752H174.999V18.752ZM177.316 17.958C177.541 19.0241 178.125 19.8952 179.019 20.5447L180.195 18.9273C179.68 18.5528 179.39 18.1012 179.273 17.546L177.316 17.958ZM179.035 20.5564C179.961 21.2017 181.133 21.472 182.455 21.472V19.472C181.387 19.472 180.661 19.2516 180.179 18.9156L179.035 20.5564ZM182.455 21.472C183.276 21.472 184.02 21.3837 184.618 21.1445L183.875 19.2875C183.62 19.3896 183.169 19.472 182.455 19.472V21.472ZM184.603 21.1505C185.183 20.9295 185.72 20.5742 186.043 20.0081L184.307 19.0159C184.289 19.0472 184.207 19.1612 183.891 19.2815L184.603 21.1505ZM186.016 20.0528C186.32 19.5796 186.463 19.0475 186.463 18.488H184.463C184.463 18.6965 184.413 18.8471 184.334 18.9712L186.016 20.0528ZM186.463 18.488C186.463 17.8124 186.255 17.1548 185.725 16.6652L184.368 18.1348C184.393 18.1572 184.463 18.2249 184.463 18.488H186.463ZM185.754 16.6929C185.348 16.2865 184.804 16.009 184.211 15.8113L183.579 17.7087C184.01 17.8524 184.234 18.0015 184.34 18.1071L185.754 16.6929ZM184.211 15.8113C183.633 15.6187 182.938 15.4588 182.139 15.3256L181.81 17.2984C182.547 17.4212 183.132 17.56 183.579 17.7087L184.211 15.8113ZM182.211 15.3403C181.44 15.1528 180.68 14.9446 179.931 14.7156L179.347 16.6284C180.133 16.8687 180.931 17.0872 181.738 17.2837L182.211 15.3403ZM179.931 14.7156C179.22 14.4985 178.592 14.2361 178.042 13.9324L177.076 15.6836C177.763 16.0625 178.521 16.3761 179.347 16.6284L179.931 14.7156ZM178.064 13.9453C177.559 13.6492 177.184 13.2992 176.914 12.9017L175.26 14.0263C175.715 14.6955 176.321 15.2415 177.053 15.6707L178.064 13.9453ZM176.938 12.9399C176.713 12.5733 176.575 12.0916 176.575 11.448H174.575C174.575 12.383 174.778 13.2454 175.235 13.9881L176.938 12.9399ZM176.575 11.448C176.575 10.8751 176.7 10.3945 176.929 9.98164L175.181 9.01036C174.77 9.74952 174.575 10.5703 174.575 11.448H176.575ZM176.923 9.99214C177.185 9.53373 177.547 9.14353 178.024 8.81948L176.901 7.16452C176.184 7.65114 175.607 8.2636 175.187 8.99986L176.923 9.99214ZM178.024 8.81948C178.514 8.48705 179.111 8.22015 179.829 8.03107L179.32 6.09692C178.417 6.33452 177.606 6.68628 176.901 7.16452L178.024 8.81948ZM179.853 8.02456C180.562 7.81936 181.352 7.712 182.231 7.712V5.712C181.189 5.712 180.209 5.8393 179.297 6.10343L179.853 8.02456ZM182.231 7.712C183.517 7.712 184.507 7.92078 185.248 8.28257L186.126 6.48543C185.032 5.95121 183.718 5.712 182.231 5.712V7.712ZM185.256 8.28648C186.034 8.65757 186.576 9.15602 186.933 9.77304L188.664 8.77096C188.083 7.76665 187.217 7.00643 186.117 6.48152L185.256 8.28648ZM186.943 9.7898C187.33 10.4285 187.535 11.1738 187.535 12.056H189.535C189.535 10.8475 189.249 9.73685 188.654 8.7542L186.943 9.7898ZM188.535 11.056H185.399V13.056H188.535V11.056ZM186.379 11.8599C186.18 10.8646 185.765 9.99295 185.023 9.41249L183.79 10.9875C184.03 11.175 184.276 11.5407 184.418 12.2521L186.379 11.8599ZM185.023 9.41249C184.281 8.83152 183.283 8.624 182.199 8.624V10.624C183.077 10.624 183.551 10.8005 183.79 10.9875L185.023 9.41249ZM182.199 8.624C181.127 8.624 180.151 8.80573 179.404 9.30395L180.513 10.9681C180.79 10.7836 181.307 10.624 182.199 10.624V8.624ZM179.404 9.30395C178.624 9.82403 178.191 10.6004 178.191 11.544H180.191C180.191 11.293 180.27 11.1306 180.513 10.9681L179.404 9.30395ZM178.191 11.544C178.191 12.2629 178.463 12.9082 179.016 13.3877L180.326 11.8763C180.239 11.8011 180.191 11.7211 180.191 11.544H178.191ZM179.071 13.432C179.538 13.7826 180.137 14.0489 180.814 14.2591L181.407 12.3489C180.847 12.1751 180.486 11.9934 180.271 11.832L179.071 13.432ZM180.814 14.2591C181.463 14.4603 182.213 14.6585 183.062 14.8544L183.512 12.9056C182.697 12.7175 181.996 12.5317 181.407 12.3489L180.814 14.2591ZM183.019 14.8435C183.77 15.052 184.476 15.2702 185.138 15.4977L185.788 13.6063C185.084 13.3645 184.34 13.1346 183.554 12.9165L183.019 14.8435ZM185.164 15.5065C185.773 15.6967 186.298 15.9386 186.748 16.2263L187.826 14.5417C187.209 14.1467 186.518 13.834 185.761 13.5975L185.164 15.5065ZM186.787 16.2502C187.199 16.4879 187.511 16.7953 187.741 17.1785L189.456 16.1495C189.046 15.466 188.484 14.9201 187.786 14.5178L186.787 16.2502ZM187.741 17.1785C187.946 17.5198 188.079 17.9918 188.079 18.648H190.079C190.079 17.7255 189.891 16.8749 189.456 16.1495L187.741 17.1785ZM188.079 18.648C188.079 19.4368 187.869 20.0612 187.482 20.5721L189.076 21.7799C189.755 20.8828 190.079 19.8218 190.079 18.648H188.079ZM187.47 20.5878C187.092 21.1076 186.516 21.5476 185.674 21.8768L186.403 23.7392C187.525 23.3004 188.441 22.6524 189.087 21.7642L187.47 20.5878ZM185.692 21.87C184.851 22.1807 183.791 22.352 182.487 22.352V24.352C183.955 24.352 185.264 24.1606 186.385 23.746L185.692 21.87ZM182.487 22.352C181.343 22.352 180.391 22.2211 179.614 21.9807L179.023 23.8913C180.038 24.2055 181.199 24.352 182.487 24.352V22.352ZM179.621 21.9828C178.83 21.7319 178.2 21.4151 177.711 21.048L176.511 22.648C177.216 23.1769 178.058 23.5854 179.017 23.8892L179.621 21.9828ZM177.725 21.0586C177.223 20.6681 176.861 20.2722 176.615 19.878L174.919 20.938C175.312 21.5678 175.847 22.1319 176.497 22.6374L177.725 21.0586ZM176.615 19.878C176.335 19.4297 176.157 19.0285 176.06 18.6729L174.13 19.1991C174.289 19.7821 174.559 20.3623 174.919 20.938L176.615 19.878ZM176.07 18.7144C175.978 18.3097 175.969 18.0433 175.99 17.8842L174.008 17.6198C173.943 18.1007 173.998 18.6237 174.12 19.1576L176.07 18.7144ZM205.609 17.752V16.752H204.876L204.655 17.4509L205.609 17.752ZM209.033 17.752L210.02 17.907L210.202 16.752H209.033V17.752ZM207.753 20.664L206.972 20.0393L206.97 20.0418L207.753 20.664ZM205.033 22.648L205.41 23.5741L205.417 23.5711L205.424 23.568L205.033 22.648ZM196.04 22.36L195.609 23.2624L195.621 23.2676L196.04 22.36ZM192.68 19.48L191.844 20.028L192.68 19.48ZM192.648 10.648L193.496 11.1793L192.648 10.648ZM195.913 7.736L195.476 6.83617L195.471 6.83883L195.913 7.736ZM205.512 7.736L205.036 8.61503L205.045 8.61982L205.053 8.62442L205.512 7.736ZM208.361 10.744L207.452 11.1622L207.455 11.1677L208.361 10.744ZM209.128 15.768V16.768H210.077L210.127 15.8206L209.128 15.768ZM195.081 15.768V14.768H193.954L194.088 15.8862L195.081 15.768ZM195.945 18.2L195.105 18.7433L195.114 18.7577L195.124 18.7718L195.945 18.2ZM197.928 19.864L197.491 20.763L197.5 20.7676L197.509 20.772L197.928 19.864ZM203.945 19.704L203.446 18.837L203.437 18.8426L203.945 19.704ZM197.096 10.68L197.697 11.48L197.702 11.4757L197.708 11.4713L197.096 10.68ZM195.273 13.4L194.302 13.1575L193.992 14.4H195.273V13.4ZM205.544 13.4V14.4H206.618L206.542 13.3288L205.544 13.4ZM204.105 10.616L203.489 11.4043L203.495 11.409L203.501 11.4137L204.105 10.616ZM205.609 18.752H209.033V16.752H205.609V18.752ZM208.045 17.597C207.901 18.5145 207.545 19.323 206.972 20.0393L208.533 21.2887C209.326 20.2984 209.823 19.1655 210.02 17.907L208.045 17.597ZM206.97 20.0418C206.429 20.7221 205.667 21.2909 204.641 21.728L205.424 23.568C206.702 23.0238 207.753 22.2699 208.535 21.2862L206.97 20.0418ZM204.655 21.7219C203.652 22.1307 202.411 22.352 200.904 22.352V24.352C202.598 24.352 204.109 24.104 205.41 23.5741L204.655 21.7219ZM200.904 22.352C199.214 22.352 197.74 22.0443 196.46 21.4524L195.621 23.2676C197.2 23.9984 198.968 24.352 200.904 24.352V22.352ZM196.471 21.4576C195.195 20.848 194.22 20.0055 193.517 18.932L191.844 20.028C192.762 21.4292 194.027 22.5067 195.61 23.2624L196.471 21.4576ZM193.517 18.932C192.829 17.8814 192.464 16.6067 192.464 15.064H190.464C190.464 16.9347 190.911 18.6039 191.844 20.028L193.517 18.932ZM192.464 15.064C192.464 13.5407 192.819 12.2581 193.496 11.1793L191.801 10.1167C190.899 11.5552 190.464 13.2166 190.464 15.064H192.464ZM193.496 11.1793C194.182 10.0844 195.127 9.23734 196.354 8.63317L195.471 6.83883C193.925 7.6 192.693 8.6943 191.801 10.1167L193.496 11.1793ZM196.349 8.63581C197.599 8.02953 199.067 7.712 200.777 7.712V5.712C198.817 5.712 197.042 6.07714 195.476 6.83618L196.349 8.63581ZM200.777 7.712C202.561 7.712 203.963 8.03343 205.036 8.61503L205.989 6.85697C204.544 6.07324 202.789 5.712 200.777 5.712V7.712ZM205.053 8.62442C206.13 9.18052 206.924 10.0147 207.452 11.1621L209.269 10.3259C208.56 8.78529 207.455 7.61415 205.972 6.84757L205.053 8.62442ZM207.455 11.1677C207.982 12.295 208.231 13.7922 208.13 15.7154L210.127 15.8206C210.239 13.6904 209.976 11.8383 209.266 10.3203L207.455 11.1677ZM209.128 14.768H195.081V16.768H209.128V14.768ZM194.088 15.8862C194.211 16.9268 194.549 17.8841 195.105 18.7433L196.784 17.6567C196.401 17.0653 196.163 16.4012 196.073 15.6498L194.088 15.8862ZM195.124 18.7718C195.72 19.6266 196.518 20.289 197.491 20.763L198.366 18.965C197.675 18.6283 197.15 18.1814 196.765 17.6282L195.124 18.7718ZM197.509 20.772C198.498 21.228 199.616 21.44 200.84 21.44V19.44C199.846 19.44 199.023 19.268 198.348 18.956L197.509 20.772ZM200.84 21.44C202.207 21.44 203.429 21.1689 204.452 20.5654L203.437 18.8426C202.796 19.2204 201.948 19.44 200.84 19.44V21.44ZM204.443 20.5709C205.477 19.9764 206.219 19.1402 206.562 18.0531L204.655 17.4509C204.486 17.9851 204.119 18.4503 203.446 18.8371L204.443 20.5709ZM200.68 8.592C199.059 8.592 197.635 9.00008 196.485 9.88871L197.708 11.4713C198.435 10.9093 199.401 10.592 200.68 10.592V8.592ZM196.497 9.88C195.379 10.7179 194.637 11.8191 194.302 13.1575L196.243 13.6425C196.463 12.7623 196.936 12.0501 197.697 11.48L196.497 9.88ZM195.273 14.4H205.544V12.4H195.273V14.4ZM206.542 13.3288C206.438 11.8763 205.835 10.6709 204.708 9.81834L203.501 11.4137C204.123 11.8838 204.48 12.5344 204.547 13.4712L206.542 13.3288ZM204.72 9.82768C203.627 8.97458 202.251 8.592 200.68 8.592V10.592C201.926 10.592 202.833 10.8921 203.489 11.4043L204.72 9.82768ZM237.56 2.264V1.264H236.56V2.264H237.56ZM241.176 2.264H242.176V1.264H241.176V2.264ZM240.632 17.976L239.694 17.6293L239.69 17.6384L239.687 17.6475L240.632 17.976ZM239.16 20.472L238.43 19.7881L239.16 20.472ZM236.887 22.168L237.326 23.0668L237.335 23.0625L237.343 23.058L236.887 22.168ZM234.008 23.096L233.827 22.1124L233.823 22.1131L234.008 23.096ZM224.439 22.168L223.984 23.058L223.992 23.0625L224.001 23.0668L224.439 22.168ZM222.167 20.472L221.427 21.1435L221.432 21.1498L221.438 21.1559L222.167 20.472ZM220.695 17.976L219.751 18.3045L219.754 18.3136L219.758 18.3227L220.695 17.976ZM220.184 2.264V1.264H219.184V2.264H220.184ZM223.831 2.264H224.831V1.264H223.831V2.264ZM224.727 17.976L223.908 18.5495L223.916 18.5612L223.925 18.5727L224.727 17.976ZM234.167 19.704L234.466 20.6585L234.167 19.704ZM236.632 17.976L237.434 18.5727L237.441 18.563L236.632 17.976ZM238.56 14.264V2.264H236.56V14.264H238.56ZM237.56 3.264H241.176V1.264H237.56V3.264ZM240.176 2.264V14.552H242.176V2.264H240.176ZM240.176 14.552C240.176 15.7628 240.007 16.7823 239.694 17.6293L241.569 18.3227C241.982 17.207 242.176 15.9439 242.176 14.552H240.176ZM239.687 17.6475C239.387 18.5113 238.964 19.2183 238.43 19.7881L239.889 21.1559C240.635 20.3604 241.194 19.4034 241.576 18.3045L239.687 17.6475ZM238.43 19.7881C237.873 20.3826 237.209 20.8797 236.432 21.278L237.343 23.058C238.315 22.5603 239.166 21.9267 239.889 21.1559L238.43 19.7881ZM236.449 21.2692C235.663 21.6526 234.791 21.9354 233.827 22.1125L234.188 24.0795C235.315 23.8726 236.362 23.5368 237.326 23.0668L236.449 21.2692ZM233.823 22.1131C232.866 22.2926 231.84 22.384 230.743 22.384V24.384C231.951 24.384 233.101 24.2834 234.192 24.0789L233.823 22.1131ZM230.743 22.384C229.602 22.384 228.531 22.2923 227.529 22.1118L227.174 24.0802C228.305 24.2837 229.495 24.384 230.743 24.384V22.384ZM227.529 22.1118C226.542 21.9343 225.661 21.6513 224.878 21.2692L224.001 23.0668C224.967 23.5381 226.027 23.8737 227.174 24.0802L227.529 22.1118ZM224.895 21.278C224.118 20.8797 223.454 20.3826 222.897 19.7881L221.438 21.1559C222.161 21.9267 223.012 22.5603 223.984 23.058L224.895 21.278ZM222.908 19.8005C222.386 19.2245 221.958 18.5069 221.633 17.6293L219.758 18.3227C220.159 19.4077 220.711 20.3542 221.427 21.1435L222.908 19.8005ZM221.64 17.6475C221.343 16.7946 221.184 15.7685 221.184 14.552H219.184C219.184 15.9381 219.365 17.1947 219.751 18.3045L221.64 17.6475ZM221.184 14.552V2.264H219.184V14.552H221.184ZM220.184 3.264H223.831V1.264H220.184V3.264ZM222.831 2.264V14.264H224.831V2.264H222.831ZM222.831 14.264C222.831 15.9844 223.144 17.4582 223.908 18.5495L225.547 17.4025C225.116 16.7872 224.831 15.7863 224.831 14.264H222.831ZM223.925 18.5727C224.678 19.5855 225.693 20.2814 226.931 20.6602L227.516 18.7478C226.663 18.4866 226.014 18.0305 225.53 17.3793L223.925 18.5727ZM226.931 20.6602C228.087 21.0141 229.361 21.184 230.743 21.184V19.184C229.523 19.184 228.451 19.0339 227.516 18.7478L226.931 20.6602ZM230.743 21.184C232.086 21.184 233.33 21.0133 234.466 20.6585L233.869 18.7495C232.957 19.0346 231.918 19.184 230.743 19.184V21.184ZM234.466 20.6585C235.684 20.2778 236.685 19.5804 237.434 18.5727L235.829 17.3793C235.341 18.0356 234.699 18.4902 233.869 18.7495L234.466 20.6585ZM237.441 18.563C238.234 17.4693 238.56 15.9898 238.56 14.264H236.56C236.56 15.7809 236.266 16.776 235.822 17.389L237.441 18.563ZM244.936 17.752V16.752H244.061L243.945 17.6198L244.936 17.752ZM248.232 17.752L249.211 17.546L249.044 16.752H248.232V17.752ZM249.544 19.736L248.956 20.5447L248.964 20.5506L248.972 20.5564L249.544 19.736ZM254.184 20.216L253.828 19.2815L253.821 19.2845L253.813 19.2875L254.184 20.216ZM255.112 19.512L254.271 18.9712L254.257 18.9932L254.244 19.0159L255.112 19.512ZM254.984 17.4L254.277 18.1071L254.291 18.1212L254.306 18.1348L254.984 17.4ZM253.832 16.76L254.148 15.8113V15.8113L253.832 16.76ZM251.912 16.312L251.676 17.2837L251.712 17.2924L251.748 17.2984L251.912 16.312ZM249.576 15.672L249.868 14.7156L249.576 15.672ZM247.496 14.808L246.991 15.6707L247.002 15.6773L247.013 15.6836L247.496 14.808ZM246.024 13.464L245.173 13.9881L245.185 14.0075L245.197 14.0263L246.024 13.464ZM245.992 9.496L245.124 8.99982L245.118 9.01036L245.992 9.496ZM247.4 7.992L247.962 8.81948L247.4 7.992ZM249.512 7.064L249.767 8.03107L249.779 8.02796L249.79 8.02456L249.512 7.064ZM255.624 7.384L255.185 8.2826L255.194 8.28648L255.624 7.384ZM257.736 9.272L256.871 9.77304L256.876 9.78147L256.881 9.7898L257.736 9.272ZM258.472 12.056V13.056H259.472V12.056H258.472ZM255.336 12.056L254.356 12.2521L254.516 13.056H255.336V12.056ZM254.344 10.2L253.728 10.9875L254.344 10.2ZM249.608 12.632L248.953 13.3877L248.98 13.4108L249.008 13.432L249.608 12.632ZM251.048 13.304L250.752 14.2591L251.048 13.304ZM253.224 13.88L253.492 12.9165L253.471 12.9106L253.449 12.9056L253.224 13.88ZM255.4 14.552L255.075 15.4977L255.089 15.5023L255.102 15.5065L255.4 14.552ZM257.224 15.384L256.685 16.2263L256.705 16.2387L256.725 16.2502L257.224 15.384ZM258.536 16.664L259.394 16.1495L258.536 16.664ZM258.216 21.176L257.419 20.5721L257.413 20.5799L257.408 20.5878L258.216 21.176ZM255.976 22.808L256.323 23.746L256.332 23.7427L256.341 23.7392L255.976 22.808ZM249.256 22.936L248.954 23.8893L248.961 23.8913L249.256 22.936ZM247.048 21.848L246.434 22.6374L246.441 22.6427L246.448 22.648L247.048 21.848ZM245.704 20.408L244.856 20.938L245.704 20.408ZM245.032 18.936L244.057 19.1576L244.062 19.1785L244.067 19.1991L245.032 18.936ZM244.936 18.752H248.232V16.752H244.936V18.752ZM247.254 17.958C247.478 19.0241 248.063 19.8952 248.956 20.5447L250.132 18.9273C249.618 18.5528 249.328 18.1012 249.211 17.546L247.254 17.958ZM248.972 20.5564C249.898 21.2017 251.071 21.472 252.392 21.472V19.472C251.324 19.472 250.598 19.2516 250.116 18.9156L248.972 20.5564ZM252.392 21.472C253.214 21.472 253.958 21.3837 254.556 21.1445L253.813 19.2875C253.558 19.3896 253.107 19.472 252.392 19.472V21.472ZM254.54 21.1505C255.12 20.9295 255.657 20.5742 255.98 20.0081L254.244 19.0159C254.226 19.0472 254.144 19.1612 253.828 19.2815L254.54 21.1505ZM255.953 20.0528C256.258 19.5796 256.4 19.0475 256.4 18.488H254.4C254.4 18.6965 254.351 18.8471 254.271 18.9712L255.953 20.0528ZM256.4 18.488C256.4 17.8124 256.193 17.1548 255.663 16.6652L254.306 18.1348C254.33 18.1572 254.4 18.2249 254.4 18.488H256.4ZM255.691 16.6929C255.285 16.2865 254.741 16.009 254.148 15.8113L253.516 17.7087C253.947 17.8524 254.171 18.0015 254.277 18.1071L255.691 16.6929ZM254.148 15.8113C253.571 15.6187 252.876 15.4588 252.077 15.3256L251.748 17.2984C252.485 17.4212 253.07 17.56 253.516 17.7087L254.148 15.8113ZM252.149 15.3403C251.378 15.1528 250.618 14.9446 249.868 14.7156L249.284 16.6284C250.071 16.8687 250.868 17.0872 251.676 17.2837L252.149 15.3403ZM249.868 14.7156C249.158 14.4985 248.53 14.2361 247.979 13.9324L247.013 15.6836C247.7 16.0625 248.459 16.3761 249.284 16.6284L249.868 14.7156ZM248.002 13.9453C247.497 13.6492 247.121 13.2992 246.851 12.9017L245.197 14.0263C245.652 14.6955 246.258 15.2415 246.991 15.6707L248.002 13.9453ZM246.876 12.9399C246.65 12.5733 246.512 12.0916 246.512 11.448H244.512C244.512 12.383 244.716 13.2454 245.173 13.9881L246.876 12.9399ZM246.512 11.448C246.512 10.8751 246.637 10.3945 246.866 9.98164L245.118 9.01036C244.707 9.74952 244.512 10.5703 244.512 11.448H246.512ZM246.86 9.99214C247.122 9.53373 247.484 9.14353 247.962 8.81948L246.839 7.16452C246.122 7.65114 245.545 8.2636 245.124 8.99986L246.86 9.99214ZM247.962 8.81948C248.452 8.48705 249.048 8.22015 249.767 8.03107L249.258 6.09692C248.355 6.33452 247.544 6.68628 246.839 7.16452L247.962 8.81948ZM249.79 8.02456C250.499 7.81936 251.29 7.712 252.168 7.712V5.712C251.127 5.712 250.147 5.8393 249.234 6.10343L249.79 8.02456ZM252.168 7.712C253.454 7.712 254.445 7.92078 255.185 8.28257L256.063 6.48543C254.969 5.95121 253.655 5.712 252.168 5.712V7.712ZM255.194 8.28648C255.971 8.65757 256.514 9.15602 256.871 9.77304L258.602 8.77096C258.02 7.76665 257.155 7.00643 256.055 6.48152L255.194 8.28648ZM256.881 9.7898C257.267 10.4285 257.472 11.1738 257.472 12.056H259.472C259.472 10.8475 259.187 9.73685 258.592 8.7542L256.881 9.7898ZM258.472 11.056H255.336V13.056H258.472V11.056ZM256.317 11.8599C256.118 10.8646 255.702 9.99295 254.961 9.41249L253.728 10.9875C253.968 11.175 254.213 11.5407 254.356 12.2521L256.317 11.8599ZM254.961 9.41249C254.218 8.83152 253.221 8.624 252.136 8.624V10.624C253.015 10.624 253.489 10.8005 253.728 10.9875L254.961 9.41249ZM252.136 8.624C251.065 8.624 250.089 8.80573 249.342 9.30395L250.451 10.9681C250.728 10.7836 251.245 10.624 252.136 10.624V8.624ZM249.342 9.30395C248.561 9.82403 248.128 10.6004 248.128 11.544H250.128C250.128 11.293 250.207 11.1306 250.451 10.9681L249.342 9.30395ZM248.128 11.544C248.128 12.2629 248.4 12.9082 248.953 13.3877L250.263 11.8763C250.176 11.8011 250.128 11.7211 250.128 11.544H248.128ZM249.008 13.432C249.476 13.7826 250.075 14.0489 250.752 14.2591L251.345 12.3489C250.785 12.1751 250.423 11.9934 250.208 11.832L249.008 13.432ZM250.752 14.2591C251.4 14.4603 252.15 14.6585 252.999 14.8544L253.449 12.9056C252.634 12.7175 251.934 12.5317 251.345 12.3489L250.752 14.2591ZM252.957 14.8435C253.707 15.052 254.413 15.2702 255.075 15.4977L255.725 13.6063C255.022 13.3645 254.277 13.1346 253.492 12.9165L252.957 14.8435ZM255.102 15.5065C255.711 15.6967 256.236 15.9386 256.685 16.2263L257.763 14.5417C257.146 14.1467 256.455 13.834 255.699 13.5975L255.102 15.5065ZM256.725 16.2502C257.137 16.4879 257.449 16.7953 257.679 17.1785L259.394 16.1495C258.984 15.466 258.421 14.9201 257.724 14.5178L256.725 16.2502ZM257.679 17.1785C257.884 17.5198 258.016 17.9918 258.016 18.648H260.016C260.016 17.7255 259.829 16.8749 259.394 16.1495L257.679 17.1785ZM258.016 18.648C258.016 19.4368 257.806 20.0612 257.419 20.5721L259.013 21.7799C259.693 20.8828 260.016 19.8218 260.016 18.648H258.016ZM257.408 20.5878C257.03 21.1076 256.453 21.5476 255.612 21.8768L256.341 23.7392C257.462 23.3004 258.379 22.6524 259.025 21.7642L257.408 20.5878ZM255.63 21.87C254.789 22.1807 253.729 22.352 252.424 22.352V24.352C253.893 24.352 255.201 24.1606 256.323 23.746L255.63 21.87ZM252.424 22.352C251.28 22.352 250.329 22.2211 249.552 21.9807L248.961 23.8913C249.976 24.2055 251.136 24.352 252.424 24.352V22.352ZM249.558 21.9828C248.767 21.7319 248.138 21.4151 247.648 21.048L246.448 22.648C247.153 23.1769 247.996 23.5854 248.954 23.8892L249.558 21.9828ZM247.662 21.0586C247.16 20.6681 246.799 20.2722 246.552 19.878L244.856 20.938C245.25 21.5678 245.784 22.1319 246.434 22.6374L247.662 21.0586ZM246.552 19.878C246.272 19.4297 246.094 19.0285 245.997 18.6729L244.067 19.1991C244.226 19.7821 244.496 20.3623 244.856 20.938L246.552 19.878ZM246.007 18.7144C245.915 18.3097 245.906 18.0433 245.927 17.8842L243.945 17.6198C243.881 18.1007 243.936 18.6237 244.057 19.1576L246.007 18.7144Z" fill="black" mask="url(#path-1-outside-1_240_3630)"/>
</g>
<defs>
<filter id="filter0_d_240_3630" x="0.640137" y="0.664001" width="259.876" height="30.236" filterUnits="userSpaceOnUse" color-interpolation-filters="sRGB">
<feFlood flood-opacity="0" result="BackgroundImageFix"/>
<feColorMatrix in="SourceAlpha" type="matrix" values="0 0 0 0 0 0 0 0 0 0 0 0 0 0 0 0 0 0 127 0" result="hardAlpha"/>
<feOffset dx="1" dy="1"/>
<feGaussianBlur stdDeviation="0.25"/>
<feComposite in2="hardAlpha" operator="out"/>
<feColorMatrix type="matrix" values="0 0 0 0 1 0 0 0 0 1 0 0 0 0 1 0 0 0 1 0"/>
<feBlend mode="normal" in2="BackgroundImageFix" result="effect1_dropShadow_240_3630"/>
<feBlend mode="normal" in="SourceGraphic" in2="effect1_dropShadow_240_3630" result="shape"/>
</filter>
</defs>
</svg>
