<svg width="2696" height="1330" viewBox="0 0 2696 1330" fill="none" xmlns="http://www.w3.org/2000/svg">
<line x1="150.903" y1="1328" x2="150.903" y2="-9.83507e-08" stroke="#FFB5FC" stroke-opacity="0.42" stroke-width="1.5"/>
<line x1="2695.78" y1="1179.1" x2="2" y2="1179.1" stroke="#FFB5FC" stroke-opacity="0.42" stroke-width="1.5"/>
<line x1="1.25098" y1="1328" x2="1.25115" y2="-9.83507e-08" stroke="#FFB5FC" stroke-opacity="0.42" stroke-width="1.5"/>
<line x1="2695.78" y1="1328.75" x2="2" y2="1328.75" stroke="#FFB5FC" stroke-opacity="0.42" stroke-width="1.5"/>
<line x1="150.903" y1="1328" x2="150.903" y2="-9.83507e-08" stroke="#FFB5FC" stroke-opacity="0.42" stroke-width="1.5"/>
<line x1="2695.78" y1="1179.1" x2="2" y2="1179.1" stroke="#FFB5FC" stroke-opacity="0.42" stroke-width="1.5"/>
<line x1="300.56" y1="1328" x2="300.56" y2="-9.83507e-08" stroke="#FFB5FC" stroke-opacity="0.42" stroke-width="1.5"/>
<line x1="2695.78" y1="1029.44" x2="2" y2="1029.44" stroke="#FFB5FC" stroke-opacity="0.42" stroke-width="1.5"/>
<line x1="450.212" y1="1328" x2="450.213" y2="-9.83507e-08" stroke="#FFB5FC" stroke-opacity="0.42" stroke-width="1.5"/>
<line x1="2695.78" y1="879.788" x2="2" y2="879.788" stroke="#FFB5FC" stroke-opacity="0.42" stroke-width="1.5"/>
<line x1="599.866" y1="1328" x2="599.866" y2="-9.83507e-08" stroke="#FFB5FC" stroke-opacity="0.42" stroke-width="1.5"/>
<line x1="2695.78" y1="730.134" x2="2" y2="730.134" stroke="#FFB5FC" stroke-opacity="0.42" stroke-width="1.5"/>
<line x1="749.522" y1="1328" x2="749.522" y2="-9.83507e-08" stroke="#FFB5FC" stroke-opacity="0.42" stroke-width="1.5"/>
<line x1="2695.78" y1="580.479" x2="2" y2="580.478" stroke="#FFB5FC" stroke-opacity="0.42" stroke-width="1.5"/>
<line x1="899.175" y1="1328" x2="899.175" y2="-9.83507e-08" stroke="#FFB5FC" stroke-opacity="0.42" stroke-width="1.5"/>
<line x1="2695.78" y1="430.824" x2="2" y2="430.824" stroke="#FFB5FC" stroke-opacity="0.42" stroke-width="1.5"/>
<line x1="1048.83" y1="1328" x2="1048.83" y2="-9.83507e-08" stroke="#FFB5FC" stroke-opacity="0.42" stroke-width="1.5"/>
<line x1="2695.78" y1="281.169" x2="2" y2="281.169" stroke="#FFB5FC" stroke-opacity="0.42" stroke-width="1.5"/>
<line x1="1198.48" y1="1328" x2="1198.48" y2="-9.83507e-08" stroke="#FFB5FC" stroke-opacity="0.42" stroke-width="1.5"/>
<line x1="2695.78" y1="131.517" x2="2" y2="131.516" stroke="#FFB5FC" stroke-opacity="0.42" stroke-width="1.5"/>
<line x1="1348.14" y1="1328" x2="1348.14" y2="-9.83507e-08" stroke="#FFB5FC" stroke-opacity="0.42" stroke-width="1.5"/>
<line x1="1497.79" y1="1328" x2="1497.79" y2="-9.83507e-08" stroke="#FFB5FC" stroke-opacity="0.42" stroke-width="1.5"/>
<line x1="1648.22" y1="1328" x2="1648.22" y2="129.941" stroke="#FFB5FC" stroke-opacity="0.42" stroke-width="1.5"/>
<line x1="1797.48" y1="1328" x2="1797.48" y2="129.941" stroke="#FFB5FC" stroke-opacity="0.42" stroke-width="1.5"/>
<line x1="1946.74" y1="1328" x2="1946.74" y2="129.941" stroke="#FFB5FC" stroke-opacity="0.42" stroke-width="1.5"/>
<line x1="2096" y1="1328" x2="2096" y2="129.941" stroke="#FFB5FC" stroke-opacity="0.42" stroke-width="1.5"/>
<line x1="2245.26" y1="1328" x2="2245.26" y2="129.941" stroke="#FFB5FC" stroke-opacity="0.42" stroke-width="1.5"/>
<line x1="2396.51" y1="1328" x2="2396.51" y2="129.941" stroke="#FFB5FC" stroke-opacity="0.42" stroke-width="1.5"/>
<line x1="2545.77" y1="1328" x2="2545.77" y2="129.941" stroke="#FFB5FC" stroke-opacity="0.42" stroke-width="1.5"/>
<line x1="2695.03" y1="1328" x2="2695.03" y2="129.941" stroke="#FFB5FC" stroke-opacity="0.42" stroke-width="1.5"/>
</svg>
