<svg width="249" height="962" viewBox="0 0 249 962" fill="none" xmlns="http://www.w3.org/2000/svg">
<g filter="url(#filter0_d_263_135)">
<mask id="path-1-outside-1_263_135" maskUnits="userSpaceOnUse" x="0" y="906" width="248" height="44" fill="black">
<rect fill="white" y="906" width="248" height="44"/>
<path d="M2.065 934.315H8.614C8.77133 935.77 9.34167 937.088 10.325 938.268C11.3477 939.409 12.685 940.313 14.337 940.982C16.0283 941.611 17.9557 941.926 20.119 941.926C22.0463 941.926 23.6393 941.69 24.898 941.218C26.1567 940.746 27.081 940.097 27.671 939.271C28.3003 938.406 28.615 937.403 28.615 936.262C28.615 935.121 28.2413 934.236 27.494 933.607C26.786 932.938 25.6847 932.388 24.19 931.955C22.6953 931.483 20.7877 931.031 18.467 930.598C16.5397 930.244 14.6713 929.772 12.862 929.182C11.0527 928.592 9.42033 927.845 7.965 926.94C6.549 926.035 5.428 924.934 4.602 923.636C3.776 922.299 3.363 920.725 3.363 918.916C3.363 916.871 3.93333 915.022 5.074 913.37C6.254 911.718 7.98467 910.42 10.266 909.476C12.5473 908.532 15.3203 908.06 18.585 908.06C23.5803 908.06 27.3957 909.22 30.031 911.541C32.6663 913.822 33.9447 916.93 33.866 920.863H27.435C27.317 918.385 26.4123 916.595 24.721 915.494C23.0297 914.393 20.886 913.842 18.29 913.842C15.9693 913.842 14.0223 914.255 12.449 915.081C10.8757 915.907 10.089 917.244 10.089 919.093C10.089 919.88 10.266 920.568 10.62 921.158C11.0133 921.709 11.6427 922.22 12.508 922.692C13.3733 923.125 14.5533 923.557 16.048 923.99C17.582 924.383 19.4503 924.816 21.653 925.288C23.541 925.603 25.311 926.035 26.963 926.586C28.615 927.137 30.0507 927.825 31.27 928.651C32.5287 929.477 33.512 930.539 34.22 931.837C34.928 933.135 35.282 934.728 35.282 936.616C35.282 938.779 34.7313 940.707 33.63 942.398C32.5287 944.05 30.8373 945.368 28.556 946.351C26.314 947.295 23.4033 947.767 19.824 947.767C17.11 947.767 14.7303 947.452 12.685 946.823C10.679 946.154 8.968 945.309 7.552 944.286C6.136 943.224 4.99533 942.083 4.13 940.864C3.304 939.645 2.714 938.465 2.36 937.324C2.04533 936.144 1.947 935.141 2.065 934.315ZM71.903 947H65.354V917.618H71.903V947ZM65.708 933.017L65.767 934.905C65.6884 935.416 65.5114 936.183 65.236 937.206C65 938.229 64.587 939.35 63.997 940.569C63.4464 941.749 62.699 942.89 61.755 943.991C60.8504 945.053 59.7097 945.938 58.333 946.646C56.9564 947.315 55.2847 947.649 53.318 947.649C51.902 947.649 50.4664 947.452 49.011 947.059C47.595 946.705 46.297 946.095 45.117 945.23C43.9764 944.365 43.052 943.185 42.344 941.69C41.636 940.195 41.282 938.307 41.282 936.026V917.618H47.831V934.787C47.831 936.636 48.126 938.091 48.716 939.153C49.3454 940.176 50.2107 940.903 51.312 941.336C52.4134 941.769 53.6917 941.985 55.147 941.985C57.2317 941.985 59.0017 941.513 60.457 940.569C61.9124 939.625 63.0727 938.465 63.938 937.088C64.8427 935.672 65.4327 934.315 65.708 933.017ZM110.761 935.613C110.525 938.13 109.718 940.294 108.342 942.103C106.965 943.912 105.116 945.289 102.796 946.233C100.514 947.177 97.8789 947.649 94.8895 947.649C91.6642 947.649 88.7338 947.059 86.0985 945.879C83.5025 944.699 81.4375 942.968 79.9035 940.687C78.3695 938.406 77.6025 935.633 77.6025 932.368C77.6025 929.103 78.3695 926.33 79.9035 924.049C81.4375 921.768 83.5025 920.017 86.0985 918.798C88.7338 917.579 91.6642 916.969 94.8895 916.969C97.8789 916.969 100.514 917.461 102.796 918.444C105.077 919.388 106.906 920.745 108.283 922.515C109.659 924.285 110.466 926.429 110.702 928.946H104.684C104.015 926.861 102.796 925.249 101.026 924.108C99.2949 922.928 97.2495 922.338 94.8895 922.338C92.9622 922.338 91.1922 922.731 89.5795 923.518C87.9668 924.265 86.6688 925.386 85.6855 926.881C84.7415 928.336 84.2695 930.165 84.2695 932.368C84.2695 934.531 84.7415 936.36 85.6855 937.855C86.6688 939.35 87.9668 940.471 89.5795 941.218C91.1922 941.926 92.9622 942.28 94.8895 942.28C97.4855 942.28 99.6095 941.71 101.262 940.569C102.953 939.389 104.113 937.737 104.743 935.613H110.761ZM148.154 935.613C147.918 938.13 147.112 940.294 145.735 942.103C144.358 943.912 142.51 945.289 140.189 946.233C137.908 947.177 135.272 947.649 132.283 947.649C129.058 947.649 126.127 947.059 123.492 945.879C120.896 944.699 118.831 942.968 117.297 940.687C115.763 938.406 114.996 935.633 114.996 932.368C114.996 929.103 115.763 926.33 117.297 924.049C118.831 921.768 120.896 920.017 123.492 918.798C126.127 917.579 129.058 916.969 132.283 916.969C135.272 916.969 137.908 917.461 140.189 918.444C142.47 919.388 144.299 920.745 145.676 922.515C147.053 924.285 147.859 926.429 148.095 928.946H142.077C141.408 926.861 140.189 925.249 138.419 924.108C136.688 922.928 134.643 922.338 132.283 922.338C130.356 922.338 128.586 922.731 126.973 923.518C125.36 924.265 124.062 925.386 123.079 926.881C122.135 928.336 121.663 930.165 121.663 932.368C121.663 934.531 122.135 936.36 123.079 937.855C124.062 939.35 125.36 940.471 126.973 941.218C128.586 941.926 130.356 942.28 132.283 942.28C134.879 942.28 137.003 941.71 138.655 940.569C140.346 939.389 141.507 937.737 142.136 935.613H148.154ZM178.468 937.324H184.781C184.466 939.33 183.679 941.12 182.421 942.693C181.201 944.227 179.53 945.446 177.406 946.351C175.282 947.216 172.745 947.649 169.795 947.649C166.451 947.649 163.462 947.039 160.827 945.82C158.191 944.561 156.126 942.791 154.632 940.51C153.137 938.229 152.39 935.515 152.39 932.368C152.39 929.261 153.117 926.547 154.573 924.226C156.028 921.905 158.034 920.116 160.591 918.857C163.187 917.598 166.176 916.969 169.559 916.969C173.059 916.969 175.97 917.598 178.291 918.857C180.651 920.076 182.401 921.925 183.542 924.403C184.682 926.842 185.154 929.929 184.958 933.666H159.057C159.253 935.318 159.784 936.813 160.65 938.15C161.554 939.448 162.774 940.471 164.308 941.218C165.842 941.926 167.631 942.28 169.677 942.28C171.958 942.28 173.866 941.828 175.4 940.923C176.973 940.018 177.996 938.819 178.468 937.324ZM169.382 922.279C166.707 922.279 164.504 922.948 162.774 924.285C161.043 925.583 159.922 927.255 159.411 929.3H178.35C178.192 927.097 177.307 925.386 175.695 924.167C174.082 922.908 171.978 922.279 169.382 922.279ZM189.501 937.324H195.578C195.892 938.819 196.699 940.038 197.997 940.982C199.295 941.887 201.045 942.339 203.248 942.339C204.664 942.339 205.765 942.182 206.552 941.867C207.378 941.552 207.948 941.12 208.263 940.569C208.617 940.018 208.794 939.389 208.794 938.681C208.794 937.816 208.538 937.147 208.027 936.675C207.555 936.203 206.847 935.81 205.903 935.495C204.959 935.18 203.779 934.905 202.363 934.669C200.907 934.315 199.472 933.922 198.056 933.489C196.64 933.056 195.361 932.525 194.221 931.896C193.08 931.227 192.175 930.401 191.507 929.418C190.877 928.395 190.563 927.156 190.563 925.701C190.563 924.364 190.858 923.164 191.448 922.102C192.077 921.001 192.942 920.076 194.044 919.329C195.145 918.582 196.443 918.011 197.938 917.618C199.432 917.185 201.065 916.969 202.835 916.969C205.391 916.969 207.515 917.382 209.207 918.208C210.937 919.034 212.235 920.194 213.101 921.689C214.005 923.184 214.458 924.895 214.458 926.822H208.676C208.361 925.249 207.751 924.108 206.847 923.4C205.942 922.692 204.585 922.338 202.776 922.338C200.966 922.338 199.59 922.653 198.646 923.282C197.702 923.911 197.23 924.777 197.23 925.878C197.23 926.704 197.525 927.373 198.115 927.884C198.744 928.356 199.629 928.769 200.77 929.123C201.91 929.477 203.248 929.831 204.782 930.185C206.198 930.578 207.535 930.991 208.794 931.424C210.052 931.817 211.173 932.329 212.157 932.958C213.179 933.548 213.986 934.335 214.576 935.318C215.166 936.301 215.461 937.521 215.461 938.976C215.461 940.785 214.969 942.339 213.986 943.637C213.042 944.935 211.665 945.938 209.856 946.646C208.046 947.315 205.863 947.649 203.307 947.649C201.065 947.649 199.118 947.393 197.466 946.882C195.853 946.371 194.496 945.702 193.395 944.876C192.333 944.05 191.507 943.165 190.917 942.221C190.327 941.277 189.914 940.372 189.678 939.507C189.481 938.642 189.422 937.914 189.501 937.324ZM220.095 937.324H226.172C226.487 938.819 227.293 940.038 228.591 940.982C229.889 941.887 231.64 942.339 233.842 942.339C235.258 942.339 236.36 942.182 237.146 941.867C237.972 941.552 238.543 941.12 238.857 940.569C239.211 940.018 239.388 939.389 239.388 938.681C239.388 937.816 239.133 937.147 238.621 936.675C238.149 936.203 237.441 935.81 236.497 935.495C235.553 935.18 234.373 934.905 232.957 934.669C231.502 934.315 230.066 933.922 228.65 933.489C227.234 933.056 225.956 932.525 224.815 931.896C223.675 931.227 222.77 930.401 222.101 929.418C221.472 928.395 221.157 927.156 221.157 925.701C221.157 924.364 221.452 923.164 222.042 922.102C222.672 921.001 223.537 920.076 224.638 919.329C225.74 918.582 227.038 918.011 228.532 917.618C230.027 917.185 231.659 916.969 233.429 916.969C235.986 916.969 238.11 917.382 239.801 918.208C241.532 919.034 242.83 920.194 243.695 921.689C244.6 923.184 245.052 924.895 245.052 926.822H239.27C238.956 925.249 238.346 924.108 237.441 923.4C236.537 922.692 235.18 922.338 233.37 922.338C231.561 922.338 230.184 922.653 229.24 923.282C228.296 923.911 227.824 924.777 227.824 925.878C227.824 926.704 228.119 927.373 228.709 927.884C229.339 928.356 230.224 928.769 231.364 929.123C232.505 929.477 233.842 929.831 235.376 930.185C236.792 930.578 238.13 930.991 239.388 931.424C240.647 931.817 241.768 932.329 242.751 932.958C243.774 933.548 244.58 934.335 245.17 935.318C245.76 936.301 246.055 937.521 246.055 938.976C246.055 940.785 245.564 942.339 244.58 943.637C243.636 944.935 242.26 945.938 240.45 946.646C238.641 947.315 236.458 947.649 233.901 947.649C231.659 947.649 229.712 947.393 228.06 946.882C226.448 946.371 225.091 945.702 223.989 944.876C222.927 944.05 222.101 943.165 221.511 942.221C220.921 941.277 220.508 940.372 220.272 939.507C220.076 938.642 220.017 937.914 220.095 937.324Z"/>
</mask>
<path d="M2.065 934.315H8.614C8.77133 935.77 9.34167 937.088 10.325 938.268C11.3477 939.409 12.685 940.313 14.337 940.982C16.0283 941.611 17.9557 941.926 20.119 941.926C22.0463 941.926 23.6393 941.69 24.898 941.218C26.1567 940.746 27.081 940.097 27.671 939.271C28.3003 938.406 28.615 937.403 28.615 936.262C28.615 935.121 28.2413 934.236 27.494 933.607C26.786 932.938 25.6847 932.388 24.19 931.955C22.6953 931.483 20.7877 931.031 18.467 930.598C16.5397 930.244 14.6713 929.772 12.862 929.182C11.0527 928.592 9.42033 927.845 7.965 926.94C6.549 926.035 5.428 924.934 4.602 923.636C3.776 922.299 3.363 920.725 3.363 918.916C3.363 916.871 3.93333 915.022 5.074 913.37C6.254 911.718 7.98467 910.42 10.266 909.476C12.5473 908.532 15.3203 908.06 18.585 908.06C23.5803 908.06 27.3957 909.22 30.031 911.541C32.6663 913.822 33.9447 916.93 33.866 920.863H27.435C27.317 918.385 26.4123 916.595 24.721 915.494C23.0297 914.393 20.886 913.842 18.29 913.842C15.9693 913.842 14.0223 914.255 12.449 915.081C10.8757 915.907 10.089 917.244 10.089 919.093C10.089 919.88 10.266 920.568 10.62 921.158C11.0133 921.709 11.6427 922.22 12.508 922.692C13.3733 923.125 14.5533 923.557 16.048 923.99C17.582 924.383 19.4503 924.816 21.653 925.288C23.541 925.603 25.311 926.035 26.963 926.586C28.615 927.137 30.0507 927.825 31.27 928.651C32.5287 929.477 33.512 930.539 34.22 931.837C34.928 933.135 35.282 934.728 35.282 936.616C35.282 938.779 34.7313 940.707 33.63 942.398C32.5287 944.05 30.8373 945.368 28.556 946.351C26.314 947.295 23.4033 947.767 19.824 947.767C17.11 947.767 14.7303 947.452 12.685 946.823C10.679 946.154 8.968 945.309 7.552 944.286C6.136 943.224 4.99533 942.083 4.13 940.864C3.304 939.645 2.714 938.465 2.36 937.324C2.04533 936.144 1.947 935.141 2.065 934.315ZM71.903 947H65.354V917.618H71.903V947ZM65.708 933.017L65.767 934.905C65.6884 935.416 65.5114 936.183 65.236 937.206C65 938.229 64.587 939.35 63.997 940.569C63.4464 941.749 62.699 942.89 61.755 943.991C60.8504 945.053 59.7097 945.938 58.333 946.646C56.9564 947.315 55.2847 947.649 53.318 947.649C51.902 947.649 50.4664 947.452 49.011 947.059C47.595 946.705 46.297 946.095 45.117 945.23C43.9764 944.365 43.052 943.185 42.344 941.69C41.636 940.195 41.282 938.307 41.282 936.026V917.618H47.831V934.787C47.831 936.636 48.126 938.091 48.716 939.153C49.3454 940.176 50.2107 940.903 51.312 941.336C52.4134 941.769 53.6917 941.985 55.147 941.985C57.2317 941.985 59.0017 941.513 60.457 940.569C61.9124 939.625 63.0727 938.465 63.938 937.088C64.8427 935.672 65.4327 934.315 65.708 933.017ZM110.761 935.613C110.525 938.13 109.718 940.294 108.342 942.103C106.965 943.912 105.116 945.289 102.796 946.233C100.514 947.177 97.8789 947.649 94.8895 947.649C91.6642 947.649 88.7338 947.059 86.0985 945.879C83.5025 944.699 81.4375 942.968 79.9035 940.687C78.3695 938.406 77.6025 935.633 77.6025 932.368C77.6025 929.103 78.3695 926.33 79.9035 924.049C81.4375 921.768 83.5025 920.017 86.0985 918.798C88.7338 917.579 91.6642 916.969 94.8895 916.969C97.8789 916.969 100.514 917.461 102.796 918.444C105.077 919.388 106.906 920.745 108.283 922.515C109.659 924.285 110.466 926.429 110.702 928.946H104.684C104.015 926.861 102.796 925.249 101.026 924.108C99.2949 922.928 97.2495 922.338 94.8895 922.338C92.9622 922.338 91.1922 922.731 89.5795 923.518C87.9668 924.265 86.6688 925.386 85.6855 926.881C84.7415 928.336 84.2695 930.165 84.2695 932.368C84.2695 934.531 84.7415 936.36 85.6855 937.855C86.6688 939.35 87.9668 940.471 89.5795 941.218C91.1922 941.926 92.9622 942.28 94.8895 942.28C97.4855 942.28 99.6095 941.71 101.262 940.569C102.953 939.389 104.113 937.737 104.743 935.613H110.761ZM148.154 935.613C147.918 938.13 147.112 940.294 145.735 942.103C144.358 943.912 142.51 945.289 140.189 946.233C137.908 947.177 135.272 947.649 132.283 947.649C129.058 947.649 126.127 947.059 123.492 945.879C120.896 944.699 118.831 942.968 117.297 940.687C115.763 938.406 114.996 935.633 114.996 932.368C114.996 929.103 115.763 926.33 117.297 924.049C118.831 921.768 120.896 920.017 123.492 918.798C126.127 917.579 129.058 916.969 132.283 916.969C135.272 916.969 137.908 917.461 140.189 918.444C142.47 919.388 144.299 920.745 145.676 922.515C147.053 924.285 147.859 926.429 148.095 928.946H142.077C141.408 926.861 140.189 925.249 138.419 924.108C136.688 922.928 134.643 922.338 132.283 922.338C130.356 922.338 128.586 922.731 126.973 923.518C125.36 924.265 124.062 925.386 123.079 926.881C122.135 928.336 121.663 930.165 121.663 932.368C121.663 934.531 122.135 936.36 123.079 937.855C124.062 939.35 125.36 940.471 126.973 941.218C128.586 941.926 130.356 942.28 132.283 942.28C134.879 942.28 137.003 941.71 138.655 940.569C140.346 939.389 141.507 937.737 142.136 935.613H148.154ZM178.468 937.324H184.781C184.466 939.33 183.679 941.12 182.421 942.693C181.201 944.227 179.53 945.446 177.406 946.351C175.282 947.216 172.745 947.649 169.795 947.649C166.451 947.649 163.462 947.039 160.827 945.82C158.191 944.561 156.126 942.791 154.632 940.51C153.137 938.229 152.39 935.515 152.39 932.368C152.39 929.261 153.117 926.547 154.573 924.226C156.028 921.905 158.034 920.116 160.591 918.857C163.187 917.598 166.176 916.969 169.559 916.969C173.059 916.969 175.97 917.598 178.291 918.857C180.651 920.076 182.401 921.925 183.542 924.403C184.682 926.842 185.154 929.929 184.958 933.666H159.057C159.253 935.318 159.784 936.813 160.65 938.15C161.554 939.448 162.774 940.471 164.308 941.218C165.842 941.926 167.631 942.28 169.677 942.28C171.958 942.28 173.866 941.828 175.4 940.923C176.973 940.018 177.996 938.819 178.468 937.324ZM169.382 922.279C166.707 922.279 164.504 922.948 162.774 924.285C161.043 925.583 159.922 927.255 159.411 929.3H178.35C178.192 927.097 177.307 925.386 175.695 924.167C174.082 922.908 171.978 922.279 169.382 922.279ZM189.501 937.324H195.578C195.892 938.819 196.699 940.038 197.997 940.982C199.295 941.887 201.045 942.339 203.248 942.339C204.664 942.339 205.765 942.182 206.552 941.867C207.378 941.552 207.948 941.12 208.263 940.569C208.617 940.018 208.794 939.389 208.794 938.681C208.794 937.816 208.538 937.147 208.027 936.675C207.555 936.203 206.847 935.81 205.903 935.495C204.959 935.18 203.779 934.905 202.363 934.669C200.907 934.315 199.472 933.922 198.056 933.489C196.64 933.056 195.361 932.525 194.221 931.896C193.08 931.227 192.175 930.401 191.507 929.418C190.877 928.395 190.563 927.156 190.563 925.701C190.563 924.364 190.858 923.164 191.448 922.102C192.077 921.001 192.942 920.076 194.044 919.329C195.145 918.582 196.443 918.011 197.938 917.618C199.432 917.185 201.065 916.969 202.835 916.969C205.391 916.969 207.515 917.382 209.207 918.208C210.937 919.034 212.235 920.194 213.101 921.689C214.005 923.184 214.458 924.895 214.458 926.822H208.676C208.361 925.249 207.751 924.108 206.847 923.4C205.942 922.692 204.585 922.338 202.776 922.338C200.966 922.338 199.59 922.653 198.646 923.282C197.702 923.911 197.23 924.777 197.23 925.878C197.23 926.704 197.525 927.373 198.115 927.884C198.744 928.356 199.629 928.769 200.77 929.123C201.91 929.477 203.248 929.831 204.782 930.185C206.198 930.578 207.535 930.991 208.794 931.424C210.052 931.817 211.173 932.329 212.157 932.958C213.179 933.548 213.986 934.335 214.576 935.318C215.166 936.301 215.461 937.521 215.461 938.976C215.461 940.785 214.969 942.339 213.986 943.637C213.042 944.935 211.665 945.938 209.856 946.646C208.046 947.315 205.863 947.649 203.307 947.649C201.065 947.649 199.118 947.393 197.466 946.882C195.853 946.371 194.496 945.702 193.395 944.876C192.333 944.05 191.507 943.165 190.917 942.221C190.327 941.277 189.914 940.372 189.678 939.507C189.481 938.642 189.422 937.914 189.501 937.324ZM220.095 937.324H226.172C226.487 938.819 227.293 940.038 228.591 940.982C229.889 941.887 231.64 942.339 233.842 942.339C235.258 942.339 236.36 942.182 237.146 941.867C237.972 941.552 238.543 941.12 238.857 940.569C239.211 940.018 239.388 939.389 239.388 938.681C239.388 937.816 239.133 937.147 238.621 936.675C238.149 936.203 237.441 935.81 236.497 935.495C235.553 935.18 234.373 934.905 232.957 934.669C231.502 934.315 230.066 933.922 228.65 933.489C227.234 933.056 225.956 932.525 224.815 931.896C223.675 931.227 222.77 930.401 222.101 929.418C221.472 928.395 221.157 927.156 221.157 925.701C221.157 924.364 221.452 923.164 222.042 922.102C222.672 921.001 223.537 920.076 224.638 919.329C225.74 918.582 227.038 918.011 228.532 917.618C230.027 917.185 231.659 916.969 233.429 916.969C235.986 916.969 238.11 917.382 239.801 918.208C241.532 919.034 242.83 920.194 243.695 921.689C244.6 923.184 245.052 924.895 245.052 926.822H239.27C238.956 925.249 238.346 924.108 237.441 923.4C236.537 922.692 235.18 922.338 233.37 922.338C231.561 922.338 230.184 922.653 229.24 923.282C228.296 923.911 227.824 924.777 227.824 925.878C227.824 926.704 228.119 927.373 228.709 927.884C229.339 928.356 230.224 928.769 231.364 929.123C232.505 929.477 233.842 929.831 235.376 930.185C236.792 930.578 238.13 930.991 239.388 931.424C240.647 931.817 241.768 932.329 242.751 932.958C243.774 933.548 244.58 934.335 245.17 935.318C245.76 936.301 246.055 937.521 246.055 938.976C246.055 940.785 245.564 942.339 244.58 943.637C243.636 944.935 242.26 945.938 240.45 946.646C238.641 947.315 236.458 947.649 233.901 947.649C231.659 947.649 229.712 947.393 228.06 946.882C226.448 946.371 225.091 945.702 223.989 944.876C222.927 944.05 222.101 943.165 221.511 942.221C220.921 941.277 220.508 940.372 220.272 939.507C220.076 938.642 220.017 937.914 220.095 937.324Z" fill="#4DFF94"/>
<path d="M2.065 934.315V932.815H0.764057L0.580076 934.103L2.065 934.315ZM8.614 934.315L10.1053 934.154L9.96058 932.815H8.614V934.315ZM10.325 938.268L9.17267 939.228L9.19004 939.249L9.20815 939.269L10.325 938.268ZM14.337 940.982L13.7742 942.372L13.7939 942.38L13.8139 942.388L14.337 940.982ZM27.671 939.271L26.4579 938.389L26.4504 938.399L27.671 939.271ZM27.494 933.607L26.4641 934.698L26.4951 934.727L26.5278 934.754L27.494 933.607ZM24.19 931.955L23.7383 933.385L23.7555 933.391L23.7729 933.396L24.19 931.955ZM18.467 930.598L18.7419 929.123L18.738 929.123L18.467 930.598ZM12.862 929.182L13.327 927.756H13.327L12.862 929.182ZM7.965 926.94L7.15742 928.204L7.16523 928.209L7.1731 928.214L7.965 926.94ZM4.602 923.636L3.3258 924.424L3.3311 924.433L3.33651 924.441L4.602 923.636ZM5.074 913.37L3.8534 912.498L3.84645 912.508L3.83965 912.518L5.074 913.37ZM10.266 909.476L10.8395 910.862L10.266 909.476ZM30.031 911.541L29.0396 912.667L29.0492 912.675L30.031 911.541ZM33.866 920.863V922.363H35.3363L35.3657 920.893L33.866 920.863ZM27.435 920.863L25.9367 920.934L26.0047 922.363H27.435V920.863ZM24.721 915.494L25.5395 914.237V914.237L24.721 915.494ZM12.449 915.081L13.1463 916.409L13.1463 916.409L12.449 915.081ZM10.62 921.158L9.33376 921.93L9.36458 921.981L9.3994 922.03L10.62 921.158ZM12.508 922.692L11.7897 924.009L11.8132 924.022L11.8372 924.034L12.508 922.692ZM16.048 923.99L15.6309 925.431L15.6531 925.437L15.6754 925.443L16.048 923.99ZM21.653 925.288L21.3387 926.755L21.3724 926.762L21.4064 926.768L21.653 925.288ZM31.27 928.651L30.4287 929.893L30.4378 929.899L30.447 929.905L31.27 928.651ZM34.22 931.837L32.9032 932.555L34.22 931.837ZM33.63 942.398L34.8781 943.23L34.8826 943.223L34.887 943.217L33.63 942.398ZM28.556 946.351L29.1381 947.734L29.1497 947.728L28.556 946.351ZM12.685 946.823L12.2107 948.246L12.2272 948.252L12.2439 948.257L12.685 946.823ZM7.552 944.286L6.652 945.486L6.66281 945.494L6.67376 945.502L7.552 944.286ZM4.13 940.864L2.88812 941.705L2.89728 941.719L2.90674 941.732L4.13 940.864ZM2.36 937.324L0.910648 937.71L0.91844 937.74L0.927404 937.769L2.36 937.324ZM2.065 935.815H8.614V932.815H2.065V935.815ZM7.12269 934.476C7.31341 936.24 8.00991 937.833 9.17267 939.228L11.4773 937.308C10.6734 936.343 10.2293 935.3 10.1053 934.154L7.12269 934.476ZM9.20815 939.269C10.4065 940.606 11.9448 941.632 13.7742 942.372L14.8998 939.592C13.4252 938.995 12.2888 938.211 11.4419 937.267L9.20815 939.269ZM13.8139 942.388C15.7022 943.09 17.8116 943.426 20.119 943.426V940.426C18.0997 940.426 16.3545 940.132 14.8601 939.576L13.8139 942.388ZM20.119 943.426C22.1547 943.426 23.9416 943.179 25.4247 942.622L24.3713 939.814C23.3371 940.201 21.938 940.426 20.119 940.426V943.426ZM25.4247 942.622C26.8734 942.079 28.0803 941.279 28.8916 940.143L26.4504 938.399C26.0817 938.915 25.4399 939.413 24.3713 939.814L25.4247 942.622ZM28.8841 940.153C29.7126 939.014 30.115 937.697 30.115 936.262H27.115C27.115 937.108 26.8881 937.797 26.4579 938.389L28.8841 940.153ZM30.115 936.262C30.115 934.761 29.6043 933.423 28.4602 932.46L26.5278 934.754C26.8784 935.05 27.115 935.481 27.115 936.262H30.115ZM28.5239 932.516C27.5688 931.614 26.2084 930.978 24.6071 930.514L23.7729 933.396C25.1609 933.798 26.0032 934.262 26.4641 934.698L28.5239 932.516ZM24.6417 930.525C23.0679 930.028 21.0957 929.562 18.7419 929.123L18.1921 932.073C20.4796 932.499 22.3227 932.938 23.7383 933.385L24.6417 930.525ZM18.738 929.123C16.8744 928.78 15.071 928.325 13.327 927.756L12.397 930.608C14.2717 931.219 16.2049 931.708 18.196 932.073L18.738 929.123ZM13.327 927.756C11.6199 927.199 10.0992 926.5 8.7569 925.666L7.1731 928.214C8.74144 929.189 10.4854 929.985 12.397 930.608L13.327 927.756ZM8.77258 925.676C7.52363 924.878 6.56563 923.928 5.86749 922.831L3.33651 924.441C4.29037 925.94 5.57437 927.193 7.15742 928.204L8.77258 925.676ZM5.8782 922.848C5.21952 921.781 4.863 920.49 4.863 918.916H1.863C1.863 920.961 2.33248 922.816 3.3258 924.424L5.8782 922.848ZM4.863 918.916C4.863 917.169 5.34412 915.619 6.30835 914.222L3.83965 912.518C2.52255 914.425 1.863 916.572 1.863 918.916H4.863ZM6.2946 914.242C7.27917 912.863 8.76145 911.722 10.8395 910.862L9.69247 908.09C7.20788 909.118 5.22883 910.573 3.8534 912.498L6.2946 914.242ZM10.8395 910.862C12.8907 910.013 15.457 909.56 18.585 909.56V906.56C15.1837 906.56 12.204 907.051 9.69247 908.09L10.8395 910.862ZM18.585 909.56C23.3681 909.56 26.7745 910.672 29.0397 912.667L31.0223 910.415C28.0168 907.769 23.7926 906.56 18.585 906.56V909.56ZM29.0492 912.675C31.3016 914.625 32.4373 917.281 32.3663 920.833L35.3657 920.893C35.452 916.578 34.0311 913.02 31.0128 910.407L29.0492 912.675ZM33.866 919.363H27.435V922.363H33.866V919.363ZM28.9333 920.792C28.7983 917.956 27.7286 915.662 25.5395 914.237L23.9025 916.751C25.0961 917.528 25.8357 918.814 25.9367 920.934L28.9333 920.792ZM25.5395 914.237C23.5438 912.937 21.0943 912.342 18.29 912.342V915.342C20.6777 915.342 22.5156 915.848 23.9025 916.751L25.5395 914.237ZM18.29 912.342C15.7982 912.342 13.5958 912.785 11.7517 913.753L13.1463 916.409C14.4488 915.725 16.1404 915.342 18.29 915.342V912.342ZM11.7518 913.753C10.7543 914.277 9.94088 915 9.3861 915.943C8.83326 916.883 8.589 917.953 8.589 919.093H11.589C11.589 918.385 11.7381 917.862 11.9719 917.464C12.2038 917.07 12.5704 916.711 13.1463 916.409L11.7518 913.753ZM8.589 919.093C8.589 920.112 8.82078 921.075 9.33376 921.93L11.9062 920.386C11.7112 920.061 11.589 919.648 11.589 919.093H8.589ZM9.3994 922.03C9.97053 922.829 10.8094 923.474 11.7897 924.009L13.2263 921.375C12.4759 920.966 12.0561 920.588 11.8406 920.286L9.3994 922.03ZM11.8372 924.034C12.8176 924.524 14.0946 924.986 15.6309 925.431L16.4651 922.549C15.012 922.129 13.929 921.725 13.1788 921.35L11.8372 924.034ZM15.6754 925.443C17.2349 925.843 19.1239 926.28 21.3387 926.755L21.9673 923.821C19.7767 923.352 17.9291 922.924 16.4206 922.537L15.6754 925.443ZM21.4064 926.768C23.2246 927.071 24.9179 927.485 26.4887 928.009L27.4373 925.163C25.7041 924.585 23.8574 924.135 21.8996 923.808L21.4064 926.768ZM26.4887 928.009C28.0336 928.524 29.3413 929.156 30.4287 929.893L32.1113 927.409C30.7601 926.494 29.1964 925.749 27.4373 925.163L26.4887 928.009ZM30.447 929.905C31.5034 930.598 32.3155 931.478 32.9032 932.555L35.5368 931.119C34.7085 929.6 33.5539 928.356 32.093 927.397L30.447 929.905ZM32.9032 932.555C33.4622 933.58 33.782 934.911 33.782 936.616H36.782C36.782 934.545 36.3938 932.69 35.5368 931.119L32.9032 932.555ZM33.782 936.616C33.782 938.511 33.3042 940.149 32.373 941.579L34.887 943.217C36.1584 941.264 36.782 939.048 36.782 936.616H33.782ZM32.3819 941.566C31.4775 942.923 30.0441 944.076 27.9623 944.974L29.1497 947.728C31.6305 946.659 33.5798 945.177 34.8781 943.23L32.3819 941.566ZM27.9739 944.969C25.9816 945.807 23.2894 946.267 19.824 946.267V949.267C23.5172 949.267 26.6464 948.783 29.1381 947.733L27.9739 944.969ZM19.824 946.267C17.2214 946.267 14.9962 945.965 13.1261 945.389L12.2439 948.257C14.4645 948.94 16.9986 949.267 19.824 949.267V946.267ZM13.1593 945.4C11.2684 944.77 9.70011 943.987 8.43024 943.07L6.67376 945.502C8.23589 946.63 10.0896 947.539 12.2107 948.246L13.1593 945.4ZM8.452 943.086C7.13809 942.101 6.11392 941.068 5.35326 939.996L2.90674 941.732C3.87675 943.099 5.13391 944.347 6.652 945.486L8.452 943.086ZM5.37188 940.023C4.61014 938.898 4.09408 937.851 3.7926 936.879L0.927404 937.769C1.33392 939.078 1.99786 940.391 2.88812 941.705L5.37188 940.023ZM3.80935 936.938C3.52464 935.87 3.47051 935.083 3.54992 934.527L0.580076 934.103C0.423485 935.199 0.566026 936.418 0.910648 937.71L3.80935 936.938ZM71.903 947V948.5H73.403V947H71.903ZM65.354 947H63.854V948.5H65.354V947ZM65.354 917.618V916.118H63.854V917.618H65.354ZM71.903 917.618H73.403V916.118H71.903V917.618ZM65.708 933.017L67.2073 932.97L64.2407 932.706L65.708 933.017ZM65.767 934.905L67.2496 935.133L67.2706 934.996L67.2663 934.858L65.767 934.905ZM65.236 937.206L63.7876 936.816L63.7805 936.842L63.7744 936.869L65.236 937.206ZM63.997 940.569L62.6468 939.916L62.6422 939.925L62.6377 939.935L63.997 940.569ZM61.755 943.991L60.6161 943.015L60.6132 943.018L61.755 943.991ZM58.333 946.646L58.9884 947.995L59.0038 947.988L59.019 947.98L58.333 946.646ZM49.011 947.059L49.4024 945.611L49.3886 945.607L49.3748 945.604L49.011 947.059ZM45.117 945.23L44.2104 946.425L44.2201 946.432L44.23 946.44L45.117 945.23ZM42.344 941.69L43.6996 941.048L42.344 941.69ZM41.282 917.618V916.118H39.782V917.618H41.282ZM47.831 917.618H49.331V916.118H47.831V917.618ZM48.716 939.153L47.4048 939.881L47.421 939.911L47.4385 939.939L48.716 939.153ZM51.312 941.336L50.7635 942.732L51.312 941.336ZM60.457 940.569L59.6407 939.311L60.457 940.569ZM63.938 937.088L62.6739 936.28L62.6681 936.29L63.938 937.088ZM71.903 945.5H65.354V948.5H71.903V945.5ZM66.854 947V917.618H63.854V947H66.854ZM65.354 919.118H71.903V916.118H65.354V919.118ZM70.403 917.618V947H73.403V917.618H70.403ZM64.2088 933.064L64.2678 934.952L67.2663 934.858L67.2073 932.97L64.2088 933.064ZM64.2845 934.677C64.219 935.103 64.0602 935.804 63.7876 936.816L66.6844 937.596C66.9625 936.563 67.1577 935.73 67.2496 935.133L64.2845 934.677ZM63.7744 936.869C63.5697 937.756 63.2013 938.77 62.6468 939.916L65.3473 941.222C65.9728 939.93 66.4304 938.701 66.6976 937.543L63.7744 936.869ZM62.6377 939.935C62.1508 940.978 61.4814 942.005 60.6161 943.015L62.8939 944.967C63.9166 943.774 64.7419 942.52 65.3563 941.203L62.6377 939.935ZM60.6132 943.018C59.8486 943.916 58.8687 944.684 57.647 945.312L59.019 947.98C60.5507 947.192 61.8521 946.19 62.8969 944.964L60.6132 943.018ZM57.6777 945.297C56.5549 945.842 55.1202 946.149 53.318 946.149V949.149C55.4492 949.149 57.3578 948.787 58.9884 947.995L57.6777 945.297ZM53.318 946.149C52.0425 946.149 50.7383 945.972 49.4024 945.611L48.6197 948.507C50.1944 948.933 51.7616 949.149 53.318 949.149V946.149ZM49.3748 945.604C48.148 945.297 47.0276 944.771 46.0041 944.02L44.23 946.44C45.5664 947.42 47.042 948.113 48.6472 948.514L49.3748 945.604ZM46.0236 944.035C45.1026 943.336 44.3206 942.359 43.6996 941.048L40.9884 942.332C41.7835 944.011 42.8501 945.393 44.2104 946.425L46.0236 944.035ZM43.6996 941.048C43.1156 939.815 42.782 938.165 42.782 936.026H39.782C39.782 938.45 40.1564 940.576 40.9884 942.332L43.6996 941.048ZM42.782 936.026V917.618H39.782V936.026H42.782ZM41.282 919.118H47.831V916.118H41.282V919.118ZM46.331 917.618V934.787H49.331V917.618H46.331ZM46.331 934.787C46.331 936.769 46.6428 938.51 47.4048 939.881L50.0273 938.425C49.6092 937.672 49.331 936.503 49.331 934.787H46.331ZM47.4385 939.939C48.2356 941.234 49.3547 942.179 50.7635 942.732L51.8605 939.94C51.0667 939.628 50.4551 939.117 49.9935 938.367L47.4385 939.939ZM50.7635 942.732C52.0747 943.247 53.5458 943.485 55.147 943.485V940.485C53.8376 940.485 52.752 940.29 51.8605 939.94L50.7635 942.732ZM55.147 943.485C57.4623 943.485 59.5297 942.958 61.2733 941.827L59.6407 939.311C58.4737 940.068 57.0011 940.485 55.147 940.485V943.485ZM61.2733 941.827C62.8991 940.773 64.219 939.46 65.208 937.886L62.6681 936.29C61.9264 937.47 60.9257 938.477 59.6407 939.311L61.2733 941.827ZM65.2021 937.896C66.179 936.366 66.8542 934.843 67.1754 933.328L64.2407 932.706C64.0112 933.787 63.5064 934.978 62.674 936.28L65.2021 937.896ZM110.761 935.613L112.254 935.753L112.408 934.113H110.761V935.613ZM108.342 942.103L109.535 943.011V943.011L108.342 942.103ZM102.796 946.233L102.23 944.844L102.222 944.847L102.796 946.233ZM86.0985 945.879L85.4778 947.245L85.4855 947.248L86.0985 945.879ZM79.9035 940.687L81.1483 939.85L79.9035 940.687ZM79.9035 924.049L78.6588 923.212L79.9035 924.049ZM86.0985 918.798L85.4686 917.437L85.4608 917.44L86.0985 918.798ZM102.796 918.444L102.202 919.821L102.212 919.826L102.222 919.83L102.796 918.444ZM108.283 922.515L109.467 921.594V921.594L108.283 922.515ZM110.702 928.946V930.446H112.349L112.195 928.806L110.702 928.946ZM104.684 928.946L103.255 929.404L103.589 930.446H104.684V928.946ZM101.026 924.108L100.181 925.347L100.197 925.358L100.213 925.369L101.026 924.108ZM89.5795 923.518L90.2102 924.879L90.2237 924.873L90.2372 924.866L89.5795 923.518ZM85.6855 926.881L84.4324 926.057L84.4271 926.065L85.6855 926.881ZM85.6855 937.855L84.4173 938.656L84.4247 938.668L84.4324 938.679L85.6855 937.855ZM89.5795 941.218L88.9488 942.579L88.9626 942.585L88.9765 942.591L89.5795 941.218ZM101.262 940.569L102.114 941.803L102.12 941.799L101.262 940.569ZM104.743 935.613V934.113H103.623L103.304 935.187L104.743 935.613ZM109.267 935.473C109.054 937.744 108.336 939.633 107.148 941.195L109.535 943.011C111.1 940.954 111.995 938.517 112.254 935.753L109.267 935.473ZM107.148 941.195C105.95 942.769 104.328 943.99 102.23 944.844L103.361 947.622C105.904 946.588 107.98 945.056 109.535 943.011L107.148 941.195ZM102.222 944.847C100.156 945.702 97.7225 946.149 94.8895 946.149V949.149C98.0352 949.149 100.872 948.652 103.369 947.619L102.222 944.847ZM94.8895 946.149C91.8506 946.149 89.1326 945.594 86.7115 944.51L85.4855 947.248C88.3351 948.524 91.4777 949.149 94.8895 949.149V946.149ZM86.7192 944.513C84.3663 943.444 82.5213 941.892 81.1483 939.85L78.6588 941.524C80.3538 944.045 82.6388 945.954 85.4778 947.245L86.7192 944.513ZM81.1483 939.85C79.8098 937.86 79.1025 935.391 79.1025 932.368H76.1025C76.1025 935.874 76.9292 938.952 78.6588 941.524L81.1483 939.85ZM79.1025 932.368C79.1025 929.345 79.8098 926.876 81.1483 924.886L78.6588 923.212C76.9292 925.784 76.1025 928.862 76.1025 932.368H79.1025ZM81.1483 924.886C82.5241 922.84 84.3748 921.265 86.7362 920.156L85.4608 917.44C82.6302 918.77 80.351 920.695 78.6588 923.212L81.1483 924.886ZM86.7284 920.159C89.1454 919.041 91.8574 918.469 94.8895 918.469V915.469C91.4709 915.469 88.3223 916.116 85.4686 917.437L86.7284 920.159ZM94.8895 918.469C97.7153 918.469 100.142 918.934 102.202 919.821L103.389 917.067C100.886 915.988 98.0424 915.469 94.8895 915.469V918.469ZM102.222 919.83C104.288 920.685 105.897 921.892 107.098 923.436L109.467 921.594C107.914 919.598 105.866 918.091 103.369 917.058L102.222 919.83ZM107.098 923.436C108.278 924.952 108.995 926.816 109.208 929.086L112.195 928.806C111.936 926.042 111.04 923.617 109.467 921.594L107.098 923.436ZM110.702 927.446H104.684V930.446H110.702V927.446ZM106.112 928.488C105.342 926.087 103.912 924.184 101.838 922.847L100.213 925.369C101.679 926.313 102.688 927.636 103.255 929.404L106.112 928.488ZM101.871 922.869C99.86 921.498 97.5114 920.838 94.8895 920.838V923.838C96.9876 923.838 98.7297 924.358 100.181 925.347L101.871 922.869ZM94.8895 920.838C92.7515 920.838 90.7543 921.276 88.9219 922.17L90.2372 924.866C91.63 924.187 93.1728 923.838 94.8895 923.838V920.838ZM88.9488 922.157C87.081 923.023 85.5681 924.33 84.4324 926.057L86.9386 927.705C87.7696 926.442 88.8527 925.508 90.2102 924.879L88.9488 922.157ZM84.4271 926.065C83.2879 927.821 82.7695 929.953 82.7695 932.368H85.7695C85.7695 930.377 86.1951 928.852 86.944 927.697L84.4271 926.065ZM82.7695 932.368C82.7695 934.751 83.2912 936.873 84.4173 938.656L86.9538 937.054C86.1919 935.848 85.7695 934.311 85.7695 932.368H82.7695ZM84.4324 938.679C85.5681 940.406 87.081 941.713 88.9488 942.579L90.2102 939.857C88.8527 939.228 87.7696 938.294 86.9386 937.031L84.4324 938.679ZM88.9765 942.591C90.7966 943.39 92.7743 943.78 94.8895 943.78V940.78C93.15 940.78 91.5878 940.461 90.1825 939.845L88.9765 942.591ZM94.8895 943.78C97.7013 943.78 100.147 943.161 102.114 941.803L100.409 939.335C99.072 940.258 97.2698 940.78 94.8895 940.78V943.78ZM102.12 941.799C104.111 940.41 105.462 938.463 106.181 936.039L103.304 935.187C102.764 937.011 101.794 938.368 100.403 939.339L102.12 941.799ZM104.743 937.113H110.761V934.113H104.743V937.113ZM148.154 935.613L149.648 935.753L149.801 934.113H148.154V935.613ZM145.735 942.103L146.929 943.011V943.011L145.735 942.103ZM140.189 946.233L139.624 944.844L139.616 944.847L140.189 946.233ZM123.492 945.879L122.871 947.245L122.879 947.248L123.492 945.879ZM117.297 940.687L118.542 939.85L117.297 940.687ZM117.297 924.049L116.052 923.212L117.297 924.049ZM123.492 918.798L122.862 917.437L122.854 917.44L123.492 918.798ZM140.189 918.444L139.595 919.821L139.605 919.826L139.616 919.83L140.189 918.444ZM145.676 922.515L146.86 921.594V921.594L145.676 922.515ZM148.095 928.946V930.446H149.742L149.589 928.806L148.095 928.946ZM142.077 928.946L140.649 929.404L140.983 930.446H142.077V928.946ZM138.419 924.108L137.574 925.347L137.59 925.358L137.607 925.369L138.419 924.108ZM126.973 923.518L127.604 924.879L127.617 924.873L127.631 924.866L126.973 923.518ZM123.079 926.881L121.826 926.057L121.821 926.065L123.079 926.881ZM123.079 937.855L121.811 938.656L121.818 938.668L121.826 938.679L123.079 937.855ZM126.973 941.218L126.342 942.579L126.356 942.585L126.37 942.591L126.973 941.218ZM138.655 940.569L139.507 941.803L139.513 941.799L138.655 940.569ZM142.136 935.613V934.113H141.016L140.698 935.187L142.136 935.613ZM146.661 935.473C146.448 937.744 145.73 939.633 144.541 941.195L146.929 943.011C148.494 940.954 149.388 938.517 149.648 935.753L146.661 935.473ZM144.541 941.195C143.344 942.769 141.722 943.99 139.624 944.844L140.754 947.622C143.298 946.588 145.373 945.056 146.929 943.011L144.541 941.195ZM139.616 944.847C137.55 945.702 135.116 946.149 132.283 946.149V949.149C135.429 949.149 138.265 948.652 140.763 947.619L139.616 944.847ZM132.283 946.149C129.244 946.149 126.526 945.594 124.105 944.51L122.879 947.248C125.729 948.524 128.871 949.149 132.283 949.149V946.149ZM124.113 944.513C121.76 943.444 119.915 941.892 118.542 939.85L116.052 941.524C117.747 944.045 120.032 945.954 122.871 947.245L124.113 944.513ZM118.542 939.85C117.203 937.86 116.496 935.391 116.496 932.368H113.496C113.496 935.874 114.323 938.952 116.052 941.524L118.542 939.85ZM116.496 932.368C116.496 929.345 117.203 926.876 118.542 924.886L116.052 923.212C114.323 925.784 113.496 928.862 113.496 932.368H116.496ZM118.542 924.886C119.918 922.84 121.768 921.265 124.13 920.156L122.854 917.44C120.024 918.77 117.745 920.695 116.052 923.212L118.542 924.886ZM124.122 920.159C126.539 919.041 129.251 918.469 132.283 918.469V915.469C128.864 915.469 125.716 916.116 122.862 917.437L124.122 920.159ZM132.283 918.469C135.109 918.469 137.536 918.934 139.595 919.821L140.783 917.067C138.28 915.988 135.436 915.469 132.283 915.469V918.469ZM139.616 919.83C141.681 920.685 143.291 921.892 144.492 923.436L146.86 921.594C145.308 919.598 143.259 918.091 140.763 917.058L139.616 919.83ZM144.492 923.436C145.672 924.952 146.389 926.816 146.602 929.086L149.589 928.806C149.329 926.042 148.434 923.617 146.86 921.594L144.492 923.436ZM148.095 927.446H142.077V930.446H148.095V927.446ZM143.505 928.488C142.735 926.087 141.306 924.184 139.232 922.847L137.607 925.369C139.072 926.313 140.082 927.636 140.649 929.404L143.505 928.488ZM139.264 922.869C137.254 921.498 134.905 920.838 132.283 920.838V923.838C134.381 923.838 136.123 924.358 137.574 925.347L139.264 922.869ZM132.283 920.838C130.145 920.838 128.148 921.276 126.315 922.17L127.631 924.866C129.024 924.187 130.566 923.838 132.283 923.838V920.838ZM126.342 922.157C124.475 923.023 122.962 924.33 121.826 926.057L124.332 927.705C125.163 926.442 126.246 925.508 127.604 924.879L126.342 922.157ZM121.821 926.065C120.681 927.821 120.163 929.953 120.163 932.368H123.163C123.163 930.377 123.589 928.852 124.338 927.697L121.821 926.065ZM120.163 932.368C120.163 934.751 120.685 936.873 121.811 938.656L124.347 937.054C123.585 935.848 123.163 934.311 123.163 932.368H120.163ZM121.826 938.679C122.962 940.406 124.475 941.713 126.342 942.579L127.604 939.857C126.246 939.228 125.163 938.294 124.332 937.031L121.826 938.679ZM126.37 942.591C128.19 943.39 130.168 943.78 132.283 943.78V940.78C130.544 940.78 128.981 940.461 127.576 939.845L126.37 942.591ZM132.283 943.78C135.095 943.78 137.541 943.161 139.507 941.803L137.803 939.335C136.466 940.258 134.663 940.78 132.283 940.78V943.78ZM139.513 941.799C141.505 940.41 142.856 938.463 143.574 936.039L140.698 935.187C140.157 937.011 139.188 938.368 137.797 939.339L139.513 941.799ZM142.136 937.113H148.154V934.113H142.136V937.113ZM178.468 937.324V935.824H177.368L177.037 936.872L178.468 937.324ZM184.781 937.324L186.263 937.556L186.534 935.824H184.781V937.324ZM182.421 942.693L181.249 941.756L181.246 941.76L182.421 942.693ZM177.406 946.351L177.972 947.74L177.983 947.736L177.993 947.731L177.406 946.351ZM160.827 945.82L160.18 947.174L160.188 947.177L160.197 947.181L160.827 945.82ZM154.632 940.51L153.377 941.332L154.632 940.51ZM154.573 924.226L155.843 925.023L154.573 924.226ZM160.591 918.857L159.936 917.507L159.928 917.511L160.591 918.857ZM178.291 918.857L177.575 920.176L177.589 920.183L177.602 920.19L178.291 918.857ZM183.542 924.403L182.179 925.03L182.183 925.039L183.542 924.403ZM184.958 933.666V935.166H186.381L186.456 933.745L184.958 933.666ZM159.057 933.666V932.166H157.367L157.567 933.843L159.057 933.666ZM160.65 938.15L159.39 938.965L159.404 938.987L159.419 939.008L160.65 938.15ZM164.308 941.218L163.651 942.566L163.665 942.573L163.679 942.58L164.308 941.218ZM175.4 940.923L174.652 939.623L174.645 939.627L174.638 939.631L175.4 940.923ZM162.774 924.285L163.674 925.485L163.682 925.479L163.691 925.472L162.774 924.285ZM159.411 929.3L157.955 928.936L157.489 930.8H159.411V929.3ZM178.35 929.3V930.8H179.961L179.846 929.193L178.35 929.3ZM175.695 924.167L174.772 925.349L174.781 925.357L174.79 925.363L175.695 924.167ZM178.468 938.824H184.781V935.824H178.468V938.824ZM183.299 937.092C183.024 938.842 182.344 940.388 181.249 941.756L183.592 943.63C185.015 941.851 185.908 939.818 186.263 937.556L183.299 937.092ZM181.246 941.76C180.208 943.066 178.753 944.147 176.818 944.971L177.993 947.731C180.306 946.746 182.195 945.388 183.595 943.626L181.246 941.76ZM176.84 944.962C174.939 945.736 172.604 946.149 169.795 946.149V949.149C172.886 949.149 175.624 948.696 177.972 947.74L176.84 944.962ZM169.795 946.149C166.636 946.149 163.867 945.574 161.456 944.459L160.197 947.181C163.057 948.505 166.267 949.149 169.795 949.149V946.149ZM161.473 944.466C159.067 943.317 157.22 941.724 155.886 939.688L153.377 941.332C155.033 943.859 157.316 945.805 160.18 947.174L161.473 944.466ZM155.886 939.688C154.575 937.687 153.89 935.269 153.89 932.368H150.89C150.89 935.761 151.699 938.771 153.377 941.332L155.886 939.688ZM153.89 932.368C153.89 929.504 154.557 927.074 155.843 925.023L153.302 923.429C151.677 926.019 150.89 929.018 150.89 932.368H153.89ZM155.843 925.023C157.145 922.948 158.936 921.344 161.253 920.203L159.928 917.511C157.132 918.888 154.911 920.863 153.302 923.429L155.843 925.023ZM161.245 920.207C163.605 919.063 166.364 918.469 169.559 918.469V915.469C165.988 915.469 162.769 916.134 159.936 917.507L161.245 920.207ZM169.559 918.469C172.888 918.469 175.534 919.068 177.575 920.176L179.006 917.538C176.406 916.128 173.231 915.469 169.559 915.469V918.469ZM177.602 920.19C179.657 921.251 181.174 922.847 182.179 925.03L184.904 923.776C183.628 921.003 181.645 918.902 178.979 917.524L177.602 920.19ZM182.183 925.039C183.187 927.184 183.648 930.006 183.46 933.587L186.456 933.745C186.66 929.853 186.178 926.499 184.9 923.767L182.183 925.039ZM184.958 932.166H159.057V935.166H184.958V932.166ZM157.567 933.843C157.79 935.712 158.395 937.427 159.39 938.965L161.909 937.335C161.174 936.199 160.717 934.924 160.546 933.489L157.567 933.843ZM159.419 939.008C160.481 940.532 161.905 941.716 163.651 942.566L164.965 939.87C163.642 939.225 162.627 938.364 161.88 937.292L159.419 939.008ZM163.679 942.58C165.447 943.396 167.459 943.78 169.677 943.78V940.78C167.803 940.78 166.236 940.456 164.936 939.856L163.679 942.58ZM169.677 943.78C172.152 943.78 174.34 943.289 176.162 942.215L174.638 939.631C173.391 940.366 171.764 940.78 169.677 940.78V943.78ZM176.147 942.223C177.992 941.163 179.295 939.685 179.898 937.776L177.037 936.872C176.696 937.952 175.954 938.874 174.652 939.623L176.147 942.223ZM169.382 920.779C166.451 920.779 163.904 921.516 161.856 923.098L163.691 925.472C165.104 924.38 166.963 923.779 169.382 923.779V920.779ZM161.874 923.085C159.875 924.584 158.553 926.547 157.955 928.936L160.866 929.664C161.291 927.962 162.211 926.582 163.674 925.485L161.874 923.085ZM159.411 930.8H178.35V927.8H159.411V930.8ZM179.846 929.193C179.661 926.604 178.591 924.477 176.599 922.971L174.79 925.363C176.023 926.296 176.724 927.591 176.853 929.407L179.846 929.193ZM176.618 922.985C174.677 921.47 172.221 920.779 169.382 920.779V923.779C171.734 923.779 173.487 924.346 174.772 925.349L176.618 922.985ZM189.501 937.324V935.824H188.187L188.014 937.126L189.501 937.324ZM195.578 937.324L197.045 937.015L196.795 935.824H195.578V937.324ZM197.997 940.982L197.114 942.195L197.127 942.204L197.139 942.213L197.997 940.982ZM206.552 941.867L206.018 940.465L206.006 940.47L205.995 940.474L206.552 941.867ZM208.263 940.569L207.001 939.758L206.98 939.791L206.96 939.825L208.263 940.569ZM208.027 936.675L206.966 937.736L206.987 937.757L207.009 937.777L208.027 936.675ZM205.903 935.495L206.377 934.072L205.903 935.495ZM202.363 934.669L202.008 936.126L202.062 936.14L202.116 936.149L202.363 934.669ZM198.056 933.489L198.494 932.054L198.056 933.489ZM194.221 931.896L193.462 933.19L193.479 933.2L193.496 933.209L194.221 931.896ZM191.507 929.418L190.229 930.204L190.247 930.233L190.266 930.261L191.507 929.418ZM191.448 922.102L190.145 921.358L190.141 921.366L190.136 921.374L191.448 922.102ZM194.044 919.329L194.886 920.57L194.044 919.329ZM197.938 917.618L198.319 919.069L198.337 919.064L198.355 919.059L197.938 917.618ZM209.207 918.208L208.548 919.556L208.561 919.562L209.207 918.208ZM213.101 921.689L211.802 922.441L211.81 922.453L211.817 922.466L213.101 921.689ZM214.458 926.822V928.322H215.958V926.822H214.458ZM208.676 926.822L207.205 927.116L207.446 928.322H208.676V926.822ZM206.847 923.4L205.922 924.581L206.847 923.4ZM198.115 927.884L197.132 929.018L197.172 929.052L197.215 929.084L198.115 927.884ZM200.77 929.123L200.325 930.556L200.77 929.123ZM204.782 930.185L205.183 928.74L205.151 928.731L205.119 928.723L204.782 930.185ZM208.794 931.424L208.306 932.843L208.326 932.849L208.346 932.856L208.794 931.424ZM212.157 932.958L211.348 934.221L211.377 934.24L211.407 934.257L212.157 932.958ZM214.576 935.318L215.862 934.546V934.546L214.576 935.318ZM213.986 943.637L212.79 942.731L212.781 942.743L212.773 942.755L213.986 943.637ZM209.856 946.646L210.376 948.053L210.389 948.048L210.402 948.043L209.856 946.646ZM197.466 946.882L197.012 948.312L197.022 948.315L197.466 946.882ZM193.395 944.876L192.474 946.06L192.484 946.068L192.495 946.076L193.395 944.876ZM190.917 942.221L189.645 943.016L190.917 942.221ZM189.678 939.507L188.215 939.839L188.222 939.871L188.23 939.902L189.678 939.507ZM189.501 938.824H195.578V935.824H189.501V938.824ZM194.11 937.633C194.505 939.511 195.533 941.045 197.114 942.195L198.879 939.769C197.865 939.031 197.279 938.126 197.045 937.015L194.11 937.633ZM197.139 942.213C198.77 943.349 200.855 943.839 203.248 943.839V940.839C201.235 940.839 199.819 940.424 198.854 939.751L197.139 942.213ZM203.248 943.839C204.744 943.839 206.065 943.677 207.109 943.26L205.995 940.474C205.465 940.686 204.584 940.839 203.248 940.839V943.839ZM207.086 943.269C208.11 942.879 209.021 942.265 209.565 941.313L206.96 939.825C206.875 939.974 206.645 940.226 206.018 940.465L207.086 943.269ZM209.524 941.38C210.047 940.568 210.294 939.652 210.294 938.681H207.294C207.294 939.126 207.187 939.469 207.001 939.758L209.524 941.38ZM210.294 938.681C210.294 937.506 209.935 936.395 209.044 935.573L207.009 937.777C207.141 937.899 207.294 938.125 207.294 938.681H210.294ZM209.087 935.614C208.39 934.917 207.442 934.427 206.377 934.072L205.428 936.918C206.251 937.192 206.719 937.489 206.966 937.736L209.087 935.614ZM206.377 934.072C205.334 933.724 204.072 933.433 202.609 933.189L202.116 936.149C203.485 936.377 204.583 936.636 205.428 936.918L206.377 934.072ZM202.717 933.211C201.29 932.864 199.882 932.479 198.494 932.054L197.617 934.924C199.061 935.365 200.525 935.766 202.008 936.126L202.717 933.211ZM198.494 932.054C197.164 931.648 195.984 931.156 194.945 930.583L193.496 933.209C194.739 933.895 196.115 934.465 197.617 934.924L198.494 932.054ZM194.979 930.602C194.009 930.033 193.277 929.354 192.747 928.575L190.266 930.261C191.073 931.449 192.151 932.422 193.462 933.19L194.979 930.602ZM192.784 928.632C192.328 927.891 192.063 926.938 192.063 925.701H189.063C189.063 927.375 189.426 928.899 190.229 930.204L192.784 928.632ZM192.063 925.701C192.063 924.592 192.305 923.648 192.759 922.83L190.136 921.374C189.41 922.68 189.063 924.135 189.063 925.701H192.063ZM192.75 922.846C193.26 921.953 193.964 921.196 194.886 920.57L193.201 918.088C191.92 918.957 190.894 920.048 190.145 921.358L192.75 922.846ZM194.886 920.57C195.826 919.932 196.963 919.426 198.319 919.069L197.556 916.167C195.923 916.597 194.464 917.231 193.201 918.088L194.886 920.57ZM198.355 919.059C199.697 918.67 201.187 918.469 202.835 918.469V915.469C200.943 915.469 199.168 915.7 197.521 916.177L198.355 919.059ZM202.835 918.469C205.241 918.469 207.122 918.859 208.548 919.556L209.865 916.86C207.909 915.905 205.542 915.469 202.835 915.469V918.469ZM208.561 919.562C210.049 920.272 211.105 921.236 211.802 922.441L214.399 920.937C213.365 919.152 211.825 917.796 209.853 916.854L208.561 919.562ZM211.817 922.466C212.566 923.702 212.958 925.139 212.958 926.822H215.958C215.958 924.65 215.445 922.665 214.384 920.912L211.817 922.466ZM214.458 925.322H208.676V928.322H214.458V925.322ZM210.146 926.528C209.789 924.742 209.052 923.221 207.771 922.219L205.922 924.581C206.45 924.995 206.933 925.756 207.205 927.116L210.146 926.528ZM207.771 922.219C206.489 921.215 204.74 920.838 202.776 920.838V923.838C204.43 923.838 205.395 924.169 205.922 924.581L207.771 922.219ZM202.776 920.838C200.831 920.838 199.111 921.169 197.814 922.034L199.478 924.53C200.069 924.136 201.101 923.838 202.776 923.838V920.838ZM197.814 922.034C196.467 922.931 195.73 924.257 195.73 925.878H198.73C198.73 925.296 198.936 924.891 199.478 924.53L197.814 922.034ZM195.73 925.878C195.73 927.11 196.192 928.203 197.132 929.018L199.097 926.75C198.857 926.542 198.73 926.298 198.73 925.878H195.73ZM197.215 929.084C198.033 929.698 199.096 930.174 200.325 930.556L201.214 927.69C200.161 927.364 199.455 927.014 199.015 926.684L197.215 929.084ZM200.325 930.556C201.51 930.923 202.885 931.287 204.444 931.647L205.119 928.723C203.61 928.375 202.31 928.031 201.214 927.69L200.325 930.556ZM204.38 931.63C205.77 932.016 207.079 932.421 208.306 932.843L209.281 930.005C207.991 929.562 206.625 929.14 205.183 928.74L204.38 931.63ZM208.346 932.856C209.494 933.214 210.491 933.673 211.348 934.221L212.965 931.695C211.856 930.985 210.611 930.42 209.241 929.992L208.346 932.856ZM211.407 934.257C212.216 934.724 212.835 935.332 213.289 936.09L215.862 934.546C215.137 933.338 214.143 932.372 212.906 931.659L211.407 934.257ZM213.289 936.09C213.707 936.785 213.961 937.72 213.961 938.976H216.961C216.961 937.321 216.625 935.818 215.862 934.546L213.289 936.09ZM213.961 938.976C213.961 940.497 213.554 941.723 212.79 942.731L215.181 944.543C216.384 942.955 216.961 941.074 216.961 938.976H213.961ZM212.773 942.755C212.029 943.776 210.908 944.623 209.309 945.249L210.402 948.043C212.422 947.253 214.054 946.094 215.199 944.519L212.773 942.755ZM209.336 945.239C207.737 945.83 205.74 946.149 203.307 946.149V949.149C205.986 949.149 208.355 948.8 210.376 948.053L209.336 945.239ZM203.307 946.149C201.173 946.149 199.382 945.905 197.909 945.449L197.022 948.315C198.853 948.882 200.956 949.149 203.307 949.149V946.149ZM197.919 945.452C196.432 944.981 195.234 944.381 194.295 943.676L192.495 946.076C193.758 947.023 195.274 947.761 197.012 948.312L197.919 945.452ZM194.316 943.692C193.364 942.952 192.668 942.193 192.189 941.426L189.645 943.016C190.345 944.137 191.301 945.148 192.474 946.06L194.316 943.692ZM192.189 941.426C191.658 940.578 191.314 939.807 191.125 939.112L188.23 939.902C188.513 940.938 188.995 941.976 189.645 943.016L192.189 941.426ZM191.14 939.175C190.966 938.406 190.941 937.871 190.987 937.522L188.014 937.126C187.903 937.957 187.996 938.877 188.215 939.839L191.14 939.175ZM220.095 937.324V935.824H218.782L218.609 937.126L220.095 937.324ZM226.172 937.324L227.64 937.015L227.389 935.824H226.172V937.324ZM228.591 940.982L227.709 942.195L227.721 942.204L227.734 942.213L228.591 940.982ZM237.146 941.867L236.612 940.465L236.601 940.47L236.589 940.474L237.146 941.867ZM238.857 940.569L237.596 939.758L237.574 939.791L237.555 939.825L238.857 940.569ZM238.621 936.675L237.561 937.736L237.582 937.757L237.604 937.777L238.621 936.675ZM236.497 935.495L236.972 934.072L236.497 935.495ZM232.957 934.669L232.603 936.126L232.656 936.14L232.711 936.149L232.957 934.669ZM228.65 933.489L229.089 932.054L228.65 933.489ZM224.815 931.896L224.057 933.19L224.074 933.2L224.091 933.209L224.815 931.896ZM222.101 929.418L220.824 930.204L220.842 930.233L220.861 930.261L222.101 929.418ZM222.042 922.102L220.74 921.358L220.736 921.366L220.731 921.374L222.042 922.102ZM224.638 919.329L225.481 920.57L224.638 919.329ZM228.532 917.618L228.914 919.069L228.932 919.064L228.949 919.059L228.532 917.618ZM239.801 918.208L239.143 919.556L239.155 919.562L239.801 918.208ZM243.695 921.689L242.397 922.441L242.405 922.453L242.412 922.466L243.695 921.689ZM245.052 926.822V928.322H246.552V926.822H245.052ZM239.27 926.822L237.799 927.116L238.041 928.322H239.27V926.822ZM237.441 923.4L236.517 924.581L237.441 923.4ZM228.709 927.884L227.727 929.018L227.767 929.052L227.809 929.084L228.709 927.884ZM231.364 929.123L230.92 930.556L231.364 929.123ZM235.376 930.185L235.778 928.74L235.746 928.731L235.714 928.723L235.376 930.185ZM239.388 931.424L238.901 932.843L238.921 932.849L238.941 932.856L239.388 931.424ZM242.751 932.958L241.943 934.221L241.972 934.24L242.002 934.257L242.751 932.958ZM245.17 935.318L246.457 934.546V934.546L245.17 935.318ZM244.58 943.637L243.385 942.731L243.376 942.743L243.367 942.755L244.58 943.637ZM240.45 946.646L240.97 948.053L240.984 948.048L240.997 948.043L240.45 946.646ZM228.06 946.882L227.607 948.312L227.617 948.315L228.06 946.882ZM223.989 944.876L223.068 946.06L223.079 946.068L223.089 946.076L223.989 944.876ZM221.511 942.221L220.239 943.016L221.511 942.221ZM220.272 939.507L218.81 939.839L218.817 939.871L218.825 939.902L220.272 939.507ZM220.095 938.824H226.172V935.824H220.095V938.824ZM224.705 937.633C225.1 939.511 226.127 941.045 227.709 942.195L229.474 939.769C228.459 939.031 227.874 938.126 227.64 937.015L224.705 937.633ZM227.734 942.213C229.364 943.349 231.45 943.839 233.842 943.839V940.839C231.83 940.839 230.414 940.424 229.449 939.751L227.734 942.213ZM233.842 943.839C235.338 943.839 236.66 943.677 237.703 943.26L236.589 940.474C236.06 940.686 235.178 940.839 233.842 940.839V943.839ZM237.68 943.269C238.705 942.879 239.616 942.265 240.16 941.313L237.555 939.825C237.469 939.974 237.24 940.226 236.612 940.465L237.68 943.269ZM240.119 941.38C240.641 940.568 240.888 939.652 240.888 938.681H237.888C237.888 939.126 237.781 939.469 237.596 939.758L240.119 941.38ZM240.888 938.681C240.888 937.506 240.53 936.395 239.639 935.573L237.604 937.777C237.736 937.899 237.888 938.125 237.888 938.681H240.888ZM239.682 935.614C238.984 934.917 238.037 934.427 236.972 934.072L236.023 936.918C236.846 937.192 237.314 937.489 237.561 937.736L239.682 935.614ZM236.972 934.072C235.929 933.724 234.667 933.433 233.204 933.189L232.711 936.149C234.08 936.377 235.178 936.636 236.023 936.918L236.972 934.072ZM233.312 933.211C231.884 932.864 230.477 932.479 229.089 932.054L228.212 934.924C229.656 935.365 231.12 935.766 232.603 936.126L233.312 933.211ZM229.089 932.054C227.759 931.648 226.578 931.156 225.54 930.583L224.091 933.209C225.334 933.895 226.71 934.465 228.212 934.924L229.089 932.054ZM225.574 930.602C224.604 930.033 223.872 929.354 223.342 928.575L220.861 930.261C221.668 931.449 222.746 932.422 224.057 933.19L225.574 930.602ZM223.379 928.632C222.923 927.891 222.657 926.938 222.657 925.701H219.657C219.657 927.375 220.021 928.899 220.824 930.204L223.379 928.632ZM222.657 925.701C222.657 924.592 222.9 923.648 223.354 922.83L220.731 921.374C220.005 922.68 219.657 924.135 219.657 925.701H222.657ZM223.345 922.846C223.855 921.953 224.559 921.196 225.481 920.57L223.796 918.088C222.515 918.957 221.488 920.048 220.74 921.358L223.345 922.846ZM225.481 920.57C226.421 919.932 227.558 919.426 228.914 919.069L228.151 916.167C226.518 916.597 225.059 917.231 223.796 918.088L225.481 920.57ZM228.949 919.059C230.291 918.67 231.781 918.469 233.429 918.469V915.469C231.537 915.469 229.763 915.7 228.115 916.177L228.949 919.059ZM233.429 918.469C235.835 918.469 237.717 918.859 239.143 919.556L240.46 916.86C238.503 915.905 236.137 915.469 233.429 915.469V918.469ZM239.155 919.562C240.644 920.272 241.7 921.236 242.397 922.441L244.993 920.937C243.96 919.152 242.42 917.796 240.447 916.854L239.155 919.562ZM242.412 922.466C243.161 923.702 243.552 925.139 243.552 926.822H246.552C246.552 924.65 246.039 922.665 244.979 920.912L242.412 922.466ZM245.052 925.322H239.27V928.322H245.052V925.322ZM240.741 926.528C240.384 924.742 239.647 923.221 238.366 922.219L236.517 924.581C237.045 924.995 237.527 925.756 237.799 927.116L240.741 926.528ZM238.366 922.219C237.084 921.215 235.334 920.838 233.37 920.838V923.838C235.025 923.838 235.99 924.169 236.517 924.581L238.366 922.219ZM233.37 920.838C231.426 920.838 229.705 921.169 228.408 922.034L230.072 924.53C230.663 924.136 231.696 923.838 233.37 923.838V920.838ZM228.408 922.034C227.062 922.931 226.324 924.257 226.324 925.878H229.324C229.324 925.296 229.531 924.891 230.072 924.53L228.408 922.034ZM226.324 925.878C226.324 927.11 226.787 928.203 227.727 929.018L229.692 926.75C229.452 926.542 229.324 926.298 229.324 925.878H226.324ZM227.809 929.084C228.628 929.698 229.691 930.174 230.92 930.556L231.809 927.69C230.756 927.364 230.049 927.014 229.609 926.684L227.809 929.084ZM230.92 930.556C232.105 930.923 233.48 931.287 235.039 931.647L235.714 928.723C234.205 928.375 232.905 928.031 231.809 927.69L230.92 930.556ZM234.975 931.63C236.365 932.016 237.673 932.421 238.901 932.843L239.876 930.005C238.586 929.562 237.22 929.14 235.778 928.74L234.975 931.63ZM238.941 932.856C240.088 933.214 241.085 933.673 241.943 934.221L243.56 931.695C242.451 930.985 241.206 930.42 239.836 929.992L238.941 932.856ZM242.002 934.257C242.81 934.724 243.429 935.332 243.884 936.09L246.457 934.546C245.731 933.338 244.738 932.372 243.501 931.659L242.002 934.257ZM243.884 936.09C244.301 936.785 244.555 937.72 244.555 938.976H247.555C247.555 937.321 247.219 935.818 246.457 934.546L243.884 936.09ZM244.555 938.976C244.555 940.497 244.149 941.723 243.385 942.731L245.776 944.543C246.979 942.955 247.555 941.074 247.555 938.976H244.555ZM243.367 942.755C242.624 943.776 241.503 944.623 239.904 945.249L240.997 948.043C243.016 947.253 244.648 946.094 245.793 944.519L243.367 942.755ZM239.93 945.239C238.332 945.83 236.335 946.149 233.901 946.149V949.149C236.581 949.149 238.95 948.8 240.97 948.053L239.93 945.239ZM233.901 946.149C231.768 946.149 229.977 945.905 228.504 945.449L227.617 948.315C229.448 948.882 231.551 949.149 233.901 949.149V946.149ZM228.514 945.452C227.026 944.981 225.829 944.381 224.889 943.676L223.089 946.076C224.352 947.023 225.869 947.761 227.607 948.312L228.514 945.452ZM224.91 943.692C223.959 942.952 223.263 942.193 222.783 941.426L220.239 943.016C220.94 944.137 221.896 945.148 223.068 946.06L224.91 943.692ZM222.783 941.426C222.253 940.578 221.909 939.807 221.719 939.112L218.825 939.902C219.108 940.938 219.59 941.976 220.239 943.016L222.783 941.426ZM221.735 939.175C221.56 938.406 221.536 937.871 221.582 937.522L218.609 937.126C218.498 937.957 218.591 938.877 218.81 939.839L221.735 939.175Z" fill="black" mask="url(#path-1-outside-1_263_135)"/>
</g>
<path d="M126.5 87C126.5 86.1716 125.828 85.5 125 85.5C124.172 85.5 123.5 86.1716 123.5 87L126.5 87ZM123.5 94.0625C123.5 94.8909 124.172 95.5625 125 95.5625C125.828 95.5625 126.5 94.8909 126.5 94.0625L123.5 94.0625ZM126.5 108.187C126.5 107.359 125.828 106.687 125 106.688C124.172 106.688 123.5 107.359 123.5 108.188L126.5 108.187ZM123.5 122.313C123.5 123.141 124.172 123.813 125 123.812C125.828 123.812 126.5 123.141 126.5 122.312L123.5 122.313ZM126.5 136.437C126.5 135.609 125.828 134.937 125 134.938C124.172 134.938 123.5 135.609 123.5 136.438L126.5 136.437ZM123.5 150.563C123.5 151.391 124.172 152.063 125 152.062C125.828 152.062 126.5 151.391 126.5 150.562L123.5 150.563ZM126.5 164.687C126.5 163.859 125.828 163.187 125 163.188C124.172 163.188 123.5 163.859 123.5 164.688L126.5 164.687ZM123.5 178.813C123.5 179.641 124.172 180.313 125 180.312C125.828 180.312 126.5 179.641 126.5 178.812L123.5 178.813ZM126.5 192.937C126.5 192.109 125.828 191.437 125 191.438C124.172 191.438 123.5 192.109 123.5 192.938L126.5 192.937ZM123.5 87L123.5 94.0625L126.5 94.0625L126.5 87L123.5 87ZM123.5 108.188L123.5 122.313L126.5 122.312L126.5 108.187L123.5 108.188ZM123.5 136.438L123.5 150.563L126.5 150.562L126.5 136.437L123.5 136.438ZM123.5 164.688L123.5 178.813L126.5 178.812L126.5 164.687L123.5 164.688ZM123.5 192.938L123.5 200L126.5 200L126.5 192.937L123.5 192.938Z" fill="#F14D94"/>
<path d="M126.5 318C126.5 317.172 125.828 316.5 125 316.5C124.172 316.5 123.5 317.172 123.5 318L126.5 318ZM123.5 325.063C123.5 325.891 124.172 326.563 125 326.562C125.828 326.562 126.5 325.891 126.5 325.062L123.5 325.063ZM126.5 339.187C126.5 338.359 125.828 337.687 125 337.688C124.172 337.688 123.5 338.359 123.5 339.188L126.5 339.187ZM123.5 353.313C123.5 354.141 124.172 354.813 125 354.812C125.828 354.812 126.5 354.141 126.5 353.312L123.5 353.313ZM126.5 367.437C126.5 366.609 125.828 365.937 125 365.938C124.172 365.938 123.5 366.609 123.5 367.438L126.5 367.437ZM123.5 381.563C123.5 382.391 124.172 383.063 125 383.062C125.828 383.062 126.5 382.391 126.5 381.562L123.5 381.563ZM126.5 395.687C126.5 394.859 125.828 394.187 125 394.188C124.172 394.188 123.5 394.859 123.5 395.688L126.5 395.687ZM123.5 409.813C123.5 410.641 124.172 411.313 125 411.312C125.828 411.312 126.5 410.641 126.5 409.812L123.5 409.813ZM126.5 423.937C126.5 423.109 125.828 422.437 125 422.438C124.172 422.438 123.5 423.109 123.5 423.938L126.5 423.937ZM123.5 318L123.5 325.063L126.5 325.062L126.5 318L123.5 318ZM123.5 339.188L123.5 353.313L126.5 353.312L126.5 339.187L123.5 339.188ZM123.5 367.438L123.5 381.563L126.5 381.562L126.5 367.437L123.5 367.438ZM123.5 395.688L123.5 409.813L126.5 409.812L126.5 395.687L123.5 395.688ZM123.5 423.938L123.5 431L126.5 431L126.5 423.937L123.5 423.938Z" fill="#F14D94"/>
<path d="M126.5 549C126.5 548.172 125.828 547.5 125 547.5C124.172 547.5 123.5 548.172 123.5 549L126.5 549ZM123.5 556.063C123.5 556.891 124.172 557.563 125 557.562C125.828 557.562 126.5 556.891 126.5 556.062L123.5 556.063ZM126.5 570.187C126.5 569.359 125.828 568.687 125 568.688C124.172 568.688 123.5 569.359 123.5 570.188L126.5 570.187ZM123.5 584.313C123.5 585.141 124.172 585.813 125 585.812C125.828 585.812 126.5 585.141 126.5 584.312L123.5 584.313ZM126.5 598.437C126.5 597.609 125.828 596.937 125 596.938C124.172 596.938 123.5 597.609 123.5 598.438L126.5 598.437ZM123.5 612.563C123.5 613.391 124.172 614.063 125 614.062C125.828 614.062 126.5 613.391 126.5 612.562L123.5 612.563ZM126.5 626.687C126.5 625.859 125.828 625.187 125 625.188C124.172 625.188 123.5 625.859 123.5 626.688L126.5 626.687ZM123.5 640.813C123.5 641.641 124.172 642.313 125 642.312C125.828 642.312 126.5 641.641 126.5 640.812L123.5 640.813ZM126.5 654.937C126.5 654.109 125.828 653.437 125 653.438C124.172 653.438 123.5 654.109 123.5 654.938L126.5 654.937ZM123.5 549L123.5 556.063L126.5 556.062L126.5 549L123.5 549ZM123.5 570.188L123.5 584.313L126.5 584.312L126.5 570.187L123.5 570.188ZM123.5 598.438L123.5 612.563L126.5 612.562L126.5 598.437L123.5 598.438ZM123.5 626.688L123.5 640.813L126.5 640.812L126.5 626.687L123.5 626.688ZM123.5 654.938L123.5 662L126.5 662L126.5 654.937L123.5 654.938Z" fill="#F14D94"/>
<path d="M126.5 780C126.5 779.172 125.828 778.5 125 778.5C124.172 778.5 123.5 779.172 123.5 780L126.5 780ZM123.5 787.063C123.5 787.891 124.172 788.563 125 788.562C125.828 788.562 126.5 787.891 126.5 787.062L123.5 787.063ZM126.5 801.187C126.5 800.359 125.828 799.687 125 799.688C124.172 799.688 123.5 800.359 123.5 801.188L126.5 801.187ZM123.5 815.313C123.5 816.141 124.172 816.813 125 816.812C125.828 816.812 126.5 816.141 126.5 815.312L123.5 815.313ZM126.5 829.437C126.5 828.609 125.828 827.937 125 827.938C124.172 827.938 123.5 828.609 123.5 829.438L126.5 829.437ZM123.5 843.563C123.5 844.391 124.172 845.063 125 845.062C125.828 845.062 126.5 844.391 126.5 843.562L123.5 843.563ZM126.5 857.687C126.5 856.859 125.828 856.187 125 856.188C124.172 856.188 123.5 856.859 123.5 857.688L126.5 857.687ZM123.5 871.813C123.5 872.641 124.172 873.313 125 873.312C125.828 873.312 126.5 872.641 126.5 871.812L123.5 871.813ZM126.5 885.937C126.5 885.109 125.828 884.437 125 884.438C124.172 884.438 123.5 885.109 123.5 885.938L126.5 885.937ZM123.5 780L123.5 787.063L126.5 787.062L126.5 780L123.5 780ZM123.5 801.188L123.5 815.313L126.5 815.312L126.5 801.187L123.5 801.188ZM123.5 829.438L123.5 843.563L126.5 843.562L126.5 829.437L123.5 829.438ZM123.5 857.688L123.5 871.813L126.5 871.812L126.5 857.687L123.5 857.688ZM123.5 885.938L123.5 893L126.5 893L126.5 885.937L123.5 885.938Z" fill="#F14D94"/>
<path d="M106.508 44.219C105.319 43.1386 105.328 42.3111 106.061 41.024C109.399 35.1588 109.398 29.1545 105.815 23.433C102.234 17.716 96.8554 15.1242 90.1016 15.4373C89.8444 15.4493 89.5869 15.4574 89.3295 15.4587C89.2875 15.4589 89.2452 15.4142 89.2663 15.4262C89.2663 12.5477 88.9584 9.66397 89.34 6.87456C89.8837 2.89895 93.4367 0.0387183 97.464 0.0296666C115.148 -0.0105144 132.833 -0.00987862 150.518 0.0315717C152.735 0.03836 154.861 0.919894 156.432 2.48472C158.004 4.04955 158.895 6.17128 158.911 8.38901C158.973 21.08 158.973 33.7712 158.911 46.4625C158.912 47.5634 158.696 48.6537 158.273 49.6704C157.851 50.6872 157.232 51.6103 156.452 52.3867C155.671 53.1631 154.745 53.7774 153.726 54.1941C152.707 54.6108 151.615 54.8217 150.514 54.8147C136.68 54.9289 122.844 54.8533 109.009 54.8486C108.855 54.824 108.705 54.7853 108.558 54.7331C108.436 52.9465 108.261 51.1071 108.225 49.265C108.218 48.9118 108.731 48.5182 109.054 48.1937C113.424 43.8101 117.799 39.4317 122.179 35.0586C122.437 34.8012 122.705 34.5536 122.951 34.2858C124.008 33.1344 124.077 31.7604 123.132 30.8083C122.167 29.8358 120.805 29.8645 119.67 30.98C117.073 33.5321 114.507 36.1153 111.94 38.6973C110.115 40.5323 108.31 42.386 106.508 44.219Z" fill="url(#paint0_linear_263_135)"/>
<path d="M81.4411 64.9849C79.2924 64.6547 78.9478 63.1368 79.0058 61.2161C79.0969 58.2025 79.007 55.184 79.0443 52.1681C79.0674 49.981 79.7143 47.8459 80.909 46.0137C88.9955 50.651 92.6173 50.661 102.239 45.9252C102.744 47.8177 103.53 49.6115 103.647 51.4478C103.877 55.0741 103.726 58.724 103.752 62.3639C103.764 63.982 102.742 64.6405 101.245 65.0324C101.245 68.8605 101.244 72.6929 101.244 76.5294C101.241 79.2693 100.593 79.9149 97.8478 79.9161C93.5314 79.9181 89.215 79.918 84.8986 79.9159C82.2066 79.9143 81.5355 79.2264 81.5323 76.4785C81.528 72.7862 81.5234 69.094 81.5184 65.4017C81.5027 65.2611 81.4769 65.1218 81.4411 64.9849Z" fill="#FEF0FF"/>
<path d="M103.746 32.547C103.725 35.8062 102.416 38.9249 100.105 41.223C97.7937 43.521 94.6675 44.8118 91.4082 44.8138C89.7677 44.8113 88.144 44.4832 86.6312 43.8485C85.1185 43.2138 83.7467 42.2851 82.5955 41.1163C81.4444 39.9475 80.5367 38.5617 79.925 37.0395C79.3134 35.5173 79.01 33.8888 79.0324 32.2484C79.0952 28.9905 80.4334 25.8872 82.7593 23.6052C85.0853 21.3232 88.2135 20.0445 91.472 20.0438C94.7574 20.075 97.896 21.4096 100.198 23.7542C102.499 26.0989 103.775 29.2616 103.746 32.547Z" fill="#FEF0FF"/>
<path d="M153.779 253.078C150.355 250.299 146.483 249.181 142.127 250.182C139.073 250.866 136.389 252.675 134.607 255.248C130.581 260.859 131.622 267.443 137.489 273.214C137.065 273.455 136.672 273.694 136.265 273.906C130.684 276.813 127.177 281.343 125.789 287.466C125.575 288.413 125.241 288.689 124.309 288.682C118.773 288.642 113.236 288.724 107.701 288.641C100.873 288.539 95.1459 283.058 95.0925 276.235C94.9677 260.279 94.9692 244.322 95.097 228.364C95.1538 221.554 100.937 216.083 107.777 216.046C118.903 215.986 130.03 215.985 141.157 216.041C144.488 216.023 147.693 217.309 150.087 219.625C152.481 221.941 153.873 225.103 153.965 228.432C154.184 236.513 154.015 244.605 154.007 252.692C154.007 252.776 153.912 252.859 153.779 253.078ZM124.435 228.983C120.096 228.983 115.757 228.974 111.418 228.987C109.329 228.993 108.171 229.923 108.161 231.546C108.152 233.166 109.35 234.176 111.39 234.178C120.122 234.191 128.855 234.191 137.587 234.179C139.665 234.177 140.815 233.223 140.825 231.578C140.834 229.924 139.708 228.994 137.615 228.988C133.222 228.975 128.828 228.984 124.435 228.983ZM124.401 247.997C128.795 247.997 133.189 247.996 137.582 247.994C139.683 247.99 140.819 247.08 140.825 245.439C140.832 243.789 139.67 242.801 137.621 242.799C128.888 242.787 120.154 242.786 111.421 242.798C109.362 242.8 108.176 243.776 108.162 245.399C108.148 247.034 109.313 247.988 111.382 247.993C115.721 248.004 120.061 247.996 124.401 247.997ZM117.118 256.693C115.06 256.693 113.002 256.667 110.945 256.702C109.253 256.73 108.183 257.735 108.161 259.222C108.14 260.683 109.219 261.843 110.869 261.866C114.983 261.923 119.099 261.929 123.213 261.859C123.568 261.874 123.923 261.813 124.253 261.68C124.583 261.547 124.88 261.345 125.126 261.088C125.372 260.831 125.56 260.524 125.678 260.188C125.796 259.853 125.842 259.496 125.811 259.142C125.754 257.696 124.744 256.736 123.127 256.703C121.125 256.663 119.121 256.694 117.118 256.693Z" fill="url(#paint1_linear_263_135)"/>
<path d="M145.023 294.207C140.847 294.207 136.671 294.215 132.495 294.204C130.084 294.197 129.194 293.243 129.271 290.8C129.534 282.412 136.78 275.582 145.321 275.67C153.775 275.758 160.848 282.681 160.999 291.016C161.039 293.226 160.112 294.194 157.877 294.202C153.592 294.217 149.308 294.207 145.023 294.207Z" fill="white"/>
<path d="M145.048 253.746C146.23 253.728 147.405 253.945 148.502 254.386C149.6 254.826 150.599 255.481 151.441 256.312C152.283 257.142 152.951 258.132 153.406 259.223C153.862 260.315 154.095 261.486 154.093 262.669C154.11 265.047 153.182 267.334 151.513 269.028C149.845 270.722 147.572 271.685 145.194 271.704C142.816 271.723 140.527 270.797 138.832 269.13C137.136 267.463 136.171 265.191 136.15 262.813C136.128 261.63 136.342 260.455 136.779 259.356C137.216 258.257 137.868 257.256 138.696 256.412C139.525 255.568 140.513 254.897 141.604 254.44C142.694 253.982 143.865 253.746 145.048 253.746Z" fill="white"/>
<path d="M108.692 453.008C111.88 453.009 115.07 452.986 118.258 453.015C121.883 453.048 124.218 455.389 124.233 459.038C124.259 465.419 124.259 471.799 124.234 478.18C124.219 481.919 121.883 484.235 118.123 484.247C111.805 484.268 105.486 484.268 99.1667 484.248C95.316 484.236 93.0221 481.92 93.0122 478.044C92.9961 471.782 92.9959 465.52 93.0117 459.258C93.0208 455.285 95.3046 453.026 99.3019 453.011C102.432 452.998 105.562 453.008 108.692 453.008Z" fill="url(#paint2_linear_263_135)"/>
<path d="M148.434 453.008C151.623 453.009 154.812 452.986 158.001 453.015C161.625 453.048 163.96 455.389 163.975 459.038C164.001 465.419 164.002 471.799 163.976 478.18C163.962 481.919 161.625 484.235 157.865 484.247C151.547 484.268 145.228 484.268 138.909 484.248C135.058 484.236 132.764 481.92 132.754 478.044C132.738 471.782 132.738 465.52 132.754 459.258C132.763 455.285 135.047 453.026 139.044 453.011C142.174 452.998 145.304 453.008 148.434 453.008Z" fill="url(#paint3_linear_263_135)"/>
<path d="M93.008 508.297C93.008 505.166 92.9926 502.035 93.0119 498.904C93.035 495.136 95.3349 492.786 99.0583 492.773C105.436 492.749 111.814 492.749 118.192 492.773C121.849 492.786 124.214 495.109 124.231 498.73C124.262 505.169 124.262 511.608 124.231 518.048C124.214 521.666 121.846 523.99 118.189 524.004C111.811 524.028 105.433 524.028 99.0552 524.003C95.3336 523.989 93.0356 521.637 93.0121 517.868C92.992 514.677 93.008 511.487 93.008 508.297Z" fill="url(#paint4_linear_263_135)"/>
<path d="M148.472 492.768C152.596 492.799 156.541 494.46 159.446 497.388C162.351 500.316 163.98 504.274 163.98 508.398C163.977 510.456 163.567 512.493 162.775 514.392C161.983 516.291 160.823 518.015 159.363 519.465C157.903 520.915 156.171 522.062 154.266 522.841C152.362 523.62 150.322 524.015 148.265 524.004C144.14 523.972 140.195 522.311 137.289 519.383C134.384 516.455 132.753 512.497 132.753 508.372C132.757 506.314 133.167 504.277 133.96 502.378C134.752 500.479 135.912 498.755 137.372 497.306C138.833 495.856 140.565 494.709 142.47 493.93C144.374 493.151 146.414 492.756 148.472 492.768Z" fill="white"/>
<path d="M150.782 707.49C148.368 689.85 133.865 681.83 121.174 683.21C114.523 683.906 108.371 687.058 103.922 692.049C99.4722 697.041 97.0454 703.514 97.1159 710.2C97.2173 723.609 107.751 735.267 120.836 736.613C134.995 738.07 148.618 728.882 150.715 712.599C153.776 711.937 156.661 712.023 158.824 714.745C159.164 715.243 159.305 715.85 159.221 716.447C156.815 731.606 143.722 743.992 128.459 745.595C108.679 747.671 91.7153 734.973 88.492 715.677C84.7879 693.503 102.494 673.287 124.976 674.019C141.858 674.57 156.099 686.505 159.097 702.616C159.448 704.501 157.304 707.352 155.353 707.472C153.881 707.562 152.397 707.49 150.782 707.49Z" fill="url(#paint5_linear_263_135)"/>
<path d="M145.518 707.599C142.782 707.599 140.037 707.711 137.315 707.511C136.715 707.467 135.97 706.404 135.678 705.658C133.722 700.678 128.964 697.362 123.775 697.494C121.195 697.555 118.698 698.415 116.627 699.954C114.555 701.494 113.013 703.638 112.211 706.091C111.212 709.124 111.43 712.427 112.819 715.303C114.207 718.179 116.657 720.404 119.654 721.509C125.997 723.868 133.018 720.868 135.417 714.558C136.067 712.847 136.876 712.323 138.597 712.43C140.878 712.572 143.174 712.465 145.46 712.465C145.423 720.876 137.262 731.645 124.461 731.872C112.212 732.089 102.097 722.374 101.998 710.201C101.956 707.261 102.507 704.342 103.616 701.618C104.726 698.895 106.372 696.422 108.456 694.348C110.541 692.274 113.022 690.64 115.751 689.544C118.48 688.448 121.402 687.913 124.342 687.97C137.052 688.088 145.374 698.719 145.518 707.599Z" fill="url(#paint6_linear_263_135)"/>
<path d="M130.961 707.652C128.609 707.652 126.461 707.66 124.314 707.65C122.572 707.642 121.314 708.369 121.382 710.209C121.445 711.912 122.683 712.557 124.327 712.532C126.454 712.501 128.581 712.525 130.777 712.525C129.553 716.025 126.364 717.918 122.866 717.392C121.089 717.104 119.471 716.199 118.296 714.834C117.121 713.47 116.465 711.735 116.445 709.934C116.449 708.133 117.095 706.391 118.269 705.024C119.442 703.656 121.064 702.752 122.845 702.474C126.324 701.851 129.536 703.792 130.961 707.652Z" fill="url(#paint7_linear_263_135)"/>
<path d="M160.612 710.106C160.944 709.679 161.043 709.411 161.2 709.371C165.929 708.15 170.656 706.915 175.406 705.776C176.485 705.517 179.201 709.051 178.933 710.201C178.821 710.795 178.585 711.359 178.241 711.855C177.897 712.352 177.453 712.771 176.937 713.085C176.42 713.399 175.844 713.601 175.245 713.678C174.645 713.755 174.037 713.705 173.458 713.532C169.794 712.616 166.126 711.714 162.466 710.784C161.882 710.635 161.326 710.371 160.612 710.106Z" fill="white"/>
<path d="M106.868 747.23L110.615 748.343C109.976 749.575 109.364 750.781 108.725 751.98C107.847 753.625 106.958 755.266 106.056 756.904C105.569 757.785 104.658 758.208 103.374 757.899C102.036 757.576 101.75 756.77 102.195 755.914C103.687 753.044 105.264 750.196 106.868 747.23Z" fill="white"/>
<path d="M143.439 747.23L139.692 748.343C140.332 749.575 140.944 750.781 141.583 751.98C142.46 753.625 143.349 755.266 144.251 756.904C144.739 757.785 145.65 758.208 146.933 757.899C148.271 757.576 148.558 756.77 148.113 755.914C146.62 753.044 145.043 750.196 143.439 747.23Z" fill="white"/>
<path d="M183.772 712.266V707.522C185.975 707.522 188.277 707.314 190.505 707.633C191.303 707.747 192.489 709.154 192.461 709.934C192.433 710.735 191.218 712.036 190.381 712.16C188.224 712.478 185.988 712.266 183.772 712.266Z" fill="white"/>
<defs>
<filter id="filter0_d_263_135" x="1.88818" y="908.06" width="245.667" height="41.207" filterUnits="userSpaceOnUse" color-interpolation-filters="sRGB">
<feFlood flood-opacity="0" result="BackgroundImageFix"/>
<feColorMatrix in="SourceAlpha" type="matrix" values="0 0 0 0 0 0 0 0 0 0 0 0 0 0 0 0 0 0 127 0" result="hardAlpha"/>
<feOffset dx="1" dy="1"/>
<feGaussianBlur stdDeviation="0.25"/>
<feComposite in2="hardAlpha" operator="out"/>
<feColorMatrix type="matrix" values="0 0 0 0 1 0 0 0 0 1 0 0 0 0 1 0 0 0 1 0"/>
<feBlend mode="normal" in2="BackgroundImageFix" result="effect1_dropShadow_263_135"/>
<feBlend mode="normal" in="SourceGraphic" in2="effect1_dropShadow_263_135" result="shape"/>
</filter>
<linearGradient id="paint0_linear_263_135" x1="93.5" y1="55" x2="154" y2="9" gradientUnits="userSpaceOnUse">
<stop offset="0.358115" stop-color="#F5478E"/>
<stop offset="1" stop-color="#B347F5"/>
</linearGradient>
<linearGradient id="paint1_linear_263_135" x1="91.5" y1="300.5" x2="162.5" y2="216" gradientUnits="userSpaceOnUse">
<stop offset="0.230287" stop-color="#F5478E"/>
<stop offset="1" stop-color="#B347F5"/>
</linearGradient>
<linearGradient id="paint2_linear_263_135" x1="89.9185" y1="485.134" x2="124.914" y2="454.099" gradientUnits="userSpaceOnUse">
<stop offset="0.194196" stop-color="#F5478E"/>
<stop offset="1" stop-color="#B347F5"/>
</linearGradient>
<linearGradient id="paint3_linear_263_135" x1="129.661" y1="485.134" x2="164.656" y2="454.099" gradientUnits="userSpaceOnUse">
<stop offset="0.194196" stop-color="#F5478E"/>
<stop offset="1" stop-color="#B347F5"/>
</linearGradient>
<linearGradient id="paint4_linear_263_135" x1="89.9205" y1="524.893" x2="124.92" y2="493.858" gradientUnits="userSpaceOnUse">
<stop offset="0.194196" stop-color="#F5478E"/>
<stop offset="1" stop-color="#B347F5"/>
</linearGradient>
<linearGradient id="paint5_linear_263_135" x1="93.5" y1="748.5" x2="163.5" y2="676.5" gradientUnits="userSpaceOnUse">
<stop offset="0.123065" stop-color="#F5478E"/>
<stop offset="1" stop-color="#B347F5"/>
</linearGradient>
<linearGradient id="paint6_linear_263_135" x1="105.356" y1="733.516" x2="148.156" y2="689.532" gradientUnits="userSpaceOnUse">
<stop offset="0.123065" stop-color="#F5478E"/>
<stop offset="1" stop-color="#B347F5"/>
</linearGradient>
<linearGradient id="paint7_linear_263_135" x1="117.565" y1="718.044" x2="132.308" y2="703.369" gradientUnits="userSpaceOnUse">
<stop offset="0.123065" stop-color="#F5478E"/>
<stop offset="1" stop-color="#B347F5"/>
</linearGradient>
</defs>
</svg>
