<svg width="1440" height="343" viewBox="0 0 1440 343" fill="none" xmlns="http://www.w3.org/2000/svg">
<g opacity="0.17">
<line x1="679.5" y1="150" x2="679.5" y2="342" stroke="#2F2C34"/>
<line x1="-2" y1="187.938" x2="719" y2="187.938" stroke="#2F2C34"/>
<line x1="719.5" y1="150" x2="719.5" y2="342" stroke="#2F2C34"/>
<line x1="-2" y1="149.5" x2="719" y2="149.5" stroke="#2F2C34"/>
<line x1="679.5" y1="150" x2="679.5" y2="342" stroke="#2F2C34"/>
<line x1="-2" y1="187.938" x2="719" y2="187.938" stroke="#2F2C34"/>
<line x1="639.5" y1="150" x2="639.5" y2="342" stroke="#2F2C34"/>
<line x1="-2" y1="226.375" x2="719" y2="226.375" stroke="#2F2C34"/>
<line x1="599.5" y1="150" x2="599.5" y2="342" stroke="#2F2C34"/>
<line x1="-2" y1="264.813" x2="719" y2="264.813" stroke="#2F2C34"/>
<line x1="559.5" y1="150" x2="559.5" y2="342" stroke="#2F2C34"/>
<line x1="-2" y1="303.251" x2="719" y2="303.251" stroke="#2F2C34"/>
<line x1="519.5" y1="150" x2="519.5" y2="342" stroke="#2F2C34"/>
<line x1="-2" y1="341.689" x2="719" y2="341.689" stroke="#2F2C34"/>
<line x1="479.5" y1="150" x2="479.5" y2="342" stroke="#2F2C34"/>
<line x1="439.5" y1="150" x2="439.5" y2="342" stroke="#2F2C34"/>
<line x1="399.5" y1="150" x2="399.5" y2="342" stroke="#2F2C34"/>
<line x1="358.5" y1="150" x2="358.5" y2="342" stroke="#2F2C34"/>
<line x1="318.5" y1="150" x2="318.5" y2="342" stroke="#2F2C34"/>
<line x1="278.5" y1="150" x2="278.5" y2="342" stroke="#2F2C34"/>
<line x1="238.5" y1="150" x2="238.5" y2="342" stroke="#2F2C34"/>
<line x1="198.5" y1="150" x2="198.5" y2="342" stroke="#2F2C34"/>
<line x1="158.5" y1="150" x2="158.5" y2="342" stroke="#2F2C34"/>
<line x1="118.5" y1="150" x2="118.5" y2="342" stroke="#2F2C34"/>
<line x1="78.5" y1="150" x2="78.5" y2="342" stroke="#2F2C34"/>
<line x1="38.5" y1="150" x2="38.5" y2="342" stroke="#2F2C34"/>
</g>
<g opacity="0.17">
<line x1="1400.45" y1="2.0973e-08" x2="1400.45" y2="341.088" stroke="#2F2C34"/>
<line x1="719" y1="187.938" x2="1440" y2="187.938" stroke="#2F2C34"/>
<line x1="719" y1="149.5" x2="1440" y2="149.5" stroke="#2F2C34"/>
<line x1="1400.5" y1="150" x2="1400.5" y2="341" stroke="#2F2C34"/>
<line x1="719" y1="187.938" x2="1440" y2="187.938" stroke="#2F2C34"/>
<line x1="1360.5" y1="150" x2="1360.5" y2="341" stroke="#2F2C34"/>
<line x1="719" y1="226.375" x2="1440" y2="226.375" stroke="#2F2C34"/>
<line x1="1320.5" y1="150" x2="1320.5" y2="341" stroke="#2F2C34"/>
<line x1="719" y1="264.813" x2="1440" y2="264.813" stroke="#2F2C34"/>
<line x1="1280.5" y1="150" x2="1280.5" y2="341" stroke="#2F2C34"/>
<line x1="719" y1="303.251" x2="1440" y2="303.251" stroke="#2F2C34"/>
<line x1="1240.5" y1="150" x2="1240.5" y2="341" stroke="#2F2C34"/>
<line x1="719" y1="341.689" x2="1440" y2="341.689" stroke="#2F2C34"/>
<line x1="1200.5" y1="150" x2="1200.5" y2="341" stroke="#2F2C34"/>
<line x1="1160.5" y1="150" x2="1160.5" y2="341" stroke="#2F2C34"/>
<line x1="1120.5" y1="150" x2="1120.5" y2="341" stroke="#2F2C34"/>
<line x1="1080.5" y1="150" x2="1080.5" y2="341" stroke="#2F2C34"/>
<line x1="1039.5" y1="150" x2="1039.5" y2="341" stroke="#2F2C34"/>
<line x1="999.5" y1="150" x2="999.5" y2="341" stroke="#2F2C34"/>
<line x1="959.5" y1="150" x2="959.5" y2="341" stroke="#2F2C34"/>
<line x1="919.5" y1="150" x2="919.5" y2="341" stroke="#2F2C34"/>
<line x1="879.5" y1="150" x2="879.5" y2="341" stroke="#2F2C34"/>
<line x1="839.5" y1="150" x2="839.5" y2="341" stroke="#2F2C34"/>
<line x1="799.5" y1="150" x2="799.5" y2="341" stroke="#2F2C34"/>
<line x1="759.5" y1="150" x2="759.5" y2="341" stroke="#2F2C34"/>
</g>
</svg>
