<svg width="1440" height="194" viewBox="0 0 1440 194" fill="none" xmlns="http://www.w3.org/2000/svg">
<g opacity="0.17">
<line x1="679.5" y1="1" x2="679.5" y2="193" stroke="#2F2C34"/>
<line x1="-2" y1="38.9377" x2="719" y2="38.9377" stroke="#2F2C34"/>
<line x1="719.5" y1="1" x2="719.5" y2="193" stroke="#2F2C34"/>
<line x1="-2" y1="0.5" x2="719" y2="0.5" stroke="#2F2C34"/>
<line x1="679.5" y1="1" x2="679.5" y2="193" stroke="#2F2C34"/>
<line x1="-2" y1="38.9377" x2="719" y2="38.9377" stroke="#2F2C34"/>
<line x1="639.5" y1="1" x2="639.5" y2="193" stroke="#2F2C34"/>
<line x1="-2" y1="77.3755" x2="719" y2="77.3755" stroke="#2F2C34"/>
<line x1="599.5" y1="1" x2="599.5" y2="193" stroke="#2F2C34"/>
<line x1="-2" y1="115.813" x2="719" y2="115.813" stroke="#2F2C34"/>
<line x1="559.5" y1="1" x2="559.5" y2="193" stroke="#2F2C34"/>
<line x1="-2" y1="154.251" x2="719" y2="154.251" stroke="#2F2C34"/>
<line x1="519.5" y1="1" x2="519.5" y2="193" stroke="#2F2C34"/>
<line x1="-2" y1="192.689" x2="719" y2="192.689" stroke="#2F2C34"/>
<line x1="479.5" y1="1" x2="479.5" y2="193" stroke="#2F2C34"/>
<line x1="439.5" y1="1" x2="439.5" y2="193" stroke="#2F2C34"/>
<line x1="399.5" y1="1" x2="399.5" y2="193" stroke="#2F2C34"/>
<line x1="358.5" y1="1" x2="358.5" y2="193" stroke="#2F2C34"/>
<line x1="318.5" y1="1" x2="318.5" y2="193" stroke="#2F2C34"/>
<line x1="278.5" y1="1" x2="278.5" y2="193" stroke="#2F2C34"/>
<line x1="238.5" y1="1" x2="238.5" y2="193" stroke="#2F2C34"/>
<line x1="198.5" y1="1" x2="198.5" y2="193" stroke="#2F2C34"/>
<line x1="158.5" y1="1" x2="158.5" y2="193" stroke="#2F2C34"/>
<line x1="118.5" y1="1" x2="118.5" y2="193" stroke="#2F2C34"/>
<line x1="78.5" y1="1" x2="78.5" y2="193" stroke="#2F2C34"/>
<line x1="38.5" y1="1" x2="38.5" y2="193" stroke="#2F2C34"/>
</g>
<g opacity="0.17">
<line x1="1400.5" y1="1.00014" x2="1400.45" y2="192.089" stroke="#2F2C34"/>
<line x1="719" y1="38.9377" x2="1440" y2="38.9377" stroke="#2F2C34"/>
<line x1="719" y1="0.5" x2="1440" y2="0.5" stroke="#2F2C34"/>
<line x1="1400.5" y1="1" x2="1400.5" y2="192" stroke="#2F2C34"/>
<line x1="719" y1="38.9377" x2="1440" y2="38.9377" stroke="#2F2C34"/>
<line x1="1360.5" y1="1" x2="1360.5" y2="192" stroke="#2F2C34"/>
<line x1="719" y1="77.3755" x2="1440" y2="77.3755" stroke="#2F2C34"/>
<line x1="1320.5" y1="1" x2="1320.5" y2="192" stroke="#2F2C34"/>
<line x1="719" y1="115.813" x2="1440" y2="115.813" stroke="#2F2C34"/>
<line x1="1280.5" y1="1" x2="1280.5" y2="192" stroke="#2F2C34"/>
<line x1="719" y1="154.251" x2="1440" y2="154.251" stroke="#2F2C34"/>
<line x1="1240.5" y1="1" x2="1240.5" y2="192" stroke="#2F2C34"/>
<line x1="719" y1="192.689" x2="1440" y2="192.689" stroke="#2F2C34"/>
<line x1="1200.5" y1="1" x2="1200.5" y2="192" stroke="#2F2C34"/>
<line x1="1160.5" y1="1" x2="1160.5" y2="192" stroke="#2F2C34"/>
<line x1="1120.5" y1="1" x2="1120.5" y2="192" stroke="#2F2C34"/>
<line x1="1080.5" y1="1" x2="1080.5" y2="192" stroke="#2F2C34"/>
<line x1="1039.5" y1="1" x2="1039.5" y2="192" stroke="#2F2C34"/>
<line x1="999.5" y1="1" x2="999.5" y2="192" stroke="#2F2C34"/>
<line x1="959.5" y1="1" x2="959.5" y2="192" stroke="#2F2C34"/>
<line x1="919.5" y1="1" x2="919.5" y2="192" stroke="#2F2C34"/>
<line x1="879.5" y1="1" x2="879.5" y2="192" stroke="#2F2C34"/>
<line x1="839.5" y1="1" x2="839.5" y2="192" stroke="#2F2C34"/>
<line x1="799.5" y1="1" x2="799.5" y2="192" stroke="#2F2C34"/>
<line x1="759.5" y1="1" x2="759.5" y2="192" stroke="#2F2C34"/>
</g>
</svg>
