<svg width="274" height="55" viewBox="0 0 274 55" fill="none" xmlns="http://www.w3.org/2000/svg">
<g clip-path="url(#clip0_1131_330)">
<path d="M62.1167 54.7621V48.0854H69.78C72.0166 47.894 73.3168 46.5968 73.5847 44.3328L73.5883 44.3009V31.5579C73.5885 31.412 73.6405 31.2708 73.735 31.1597L73.7728 31.1156L73.8002 31.0647C74.273 30.1304 74.9619 29.3227 75.8094 28.7092L75.8664 28.6697L75.911 28.6173C76.0941 28.4004 76.1895 28.1226 76.1784 27.8387C76.1673 27.5549 76.0504 27.2854 75.8508 27.0836L75.8275 27.0603L75.8021 27.04C75.0481 26.4913 74.3837 25.8286 73.8329 25.0754L73.8039 25.0323L73.7671 24.9955C73.7103 24.9388 73.6652 24.8713 73.6345 24.7971C73.6038 24.7229 73.5881 24.6433 73.5883 24.563V9.73092C73.5639 7.18965 72.2176 5.84172 69.696 5.82822H62.1167V0.00244141H71.4584C76.1426 0.447854 78.7295 3.0469 79.316 7.94644V23.1451C79.3166 23.7254 79.5469 24.2817 79.9564 24.692C80.3659 25.1024 80.9212 25.3333 81.5004 25.334H85.403V30.3687H81.5004C80.9212 30.3694 80.3659 30.6002 79.9564 31.0106C79.5469 31.4209 79.3166 31.9773 79.316 32.5575V44.9733C79.3928 50.943 76.6473 54.1432 70.9222 54.7621L62.1167 54.7621Z" fill="url(#paint0_linear_1131_330)"/>
<path d="M14.4808 54.7621C8.75563 54.1432 6.0102 50.943 6.08688 44.9798V32.5576C6.08631 31.9773 5.85605 31.421 5.44656 31.0106C5.03708 30.6002 4.4818 30.3694 3.90263 30.3687H0V25.334H3.90263C4.4818 25.3333 5.03708 25.1024 5.44656 24.6921C5.85605 24.2817 6.08631 23.7254 6.08688 23.1451V7.94662C6.6735 3.04708 9.26038 0.448018 13.9942 0L23.2863 0.00261215V5.82839H15.71C13.1853 5.84189 11.8391 7.1894 11.8147 9.72588V24.5632C11.8149 24.6435 11.7991 24.7231 11.7684 24.7974C11.7378 24.8716 11.6927 24.939 11.6359 24.9957L11.5991 25.0325L11.5701 25.0757C11.0193 25.8288 10.3549 26.4916 9.60085 27.0403L9.57552 27.0605L9.55214 27.0838C9.35256 27.2857 9.23569 27.5551 9.22456 27.839C9.21344 28.1229 9.30886 28.4006 9.49202 28.6175L9.53659 28.67L9.59359 28.7094C10.4411 29.323 11.13 30.1306 11.6028 31.065L11.6302 31.1158L11.668 31.16C11.7625 31.2711 11.8145 31.4122 11.8147 31.5582V44.3011L11.8183 44.333C12.0862 46.5972 13.3864 47.894 15.5773 48.0836L23.2863 48.0857V54.7624L14.4808 54.7621Z" fill="url(#paint1_linear_1131_330)"/>
<path d="M39.2778 21.4852C39.2778 23.6324 38.4264 25.6916 36.911 27.2099C35.3956 28.7282 33.3402 29.5812 31.1971 29.5812C29.0539 29.5812 26.9986 28.7282 25.4831 27.2099C23.9677 25.6917 23.1163 23.6324 23.1162 21.4852C23.1162 21.4707 23.1163 21.4569 23.1171 21.4424H39.277C39.2778 21.4569 39.2778 21.4707 39.2778 21.4852Z" fill="#2B1351"/>
<path d="M61.2739 21.4852C61.2739 23.6324 60.4225 25.6917 58.9071 27.2099C57.3916 28.7282 55.3363 29.5812 53.1932 29.5812C51.05 29.5812 48.9947 28.7282 47.4792 27.2099C45.9638 25.6917 45.1123 23.6324 45.1123 21.4852C45.1123 21.4707 45.1123 21.4569 45.1132 21.4424H61.2731C61.2739 21.4569 61.2739 21.4707 61.2739 21.4852Z" fill="#2B1351"/>
</g>
<g clip-path="url(#clip1_1131_330)">
<path d="M140.487 54.7621C138.819 54.7622 137.189 54.2622 135.802 53.3255C134.415 52.3887 133.334 51.0573 132.696 49.4996C132.057 47.9419 131.89 46.2279 132.216 44.5742C132.541 42.9205 133.344 41.4015 134.524 40.2093C135.703 39.0171 137.206 38.2052 138.842 37.8762C140.478 37.5473 142.173 37.7161 143.714 38.3613C145.255 39.0065 146.573 40.0992 147.499 41.5011C148.426 42.903 148.921 44.5512 148.921 46.2373C148.918 48.4974 148.029 50.6643 146.448 52.2624C144.867 53.8606 142.723 54.7596 140.487 54.7621ZM140.487 41.7354C139.606 41.7354 138.745 41.9994 138.013 42.4941C137.28 42.9888 136.71 43.6919 136.373 44.5145C136.035 45.3371 135.947 46.2423 136.119 47.1156C136.291 47.9889 136.715 48.791 137.338 49.4206C137.961 50.0503 138.754 50.479 139.618 50.6527C140.482 50.8264 141.378 50.7373 142.191 50.3965C143.005 50.0558 143.701 49.4788 144.19 48.7384C144.68 47.9981 144.941 47.1277 144.941 46.2373C144.939 45.0437 144.47 43.8994 143.635 43.0555C142.8 42.2115 141.668 41.7368 140.487 41.7354Z" fill="#2B1351"/>
<path d="M128.457 46.994C127.626 48.3102 126.399 49.3216 124.956 49.8789C123.513 50.4362 121.931 50.51 120.444 50.0892C118.956 49.6685 117.642 48.7756 116.695 47.5422C115.748 46.3089 115.218 44.8004 115.184 43.2395C115.149 41.6785 115.612 40.1478 116.504 38.8731C117.396 37.5984 118.67 36.6473 120.137 36.1602C121.605 35.673 123.189 35.6757 124.654 36.1676C126.12 36.6596 127.391 37.6149 128.279 38.8925L131.891 36.4289C130.482 34.37 128.456 32.8231 126.111 32.016C123.767 31.2089 121.228 31.1842 118.868 31.9458C116.509 32.7073 114.454 34.2147 113.006 36.2459C111.558 38.2771 110.794 40.7247 110.826 43.2281C110.858 45.7315 111.684 48.1583 113.184 50.151C114.683 52.1437 116.776 53.5969 119.154 54.2966C121.532 54.9962 124.069 54.9053 126.393 54.0372C128.716 53.1691 130.701 51.5698 132.057 49.4748L128.457 46.994Z" fill="#2B1351"/>
<path d="M215.629 37.5209V38.8848C214.348 38.1248 212.891 37.7204 211.406 37.7124C209.92 37.7045 208.459 38.0932 207.17 38.8394C205.881 39.5856 204.81 40.6627 204.065 41.9617C203.32 43.2607 202.928 44.7356 202.928 46.2372C202.928 47.7387 203.32 49.2136 204.065 50.5127C204.81 51.8117 205.881 52.8888 207.17 53.635C208.459 54.3811 209.92 54.7699 211.406 54.7619C212.891 54.754 214.348 54.3495 215.629 53.5896V54.762H219.799V37.5208L215.629 37.5209ZM211.365 50.7392C210.428 50.7398 209.515 50.4417 208.755 49.8874C207.995 49.3331 207.427 48.5507 207.132 47.6515C206.838 46.7523 206.831 45.782 207.113 44.8787C207.395 43.9753 207.952 43.1848 208.704 42.6196C209.456 42.0543 210.365 41.7432 211.302 41.7302C212.239 41.7173 213.156 42.0033 213.923 42.5476C214.69 43.0919 215.268 43.8667 215.574 44.7619C215.88 45.6572 215.9 46.6273 215.629 47.5343C215.353 48.4603 214.789 49.2719 214.021 49.8491C213.253 50.4262 212.322 50.7383 211.365 50.7392Z" fill="#2B1351"/>
<path d="M265.377 54.7621C263.709 54.7621 262.079 54.2622 260.692 53.3255C259.305 52.3887 258.224 51.0573 257.586 49.4996C256.947 47.9419 256.781 46.2278 257.106 44.5742C257.431 42.9205 258.235 41.4015 259.414 40.2093C260.593 39.017 262.096 38.2051 263.732 37.8762C265.368 37.5473 267.064 37.7161 268.605 38.3613C270.146 39.0065 271.463 40.0992 272.389 41.5011C273.316 42.903 273.811 44.5512 273.811 46.2373C273.808 48.4974 272.919 50.6642 271.338 52.2624C269.757 53.8606 267.613 54.7596 265.377 54.7621ZM265.377 41.7354C264.496 41.7354 263.635 41.9994 262.903 42.4941C262.171 42.9888 261.6 43.6919 261.263 44.5145C260.926 45.3371 260.837 46.2423 261.009 47.1156C261.181 47.9889 261.605 48.7911 262.228 49.4207C262.851 50.0503 263.645 50.479 264.508 50.6527C265.372 50.8264 266.268 50.7373 267.082 50.3965C267.895 50.0558 268.591 49.4787 269.08 48.7384C269.57 47.9981 269.831 47.1277 269.831 46.2373C269.83 45.0437 269.36 43.8994 268.525 43.0555C267.69 42.2115 266.558 41.7368 265.377 41.7354Z" fill="#2B1351"/>
<path d="M174.884 43.1914V54.7622H170.525V44.8178C170.114 43.4979 169.305 42.5631 167.777 42.5018C166.557 42.5401 165.797 42.9903 165.384 43.7489C165.188 44.1306 165.068 44.5469 165.029 44.9748V54.7621H160.67V49.5744C160.708 49.5323 160.746 49.4882 160.78 49.4423C160.74 49.3272 160.704 49.2104 160.67 49.0936V44.6262C160.63 44.5036 160.587 44.3828 160.538 44.268V44.266C160.346 43.694 159.981 43.1974 159.494 42.8463C159.008 42.4953 158.425 42.3077 157.827 42.3099C155.985 42.3655 155.159 43.2946 154.985 44.783V54.7619H150.626V37.3293H154.985V38.4653C156.808 37.7169 158.847 37.7169 160.67 38.4653C161.516 38.8154 162.295 39.3113 162.973 39.9308C163.575 39.3495 164.271 38.8747 165.029 38.5266C165.89 38.131 166.823 37.9193 167.768 37.9048C168.714 37.8903 169.652 38.0733 170.525 38.4423C171.534 38.8901 172.442 39.5427 173.192 40.3596C173.942 41.1765 174.518 42.1403 174.884 43.1914Z" fill="#2B1351"/>
<path d="M160.78 49.4422C160.746 49.4882 160.708 49.5322 160.67 49.5744V49.0935C160.704 49.2104 160.74 49.3272 160.78 49.4422Z" fill="#2B1351"/>
<path d="M201.606 43.1914V54.7622H197.247V44.8178C196.836 43.4979 196.026 42.5631 194.499 42.5018C193.278 42.5401 192.519 42.9903 192.105 43.7489C191.91 44.1306 191.79 44.5469 191.751 44.9748V54.7621H187.392V49.5744C187.43 49.5323 187.468 49.4882 187.502 49.4423C187.462 49.3272 187.426 49.2104 187.392 49.0936V44.6262C187.352 44.5036 187.309 44.3828 187.259 44.268V44.266C187.067 43.694 186.702 43.1974 186.216 42.8464C185.73 42.4954 185.147 42.3077 184.549 42.3099C182.707 42.3655 181.881 43.2946 181.706 44.783V54.7619H177.348V37.3293H181.706V38.4653C183.529 37.7169 185.569 37.7169 187.392 38.4653C188.238 38.8154 189.017 39.3113 189.694 39.9308C190.297 39.3495 190.992 38.8748 191.751 38.5266C192.612 38.131 193.544 37.9193 194.49 37.9048C195.436 37.8903 196.374 38.0733 197.247 38.4423C198.256 38.8901 199.164 39.5427 199.914 40.3596C200.664 41.1765 201.239 42.1403 201.606 43.1914Z" fill="#2B1351"/>
<path d="M187.502 49.4422C187.468 49.4882 187.43 49.5322 187.392 49.5744V49.0935C187.426 49.2104 187.462 49.3272 187.502 49.4422Z" fill="#2B1351"/>
<path d="M215.819 53.4651C215.819 53.9044 215.755 54.3414 215.629 54.7618V52.168C215.755 52.5886 215.819 53.0256 215.819 53.4651Z" fill="#2B1351"/>
<path d="M237.045 44.5342V54.7621H232.686V44.0055C232.42 43.4097 231.996 42.9 231.46 42.5331C230.925 42.1662 230.3 41.9564 229.654 41.9269C228.244 41.9269 227.021 42.9442 226.432 44.423V54.762H222.073V36.9463H226.432V38.7125C227.393 38.1983 228.461 37.9216 229.548 37.9049C230.635 37.8883 231.71 38.1322 232.686 38.6168C233.811 39.2022 234.788 40.0397 235.543 41.0653C236.299 42.0908 236.812 43.2773 237.045 44.5342Z" fill="#2B1351"/>
<path d="M250.879 30.2681V38.6741C249.257 37.823 247.405 37.5277 245.602 37.8329C243.8 38.1381 242.144 39.0272 240.884 40.3663C239.625 41.7053 238.83 43.4218 238.62 45.2572C238.409 47.0926 238.794 48.9474 239.717 50.5423C240.64 52.1371 242.051 53.3857 243.736 54.0998C245.422 54.8139 247.292 54.955 249.064 54.5017C250.836 54.0484 252.414 53.0252 253.561 51.5865C254.708 50.1477 255.361 48.3712 255.422 46.5246C255.426 46.4289 255.428 46.3331 255.428 46.2373V31.6032L250.879 30.2681ZM251.439 46.5246C251.362 47.6961 250.834 48.7904 249.967 49.5714C249.1 50.3525 247.964 50.7577 246.804 50.6996C245.644 50.6416 244.553 50.1249 243.766 49.2611C242.98 48.3973 242.561 47.2555 242.6 46.0822C242.638 44.9088 243.132 43.7979 243.974 42.9891C244.815 42.1803 245.938 41.7384 247.099 41.7588C248.261 41.7791 249.367 42.2601 250.181 43.0979C250.994 43.9358 251.45 45.0633 251.448 46.2373C251.448 46.333 251.444 46.4289 251.439 46.5246Z" fill="#2B1351"/>
<path d="M255.428 46.2373V46.5247H255.422C255.426 46.4289 255.428 46.3331 255.428 46.2373Z" fill="#2B1351"/>
<path d="M140.487 24.4941C138.819 24.4941 137.189 23.9941 135.802 23.0574C134.415 22.1207 133.334 20.7893 132.696 19.2316C132.057 17.6738 131.89 15.9598 132.216 14.3061C132.541 12.6525 133.344 11.1335 134.524 9.94124C135.703 8.74901 137.206 7.93708 138.842 7.60815C140.478 7.27921 142.173 7.44802 143.714 8.09325C145.255 8.73848 146.573 9.83111 147.499 11.233C148.426 12.6349 148.921 14.2831 148.921 15.9692C148.918 18.2294 148.029 20.3962 146.448 21.9944C144.867 23.5925 142.723 24.4915 140.487 24.4941ZM140.487 11.4673C139.606 11.4673 138.745 11.7314 138.013 12.226C137.28 12.7207 136.71 13.4238 136.373 14.2464C136.035 15.069 135.947 15.9742 136.119 16.8475C136.291 17.7208 136.715 18.523 137.338 19.1526C137.961 19.7822 138.754 20.211 139.618 20.3847C140.482 20.5584 141.378 20.4692 142.191 20.1285C143.005 19.7877 143.701 19.2107 144.19 18.4703C144.68 17.73 144.941 16.8596 144.941 15.9692C144.939 14.7757 144.47 13.6314 143.635 12.7874C142.8 11.9434 141.668 11.4687 140.487 11.4673Z" fill="#2B1351"/>
<path d="M128.457 16.7259C127.626 18.0421 126.399 19.0535 124.956 19.6109C123.513 20.1682 121.931 20.2419 120.444 19.8212C118.956 19.4004 117.642 18.5075 116.695 17.2741C115.748 16.0408 115.218 14.5323 115.184 12.9714C115.149 11.4105 115.612 9.8797 116.504 8.60503C117.396 7.33035 118.67 6.37926 120.137 5.89212C121.605 5.40499 123.189 5.40761 124.654 5.89958C126.12 6.39155 127.391 7.34681 128.279 8.62442L131.891 6.16086C130.482 4.10198 128.456 2.55501 126.111 1.74789C123.767 0.940774 121.228 0.916182 118.868 1.67772C116.509 2.43925 114.454 3.94666 113.006 5.97786C111.558 8.00906 110.794 10.4566 110.826 12.96C110.858 15.4634 111.684 17.8902 113.184 19.8829C114.683 21.8756 116.776 23.3289 119.154 24.0285C121.532 24.7282 124.069 24.6373 126.393 23.7692C128.716 22.9011 130.701 21.3017 132.057 19.2067L128.457 16.7259Z" fill="#2B1351"/>
<path d="M169.199 8.31388L173.558 6.42725V24.4939H169.199V8.31388Z" fill="#2B1351"/>
<path d="M191.372 14.266V24.494H187.013V13.7374C186.747 13.1415 186.322 12.6319 185.787 12.265C185.252 11.898 184.627 11.6882 183.98 11.6588C182.571 11.6588 181.348 12.6761 180.759 14.1548V24.4938H176.4V6.67798H180.759V8.44425C181.72 7.93007 182.787 7.6533 183.874 7.63665C184.961 7.62001 186.037 7.86394 187.013 8.34847C188.137 8.93395 189.115 9.77147 189.87 10.7971C190.625 11.8226 191.139 13.0092 191.372 14.266Z" fill="#2B1351"/>
<path d="M209.374 15.8734C209.366 15.0469 209.239 14.226 208.997 13.4367C208.652 12.3274 208.088 11.3006 207.339 10.4187C206.589 9.53671 205.67 8.81803 204.638 8.30639C203.063 7.53014 201.288 7.26907 199.559 7.55944C197.831 7.84981 196.235 8.67721 194.993 9.92667C193.751 11.1761 192.925 12.7856 192.629 14.5314C192.334 16.2773 192.584 18.0728 193.345 19.6684C194.126 21.2971 195.396 22.6347 196.974 23.4902C198.149 24.1244 199.457 24.4679 200.789 24.4926C202.121 24.5172 203.44 24.2222 204.638 23.6319C204.803 23.5495 204.966 23.4633 205.125 23.3714C205.036 23.8536 204.871 24.3185 204.638 24.7487C204.293 25.4148 203.776 25.9742 203.142 26.3677C202.508 26.7613 201.781 26.9743 201.037 26.9843C200.488 26.9814 199.944 26.8646 199.441 26.6412C198.938 26.4178 198.485 26.0926 198.111 25.6855L195.299 28.5284C196.041 29.3102 196.932 29.9326 197.918 30.3585C198.904 30.7844 199.965 31.0051 201.037 31.0073C202.823 30.985 204.553 30.3743 205.965 29.2679C207.376 28.1616 208.392 26.62 208.858 24.877C208.911 24.6932 208.957 24.5053 208.997 24.3158C209.173 23.5542 209.299 22.7818 209.376 22.0035V15.9692C209.376 15.9366 209.376 15.906 209.374 15.8734ZM204.638 18.4788C204.444 18.7708 204.216 19.0384 203.959 19.2757C203.231 19.9531 202.299 20.3654 201.313 20.4473C200.326 20.5292 199.341 20.276 198.513 19.7278C197.685 19.1796 197.062 18.3678 196.742 17.421C196.422 16.4741 196.424 15.4464 196.747 14.5008C197.07 13.5551 197.696 12.7455 198.526 12.2003C199.356 11.6551 200.343 11.4054 201.329 11.4909C202.315 11.5763 203.245 11.992 203.971 12.672C204.697 13.352 205.177 14.2576 205.337 15.245C205.377 15.4843 205.396 15.7266 205.396 15.9692C205.396 16.8634 205.133 17.7375 204.638 18.4788Z" fill="#2B1351"/>
<path d="M162.187 0V8.40604C160.564 7.55486 158.712 7.25964 156.91 7.56484C155.107 7.87004 153.451 8.75916 152.192 10.0982C150.932 11.4373 150.137 13.1538 149.927 14.9891C149.716 16.8245 150.101 18.6793 151.024 20.2742C151.947 21.8691 153.358 23.1176 155.043 23.8317C156.729 24.5458 158.599 24.6869 160.371 24.2336C162.143 23.7803 163.721 22.7572 164.868 21.3184C166.015 19.8797 166.668 18.1032 166.729 16.2566C166.733 16.1608 166.735 16.065 166.735 15.9692V1.33517L162.187 0ZM162.746 16.2566C162.67 17.428 162.141 18.5223 161.274 19.3034C160.407 20.0844 159.271 20.4896 158.111 20.4315C156.951 20.3735 155.86 19.8568 155.073 18.993C154.287 18.1292 153.868 16.9874 153.907 15.8141C153.945 14.6408 154.439 13.5299 155.281 12.7211C156.123 11.9123 157.245 11.4704 158.406 11.4907C159.568 11.5111 160.674 11.992 161.488 12.8298C162.302 13.6677 162.757 14.7952 162.755 15.9692C162.755 16.065 162.751 16.1608 162.746 16.2566Z" fill="#2B1351"/>
<path d="M166.735 15.9692V16.2566H166.729C166.733 16.1608 166.735 16.065 166.735 15.9692Z" fill="#2B1351"/>
<path d="M209.375 15.3945V15.4904C209.375 15.4578 209.375 15.4271 209.374 15.3945H209.375Z" fill="#2B1351"/>
</g>
<defs>
<linearGradient id="paint0_linear_1131_330" x1="12.8022" y1="64.8882" x2="90.527" y2="12.0859" gradientUnits="userSpaceOnUse">
<stop stop-color="#A94EFA"/>
<stop offset="0.5056" stop-color="#12A1F4"/>
<stop offset="1" stop-color="#09CFCA"/>
</linearGradient>
<linearGradient id="paint1_linear_1131_330" x1="-1.68401" y1="40.4401" x2="76.0408" y2="-12.3621" gradientUnits="userSpaceOnUse">
<stop stop-color="#A94EFA"/>
<stop offset="0.5056" stop-color="#12A1F4"/>
<stop offset="1" stop-color="#09CFCA"/>
</linearGradient>
<clipPath id="clip0_1131_330">
<rect width="85.4028" height="54.7621" fill="white"/>
</clipPath>
<clipPath id="clip1_1131_330">
<rect width="162.982" height="54.7621" fill="white" transform="translate(110.828)"/>
</clipPath>
</defs>
</svg>
