<svg width="82" height="93" viewBox="0 0 82 93" fill="none" xmlns="http://www.w3.org/2000/svg">
<path d="M40.5517 0.000183604C45.778 -0.00680427 50.5467 1.47113 54.8861 4.33441C56.1883 5.19392 56.5752 6.65439 55.8155 7.82835C55.0345 9.03376 53.4779 9.30454 52.1669 8.42582C48.1739 5.74946 43.7514 4.61568 38.9686 4.94236C35.3447 5.19043 32.0107 6.36265 28.9947 8.39263C27.5282 9.37966 25.8391 8.99708 25.1447 7.54884C24.6323 6.47969 24.9521 5.20441 25.9628 4.50562C29.0106 2.39877 32.3782 1.03614 36.0338 0.370541C37.525 0.101508 39.0339 -0.0050573 40.5517 0.000183604Z" fill="white"/>
<path d="M47.2861 16.982C46.8234 17.0365 46.3936 16.8164 45.9675 16.5869C42.3645 14.6415 38.7633 14.6434 35.153 16.5775C33.3679 17.5332 31.6286 16.7374 31.2098 14.7977C31.0104 13.8739 31.4695 12.6792 32.3254 12.1881C37.7683 9.06688 43.2405 9.05747 48.6999 12.1317C49.7698 12.7338 50.1722 14.0094 49.8155 15.1815C49.4845 16.2708 48.4859 16.9933 47.2861 16.982Z" fill="white"/>
<path d="M40.8745 93C39.4902 92.9951 38.1182 92.5793 36.7954 91.713C30.8048 87.7951 24.1565 85.778 17.2373 84.3994C14.4366 83.8425 11.5448 83.8351 8.80563 82.9441C3.97276 81.3725 0.805035 77.1898 0.790255 72.116C0.74838 58.7164 0.750843 45.3193 0.790255 31.9196C0.805035 26.7915 4.12548 22.683 8.94111 21.646C10.69 21.2698 12.4414 21.5469 14.1755 21.7895C19.9789 22.5963 25.6665 23.8833 31.1521 25.9995C34.2336 27.1899 37.192 28.6279 39.9557 30.447C40.3154 30.6871 40.6528 30.8282 41.0001 30.8356" fill="url(#paint0_linear_240_2799)"/>
<path d="M41.1277 30.83C41.4199 30.835 41.7219 30.7409 42.0485 30.5231C47.7503 26.7286 54.1127 24.5826 60.7133 23.0677C63.7975 22.3598 66.9234 21.8945 70.0665 21.5282C76.0384 20.8351 81.205 25.6321 81.2074 32.1097V51.9931C81.2074 58.441 81.0945 64.8914 81.2369 71.3369C81.3989 78.6165 75.9083 83.0026 70.2212 83.6189C62.388 84.4629 54.7831 86.307 47.8044 90.203C46.9302 90.6906 46.1149 91.2797 45.2457 91.7772C43.8411 92.5816 42.4144 93.0049 41 93" fill="url(#paint1_linear_240_2799)"/>
<defs>
<linearGradient id="paint0_linear_240_2799" x1="0.759771" y1="84.0577" x2="54.4136" y2="51.4183" gradientUnits="userSpaceOnUse">
<stop offset="0.479167" stop-color="#F5478E"/>
<stop offset="0.981593" stop-color="#B347F5"/>
</linearGradient>
<linearGradient id="paint1_linear_240_2799" x1="35.1875" y1="93" x2="92.5" y2="28.5" gradientUnits="userSpaceOnUse">
<stop offset="0.31809" stop-color="#F5478E"/>
<stop offset="1" stop-color="#B347F5"/>
</linearGradient>
</defs>
</svg>
