<svg width="24" height="24" viewBox="0 0 24 24" fill="none" xmlns="http://www.w3.org/2000/svg">
<path d="M17.028 0H6.972C2.604 0 0 2.604 0 6.972V17.016C0 21.396 2.604 24 6.972 24H17.016C21.384 24 23.988 21.396 23.988 17.028V6.972C24 2.604 21.396 0 17.028 0ZM17.244 15.156L14.58 17.82C13.932 18.468 13.092 18.78 12.252 18.78C11.412 18.78 10.56 18.456 9.924 17.82C8.64 16.536 8.64 14.436 9.924 13.152L11.616 11.46C11.964 11.112 12.54 11.112 12.888 11.46C13.236 11.808 13.236 12.384 12.888 12.732L11.196 14.424C10.608 15.012 10.608 15.96 11.196 16.548C11.784 17.136 12.732 17.136 13.32 16.548L15.984 13.884C16.716 13.152 17.124 12.168 17.124 11.124C17.124 10.08 16.716 9.108 15.984 8.364C14.508 6.888 11.94 6.888 10.464 8.364L7.548 11.28C6.3 12.528 6.3 14.568 7.548 15.828C7.896 16.176 7.896 16.752 7.548 17.1C7.2 17.448 6.624 17.448 6.276 17.1C4.32 15.144 4.32 11.964 6.276 10.008L9.18 7.104C10.26 6.024 11.688 5.436 13.212 5.436C14.736 5.436 16.164 6.024 17.244 7.104C18.324 8.184 18.912 9.612 18.912 11.136C18.912 12.66 18.324 14.088 17.244 15.156Z" fill="#292D32"/>
</svg>
