<svg width="23" height="24" viewBox="0 0 23 24" fill="none" xmlns="http://www.w3.org/2000/svg">
<path d="M17.1016 16.3743C17.9057 15.8462 18.9618 16.4223 18.9618 17.3824V18.9305C18.9618 20.4546 17.7737 22.0868 16.3456 22.5668L12.5172 23.8389C11.8452 24.067 10.7531 24.067 10.093 23.8389L6.26467 22.5668C4.82454 22.0868 3.64844 20.4546 3.64844 18.9305V17.3704C3.64844 16.4223 4.70453 15.8462 5.4966 16.3623L7.96882 17.9704C8.9169 18.6065 10.117 18.9185 11.3171 18.9185C12.5172 18.9185 13.7173 18.6065 14.6654 17.9704L17.1016 16.3743Z" fill="#292D32"/>
<path d="M20.8788 5.35548L13.6902 0.639057C12.3941 -0.213019 10.2579 -0.213019 8.96179 0.639057L1.73715 5.35548C-0.579051 6.85561 -0.579051 10.2519 1.73715 11.764L3.65732 13.0122L8.96179 16.4685C10.2579 17.3205 12.3941 17.3205 13.6902 16.4685L18.9587 13.0122L20.6028 11.9321V15.6044C20.6028 16.0964 21.0109 16.5045 21.5029 16.5045C21.9949 16.5045 22.403 16.0964 22.403 15.6044V9.69986C22.883 8.15172 22.391 6.35156 20.8788 5.35548Z" fill="#292D32"/>
</svg>
