<svg width="96" height="81" viewBox="0 0 96 81" fill="none" xmlns="http://www.w3.org/2000/svg">
<path d="M95.2544 40.1837V80.3674L68.9143 58.8656L42.5742 38.7738L69.6193 18.6819L95.2544 0V40.1837Z" fill="url(#paint0_linear_130_2401)"/>
<path d="M59.3232 20.4445H10.1248C6.18987 20.4445 3 23.6343 3 27.5692V52.0934C3 56.0283 6.18987 59.2182 10.1248 59.2182H59.3232C63.2581 59.2182 66.448 56.0283 66.448 52.0934V27.5692C66.448 23.6343 63.2581 20.4445 59.3232 20.4445Z" stroke="#FEFEFE" stroke-width="5" stroke-miterlimit="10"/>
<path d="M14.6313 34.5439C16.7727 34.5439 18.5087 32.808 18.5087 30.6666C18.5087 28.5251 16.7727 26.7892 14.6313 26.7892C12.4899 26.7892 10.7539 28.5251 10.7539 30.6666C10.7539 32.808 12.4899 34.5439 14.6313 34.5439Z" fill="#F0F0F0"/>
<defs>
<linearGradient id="paint0_linear_130_2401" x1="42.5739" y1="40.1837" x2="95.2546" y2="40.1837" gradientUnits="userSpaceOnUse">
<stop offset="0.479167" stop-color="#F5478E"/>
<stop offset="1" stop-color="#B347F5"/>
</linearGradient>
</defs>
</svg>
