<svg width="21" height="24" viewBox="0 0 21 24" fill="none" xmlns="http://www.w3.org/2000/svg">
<path d="M19.8 2.004C19.8 1.992 19.8 1.98 19.776 1.968C19.512 1.632 19.164 1.452 18.756 1.452C18.12 1.452 17.352 1.872 16.524 2.76C15.54 3.816 14.028 3.732 13.164 2.58L11.952 0.972C11.472 0.324 10.836 0 10.2 0C9.564 0 8.928 0.324 8.448 0.972L7.224 2.592C6.372 3.732 4.872 3.816 3.888 2.772L3.876 2.76C2.52 1.308 1.308 1.092 0.624 1.968C0.6 1.98 0.6 1.992 0.6 2.004C0.168 2.928 0 4.224 0 6.048V17.952C0 19.776 0.168 21.072 0.6 21.996C0.6 22.008 0.612 22.032 0.624 22.044C1.32 22.908 2.52 22.692 3.876 21.24L3.888 21.228C4.872 20.184 6.372 20.268 7.224 21.408L8.448 23.028C8.928 23.676 9.564 24 10.2 24C10.836 24 11.472 23.676 11.952 23.028L13.164 21.42C14.028 20.268 15.54 20.184 16.524 21.24C17.352 22.128 18.12 22.548 18.756 22.548C19.164 22.548 19.512 22.38 19.776 22.044C19.788 22.032 19.8 22.008 19.8 21.996C20.232 21.072 20.4 19.776 20.4 17.952V6.048C20.4 4.224 20.232 2.928 19.8 2.004ZM13.2 15H6C5.508 15 5.1 14.592 5.1 14.1C5.1 13.608 5.508 13.2 6 13.2H13.2C13.692 13.2 14.1 13.608 14.1 14.1C14.1 14.592 13.692 15 13.2 15ZM15.6 10.8H6C5.508 10.8 5.1 10.392 5.1 9.9C5.1 9.408 5.508 9 6 9H15.6C16.092 9 16.5 9.408 16.5 9.9C16.5 10.392 16.092 10.8 15.6 10.8Z" fill="#292D32"/>
</svg>
