<svg width="24" height="36" viewBox="0 0 24 36" fill="none" xmlns="http://www.w3.org/2000/svg">
<g filter="url(#filter0_di_109_509)">
<path d="M12.9749 28.4999C11.008 28.2626 10.0648 27.0354 10.0911 24.7486V19.985C10.091 19.7625 10.0118 19.5491 9.87117 19.3918C9.73049 19.2344 9.53972 19.1459 9.34075 19.1456H8V17.2149H9.34075C9.53972 17.2147 9.73049 17.1261 9.87117 16.9688C10.0118 16.8114 10.091 16.5981 10.0911 16.3756V10.5473C10.2927 8.66848 11.1814 7.6718 12.8077 7.5L16 7.501V9.73504H13.3972C12.5298 9.74022 12.0673 10.257 12.0589 11.2296V16.9194C12.059 16.9502 12.0536 16.9807 12.0431 17.0092C12.0325 17.0376 12.017 17.0635 11.9975 17.0852L11.9849 17.0994L11.9749 17.1159C11.7857 17.4047 11.5574 17.6589 11.2984 17.8693L11.2897 17.877L11.2816 17.886C11.2131 17.9634 11.1729 18.0667 11.1691 18.1756C11.1653 18.2844 11.1981 18.3909 11.261 18.4741L11.2763 18.4942L11.2959 18.5093C11.587 18.7446 11.8237 19.0543 11.9861 19.4126L11.9955 19.4321L12.0085 19.4491C12.041 19.4917 12.0589 19.5458 12.0589 19.6018V24.4884L12.0602 24.5006C12.1522 25.3688 12.5989 25.8662 13.3516 25.9388L16 25.9396V28.5L12.9749 28.4999Z" fill="#F5478E"/>
<path d="M12.9449 28.7481L12.9599 28.7499H12.9749L16 28.75L16.25 28.75V28.5V25.9396V25.6897L16.0001 25.6896L13.3641 25.6889C13.0461 25.6559 12.8114 25.5373 12.6441 25.351C12.4721 25.1594 12.3513 24.8736 12.3089 24.4758V19.6018V19.6015C12.3088 19.4949 12.2754 19.3884 12.21 19.301C12.033 18.9138 11.7754 18.5762 11.4561 18.3174C11.432 18.2826 11.4171 18.2356 11.4189 18.1843C11.4208 18.1323 11.4393 18.087 11.4655 18.0556C11.7413 17.8299 11.9835 17.559 12.184 17.2529L12.1842 17.253L12.1869 17.2485C12.2266 17.2032 12.257 17.1513 12.2775 17.096L12.0431 17.0092C12.0536 16.9807 12.059 16.9502 12.0589 16.9194H12.3089V16.9193C12.3089 16.9192 12.3089 16.9191 12.3089 16.9189L12.3089 11.2308C12.313 10.7804 12.422 10.4764 12.5922 10.2863C12.7581 10.1009 13.0151 9.98747 13.3979 9.98504H16H16.25V9.73504V7.501V7.25108L16.0001 7.251L12.8078 7.25L12.7946 7.25L12.7814 7.25138C11.9205 7.34233 11.2291 7.6557 10.7285 8.21716C10.2316 8.77453 9.94672 9.54971 9.84257 10.5207L9.84115 10.534V10.5473L9.84115 16.3753C9.84115 16.3754 9.84115 16.3754 9.84115 16.3755C9.84097 16.5402 9.78216 16.6932 9.68479 16.8022L9.87117 16.9688L9.68479 16.8022C9.58821 16.9102 9.4636 16.9648 9.34041 16.9649H8H7.75V17.2149V19.1456V19.3956H8H9.34041C9.4636 19.3958 9.58821 19.4504 9.68479 19.5584C9.78216 19.6673 9.84097 19.8204 9.84115 19.9851C9.84115 19.9851 9.84115 19.9852 9.84115 19.9852L9.84115 24.7472C9.82783 25.9207 10.0623 26.8621 10.5873 27.5452C11.117 28.2342 11.9138 28.6237 12.9449 28.7481Z" stroke="#F95E9D" stroke-width="0.5"/>
</g>
<defs>
<filter id="filter0_di_109_509" x="0.5" y="0" width="23" height="36" filterUnits="userSpaceOnUse" color-interpolation-filters="sRGB">
<feFlood flood-opacity="0" result="BackgroundImageFix"/>
<feColorMatrix in="SourceAlpha" type="matrix" values="0 0 0 0 0 0 0 0 0 0 0 0 0 0 0 0 0 0 127 0" result="hardAlpha"/>
<feOffset/>
<feGaussianBlur stdDeviation="3.5"/>
<feComposite in2="hardAlpha" operator="out"/>
<feColorMatrix type="matrix" values="0 0 0 0 0.960784 0 0 0 0 0.278431 0 0 0 0 0.556863 0 0 0 1 0"/>
<feBlend mode="normal" in2="BackgroundImageFix" result="effect1_dropShadow_109_509"/>
<feBlend mode="normal" in="SourceGraphic" in2="effect1_dropShadow_109_509" result="shape"/>
<feColorMatrix in="SourceAlpha" type="matrix" values="0 0 0 0 0 0 0 0 0 0 0 0 0 0 0 0 0 0 127 0" result="hardAlpha"/>
<feOffset dy="4"/>
<feGaussianBlur stdDeviation="2"/>
<feComposite in2="hardAlpha" operator="arithmetic" k2="-1" k3="1"/>
<feColorMatrix type="matrix" values="0 0 0 0 0.964355 0 0 0 0 0.344792 0 0 0 0 0.597601 0 0 0 1 0"/>
<feBlend mode="normal" in2="shape" result="effect2_innerShadow_109_509"/>
</filter>
</defs>
</svg>
