<svg width="296" height="60" viewBox="0 0 296 60" fill="none" xmlns="http://www.w3.org/2000/svg">
<g clip-path="url(#clip0_1_124)">
<path d="M67.1505 59.2V51.9822H75.4347C77.8526 51.7753 79.2582 50.3729 79.5478 47.9254L79.5517 47.8909V34.1153C79.5519 33.9575 79.6081 33.8049 79.7103 33.6848L79.7512 33.6371L79.7808 33.5821C80.2919 32.572 81.0366 31.699 81.9528 31.0357L82.0144 30.993L82.0626 30.9364C82.2606 30.7019 82.3637 30.4016 82.3517 30.0947C82.3397 29.7878 82.2133 29.4966 81.9976 29.2784L81.9723 29.2531L81.9449 29.2312C81.1298 28.6381 80.4116 27.9216 79.8161 27.1075L79.7848 27.0608L79.7449 27.021C79.6835 26.9597 79.6348 26.8868 79.6017 26.8066C79.5685 26.7263 79.5515 26.6403 79.5517 26.5535V10.5194C79.5253 7.77222 78.07 6.31506 75.344 6.30046H67.1505V0.00256348H77.2492C82.313 0.484072 85.1095 3.29375 85.7436 8.59034V25.0207C85.7442 25.648 85.9932 26.2494 86.4359 26.693C86.8786 27.1366 87.4788 27.3862 88.1049 27.3869H92.3238V32.8296H88.1049C87.4788 32.8304 86.8786 33.08 86.4359 33.5236C85.9932 33.9672 85.7442 34.5686 85.7436 35.1959V48.6179C85.8266 55.0713 82.8587 58.5309 76.6695 59.1999L67.1505 59.2Z" fill="url(#paint0_linear_1_124)"/>
<path d="M15.6543 59.2C9.46518 58.5309 6.49726 55.0714 6.58015 48.625V35.196C6.57954 34.5687 6.33062 33.9673 5.88795 33.5237C5.44528 33.0801 4.845 32.8305 4.21889 32.8297H0V27.387H4.21889C4.845 27.3863 5.44528 27.1367 5.88795 26.6931C6.33062 26.2495 6.57954 25.648 6.58015 25.0208V8.5906C7.21432 3.29401 10.0108 0.484325 15.1283 0L25.1734 0.00282384V6.30072H16.9831C14.2538 6.31532 12.7985 7.77202 12.7722 10.5141V26.5538C12.7723 26.6406 12.7553 26.7267 12.7222 26.8069C12.689 26.8872 12.6403 26.96 12.5789 27.0213L12.539 27.0612L12.5077 27.1078C11.9123 27.9219 11.1941 28.6384 10.3789 29.2316L10.3515 29.2535L10.3262 29.2787C10.1105 29.4969 9.98415 29.7881 9.97211 30.095C9.96008 30.4019 10.0632 30.7022 10.2612 30.9367L10.3094 30.9933L10.371 31.036C11.2872 31.6993 12.0319 32.5724 12.543 33.5824L12.5726 33.6374L12.6135 33.6852C12.7157 33.8052 12.772 33.9578 12.7722 34.1156V47.8912L12.776 47.9257C13.0656 50.3734 14.4712 51.7753 16.8397 51.9802L25.1734 51.9825V59.2003L15.6543 59.2Z" fill="url(#paint1_linear_1_124)"/>
<path d="M42.4608 23.2265C42.4607 25.5477 41.5404 27.7738 39.9021 29.4151C38.2639 31.0564 36.042 31.9786 33.7252 31.9786C31.4084 31.9786 29.1864 31.0565 27.5482 29.4151C25.9099 27.7738 24.9895 25.5477 24.9894 23.2265C24.9894 23.2107 24.9895 23.1959 24.9904 23.1802H42.4599C42.4608 23.1959 42.4608 23.2107 42.4608 23.2265Z" fill="white"/>
<path d="M66.2396 23.2265C66.2396 25.5477 65.3192 27.7738 63.6809 29.4151C62.0427 31.0565 59.8208 31.9786 57.504 31.9786C55.1872 31.9786 52.9652 31.0565 51.327 29.4151C49.6887 27.7738 48.7683 25.5477 48.7682 23.2265C48.7682 23.2107 48.7683 23.1959 48.7692 23.1802H66.2387C66.2396 23.1959 66.2396 23.2107 66.2396 23.2265Z" fill="white"/>
</g>
<g clip-path="url(#clip1_1_124)">
<path d="M151.872 59.2C150.069 59.2 148.306 58.6595 146.807 57.6469C145.308 56.6343 144.139 55.195 143.449 53.511C142.759 51.8271 142.579 49.9741 142.93 48.1864C143.282 46.3987 144.15 44.7566 145.425 43.4678C146.7 42.179 148.325 41.3012 150.093 40.9456C151.862 40.59 153.695 40.7725 155.361 41.4701C157.027 42.1676 158.451 43.3488 159.452 44.8643C160.454 46.3798 160.989 48.1616 160.989 49.9843C160.986 52.4276 160.025 54.77 158.316 56.4977C156.606 58.2254 154.289 59.1972 151.872 59.2ZM151.872 45.1176C150.92 45.1176 149.989 45.403 149.197 45.9378C148.405 46.4725 147.788 47.2326 147.424 48.1219C147.06 49.0112 146.964 49.9897 147.15 50.9338C147.336 51.8778 147.794 52.745 148.468 53.4256C149.141 54.1063 149.999 54.5698 150.933 54.7576C151.867 54.9453 152.835 54.8489 153.714 54.4806C154.594 54.1122 155.346 53.4885 155.875 52.6881C156.404 51.8878 156.686 50.9468 156.686 49.9843C156.685 48.694 156.177 47.457 155.275 46.5446C154.372 45.6323 153.148 45.1191 151.872 45.1176Z" fill="white"/>
<path d="M138.867 50.8023C137.968 52.2252 136.642 53.3185 135.082 53.921C133.522 54.5235 131.812 54.6032 130.204 54.1484C128.596 53.6935 127.175 52.7283 126.152 51.395C125.128 50.0616 124.555 48.4309 124.518 46.7435C124.481 45.0561 124.981 43.4013 125.945 42.0233C126.91 40.6453 128.287 39.6171 129.873 39.0905C131.459 38.5639 133.171 38.5667 134.756 39.0986C136.341 39.6304 137.714 40.6631 138.674 42.0443L142.579 39.381C141.055 37.1553 138.865 35.483 136.331 34.6105C133.796 33.738 131.051 33.7113 128.501 34.5346C125.95 35.3578 123.729 36.9874 122.163 39.1832C120.598 41.379 119.772 44.0249 119.807 46.7312C119.841 49.4375 120.735 52.0609 122.356 54.2151C123.976 56.3693 126.239 57.9403 128.81 58.6967C131.38 59.453 134.124 59.3547 136.635 58.4163C139.146 57.4779 141.293 55.7489 142.759 53.4842L138.867 50.8023Z" fill="white"/>
<path d="M233.104 40.5614V42.0358C231.719 41.2143 230.144 40.7771 228.538 40.7685C226.932 40.7599 225.353 41.1801 223.959 41.9868C222.566 42.7934 221.408 43.9578 220.602 45.3621C219.797 46.7664 219.373 48.3609 219.373 49.9841C219.373 51.6073 219.797 53.2017 220.602 54.606C221.408 56.0104 222.566 57.1748 223.959 57.9814C225.353 58.788 226.932 59.2083 228.538 59.1997C230.144 59.1911 231.719 58.7539 233.104 57.9323V59.1998H237.611V40.5613L233.104 40.5614ZM228.494 54.851C227.481 54.8516 226.494 54.5294 225.672 53.9301C224.851 53.3309 224.237 52.4851 223.918 51.513C223.6 50.5409 223.592 49.4921 223.897 48.5155C224.202 47.5389 224.804 46.6843 225.617 46.0733C226.43 45.4623 227.413 45.1259 228.426 45.1119C229.439 45.0979 230.43 45.4071 231.259 45.9955C232.088 46.5839 232.713 47.4215 233.044 48.3893C233.375 49.3571 233.396 50.4058 233.104 51.3863C232.805 52.3874 232.196 53.2647 231.366 53.8887C230.535 54.5126 229.529 54.85 228.494 54.851Z" fill="white"/>
<path d="M286.883 59.2C285.08 59.2 283.317 58.6595 281.818 57.6469C280.319 56.6343 279.15 55.1949 278.46 53.511C277.77 51.827 277.59 49.9741 277.941 48.1864C278.293 46.3987 279.161 44.7566 280.436 43.4678C281.712 42.1789 283.336 41.3012 285.104 40.9456C286.873 40.59 288.706 40.7725 290.372 41.4701C292.038 42.1676 293.462 43.3488 294.463 44.8643C295.465 46.3798 296 48.1616 296 49.9843C295.997 52.4276 295.036 54.77 293.327 56.4977C291.617 58.2254 289.3 59.1972 286.883 59.2ZM286.883 45.1176C285.931 45.1176 285 45.403 284.208 45.9378C283.417 46.4725 282.799 47.2326 282.435 48.1219C282.071 49.0112 281.975 49.9897 282.161 50.9338C282.347 51.8779 282.805 52.745 283.479 53.4257C284.152 54.1063 285.01 54.5698 285.944 54.7576C286.878 54.9453 287.846 54.8489 288.726 54.4806C289.605 54.1122 290.357 53.4884 290.886 52.6881C291.415 51.8878 291.698 50.9468 291.698 49.9843C291.696 48.694 291.188 47.457 290.286 46.5446C289.383 45.6322 288.16 45.119 286.883 45.1176Z" fill="white"/>
<path d="M189.056 46.6914V59.1999H184.344V48.4497C183.9 47.0228 183.025 46.0123 181.374 45.946C180.054 45.9874 179.233 46.4741 178.786 47.2942C178.575 47.7068 178.445 48.1568 178.403 48.6194V59.1999H173.691V53.5918C173.732 53.5462 173.773 53.4986 173.81 53.4489C173.767 53.3245 173.728 53.1983 173.691 53.072V48.2426C173.648 48.11 173.601 47.9794 173.547 47.8553V47.8532C173.34 47.2348 172.945 46.6979 172.42 46.3185C171.894 45.939 171.264 45.7361 170.618 45.7386C168.626 45.7986 167.733 46.8031 167.544 48.4121V59.1997H162.832V40.3544H167.544V41.5824C169.515 40.7733 171.72 40.7733 173.691 41.5824C174.605 41.9609 175.447 42.497 176.18 43.1667C176.831 42.5382 177.583 42.025 178.403 41.6487C179.334 41.221 180.342 40.9921 181.364 40.9765C182.386 40.9608 183.401 41.1586 184.344 41.5576C185.435 42.0416 186.417 42.7471 187.227 43.6302C188.038 44.5133 188.66 45.5552 189.056 46.6914Z" fill="white"/>
<path d="M173.81 53.449C173.773 53.4987 173.732 53.5463 173.691 53.5919V53.072C173.728 53.1984 173.767 53.3247 173.81 53.449Z" fill="white"/>
<path d="M217.943 46.6914V59.1999H213.231V48.4497C212.787 47.0228 211.912 46.0123 210.261 45.946C208.941 45.9874 208.12 46.4741 207.673 47.2942C207.462 47.7068 207.332 48.1568 207.29 48.6194V59.1999H202.578V53.5918C202.619 53.5462 202.66 53.4986 202.697 53.4489C202.654 53.3245 202.615 53.1983 202.578 53.072V48.2426C202.535 48.11 202.488 47.9794 202.434 47.8553V47.8532C202.227 47.2348 201.832 46.6979 201.307 46.3185C200.781 45.939 200.151 45.7361 199.505 45.7386C197.513 45.7986 196.62 46.8031 196.431 48.4121V59.1997H191.719V40.3544H196.431V41.5824C198.402 40.7733 200.607 40.7733 202.578 41.5824C203.492 41.9609 204.334 42.497 205.067 43.1667C205.718 42.5382 206.47 42.025 207.29 41.6487C208.221 41.221 209.229 40.9921 210.251 40.9765C211.273 40.9608 212.288 41.1586 213.231 41.5576C214.322 42.0416 215.304 42.7471 216.114 43.6302C216.925 44.5133 217.547 45.5552 217.943 46.6914Z" fill="white"/>
<path d="M202.697 53.449C202.66 53.4987 202.619 53.5463 202.578 53.5919V53.072C202.615 53.1984 202.654 53.3247 202.697 53.449Z" fill="white"/>
<path d="M233.309 57.798C233.309 58.2729 233.24 58.7453 233.104 59.1998V56.3958C233.24 56.8504 233.309 57.3229 233.309 57.798Z" fill="white"/>
<path d="M256.255 48.1432V59.2H251.543V47.5717C251.255 46.9276 250.796 46.3766 250.218 45.98C249.639 45.5833 248.963 45.3565 248.265 45.3247C246.74 45.3247 245.419 46.4244 244.782 48.023V59.1999H240.07V39.9404H244.782V41.8498C245.82 41.2939 246.975 40.9947 248.15 40.9767C249.325 40.9587 250.488 41.2225 251.543 41.7463C252.758 42.3792 253.815 43.2846 254.631 44.3932C255.448 45.5019 256.003 46.7845 256.255 48.1432Z" fill="white"/>
<path d="M271.21 32.7209V41.8082C269.457 40.8881 267.454 40.5689 265.506 40.8989C263.557 41.2288 261.767 42.1899 260.405 43.6375C259.044 45.0851 258.185 46.9407 257.957 48.9248C257.729 50.9089 258.146 52.914 259.143 54.6382C260.141 56.3623 261.666 57.712 263.488 58.484C265.311 59.256 267.332 59.4085 269.248 58.9184C271.163 58.4284 272.869 57.3224 274.109 55.767C275.349 54.2117 276.055 52.2912 276.121 50.2949C276.125 50.1914 276.127 50.0878 276.127 49.9843V34.1643L271.21 32.7209ZM271.815 50.2949C271.732 51.5613 271.161 52.7443 270.224 53.5887C269.286 54.433 268.058 54.871 266.804 54.8083C265.55 54.7455 264.371 54.187 263.521 53.2531C262.67 52.3193 262.217 51.085 262.259 49.8166C262.301 48.5482 262.835 47.3473 263.745 46.4729C264.655 45.5986 265.868 45.1208 267.124 45.1428C268.379 45.1649 269.576 45.6848 270.455 46.5905C271.335 47.4963 271.827 48.7152 271.825 49.9843C271.825 50.0878 271.821 50.1914 271.815 50.2949Z" fill="white"/>
<path d="M276.127 49.9843V50.2949H276.121C276.125 50.1914 276.127 50.0878 276.127 49.9843Z" fill="white"/>
<path d="M151.872 26.479C150.069 26.4791 148.306 25.9386 146.807 24.9259C145.308 23.9133 144.139 22.474 143.449 20.7901C142.759 19.1061 142.579 17.2531 142.93 15.4655C143.282 13.6778 144.15 12.0357 145.425 10.7469C146.7 9.45801 148.325 8.58029 150.093 8.22469C151.862 7.8691 153.695 8.0516 155.361 8.74911C157.027 9.44663 158.451 10.6278 159.452 12.1433C160.454 13.6588 160.989 15.4406 160.989 17.2633C160.986 19.7066 160.025 22.0491 158.316 23.7767C156.606 25.5044 154.289 26.4762 151.872 26.479ZM151.872 12.3966C150.92 12.3966 149.989 12.682 149.197 13.2168C148.405 13.7516 147.788 14.5117 147.424 15.4009C147.06 16.2902 146.964 17.2688 147.15 18.2128C147.336 19.1569 147.794 20.024 148.468 20.7047C149.141 21.3853 149.999 21.8488 150.933 22.0366C151.867 22.2244 152.835 22.128 153.714 21.7596C154.594 21.3913 155.346 20.7675 155.875 19.9672C156.404 19.1668 156.686 18.2259 156.686 17.2633C156.685 15.9731 156.177 14.736 155.275 13.8237C154.372 12.9113 153.148 12.3981 151.872 12.3966Z" fill="white"/>
<path d="M138.867 18.0813C137.968 19.5042 136.642 20.5976 135.082 21.2001C133.522 21.8026 131.812 21.8823 130.204 21.4275C128.596 20.9726 127.175 20.0073 126.152 18.674C125.128 17.3407 124.555 15.71 124.518 14.0226C124.481 12.3351 124.981 10.6803 125.945 9.30235C126.91 7.92437 128.287 6.89621 129.873 6.36959C131.459 5.84298 133.171 5.84581 134.756 6.37765C136.341 6.90949 137.714 7.94216 138.674 9.32331L142.579 6.66011C141.055 4.43437 138.865 2.76205 136.331 1.88952C133.796 1.01699 131.051 0.990404 128.501 1.81365C125.95 2.6369 123.729 4.26647 122.163 6.46228C120.598 8.65808 119.772 11.304 119.807 14.0103C119.841 16.7165 120.735 19.34 122.356 21.4942C123.976 23.6484 126.239 25.2194 128.81 25.9757C131.38 26.7321 134.124 26.6338 136.635 25.6954C139.146 24.757 141.293 23.028 142.759 20.7632L138.867 18.0813Z" fill="white"/>
<path d="M182.91 8.98765L187.622 6.94812V26.4789H182.91V8.98765Z" fill="white"/>
<path d="M206.88 15.4222V26.479H202.168V14.8507C201.881 14.2066 201.422 13.6556 200.843 13.259C200.265 12.8623 199.589 12.6355 198.89 12.6037C197.366 12.6037 196.045 13.7034 195.407 15.302V26.4789H190.695V7.21924H195.407V9.12865C196.446 8.5728 197.6 8.2736 198.775 8.2556C199.951 8.23761 201.113 8.50131 202.168 9.0251C203.384 9.65803 204.44 10.5634 205.257 11.6721C206.074 12.7808 206.629 14.0635 206.88 15.4222Z" fill="white"/>
<path d="M226.341 17.1598C226.333 16.2663 226.196 15.3788 225.933 14.5256C225.561 13.3264 224.951 12.2164 224.141 11.263C223.331 10.3096 222.338 9.53265 221.221 8.97955C219.519 8.14038 217.6 7.85815 215.731 8.17206C213.863 8.48596 212.137 9.38041 210.795 10.7311C209.452 12.0818 208.559 13.8217 208.24 15.709C207.921 17.5964 208.191 19.5374 209.013 21.2623C209.858 23.023 211.231 24.469 212.937 25.3939C214.207 26.0795 215.621 26.4508 217.061 26.4774C218.501 26.504 219.927 26.1852 221.222 25.547C221.4 25.4579 221.576 25.3647 221.748 25.2654C221.651 25.7867 221.474 26.2892 221.222 26.7543C220.848 27.4744 220.29 28.0791 219.605 28.5045C218.919 28.93 218.133 29.1603 217.329 29.1711C216.735 29.1679 216.148 29.0417 215.604 28.8002C215.06 28.5587 214.57 28.2071 214.166 27.767L211.126 30.8403C211.928 31.6854 212.891 32.3583 213.957 32.8188C215.023 33.2792 216.17 33.5177 217.329 33.5201C219.26 33.496 221.13 32.8358 222.656 31.6398C224.182 30.4438 225.28 28.7772 225.784 26.8931C225.841 26.6943 225.891 26.4912 225.934 26.2863C226.124 25.463 226.261 24.628 226.343 23.7867V17.2633C226.343 17.2282 226.343 17.195 226.341 17.1598ZM221.221 19.9763C221.012 20.292 220.765 20.5813 220.488 20.8378C219.7 21.5701 218.694 22.0158 217.627 22.1044C216.561 22.1929 215.496 21.9192 214.601 21.3265C213.705 20.7339 213.032 19.8563 212.686 18.8327C212.34 17.8092 212.342 16.6982 212.691 15.6759C213.041 14.6536 213.718 13.7784 214.615 13.189C215.512 12.5996 216.578 12.3297 217.644 12.4221C218.71 12.5145 219.715 12.9638 220.5 13.6989C221.285 14.4341 221.805 15.413 221.977 16.4805C222.02 16.7392 222.041 17.001 222.041 17.2633C222.042 18.23 221.756 19.1749 221.221 19.9763Z" fill="white"/>
<path d="M175.33 0V9.08726C173.576 8.1671 171.574 7.84795 169.625 8.17789C167.676 8.50782 165.886 9.46899 164.525 10.9166C163.163 12.3642 162.304 14.2197 162.076 16.2038C161.849 18.1879 162.265 20.1931 163.263 21.9172C164.261 23.6413 165.785 24.991 167.608 25.763C169.43 26.535 171.452 26.6875 173.367 26.1974C175.283 25.7074 176.989 24.6014 178.229 23.0461C179.468 21.4907 180.175 19.5703 180.241 17.574C180.245 17.4704 180.247 17.3669 180.247 17.2633V1.44337L175.33 0ZM175.934 17.574C175.852 18.8404 175.281 20.0234 174.343 20.8677C173.406 21.7121 172.178 22.1501 170.924 22.0873C169.67 22.0245 168.491 21.466 167.64 20.5322C166.79 19.5983 166.337 18.3641 166.379 17.0957C166.421 15.8272 166.954 14.6263 167.864 13.752C168.774 12.8776 169.988 12.3999 171.243 12.4219C172.499 12.4439 173.695 12.9638 174.575 13.8696C175.454 14.7753 175.946 15.9942 175.945 17.2633C175.944 17.3669 175.94 17.4704 175.934 17.574Z" fill="white"/>
<path d="M180.247 17.2633V17.5739H180.241C180.245 17.4704 180.247 17.3669 180.247 17.2633Z" fill="white"/>
<path d="M226.343 16.6421V16.7457C226.343 16.7105 226.343 16.6773 226.341 16.6421H226.343Z" fill="white"/>
</g>
<defs>
<linearGradient id="paint0_linear_1_124" x1="13.8395" y1="70.1466" x2="97.8631" y2="13.0653" gradientUnits="userSpaceOnUse">
<stop stop-color="#A94EFA"/>
<stop offset="0.5056" stop-color="#12A1F4"/>
<stop offset="1" stop-color="#09CFCA"/>
</linearGradient>
<linearGradient id="paint1_linear_1_124" x1="-1.82048" y1="43.7173" x2="82.2031" y2="-13.3639" gradientUnits="userSpaceOnUse">
<stop stop-color="#A94EFA"/>
<stop offset="0.5056" stop-color="#12A1F4"/>
<stop offset="1" stop-color="#09CFCA"/>
</linearGradient>
<clipPath id="clip0_1_124">
<rect width="92.3238" height="59.2" fill="white"/>
</clipPath>
<clipPath id="clip1_1_124">
<rect width="176.19" height="59.2" fill="white" transform="translate(119.809)"/>
</clipPath>
</defs>
</svg>
