<svg width="24" height="36" viewBox="0 0 24 36" fill="none" xmlns="http://www.w3.org/2000/svg">
<g filter="url(#filter0_di_109_511)">
<path d="M11.0251 28.4999C12.992 28.2626 13.9352 27.0354 13.9089 24.7486V19.985C13.909 19.7625 13.9882 19.5491 14.1288 19.3918C14.2695 19.2344 14.4603 19.1459 14.6593 19.1456H16V17.2149H14.6593C14.4603 17.2147 14.2695 17.1261 14.1288 16.9688C13.9882 16.8114 13.909 16.5981 13.9089 16.3756V10.5473C13.7073 8.66848 12.8186 7.6718 11.1923 7.5L8 7.501V9.73504H10.6028C11.4702 9.74022 11.9327 10.257 11.9411 11.2296V16.9194C11.941 16.9502 11.9464 16.9807 11.9569 17.0092C11.9675 17.0376 11.983 17.0635 12.0025 17.0852L12.0151 17.0994L12.0251 17.1159C12.2143 17.4047 12.4426 17.6589 12.7016 17.8693L12.7103 17.877L12.7184 17.886C12.7869 17.9634 12.8271 18.0667 12.8309 18.1756C12.8347 18.2844 12.8019 18.3909 12.739 18.4741L12.7237 18.4942L12.7041 18.5093C12.413 18.7446 12.1763 19.0543 12.0139 19.4126L12.0045 19.4321L11.9915 19.4491C11.959 19.4917 11.9411 19.5458 11.9411 19.6018V24.4884L11.9398 24.5006C11.8478 25.3688 11.4011 25.8662 10.6484 25.9388L8 25.9396V28.5L11.0251 28.4999Z" fill="#F5478E"/>
<path d="M11.0551 28.7481L11.0401 28.7499H11.0251L8.00001 28.75L7.75 28.75V28.5V25.9396V25.6897L7.99992 25.6896L10.6359 25.6889C10.9539 25.6559 11.1886 25.5373 11.3559 25.351C11.5279 25.1594 11.6487 24.8736 11.6911 24.4758V19.6018V19.6015C11.6912 19.4949 11.7246 19.3884 11.79 19.301C11.967 18.9138 12.2246 18.5762 12.5439 18.3174C12.568 18.2826 12.5829 18.2356 12.5811 18.1843C12.5792 18.1323 12.5607 18.087 12.5345 18.0556C12.2587 17.8299 12.0165 17.559 11.816 17.2529L11.8158 17.253L11.8131 17.2485C11.7734 17.2032 11.743 17.1513 11.7225 17.096L11.9569 17.0092C11.9464 16.9807 11.941 16.9502 11.9411 16.9194H11.6911V16.9193C11.6911 16.9192 11.6911 16.9191 11.6911 16.9189L11.6911 11.2308C11.687 10.7804 11.578 10.4764 11.4078 10.2863C11.2419 10.1009 10.9849 9.98747 10.6021 9.98504H8H7.75V9.73504V7.501V7.25108L7.99992 7.251L11.1922 7.25L11.2054 7.25L11.2186 7.25138C12.0795 7.34233 12.7709 7.6557 13.2715 8.21716C13.7684 8.77453 14.0533 9.54971 14.1574 10.5207L14.1589 10.534V10.5473L14.1589 16.3753C14.1589 16.3754 14.1589 16.3754 14.1589 16.3755C14.159 16.5402 14.2178 16.6932 14.3152 16.8022L14.1288 16.9688L14.3152 16.8022C14.4118 16.9102 14.5364 16.9648 14.6596 16.9649H16H16.25V17.2149V19.1456V19.3956H16H14.6596C14.5364 19.3958 14.4118 19.4504 14.3152 19.5584C14.2178 19.6673 14.159 19.8204 14.1589 19.9851C14.1589 19.9851 14.1589 19.9852 14.1589 19.9852L14.1589 24.7472C14.1722 25.9207 13.9377 26.8621 13.4127 27.5452C12.883 28.2342 12.0862 28.6237 11.0551 28.7481Z" stroke="#F95E9D" stroke-width="0.5"/>
</g>
<defs>
<filter id="filter0_di_109_511" x="0.5" y="0" width="23" height="36" filterUnits="userSpaceOnUse" color-interpolation-filters="sRGB">
<feFlood flood-opacity="0" result="BackgroundImageFix"/>
<feColorMatrix in="SourceAlpha" type="matrix" values="0 0 0 0 0 0 0 0 0 0 0 0 0 0 0 0 0 0 127 0" result="hardAlpha"/>
<feOffset/>
<feGaussianBlur stdDeviation="3.5"/>
<feComposite in2="hardAlpha" operator="out"/>
<feColorMatrix type="matrix" values="0 0 0 0 0.960784 0 0 0 0 0.278431 0 0 0 0 0.556863 0 0 0 1 0"/>
<feBlend mode="normal" in2="BackgroundImageFix" result="effect1_dropShadow_109_511"/>
<feBlend mode="normal" in="SourceGraphic" in2="effect1_dropShadow_109_511" result="shape"/>
<feColorMatrix in="SourceAlpha" type="matrix" values="0 0 0 0 0 0 0 0 0 0 0 0 0 0 0 0 0 0 127 0" result="hardAlpha"/>
<feOffset dy="4"/>
<feGaussianBlur stdDeviation="2"/>
<feComposite in2="hardAlpha" operator="arithmetic" k2="-1" k3="1"/>
<feColorMatrix type="matrix" values="0 0 0 0 0.964355 0 0 0 0 0.344792 0 0 0 0 0.597601 0 0 0 1 0"/>
<feBlend mode="normal" in2="shape" result="effect2_innerShadow_109_511"/>
</filter>
</defs>
</svg>
