<svg width="80" height="92" viewBox="0 0 80 92" fill="none" xmlns="http://www.w3.org/2000/svg">
<path d="M37.2829 51.6403C39.338 48.8776 40.8791 45.4474 43.5257 43.6146C46.3933 41.6288 46.578 39.4874 46.49 36.6729C46.3855 33.3317 46.4078 29.9835 46.4944 26.6413C46.5277 25.3565 46.1166 24.6937 44.9109 24.205C40.9974 22.619 37.141 20.8925 33.2463 19.2593C30.4737 18.0966 28.7746 16.161 28.7512 13.0618C28.7278 9.96946 30.3585 7.98229 33.1389 6.79962C38.0284 4.71994 42.8959 2.58825 47.7871 0.512462C50.9678 -0.837405 52.9904 0.528479 52.9945 4.03192C53.0092 15.9079 53.0033 27.7839 52.9771 39.6598C52.973 40.9368 53.2694 41.6567 54.48 42.3755C55.9321 43.2554 57.1789 44.436 58.1366 45.8379C64.828 55.7205 71.4029 65.6818 78.03 75.608C80.2635 78.9534 80.7068 82.4508 78.7953 86.0406C76.8439 89.7051 73.5855 90.9832 69.5391 91.3844C65.2267 91.8119 62.7655 90.3128 60.4242 86.5981C53.0449 74.8903 45.1795 63.4894 37.2829 51.6403Z" fill="url(#paint0_linear_140_168)"/>
<path d="M55.7449 91.297H53.4431C39.2644 91.297 25.0856 91.2697 10.907 91.3136C6.67968 91.3268 3.25753 89.9176 1.21154 86.0959C-0.830268 82.2819 -0.157309 78.6509 2.22793 75.1423C6.55653 68.7751 10.775 62.333 15.0614 55.937C19.6748 49.053 27.7382 49.07 32.3532 55.9798C39.7707 67.0859 47.1752 78.2007 54.5664 89.3243C54.9276 89.8667 55.2371 90.4434 55.7449 91.297Z" fill="url(#paint1_linear_140_168)"/>
<defs>
<linearGradient id="paint0_linear_140_168" x1="41.4998" y1="75.2964" x2="80.0001" y2="45.7276" gradientUnits="userSpaceOnUse">
<stop stop-color="#2C2C2C"/>
<stop offset="0.593908" stop-color="#9C15FF"/>
</linearGradient>
<linearGradient id="paint1_linear_140_168" x1="-0.000372995" y1="71.0497" x2="55.7452" y2="71.0497" gradientUnits="userSpaceOnUse">
<stop stop-color="#F595FF"/>
<stop offset="1" stop-color="#9C15FF"/>
</linearGradient>
</defs>
</svg>
