<svg width="80" height="80" viewBox="0 0 80 80" fill="none" xmlns="http://www.w3.org/2000/svg">
<path d="M27.5504 44.2601C26.3617 43.1796 26.3708 42.3522 27.1034 41.065C30.4418 35.1998 30.4406 29.1955 26.8571 23.474C23.2765 17.757 17.8979 15.1653 11.1441 15.4783C10.8869 15.4903 10.6294 15.4984 10.3719 15.4997C10.33 15.4999 10.2877 15.4552 10.3088 15.4672C10.3088 12.5887 10.0009 9.70498 10.3824 6.91558C10.9262 2.93997 14.4792 0.0797339 18.5065 0.0706822C36.1909 0.0305013 53.8754 0.031137 71.56 0.0725873C73.7778 0.0793756 75.9033 0.960909 77.4749 2.52574C79.0465 4.09057 79.9372 6.21229 79.9536 8.43003C80.0156 21.1211 80.0156 33.8122 79.9536 46.5035C79.9547 47.6044 79.738 48.6947 79.3159 49.7114C78.8938 50.7282 78.2746 51.6514 77.4941 52.4277C76.7136 53.2041 75.7872 53.8184 74.7682 54.2351C73.7492 54.6518 72.6578 54.8627 71.5569 54.8557C57.7225 54.9699 43.8865 54.8943 30.0511 54.8896C29.8978 54.865 29.7471 54.8263 29.6009 54.7741C29.4781 52.9875 29.3031 51.1481 29.2676 49.306C29.2608 48.9528 29.7731 48.5592 30.0966 48.2347C34.4664 43.8511 38.8414 39.4728 43.2217 35.0996C43.4791 34.8422 43.747 34.5946 43.993 34.3268C45.0508 33.1754 45.1194 31.8015 44.1747 30.8493C43.2097 29.8768 41.8471 29.9055 40.7121 31.021C38.1156 33.5731 35.5496 36.1563 32.9825 38.7383C31.158 40.5733 29.3522 42.4271 27.5504 44.2601Z" fill="url(#paint0_linear_140_157)"/>
<path d="M2.48307 65.0259C0.334425 64.6958 -0.0102315 63.1778 0.0478239 61.2571C0.138871 58.2435 0.0489569 55.225 0.0862871 52.2092C0.109432 50.022 0.756312 47.8869 1.95094 46.0547C10.0375 50.692 13.6593 50.702 23.2811 45.9662C23.7858 47.8587 24.5723 49.6525 24.6888 51.4888C24.9186 55.1151 24.7675 58.765 24.7944 62.4049C24.8063 64.023 23.7839 64.6815 22.2866 65.0734C22.2866 68.9016 22.2863 72.7339 22.2857 76.5704C22.2833 79.3103 21.6347 79.9559 18.8898 79.9571C14.5734 79.9591 10.257 79.959 5.94057 79.9569C3.24864 79.9554 2.57745 79.2674 2.57426 76.5195C2.57 72.8272 2.56537 69.135 2.56036 65.4427C2.5447 65.3021 2.51886 65.1628 2.48307 65.0259Z" fill="url(#paint1_linear_140_157)"/>
<path d="M24.7877 32.588C24.7669 35.8472 23.4582 38.966 21.1469 41.264C18.8357 43.562 15.7095 44.8528 12.4502 44.8549C10.8097 44.8523 9.18597 44.5242 7.67321 43.8895C6.16044 43.2548 4.78871 42.3261 3.63754 41.1573C2.48637 39.9885 1.57866 38.6028 0.967019 37.0805C0.355378 35.5583 0.0519691 33.9298 0.0744011 32.2894C0.137209 29.0315 1.47534 25.9282 3.80132 23.6462C6.12729 21.3642 9.25554 20.0855 12.514 20.0848C15.7994 20.116 18.938 21.4506 21.2396 23.7953C23.5412 26.1399 24.8174 29.3026 24.7877 32.588Z" fill="url(#paint2_linear_140_157)"/>
<defs>
<linearGradient id="paint0_linear_140_157" x1="29" y1="54.9999" x2="77" y2="9.49987" gradientUnits="userSpaceOnUse">
<stop stop-color="#212121"/>
<stop offset="0.828125" stop-color="#9F19FF"/>
</linearGradient>
<linearGradient id="paint1_linear_140_157" x1="-4.32777" y1="61.0786" x2="22.9212" y2="68.4223" gradientUnits="userSpaceOnUse">
<stop stop-color="#F595FF"/>
<stop offset="1" stop-color="#9C15FF"/>
</linearGradient>
<linearGradient id="paint2_linear_140_157" x1="-4.28565" y1="31.0972" x2="21.377" y2="40.5647" gradientUnits="userSpaceOnUse">
<stop stop-color="#F595FF"/>
<stop offset="1" stop-color="#9C15FF"/>
</linearGradient>
</defs>
</svg>
