<svg width="79" height="80" viewBox="0 0 79 80" fill="none" xmlns="http://www.w3.org/2000/svg">
<path d="M43.2354 39.9466C49.9351 47.249 56.9239 53.985 66.3282 57.4643C69.5261 58.6218 72.7813 59.6147 76.0809 60.439C78.021 60.9378 79.6311 59.1184 78.7541 57.5146C78.3555 56.7856 77.3843 56.2154 76.5494 55.9069C73.5531 54.7993 70.4009 54.0616 67.506 52.7472C64.9063 51.5959 62.4735 50.0998 60.2731 48.2993C54.3643 43.3399 54.447 36.6082 60.291 31.5346C64.0118 28.3044 68.4663 26.4544 73.1045 25.0001C74.3153 24.6205 75.5578 24.3431 76.7799 23.9978C78.3914 23.5424 79.2114 22.4559 78.9344 21.179C78.6323 19.7867 77.4393 19.1312 75.6995 19.5125C66.2136 21.591 57.7426 25.6645 50.6889 32.4348C48.1617 34.8605 45.7494 37.4059 43.2354 39.9466Z" fill="url(#paint0_linear_140_171)"/>
<path d="M67.3214 46.8156C68.2258 46.8274 69.1235 46.6592 69.9622 46.3206C70.801 45.9821 71.564 45.48 72.2068 44.8437C72.8496 44.2074 73.3593 43.4495 73.7063 42.6142C74.0533 41.779 74.2307 40.883 74.228 39.9785C74.2341 39.0741 74.0603 38.1775 73.7169 37.3408C73.3735 36.5041 72.8673 35.744 72.2276 35.1046C71.5879 34.4652 70.8275 33.9593 69.9906 33.6163C69.1538 33.2733 68.2571 33.1001 67.3527 33.1066C65.5521 33.1065 63.8243 33.8169 62.5445 35.0834C61.2647 36.3498 60.5364 38.0701 60.5176 39.8706C60.5023 40.7749 60.6668 41.6733 61.0015 42.5136C61.3363 43.3539 61.8346 44.1193 62.4676 44.7654C63.1006 45.4115 63.8556 45.9255 64.6888 46.2774C65.522 46.6294 66.4169 46.8123 67.3214 46.8156Z" fill="url(#paint1_linear_140_171)"/>
<path d="M40.0496 43.3269C29.7835 51.9692 22.2399 62.1708 19.4816 75.4173C19.4505 75.5666 19.4268 75.7174 19.4014 75.8679C19.1213 77.5329 19.7225 78.6837 21.0394 79.0042C22.3178 79.3154 23.443 78.4891 23.8898 76.9098C24.4426 74.9567 24.8974 72.9693 25.5672 71.0572C26.9 67.2519 28.609 63.6269 31.2592 60.5244C36.4298 54.4711 43.3784 54.4541 48.5061 60.5471C52.3639 65.131 54.3161 70.6209 55.7465 76.3346C55.8204 76.6299 55.8832 76.9293 55.9784 77.2178C56.4294 78.5848 57.5467 79.3018 58.7381 78.9996C59.9648 78.6885 60.6217 77.6069 60.3859 76.1515C60.2483 75.302 60.0004 74.47 59.7943 73.6321C57.5277 64.1783 52.5854 55.5777 45.5586 48.8594C43.6665 47.0302 41.8423 45.1309 40.0496 43.3269Z" fill="url(#paint2_linear_140_171)"/>
<path d="M36.6018 39.9976C30.4686 33.5809 24.5188 27.2227 16.3693 23.7323C12.4209 22.0413 8.24883 20.8613 4.1437 19.5578C3.45298 19.3385 2.38945 19.4097 1.85669 19.8163C1.28526 20.2524 0.704498 21.4014 0.906863 21.9539C1.29753 22.8378 2.01405 23.5369 2.90729 23.9057C6.31479 25.2043 9.88594 26.1045 13.2175 27.561C15.5323 28.6074 17.682 29.9863 19.5984 31.654C25.2817 36.5172 25.3384 43.407 19.6262 48.217C17.2256 50.1689 14.5735 51.7891 11.7413 53.0343C8.90071 54.3308 5.79597 55.0554 2.79313 55.9859C1.7248 56.3169 0.813891 56.8947 0.859031 58.026C0.92438 58.8524 1.30984 59.6206 1.93327 60.167C2.42113 60.5485 3.40156 60.5393 4.09277 60.3848C10.2823 59.0015 16.1473 56.811 21.5465 53.4061C27.2938 49.7815 31.7678 44.7728 36.6018 39.9976Z" fill="url(#paint3_linear_140_171)"/>
<path d="M39.7639 36.6461C48.4279 28.9465 55.7797 20.5624 58.9456 9.26563C59.4119 7.60187 59.8743 5.93632 60.2944 4.26056C60.725 2.54198 60.1318 1.29776 58.7707 0.935295C57.451 0.583858 56.2443 1.43313 55.8511 3.11952C54.7594 7.80273 53.282 12.3555 50.6217 16.3854C49.3604 18.3492 47.8235 20.1217 46.0582 21.6487C42.3415 24.7575 37.3845 24.8296 33.7357 21.6421C31.5385 19.7623 29.7145 17.4861 28.3589 14.932C26.5392 11.3378 25.4243 7.38663 24.0143 3.58572C23.9266 3.34918 23.9026 3.0898 23.8283 2.84736C23.3788 1.38068 22.2457 0.613266 21.0082 0.930374C19.733 1.25716 19.0596 2.42188 19.4074 3.93871C20.6389 9.30958 22.3098 14.5201 25.069 19.3368C27.4253 23.4489 30.3283 27.2226 33.6986 30.5548C35.7205 32.5599 37.7178 34.5896 39.7639 36.6461Z" fill="url(#paint4_linear_140_171)"/>
<path d="M33.0235 67.4473C33.0192 68.3517 33.1948 69.2479 33.5398 70.0839C33.8849 70.9198 34.3926 71.6789 35.0336 72.317C35.6745 72.955 36.4359 73.4593 37.2734 73.8006C38.111 74.1419 39.008 74.3134 39.9123 74.305C41.7131 74.307 43.4415 73.5961 44.7197 72.3277C45.998 71.0593 46.7221 69.3364 46.734 67.5357C46.7485 66.6313 46.5833 65.733 46.2478 64.893C45.9124 64.053 45.4134 63.288 44.7799 62.6424C44.1464 61.9969 43.391 61.4836 42.5574 61.1323C41.7239 60.7811 40.8289 60.599 39.9244 60.5965C39.02 60.5879 38.1229 60.759 37.2851 61.0996C36.4473 61.4403 35.6854 61.9438 35.0435 62.581C34.4017 63.2182 33.8926 63.9764 33.5459 64.8117C33.1991 65.647 33.0216 66.5429 33.0235 67.4473Z" fill="url(#paint5_linear_140_171)"/>
<path d="M12.3749 46.815C13.2793 46.8209 14.1758 46.6469 15.0124 46.303C15.8489 45.9592 16.6087 45.4524 17.2475 44.8122C17.8864 44.172 18.3915 43.4112 18.7336 42.574C19.0757 41.7367 19.2478 40.8398 19.2401 39.9354C19.2399 39.031 19.0601 38.1356 18.7112 37.3012C18.3622 36.4668 17.851 35.71 17.2073 35.0747C16.5635 34.4395 15.8 33.9384 14.961 33.6006C14.122 33.2628 13.2243 33.0949 12.32 33.1068C10.5193 33.1169 8.79538 33.8379 7.52366 35.1128C6.25193 36.3878 5.53529 38.1134 5.52972 39.9142C5.51965 40.8185 5.68944 41.7158 6.02918 42.554C6.36893 43.3921 6.87184 44.1544 7.50874 44.7965C8.14565 45.4386 8.90382 45.9477 9.73919 46.2942C10.5746 46.6407 11.4705 46.8178 12.3749 46.815Z" fill="url(#paint6_linear_140_171)"/>
<path d="M46.7338 12.4577C46.7358 11.5532 46.5581 10.6573 46.2109 9.82211C45.8637 8.98693 45.3539 8.2291 44.7113 7.59263C44.0687 6.95615 43.3059 6.45371 42.4674 6.11456C41.6289 5.7754 40.7314 5.60627 39.827 5.617C38.9225 5.62064 38.0277 5.80388 37.1945 6.15605C36.3614 6.50822 35.6064 7.02231 34.9735 7.66853C34.3406 8.31475 33.8423 9.08023 33.5076 9.92053C33.1728 10.7608 33.0082 11.6593 33.0234 12.5637C33.0405 14.3642 33.7682 16.0851 35.048 17.3518C36.3278 18.6184 38.0561 19.3283 39.8567 19.3268C40.7612 19.3339 41.658 19.1612 42.4951 18.8186C43.3321 18.476 44.0927 17.9705 44.7327 17.3313C45.3726 16.6921 45.879 15.9321 46.2226 15.0954C46.5661 14.2587 46.7399 13.3621 46.7338 12.4577Z" fill="url(#paint7_linear_140_171)"/>
<defs>
<linearGradient id="paint0_linear_140_171" x1="44.4995" y1="40.5" x2="86.4995" y2="39.5" gradientUnits="userSpaceOnUse">
<stop stop-color="#212121"/>
<stop offset="1" stop-color="#9D16FF"/>
</linearGradient>
<linearGradient id="paint1_linear_140_171" x1="61.0013" y1="40.1399" x2="77.1006" y2="39.6992" gradientUnits="userSpaceOnUse">
<stop stop-color="#212121"/>
<stop offset="1" stop-color="#9D16FF"/>
</linearGradient>
<linearGradient id="paint2_linear_140_171" x1="11.0117" y1="65.9495" x2="39.2475" y2="41.0955" gradientUnits="userSpaceOnUse">
<stop stop-color="#F595FF"/>
<stop offset="1" stop-color="#9C15FF"/>
</linearGradient>
<linearGradient id="paint3_linear_140_171" x1="-6.38053" y1="45.4173" x2="23.7953" y2="25.3029" gradientUnits="userSpaceOnUse">
<stop stop-color="#F595FF"/>
<stop offset="1" stop-color="#9C15FF"/>
</linearGradient>
<linearGradient id="paint4_linear_140_171" x1="10.9907" y1="23.5093" x2="39.2604" y2="-1.35206" gradientUnits="userSpaceOnUse">
<stop stop-color="#F595FF"/>
<stop offset="1" stop-color="#9C15FF"/>
</linearGradient>
<linearGradient id="paint5_linear_140_171" x1="30.247" y1="69.2732" x2="40.7871" y2="61.2035" gradientUnits="userSpaceOnUse">
<stop stop-color="#F595FF"/>
<stop offset="1" stop-color="#9C15FF"/>
</linearGradient>
<linearGradient id="paint6_linear_140_171" x1="2.75293" y1="41.7832" x2="13.2929" y2="33.7137" gradientUnits="userSpaceOnUse">
<stop stop-color="#F595FF"/>
<stop offset="1" stop-color="#9C15FF"/>
</linearGradient>
<linearGradient id="paint7_linear_140_171" x1="30.246" y1="14.2944" x2="40.7869" y2="6.2248" gradientUnits="userSpaceOnUse">
<stop stop-color="#F595FF"/>
<stop offset="1" stop-color="#9C15FF"/>
</linearGradient>
</defs>
</svg>
