<svg width="77" height="79" viewBox="0 0 77 79" fill="none" xmlns="http://www.w3.org/2000/svg">
<path d="M39.9573 16.8248C39.8981 18.5305 39.6227 20.0213 41.8743 21.1446C45.2098 22.8052 44.8473 27.7143 41.5641 29.5483C41.0622 29.8291 40.5219 30.0406 39.9225 30.3179C39.9225 31.0113 39.9678 31.7047 39.912 32.3877C39.8074 33.6774 39.8737 34.7209 41.4944 35.1404C41.8773 35.275 42.2288 35.4854 42.5277 35.7589C42.8266 36.0324 43.0668 36.3633 43.2336 36.7317C43.8121 38.1566 44.7845 38.3057 46.1125 38.2641C48.8868 38.1808 51.6681 38.2017 54.446 38.1912V39.9143H53.9092C51.588 39.9143 49.2632 39.9698 46.942 39.897C45.3213 39.845 43.9515 39.7964 43.4462 41.8835C43.251 42.6843 42.2472 43.6308 41.4246 43.8665C39.7482 44.345 39.9399 45.4579 39.9015 46.6747C39.8632 47.9436 39.9085 48.8693 41.449 49.4552C43.3311 50.1693 44.1816 51.9167 44.1363 53.9275C44.0944 55.9417 43.1604 57.6266 41.2504 58.2888C39.4345 58.9163 40.0131 60.2129 39.9259 61.3743C39.8527 62.3728 39.8249 63.2811 41.1842 63.6243C41.9173 63.8281 42.5398 64.3115 42.9164 64.9695C43.6657 66.5573 44.9205 66.5573 46.3564 66.5296C48.9983 66.4776 51.6403 66.5019 54.446 66.5088V68.211C51.236 68.2076 48.1061 68.1937 44.9762 68.2561C44.6521 68.2596 44.1572 68.8143 44.0561 69.1956C43.5891 70.9534 42.5225 72.087 40.8984 72.874C40.4348 73.0959 40.034 73.8413 39.9643 74.389C39.8179 75.5262 39.9817 76.7015 39.8771 77.8455C39.8388 78.2512 39.3892 78.6186 39.1278 79C38.8063 78.6746 38.5307 78.3072 38.3087 77.9079C38.2112 77.514 38.1993 77.1038 38.2739 76.7049C38.4272 74.7253 38.2669 73.2554 36.0746 72.0004C32.7914 70.1248 33.4745 65.1186 37.0645 63.6001C38.4586 63.0107 38.3018 62.1371 38.2564 61.1386C38.2077 60.0847 38.6468 59.0099 37.061 58.3061C35.7644 57.7306 34.8512 56.3058 33.2793 54.7838H22.4189V52.8978H34.0775C34.6038 50.731 36.0676 49.372 38.2704 48.7618C38.2704 47.9644 38.2146 47.2676 38.2808 46.5846C38.4133 45.2637 38.1101 44.5079 36.6915 43.8388C33.2445 42.2232 33.0249 37.0853 36.4057 35.3796C38.2495 34.447 38.3715 33.3133 38.2739 31.7324C38.246 31.2748 38.2704 30.8137 37.8591 30.6542C36.702 29.4443 35.5623 28.217 34.3807 27.0313C34.1248 26.7502 33.7786 26.5663 33.4013 26.5113C29.8253 26.4732 26.2494 26.487 22.4189 26.487V24.8195C26.1587 24.8195 29.78 24.8403 33.4013 24.7813C33.6802 24.7744 34.081 24.2405 34.1995 23.8765C34.4415 23.1031 34.8514 22.3921 35.4 21.7937C35.9487 21.1952 36.6228 20.7239 37.3747 20.413C37.5993 20.2847 37.7924 20.1084 37.9401 19.8967C38.0878 19.6851 38.1863 19.4434 38.2286 19.1892C38.3296 17.4697 38.5283 16.0101 36.2977 14.8799C32.9064 13.1638 33.3316 8.08132 36.8135 6.44149C38.0508 5.85905 38.4028 5.2038 38.2913 3.96959C38.2105 2.93265 38.2257 1.89051 38.3366 0.856322C38.3645 0.551236 38.7758 0.284285 39.0093 0C39.3021 0.284285 39.8214 0.551243 39.8493 0.863263C39.9538 2.12521 39.8318 3.40795 39.9608 4.66643C40.0096 5.17606 40.3686 5.90759 40.7833 6.0844C41.606 6.41488 42.337 6.93682 42.9149 7.60642C43.4929 8.27602 43.901 9.07373 44.1049 9.93263H54.446V11.8602H44.1258C43.5472 13.6179 42.5225 14.9839 40.6648 15.6634C40.4651 15.7899 40.2974 15.9605 40.1747 16.1619C40.052 16.3633 39.9776 16.5902 39.9573 16.8248Z" fill="url(#paint0_linear_140_187)"/>
<rect y="19.3713" width="22.8517" height="12.8108" rx="2" fill="url(#paint1_linear_140_187)"/>
<rect y="47.4166" width="22.8517" height="12.8108" rx="2" fill="url(#paint2_linear_140_187)"/>
<rect x="54.4463" y="4.27026" width="22.4189" height="12.8108" rx="2" fill="url(#paint3_linear_140_187)"/>
<rect x="54.4463" y="32.027" width="22.4189" height="12.8108" rx="2" fill="url(#paint4_linear_140_187)"/>
<rect x="54.4463" y="59.7838" width="22.4189" height="12.8108" rx="2" fill="url(#paint5_linear_140_187)"/>
<defs>
<linearGradient id="paint0_linear_140_187" x1="22.4189" y1="4.80405" x2="66.1892" y2="92.8784" gradientUnits="userSpaceOnUse">
<stop stop-color="#212121"/>
<stop offset="1" stop-color="#9C15FF"/>
</linearGradient>
<linearGradient id="paint1_linear_140_187" x1="-7.96348" y1="21.8684" x2="1.56228" y2="40.3187" gradientUnits="userSpaceOnUse">
<stop stop-color="#F595FF"/>
<stop offset="1" stop-color="#9C15FF"/>
</linearGradient>
<linearGradient id="paint2_linear_140_187" x1="-7.96348" y1="49.9136" x2="1.56228" y2="68.364" gradientUnits="userSpaceOnUse">
<stop stop-color="#F595FF"/>
<stop offset="1" stop-color="#9C15FF"/>
</linearGradient>
<linearGradient id="paint3_linear_140_187" x1="35.2301" y1="7.37288" x2="38.3856" y2="22.2351" gradientUnits="userSpaceOnUse">
<stop stop-color="#F595FF"/>
<stop offset="1" stop-color="#9C15FF"/>
</linearGradient>
<linearGradient id="paint4_linear_140_187" x1="35.2301" y1="35.1296" x2="38.3856" y2="49.9919" gradientUnits="userSpaceOnUse">
<stop stop-color="#F595FF"/>
<stop offset="1" stop-color="#9C15FF"/>
</linearGradient>
<linearGradient id="paint5_linear_140_187" x1="35.2301" y1="62.8864" x2="38.3856" y2="77.7487" gradientUnits="userSpaceOnUse">
<stop stop-color="#F595FF"/>
<stop offset="1" stop-color="#9C15FF"/>
</linearGradient>
</defs>
</svg>
