<svg width="66" height="79" viewBox="0 0 66 79" fill="none" xmlns="http://www.w3.org/2000/svg">
<path d="M58.7793 37.0777C55.3545 34.2994 51.4828 33.1811 47.1271 34.1823C44.0732 34.8665 41.3887 36.6749 39.6073 39.2481C35.5814 44.8591 36.6219 51.4433 42.4894 57.2138C42.0649 57.4547 41.6723 57.6939 41.2654 57.9058C35.6843 60.8129 32.1772 65.3429 30.7895 71.4662C30.5749 72.4128 30.2415 72.6886 29.3092 72.6819C23.7731 72.6424 18.2358 72.7242 12.7009 72.6411C5.87324 72.5386 0.145864 67.0581 0.0924898 60.2351C-0.0323001 44.2787 -0.0308122 28.3216 0.096952 12.3637C0.153778 5.55434 5.93687 0.0833918 12.7767 0.0464628C23.9032 -0.0137177 35.0299 -0.0154336 46.1569 0.041295C49.4878 0.0229262 52.6934 1.30947 55.0873 3.62546C57.4813 5.94144 58.8732 9.10272 58.9651 12.4323C59.1837 20.5133 59.0148 28.6047 59.0072 36.6916C59.0069 36.7755 58.9117 36.8593 58.7793 37.0777ZM29.435 12.9833C25.0959 12.9833 20.7568 12.9745 16.4179 12.9871C14.3295 12.9932 13.1711 13.9232 13.1613 15.5463C13.1516 17.1664 14.3496 18.1755 16.3899 18.1784C25.1222 18.1909 33.8545 18.1912 42.5868 18.1792C44.6645 18.1766 45.8147 17.2233 45.8245 15.5784C45.8344 13.9238 44.7075 12.9939 42.6147 12.9877C38.2215 12.9748 33.8282 12.9838 29.435 12.9833ZM29.4008 31.9965C33.7946 31.9965 38.1885 31.9956 42.5824 31.9938C44.683 31.9895 45.819 31.0805 45.8253 29.4388C45.8316 27.7895 44.67 26.8014 42.6212 26.7986C33.8877 26.7866 25.1542 26.7864 16.4207 26.7979C14.3621 26.8005 13.1764 27.7758 13.1622 29.3992C13.148 31.0336 14.3131 31.9885 16.3818 31.9933C20.7214 32.0035 25.0611 31.9964 29.4008 31.9965ZM22.1176 40.6934C20.0601 40.6934 18.0023 40.6672 15.9454 40.7017C14.2534 40.73 13.1829 41.7347 13.161 43.2222C13.1397 44.6827 14.2188 45.8431 15.869 45.8661C19.983 45.9234 24.0992 45.9287 28.2129 45.8592C28.5683 45.8739 28.9228 45.8128 29.2527 45.6797C29.5827 45.5467 29.8805 45.3449 30.1263 45.0877C30.3721 44.8306 30.5603 44.5241 30.6784 44.1885C30.7964 43.8529 30.8416 43.496 30.8109 43.1415C30.7538 41.6959 29.7436 40.7358 28.1272 40.7033C26.1249 40.663 24.1209 40.6936 22.1176 40.6934Z" fill="url(#paint0_linear_140_182)"/>
<path d="M50.0228 78.2066C45.8468 78.2066 41.6707 78.2147 37.4947 78.2036C35.084 78.197 34.1935 77.2425 34.2701 74.8005C34.5333 66.4124 41.7793 59.5816 50.3203 59.6703C58.7748 59.758 65.8474 66.6807 65.9982 75.016C66.0383 77.2259 65.1112 78.1942 62.8762 78.2022C58.5918 78.2174 54.3073 78.2065 50.0228 78.2066Z" fill="url(#paint1_linear_140_182)"/>
<path d="M50.0478 37.7457C51.2304 37.7277 52.4047 37.9453 53.5023 38.3858C54.5998 38.8263 55.5987 39.481 56.4407 40.3116C57.2827 41.1421 57.9509 42.132 58.4063 43.2235C58.8617 44.315 59.0953 45.4862 59.0934 46.6689C59.1102 49.0468 58.1822 51.3342 56.5134 53.0283C54.8446 54.7224 52.5716 55.6847 50.1936 55.7038C47.8157 55.7229 45.5275 54.7971 43.8317 53.13C42.136 51.4629 41.1714 49.1907 41.15 46.8128C41.1279 45.6303 41.3416 44.4552 41.7788 43.3562C42.216 42.2572 42.8679 41.2564 43.6963 40.4122C44.5247 39.568 45.5131 38.8974 46.6036 38.4395C47.6942 37.9817 48.8651 37.7458 50.0478 37.7457Z" fill="url(#paint2_linear_140_182)"/>
<defs>
<linearGradient id="paint0_linear_140_182" x1="-4.39845" y1="14.3319" x2="49.1713" y2="65.1336" gradientUnits="userSpaceOnUse">
<stop stop-color="#F595FF"/>
<stop offset="1" stop-color="#9C15FF"/>
</linearGradient>
<linearGradient id="paint1_linear_140_182" x1="32.9995" y1="67.5756" x2="56.6676" y2="98.3494" gradientUnits="userSpaceOnUse">
<stop stop-color="#212121"/>
<stop offset="1" stop-color="#A826FF"/>
</linearGradient>
<linearGradient id="paint2_linear_140_182" x1="40.4325" y1="45.4029" x2="63.2794" y2="62.7453" gradientUnits="userSpaceOnUse">
<stop stop-color="#212121"/>
<stop offset="1" stop-color="#A826FF"/>
</linearGradient>
</defs>
</svg>
