<svg width="71" height="72" viewBox="0 0 71 72" fill="none" xmlns="http://www.w3.org/2000/svg">
<path d="M15.6974 0.0158213C18.8864 0.0160342 22.0755 -0.00712877 25.2642 0.0221453C28.8886 0.0554291 31.2236 2.39622 31.2387 6.04576C31.265 12.426 31.2652 18.8064 31.2394 25.1869C31.2252 28.9267 28.8885 31.2424 25.1291 31.2546C18.8104 31.2753 12.4915 31.2755 6.1726 31.2552C2.32184 31.2438 0.02795 28.9278 0.0180145 25.0516C0.00197589 18.7894 0.00180895 12.5272 0.0175164 6.26498C0.0266712 2.29233 2.31045 0.0336985 6.30773 0.0179437C9.43757 0.00573734 12.5675 0.0156084 15.6974 0.0158213Z" fill="url(#paint0_linear_140_162)"/>
<path d="M55.4396 0.0156992C58.6286 0.0159121 61.8177 -0.00725084 65.0064 0.0220232C68.6308 0.055307 70.9658 2.3961 70.9809 6.04564C71.0071 12.4259 71.0074 18.8063 70.9816 25.1868C70.9674 28.9265 68.6308 31.2423 64.8713 31.2545C58.5525 31.2752 52.2337 31.2754 45.9148 31.2551C42.064 31.2437 39.7701 28.9277 39.7602 25.0515C39.7442 18.7893 39.744 12.5271 39.7597 6.26486C39.7689 2.2922 42.0526 0.0335765 46.0499 0.0178217C49.1798 0.00561527 52.3097 0.0154863 55.4396 0.0156992Z" fill="url(#paint1_linear_140_162)"/>
<path d="M0.0138314 55.3044C0.0138314 52.1733 -0.00150244 49.0421 0.0177297 45.9111C0.0409006 42.1437 2.34078 39.7937 6.06416 39.7799C12.442 39.756 18.8198 39.756 25.1977 39.7799C28.8544 39.7935 31.2195 42.1161 31.2371 45.737C31.2682 52.1763 31.2682 58.6157 31.2371 65.0552C31.2195 68.6732 28.8517 70.9972 25.1946 71.0109C18.8169 71.0349 12.439 71.0349 6.06108 71.0108C2.33951 70.9963 0.0415075 68.6447 0.0179463 64.8749C-0.00213748 61.6848 0.0138314 58.4946 0.0138314 55.3044Z" fill="url(#paint2_linear_140_162)"/>
<path d="M55.478 39.7749C59.6024 39.8067 63.547 41.4676 66.452 44.3955C69.357 47.3234 70.9868 51.281 70.9862 55.4055C70.983 57.4632 70.5735 59.5 69.7812 61.3991C68.989 63.2981 67.8295 65.022 66.3694 66.4719C64.9093 67.9219 63.1773 69.0692 61.2728 69.8482C59.3682 70.6271 57.3286 71.0224 55.271 71.0112C51.146 70.9793 47.201 69.3182 44.2955 66.39C41.39 63.4619 39.7597 59.504 39.7598 55.3789C39.7635 53.3212 40.1734 51.2845 40.9661 49.3855C41.7587 47.4866 42.9184 45.7628 44.3788 44.3131C45.8391 42.8634 47.5713 41.7162 49.4759 40.9375C51.3806 40.1587 53.4203 39.7636 55.478 39.7749Z" fill="url(#paint3_linear_140_162)"/>
<defs>
<linearGradient id="paint0_linear_140_162" x1="-5.46127" y1="5.55226" x2="29.6838" y2="23.5944" gradientUnits="userSpaceOnUse">
<stop stop-color="#F595FF"/>
<stop offset="1" stop-color="#9C15FF"/>
</linearGradient>
<linearGradient id="paint1_linear_140_162" x1="34.2809" y1="5.55214" x2="69.426" y2="23.5942" gradientUnits="userSpaceOnUse">
<stop stop-color="#F595FF"/>
<stop offset="1" stop-color="#9C15FF"/>
</linearGradient>
<linearGradient id="paint2_linear_140_162" x1="-5.45929" y1="45.3076" x2="29.6875" y2="63.3482" gradientUnits="userSpaceOnUse">
<stop stop-color="#F595FF"/>
<stop offset="1" stop-color="#9C15FF"/>
</linearGradient>
<linearGradient id="paint3_linear_140_162" x1="40.001" y1="49.5" x2="75.501" y2="73.5" gradientUnits="userSpaceOnUse">
<stop stop-color="#212121"/>
<stop offset="1" stop-color="#9D16FF"/>
</linearGradient>
</defs>
</svg>
