<svg width="79" height="79" viewBox="0 0 79 79" fill="none" xmlns="http://www.w3.org/2000/svg">
<path d="M42.3779 39.0897C49.0777 46.3921 56.0665 53.128 65.4707 56.6073C68.6687 57.7649 71.9239 58.7578 75.2235 59.582C77.1635 60.0809 78.7736 58.2615 77.8967 56.6577C77.4981 55.9287 76.5268 55.3585 75.692 55.0499C72.6957 53.9424 69.5434 53.2047 66.6485 51.8903C64.0489 50.739 61.6161 49.2429 59.4157 47.4424C53.5069 42.483 53.5896 35.7512 59.4336 30.6777C63.1543 27.4474 67.6089 25.5975 72.2471 24.1432C73.4579 23.7635 74.7004 23.4861 75.9225 23.1408C77.5339 22.6855 78.354 21.5989 78.077 20.322C77.7749 18.9298 76.5819 18.2743 74.842 18.6555C65.3562 20.7341 56.8851 24.8076 49.8315 31.5779C47.3043 34.0035 44.892 36.549 42.3779 39.0897Z" fill="white"/>
<path d="M66.464 45.9586C67.3684 45.9705 68.2661 45.8022 69.1048 45.4637C69.9435 45.1252 70.7065 44.6231 71.3493 43.9868C71.9921 43.3505 72.5019 42.5926 72.8489 41.7573C73.1959 40.922 73.3732 40.026 73.3706 39.1216C73.3766 38.2171 73.2029 37.3205 72.8595 36.4838C72.5161 35.6471 72.0098 34.887 71.3701 34.2476C70.7305 33.6083 69.9701 33.1024 69.1332 32.7594C68.2963 32.4164 67.3996 32.2431 66.4952 32.2496C64.6947 32.2496 62.9669 32.96 61.6871 34.2264C60.4073 35.4929 59.6789 37.2132 59.6602 39.0136C59.6449 39.918 59.8094 40.8164 60.1441 41.6567C60.4789 42.4969 60.9772 43.2624 61.6102 43.9085C62.2432 44.5546 62.9982 45.0685 63.8314 45.4205C64.6646 45.7724 65.5595 45.9553 66.464 45.9586Z" fill="white"/>
<path d="M39.1926 42.47C28.9266 51.1123 21.383 61.3139 18.6247 74.5604C18.5936 74.7097 18.5698 74.8605 18.5445 75.0109C18.2644 76.676 18.8655 77.8268 20.1825 78.1473C21.4609 78.4585 22.586 77.6322 23.0329 76.0529C23.5857 74.0997 24.0405 72.1124 24.7102 70.2003C26.043 66.395 27.7521 62.7699 30.4023 59.6675C35.5729 53.6142 42.5215 53.5972 47.6492 59.6901C51.5069 64.2741 53.4592 69.7639 54.8896 75.4776C54.9635 75.773 55.0262 76.0723 55.1214 76.3609C55.5725 77.7279 56.6898 78.4449 57.8812 78.1427C59.1078 77.8316 59.7647 76.75 59.5289 75.2946C59.3913 74.4451 59.1434 73.6131 58.9374 72.7752C56.6707 63.3214 51.7284 54.7208 44.7017 48.0024C42.8096 46.1733 40.9853 44.2739 39.1926 42.47Z" fill="url(#paint0_linear_343_3281)"/>
<path d="M35.7444 39.1408C29.6112 32.7241 23.6614 26.3659 15.5119 22.8755C11.5635 21.1845 7.3914 20.0045 3.28627 18.701C2.59556 18.4817 1.53203 18.5529 0.999267 18.9595C0.427842 19.3956 -0.152924 20.5446 0.0494415 21.0971C0.440104 21.981 1.15663 22.6801 2.04986 23.0489C5.45737 24.3474 9.02852 25.2477 12.36 26.7042C14.6749 27.7506 16.8245 29.1295 18.7409 30.7972C24.4243 35.6604 24.481 42.5502 18.7688 47.3602C16.3682 49.312 13.7161 50.9323 10.8838 52.1775C8.04329 53.474 4.93855 54.1985 1.93571 55.1291C0.867379 55.4601 -0.0435307 56.0378 0.00160912 57.1692C0.0669584 57.9956 0.452416 58.7638 1.07584 59.3101C1.56371 59.6917 2.54414 59.6825 3.23535 59.528C9.42485 58.1447 15.2899 55.9542 20.6891 52.5493C26.4364 48.9247 30.9104 43.916 35.7444 39.1408Z" fill="url(#paint1_linear_343_3281)"/>
<path d="M38.9065 35.7893C47.5705 28.0897 54.9222 19.7056 58.0882 8.40882C58.5545 6.74506 59.0169 5.07951 59.437 3.40375C59.8676 1.68517 59.2744 0.440945 57.9133 0.0784836C56.5936 -0.272953 55.3868 0.576317 54.9937 2.26271C53.9019 6.94592 52.4246 11.4987 49.7643 15.5286C48.5029 17.4924 46.9661 19.2649 45.2008 20.7919C41.4841 23.9007 36.5271 23.9728 32.8783 20.7853C30.6811 18.9055 28.8571 16.6293 27.5015 14.0752C25.6818 10.4809 24.5668 6.52982 23.1569 2.72891C23.0692 2.49237 23.0452 2.23299 22.9709 1.99055C22.5213 0.523872 21.3883 -0.243546 20.1507 0.0735626C18.8756 0.400352 18.2022 1.56507 18.55 3.0819C19.7815 8.45277 21.4524 13.6633 24.2115 18.48C26.5679 22.5921 29.4709 26.3658 32.8412 29.698C34.863 31.7031 36.8604 33.7328 38.9065 35.7893Z" fill="url(#paint2_linear_343_3281)"/>
<path d="M32.1656 66.5902C32.1613 67.4946 32.3368 68.3908 32.6819 69.2268C33.027 70.0628 33.5347 70.8219 34.1757 71.4599C34.8166 72.098 35.578 72.6023 36.4155 72.9436C37.2531 73.2849 38.15 73.4563 39.0544 73.448C40.8552 73.45 42.5836 72.7391 43.8618 71.4706C45.14 70.2022 45.8642 68.4794 45.8761 66.6786C45.8906 65.7742 45.7254 64.876 45.3899 64.036C45.0545 63.196 44.5555 62.431 43.922 61.7854C43.2885 61.1398 42.5331 60.6265 41.6995 60.2753C40.866 59.9241 39.971 59.7419 39.0665 59.7394C38.1621 59.7309 37.265 59.9019 36.4272 60.2426C35.5894 60.5832 34.8275 61.0867 34.1856 61.7239C33.5437 62.3611 33.0347 63.1193 32.688 63.9547C32.3412 64.79 32.1637 65.6858 32.1656 66.5902Z" fill="url(#paint3_linear_343_3281)"/>
<path d="M11.5175 45.9581C12.4219 45.964 13.3184 45.7899 14.1549 45.4461C14.9914 45.1022 15.7512 44.5955 16.3901 43.9553C17.0289 43.3151 17.5341 42.5543 17.8762 41.717C18.2182 40.8798 18.3904 39.9829 18.3826 39.0785C18.3825 38.174 18.2027 37.2787 17.8538 36.4443C17.5048 35.6099 16.9936 34.8531 16.3499 34.2178C15.7061 33.5825 14.9426 33.0815 14.1036 32.7437C13.2646 32.4058 12.3669 32.238 11.4626 32.2499C9.66183 32.26 7.93796 32.981 6.66623 34.2559C5.39451 35.5308 4.67787 37.2565 4.6723 39.0572C4.66223 39.9616 4.83202 40.8589 5.17176 41.697C5.5115 42.5352 6.01442 43.2975 6.65132 43.9396C7.28823 44.5817 8.0464 45.0908 8.88177 45.4373C9.71714 45.7838 10.6131 45.9608 11.5175 45.9581Z" fill="url(#paint4_linear_343_3281)"/>
<path d="M45.8764 11.6006C45.8784 10.6961 45.7007 9.80024 45.3535 8.96505C45.0063 8.12987 44.4965 7.37205 43.8539 6.73557C43.2112 6.09909 42.4485 5.59665 41.61 5.2575C40.7715 4.91835 39.874 4.74922 38.9696 4.75994C38.0651 4.76359 37.1703 4.94683 36.3371 5.299C35.504 5.65117 34.749 6.16526 34.1161 6.81148C33.4832 7.4577 32.9849 8.22317 32.6501 9.06348C32.3154 9.90378 32.1508 10.8022 32.166 11.7066C32.1831 13.5072 32.9108 15.2281 34.1905 16.4947C35.4703 17.7614 37.1987 18.4712 38.9993 18.4698C39.9038 18.4769 40.8006 18.3042 41.6376 17.9616C42.4747 17.619 43.2353 17.1134 43.8752 16.4742C44.5152 15.835 45.0216 15.075 45.3652 14.2383C45.7087 13.4016 45.8825 12.505 45.8764 11.6006Z" fill="url(#paint5_linear_343_3281)"/>
<defs>
<linearGradient id="paint0_linear_343_3281" x1="18.4771" y1="46.9377" x2="47.9603" y2="83.6024" gradientUnits="userSpaceOnUse">
<stop offset="0.479167" stop-color="#F5478E"/>
<stop offset="0.981593" stop-color="#B347F5"/>
</linearGradient>
<linearGradient id="paint1_linear_343_3281" x1="4.35105e-06" y1="23.7103" x2="34.6059" y2="56.2997" gradientUnits="userSpaceOnUse">
<stop offset="0.479167" stop-color="#F5478E"/>
<stop offset="0.981593" stop-color="#B347F5"/>
</linearGradient>
<linearGradient id="paint2_linear_343_3281" x1="18.459" y1="4.4738" x2="47.9867" y2="41.1607" gradientUnits="userSpaceOnUse">
<stop offset="0.479167" stop-color="#F5478E"/>
<stop offset="0.981593" stop-color="#B347F5"/>
</linearGradient>
<linearGradient id="paint3_linear_343_3281" x1="32.1655" y1="61.4527" x2="43.7082" y2="73.938" gradientUnits="userSpaceOnUse">
<stop offset="0.479167" stop-color="#F5478E"/>
<stop offset="0.981593" stop-color="#B347F5"/>
</linearGradient>
<linearGradient id="paint4_linear_343_3281" x1="4.67188" y1="33.9629" x2="16.2144" y2="46.4478" gradientUnits="userSpaceOnUse">
<stop offset="0.479167" stop-color="#F5478E"/>
<stop offset="0.981593" stop-color="#B347F5"/>
</linearGradient>
<linearGradient id="paint5_linear_343_3281" x1="32.165" y1="6.47327" x2="43.7089" y2="18.9587" gradientUnits="userSpaceOnUse">
<stop offset="0.479167" stop-color="#F5478E"/>
<stop offset="0.981593" stop-color="#B347F5"/>
</linearGradient>
</defs>
</svg>
