<svg width="87" height="74" viewBox="0 0 87 74" fill="none" xmlns="http://www.w3.org/2000/svg">
<path d="M36.1906 62.6992C36.4869 62.6889 36.7676 62.564 36.9736 62.3508C37.1796 62.1375 37.2947 61.8526 37.2947 61.5561C37.2947 61.2597 37.1796 60.9747 36.9736 60.7615C36.7676 60.5483 36.4869 60.4234 36.1906 60.4131C35.8942 60.4234 35.6135 60.5483 35.4075 60.7615C35.2016 60.9747 35.0864 61.2597 35.0864 61.5561C35.0864 61.8526 35.2016 62.1375 35.4075 62.3508C35.6135 62.564 35.8942 62.6889 36.1906 62.6992Z" fill="#232323"/>
<path d="M67.3409 6.0037C67.1635 6.6227 67.0922 6.95365 66.9751 7.26768C65.6161 10.9159 64.2445 14.5596 62.8902 18.2096C62.7947 18.6265 62.5583 18.9977 62.221 19.2607C61.8837 19.5237 61.4661 19.6623 61.0385 19.6533C60.0294 19.6418 59.021 18.7814 59.3324 17.882C60.8108 13.613 62.3977 9.3829 64.0932 5.19174C64.2557 4.78961 65.4617 4.52351 66.0669 4.67112C66.6039 4.80204 66.9788 5.59669 67.3409 6.0037Z" fill="white"/>
<path d="M27.4613 18.1338C27.0693 18.5549 26.6635 19.3615 26.0967 19.4978C25.5053 19.6399 24.7296 19.1951 24.0951 18.8835C23.8597 18.768 23.7759 18.3099 23.6574 17.9951C22.3303 14.4711 21.0083 10.9452 19.6914 7.41738C19.1817 6.0451 19.4994 5.01109 20.5044 4.61109C21.6217 4.16629 22.5504 4.69728 23.0938 6.13959C24.4065 9.62368 25.709 13.1117 27.0012 16.6035C27.1474 16.996 27.2448 17.4067 27.4613 18.1338Z" fill="white"/>
<path d="M1.71846 15.6431C2.32606 15.9635 2.89555 16.3515 3.41612 16.7998C6.02671 19.7507 8.59985 22.735 11.1657 25.7251C11.9832 26.6776 11.9633 27.7368 11.1891 28.4403C10.3509 29.2019 9.31652 29.0892 8.42341 28.0658C5.83248 25.0973 3.22877 22.1382 0.721589 19.1C0.517301 18.8037 0.374269 18.4696 0.300896 18.1172C0.227522 17.7649 0.225262 17.4015 0.294291 17.0483C0.407454 16.5398 1.15006 16.1713 1.71846 15.6431Z" fill="white"/>
<path d="M76.5598 29.1958C75.9654 28.7045 75.2256 28.3916 75.1054 27.9207C75.0162 27.5734 74.9971 27.2118 75.0491 26.857C75.1011 26.5023 75.2233 26.1614 75.4085 25.8544C76.9126 23.918 78.5751 22.1045 80.1803 20.2467C81.1766 19.0935 82.1629 17.9313 83.1772 16.7941C84.0554 15.8097 85.1546 15.6756 85.9514 16.4138C86.1361 16.5896 86.2826 16.8014 86.3818 17.0362C86.481 17.271 86.5309 17.5237 86.5283 17.7786C86.5257 18.0335 86.4707 18.2851 86.3667 18.5178C86.2627 18.7506 86.112 18.9594 85.9238 19.1314C83.3857 22.0851 80.843 25.0354 78.2625 27.9519C77.7388 28.4234 77.1682 28.8402 76.5598 29.1958Z" fill="white"/>
<path d="M45.0834 8.61624C45.0834 10.5221 45.0966 12.4281 45.079 14.3338C45.0664 15.6895 44.3749 16.4874 43.2769 16.476C42.1842 16.4648 41.4951 15.6611 41.4907 14.3119C41.478 10.4153 41.4784 6.51875 41.4918 2.6222C41.497 1.26577 42.1912 0.474696 43.2925 0.479268C44.3837 0.48384 45.0666 1.28573 45.0788 2.64399C45.0966 4.63497 45.0834 6.62564 45.0834 8.61624Z" fill="white"/>
<path d="M52.262 58.7284C50.4292 58.3597 48.5617 58.1667 46.721 57.8313C46.3029 57.7335 45.9407 57.4736 45.7141 57.1087C44.8575 55.52 44.0777 53.8897 43.2814 52.2689C42.9658 51.6266 42.6241 51.0466 41.7817 51.054C40.9305 51.0616 40.6276 51.6789 40.3162 52.3128C39.5346 53.9042 38.7733 55.5072 37.9272 57.064C37.6905 57.4558 37.3088 57.7383 36.8649 57.8502C35.026 58.1931 33.1572 58.381 31.3249 58.7502C31.0356 58.8053 30.7617 58.9223 30.522 59.0932C30.2822 59.2641 30.0822 59.4848 29.9358 59.7403C29.9008 60.0304 29.9297 60.3247 30.0204 60.6026C30.1111 60.8804 30.2614 61.135 30.4608 61.3487C31.6373 62.632 32.8773 63.8555 34.1762 65.0147C34.4642 65.2491 34.6752 65.5644 34.7822 65.9199C34.8891 66.2755 34.8869 66.6549 34.7759 67.0092C34.4165 68.8104 34.1516 70.6303 33.8556 72.3975C33.7994 73.7186 34.8531 74.3795 36.0758 73.7737C37.7817 72.9285 39.4399 71.9864 41.1554 71.1625C41.5809 70.9896 42.0576 70.9926 42.4809 71.1707C44.138 71.965 45.7253 72.9082 47.3968 73.6675C47.6771 73.7942 47.9812 73.8593 48.2888 73.8584C48.5964 73.8576 48.9003 73.7908 49.1799 73.6626C49.3731 73.441 49.5154 73.1798 49.5969 72.8974C49.6784 72.6149 49.6971 72.318 49.6516 72.0275C49.4258 70.2048 49.0184 68.4049 48.7685 66.5842C48.7314 66.1241 48.8785 65.6682 49.1774 65.3165C50.4657 63.9595 51.8704 62.7117 53.1362 61.3355C53.3357 61.1195 53.4854 60.8624 53.5746 60.5822C53.6639 60.3021 53.6905 60.0058 53.6527 59.7142C53.5058 59.4593 53.3054 59.2391 53.0653 59.0689C52.8252 58.8988 52.5512 58.7826 52.262 58.7284Z" fill="url(#paint0_linear_343_3256)"/>
<path d="M35.0922 37.0728C35.3511 37.268 35.5449 37.537 35.6479 37.8444C35.7509 38.1519 35.7584 38.4833 35.6693 38.795C35.3698 40.1728 35.1611 41.571 34.9374 42.9644C34.8791 43.1919 34.8748 43.43 34.925 43.6595C34.9751 43.889 35.0784 44.1036 35.2263 44.2861C35.3743 44.4686 35.5629 44.6139 35.777 44.7104C35.9912 44.807 36.225 44.852 36.4597 44.842C36.6502 44.7633 36.9905 44.6492 37.3062 44.4867C38.5318 43.8559 39.7695 43.2441 40.9619 42.5548C41.2169 42.3841 41.5173 42.294 41.8241 42.2961C42.1309 42.2982 42.43 42.3925 42.6826 42.5667C43.8677 43.2707 45.0912 43.9082 46.3472 44.4761C46.8955 44.7055 47.5085 44.7279 48.072 44.5391C48.7675 44.2554 48.7374 43.4875 48.6223 42.8093C48.3918 41.4513 48.1869 40.0881 47.9164 38.7382C47.8333 38.4581 47.8347 38.1598 47.9204 37.8806C48.0062 37.6014 48.1723 37.3536 48.3982 37.1684C49.4182 36.242 50.375 35.2464 51.3657 34.2879C51.6371 34.0986 51.844 33.8307 51.9585 33.5203C52.0729 33.2098 52.0895 32.8718 52.0058 32.5517C51.7559 31.7738 51.1087 31.5839 50.389 31.4853C48.9915 31.294 47.5899 31.1162 46.2067 30.8469C45.7906 30.7517 45.4277 30.4986 45.1946 30.1411C44.4754 28.8528 43.9079 27.478 43.1591 26.209C43.0167 25.9543 42.8216 25.733 42.587 25.5596C42.3523 25.3863 42.0834 25.2649 41.7982 25.2036C41.5112 25.257 41.2391 25.3718 41.0007 25.5401C40.7622 25.7085 40.563 25.9264 40.4167 26.179C39.6809 27.4164 39.1441 28.771 38.4311 30.0238C38.1704 30.4375 37.7615 30.736 37.2881 30.8582C35.8764 31.1477 34.4228 31.2377 33.0177 31.5516C32.729 31.6103 32.4562 31.7299 32.2175 31.9025C31.9788 32.0751 31.7796 32.2967 31.6334 32.5524C31.6001 32.8428 31.6295 33.1369 31.7196 33.415C31.8097 33.6931 31.9583 33.9486 32.1555 34.1643C33.0752 35.1918 34.0559 36.1631 35.0922 37.0728Z" fill="url(#paint1_linear_343_3256)"/>
<path d="M74.3019 47.0787C74.1613 46.8222 73.967 46.5989 73.7323 46.4244C73.4976 46.2498 73.228 46.1279 72.9418 46.067C71.5712 45.752 70.1623 45.5951 68.7634 45.4154C68.4736 45.4044 68.1934 45.3087 67.9575 45.14C67.7216 44.9713 67.5404 44.7371 67.4362 44.4664C66.8767 43.1717 66.2408 41.9113 65.5321 40.6918C65.2191 40.1825 64.7316 39.8044 64.1605 39.6278C63.4404 39.4544 63.0071 40.0712 62.7003 40.6995C62.0813 41.9669 61.4213 43.2147 60.8242 44.4921C60.7377 44.7345 60.5822 44.9464 60.3769 45.1016C60.1716 45.2569 59.9253 45.3487 59.6685 45.3658C58.2328 45.5142 56.8058 45.7374 55.3934 46.0347C54.8152 46.1789 54.3097 46.5298 53.9724 47.0212C53.593 47.6481 54.0171 48.2593 54.5271 48.7482C55.5693 49.7472 56.6286 50.7327 57.6045 51.7939C57.8969 52.1513 58.0397 52.608 58.0029 53.0683C57.8119 54.6287 57.5104 56.1754 57.2827 57.5333C57.2378 59.0028 58.2065 59.663 59.3869 59.1021C60.6894 58.4832 61.9717 57.8151 63.2242 57.1004C63.4876 56.9129 63.8018 56.8097 64.1251 56.8046C64.4485 56.7995 64.7657 56.8926 65.035 57.0718C66.2458 57.7951 67.4989 58.4452 68.7875 59.0188C69.0406 59.1353 69.3163 59.1949 69.5949 59.1934C69.8736 59.1919 70.1485 59.1294 70.4004 59.0101C70.5978 58.7955 70.7479 58.5418 70.841 58.2655C70.9341 57.9891 70.9681 57.6963 70.9407 57.406C70.8063 55.9404 70.4521 54.4959 70.2865 53.0319C70.261 52.5704 70.4137 52.1166 70.7132 51.7645C71.6902 50.7041 72.8059 49.7693 73.7585 48.6895C73.958 48.4748 74.1095 48.2202 74.2032 47.9425C74.2969 47.6648 74.3305 47.3704 74.3019 47.0787Z" fill="url(#paint2_linear_343_3256)"/>
<path d="M29.5526 44.989C29.4335 44.5775 28.7372 44.1758 28.2307 44.0642C26.8239 43.754 25.3871 43.5655 23.9544 43.3942C23.6792 43.3789 23.4145 43.2837 23.1927 43.1202C22.9708 42.9567 22.8015 42.7319 22.7055 42.4736C22.1576 41.2819 21.5472 40.1189 20.9675 38.9419C20.6419 38.2813 20.3144 37.6173 19.4371 37.604C18.5021 37.5898 18.1789 38.3034 17.8403 38.9902C17.2454 40.1963 16.6861 41.4227 16.0284 42.5936C15.7983 42.9629 15.4343 43.229 15.0126 43.3363C13.5658 43.6232 12.0998 43.8179 10.6373 44.0201C9.93284 44.1175 9.23518 44.3676 9.18945 45.1016C9.19616 45.6976 9.41552 46.2716 9.80796 46.7201C10.7014 47.7267 11.661 48.6725 12.6803 49.5513C12.9601 49.7705 13.1657 50.0703 13.2695 50.4102C13.3732 50.7501 13.37 51.1136 13.2603 51.4517C12.96 52.8626 12.7582 54.2947 12.5263 55.6527C12.4772 55.9193 12.5059 56.1944 12.6089 56.4451C12.7118 56.6959 12.8847 56.9117 13.107 57.0669C13.3293 57.2221 13.5915 57.31 13.8623 57.3203C14.1332 57.3306 14.4013 57.2627 14.6347 57.1248C15.9358 56.502 17.2196 55.8364 18.473 55.1228C18.751 54.9308 19.0804 54.8269 19.4183 54.8245C19.7561 54.8222 20.0869 54.9215 20.3676 55.1097C21.4922 55.786 22.6605 56.3871 23.8647 56.9088C24.4367 57.1594 25.0792 57.198 25.6771 57.0178C26.4174 56.7181 26.3334 55.8998 26.2139 55.1945C25.9894 53.8685 25.8066 52.5338 25.5273 51.2195C25.4394 50.9431 25.4374 50.6465 25.5216 50.3689C25.6058 50.0914 25.7722 49.8459 25.9989 49.6649C27.0826 48.7104 28.11 47.6938 29.0758 46.6203C29.2664 46.3977 29.4074 46.1371 29.4896 45.8559C29.5718 45.5747 29.5933 45.2792 29.5526 44.989Z" fill="url(#paint3_linear_343_3256)"/>
<defs>
<linearGradient id="paint0_linear_343_3256" x1="29.9214" y1="71.1318" x2="49.1785" y2="49.5779" gradientUnits="userSpaceOnUse">
<stop offset="0.479167" stop-color="#F5478E"/>
<stop offset="0.981593" stop-color="#B347F5"/>
</linearGradient>
<linearGradient id="paint1_linear_343_3256" x1="31.6201" y1="42.3884" x2="48.092" y2="23.8502" gradientUnits="userSpaceOnUse">
<stop offset="0.479167" stop-color="#F5478E"/>
<stop offset="0.981593" stop-color="#B347F5"/>
</linearGradient>
<linearGradient id="paint2_linear_343_3256" x1="53.8267" y1="56.8378" x2="70.3529" y2="38.2551" gradientUnits="userSpaceOnUse">
<stop offset="0.479167" stop-color="#F5478E"/>
<stop offset="0.981593" stop-color="#B347F5"/>
</linearGradient>
<linearGradient id="paint3_linear_343_3256" x1="9.18946" y1="54.8566" x2="25.7392" y2="36.3543" gradientUnits="userSpaceOnUse">
<stop offset="0.479167" stop-color="#F5478E"/>
<stop offset="0.981593" stop-color="#B347F5"/>
</linearGradient>
</defs>
</svg>
