<svg width="62" height="73" viewBox="0 0 62 73" fill="none" xmlns="http://www.w3.org/2000/svg">
<path d="M55.0617 34.6076C51.8651 32.0144 48.2513 30.9706 44.1857 31.9051C41.3353 32.5437 38.8296 34.2317 37.167 36.6334C33.4092 41.8706 34.3804 48.0162 39.857 53.4022C39.4608 53.6271 39.0944 53.8503 38.7146 54.0482C33.5053 56.7616 30.2318 60.9898 28.9365 66.7051C28.7363 67.5887 28.425 67.8461 27.5548 67.8399C22.3876 67.803 17.2192 67.8794 12.053 67.8018C5.68021 67.7061 0.334389 62.5907 0.28457 56.2222C0.168094 41.3289 0.169483 26.4348 0.288735 11.5401C0.341776 5.18431 5.7396 0.0778363 12.1238 0.0433675C22.509 -0.0128038 32.8945 -0.0144054 43.2802 0.038544C46.3892 0.0213988 49.3812 1.22223 51.6157 3.38393C53.8502 5.54563 55.1494 8.4963 55.2351 11.6041C55.4391 19.1467 55.2815 26.6991 55.2744 34.2472C55.2742 34.3256 55.1852 34.4038 55.0617 34.6076ZM27.6723 12.1184C23.6223 12.1184 19.5723 12.1101 15.5224 12.1219C13.5731 12.1276 12.4919 12.9957 12.4828 14.5106C12.4737 16.0227 13.5919 16.9647 15.4963 16.9674C23.6468 16.9791 31.7974 16.9793 39.948 16.9681C41.8872 16.9656 42.9608 16.0759 42.9699 14.5406C42.9792 12.9962 41.9274 12.1283 39.974 12.1225C35.8735 12.1104 31.7729 12.1188 27.6723 12.1184ZM27.6403 29.8649C31.7415 29.8649 35.8427 29.8641 39.9438 29.8624C41.9045 29.8584 42.9648 29.0099 42.9707 27.4776C42.9766 25.9382 41.8924 25.0159 39.9801 25.0133C31.8284 25.0021 23.6767 25.0019 15.525 25.0126C13.6036 25.015 12.4968 25.9254 12.4836 27.4406C12.4703 28.9662 13.5578 29.8574 15.4887 29.862C19.5392 29.8715 23.5898 29.8648 27.6403 29.8649ZM20.8424 37.9825C18.922 37.9825 17.0012 37.958 15.0813 37.9901C13.5021 38.0166 12.5029 38.9544 12.4825 40.3428C12.4626 41.706 13.4698 42.7891 15.0101 42.8105C18.85 42.864 22.6919 42.869 26.5316 42.8041C26.8634 42.8179 27.1942 42.7607 27.5022 42.6366C27.8101 42.5124 28.0881 42.324 28.3175 42.084C28.547 41.844 28.7227 41.5579 28.8328 41.2447C28.943 40.9314 28.9852 40.5983 28.9565 40.2675C28.9033 38.9182 27.9604 38.022 26.4517 37.9917C24.5827 37.954 22.7122 37.9826 20.8424 37.9825Z" fill="url(#paint0_linear_343_3276)"/>
<path d="M46.8891 72.9966C42.9912 72.9966 39.0934 73.0041 35.1956 72.9937C32.9455 72.9877 32.1143 72.0967 32.1859 69.8174C32.4315 61.988 39.1948 55.6124 47.1667 55.6951C55.058 55.777 61.6594 62.2385 61.8002 70.0185C61.8376 72.0812 60.9723 72.985 58.8862 72.9925C54.8872 73.0066 50.8881 72.9965 46.8891 72.9966Z" fill="white"/>
<path d="M46.912 35.2312C48.0158 35.2144 49.1118 35.4175 50.1363 35.8287C51.1608 36.2399 52.0931 36.8509 52.879 37.6262C53.6649 38.4014 54.2885 39.3253 54.7136 40.3441C55.1387 41.3628 55.3567 42.4561 55.355 43.56C55.3706 45.7795 54.5045 47.9144 52.9469 49.4957C51.3892 51.077 49.2676 51.9752 47.0481 51.993C44.8286 52.0108 42.6928 51.1467 41.11 49.5907C39.5272 48.0346 38.6269 45.9138 38.6069 43.6943C38.5863 42.5905 38.7858 41.4937 39.1939 40.468C39.6019 39.4422 40.2104 38.508 40.9836 37.7201C41.7568 36.9321 42.6793 36.3062 43.6972 35.8788C44.7151 35.4515 45.808 35.2313 46.912 35.2312Z" fill="white"/>
<defs>
<linearGradient id="paint0_linear_343_3276" x1="0.198249" y1="59.36" x2="57.0205" y2="9.41106" gradientUnits="userSpaceOnUse">
<stop offset="0.479167" stop-color="#F5478E"/>
<stop offset="0.981593" stop-color="#B347F5"/>
</linearGradient>
</defs>
</svg>
