<svg width="54" height="73" viewBox="0 0 54 73" fill="none" xmlns="http://www.w3.org/2000/svg">
<path d="M48.6581 24.7514C48.5224 30.7707 46.1496 36.5249 42.0004 40.8967C38.1022 45.0161 35.9288 50.4659 35.9247 56.1314C35.9063 56.9686 35.9002 57.7997 35.8818 58.6369C35.8454 58.7934 35.7962 58.9467 35.7348 59.0952H12.8342C12.6505 56.8219 12.5709 54.5181 12.2524 52.2509C11.6449 48.0954 9.75952 44.2306 6.85643 41.19C2.1036 36.0384 -0.346314 29.9946 0.0395472 22.967C0.308792 17.4121 2.49326 12.1207 6.22326 7.98818C9.95327 3.85565 14.9997 1.13583 20.5086 0.289009C24.3115 -0.299454 28.1998 0.0134956 31.859 1.20253C35.5182 2.39156 38.8455 4.42329 41.5717 7.13334L40.8122 7.8911L39.3851 9.31497C38.3347 8.38078 36.9658 7.88309 35.5592 7.924C34.1527 7.96491 32.8152 8.54131 31.821 9.53497L25.6105 15.7254C24.5964 14.6819 23.2142 14.0746 21.758 14.0327H21.6539C20.9168 14.0321 20.1868 14.1776 19.5066 14.4609C18.8263 14.7441 18.2092 15.1594 17.6912 15.6826L5.36198 28.2346C4.85301 28.7498 4.45091 29.3601 4.17871 30.0305C3.90651 30.701 3.76957 31.4184 3.77572 32.1418C3.78188 32.8651 3.93101 33.5801 4.21458 34.2458C4.49814 34.9116 4.91057 35.515 5.42823 36.0214C5.94589 36.5279 6.55861 36.9274 7.23129 37.1972C7.90397 37.467 8.62339 37.6017 9.34834 37.5937C10.0733 37.5856 10.7895 37.4349 11.456 37.1502C12.1225 36.8655 12.7261 36.4524 13.2323 35.9345L21.366 27.6602C22.3393 28.6546 23.6553 29.2424 25.047 29.3041C25.1389 29.3102 25.2308 29.3102 25.3227 29.3102C26.0437 29.3102 26.7576 29.1677 27.423 28.8907C28.0885 28.6138 28.6923 28.2081 29.1996 27.6969L35.7225 21.1948C36.773 22.129 38.1419 22.6267 39.5484 22.5857C40.955 22.5448 42.2925 21.9684 43.2866 20.9748L47.3106 16.966L47.4086 16.9293C47.672 17.5954 47.9108 18.2615 48.1252 18.9276C48.3151 20.8709 48.7316 22.8203 48.6581 24.7514Z" fill="url(#paint0_linear_343_3267)"/>
<path d="M13.1593 61.7024H35.3647C36.4394 65.9964 34.1849 69.325 29.9524 69.808C28.8943 72.9303 28.7941 73.0012 25.4559 72.9994C24.4659 72.9988 23.4759 73.0011 22.4859 72.9994C20.0238 72.9956 19.479 72.5226 19.0195 69.9935C14.1811 68.6805 12.5443 66.4362 13.1593 61.7024Z" fill="url(#paint1_linear_343_3267)"/>
<path d="M43.8109 5.28366C44.5089 6.0476 45.0607 6.65171 45.5831 7.22353L45.5672 7.23885C45.8474 7.42524 46.0749 7.67929 46.2284 7.977L46.2533 7.99608L39.3247 14.86L36.9822 12.5395C36.814 12.3728 36.6143 12.2405 36.3945 12.1503C36.1747 12.0601 35.9391 12.0136 35.7012 12.0136C35.4632 12.0136 35.2276 12.0601 35.0078 12.1503C34.788 12.2405 34.5884 12.3728 34.4202 12.5395L25.5363 21.3402L23.1861 18.6238C23.0226 18.4349 22.8213 18.2816 22.5949 18.1739C22.3685 18.0661 22.1219 18.0061 21.8709 17.9978C21.6202 17.9915 21.3707 18.0359 21.1379 18.1283C20.9051 18.2207 20.6937 18.3592 20.5167 18.5353L8.35527 30.8254C8.18524 30.993 8.05049 31.1924 7.95883 31.4119C7.86717 31.6315 7.82042 31.8669 7.8213 32.1045C7.82218 32.3421 7.87067 32.5772 7.96395 32.7961C8.05724 33.015 8.19346 33.2134 8.36473 33.3797C8.53599 33.546 8.73888 33.677 8.96163 33.7651C9.18439 33.8531 9.42258 33.8965 9.66238 33.8927C9.90219 33.8888 10.1388 33.8378 10.3586 33.7427C10.5784 33.6475 10.7769 33.5101 10.9426 33.3384L21.7208 22.4462L24.0584 25.1479C24.2208 25.3358 24.4207 25.4883 24.6454 25.596C24.8702 25.7036 25.115 25.7641 25.3644 25.7735C25.6141 25.7845 25.8633 25.7436 26.0959 25.6532C26.3285 25.5629 26.5395 25.4252 26.715 25.2491L35.7012 16.3471L38.0438 18.6676C38.2119 18.8344 38.4116 18.9666 38.6314 19.0568C38.8512 19.1471 39.0868 19.1935 39.3247 19.1935C39.5627 19.1935 39.7983 19.1471 40.0181 19.0568C40.2379 18.9666 40.4375 18.8344 40.6057 18.6676L48.8278 10.522C48.9123 10.6038 48.9967 10.6855 49.0809 10.7673L49.1296 10.718L51.1901 12.612C52.1114 9.18609 52.9607 6.02838 53.8808 2.60718L43.8109 5.28366Z" fill="#FAFAFA"/>
<defs>
<linearGradient id="paint0_linear_343_3267" x1="5.92403e-06" y1="51.7083" x2="49.5768" y2="7.5537" gradientUnits="userSpaceOnUse">
<stop offset="0.479167" stop-color="#F5478E"/>
<stop offset="0.981593" stop-color="#B347F5"/>
</linearGradient>
<linearGradient id="paint1_linear_343_3267" x1="13.0356" y1="71.5878" x2="20.3046" y2="55.8653" gradientUnits="userSpaceOnUse">
<stop offset="0.479167" stop-color="#F5478E"/>
<stop offset="0.981593" stop-color="#B347F5"/>
</linearGradient>
</defs>
</svg>
